<svg width="2169" height="2169" viewBox="0 0 2169.1789 2169.1789" xmlns="http://www.w3.org/2000/svg">
<line x1="1012.09" y1="1159.65" x2="939.59" y2="1234.70" stroke="#A1A1AA" stroke-width="5" opacity="0.9"/>
<line x1="1138.33" y1="814.02" x2="1192.06" y2="543.44" stroke="#A1A1AA" stroke-width="5" opacity="0.9"/>
<line x1="1360.19" y1="1157.09" x2="1635.79" y2="1229.59" stroke="#A1A1AA" stroke-width="5" opacity="0.9"/>
<circle cx="1084.59" cy="1084.59" r="290.0" fill="#FDFDF5"/>
<line x1="1314.65" y1="1076.01" x2="1331.92" y2="1071.52" stroke="#D32F2F" stroke-width="8.00" stroke-linecap="round"/>
<line x1="1344.38" y1="1089.57" x2="1331.92" y2="1071.52" stroke="#D32F2F" stroke-width="8.00" stroke-linecap="round"/>
<line x1="1316.68" y1="1052.94" x2="1333.18" y2="1048.62" stroke="#D32F2F" stroke-width="8.00" stroke-linecap="round"/>
<line x1="1346.38" y1="1066.93" x2="1333.18" y2="1048.62" stroke="#D32F2F" stroke-width="8.00" stroke-linecap="round"/>
<line x1="1317.26" y1="1029.57" x2="1333.07" y2="1026.02" stroke="#D32F2F" stroke-width="8.00" stroke-linecap="round"/>
<line x1="1346.93" y1="1044.86" x2="1333.07" y2="1026.02" stroke="#D32F2F" stroke-width="8.00" stroke-linecap="round"/>
<line x1="1316.47" y1="1006.08" x2="1331.73" y2="1003.85" stroke="#D32F2F" stroke-width="8.00" stroke-linecap="round"/>
<line x1="1346.22" y1="1023.45" x2="1331.73" y2="1003.85" stroke="#D32F2F" stroke-width="8.00" stroke-linecap="round"/>
<line x1="1314.43" y1="982.71" x2="1329.30" y2="982.31" stroke="#D32F2F" stroke-width="8.00" stroke-linecap="round"/>
<line x1="1344.42" y1="1002.85" x2="1329.30" y2="982.31" stroke="#D32F2F" stroke-width="8.00" stroke-linecap="round"/>
<line x1="1311.21" y1="959.78" x2="1325.88" y2="961.62" stroke="#D32F2F" stroke-width="8.00" stroke-linecap="round"/>
<line x1="1341.66" y1="983.21" x2="1325.88" y2="961.62" stroke="#D32F2F" stroke-width="7.94" stroke-linecap="round"/>
<line x1="1306.88" y1="937.71" x2="1321.54" y2="942.13" stroke="#D32F2F" stroke-width="8.00" stroke-linecap="round"/>
<line x1="1338.04" y1="964.74" x2="1321.54" y2="942.13" stroke="#D32F2F" stroke-width="7.32" stroke-linecap="round"/>
<line x1="1301.54" y1="917.06" x2="1316.36" y2="924.26" stroke="#D32F2F" stroke-width="8.00" stroke-linecap="round"/>
<line x1="1333.65" y1="947.75" x2="1316.36" y2="924.26" stroke="#D32F2F" stroke-width="6.60" stroke-linecap="round"/>
<line x1="1295.23" y1="898.51" x2="1310.37" y2="908.58" stroke="#D32F2F" stroke-width="8.00" stroke-linecap="round"/>
<line x1="1328.51" y1="932.64" x2="1310.37" y2="908.58" stroke="#D32F2F" stroke-width="5.80" stroke-linecap="round"/>
<line x1="1288.06" y1="882.84" x2="1303.65" y2="895.74" stroke="#D32F2F" stroke-width="8.00" stroke-linecap="round"/>
<line x1="1322.69" y1="919.94" x2="1303.65" y2="895.74" stroke="#D32F2F" stroke-width="4.95" stroke-linecap="round"/>
<line x1="974.24" y1="816.42" x2="1002.87" y2="806.50" stroke="#D32F2F" stroke-width="5.79" stroke-linecap="round"/>
<line x1="1032.66" y1="800.74" x2="1005.43" y2="808.71" stroke="#D32F2F" stroke-width="7.30" stroke-linecap="round"/>
<line x1="977.32" y1="816.97" x2="1005.43" y2="808.71" stroke="#D32F2F" stroke-width="6.71" stroke-linecap="round"/>
<line x1="1033.69" y1="806.10" x2="1005.49" y2="815.07" stroke="#D32F2F" stroke-width="6.61" stroke-linecap="round"/>
<line x1="978.16" y1="821.33" x2="1005.49" y2="815.07" stroke="#D32F2F" stroke-width="7.59" stroke-linecap="round"/>
<line x1="1032.14" y1="815.52" x2="1003.24" y2="825.00" stroke="#D32F2F" stroke-width="6.00" stroke-linecap="round"/>
<line x1="976.91" y1="828.98" x2="1003.24" y2="825.00" stroke="#D32F2F" stroke-width="8.00" stroke-linecap="round"/>
<line x1="1028.32" y1="828.29" x2="998.98" y2="837.82" stroke="#D32F2F" stroke-width="5.53" stroke-linecap="round"/>
<line x1="973.81" y1="839.34" x2="998.98" y2="837.82" stroke="#D32F2F" stroke-width="8.00" stroke-linecap="round"/>
<line x1="1022.62" y1="843.69" x2="993.09" y2="852.91" stroke="#D32F2F" stroke-width="5.20" stroke-linecap="round"/>
<line x1="969.16" y1="851.87" x2="993.09" y2="852.91" stroke="#D32F2F" stroke-width="8.00" stroke-linecap="round"/>
<line x1="1015.47" y1="861.05" x2="985.96" y2="869.74" stroke="#D32F2F" stroke-width="6.01" stroke-linecap="round"/>
<line x1="963.28" y1="866.16" x2="985.96" y2="869.74" stroke="#D32F2F" stroke-width="8.00" stroke-linecap="round"/>
<line x1="1007.31" y1="879.83" x2="977.98" y2="887.89" stroke="#D32F2F" stroke-width="6.84" stroke-linecap="round"/>
<line x1="956.46" y1="881.88" x2="977.98" y2="887.89" stroke="#D32F2F" stroke-width="8.00" stroke-linecap="round"/>
<line x1="998.58" y1="899.62" x2="969.51" y2="907.07" stroke="#D32F2F" stroke-width="7.56" stroke-linecap="round"/>
<line x1="948.98" y1="898.83" x2="969.51" y2="907.07" stroke="#D32F2F" stroke-width="8.00" stroke-linecap="round"/>
<line x1="989.67" y1="920.11" x2="960.93" y2="927.07" stroke="#D32F2F" stroke-width="8.00" stroke-linecap="round"/>
<line x1="941.12" y1="916.89" x2="960.93" y2="927.07" stroke="#D32F2F" stroke-width="8.00" stroke-linecap="round"/>
<line x1="980.93" y1="941.10" x2="952.55" y2="947.78" stroke="#D32F2F" stroke-width="8.00" stroke-linecap="round"/>
<line x1="933.16" y1="936.01" x2="952.55" y2="947.78" stroke="#D32F2F" stroke-width="8.00" stroke-linecap="round"/>
<line x1="972.70" y1="962.45" x2="944.70" y2="969.12" stroke="#D32F2F" stroke-width="8.00" stroke-linecap="round"/>
<line x1="925.39" y1="956.18" x2="944.70" y2="969.12" stroke="#D32F2F" stroke-width="8.00" stroke-linecap="round"/>
<line x1="965.27" y1="984.11" x2="937.68" y2="991.07" stroke="#D32F2F" stroke-width="8.00" stroke-linecap="round"/>
<line x1="918.10" y1="977.43" x2="937.68" y2="991.07" stroke="#D32F2F" stroke-width="8.00" stroke-linecap="round"/>
<line x1="958.93" y1="1006.04" x2="931.80" y2="1013.62" stroke="#D32F2F" stroke-width="8.00" stroke-linecap="round"/>
<line x1="911.64" y1="999.79" x2="931.80" y2="1013.62" stroke="#D32F2F" stroke-width="8.00" stroke-linecap="round"/>
<line x1="953.94" y1="1028.23" x2="927.37" y2="1036.80" stroke="#D32F2F" stroke-width="8.00" stroke-linecap="round"/>
<line x1="906.36" y1="1023.29" x2="927.37" y2="1036.80" stroke="#D32F2F" stroke-width="8.00" stroke-linecap="round"/>
<line x1="950.58" y1="1050.70" x2="924.73" y2="1060.59" stroke="#D32F2F" stroke-width="8.00" stroke-linecap="round"/>
<line x1="902.68" y1="1047.95" x2="924.73" y2="1060.59" stroke="#D32F2F" stroke-width="8.00" stroke-linecap="round"/>
<line x1="949.14" y1="1073.42" x2="924.23" y2="1084.96" stroke="#D32F2F" stroke-width="8.00" stroke-linecap="round"/>
<line x1="901.05" y1="1073.73" x2="924.23" y2="1084.96" stroke="#D32F2F" stroke-width="8.00" stroke-linecap="round"/>
<line x1="949.92" y1="1096.37" x2="926.26" y2="1109.85" stroke="#D32F2F" stroke-width="8.00" stroke-linecap="round"/>
<line x1="901.97" y1="1100.53" x2="926.26" y2="1109.85" stroke="#D32F2F" stroke-width="8.00" stroke-linecap="round"/>
<line x1="953.26" y1="1119.47" x2="931.23" y2="1135.07" stroke="#D32F2F" stroke-width="8.00" stroke-linecap="round"/>
<line x1="905.97" y1="1128.14" x2="931.23" y2="1135.07" stroke="#D32F2F" stroke-width="8.00" stroke-linecap="round"/>
<line x1="959.50" y1="1142.57" x2="939.54" y2="1160.36" stroke="#D32F2F" stroke-width="8.00" stroke-linecap="round"/>
<line x1="913.56" y1="1156.21" x2="939.54" y2="1160.36" stroke="#D32F2F" stroke-width="8.00" stroke-linecap="round"/>
<line x1="969.00" y1="1165.38" x2="951.57" y2="1185.29" stroke="#D32F2F" stroke-width="8.00" stroke-linecap="round"/>
<line x1="925.22" y1="1184.22" x2="951.57" y2="1185.29" stroke="#D32F2F" stroke-width="8.00" stroke-linecap="round"/>
<line x1="982.06" y1="1187.48" x2="967.62" y2="1209.27" stroke="#D32F2F" stroke-width="8.00" stroke-linecap="round"/>
<line x1="941.33" y1="1211.47" x2="967.62" y2="1209.27" stroke="#D32F2F" stroke-width="8.00" stroke-linecap="round"/>
<line x1="998.87" y1="1208.25" x2="987.82" y2="1231.52" stroke="#D32F2F" stroke-width="8.00" stroke-linecap="round"/>
<line x1="962.05" y1="1237.07" x2="987.82" y2="1231.52" stroke="#D32F2F" stroke-width="8.00" stroke-linecap="round"/>
<line x1="1019.40" y1="1226.91" x2="1012.01" y2="1251.12" stroke="#D32F2F" stroke-width="8.00" stroke-linecap="round"/>
<line x1="987.27" y1="1260.00" x2="1012.01" y2="1251.12" stroke="#D32F2F" stroke-width="8.00" stroke-linecap="round"/>
<line x1="1043.32" y1="1242.61" x2="1039.72" y2="1267.13" stroke="#D32F2F" stroke-width="8.00" stroke-linecap="round"/>
<line x1="1016.53" y1="1279.20" x2="1039.72" y2="1267.13" stroke="#D32F2F" stroke-width="8.00" stroke-linecap="round"/>
<line x1="1069.94" y1="1254.49" x2="1070.13" y2="1278.69" stroke="#D32F2F" stroke-width="8.00" stroke-linecap="round"/>
<line x1="1049.01" y1="1293.71" x2="1070.13" y2="1278.69" stroke="#D32F2F" stroke-width="8.00" stroke-linecap="round"/>
<line x1="1098.28" y1="1261.95" x2="1102.13" y2="1285.18" stroke="#D32F2F" stroke-width="8.00" stroke-linecap="round"/>
<line x1="1083.55" y1="1302.79" x2="1102.13" y2="1285.18" stroke="#D32F2F" stroke-width="8.00" stroke-linecap="round"/>
<line x1="1127.18" y1="1264.67" x2="1134.44" y2="1286.36" stroke="#D32F2F" stroke-width="8.00" stroke-linecap="round"/>
<line x1="1118.82" y1="1306.11" x2="1134.44" y2="1286.36" stroke="#D32F2F" stroke-width="8.00" stroke-linecap="round"/>
<line x1="1155.50" y1="1262.72" x2="1165.83" y2="1282.39" stroke="#D32F2F" stroke-width="8.00" stroke-linecap="round"/>
<line x1="1153.47" y1="1303.72" x2="1165.83" y2="1282.39" stroke="#D32F2F" stroke-width="8.00" stroke-linecap="round"/>
<line x1="1182.26" y1="1256.49" x2="1195.28" y2="1273.74" stroke="#D32F2F" stroke-width="8.00" stroke-linecap="round"/>
<line x1="1186.35" y1="1296.07" x2="1195.28" y2="1273.74" stroke="#D32F2F" stroke-width="8.00" stroke-linecap="round"/>
<line x1="1206.77" y1="1246.59" x2="1222.06" y2="1261.11" stroke="#D32F2F" stroke-width="8.00" stroke-linecap="round"/>
<line x1="1216.56" y1="1283.87" x2="1222.06" y2="1261.11" stroke="#D32F2F" stroke-width="8.00" stroke-linecap="round"/>
<line x1="1228.65" y1="1233.68" x2="1245.75" y2="1245.28" stroke="#D32F2F" stroke-width="8.00" stroke-linecap="round"/>
<line x1="1243.53" y1="1267.96" x2="1245.75" y2="1245.28" stroke="#D32F2F" stroke-width="8.00" stroke-linecap="round"/>
<line x1="1247.76" y1="1218.40" x2="1266.19" y2="1227.00" stroke="#D32F2F" stroke-width="8.00" stroke-linecap="round"/>
<line x1="1266.99" y1="1249.19" x2="1266.19" y2="1227.00" stroke="#D32F2F" stroke-width="8.00" stroke-linecap="round"/>
<line x1="1264.14" y1="1201.25" x2="1283.42" y2="1206.93" stroke="#D32F2F" stroke-width="8.00" stroke-linecap="round"/>
<line x1="1286.91" y1="1228.35" x2="1283.42" y2="1206.93" stroke="#D32F2F" stroke-width="8.00" stroke-linecap="round"/>
<line x1="1277.94" y1="1182.66" x2="1297.62" y2="1185.58" stroke="#D32F2F" stroke-width="8.00" stroke-linecap="round"/>
<line x1="1303.41" y1="1206.13" x2="1297.62" y2="1185.58" stroke="#D32F2F" stroke-width="8.00" stroke-linecap="round"/>
<line x1="1289.34" y1="1162.91" x2="1309.02" y2="1163.40" stroke="#D32F2F" stroke-width="8.00" stroke-linecap="round"/>
<line x1="1316.73" y1="1183.07" x2="1309.02" y2="1163.40" stroke="#D32F2F" stroke-width="8.00" stroke-linecap="round"/>
<line x1="1298.54" y1="1142.23" x2="1317.88" y2="1140.68" stroke="#D32F2F" stroke-width="8.00" stroke-linecap="round"/>
<line x1="1327.17" y1="1159.61" x2="1317.88" y2="1140.68" stroke="#D32F2F" stroke-width="8.00" stroke-linecap="round"/>
<line x1="1305.71" y1="1120.77" x2="1324.49" y2="1117.68" stroke="#D32F2F" stroke-width="8.00" stroke-linecap="round"/>
<line x1="1335.05" y1="1136.06" x2="1324.49" y2="1117.68" stroke="#D32F2F" stroke-width="8.00" stroke-linecap="round"/>
<line x1="1311.03" y1="1098.66" x2="1329.09" y2="1094.58" stroke="#D32F2F" stroke-width="8.00" stroke-linecap="round"/>
<line x1="1340.69" y1="1112.66" x2="1329.09" y2="1094.58" stroke="#D32F2F" stroke-width="8.00" stroke-linecap="round"/>
<line x1="1314.65" y1="1076.01" x2="1331.92" y2="1071.52" stroke="#D32F2F" stroke-width="8.00" stroke-linecap="round"/>
<line x1="1344.38" y1="1089.57" x2="1331.92" y2="1071.52" stroke="#D32F2F" stroke-width="8.00" stroke-linecap="round"/>
<line x1="1316.68" y1="1052.94" x2="1333.18" y2="1048.62" stroke="#D32F2F" stroke-width="8.00" stroke-linecap="round"/>
<line x1="1346.38" y1="1066.93" x2="1333.18" y2="1048.62" stroke="#D32F2F" stroke-width="8.00" stroke-linecap="round"/>
<line x1="1317.26" y1="1029.57" x2="1333.07" y2="1026.02" stroke="#D32F2F" stroke-width="8.00" stroke-linecap="round"/>
<line x1="1346.93" y1="1044.86" x2="1333.07" y2="1026.02" stroke="#D32F2F" stroke-width="8.00" stroke-linecap="round"/>
<line x1="1316.47" y1="1006.08" x2="1331.73" y2="1003.85" stroke="#D32F2F" stroke-width="8.00" stroke-linecap="round"/>
<line x1="1346.22" y1="1023.45" x2="1331.73" y2="1003.85" stroke="#D32F2F" stroke-width="8.00" stroke-linecap="round"/>
<line x1="1314.43" y1="982.71" x2="1329.30" y2="982.31" stroke="#D32F2F" stroke-width="8.00" stroke-linecap="round"/>
<line x1="1344.42" y1="1002.85" x2="1329.30" y2="982.31" stroke="#D32F2F" stroke-width="8.00" stroke-linecap="round"/>
<line x1="1311.21" y1="959.78" x2="1325.88" y2="961.62" stroke="#D32F2F" stroke-width="8.00" stroke-linecap="round"/>
<line x1="1341.66" y1="983.21" x2="1325.88" y2="961.62" stroke="#D32F2F" stroke-width="7.94" stroke-linecap="round"/>
<line x1="1306.88" y1="937.71" x2="1321.54" y2="942.13" stroke="#D32F2F" stroke-width="8.00" stroke-linecap="round"/>
<line x1="1338.04" y1="964.74" x2="1321.54" y2="942.13" stroke="#D32F2F" stroke-width="7.32" stroke-linecap="round"/>
<line x1="1301.54" y1="917.06" x2="1316.36" y2="924.26" stroke="#D32F2F" stroke-width="8.00" stroke-linecap="round"/>
<line x1="1333.65" y1="947.75" x2="1316.36" y2="924.26" stroke="#D32F2F" stroke-width="6.60" stroke-linecap="round"/>
<line x1="1295.23" y1="898.51" x2="1310.37" y2="908.58" stroke="#D32F2F" stroke-width="8.00" stroke-linecap="round"/>
<line x1="1328.51" y1="932.64" x2="1310.37" y2="908.58" stroke="#D32F2F" stroke-width="5.80" stroke-linecap="round"/>
<line x1="1288.06" y1="882.84" x2="1303.65" y2="895.74" stroke="#D32F2F" stroke-width="8.00" stroke-linecap="round"/>
<line x1="1322.69" y1="919.94" x2="1303.65" y2="895.74" stroke="#D32F2F" stroke-width="4.95" stroke-linecap="round"/>
<line x1="974.24" y1="816.42" x2="1002.87" y2="806.50" stroke="#D32F2F" stroke-width="5.79" stroke-linecap="round"/>
<line x1="1032.66" y1="800.74" x2="1005.43" y2="808.71" stroke="#D32F2F" stroke-width="7.30" stroke-linecap="round"/>
<line x1="977.32" y1="816.97" x2="1005.43" y2="808.71" stroke="#D32F2F" stroke-width="6.71" stroke-linecap="round"/>
<line x1="1033.69" y1="806.10" x2="1005.49" y2="815.07" stroke="#D32F2F" stroke-width="6.61" stroke-linecap="round"/>
<line x1="978.16" y1="821.33" x2="1005.49" y2="815.07" stroke="#D32F2F" stroke-width="7.59" stroke-linecap="round"/>
<line x1="1032.14" y1="815.52" x2="1003.24" y2="825.00" stroke="#D32F2F" stroke-width="6.00" stroke-linecap="round"/>
<line x1="976.91" y1="828.98" x2="1003.24" y2="825.00" stroke="#D32F2F" stroke-width="8.00" stroke-linecap="round"/>
<line x1="1028.32" y1="828.29" x2="998.98" y2="837.82" stroke="#D32F2F" stroke-width="5.53" stroke-linecap="round"/>
<line x1="973.81" y1="839.34" x2="998.98" y2="837.82" stroke="#D32F2F" stroke-width="8.00" stroke-linecap="round"/>
<line x1="1022.62" y1="843.69" x2="993.09" y2="852.91" stroke="#D32F2F" stroke-width="5.20" stroke-linecap="round"/>
<line x1="969.16" y1="851.87" x2="993.09" y2="852.91" stroke="#D32F2F" stroke-width="8.00" stroke-linecap="round"/>
<line x1="1015.47" y1="861.05" x2="985.96" y2="869.74" stroke="#D32F2F" stroke-width="6.01" stroke-linecap="round"/>
<line x1="963.28" y1="866.16" x2="985.96" y2="869.74" stroke="#D32F2F" stroke-width="8.00" stroke-linecap="round"/>
<line x1="1007.31" y1="879.83" x2="977.98" y2="887.89" stroke="#D32F2F" stroke-width="6.84" stroke-linecap="round"/>
<line x1="956.46" y1="881.88" x2="977.98" y2="887.89" stroke="#D32F2F" stroke-width="8.00" stroke-linecap="round"/>
<line x1="998.58" y1="899.62" x2="969.51" y2="907.07" stroke="#D32F2F" stroke-width="7.56" stroke-linecap="round"/>
<line x1="948.98" y1="898.83" x2="969.51" y2="907.07" stroke="#D32F2F" stroke-width="8.00" stroke-linecap="round"/>
<line x1="989.67" y1="920.11" x2="960.93" y2="927.07" stroke="#D32F2F" stroke-width="8.00" stroke-linecap="round"/>
<line x1="941.12" y1="916.89" x2="960.93" y2="927.07" stroke="#D32F2F" stroke-width="8.00" stroke-linecap="round"/>
<line x1="980.93" y1="941.10" x2="952.55" y2="947.78" stroke="#D32F2F" stroke-width="8.00" stroke-linecap="round"/>
<line x1="933.16" y1="936.01" x2="952.55" y2="947.78" stroke="#D32F2F" stroke-width="8.00" stroke-linecap="round"/>
<line x1="972.70" y1="962.45" x2="944.70" y2="969.12" stroke="#D32F2F" stroke-width="8.00" stroke-linecap="round"/>
<line x1="925.39" y1="956.18" x2="944.70" y2="969.12" stroke="#D32F2F" stroke-width="8.00" stroke-linecap="round"/>
<line x1="965.27" y1="984.11" x2="937.68" y2="991.07" stroke="#D32F2F" stroke-width="8.00" stroke-linecap="round"/>
<line x1="918.10" y1="977.43" x2="937.68" y2="991.07" stroke="#D32F2F" stroke-width="8.00" stroke-linecap="round"/>
<line x1="958.93" y1="1006.04" x2="931.80" y2="1013.62" stroke="#D32F2F" stroke-width="8.00" stroke-linecap="round"/>
<line x1="911.64" y1="999.79" x2="931.80" y2="1013.62" stroke="#D32F2F" stroke-width="8.00" stroke-linecap="round"/>
<line x1="953.94" y1="1028.23" x2="927.37" y2="1036.80" stroke="#D32F2F" stroke-width="8.00" stroke-linecap="round"/>
<line x1="906.36" y1="1023.29" x2="927.37" y2="1036.80" stroke="#D32F2F" stroke-width="8.00" stroke-linecap="round"/>
<line x1="950.58" y1="1050.70" x2="924.73" y2="1060.59" stroke="#D32F2F" stroke-width="8.00" stroke-linecap="round"/>
<line x1="902.68" y1="1047.95" x2="924.73" y2="1060.59" stroke="#D32F2F" stroke-width="8.00" stroke-linecap="round"/>
<line x1="949.14" y1="1073.42" x2="924.23" y2="1084.96" stroke="#D32F2F" stroke-width="8.00" stroke-linecap="round"/>
<line x1="901.05" y1="1073.73" x2="924.23" y2="1084.96" stroke="#D32F2F" stroke-width="8.00" stroke-linecap="round"/>
<line x1="949.92" y1="1096.37" x2="926.26" y2="1109.85" stroke="#D32F2F" stroke-width="8.00" stroke-linecap="round"/>
<line x1="901.97" y1="1100.53" x2="926.26" y2="1109.85" stroke="#D32F2F" stroke-width="8.00" stroke-linecap="round"/>
<line x1="953.26" y1="1119.47" x2="931.23" y2="1135.07" stroke="#D32F2F" stroke-width="8.00" stroke-linecap="round"/>
<line x1="905.97" y1="1128.14" x2="931.23" y2="1135.07" stroke="#D32F2F" stroke-width="8.00" stroke-linecap="round"/>
<line x1="959.50" y1="1142.57" x2="939.54" y2="1160.36" stroke="#D32F2F" stroke-width="8.00" stroke-linecap="round"/>
<line x1="913.56" y1="1156.21" x2="939.54" y2="1160.36" stroke="#D32F2F" stroke-width="8.00" stroke-linecap="round"/>
<line x1="969.00" y1="1165.38" x2="951.57" y2="1185.29" stroke="#D32F2F" stroke-width="8.00" stroke-linecap="round"/>
<line x1="925.22" y1="1184.22" x2="951.57" y2="1185.29" stroke="#D32F2F" stroke-width="8.00" stroke-linecap="round"/>
<line x1="982.06" y1="1187.48" x2="967.62" y2="1209.27" stroke="#D32F2F" stroke-width="8.00" stroke-linecap="round"/>
<line x1="941.33" y1="1211.47" x2="967.62" y2="1209.27" stroke="#D32F2F" stroke-width="8.00" stroke-linecap="round"/>
<line x1="998.87" y1="1208.25" x2="987.82" y2="1231.52" stroke="#D32F2F" stroke-width="8.00" stroke-linecap="round"/>
<line x1="962.05" y1="1237.07" x2="987.82" y2="1231.52" stroke="#D32F2F" stroke-width="8.00" stroke-linecap="round"/>
<line x1="1019.40" y1="1226.91" x2="1012.01" y2="1251.12" stroke="#D32F2F" stroke-width="8.00" stroke-linecap="round"/>
<line x1="987.27" y1="1260.00" x2="1012.01" y2="1251.12" stroke="#D32F2F" stroke-width="8.00" stroke-linecap="round"/>
<line x1="1043.32" y1="1242.61" x2="1039.72" y2="1267.13" stroke="#D32F2F" stroke-width="8.00" stroke-linecap="round"/>
<line x1="1016.53" y1="1279.20" x2="1039.72" y2="1267.13" stroke="#D32F2F" stroke-width="8.00" stroke-linecap="round"/>
<line x1="1069.94" y1="1254.49" x2="1070.13" y2="1278.69" stroke="#D32F2F" stroke-width="8.00" stroke-linecap="round"/>
<line x1="1049.01" y1="1293.71" x2="1070.13" y2="1278.69" stroke="#D32F2F" stroke-width="8.00" stroke-linecap="round"/>
<line x1="1098.28" y1="1261.95" x2="1102.13" y2="1285.18" stroke="#D32F2F" stroke-width="8.00" stroke-linecap="round"/>
<line x1="1083.55" y1="1302.79" x2="1102.13" y2="1285.18" stroke="#D32F2F" stroke-width="8.00" stroke-linecap="round"/>
<line x1="1127.18" y1="1264.67" x2="1134.44" y2="1286.36" stroke="#D32F2F" stroke-width="8.00" stroke-linecap="round"/>
<line x1="1118.82" y1="1306.11" x2="1134.44" y2="1286.36" stroke="#D32F2F" stroke-width="8.00" stroke-linecap="round"/>
<line x1="1155.50" y1="1262.72" x2="1165.83" y2="1282.39" stroke="#D32F2F" stroke-width="8.00" stroke-linecap="round"/>
<line x1="1153.47" y1="1303.72" x2="1165.83" y2="1282.39" stroke="#D32F2F" stroke-width="8.00" stroke-linecap="round"/>
<line x1="1182.26" y1="1256.49" x2="1195.28" y2="1273.74" stroke="#D32F2F" stroke-width="8.00" stroke-linecap="round"/>
<line x1="1186.35" y1="1296.07" x2="1195.28" y2="1273.74" stroke="#D32F2F" stroke-width="8.00" stroke-linecap="round"/>
<line x1="1206.77" y1="1246.59" x2="1222.06" y2="1261.11" stroke="#D32F2F" stroke-width="8.00" stroke-linecap="round"/>
<line x1="1216.56" y1="1283.87" x2="1222.06" y2="1261.11" stroke="#D32F2F" stroke-width="8.00" stroke-linecap="round"/>
<line x1="1228.65" y1="1233.68" x2="1245.75" y2="1245.28" stroke="#D32F2F" stroke-width="8.00" stroke-linecap="round"/>
<line x1="1243.53" y1="1267.96" x2="1245.75" y2="1245.28" stroke="#D32F2F" stroke-width="8.00" stroke-linecap="round"/>
<line x1="1247.76" y1="1218.40" x2="1266.19" y2="1227.00" stroke="#D32F2F" stroke-width="8.00" stroke-linecap="round"/>
<line x1="1266.99" y1="1249.19" x2="1266.19" y2="1227.00" stroke="#D32F2F" stroke-width="8.00" stroke-linecap="round"/>
<line x1="1264.14" y1="1201.25" x2="1283.42" y2="1206.93" stroke="#D32F2F" stroke-width="8.00" stroke-linecap="round"/>
<line x1="1286.91" y1="1228.35" x2="1283.42" y2="1206.93" stroke="#D32F2F" stroke-width="8.00" stroke-linecap="round"/>
<line x1="1277.94" y1="1182.66" x2="1297.62" y2="1185.58" stroke="#D32F2F" stroke-width="8.00" stroke-linecap="round"/>
<line x1="1303.41" y1="1206.13" x2="1297.62" y2="1185.58" stroke="#D32F2F" stroke-width="8.00" stroke-linecap="round"/>
<line x1="1289.34" y1="1162.91" x2="1309.02" y2="1163.40" stroke="#D32F2F" stroke-width="8.00" stroke-linecap="round"/>
<line x1="1316.73" y1="1183.07" x2="1309.02" y2="1163.40" stroke="#D32F2F" stroke-width="8.00" stroke-linecap="round"/>
<line x1="1298.54" y1="1142.23" x2="1317.88" y2="1140.68" stroke="#D32F2F" stroke-width="8.00" stroke-linecap="round"/>
<line x1="1327.17" y1="1159.61" x2="1317.88" y2="1140.68" stroke="#D32F2F" stroke-width="8.00" stroke-linecap="round"/>
<line x1="1305.71" y1="1120.77" x2="1324.49" y2="1117.68" stroke="#D32F2F" stroke-width="8.00" stroke-linecap="round"/>
<line x1="1335.05" y1="1136.06" x2="1324.49" y2="1117.68" stroke="#D32F2F" stroke-width="8.00" stroke-linecap="round"/>
<line x1="1311.03" y1="1098.66" x2="1329.09" y2="1094.58" stroke="#D32F2F" stroke-width="8.00" stroke-linecap="round"/>
<line x1="1340.69" y1="1112.66" x2="1329.09" y2="1094.58" stroke="#D32F2F" stroke-width="8.00" stroke-linecap="round"/>
<circle cx="1084.59" cy="1084.59" r="290.0" fill="none" stroke="#ccc" stroke-width="0.5"/>
<line x1="533.39" y1="939.59" x2="808.99" y2="1012.09" stroke="#A1A1AA" stroke-width="5" opacity="0.9"/>
<line x1="977.12" y1="1625.74" x2="1030.85" y2="1355.16" stroke="#A1A1AA" stroke-width="5" opacity="0.9"/>
<line x1="1229.59" y1="934.47" x2="1157.09" y2="1009.53" stroke="#A1A1AA" stroke-width="5" opacity="0.9"/>
<polygon points="1635.79,1229.59 1614.42,1232.24 1618.49,1216.76" fill="#A1A1AA" opacity="0.9"/>
<polygon points="939.59,1234.70 947.73,1214.76 959.24,1225.88" fill="#A1A1AA" opacity="0.9"/>
<polygon points="1192.06,543.44 1196.01,564.62 1180.32,561.50" fill="#A1A1AA" opacity="0.9"/>
<text x="1735.01" y="1255.69" font-family="Palatino, 'Palatino Linotype', 'Book Antiqua', Georgia, serif" font-style="italic" font-size="52" fill="#A1A1AA" text-anchor="middle" dominant-baseline="middle" opacity="0.9">x</text>
<text x="913.49" y="1261.73" font-family="Palatino, 'Palatino Linotype', 'Book Antiqua', Georgia, serif" font-style="italic" font-size="52" fill="#A1A1AA" text-anchor="middle" dominant-baseline="middle" opacity="0.9">y</text>
<text x="1211.41" y="446.04" font-family="Palatino, 'Palatino Linotype', 'Book Antiqua', Georgia, serif" font-style="italic" font-size="52" fill="#A1A1AA" text-anchor="middle" dominant-baseline="middle" opacity="0.9">z</text>
<polyline points="1060.97,1517.05 1063.63,1519.12 1065.89,1521.19 1067.74,1523.23 1069.16,1525.24 1070.15,1527.20 1070.69,1529.10 1070.79,1530.93 1070.45,1532.67 1069.66,1534.33 1068.43,1535.87 1066.78,1537.31 1064.70,1538.62 1062.21,1539.81 1059.34,1540.85 1056.09,1541.75 1052.48,1542.50 1048.55,1543.10 1044.30,1543.54 1039.78,1543.82 1034.99,1543.94 1029.99,1543.89 1024.79,1543.69 1019.43,1543.32 1013.94,1542.79 1008.36,1542.10 1002.72,1541.27 997.05,1540.28 991.39,1539.16 985.78,1537.90 980.25,1536.52 974.82,1535.02 969.55,1533.41 964.45,1531.71 959.57,1529.92 954.93,1528.05 950.55,1526.11 946.47,1524.12 942.71,1522.09 939.30,1520.04 936.26,1517.97 933.59,1515.89 931.33,1513.82 929.49,1511.78 928.06,1509.77 927.08,1507.82 926.53,1505.92 926.43,1504.09 926.78,1502.34 927.57,1500.69 928.79,1499.14 930.45,1497.71 932.53,1496.39 935.01,1495.21 937.89,1494.16 941.14,1493.26 944.74,1492.51 948.68,1491.91 952.92,1491.47 957.45,1491.19 962.23,1491.07" fill="none" stroke="#A1A1AA" stroke-width="2.2" stroke-linecap="round" stroke-linejoin="round" opacity="0.85"/>
<polygon points="962.23,1491.07 952.36,1496.32 952.11,1486.32" fill="#A1A1AA" opacity="0.85"/>
<text x="969.23" y="1547.93" font-family="Palatino, 'Palatino Linotype', 'Book Antiqua', Georgia, serif" font-style="italic" font-size="28" fill="#A1A1AA" text-anchor="middle" dominant-baseline="middle" opacity="0.85">yaw</text>
<polyline points="646.99,1003.61 648.75,998.65 650.48,993.50 652.17,988.19 653.81,982.77 655.39,977.25 656.89,971.69 658.31,966.10 659.64,960.53 660.87,955.01 661.99,949.57 663.01,944.26 663.90,939.09 664.66,934.10 665.30,929.32 665.80,924.79 666.17,920.53 666.40,916.56 666.49,912.92 666.43,909.61 666.24,906.68 665.91,904.12 665.44,901.96 664.83,900.21 664.09,898.88 663.23,897.99 662.25,897.52 661.15,897.50 659.95,897.91 658.64,898.76 657.24,900.04 655.76,901.75 654.20,903.86 652.58,906.38 650.90,909.27 649.18,912.54 647.42,916.15 645.64,920.08 643.84,924.31 642.05,928.82 640.27,933.57 638.50,938.53 636.77,943.68 635.08,948.99 633.44,954.41 631.87,959.93 630.37,965.49 628.95,971.08 627.62,976.65 626.38,982.17 625.26,987.60 624.25,992.92 623.36,998.09 622.59,1003.08 621.95,1007.86 621.45,1012.39 621.08,1016.65 620.85,1020.62 620.77,1024.26 620.82,1027.56 621.01,1030.50" fill="none" stroke="#A1A1AA" stroke-width="2.2" stroke-linecap="round" stroke-linejoin="round" opacity="0.85"/>
<polygon points="621.01,1030.50 615.37,1020.85 625.34,1020.20" fill="#A1A1AA" opacity="0.85"/>
<text x="665.41" y="858.92" font-family="Palatino, 'Palatino Linotype', 'Book Antiqua', Georgia, serif" font-style="italic" font-size="28" fill="#A1A1AA" text-anchor="middle" dominant-baseline="middle" opacity="0.85">pitch</text>
<polyline points="1240.33,1025.95 1244.84,1022.98 1249.07,1019.65 1253.01,1015.97 1256.62,1011.98 1259.88,1007.70 1262.78,1003.15 1265.30,998.36 1267.42,993.36 1269.13,988.19 1270.41,982.86 1271.26,977.43 1271.68,971.92 1271.66,966.36 1271.20,960.78 1270.30,955.23 1268.98,949.74 1267.23,944.34 1265.08,939.07 1262.52,933.95 1259.58,929.02 1256.28,924.30 1252.64,919.84 1248.68,915.65 1244.42,911.76 1239.88,908.20 1235.11,904.98 1230.13,902.13 1224.96,899.67 1219.64,897.60 1214.20,895.95 1208.68,894.72 1203.11,893.92 1197.53,893.56 1191.96,893.63 1186.45,894.14 1181.02,895.08 1175.72,896.46 1170.56,898.25 1165.60,900.45 1160.85,903.04 1156.34,906.01 1152.11,909.35 1148.17,913.02 1144.56,917.01 1141.29,921.30 1138.39,925.85 1135.88,930.64 1133.76,935.63 1132.05,940.81 1130.77,946.13 1129.92,951.57 1129.50,957.08 1129.52,962.64 1129.98,968.21 1130.88,973.76 1132.20,979.25 1133.95,984.65 1136.10,989.93 1138.66,995.05 1141.59,999.98" fill="none" stroke="#A1A1AA" stroke-width="2.2" stroke-linecap="round" stroke-linejoin="round" opacity="0.85"/>
<polygon points="1141.59,999.98 1132.18,993.95 1140.77,988.83" fill="#A1A1AA" opacity="0.85"/>
<text x="1222.37" y="854.82" font-family="Palatino, 'Palatino Linotype', 'Book Antiqua', Georgia, serif" font-style="italic" font-size="28" fill="#A1A1AA" text-anchor="middle" dominant-baseline="middle" opacity="0.85">roll</text>
</svg>