<svg width="2169" height="2169" viewBox="0 0 2169.1789 2169.1789" xmlns="http://www.w3.org/2000/svg">
<line x1="959.02" y1="939.59" x2="833.44" y2="794.59" stroke="#A1A1AA" stroke-width="5" opacity="0.9"/>
<line x1="1074.53" y1="1569.77" x2="1079.56" y2="1327.18" stroke="#A1A1AA" stroke-width="5" opacity="0.9"/>
<line x1="1345.94" y1="1019.59" x2="1607.30" y2="954.59" stroke="#A1A1AA" stroke-width="5" opacity="0.9"/>
<circle cx="1084.59" cy="1084.59" r="290.0" fill="#FDFDF5"/>
<line x1="1347.29" y1="1158.68" x2="1357.67" y2="1132.27" stroke="#D32F2F" stroke-width="7.62" stroke-linecap="round"/>
<line x1="1366.37" y1="1123.08" x2="1357.67" y2="1132.27" stroke="#D32F2F" stroke-width="8.00" stroke-linecap="round"/>
<line x1="1345.78" y1="1140.33" x2="1355.30" y2="1113.81" stroke="#D32F2F" stroke-width="7.88" stroke-linecap="round"/>
<line x1="1364.89" y1="1105.08" x2="1355.30" y2="1113.81" stroke="#D32F2F" stroke-width="8.00" stroke-linecap="round"/>
<line x1="1342.48" y1="1121.05" x2="1351.29" y2="1094.75" stroke="#D32F2F" stroke-width="8.00" stroke-linecap="round"/>
<line x1="1361.78" y1="1086.86" x2="1351.29" y2="1094.75" stroke="#D32F2F" stroke-width="8.00" stroke-linecap="round"/>
<line x1="1337.43" y1="1100.61" x2="1345.73" y2="1074.90" stroke="#D32F2F" stroke-width="8.00" stroke-linecap="round"/>
<line x1="1357.18" y1="1068.25" x2="1345.73" y2="1074.90" stroke="#D32F2F" stroke-width="8.00" stroke-linecap="round"/>
<line x1="1330.66" y1="1078.85" x2="1338.70" y2="1054.10" stroke="#D32F2F" stroke-width="8.00" stroke-linecap="round"/>
<line x1="1351.21" y1="1049.07" x2="1338.70" y2="1054.10" stroke="#D32F2F" stroke-width="8.00" stroke-linecap="round"/>
<line x1="1322.18" y1="1055.62" x2="1330.24" y2="1032.25" stroke="#D32F2F" stroke-width="8.00" stroke-linecap="round"/>
<line x1="1343.96" y1="1029.18" x2="1330.24" y2="1032.25" stroke="#D32F2F" stroke-width="8.00" stroke-linecap="round"/>
<line x1="1312.03" y1="1030.89" x2="1320.39" y2="1009.28" stroke="#D32F2F" stroke-width="8.00" stroke-linecap="round"/>
<line x1="1335.46" y1="1008.49" x2="1320.39" y2="1009.28" stroke="#D32F2F" stroke-width="8.00" stroke-linecap="round"/>
<line x1="1300.26" y1="1004.73" x2="1309.21" y2="985.28" stroke="#D32F2F" stroke-width="8.00" stroke-linecap="round"/>
<line x1="1325.78" y1="986.96" x2="1309.21" y2="985.28" stroke="#D32F2F" stroke-width="8.00" stroke-linecap="round"/>
<line x1="1286.97" y1="977.40" x2="1296.78" y2="960.45" stroke="#D32F2F" stroke-width="8.00" stroke-linecap="round"/>
<line x1="1314.96" y1="964.71" x2="1296.78" y2="960.45" stroke="#D32F2F" stroke-width="8.00" stroke-linecap="round"/>
<line x1="1272.31" y1="949.35" x2="1283.20" y2="935.20" stroke="#D32F2F" stroke-width="8.00" stroke-linecap="round"/>
<line x1="1303.07" y1="941.96" x2="1283.20" y2="935.20" stroke="#D32F2F" stroke-width="8.00" stroke-linecap="round"/>
<line x1="1256.54" y1="921.29" x2="1268.70" y2="910.14" stroke="#D32F2F" stroke-width="8.00" stroke-linecap="round"/>
<line x1="1290.27" y1="919.19" x2="1268.70" y2="910.14" stroke="#D32F2F" stroke-width="8.00" stroke-linecap="round"/>
<line x1="1239.98" y1="894.12" x2="1253.58" y2="886.11" stroke="#D32F2F" stroke-width="8.00" stroke-linecap="round"/>
<line x1="1276.80" y1="897.07" x2="1253.58" y2="886.11" stroke="#D32F2F" stroke-width="8.00" stroke-linecap="round"/>
<line x1="1223.11" y1="868.88" x2="1238.29" y2="864.07" stroke="#D32F2F" stroke-width="8.00" stroke-linecap="round"/>
<line x1="1263.01" y1="876.45" x2="1238.29" y2="864.07" stroke="#D32F2F" stroke-width="7.74" stroke-linecap="round"/>
<line x1="1206.50" y1="846.69" x2="1223.35" y2="845.02" stroke="#D32F2F" stroke-width="8.00" stroke-linecap="round"/>
<line x1="1249.39" y1="858.27" x2="1223.35" y2="845.02" stroke="#D32F2F" stroke-width="6.85" stroke-linecap="round"/>
<line x1="1190.76" y1="828.52" x2="1209.36" y2="829.83" stroke="#D32F2F" stroke-width="8.00" stroke-linecap="round"/>
<line x1="1236.48" y1="843.36" x2="1209.36" y2="829.83" stroke="#D32F2F" stroke-width="5.89" stroke-linecap="round"/>
<line x1="1176.51" y1="815.07" x2="1196.87" y2="819.10" stroke="#D32F2F" stroke-width="8.00" stroke-linecap="round"/>
<line x1="1224.80" y1="832.33" x2="1196.87" y2="819.10" stroke="#D32F2F" stroke-width="4.89" stroke-linecap="round"/>
<line x1="1164.25" y1="806.67" x2="1186.34" y2="813.03" stroke="#D32F2F" stroke-width="8.00" stroke-linecap="round"/>
<line x1="1214.79" y1="825.47" x2="1186.34" y2="813.03" stroke="#D32F2F" stroke-width="4.07" stroke-linecap="round"/>
<line x1="838.43" y1="933.31" x2="853.98" y2="909.23" stroke="#D32F2F" stroke-width="7.11" stroke-linecap="round"/>
<line x1="874.72" y1="884.56" x2="865.91" y2="897.10" stroke="#D32F2F" stroke-width="8.00" stroke-linecap="round"/>
<line x1="848.80" y1="921.27" x2="865.91" y2="897.10" stroke="#D32F2F" stroke-width="6.55" stroke-linecap="round"/>
<line x1="888.82" y1="872.88" x2="879.05" y2="887.88" stroke="#D32F2F" stroke-width="8.00" stroke-linecap="round"/>
<line x1="860.29" y1="911.76" x2="879.05" y2="887.88" stroke="#D32F2F" stroke-width="5.97" stroke-linecap="round"/>
<line x1="904.22" y1="864.91" x2="893.27" y2="882.21" stroke="#D32F2F" stroke-width="8.00" stroke-linecap="round"/>
<line x1="872.78" y1="905.29" x2="893.27" y2="882.21" stroke="#D32F2F" stroke-width="5.42" stroke-linecap="round"/>
<line x1="920.65" y1="861.40" x2="908.32" y2="880.72" stroke="#D32F2F" stroke-width="8.00" stroke-linecap="round"/>
<line x1="886.11" y1="902.44" x2="908.32" y2="880.72" stroke="#D32F2F" stroke-width="4.94" stroke-linecap="round"/>
<line x1="937.74" y1="863.01" x2="923.87" y2="883.96" stroke="#D32F2F" stroke-width="8.00" stroke-linecap="round"/>
<line x1="900.02" y1="903.75" x2="923.87" y2="883.96" stroke="#D32F2F" stroke-width="5.17" stroke-linecap="round"/>
<line x1="954.98" y1="870.16" x2="939.45" y2="892.30" stroke="#D32F2F" stroke-width="8.00" stroke-linecap="round"/>
<line x1="914.11" y1="909.60" x2="939.45" y2="892.30" stroke="#D32F2F" stroke-width="6.15" stroke-linecap="round"/>
<line x1="971.79" y1="882.98" x2="954.50" y2="905.75" stroke="#D32F2F" stroke-width="8.00" stroke-linecap="round"/>
<line x1="927.89" y1="920.11" x2="954.50" y2="905.75" stroke="#D32F2F" stroke-width="7.08" stroke-linecap="round"/>
<line x1="987.53" y1="901.15" x2="968.43" y2="923.96" stroke="#D32F2F" stroke-width="7.93" stroke-linecap="round"/>
<line x1="940.80" y1="935.02" x2="968.43" y2="923.96" stroke="#D32F2F" stroke-width="7.92" stroke-linecap="round"/>
<line x1="1001.59" y1="923.98" x2="980.68" y2="946.20" stroke="#D32F2F" stroke-width="8.00" stroke-linecap="round"/>
<line x1="952.32" y1="953.72" x2="980.68" y2="946.20" stroke="#D32F2F" stroke-width="8.00" stroke-linecap="round"/>
<line x1="1013.47" y1="950.45" x2="990.81" y2="971.48" stroke="#D32F2F" stroke-width="8.00" stroke-linecap="round"/>
<line x1="962.03" y1="975.36" x2="990.81" y2="971.48" stroke="#D32F2F" stroke-width="8.00" stroke-linecap="round"/>
<line x1="1022.85" y1="979.41" x2="998.58" y2="998.71" stroke="#D32F2F" stroke-width="8.00" stroke-linecap="round"/>
<line x1="969.67" y1="998.93" x2="998.58" y2="998.71" stroke="#D32F2F" stroke-width="8.00" stroke-linecap="round"/>
<line x1="1029.62" y1="1009.71" x2="1003.93" y2="1026.86" stroke="#D32F2F" stroke-width="8.00" stroke-linecap="round"/>
<line x1="975.16" y1="1023.52" x2="1003.93" y2="1026.86" stroke="#D32F2F" stroke-width="8.00" stroke-linecap="round"/>
<line x1="1033.85" y1="1040.35" x2="1006.97" y2="1055.08" stroke="#D32F2F" stroke-width="8.00" stroke-linecap="round"/>
<line x1="978.59" y1="1048.36" x2="1006.97" y2="1055.08" stroke="#D32F2F" stroke-width="8.00" stroke-linecap="round"/>
<line x1="1035.76" y1="1070.51" x2="1007.94" y2="1082.73" stroke="#D32F2F" stroke-width="8.00" stroke-linecap="round"/>
<line x1="980.14" y1="1072.93" x2="1007.94" y2="1082.73" stroke="#D32F2F" stroke-width="8.00" stroke-linecap="round"/>
<line x1="1035.68" y1="1099.62" x2="1007.18" y2="1109.39" stroke="#D32F2F" stroke-width="8.00" stroke-linecap="round"/>
<line x1="980.08" y1="1096.87" x2="1007.18" y2="1109.39" stroke="#D32F2F" stroke-width="8.00" stroke-linecap="round"/>
<line x1="1034.00" y1="1127.30" x2="1005.05" y2="1134.81" stroke="#D32F2F" stroke-width="8.00" stroke-linecap="round"/>
<line x1="978.67" y1="1120.03" x2="1005.05" y2="1134.81" stroke="#D32F2F" stroke-width="8.00" stroke-linecap="round"/>
<line x1="1031.14" y1="1153.34" x2="1001.93" y2="1158.88" stroke="#D32F2F" stroke-width="8.00" stroke-linecap="round"/>
<line x1="976.22" y1="1142.33" x2="1001.93" y2="1158.88" stroke="#D32F2F" stroke-width="8.00" stroke-linecap="round"/>
<line x1="1027.52" y1="1177.69" x2="998.20" y2="1181.60" stroke="#D32F2F" stroke-width="8.00" stroke-linecap="round"/>
<line x1="973.03" y1="1163.79" x2="998.20" y2="1181.60" stroke="#D32F2F" stroke-width="8.00" stroke-linecap="round"/>
<line x1="1023.55" y1="1200.37" x2="994.23" y2="1203.02" stroke="#D32F2F" stroke-width="8.00" stroke-linecap="round"/>
<line x1="969.40" y1="1184.45" x2="994.23" y2="1203.02" stroke="#D32F2F" stroke-width="8.00" stroke-linecap="round"/>
<line x1="1019.58" y1="1221.46" x2="990.39" y2="1223.21" stroke="#D32F2F" stroke-width="8.00" stroke-linecap="round"/>
<line x1="965.66" y1="1204.37" x2="990.39" y2="1223.21" stroke="#D32F2F" stroke-width="7.42" stroke-linecap="round"/>
<line x1="1015.98" y1="1241.08" x2="987.03" y2="1242.28" stroke="#D32F2F" stroke-width="8.00" stroke-linecap="round"/>
<line x1="962.13" y1="1223.61" x2="987.03" y2="1242.28" stroke="#D32F2F" stroke-width="7.06" stroke-linecap="round"/>
<line x1="1013.08" y1="1259.35" x2="984.49" y2="1260.32" stroke="#D32F2F" stroke-width="8.00" stroke-linecap="round"/>
<line x1="959.17" y1="1242.24" x2="984.49" y2="1260.32" stroke="#D32F2F" stroke-width="6.81" stroke-linecap="round"/>
<line x1="1011.20" y1="1276.39" x2="983.13" y2="1277.41" stroke="#D32F2F" stroke-width="8.00" stroke-linecap="round"/>
<line x1="957.18" y1="1260.27" x2="983.13" y2="1277.41" stroke="#D32F2F" stroke-width="6.51" stroke-linecap="round"/>
<line x1="1010.65" y1="1292.29" x2="983.30" y2="1293.60" stroke="#D32F2F" stroke-width="8.00" stroke-linecap="round"/>
<line x1="956.59" y1="1277.72" x2="983.30" y2="1293.60" stroke="#D32F2F" stroke-width="6.13" stroke-linecap="round"/>
<line x1="1011.75" y1="1307.11" x2="985.39" y2="1308.89" stroke="#D32F2F" stroke-width="8.00" stroke-linecap="round"/>
<line x1="957.84" y1="1294.54" x2="985.39" y2="1308.89" stroke="#D32F2F" stroke-width="5.65" stroke-linecap="round"/>
<line x1="1014.82" y1="1320.88" x2="989.77" y2="1323.22" stroke="#D32F2F" stroke-width="8.00" stroke-linecap="round"/>
<line x1="961.43" y1="1310.60" x2="989.77" y2="1323.22" stroke="#D32F2F" stroke-width="5.05" stroke-linecap="round"/>
<line x1="1020.21" y1="1333.53" x2="996.85" y2="1336.44" stroke="#D32F2F" stroke-width="8.00" stroke-linecap="round"/>
<line x1="967.88" y1="1325.72" x2="996.85" y2="1336.44" stroke="#D32F2F" stroke-width="4.92" stroke-linecap="round"/>
<line x1="1028.24" y1="1344.94" x2="1007.01" y2="1348.34" stroke="#D32F2F" stroke-width="8.00" stroke-linecap="round"/>
<line x1="977.65" y1="1339.59" x2="1007.01" y2="1348.34" stroke="#D32F2F" stroke-width="5.26" stroke-linecap="round"/>
<line x1="1039.25" y1="1354.88" x2="1020.56" y2="1358.55" stroke="#D32F2F" stroke-width="8.00" stroke-linecap="round"/>
<line x1="991.17" y1="1351.79" x2="1020.56" y2="1358.55" stroke="#D32F2F" stroke-width="5.79" stroke-linecap="round"/>
<line x1="1053.48" y1="1363.01" x2="1037.74" y2="1366.66" stroke="#D32F2F" stroke-width="8.00" stroke-linecap="round"/>
<line x1="1008.71" y1="1361.83" x2="1037.74" y2="1366.66" stroke="#D32F2F" stroke-width="6.44" stroke-linecap="round"/>
<line x1="1071.06" y1="1368.92" x2="1058.59" y2="1372.14" stroke="#D32F2F" stroke-width="8.00" stroke-linecap="round"/>
<line x1="1030.37" y1="1369.11" x2="1058.59" y2="1372.14" stroke="#D32F2F" stroke-width="7.19" stroke-linecap="round"/>
<line x1="1091.86" y1="1372.13" x2="1082.86" y2="1374.49" stroke="#D32F2F" stroke-width="8.00" stroke-linecap="round"/>
<line x1="1325.88" y1="1243.51" x2="1339.71" y2="1222.29" stroke="#D32F2F" stroke-width="8.00" stroke-linecap="round"/>
<line x1="1334.36" y1="1226.88" x2="1347.90" y2="1204.03" stroke="#D32F2F" stroke-width="8.00" stroke-linecap="round"/>
<line x1="1340.62" y1="1210.22" x2="1353.58" y2="1186.04" stroke="#D32F2F" stroke-width="7.77" stroke-linecap="round"/>
<line x1="1359.13" y1="1177.60" x2="1353.58" y2="1186.04" stroke="#D32F2F" stroke-width="8.00" stroke-linecap="round"/>
<line x1="1344.79" y1="1193.42" x2="1356.97" y2="1168.20" stroke="#D32F2F" stroke-width="7.56" stroke-linecap="round"/>
<line x1="1363.71" y1="1159.16" x2="1356.97" y2="1168.20" stroke="#D32F2F" stroke-width="8.00" stroke-linecap="round"/>
<line x1="1346.99" y1="1176.30" x2="1358.27" y2="1150.34" stroke="#D32F2F" stroke-width="7.51" stroke-linecap="round"/>
<line x1="1366.05" y1="1141.04" x2="1358.27" y2="1150.34" stroke="#D32F2F" stroke-width="8.00" stroke-linecap="round"/>
<line x1="1347.29" y1="1158.68" x2="1357.67" y2="1132.27" stroke="#D32F2F" stroke-width="7.62" stroke-linecap="round"/>
<line x1="1366.37" y1="1123.08" x2="1357.67" y2="1132.27" stroke="#D32F2F" stroke-width="8.00" stroke-linecap="round"/>
<line x1="1345.78" y1="1140.33" x2="1355.30" y2="1113.81" stroke="#D32F2F" stroke-width="7.88" stroke-linecap="round"/>
<line x1="1364.89" y1="1105.08" x2="1355.30" y2="1113.81" stroke="#D32F2F" stroke-width="8.00" stroke-linecap="round"/>
<line x1="1342.48" y1="1121.05" x2="1351.29" y2="1094.75" stroke="#D32F2F" stroke-width="8.00" stroke-linecap="round"/>
<line x1="1361.78" y1="1086.86" x2="1351.29" y2="1094.75" stroke="#D32F2F" stroke-width="8.00" stroke-linecap="round"/>
<line x1="1337.43" y1="1100.61" x2="1345.73" y2="1074.90" stroke="#D32F2F" stroke-width="8.00" stroke-linecap="round"/>
<line x1="1357.18" y1="1068.25" x2="1345.73" y2="1074.90" stroke="#D32F2F" stroke-width="8.00" stroke-linecap="round"/>
<line x1="1330.66" y1="1078.85" x2="1338.70" y2="1054.10" stroke="#D32F2F" stroke-width="8.00" stroke-linecap="round"/>
<line x1="1351.21" y1="1049.07" x2="1338.70" y2="1054.10" stroke="#D32F2F" stroke-width="8.00" stroke-linecap="round"/>
<line x1="1322.18" y1="1055.62" x2="1330.24" y2="1032.25" stroke="#D32F2F" stroke-width="8.00" stroke-linecap="round"/>
<line x1="1343.96" y1="1029.18" x2="1330.24" y2="1032.25" stroke="#D32F2F" stroke-width="8.00" stroke-linecap="round"/>
<line x1="1312.03" y1="1030.89" x2="1320.39" y2="1009.28" stroke="#D32F2F" stroke-width="8.00" stroke-linecap="round"/>
<line x1="1335.46" y1="1008.49" x2="1320.39" y2="1009.28" stroke="#D32F2F" stroke-width="8.00" stroke-linecap="round"/>
<line x1="1300.26" y1="1004.73" x2="1309.21" y2="985.28" stroke="#D32F2F" stroke-width="8.00" stroke-linecap="round"/>
<line x1="1325.78" y1="986.96" x2="1309.21" y2="985.28" stroke="#D32F2F" stroke-width="8.00" stroke-linecap="round"/>
<line x1="1286.97" y1="977.40" x2="1296.78" y2="960.45" stroke="#D32F2F" stroke-width="8.00" stroke-linecap="round"/>
<line x1="1314.96" y1="964.71" x2="1296.78" y2="960.45" stroke="#D32F2F" stroke-width="8.00" stroke-linecap="round"/>
<line x1="1272.31" y1="949.35" x2="1283.20" y2="935.20" stroke="#D32F2F" stroke-width="8.00" stroke-linecap="round"/>
<line x1="1303.07" y1="941.96" x2="1283.20" y2="935.20" stroke="#D32F2F" stroke-width="8.00" stroke-linecap="round"/>
<line x1="1256.54" y1="921.29" x2="1268.70" y2="910.14" stroke="#D32F2F" stroke-width="8.00" stroke-linecap="round"/>
<line x1="1290.27" y1="919.19" x2="1268.70" y2="910.14" stroke="#D32F2F" stroke-width="8.00" stroke-linecap="round"/>
<line x1="1239.98" y1="894.12" x2="1253.58" y2="886.11" stroke="#D32F2F" stroke-width="8.00" stroke-linecap="round"/>
<line x1="1276.80" y1="897.07" x2="1253.58" y2="886.11" stroke="#D32F2F" stroke-width="8.00" stroke-linecap="round"/>
<line x1="1223.11" y1="868.88" x2="1238.29" y2="864.07" stroke="#D32F2F" stroke-width="8.00" stroke-linecap="round"/>
<line x1="1263.01" y1="876.45" x2="1238.29" y2="864.07" stroke="#D32F2F" stroke-width="7.74" stroke-linecap="round"/>
<line x1="1206.50" y1="846.69" x2="1223.35" y2="845.02" stroke="#D32F2F" stroke-width="8.00" stroke-linecap="round"/>
<line x1="1249.39" y1="858.27" x2="1223.35" y2="845.02" stroke="#D32F2F" stroke-width="6.85" stroke-linecap="round"/>
<line x1="1190.76" y1="828.52" x2="1209.36" y2="829.83" stroke="#D32F2F" stroke-width="8.00" stroke-linecap="round"/>
<line x1="1236.48" y1="843.36" x2="1209.36" y2="829.83" stroke="#D32F2F" stroke-width="5.89" stroke-linecap="round"/>
<line x1="1176.51" y1="815.07" x2="1196.87" y2="819.10" stroke="#D32F2F" stroke-width="8.00" stroke-linecap="round"/>
<line x1="1224.80" y1="832.33" x2="1196.87" y2="819.10" stroke="#D32F2F" stroke-width="4.89" stroke-linecap="round"/>
<line x1="1164.25" y1="806.67" x2="1186.34" y2="813.03" stroke="#D32F2F" stroke-width="8.00" stroke-linecap="round"/>
<line x1="1214.79" y1="825.47" x2="1186.34" y2="813.03" stroke="#D32F2F" stroke-width="4.07" stroke-linecap="round"/>
<line x1="838.43" y1="933.31" x2="853.98" y2="909.23" stroke="#D32F2F" stroke-width="7.11" stroke-linecap="round"/>
<line x1="874.72" y1="884.56" x2="865.91" y2="897.10" stroke="#D32F2F" stroke-width="8.00" stroke-linecap="round"/>
<line x1="848.80" y1="921.27" x2="865.91" y2="897.10" stroke="#D32F2F" stroke-width="6.55" stroke-linecap="round"/>
<line x1="888.82" y1="872.88" x2="879.05" y2="887.88" stroke="#D32F2F" stroke-width="8.00" stroke-linecap="round"/>
<line x1="860.29" y1="911.76" x2="879.05" y2="887.88" stroke="#D32F2F" stroke-width="5.97" stroke-linecap="round"/>
<line x1="904.22" y1="864.91" x2="893.27" y2="882.21" stroke="#D32F2F" stroke-width="8.00" stroke-linecap="round"/>
<line x1="872.78" y1="905.29" x2="893.27" y2="882.21" stroke="#D32F2F" stroke-width="5.42" stroke-linecap="round"/>
<line x1="920.65" y1="861.40" x2="908.32" y2="880.72" stroke="#D32F2F" stroke-width="8.00" stroke-linecap="round"/>
<line x1="886.11" y1="902.44" x2="908.32" y2="880.72" stroke="#D32F2F" stroke-width="4.94" stroke-linecap="round"/>
<line x1="937.74" y1="863.01" x2="923.87" y2="883.96" stroke="#D32F2F" stroke-width="8.00" stroke-linecap="round"/>
<line x1="900.02" y1="903.75" x2="923.87" y2="883.96" stroke="#D32F2F" stroke-width="5.17" stroke-linecap="round"/>
<line x1="954.98" y1="870.16" x2="939.45" y2="892.30" stroke="#D32F2F" stroke-width="8.00" stroke-linecap="round"/>
<line x1="914.11" y1="909.60" x2="939.45" y2="892.30" stroke="#D32F2F" stroke-width="6.15" stroke-linecap="round"/>
<line x1="971.79" y1="882.98" x2="954.50" y2="905.75" stroke="#D32F2F" stroke-width="8.00" stroke-linecap="round"/>
<line x1="927.89" y1="920.11" x2="954.50" y2="905.75" stroke="#D32F2F" stroke-width="7.08" stroke-linecap="round"/>
<line x1="987.53" y1="901.15" x2="968.43" y2="923.96" stroke="#D32F2F" stroke-width="7.93" stroke-linecap="round"/>
<line x1="940.80" y1="935.02" x2="968.43" y2="923.96" stroke="#D32F2F" stroke-width="7.92" stroke-linecap="round"/>
<line x1="1001.59" y1="923.98" x2="980.68" y2="946.20" stroke="#D32F2F" stroke-width="8.00" stroke-linecap="round"/>
<line x1="952.32" y1="953.72" x2="980.68" y2="946.20" stroke="#D32F2F" stroke-width="8.00" stroke-linecap="round"/>
<line x1="1013.47" y1="950.45" x2="990.81" y2="971.48" stroke="#D32F2F" stroke-width="8.00" stroke-linecap="round"/>
<line x1="962.03" y1="975.36" x2="990.81" y2="971.48" stroke="#D32F2F" stroke-width="8.00" stroke-linecap="round"/>
<line x1="1022.85" y1="979.41" x2="998.58" y2="998.71" stroke="#D32F2F" stroke-width="8.00" stroke-linecap="round"/>
<line x1="969.67" y1="998.93" x2="998.58" y2="998.71" stroke="#D32F2F" stroke-width="8.00" stroke-linecap="round"/>
<line x1="1029.62" y1="1009.71" x2="1003.93" y2="1026.86" stroke="#D32F2F" stroke-width="8.00" stroke-linecap="round"/>
<line x1="975.16" y1="1023.52" x2="1003.93" y2="1026.86" stroke="#D32F2F" stroke-width="8.00" stroke-linecap="round"/>
<line x1="1033.85" y1="1040.35" x2="1006.97" y2="1055.08" stroke="#D32F2F" stroke-width="8.00" stroke-linecap="round"/>
<line x1="978.59" y1="1048.36" x2="1006.97" y2="1055.08" stroke="#D32F2F" stroke-width="8.00" stroke-linecap="round"/>
<line x1="1035.76" y1="1070.51" x2="1007.94" y2="1082.73" stroke="#D32F2F" stroke-width="8.00" stroke-linecap="round"/>
<line x1="980.14" y1="1072.93" x2="1007.94" y2="1082.73" stroke="#D32F2F" stroke-width="8.00" stroke-linecap="round"/>
<line x1="1035.68" y1="1099.62" x2="1007.18" y2="1109.39" stroke="#D32F2F" stroke-width="8.00" stroke-linecap="round"/>
<line x1="980.08" y1="1096.87" x2="1007.18" y2="1109.39" stroke="#D32F2F" stroke-width="8.00" stroke-linecap="round"/>
<line x1="1034.00" y1="1127.30" x2="1005.05" y2="1134.81" stroke="#D32F2F" stroke-width="8.00" stroke-linecap="round"/>
<line x1="978.67" y1="1120.03" x2="1005.05" y2="1134.81" stroke="#D32F2F" stroke-width="8.00" stroke-linecap="round"/>
<line x1="1031.14" y1="1153.34" x2="1001.93" y2="1158.88" stroke="#D32F2F" stroke-width="8.00" stroke-linecap="round"/>
<line x1="976.22" y1="1142.33" x2="1001.93" y2="1158.88" stroke="#D32F2F" stroke-width="8.00" stroke-linecap="round"/>
<line x1="1027.52" y1="1177.69" x2="998.20" y2="1181.60" stroke="#D32F2F" stroke-width="8.00" stroke-linecap="round"/>
<line x1="973.03" y1="1163.79" x2="998.20" y2="1181.60" stroke="#D32F2F" stroke-width="8.00" stroke-linecap="round"/>
<line x1="1023.55" y1="1200.37" x2="994.23" y2="1203.02" stroke="#D32F2F" stroke-width="8.00" stroke-linecap="round"/>
<line x1="969.40" y1="1184.45" x2="994.23" y2="1203.02" stroke="#D32F2F" stroke-width="8.00" stroke-linecap="round"/>
<line x1="1019.58" y1="1221.46" x2="990.39" y2="1223.21" stroke="#D32F2F" stroke-width="8.00" stroke-linecap="round"/>
<line x1="965.66" y1="1204.37" x2="990.39" y2="1223.21" stroke="#D32F2F" stroke-width="7.42" stroke-linecap="round"/>
<line x1="1015.98" y1="1241.08" x2="987.03" y2="1242.28" stroke="#D32F2F" stroke-width="8.00" stroke-linecap="round"/>
<line x1="962.13" y1="1223.61" x2="987.03" y2="1242.28" stroke="#D32F2F" stroke-width="7.06" stroke-linecap="round"/>
<line x1="1013.08" y1="1259.35" x2="984.49" y2="1260.32" stroke="#D32F2F" stroke-width="8.00" stroke-linecap="round"/>
<line x1="959.17" y1="1242.24" x2="984.49" y2="1260.32" stroke="#D32F2F" stroke-width="6.81" stroke-linecap="round"/>
<line x1="1011.20" y1="1276.39" x2="983.13" y2="1277.41" stroke="#D32F2F" stroke-width="8.00" stroke-linecap="round"/>
<line x1="957.18" y1="1260.27" x2="983.13" y2="1277.41" stroke="#D32F2F" stroke-width="6.51" stroke-linecap="round"/>
<line x1="1010.65" y1="1292.29" x2="983.30" y2="1293.60" stroke="#D32F2F" stroke-width="8.00" stroke-linecap="round"/>
<line x1="956.59" y1="1277.72" x2="983.30" y2="1293.60" stroke="#D32F2F" stroke-width="6.13" stroke-linecap="round"/>
<line x1="1011.75" y1="1307.11" x2="985.39" y2="1308.89" stroke="#D32F2F" stroke-width="8.00" stroke-linecap="round"/>
<line x1="957.84" y1="1294.54" x2="985.39" y2="1308.89" stroke="#D32F2F" stroke-width="5.65" stroke-linecap="round"/>
<line x1="1014.82" y1="1320.88" x2="989.77" y2="1323.22" stroke="#D32F2F" stroke-width="8.00" stroke-linecap="round"/>
<line x1="961.43" y1="1310.60" x2="989.77" y2="1323.22" stroke="#D32F2F" stroke-width="5.05" stroke-linecap="round"/>
<line x1="1020.21" y1="1333.53" x2="996.85" y2="1336.44" stroke="#D32F2F" stroke-width="8.00" stroke-linecap="round"/>
<line x1="967.88" y1="1325.72" x2="996.85" y2="1336.44" stroke="#D32F2F" stroke-width="4.92" stroke-linecap="round"/>
<line x1="1028.24" y1="1344.94" x2="1007.01" y2="1348.34" stroke="#D32F2F" stroke-width="8.00" stroke-linecap="round"/>
<line x1="977.65" y1="1339.59" x2="1007.01" y2="1348.34" stroke="#D32F2F" stroke-width="5.26" stroke-linecap="round"/>
<line x1="1039.25" y1="1354.88" x2="1020.56" y2="1358.55" stroke="#D32F2F" stroke-width="8.00" stroke-linecap="round"/>
<line x1="991.17" y1="1351.79" x2="1020.56" y2="1358.55" stroke="#D32F2F" stroke-width="5.79" stroke-linecap="round"/>
<line x1="1053.48" y1="1363.01" x2="1037.74" y2="1366.66" stroke="#D32F2F" stroke-width="8.00" stroke-linecap="round"/>
<line x1="1008.71" y1="1361.83" x2="1037.74" y2="1366.66" stroke="#D32F2F" stroke-width="6.44" stroke-linecap="round"/>
<line x1="1071.06" y1="1368.92" x2="1058.59" y2="1372.14" stroke="#D32F2F" stroke-width="8.00" stroke-linecap="round"/>
<line x1="1030.37" y1="1369.11" x2="1058.59" y2="1372.14" stroke="#D32F2F" stroke-width="7.19" stroke-linecap="round"/>
<line x1="1091.86" y1="1372.13" x2="1082.86" y2="1374.49" stroke="#D32F2F" stroke-width="8.00" stroke-linecap="round"/>
<line x1="1325.88" y1="1243.51" x2="1339.71" y2="1222.29" stroke="#D32F2F" stroke-width="8.00" stroke-linecap="round"/>
<line x1="1334.36" y1="1226.88" x2="1347.90" y2="1204.03" stroke="#D32F2F" stroke-width="8.00" stroke-linecap="round"/>
<line x1="1340.62" y1="1210.22" x2="1353.58" y2="1186.04" stroke="#D32F2F" stroke-width="7.77" stroke-linecap="round"/>
<line x1="1359.13" y1="1177.60" x2="1353.58" y2="1186.04" stroke="#D32F2F" stroke-width="8.00" stroke-linecap="round"/>
<line x1="1344.79" y1="1193.42" x2="1356.97" y2="1168.20" stroke="#D32F2F" stroke-width="7.56" stroke-linecap="round"/>
<line x1="1363.71" y1="1159.16" x2="1356.97" y2="1168.20" stroke="#D32F2F" stroke-width="8.00" stroke-linecap="round"/>
<line x1="1346.99" y1="1176.30" x2="1358.27" y2="1150.34" stroke="#D32F2F" stroke-width="7.51" stroke-linecap="round"/>
<line x1="1366.05" y1="1141.04" x2="1358.27" y2="1150.34" stroke="#D32F2F" stroke-width="8.00" stroke-linecap="round"/>
<circle cx="1084.59" cy="1084.59" r="290.0" fill="none" stroke="#ccc" stroke-width="0.5"/>
<line x1="561.88" y1="1214.59" x2="823.24" y2="1149.59" stroke="#A1A1AA" stroke-width="5" opacity="0.9"/>
<line x1="1089.62" y1="842.00" x2="1094.65" y2="599.41" stroke="#A1A1AA" stroke-width="5" opacity="0.9"/>
<line x1="1335.74" y1="1374.59" x2="1210.16" y2="1229.59" stroke="#A1A1AA" stroke-width="5" opacity="0.9"/>
<polygon points="1607.30,954.59 1589.82,967.18 1585.96,951.65" fill="#A1A1AA" opacity="0.9"/>
<polygon points="833.44,794.59 852.58,804.47 840.49,814.95" fill="#A1A1AA" opacity="0.9"/>
<polygon points="1094.65,599.41 1102.23,619.57 1086.23,619.24" fill="#A1A1AA" opacity="0.9"/>
<text x="1701.39" y="931.19" font-family="Palatino, 'Palatino Linotype', 'Book Antiqua', Georgia, serif" font-style="italic" font-size="52" fill="#A1A1AA" text-anchor="middle" dominant-baseline="middle" opacity="0.9">x</text>
<text x="788.24" y="742.39" font-family="Palatino, 'Palatino Linotype', 'Book Antiqua', Georgia, serif" font-style="italic" font-size="52" fill="#A1A1AA" text-anchor="middle" dominant-baseline="middle" opacity="0.9">y</text>
<text x="1096.46" y="512.08" font-family="Palatino, 'Palatino Linotype', 'Book Antiqua', Georgia, serif" font-style="italic" font-size="52" fill="#A1A1AA" text-anchor="middle" dominant-baseline="middle" opacity="0.9">z</text>
<polyline points="1145.86,1487.06 1147.55,1484.07 1148.81,1481.00 1149.62,1477.89 1149.98,1474.74 1149.89,1471.58 1149.34,1468.42 1148.35,1465.30 1146.92,1462.22 1145.05,1459.20 1142.75,1456.27 1140.05,1453.43 1136.96,1450.72 1133.50,1448.15 1129.68,1445.72 1125.54,1443.46 1121.10,1441.38 1116.38,1439.50 1111.41,1437.82 1106.23,1436.35 1100.87,1435.11 1095.35,1434.11 1089.73,1433.34 1084.02,1432.81 1078.26,1432.53 1072.49,1432.49 1066.75,1432.71 1061.07,1433.17 1055.48,1433.88 1050.03,1434.82 1044.73,1436.00 1039.64,1437.40 1034.77,1439.03 1030.16,1440.86 1025.83,1442.89 1021.82,1445.10 1018.14,1447.48 1014.83,1450.02 1011.89,1452.69 1009.36,1455.50 1007.23,1458.40 1005.54,1461.40 1004.28,1464.46 1003.47,1467.58 1003.11,1470.73 1003.20,1473.89 1003.75,1477.04 1004.74,1480.17 1006.17,1483.25 1008.04,1486.27 1010.34,1489.20 1013.04,1492.03 1016.13,1494.74 1019.59,1497.32 1023.41,1499.75 1027.55,1502.00 1031.99,1504.08 1036.71,1505.97 1041.68,1507.65 1046.86,1509.11 1052.22,1510.35" fill="none" stroke="#A1A1AA" stroke-width="2.2" stroke-linecap="round" stroke-linejoin="round" opacity="0.85"/>
<polygon points="1052.22,1510.35 1041.35,1512.97 1043.61,1503.23" fill="#A1A1AA" opacity="0.85"/>
<text x="1025.65" y="1413.96" font-family="Palatino, 'Palatino Linotype', 'Book Antiqua', Georgia, serif" font-style="italic" font-size="28" fill="#A1A1AA" text-anchor="middle" dominant-baseline="middle" opacity="0.85">yaw</text>
<polyline points="688.02,1258.02 689.79,1256.44 691.41,1254.43 692.88,1252.02 694.19,1249.22 695.33,1246.05 696.28,1242.52 697.06,1238.66 697.64,1234.49 698.04,1230.03 698.23,1225.33 698.24,1220.39 698.04,1215.26 697.65,1209.96 697.07,1204.54 696.30,1199.01 695.35,1193.42 694.21,1187.80 692.91,1182.19 691.44,1176.61 689.82,1171.11 688.05,1165.72 686.15,1160.46 684.13,1155.39 682.00,1150.51 679.77,1145.87 677.46,1141.50 675.09,1137.41 672.66,1133.64 670.19,1130.21 667.70,1127.14 665.20,1124.44 662.70,1122.15 660.24,1120.26 657.80,1118.79 655.43,1117.76 653.12,1117.16 650.89,1117.00 648.75,1117.28 646.73,1118.00 644.83,1119.16 643.06,1120.75 641.44,1122.75 639.96,1125.16 638.66,1127.96 637.52,1131.14 636.56,1134.67 635.79,1138.53 635.20,1142.70 634.81,1147.15 634.61,1151.86 634.61,1156.79 634.80,1161.92 635.19,1167.22 635.77,1172.65 636.55,1178.17 637.50,1183.76 638.63,1189.38 639.94,1195.00 641.41,1200.57 643.03,1206.07" fill="none" stroke="#A1A1AA" stroke-width="2.2" stroke-linecap="round" stroke-linejoin="round" opacity="0.85"/>
<polygon points="643.03,1206.07 635.40,1197.90 645.00,1195.07" fill="#A1A1AA" opacity="0.85"/>
<text x="668.46" y="1090.26" font-family="Palatino, 'Palatino Linotype', 'Book Antiqua', Georgia, serif" font-style="italic" font-size="28" fill="#A1A1AA" text-anchor="middle" dominant-baseline="middle" opacity="0.85">pitch</text>
<polyline points="1331.42,1348.40 1335.03,1343.98 1338.32,1339.39 1341.29,1334.66 1343.92,1329.82 1346.19,1324.89 1348.08,1319.92 1349.59,1314.92 1350.70,1309.94 1351.41,1304.99 1351.72,1300.12 1351.61,1295.35 1351.10,1290.71 1350.19,1286.23 1348.87,1281.94 1347.16,1277.86 1345.08,1274.02 1342.63,1270.44 1339.82,1267.14 1336.68,1264.16 1333.23,1261.49 1329.48,1259.16 1325.45,1257.19 1321.19,1255.59 1316.70,1254.36 1312.02,1253.51 1307.18,1253.05 1302.20,1252.99 1297.12,1253.31 1291.97,1254.03 1286.78,1255.13 1281.58,1256.61 1276.41,1258.47 1271.29,1260.68 1266.26,1263.23 1261.35,1266.11 1256.58,1269.31 1252.00,1272.79 1247.62,1276.55 1243.48,1280.55 1239.59,1284.78 1235.99,1289.20 1232.69,1293.79 1229.72,1298.52 1227.09,1303.36 1224.83,1308.28 1222.93,1313.26 1221.42,1318.25 1220.31,1323.24 1219.60,1328.18 1219.30,1333.06 1219.40,1337.83 1219.91,1342.47 1220.83,1346.95 1222.14,1351.24 1223.85,1355.32 1225.94,1359.16 1228.39,1362.74 1231.19,1366.03 1234.33,1369.02 1237.79,1371.69" fill="none" stroke="#A1A1AA" stroke-width="2.2" stroke-linecap="round" stroke-linejoin="round" opacity="0.85"/>
<polygon points="1237.79,1371.69 1226.82,1369.54 1232.93,1361.62" fill="#A1A1AA" opacity="0.85"/>
<text x="1287.55" y="1218.26" font-family="Palatino, 'Palatino Linotype', 'Book Antiqua', Georgia, serif" font-style="italic" font-size="28" fill="#A1A1AA" text-anchor="middle" dominant-baseline="middle" opacity="0.85">roll</text>
</svg>