<svg width="2169" height="2169" viewBox="0 0 2169.1789 2169.1789" xmlns="http://www.w3.org/2000/svg">
<line x1="1009.53" y1="1084.59" x2="934.47" y2="1084.59" stroke="#A1A1AA" stroke-width="5" opacity="0.9"/>
<line x1="1364.71" y1="1084.59" x2="1644.83" y2="1084.59" stroke="#A1A1AA" stroke-width="5" opacity="0.9"/>
<circle cx="1084.59" cy="1084.59" r="290.0" fill="#FDFDF5"/>
<line x1="1320.19" y1="1088.36" x2="1334.78" y2="1073.10" stroke="#D32F2F" stroke-width="8.00" stroke-linecap="round"/>
<line x1="1348.79" y1="1080.82" x2="1334.78" y2="1073.10" stroke="#D32F2F" stroke-width="8.00" stroke-linecap="round"/>
<line x1="1317.82" y1="1064.79" x2="1331.66" y2="1049.68" stroke="#D32F2F" stroke-width="8.00" stroke-linecap="round"/>
<line x1="1346.48" y1="1057.70" x2="1331.66" y2="1049.68" stroke="#D32F2F" stroke-width="8.00" stroke-linecap="round"/>
<line x1="1313.88" y1="1040.77" x2="1327.14" y2="1026.34" stroke="#D32F2F" stroke-width="8.00" stroke-linecap="round"/>
<line x1="1342.76" y1="1035.01" x2="1327.14" y2="1026.34" stroke="#D32F2F" stroke-width="8.00" stroke-linecap="round"/>
<line x1="1308.47" y1="1016.33" x2="1321.39" y2="1003.09" stroke="#D32F2F" stroke-width="8.00" stroke-linecap="round"/>
<line x1="1337.84" y1="1012.74" x2="1321.39" y2="1003.09" stroke="#D32F2F" stroke-width="8.00" stroke-linecap="round"/>
<line x1="1301.70" y1="991.54" x2="1314.54" y2="979.99" stroke="#D32F2F" stroke-width="8.00" stroke-linecap="round"/>
<line x1="1331.87" y1="990.89" x2="1314.54" y2="979.99" stroke="#D32F2F" stroke-width="8.00" stroke-linecap="round"/>
<line x1="1293.69" y1="966.56" x2="1306.72" y2="957.15" stroke="#D32F2F" stroke-width="8.00" stroke-linecap="round"/>
<line x1="1325.01" y1="969.50" x2="1306.72" y2="957.15" stroke="#D32F2F" stroke-width="8.00" stroke-linecap="round"/>
<line x1="1284.56" y1="941.68" x2="1298.05" y2="934.76" stroke="#D32F2F" stroke-width="8.00" stroke-linecap="round"/>
<line x1="1317.37" y1="948.68" x2="1298.05" y2="934.76" stroke="#D32F2F" stroke-width="8.00" stroke-linecap="round"/>
<line x1="1274.46" y1="917.29" x2="1288.64" y2="913.16" stroke="#D32F2F" stroke-width="8.00" stroke-linecap="round"/>
<line x1="1309.07" y1="928.62" x2="1288.64" y2="913.16" stroke="#D32F2F" stroke-width="8.00" stroke-linecap="round"/>
<line x1="1263.58" y1="893.98" x2="1278.64" y2="892.81" stroke="#D32F2F" stroke-width="8.00" stroke-linecap="round"/>
<line x1="1300.21" y1="909.63" x2="1278.64" y2="892.81" stroke="#D32F2F" stroke-width="7.65" stroke-linecap="round"/>
<line x1="1252.12" y1="872.45" x2="1268.22" y2="874.33" stroke="#D32F2F" stroke-width="8.00" stroke-linecap="round"/>
<line x1="1290.92" y1="892.17" x2="1268.22" y2="874.33" stroke="#D32F2F" stroke-width="6.84" stroke-linecap="round"/>
<line x1="1240.36" y1="853.58" x2="1257.61" y2="858.46" stroke="#D32F2F" stroke-width="8.00" stroke-linecap="round"/>
<line x1="1281.37" y1="876.86" x2="1257.61" y2="858.46" stroke="#D32F2F" stroke-width="5.96" stroke-linecap="round"/>
<line x1="1228.61" y1="838.30" x2="1247.07" y2="846.04" stroke="#D32F2F" stroke-width="8.00" stroke-linecap="round"/>
<line x1="1271.80" y1="864.42" x2="1247.07" y2="846.04" stroke="#D32F2F" stroke-width="5.03" stroke-linecap="round"/>
<line x1="906.67" y1="855.59" x2="932.23" y2="837.84" stroke="#D32F2F" stroke-width="4.11" stroke-linecap="round"/>
<line x1="962.54" y1="821.89" x2="941.55" y2="834.50" stroke="#D32F2F" stroke-width="8.00" stroke-linecap="round"/>
<line x1="915.35" y1="851.00" x2="941.55" y2="834.50" stroke="#D32F2F" stroke-width="4.82" stroke-linecap="round"/>
<line x1="971.95" y1="821.89" x2="949.70" y2="836.31" stroke="#D32F2F" stroke-width="8.00" stroke-linecap="round"/>
<line x1="923.07" y1="851.00" x2="949.70" y2="836.31" stroke="#D32F2F" stroke-width="5.79" stroke-linecap="round"/>
<line x1="979.80" y1="827.49" x2="956.35" y2="843.18" stroke="#D32F2F" stroke-width="7.58" stroke-linecap="round"/>
<line x1="929.51" y1="855.59" x2="956.35" y2="843.18" stroke="#D32F2F" stroke-width="6.75" stroke-linecap="round"/>
<line x1="985.83" y1="838.30" x2="961.26" y2="854.67" stroke="#D32F2F" stroke-width="7.03" stroke-linecap="round"/>
<line x1="934.44" y1="864.42" x2="961.26" y2="854.67" stroke="#D32F2F" stroke-width="7.64" stroke-linecap="round"/>
<line x1="989.90" y1="853.58" x2="964.34" y2="870.04" stroke="#D32F2F" stroke-width="6.63" stroke-linecap="round"/>
<line x1="937.75" y1="876.86" x2="964.34" y2="870.04" stroke="#D32F2F" stroke-width="8.00" stroke-linecap="round"/>
<line x1="992.01" y1="872.45" x2="965.63" y2="888.45" stroke="#D32F2F" stroke-width="6.37" stroke-linecap="round"/>
<line x1="939.46" y1="892.17" x2="965.63" y2="888.45" stroke="#D32F2F" stroke-width="8.00" stroke-linecap="round"/>
<line x1="992.29" y1="893.98" x2="965.28" y2="909.08" stroke="#D32F2F" stroke-width="6.28" stroke-linecap="round"/>
<line x1="939.69" y1="909.63" x2="965.28" y2="909.08" stroke="#D32F2F" stroke-width="8.00" stroke-linecap="round"/>
<line x1="990.97" y1="917.29" x2="963.53" y2="931.19" stroke="#D32F2F" stroke-width="7.01" stroke-linecap="round"/>
<line x1="938.61" y1="928.62" x2="963.53" y2="931.19" stroke="#D32F2F" stroke-width="8.00" stroke-linecap="round"/>
<line x1="988.37" y1="941.68" x2="960.68" y2="954.22" stroke="#D32F2F" stroke-width="7.84" stroke-linecap="round"/>
<line x1="936.47" y1="948.68" x2="960.68" y2="954.22" stroke="#D32F2F" stroke-width="8.00" stroke-linecap="round"/>
<line x1="984.82" y1="966.56" x2="957.03" y2="977.74" stroke="#D32F2F" stroke-width="8.00" stroke-linecap="round"/>
<line x1="933.50" y1="969.50" x2="957.03" y2="977.74" stroke="#D32F2F" stroke-width="8.00" stroke-linecap="round"/>
<line x1="980.68" y1="991.54" x2="952.93" y2="1001.47" stroke="#D32F2F" stroke-width="8.00" stroke-linecap="round"/>
<line x1="929.96" y1="990.89" x2="952.93" y2="1001.47" stroke="#D32F2F" stroke-width="8.00" stroke-linecap="round"/>
<line x1="976.31" y1="1016.33" x2="948.69" y2="1025.24" stroke="#D32F2F" stroke-width="8.00" stroke-linecap="round"/>
<line x1="926.11" y1="1012.74" x2="948.69" y2="1025.24" stroke="#D32F2F" stroke-width="8.00" stroke-linecap="round"/>
<line x1="972.05" y1="1040.77" x2="944.65" y2="1048.95" stroke="#D32F2F" stroke-width="8.00" stroke-linecap="round"/>
<line x1="922.22" y1="1035.01" x2="944.65" y2="1048.95" stroke="#D32F2F" stroke-width="8.00" stroke-linecap="round"/>
<line x1="968.21" y1="1064.79" x2="941.11" y2="1072.57" stroke="#D32F2F" stroke-width="8.00" stroke-linecap="round"/>
<line x1="918.59" y1="1057.70" x2="941.11" y2="1072.57" stroke="#D32F2F" stroke-width="8.00" stroke-linecap="round"/>
<line x1="965.09" y1="1088.36" x2="938.39" y2="1096.08" stroke="#D32F2F" stroke-width="8.00" stroke-linecap="round"/>
<line x1="915.53" y1="1080.82" x2="938.39" y2="1096.08" stroke="#D32F2F" stroke-width="8.00" stroke-linecap="round"/>
<line x1="962.98" y1="1111.48" x2="936.81" y2="1119.50" stroke="#D32F2F" stroke-width="8.00" stroke-linecap="round"/>
<line x1="913.39" y1="1104.39" x2="936.81" y2="1119.50" stroke="#D32F2F" stroke-width="8.00" stroke-linecap="round"/>
<line x1="962.16" y1="1134.17" x2="936.69" y2="1142.84" stroke="#D32F2F" stroke-width="8.00" stroke-linecap="round"/>
<line x1="912.53" y1="1128.41" x2="936.69" y2="1142.84" stroke="#D32F2F" stroke-width="8.00" stroke-linecap="round"/>
<line x1="962.92" y1="1156.44" x2="938.36" y2="1166.09" stroke="#D32F2F" stroke-width="8.00" stroke-linecap="round"/>
<line x1="913.37" y1="1152.85" x2="938.36" y2="1166.09" stroke="#D32F2F" stroke-width="8.00" stroke-linecap="round"/>
<line x1="965.55" y1="1178.29" x2="942.18" y2="1189.19" stroke="#D32F2F" stroke-width="8.00" stroke-linecap="round"/>
<line x1="916.35" y1="1177.64" x2="942.18" y2="1189.19" stroke="#D32F2F" stroke-width="8.00" stroke-linecap="round"/>
<line x1="970.35" y1="1199.68" x2="948.52" y2="1212.03" stroke="#D32F2F" stroke-width="8.00" stroke-linecap="round"/>
<line x1="921.96" y1="1202.62" x2="948.52" y2="1212.03" stroke="#D32F2F" stroke-width="8.00" stroke-linecap="round"/>
<line x1="977.63" y1="1220.50" x2="957.75" y2="1234.42" stroke="#D32F2F" stroke-width="8.00" stroke-linecap="round"/>
<line x1="930.68" y1="1227.50" x2="957.75" y2="1234.42" stroke="#D32F2F" stroke-width="8.00" stroke-linecap="round"/>
<line x1="987.73" y1="1240.56" x2="970.24" y2="1256.02" stroke="#D32F2F" stroke-width="8.00" stroke-linecap="round"/>
<line x1="942.96" y1="1251.89" x2="970.24" y2="1256.02" stroke="#D32F2F" stroke-width="8.00" stroke-linecap="round"/>
<line x1="1000.94" y1="1259.55" x2="986.27" y2="1276.37" stroke="#D32F2F" stroke-width="8.00" stroke-linecap="round"/>
<line x1="959.17" y1="1275.20" x2="986.27" y2="1276.37" stroke="#D32F2F" stroke-width="8.00" stroke-linecap="round"/>
<line x1="1017.48" y1="1277.01" x2="1006.05" y2="1294.85" stroke="#D32F2F" stroke-width="8.00" stroke-linecap="round"/>
<line x1="979.57" y1="1296.73" x2="1006.05" y2="1294.85" stroke="#D32F2F" stroke-width="8.00" stroke-linecap="round"/>
<line x1="1037.43" y1="1292.32" x2="1029.54" y2="1310.72" stroke="#D32F2F" stroke-width="8.00" stroke-linecap="round"/>
<line x1="1004.16" y1="1315.60" x2="1029.54" y2="1310.72" stroke="#D32F2F" stroke-width="8.00" stroke-linecap="round"/>
<line x1="1060.62" y1="1304.76" x2="1056.45" y2="1323.14" stroke="#D32F2F" stroke-width="8.00" stroke-linecap="round"/>
<line x1="1032.65" y1="1330.88" x2="1056.45" y2="1323.14" stroke="#D32F2F" stroke-width="8.00" stroke-linecap="round"/>
<line x1="1086.58" y1="1313.59" x2="1086.15" y2="1331.34" stroke="#D32F2F" stroke-width="8.00" stroke-linecap="round"/>
<line x1="1064.42" y1="1341.69" x2="1086.15" y2="1331.34" stroke="#D32F2F" stroke-width="8.00" stroke-linecap="round"/>
<line x1="1114.50" y1="1318.18" x2="1117.69" y2="1334.68" stroke="#D32F2F" stroke-width="8.00" stroke-linecap="round"/>
<line x1="1098.48" y1="1347.29" x2="1117.69" y2="1334.68" stroke="#D32F2F" stroke-width="8.00" stroke-linecap="round"/>
<line x1="1143.30" y1="1318.18" x2="1149.87" y2="1332.87" stroke="#D32F2F" stroke-width="8.00" stroke-linecap="round"/>
<line x1="1133.59" y1="1347.29" x2="1149.87" y2="1332.87" stroke="#D32F2F" stroke-width="8.00" stroke-linecap="round"/>
<line x1="1171.82" y1="1313.59" x2="1181.42" y2="1326.00" stroke="#D32F2F" stroke-width="8.00" stroke-linecap="round"/>
<line x1="1168.38" y1="1341.69" x2="1181.42" y2="1326.00" stroke="#D32F2F" stroke-width="8.00" stroke-linecap="round"/>
<line x1="1198.95" y1="1304.76" x2="1211.18" y2="1314.51" stroke="#D32F2F" stroke-width="8.00" stroke-linecap="round"/>
<line x1="1201.58" y1="1330.88" x2="1211.18" y2="1314.51" stroke="#D32F2F" stroke-width="8.00" stroke-linecap="round"/>
<line x1="1223.82" y1="1292.32" x2="1238.24" y2="1299.14" stroke="#D32F2F" stroke-width="8.00" stroke-linecap="round"/>
<line x1="1232.13" y1="1315.60" x2="1238.24" y2="1299.14" stroke="#D32F2F" stroke-width="8.00" stroke-linecap="round"/>
<line x1="1245.87" y1="1277.01" x2="1262.01" y2="1280.73" stroke="#D32F2F" stroke-width="8.00" stroke-linecap="round"/>
<line x1="1259.31" y1="1296.73" x2="1262.01" y2="1280.73" stroke="#D32F2F" stroke-width="8.00" stroke-linecap="round"/>
<line x1="1264.84" y1="1259.55" x2="1282.23" y2="1260.10" stroke="#D32F2F" stroke-width="8.00" stroke-linecap="round"/>
<line x1="1282.70" y1="1275.20" x2="1282.23" y2="1260.10" stroke="#D32F2F" stroke-width="8.00" stroke-linecap="round"/>
<line x1="1280.71" y1="1240.56" x2="1298.87" y2="1237.99" stroke="#D32F2F" stroke-width="8.00" stroke-linecap="round"/>
<line x1="1302.18" y1="1251.89" x2="1298.87" y2="1237.99" stroke="#D32F2F" stroke-width="8.00" stroke-linecap="round"/>
<line x1="1293.61" y1="1220.50" x2="1312.07" y2="1214.96" stroke="#D32F2F" stroke-width="8.00" stroke-linecap="round"/>
<line x1="1317.86" y1="1227.50" x2="1312.07" y2="1214.96" stroke="#D32F2F" stroke-width="8.00" stroke-linecap="round"/>
<line x1="1303.74" y1="1199.68" x2="1322.10" y2="1191.44" stroke="#D32F2F" stroke-width="8.00" stroke-linecap="round"/>
<line x1="1329.98" y1="1202.62" x2="1322.10" y2="1191.44" stroke="#D32F2F" stroke-width="8.00" stroke-linecap="round"/>
<line x1="1311.32" y1="1178.29" x2="1329.25" y2="1167.71" stroke="#D32F2F" stroke-width="8.00" stroke-linecap="round"/>
<line x1="1338.84" y1="1177.64" x2="1329.25" y2="1167.71" stroke="#D32F2F" stroke-width="8.00" stroke-linecap="round"/>
<line x1="1316.58" y1="1156.44" x2="1333.81" y2="1143.94" stroke="#D32F2F" stroke-width="8.00" stroke-linecap="round"/>
<line x1="1344.81" y1="1152.85" x2="1333.81" y2="1143.94" stroke="#D32F2F" stroke-width="8.00" stroke-linecap="round"/>
<line x1="1319.70" y1="1134.17" x2="1336.08" y2="1120.23" stroke="#D32F2F" stroke-width="8.00" stroke-linecap="round"/>
<line x1="1348.25" y1="1128.41" x2="1336.08" y2="1120.23" stroke="#D32F2F" stroke-width="8.00" stroke-linecap="round"/>
<line x1="1320.86" y1="1111.48" x2="1336.32" y2="1096.61" stroke="#D32F2F" stroke-width="8.00" stroke-linecap="round"/>
<line x1="1349.47" y1="1104.39" x2="1336.32" y2="1096.61" stroke="#D32F2F" stroke-width="8.00" stroke-linecap="round"/>
<line x1="1320.19" y1="1088.36" x2="1334.78" y2="1073.10" stroke="#D32F2F" stroke-width="8.00" stroke-linecap="round"/>
<line x1="1348.79" y1="1080.82" x2="1334.78" y2="1073.10" stroke="#D32F2F" stroke-width="8.00" stroke-linecap="round"/>
<line x1="1317.82" y1="1064.79" x2="1331.66" y2="1049.68" stroke="#D32F2F" stroke-width="8.00" stroke-linecap="round"/>
<line x1="1346.48" y1="1057.70" x2="1331.66" y2="1049.68" stroke="#D32F2F" stroke-width="8.00" stroke-linecap="round"/>
<line x1="1313.88" y1="1040.77" x2="1327.14" y2="1026.34" stroke="#D32F2F" stroke-width="8.00" stroke-linecap="round"/>
<line x1="1342.76" y1="1035.01" x2="1327.14" y2="1026.34" stroke="#D32F2F" stroke-width="8.00" stroke-linecap="round"/>
<line x1="1308.47" y1="1016.33" x2="1321.39" y2="1003.09" stroke="#D32F2F" stroke-width="8.00" stroke-linecap="round"/>
<line x1="1337.84" y1="1012.74" x2="1321.39" y2="1003.09" stroke="#D32F2F" stroke-width="8.00" stroke-linecap="round"/>
<line x1="1301.70" y1="991.54" x2="1314.54" y2="979.99" stroke="#D32F2F" stroke-width="8.00" stroke-linecap="round"/>
<line x1="1331.87" y1="990.89" x2="1314.54" y2="979.99" stroke="#D32F2F" stroke-width="8.00" stroke-linecap="round"/>
<line x1="1293.69" y1="966.56" x2="1306.72" y2="957.15" stroke="#D32F2F" stroke-width="8.00" stroke-linecap="round"/>
<line x1="1325.01" y1="969.50" x2="1306.72" y2="957.15" stroke="#D32F2F" stroke-width="8.00" stroke-linecap="round"/>
<line x1="1284.56" y1="941.68" x2="1298.05" y2="934.76" stroke="#D32F2F" stroke-width="8.00" stroke-linecap="round"/>
<line x1="1317.37" y1="948.68" x2="1298.05" y2="934.76" stroke="#D32F2F" stroke-width="8.00" stroke-linecap="round"/>
<line x1="1274.46" y1="917.29" x2="1288.64" y2="913.16" stroke="#D32F2F" stroke-width="8.00" stroke-linecap="round"/>
<line x1="1309.07" y1="928.62" x2="1288.64" y2="913.16" stroke="#D32F2F" stroke-width="8.00" stroke-linecap="round"/>
<line x1="1263.58" y1="893.98" x2="1278.64" y2="892.81" stroke="#D32F2F" stroke-width="8.00" stroke-linecap="round"/>
<line x1="1300.21" y1="909.63" x2="1278.64" y2="892.81" stroke="#D32F2F" stroke-width="7.65" stroke-linecap="round"/>
<line x1="1252.12" y1="872.45" x2="1268.22" y2="874.33" stroke="#D32F2F" stroke-width="8.00" stroke-linecap="round"/>
<line x1="1290.92" y1="892.17" x2="1268.22" y2="874.33" stroke="#D32F2F" stroke-width="6.84" stroke-linecap="round"/>
<line x1="1240.36" y1="853.58" x2="1257.61" y2="858.46" stroke="#D32F2F" stroke-width="8.00" stroke-linecap="round"/>
<line x1="1281.37" y1="876.86" x2="1257.61" y2="858.46" stroke="#D32F2F" stroke-width="5.96" stroke-linecap="round"/>
<line x1="1228.61" y1="838.30" x2="1247.07" y2="846.04" stroke="#D32F2F" stroke-width="8.00" stroke-linecap="round"/>
<line x1="1271.80" y1="864.42" x2="1247.07" y2="846.04" stroke="#D32F2F" stroke-width="5.03" stroke-linecap="round"/>
<line x1="906.67" y1="855.59" x2="932.23" y2="837.84" stroke="#D32F2F" stroke-width="4.11" stroke-linecap="round"/>
<line x1="962.54" y1="821.89" x2="941.55" y2="834.50" stroke="#D32F2F" stroke-width="8.00" stroke-linecap="round"/>
<line x1="915.35" y1="851.00" x2="941.55" y2="834.50" stroke="#D32F2F" stroke-width="4.82" stroke-linecap="round"/>
<line x1="971.95" y1="821.89" x2="949.70" y2="836.31" stroke="#D32F2F" stroke-width="8.00" stroke-linecap="round"/>
<line x1="923.07" y1="851.00" x2="949.70" y2="836.31" stroke="#D32F2F" stroke-width="5.79" stroke-linecap="round"/>
<line x1="979.80" y1="827.49" x2="956.35" y2="843.18" stroke="#D32F2F" stroke-width="7.58" stroke-linecap="round"/>
<line x1="929.51" y1="855.59" x2="956.35" y2="843.18" stroke="#D32F2F" stroke-width="6.75" stroke-linecap="round"/>
<line x1="985.83" y1="838.30" x2="961.26" y2="854.67" stroke="#D32F2F" stroke-width="7.03" stroke-linecap="round"/>
<line x1="934.44" y1="864.42" x2="961.26" y2="854.67" stroke="#D32F2F" stroke-width="7.64" stroke-linecap="round"/>
<line x1="989.90" y1="853.58" x2="964.34" y2="870.04" stroke="#D32F2F" stroke-width="6.63" stroke-linecap="round"/>
<line x1="937.75" y1="876.86" x2="964.34" y2="870.04" stroke="#D32F2F" stroke-width="8.00" stroke-linecap="round"/>
<line x1="992.01" y1="872.45" x2="965.63" y2="888.45" stroke="#D32F2F" stroke-width="6.37" stroke-linecap="round"/>
<line x1="939.46" y1="892.17" x2="965.63" y2="888.45" stroke="#D32F2F" stroke-width="8.00" stroke-linecap="round"/>
<line x1="992.29" y1="893.98" x2="965.28" y2="909.08" stroke="#D32F2F" stroke-width="6.28" stroke-linecap="round"/>
<line x1="939.69" y1="909.63" x2="965.28" y2="909.08" stroke="#D32F2F" stroke-width="8.00" stroke-linecap="round"/>
<line x1="990.97" y1="917.29" x2="963.53" y2="931.19" stroke="#D32F2F" stroke-width="7.01" stroke-linecap="round"/>
<line x1="938.61" y1="928.62" x2="963.53" y2="931.19" stroke="#D32F2F" stroke-width="8.00" stroke-linecap="round"/>
<line x1="988.37" y1="941.68" x2="960.68" y2="954.22" stroke="#D32F2F" stroke-width="7.84" stroke-linecap="round"/>
<line x1="936.47" y1="948.68" x2="960.68" y2="954.22" stroke="#D32F2F" stroke-width="8.00" stroke-linecap="round"/>
<line x1="984.82" y1="966.56" x2="957.03" y2="977.74" stroke="#D32F2F" stroke-width="8.00" stroke-linecap="round"/>
<line x1="933.50" y1="969.50" x2="957.03" y2="977.74" stroke="#D32F2F" stroke-width="8.00" stroke-linecap="round"/>
<line x1="980.68" y1="991.54" x2="952.93" y2="1001.47" stroke="#D32F2F" stroke-width="8.00" stroke-linecap="round"/>
<line x1="929.96" y1="990.89" x2="952.93" y2="1001.47" stroke="#D32F2F" stroke-width="8.00" stroke-linecap="round"/>
<line x1="976.31" y1="1016.33" x2="948.69" y2="1025.24" stroke="#D32F2F" stroke-width="8.00" stroke-linecap="round"/>
<line x1="926.11" y1="1012.74" x2="948.69" y2="1025.24" stroke="#D32F2F" stroke-width="8.00" stroke-linecap="round"/>
<line x1="972.05" y1="1040.77" x2="944.65" y2="1048.95" stroke="#D32F2F" stroke-width="8.00" stroke-linecap="round"/>
<line x1="922.22" y1="1035.01" x2="944.65" y2="1048.95" stroke="#D32F2F" stroke-width="8.00" stroke-linecap="round"/>
<line x1="968.21" y1="1064.79" x2="941.11" y2="1072.57" stroke="#D32F2F" stroke-width="8.00" stroke-linecap="round"/>
<line x1="918.59" y1="1057.70" x2="941.11" y2="1072.57" stroke="#D32F2F" stroke-width="8.00" stroke-linecap="round"/>
<line x1="965.09" y1="1088.36" x2="938.39" y2="1096.08" stroke="#D32F2F" stroke-width="8.00" stroke-linecap="round"/>
<line x1="915.53" y1="1080.82" x2="938.39" y2="1096.08" stroke="#D32F2F" stroke-width="8.00" stroke-linecap="round"/>
<line x1="962.98" y1="1111.48" x2="936.81" y2="1119.50" stroke="#D32F2F" stroke-width="8.00" stroke-linecap="round"/>
<line x1="913.39" y1="1104.39" x2="936.81" y2="1119.50" stroke="#D32F2F" stroke-width="8.00" stroke-linecap="round"/>
<line x1="962.16" y1="1134.17" x2="936.69" y2="1142.84" stroke="#D32F2F" stroke-width="8.00" stroke-linecap="round"/>
<line x1="912.53" y1="1128.41" x2="936.69" y2="1142.84" stroke="#D32F2F" stroke-width="8.00" stroke-linecap="round"/>
<line x1="962.92" y1="1156.44" x2="938.36" y2="1166.09" stroke="#D32F2F" stroke-width="8.00" stroke-linecap="round"/>
<line x1="913.37" y1="1152.85" x2="938.36" y2="1166.09" stroke="#D32F2F" stroke-width="8.00" stroke-linecap="round"/>
<line x1="965.55" y1="1178.29" x2="942.18" y2="1189.19" stroke="#D32F2F" stroke-width="8.00" stroke-linecap="round"/>
<line x1="916.35" y1="1177.64" x2="942.18" y2="1189.19" stroke="#D32F2F" stroke-width="8.00" stroke-linecap="round"/>
<line x1="970.35" y1="1199.68" x2="948.52" y2="1212.03" stroke="#D32F2F" stroke-width="8.00" stroke-linecap="round"/>
<line x1="921.96" y1="1202.62" x2="948.52" y2="1212.03" stroke="#D32F2F" stroke-width="8.00" stroke-linecap="round"/>
<line x1="977.63" y1="1220.50" x2="957.75" y2="1234.42" stroke="#D32F2F" stroke-width="8.00" stroke-linecap="round"/>
<line x1="930.68" y1="1227.50" x2="957.75" y2="1234.42" stroke="#D32F2F" stroke-width="8.00" stroke-linecap="round"/>
<line x1="987.73" y1="1240.56" x2="970.24" y2="1256.02" stroke="#D32F2F" stroke-width="8.00" stroke-linecap="round"/>
<line x1="942.96" y1="1251.89" x2="970.24" y2="1256.02" stroke="#D32F2F" stroke-width="8.00" stroke-linecap="round"/>
<line x1="1000.94" y1="1259.55" x2="986.27" y2="1276.37" stroke="#D32F2F" stroke-width="8.00" stroke-linecap="round"/>
<line x1="959.17" y1="1275.20" x2="986.27" y2="1276.37" stroke="#D32F2F" stroke-width="8.00" stroke-linecap="round"/>
<line x1="1017.48" y1="1277.01" x2="1006.05" y2="1294.85" stroke="#D32F2F" stroke-width="8.00" stroke-linecap="round"/>
<line x1="979.57" y1="1296.73" x2="1006.05" y2="1294.85" stroke="#D32F2F" stroke-width="8.00" stroke-linecap="round"/>
<line x1="1037.43" y1="1292.32" x2="1029.54" y2="1310.72" stroke="#D32F2F" stroke-width="8.00" stroke-linecap="round"/>
<line x1="1004.16" y1="1315.60" x2="1029.54" y2="1310.72" stroke="#D32F2F" stroke-width="8.00" stroke-linecap="round"/>
<line x1="1060.62" y1="1304.76" x2="1056.45" y2="1323.14" stroke="#D32F2F" stroke-width="8.00" stroke-linecap="round"/>
<line x1="1032.65" y1="1330.88" x2="1056.45" y2="1323.14" stroke="#D32F2F" stroke-width="8.00" stroke-linecap="round"/>
<line x1="1086.58" y1="1313.59" x2="1086.15" y2="1331.34" stroke="#D32F2F" stroke-width="8.00" stroke-linecap="round"/>
<line x1="1064.42" y1="1341.69" x2="1086.15" y2="1331.34" stroke="#D32F2F" stroke-width="8.00" stroke-linecap="round"/>
<line x1="1114.50" y1="1318.18" x2="1117.69" y2="1334.68" stroke="#D32F2F" stroke-width="8.00" stroke-linecap="round"/>
<line x1="1098.48" y1="1347.29" x2="1117.69" y2="1334.68" stroke="#D32F2F" stroke-width="8.00" stroke-linecap="round"/>
<line x1="1143.30" y1="1318.18" x2="1149.87" y2="1332.87" stroke="#D32F2F" stroke-width="8.00" stroke-linecap="round"/>
<line x1="1133.59" y1="1347.29" x2="1149.87" y2="1332.87" stroke="#D32F2F" stroke-width="8.00" stroke-linecap="round"/>
<line x1="1171.82" y1="1313.59" x2="1181.42" y2="1326.00" stroke="#D32F2F" stroke-width="8.00" stroke-linecap="round"/>
<line x1="1168.38" y1="1341.69" x2="1181.42" y2="1326.00" stroke="#D32F2F" stroke-width="8.00" stroke-linecap="round"/>
<line x1="1198.95" y1="1304.76" x2="1211.18" y2="1314.51" stroke="#D32F2F" stroke-width="8.00" stroke-linecap="round"/>
<line x1="1201.58" y1="1330.88" x2="1211.18" y2="1314.51" stroke="#D32F2F" stroke-width="8.00" stroke-linecap="round"/>
<line x1="1223.82" y1="1292.32" x2="1238.24" y2="1299.14" stroke="#D32F2F" stroke-width="8.00" stroke-linecap="round"/>
<line x1="1232.13" y1="1315.60" x2="1238.24" y2="1299.14" stroke="#D32F2F" stroke-width="8.00" stroke-linecap="round"/>
<line x1="1245.87" y1="1277.01" x2="1262.01" y2="1280.73" stroke="#D32F2F" stroke-width="8.00" stroke-linecap="round"/>
<line x1="1259.31" y1="1296.73" x2="1262.01" y2="1280.73" stroke="#D32F2F" stroke-width="8.00" stroke-linecap="round"/>
<line x1="1264.84" y1="1259.55" x2="1282.23" y2="1260.10" stroke="#D32F2F" stroke-width="8.00" stroke-linecap="round"/>
<line x1="1282.70" y1="1275.20" x2="1282.23" y2="1260.10" stroke="#D32F2F" stroke-width="8.00" stroke-linecap="round"/>
<line x1="1280.71" y1="1240.56" x2="1298.87" y2="1237.99" stroke="#D32F2F" stroke-width="8.00" stroke-linecap="round"/>
<line x1="1302.18" y1="1251.89" x2="1298.87" y2="1237.99" stroke="#D32F2F" stroke-width="8.00" stroke-linecap="round"/>
<line x1="1293.61" y1="1220.50" x2="1312.07" y2="1214.96" stroke="#D32F2F" stroke-width="8.00" stroke-linecap="round"/>
<line x1="1317.86" y1="1227.50" x2="1312.07" y2="1214.96" stroke="#D32F2F" stroke-width="8.00" stroke-linecap="round"/>
<line x1="1303.74" y1="1199.68" x2="1322.10" y2="1191.44" stroke="#D32F2F" stroke-width="8.00" stroke-linecap="round"/>
<line x1="1329.98" y1="1202.62" x2="1322.10" y2="1191.44" stroke="#D32F2F" stroke-width="8.00" stroke-linecap="round"/>
<line x1="1311.32" y1="1178.29" x2="1329.25" y2="1167.71" stroke="#D32F2F" stroke-width="8.00" stroke-linecap="round"/>
<line x1="1338.84" y1="1177.64" x2="1329.25" y2="1167.71" stroke="#D32F2F" stroke-width="8.00" stroke-linecap="round"/>
<line x1="1316.58" y1="1156.44" x2="1333.81" y2="1143.94" stroke="#D32F2F" stroke-width="8.00" stroke-linecap="round"/>
<line x1="1344.81" y1="1152.85" x2="1333.81" y2="1143.94" stroke="#D32F2F" stroke-width="8.00" stroke-linecap="round"/>
<line x1="1319.70" y1="1134.17" x2="1336.08" y2="1120.23" stroke="#D32F2F" stroke-width="8.00" stroke-linecap="round"/>
<line x1="1348.25" y1="1128.41" x2="1336.08" y2="1120.23" stroke="#D32F2F" stroke-width="8.00" stroke-linecap="round"/>
<line x1="1320.86" y1="1111.48" x2="1336.32" y2="1096.61" stroke="#D32F2F" stroke-width="8.00" stroke-linecap="round"/>
<line x1="1349.47" y1="1104.39" x2="1336.32" y2="1096.61" stroke="#D32F2F" stroke-width="8.00" stroke-linecap="round"/>
<circle cx="1084.59" cy="1084.59" r="290.0" fill="none" stroke="#ccc" stroke-width="0.5"/>
<line x1="1084.59" y1="1664.59" x2="1084.59" y2="1374.59" stroke="#A1A1AA" stroke-width="5" opacity="0.9"/>
<line x1="1084.59" y1="794.59" x2="1084.59" y2="504.59" stroke="#A1A1AA" stroke-width="5" opacity="0.9"/>
<line x1="524.35" y1="1084.59" x2="804.47" y2="1084.59" stroke="#A1A1AA" stroke-width="5" opacity="0.9"/>
<line x1="1234.70" y1="1084.59" x2="1159.65" y2="1084.59" stroke="#A1A1AA" stroke-width="5" opacity="0.9"/>
<polygon points="1644.83,1084.59 1624.83,1092.59 1624.83,1076.59" fill="#A1A1AA" opacity="0.9"/>
<polygon points="934.47,1084.59 954.47,1076.59 954.47,1092.59" fill="#A1A1AA" opacity="0.9"/>
<polygon points="1084.59,504.59 1092.59,524.59 1076.59,524.59" fill="#A1A1AA" opacity="0.9"/>
<text x="1745.67" y="1084.59" font-family="Palatino, 'Palatino Linotype', 'Book Antiqua', Georgia, serif" font-style="italic" font-size="52" fill="#A1A1AA" text-anchor="middle" dominant-baseline="middle" opacity="0.9">x</text>
<text x="907.45" y="1084.59" font-family="Palatino, 'Palatino Linotype', 'Book Antiqua', Georgia, serif" font-style="italic" font-size="52" fill="#A1A1AA" text-anchor="middle" dominant-baseline="middle" opacity="0.9">y</text>
<text x="1084.59" y="400.19" font-family="Palatino, 'Palatino Linotype', 'Book Antiqua', Georgia, serif" font-style="italic" font-size="52" fill="#A1A1AA" text-anchor="middle" dominant-baseline="middle" opacity="0.9">z</text>
<polyline points="1148.21,1548.59 1150.90,1548.59 1153.18,1548.59 1155.03,1548.59 1156.45,1548.59 1157.43,1548.59 1157.96,1548.59 1158.03,1548.59 1157.65,1548.59 1156.83,1548.59 1155.55,1548.59 1153.84,1548.59 1151.70,1548.59 1149.15,1548.59 1146.20,1548.59 1142.87,1548.59 1139.19,1548.59 1135.16,1548.59 1130.82,1548.59 1126.20,1548.59 1121.32,1548.59 1116.22,1548.59 1110.92,1548.59 1105.46,1548.59 1099.86,1548.59 1094.18,1548.59 1088.43,1548.59 1082.67,1548.59 1076.91,1548.59 1071.20,1548.59 1065.57,1548.59 1060.07,1548.59 1054.71,1548.59 1049.53,1548.59 1044.58,1548.59 1039.87,1548.59 1035.43,1548.59 1031.30,1548.59 1027.50,1548.59 1024.04,1548.59 1020.97,1548.59 1018.28,1548.59 1016.00,1548.59 1014.15,1548.59 1012.73,1548.59 1011.75,1548.59 1011.22,1548.59 1011.15,1548.59 1011.53,1548.59 1012.35,1548.59 1013.63,1548.59 1015.34,1548.59 1017.47,1548.59 1020.03,1548.59 1022.98,1548.59 1026.30,1548.59 1029.99,1548.59 1034.02,1548.59 1038.36,1548.59 1042.98,1548.59 1047.86,1548.59" fill="none" stroke="#A1A1AA" stroke-width="2.2" stroke-linecap="round" stroke-linejoin="round" opacity="0.85"/>
<polygon points="1047.86,1548.59 1037.86,1553.59 1037.86,1543.59" fill="#A1A1AA" opacity="0.85"/>
<text x="1054.17" y="1548.59" font-family="Palatino, 'Palatino Linotype', 'Book Antiqua', Georgia, serif" font-style="italic" font-size="28" fill="#A1A1AA" text-anchor="middle" dominant-baseline="middle" opacity="0.85">yaw</text>
<polyline points="649.85,1136.54 650.86,1132.30 651.78,1127.77 652.61,1122.98 653.34,1117.94 653.97,1112.70 654.48,1107.29 654.89,1101.74 655.18,1096.08 655.36,1090.35 655.41,1084.59 655.36,1078.83 655.18,1073.10 654.89,1067.44 654.48,1061.89 653.97,1056.47 653.34,1051.24 652.61,1046.20 651.78,1041.41 650.86,1036.88 649.85,1032.64 648.75,1028.72 647.58,1025.15 646.33,1021.95 645.03,1019.13 643.68,1016.72 642.28,1014.72 640.84,1013.15 639.37,1012.03 637.89,1011.35 636.40,1011.12 634.91,1011.35 633.43,1012.03 631.96,1013.15 630.52,1014.72 629.12,1016.72 627.77,1019.13 626.46,1021.95 625.22,1025.15 624.05,1028.72 622.95,1032.64 621.94,1036.88 621.02,1041.41 620.19,1046.20 619.46,1051.24 618.83,1056.47 618.32,1061.89 617.91,1067.44 617.62,1073.10 617.44,1078.83 617.39,1084.59 617.44,1090.35 617.62,1096.08 617.91,1101.74 618.32,1107.29 618.83,1112.70 619.46,1117.94 620.19,1122.98 621.02,1127.77 621.94,1132.30 622.95,1136.54" fill="none" stroke="#A1A1AA" stroke-width="2.2" stroke-linecap="round" stroke-linejoin="round" opacity="0.85"/>
<polygon points="622.95,1136.54 615.76,1127.98 625.49,1125.65" fill="#A1A1AA" opacity="0.85"/>
<text x="636.40" y="967.04" font-family="Palatino, 'Palatino Linotype', 'Book Antiqua', Georgia, serif" font-style="italic" font-size="28" fill="#A1A1AA" text-anchor="middle" dominant-baseline="middle" opacity="0.85">pitch</text>
<polyline points="1254.86,1136.54 1258.64,1132.30 1262.09,1127.77 1265.19,1122.98 1267.91,1117.94 1270.24,1112.70 1272.17,1107.29 1273.68,1101.74 1274.77,1096.08 1275.43,1090.35 1275.64,1084.59 1275.43,1078.83 1274.77,1073.10 1273.68,1067.44 1272.17,1061.89 1270.24,1056.47 1267.91,1051.24 1265.19,1046.20 1262.09,1041.41 1258.64,1036.88 1254.86,1032.64 1250.77,1028.72 1246.39,1025.15 1241.76,1021.95 1236.90,1019.13 1231.84,1016.72 1226.61,1014.72 1221.25,1013.15 1215.78,1012.03 1210.25,1011.35 1204.68,1011.12 1199.11,1011.35 1193.58,1012.03 1188.12,1013.15 1182.75,1014.72 1177.53,1016.72 1172.46,1019.13 1167.60,1021.95 1162.97,1025.15 1158.59,1028.72 1154.50,1032.64 1150.72,1036.88 1147.27,1041.41 1144.18,1046.20 1141.45,1051.24 1139.12,1056.47 1137.19,1061.89 1135.68,1067.44 1134.59,1073.10 1133.94,1078.83 1133.72,1084.59 1133.94,1090.35 1134.59,1096.08 1135.68,1101.74 1137.19,1107.29 1139.12,1112.70 1141.45,1117.94 1144.18,1122.98 1147.27,1127.77 1150.72,1132.30 1154.50,1136.54" fill="none" stroke="#A1A1AA" stroke-width="2.2" stroke-linecap="round" stroke-linejoin="round" opacity="0.85"/>
<polygon points="1154.50,1136.54 1144.11,1132.41 1151.57,1125.75" fill="#A1A1AA" opacity="0.85"/>
<text x="1204.68" y="967.04" font-family="Palatino, 'Palatino Linotype', 'Book Antiqua', Georgia, serif" font-style="italic" font-size="28" fill="#A1A1AA" text-anchor="middle" dominant-baseline="middle" opacity="0.85">roll</text>
</svg>