<svg width="2169" height="2169" viewBox="0 0 2169.1789 2169.1789" xmlns="http://www.w3.org/2000/svg">
<line x1="1335.74" y1="1084.59" x2="1586.88" y2="1084.59" stroke="#A1A1AA" stroke-width="5" opacity="0.9"/>
<line x1="833.44" y1="1374.59" x2="959.02" y2="1229.59" stroke="#A1A1AA" stroke-width="5" opacity="0.9"/>
<line x1="1012.09" y1="833.44" x2="939.59" y2="582.29" stroke="#A1A1AA" stroke-width="5" opacity="0.9"/>
<circle cx="1084.59" cy="1084.59" r="290.0" fill="#FDFDF5"/>
<line x1="1285.00" y1="876.77" x2="1302.86" y2="893.85" stroke="#D32F2F" stroke-width="8.00" stroke-linecap="round"/>
<line x1="1299.93" y1="894.66" x2="1316.36" y2="911.49" stroke="#D32F2F" stroke-width="8.00" stroke-linecap="round"/>
<line x1="1313.13" y1="913.81" x2="1328.30" y2="930.42" stroke="#D32F2F" stroke-width="8.00" stroke-linecap="round"/>
<line x1="1324.54" y1="933.87" x2="1338.62" y2="950.38" stroke="#D32F2F" stroke-width="8.00" stroke-linecap="round"/>
<line x1="1340.86" y1="949.12" x2="1338.62" y2="950.38" stroke="#D32F2F" stroke-width="8.00" stroke-linecap="round"/>
<line x1="1334.11" y1="954.58" x2="1347.24" y2="971.17" stroke="#D32F2F" stroke-width="8.00" stroke-linecap="round"/>
<line x1="1349.90" y1="968.68" x2="1347.24" y2="971.17" stroke="#D32F2F" stroke-width="8.00" stroke-linecap="round"/>
<line x1="1341.83" y1="975.72" x2="1354.09" y2="992.63" stroke="#D32F2F" stroke-width="8.00" stroke-linecap="round"/>
<line x1="1357.47" y1="989.42" x2="1354.09" y2="992.63" stroke="#D32F2F" stroke-width="8.00" stroke-linecap="round"/>
<line x1="1347.65" y1="997.13" x2="1359.09" y2="1014.62" stroke="#D32F2F" stroke-width="8.00" stroke-linecap="round"/>
<line x1="1363.40" y1="1011.25" x2="1359.09" y2="1014.62" stroke="#D32F2F" stroke-width="8.00" stroke-linecap="round"/>
<line x1="1351.53" y1="1018.68" x2="1362.11" y2="1037.03" stroke="#D32F2F" stroke-width="8.00" stroke-linecap="round"/>
<line x1="1367.49" y1="1034.06" x2="1362.11" y2="1037.03" stroke="#D32F2F" stroke-width="8.00" stroke-linecap="round"/>
<line x1="1353.38" y1="1040.25" x2="1363.02" y2="1059.72" stroke="#D32F2F" stroke-width="8.00" stroke-linecap="round"/>
<line x1="1369.52" y1="1057.74" x2="1363.02" y2="1059.72" stroke="#D32F2F" stroke-width="8.00" stroke-linecap="round"/>
<line x1="1353.11" y1="1061.71" x2="1361.63" y2="1082.54" stroke="#D32F2F" stroke-width="8.00" stroke-linecap="round"/>
<line x1="1369.20" y1="1082.09" x2="1361.63" y2="1082.54" stroke="#D32F2F" stroke-width="8.00" stroke-linecap="round"/>
<line x1="1350.57" y1="1082.93" x2="1357.72" y2="1105.29" stroke="#D32F2F" stroke-width="8.00" stroke-linecap="round"/>
<line x1="1366.24" y1="1106.86" x2="1357.72" y2="1105.29" stroke="#D32F2F" stroke-width="8.00" stroke-linecap="round"/>
<line x1="1345.59" y1="1103.70" x2="1351.06" y2="1127.67" stroke="#D32F2F" stroke-width="8.00" stroke-linecap="round"/>
<line x1="1360.28" y1="1131.70" x2="1351.06" y2="1127.67" stroke="#D32F2F" stroke-width="8.00" stroke-linecap="round"/>
<line x1="1337.96" y1="1123.78" x2="1341.37" y2="1149.30" stroke="#D32F2F" stroke-width="8.00" stroke-linecap="round"/>
<line x1="1350.99" y1="1156.10" x2="1341.37" y2="1149.30" stroke="#D32F2F" stroke-width="8.00" stroke-linecap="round"/>
<line x1="1327.44" y1="1142.80" x2="1328.42" y2="1169.68" stroke="#D32F2F" stroke-width="8.00" stroke-linecap="round"/>
<line x1="1338.08" y1="1179.45" x2="1328.42" y2="1169.68" stroke="#D32F2F" stroke-width="8.00" stroke-linecap="round"/>
<line x1="1313.86" y1="1160.27" x2="1312.02" y2="1188.16" stroke="#D32F2F" stroke-width="8.00" stroke-linecap="round"/>
<line x1="1321.33" y1="1200.98" x2="1312.02" y2="1188.16" stroke="#D32F2F" stroke-width="8.00" stroke-linecap="round"/>
<line x1="1297.10" y1="1175.56" x2="1292.15" y2="1203.99" stroke="#D32F2F" stroke-width="8.00" stroke-linecap="round"/>
<line x1="1300.68" y1="1219.83" x2="1292.15" y2="1203.99" stroke="#D32F2F" stroke-width="8.00" stroke-linecap="round"/>
<line x1="1277.26" y1="1187.95" x2="1268.99" y2="1216.35" stroke="#D32F2F" stroke-width="8.00" stroke-linecap="round"/>
<line x1="1276.31" y1="1235.05" x2="1268.99" y2="1216.35" stroke="#D32F2F" stroke-width="8.00" stroke-linecap="round"/>
<line x1="1254.69" y1="1196.72" x2="1243.02" y2="1224.49" stroke="#D32F2F" stroke-width="8.00" stroke-linecap="round"/>
<line x1="1248.69" y1="1245.79" x2="1243.02" y2="1224.49" stroke="#D32F2F" stroke-width="8.00" stroke-linecap="round"/>
<line x1="1230.04" y1="1201.28" x2="1215.02" y2="1227.81" stroke="#D32F2F" stroke-width="8.00" stroke-linecap="round"/>
<line x1="1218.61" y1="1251.35" x2="1215.02" y2="1227.81" stroke="#D32F2F" stroke-width="8.00" stroke-linecap="round"/>
<line x1="1204.21" y1="1201.28" x2="1186.02" y2="1226.01" stroke="#D32F2F" stroke-width="8.00" stroke-linecap="round"/>
<line x1="1187.13" y1="1251.35" x2="1186.02" y2="1226.01" stroke="#D32F2F" stroke-width="8.00" stroke-linecap="round"/>
<line x1="1178.27" y1="1196.72" x2="1157.18" y2="1219.19" stroke="#D32F2F" stroke-width="8.00" stroke-linecap="round"/>
<line x1="1155.48" y1="1245.79" x2="1157.18" y2="1219.19" stroke="#D32F2F" stroke-width="8.00" stroke-linecap="round"/>
<line x1="1153.24" y1="1187.95" x2="1129.59" y2="1207.76" stroke="#D32F2F" stroke-width="8.00" stroke-linecap="round"/>
<line x1="1124.85" y1="1235.05" x2="1129.59" y2="1207.76" stroke="#D32F2F" stroke-width="8.00" stroke-linecap="round"/>
<line x1="1129.99" y1="1175.56" x2="1104.16" y2="1192.44" stroke="#D32F2F" stroke-width="8.00" stroke-linecap="round"/>
<line x1="1096.28" y1="1219.83" x2="1104.16" y2="1192.44" stroke="#D32F2F" stroke-width="8.00" stroke-linecap="round"/>
<line x1="1109.08" y1="1160.27" x2="1081.51" y2="1174.04" stroke="#D32F2F" stroke-width="8.00" stroke-linecap="round"/>
<line x1="1070.52" y1="1200.98" x2="1081.51" y2="1174.04" stroke="#D32F2F" stroke-width="8.00" stroke-linecap="round"/>
<line x1="1090.83" y1="1142.80" x2="1061.93" y2="1153.39" stroke="#D32F2F" stroke-width="8.00" stroke-linecap="round"/>
<line x1="1048.02" y1="1179.45" x2="1061.93" y2="1153.39" stroke="#D32F2F" stroke-width="8.00" stroke-linecap="round"/>
<line x1="1075.28" y1="1123.78" x2="1045.47" y2="1131.24" stroke="#D32F2F" stroke-width="8.00" stroke-linecap="round"/>
<line x1="1028.92" y1="1156.10" x2="1045.47" y2="1131.24" stroke="#D32F2F" stroke-width="8.00" stroke-linecap="round"/>
<line x1="1062.30" y1="1103.70" x2="1031.98" y2="1108.21" stroke="#D32F2F" stroke-width="8.00" stroke-linecap="round"/>
<line x1="1013.14" y1="1131.70" x2="1031.98" y2="1108.21" stroke="#D32F2F" stroke-width="8.00" stroke-linecap="round"/>
<line x1="1051.66" y1="1082.93" x2="1021.18" y2="1084.78" stroke="#D32F2F" stroke-width="8.00" stroke-linecap="round"/>
<line x1="1000.42" y1="1106.86" x2="1021.18" y2="1084.78" stroke="#D32F2F" stroke-width="8.00" stroke-linecap="round"/>
<line x1="1043.09" y1="1061.71" x2="1012.71" y2="1061.32" stroke="#D32F2F" stroke-width="8.00" stroke-linecap="round"/>
<line x1="990.41" y1="1082.09" x2="1012.71" y2="1061.32" stroke="#D32F2F" stroke-width="8.00" stroke-linecap="round"/>
<line x1="1036.30" y1="1040.25" x2="1006.18" y2="1038.10" stroke="#D32F2F" stroke-width="8.00" stroke-linecap="round"/>
<line x1="982.69" y1="1057.74" x2="1006.18" y2="1038.10" stroke="#D32F2F" stroke-width="8.00" stroke-linecap="round"/>
<line x1="1030.96" y1="1018.68" x2="1001.21" y2="1015.32" stroke="#D32F2F" stroke-width="8.00" stroke-linecap="round"/>
<line x1="976.84" y1="1034.06" x2="1001.21" y2="1015.32" stroke="#D32F2F" stroke-width="8.00" stroke-linecap="round"/>
<line x1="1026.79" y1="997.13" x2="997.40" y2="993.13" stroke="#D32F2F" stroke-width="8.00" stroke-linecap="round"/>
<line x1="972.41" y1="1011.25" x2="997.40" y2="993.13" stroke="#D32F2F" stroke-width="8.00" stroke-linecap="round"/>
<line x1="1023.46" y1="975.72" x2="994.38" y2="971.65" stroke="#D32F2F" stroke-width="8.00" stroke-linecap="round"/>
<line x1="969.02" y1="989.42" x2="994.38" y2="971.65" stroke="#D32F2F" stroke-width="8.00" stroke-linecap="round"/>
<line x1="1020.66" y1="954.58" x2="991.81" y2="951.01" stroke="#D32F2F" stroke-width="8.00" stroke-linecap="round"/>
<line x1="966.27" y1="968.68" x2="991.81" y2="951.01" stroke="#D32F2F" stroke-width="7.55" stroke-linecap="round"/>
<line x1="1018.06" y1="933.87" x2="989.32" y2="931.32" stroke="#D32F2F" stroke-width="8.00" stroke-linecap="round"/>
<line x1="963.81" y1="949.12" x2="989.32" y2="931.32" stroke="#D32F2F" stroke-width="7.19" stroke-linecap="round"/>
<line x1="1015.33" y1="913.81" x2="986.60" y2="912.74" stroke="#D32F2F" stroke-width="8.00" stroke-linecap="round"/>
<line x1="961.32" y1="930.83" x2="986.60" y2="912.74" stroke="#D32F2F" stroke-width="7.07" stroke-linecap="round"/>
<line x1="1012.11" y1="894.66" x2="983.34" y2="895.47" stroke="#D32F2F" stroke-width="8.00" stroke-linecap="round"/>
<line x1="958.49" y1="913.95" x2="983.34" y2="895.47" stroke="#D32F2F" stroke-width="7.05" stroke-linecap="round"/>
<line x1="1008.07" y1="876.77" x2="979.22" y2="879.76" stroke="#D32F2F" stroke-width="8.00" stroke-linecap="round"/>
<line x1="955.03" y1="898.63" x2="979.22" y2="879.76" stroke="#D32F2F" stroke-width="7.14" stroke-linecap="round"/>
<line x1="1002.87" y1="860.61" x2="973.98" y2="865.95" stroke="#D32F2F" stroke-width="7.94" stroke-linecap="round"/>
<line x1="950.68" y1="885.11" x2="973.98" y2="865.95" stroke="#D32F2F" stroke-width="7.35" stroke-linecap="round"/>
<line x1="996.20" y1="846.73" x2="967.37" y2="854.50" stroke="#D32F2F" stroke-width="7.28" stroke-linecap="round"/>
<line x1="945.20" y1="873.68" x2="967.37" y2="854.50" stroke="#D32F2F" stroke-width="7.68" stroke-linecap="round"/>
<line x1="987.84" y1="835.78" x2="959.22" y2="845.91" stroke="#D32F2F" stroke-width="6.49" stroke-linecap="round"/>
<line x1="938.39" y1="864.76" x2="959.22" y2="845.91" stroke="#D32F2F" stroke-width="8.00" stroke-linecap="round"/>
<line x1="977.65" y1="828.47" x2="949.45" y2="840.80" stroke="#D32F2F" stroke-width="5.59" stroke-linecap="round"/>
<line x1="930.13" y1="858.84" x2="949.45" y2="840.80" stroke="#D32F2F" stroke-width="8.00" stroke-linecap="round"/>
<line x1="965.66" y1="825.52" x2="938.08" y2="839.78" stroke="#D32F2F" stroke-width="4.62" stroke-linecap="round"/>
<line x1="920.39" y1="856.45" x2="938.08" y2="839.78" stroke="#D32F2F" stroke-width="8.00" stroke-linecap="round"/>
<line x1="952.05" y1="827.57" x2="925.32" y2="843.38" stroke="#D32F2F" stroke-width="4.40" stroke-linecap="round"/>
<line x1="909.31" y1="858.11" x2="925.32" y2="843.38" stroke="#D32F2F" stroke-width="8.00" stroke-linecap="round"/>
<line x1="846.50" y1="1248.26" x2="859.85" y2="1267.80" stroke="#D32F2F" stroke-width="8.00" stroke-linecap="round"/>
<line x1="861.96" y1="1266.75" x2="875.18" y2="1284.63" stroke="#D32F2F" stroke-width="8.00" stroke-linecap="round"/>
<line x1="880.36" y1="1285.02" x2="893.03" y2="1301.02" stroke="#D32F2F" stroke-width="8.00" stroke-linecap="round"/>
<line x1="901.83" y1="1302.85" x2="913.52" y2="1316.80" stroke="#D32F2F" stroke-width="8.00" stroke-linecap="round"/>
<line x1="929.22" y1="1329.42" x2="936.65" y2="1331.67" stroke="#D32F2F" stroke-width="8.00" stroke-linecap="round"/>
<line x1="926.40" y1="1319.88" x2="936.65" y2="1331.67" stroke="#D32F2F" stroke-width="8.00" stroke-linecap="round"/>
<line x1="951.53" y1="1342.19" x2="962.29" y2="1345.21" stroke="#D32F2F" stroke-width="8.00" stroke-linecap="round"/>
<line x1="953.92" y1="1335.63" x2="962.29" y2="1345.21" stroke="#D32F2F" stroke-width="8.00" stroke-linecap="round"/>
<line x1="975.94" y1="1353.43" x2="990.09" y2="1356.86" stroke="#D32F2F" stroke-width="8.00" stroke-linecap="round"/>
<line x1="984.00" y1="1349.47" x2="990.09" y2="1356.86" stroke="#D32F2F" stroke-width="8.00" stroke-linecap="round"/>
<line x1="1002.00" y1="1362.58" x2="1019.46" y2="1366.01" stroke="#D32F2F" stroke-width="8.00" stroke-linecap="round"/>
<line x1="1016.02" y1="1360.72" x2="1019.46" y2="1366.01" stroke="#D32F2F" stroke-width="8.00" stroke-linecap="round"/>
<line x1="1049.04" y1="1368.69" x2="1049.53" y2="1372.06" stroke="#D32F2F" stroke-width="8.00" stroke-linecap="round"/>
<line x1="1081.92" y1="1372.84" x2="1079.20" y2="1374.54" stroke="#D32F2F" stroke-width="8.00" stroke-linecap="round"/>
<line x1="1285.00" y1="876.77" x2="1302.86" y2="893.85" stroke="#D32F2F" stroke-width="8.00" stroke-linecap="round"/>
<line x1="1299.93" y1="894.66" x2="1316.36" y2="911.49" stroke="#D32F2F" stroke-width="8.00" stroke-linecap="round"/>
<line x1="1313.13" y1="913.81" x2="1328.30" y2="930.42" stroke="#D32F2F" stroke-width="8.00" stroke-linecap="round"/>
<line x1="1324.54" y1="933.87" x2="1338.62" y2="950.38" stroke="#D32F2F" stroke-width="8.00" stroke-linecap="round"/>
<line x1="1340.86" y1="949.12" x2="1338.62" y2="950.38" stroke="#D32F2F" stroke-width="8.00" stroke-linecap="round"/>
<line x1="1334.11" y1="954.58" x2="1347.24" y2="971.17" stroke="#D32F2F" stroke-width="8.00" stroke-linecap="round"/>
<line x1="1349.90" y1="968.68" x2="1347.24" y2="971.17" stroke="#D32F2F" stroke-width="8.00" stroke-linecap="round"/>
<line x1="1341.83" y1="975.72" x2="1354.09" y2="992.63" stroke="#D32F2F" stroke-width="8.00" stroke-linecap="round"/>
<line x1="1357.47" y1="989.42" x2="1354.09" y2="992.63" stroke="#D32F2F" stroke-width="8.00" stroke-linecap="round"/>
<line x1="1347.65" y1="997.13" x2="1359.09" y2="1014.62" stroke="#D32F2F" stroke-width="8.00" stroke-linecap="round"/>
<line x1="1363.40" y1="1011.25" x2="1359.09" y2="1014.62" stroke="#D32F2F" stroke-width="8.00" stroke-linecap="round"/>
<line x1="1351.53" y1="1018.68" x2="1362.11" y2="1037.03" stroke="#D32F2F" stroke-width="8.00" stroke-linecap="round"/>
<line x1="1367.49" y1="1034.06" x2="1362.11" y2="1037.03" stroke="#D32F2F" stroke-width="8.00" stroke-linecap="round"/>
<line x1="1353.38" y1="1040.25" x2="1363.02" y2="1059.72" stroke="#D32F2F" stroke-width="8.00" stroke-linecap="round"/>
<line x1="1369.52" y1="1057.74" x2="1363.02" y2="1059.72" stroke="#D32F2F" stroke-width="8.00" stroke-linecap="round"/>
<line x1="1353.11" y1="1061.71" x2="1361.63" y2="1082.54" stroke="#D32F2F" stroke-width="8.00" stroke-linecap="round"/>
<line x1="1369.20" y1="1082.09" x2="1361.63" y2="1082.54" stroke="#D32F2F" stroke-width="8.00" stroke-linecap="round"/>
<line x1="1350.57" y1="1082.93" x2="1357.72" y2="1105.29" stroke="#D32F2F" stroke-width="8.00" stroke-linecap="round"/>
<line x1="1366.24" y1="1106.86" x2="1357.72" y2="1105.29" stroke="#D32F2F" stroke-width="8.00" stroke-linecap="round"/>
<line x1="1345.59" y1="1103.70" x2="1351.06" y2="1127.67" stroke="#D32F2F" stroke-width="8.00" stroke-linecap="round"/>
<line x1="1360.28" y1="1131.70" x2="1351.06" y2="1127.67" stroke="#D32F2F" stroke-width="8.00" stroke-linecap="round"/>
<line x1="1337.96" y1="1123.78" x2="1341.37" y2="1149.30" stroke="#D32F2F" stroke-width="8.00" stroke-linecap="round"/>
<line x1="1350.99" y1="1156.10" x2="1341.37" y2="1149.30" stroke="#D32F2F" stroke-width="8.00" stroke-linecap="round"/>
<line x1="1327.44" y1="1142.80" x2="1328.42" y2="1169.68" stroke="#D32F2F" stroke-width="8.00" stroke-linecap="round"/>
<line x1="1338.08" y1="1179.45" x2="1328.42" y2="1169.68" stroke="#D32F2F" stroke-width="8.00" stroke-linecap="round"/>
<line x1="1313.86" y1="1160.27" x2="1312.02" y2="1188.16" stroke="#D32F2F" stroke-width="8.00" stroke-linecap="round"/>
<line x1="1321.33" y1="1200.98" x2="1312.02" y2="1188.16" stroke="#D32F2F" stroke-width="8.00" stroke-linecap="round"/>
<line x1="1297.10" y1="1175.56" x2="1292.15" y2="1203.99" stroke="#D32F2F" stroke-width="8.00" stroke-linecap="round"/>
<line x1="1300.68" y1="1219.83" x2="1292.15" y2="1203.99" stroke="#D32F2F" stroke-width="8.00" stroke-linecap="round"/>
<line x1="1277.26" y1="1187.95" x2="1268.99" y2="1216.35" stroke="#D32F2F" stroke-width="8.00" stroke-linecap="round"/>
<line x1="1276.31" y1="1235.05" x2="1268.99" y2="1216.35" stroke="#D32F2F" stroke-width="8.00" stroke-linecap="round"/>
<line x1="1254.69" y1="1196.72" x2="1243.02" y2="1224.49" stroke="#D32F2F" stroke-width="8.00" stroke-linecap="round"/>
<line x1="1248.69" y1="1245.79" x2="1243.02" y2="1224.49" stroke="#D32F2F" stroke-width="8.00" stroke-linecap="round"/>
<line x1="1230.04" y1="1201.28" x2="1215.02" y2="1227.81" stroke="#D32F2F" stroke-width="8.00" stroke-linecap="round"/>
<line x1="1218.61" y1="1251.35" x2="1215.02" y2="1227.81" stroke="#D32F2F" stroke-width="8.00" stroke-linecap="round"/>
<line x1="1204.21" y1="1201.28" x2="1186.02" y2="1226.01" stroke="#D32F2F" stroke-width="8.00" stroke-linecap="round"/>
<line x1="1187.13" y1="1251.35" x2="1186.02" y2="1226.01" stroke="#D32F2F" stroke-width="8.00" stroke-linecap="round"/>
<line x1="1178.27" y1="1196.72" x2="1157.18" y2="1219.19" stroke="#D32F2F" stroke-width="8.00" stroke-linecap="round"/>
<line x1="1155.48" y1="1245.79" x2="1157.18" y2="1219.19" stroke="#D32F2F" stroke-width="8.00" stroke-linecap="round"/>
<line x1="1153.24" y1="1187.95" x2="1129.59" y2="1207.76" stroke="#D32F2F" stroke-width="8.00" stroke-linecap="round"/>
<line x1="1124.85" y1="1235.05" x2="1129.59" y2="1207.76" stroke="#D32F2F" stroke-width="8.00" stroke-linecap="round"/>
<line x1="1129.99" y1="1175.56" x2="1104.16" y2="1192.44" stroke="#D32F2F" stroke-width="8.00" stroke-linecap="round"/>
<line x1="1096.28" y1="1219.83" x2="1104.16" y2="1192.44" stroke="#D32F2F" stroke-width="8.00" stroke-linecap="round"/>
<line x1="1109.08" y1="1160.27" x2="1081.51" y2="1174.04" stroke="#D32F2F" stroke-width="8.00" stroke-linecap="round"/>
<line x1="1070.52" y1="1200.98" x2="1081.51" y2="1174.04" stroke="#D32F2F" stroke-width="8.00" stroke-linecap="round"/>
<line x1="1090.83" y1="1142.80" x2="1061.93" y2="1153.39" stroke="#D32F2F" stroke-width="8.00" stroke-linecap="round"/>
<line x1="1048.02" y1="1179.45" x2="1061.93" y2="1153.39" stroke="#D32F2F" stroke-width="8.00" stroke-linecap="round"/>
<line x1="1075.28" y1="1123.78" x2="1045.47" y2="1131.24" stroke="#D32F2F" stroke-width="8.00" stroke-linecap="round"/>
<line x1="1028.92" y1="1156.10" x2="1045.47" y2="1131.24" stroke="#D32F2F" stroke-width="8.00" stroke-linecap="round"/>
<line x1="1062.30" y1="1103.70" x2="1031.98" y2="1108.21" stroke="#D32F2F" stroke-width="8.00" stroke-linecap="round"/>
<line x1="1013.14" y1="1131.70" x2="1031.98" y2="1108.21" stroke="#D32F2F" stroke-width="8.00" stroke-linecap="round"/>
<line x1="1051.66" y1="1082.93" x2="1021.18" y2="1084.78" stroke="#D32F2F" stroke-width="8.00" stroke-linecap="round"/>
<line x1="1000.42" y1="1106.86" x2="1021.18" y2="1084.78" stroke="#D32F2F" stroke-width="8.00" stroke-linecap="round"/>
<line x1="1043.09" y1="1061.71" x2="1012.71" y2="1061.32" stroke="#D32F2F" stroke-width="8.00" stroke-linecap="round"/>
<line x1="990.41" y1="1082.09" x2="1012.71" y2="1061.32" stroke="#D32F2F" stroke-width="8.00" stroke-linecap="round"/>
<line x1="1036.30" y1="1040.25" x2="1006.18" y2="1038.10" stroke="#D32F2F" stroke-width="8.00" stroke-linecap="round"/>
<line x1="982.69" y1="1057.74" x2="1006.18" y2="1038.10" stroke="#D32F2F" stroke-width="8.00" stroke-linecap="round"/>
<line x1="1030.96" y1="1018.68" x2="1001.21" y2="1015.32" stroke="#D32F2F" stroke-width="8.00" stroke-linecap="round"/>
<line x1="976.84" y1="1034.06" x2="1001.21" y2="1015.32" stroke="#D32F2F" stroke-width="8.00" stroke-linecap="round"/>
<line x1="1026.79" y1="997.13" x2="997.40" y2="993.13" stroke="#D32F2F" stroke-width="8.00" stroke-linecap="round"/>
<line x1="972.41" y1="1011.25" x2="997.40" y2="993.13" stroke="#D32F2F" stroke-width="8.00" stroke-linecap="round"/>
<line x1="1023.46" y1="975.72" x2="994.38" y2="971.65" stroke="#D32F2F" stroke-width="8.00" stroke-linecap="round"/>
<line x1="969.02" y1="989.42" x2="994.38" y2="971.65" stroke="#D32F2F" stroke-width="8.00" stroke-linecap="round"/>
<line x1="1020.66" y1="954.58" x2="991.81" y2="951.01" stroke="#D32F2F" stroke-width="8.00" stroke-linecap="round"/>
<line x1="966.27" y1="968.68" x2="991.81" y2="951.01" stroke="#D32F2F" stroke-width="7.55" stroke-linecap="round"/>
<line x1="1018.06" y1="933.87" x2="989.32" y2="931.32" stroke="#D32F2F" stroke-width="8.00" stroke-linecap="round"/>
<line x1="963.81" y1="949.12" x2="989.32" y2="931.32" stroke="#D32F2F" stroke-width="7.19" stroke-linecap="round"/>
<line x1="1015.33" y1="913.81" x2="986.60" y2="912.74" stroke="#D32F2F" stroke-width="8.00" stroke-linecap="round"/>
<line x1="961.32" y1="930.83" x2="986.60" y2="912.74" stroke="#D32F2F" stroke-width="7.07" stroke-linecap="round"/>
<line x1="1012.11" y1="894.66" x2="983.34" y2="895.47" stroke="#D32F2F" stroke-width="8.00" stroke-linecap="round"/>
<line x1="958.49" y1="913.95" x2="983.34" y2="895.47" stroke="#D32F2F" stroke-width="7.05" stroke-linecap="round"/>
<line x1="1008.07" y1="876.77" x2="979.22" y2="879.76" stroke="#D32F2F" stroke-width="8.00" stroke-linecap="round"/>
<line x1="955.03" y1="898.63" x2="979.22" y2="879.76" stroke="#D32F2F" stroke-width="7.14" stroke-linecap="round"/>
<line x1="1002.87" y1="860.61" x2="973.98" y2="865.95" stroke="#D32F2F" stroke-width="7.94" stroke-linecap="round"/>
<line x1="950.68" y1="885.11" x2="973.98" y2="865.95" stroke="#D32F2F" stroke-width="7.35" stroke-linecap="round"/>
<line x1="996.20" y1="846.73" x2="967.37" y2="854.50" stroke="#D32F2F" stroke-width="7.28" stroke-linecap="round"/>
<line x1="945.20" y1="873.68" x2="967.37" y2="854.50" stroke="#D32F2F" stroke-width="7.68" stroke-linecap="round"/>
<line x1="987.84" y1="835.78" x2="959.22" y2="845.91" stroke="#D32F2F" stroke-width="6.49" stroke-linecap="round"/>
<line x1="938.39" y1="864.76" x2="959.22" y2="845.91" stroke="#D32F2F" stroke-width="8.00" stroke-linecap="round"/>
<line x1="977.65" y1="828.47" x2="949.45" y2="840.80" stroke="#D32F2F" stroke-width="5.59" stroke-linecap="round"/>
<line x1="930.13" y1="858.84" x2="949.45" y2="840.80" stroke="#D32F2F" stroke-width="8.00" stroke-linecap="round"/>
<line x1="965.66" y1="825.52" x2="938.08" y2="839.78" stroke="#D32F2F" stroke-width="4.62" stroke-linecap="round"/>
<line x1="920.39" y1="856.45" x2="938.08" y2="839.78" stroke="#D32F2F" stroke-width="8.00" stroke-linecap="round"/>
<line x1="952.05" y1="827.57" x2="925.32" y2="843.38" stroke="#D32F2F" stroke-width="4.40" stroke-linecap="round"/>
<line x1="909.31" y1="858.11" x2="925.32" y2="843.38" stroke="#D32F2F" stroke-width="8.00" stroke-linecap="round"/>
<line x1="846.50" y1="1248.26" x2="859.85" y2="1267.80" stroke="#D32F2F" stroke-width="8.00" stroke-linecap="round"/>
<line x1="861.96" y1="1266.75" x2="875.18" y2="1284.63" stroke="#D32F2F" stroke-width="8.00" stroke-linecap="round"/>
<line x1="880.36" y1="1285.02" x2="893.03" y2="1301.02" stroke="#D32F2F" stroke-width="8.00" stroke-linecap="round"/>
<line x1="901.83" y1="1302.85" x2="913.52" y2="1316.80" stroke="#D32F2F" stroke-width="8.00" stroke-linecap="round"/>
<line x1="929.22" y1="1329.42" x2="936.65" y2="1331.67" stroke="#D32F2F" stroke-width="8.00" stroke-linecap="round"/>
<line x1="926.40" y1="1319.88" x2="936.65" y2="1331.67" stroke="#D32F2F" stroke-width="8.00" stroke-linecap="round"/>
<line x1="951.53" y1="1342.19" x2="962.29" y2="1345.21" stroke="#D32F2F" stroke-width="8.00" stroke-linecap="round"/>
<line x1="953.92" y1="1335.63" x2="962.29" y2="1345.21" stroke="#D32F2F" stroke-width="8.00" stroke-linecap="round"/>
<line x1="975.94" y1="1353.43" x2="990.09" y2="1356.86" stroke="#D32F2F" stroke-width="8.00" stroke-linecap="round"/>
<line x1="984.00" y1="1349.47" x2="990.09" y2="1356.86" stroke="#D32F2F" stroke-width="8.00" stroke-linecap="round"/>
<line x1="1002.00" y1="1362.58" x2="1019.46" y2="1366.01" stroke="#D32F2F" stroke-width="8.00" stroke-linecap="round"/>
<line x1="1016.02" y1="1360.72" x2="1019.46" y2="1366.01" stroke="#D32F2F" stroke-width="8.00" stroke-linecap="round"/>
<line x1="1049.04" y1="1368.69" x2="1049.53" y2="1372.06" stroke="#D32F2F" stroke-width="8.00" stroke-linecap="round"/>
<line x1="1081.92" y1="1372.84" x2="1079.20" y2="1374.54" stroke="#D32F2F" stroke-width="8.00" stroke-linecap="round"/>
<circle cx="1084.59" cy="1084.59" r="290.0" fill="none" stroke="#ccc" stroke-width="0.5"/>
<line x1="582.29" y1="1084.59" x2="833.44" y2="1084.59" stroke="#A1A1AA" stroke-width="5" opacity="0.9"/>
<line x1="1210.16" y1="939.59" x2="1335.74" y2="794.59" stroke="#A1A1AA" stroke-width="5" opacity="0.9"/>
<line x1="1229.59" y1="1586.88" x2="1157.09" y2="1335.74" stroke="#A1A1AA" stroke-width="5" opacity="0.9"/>
<polygon points="833.44,1374.59 840.49,1354.23 852.58,1364.71" fill="#A1A1AA" opacity="0.9"/>
<text x="1662.23" y="1084.59" font-family="Palatino, 'Palatino Linotype', 'Book Antiqua', Georgia, serif" font-style="italic" font-size="52" fill="#A1A1AA" text-anchor="middle" dominant-baseline="middle" opacity="0.9">x</text>
<text x="1396.01" y="724.99" font-family="Palatino, 'Palatino Linotype', 'Book Antiqua', Georgia, serif" font-style="italic" font-size="52" fill="#A1A1AA" text-anchor="middle" dominant-baseline="middle" opacity="0.9">y</text>
<text x="917.84" y="506.95" font-family="Palatino, 'Palatino Linotype', 'Book Antiqua', Georgia, serif" font-style="italic" font-size="52" fill="#A1A1AA" text-anchor="middle" dominant-baseline="middle" opacity="0.9">z</text>
</svg>