<svg width="2169" height="2169" viewBox="0 0 2169.1789 2169.1789" xmlns="http://www.w3.org/2000/svg">
<line x1="947.80" y1="939.59" x2="811.02" y2="794.59" stroke="#A1A1AA" stroke-width="5" opacity="0.9"/>
<line x1="1057.92" y1="1569.77" x2="1071.26" y2="1327.18" stroke="#A1A1AA" stroke-width="5" opacity="0.9"/>
<line x1="1339.96" y1="1019.59" x2="1595.32" y2="954.59" stroke="#A1A1AA" stroke-width="5" opacity="0.9"/>
<circle cx="1084.59" cy="1084.59" r="290.0" fill="#FDFDF5"/>
<line x1="1352.06" y1="1158.68" x2="1361.75" y2="1132.27" stroke="#D32F2F" stroke-width="7.67" stroke-linecap="round"/>
<line x1="1368.95" y1="1123.08" x2="1361.75" y2="1132.27" stroke="#D32F2F" stroke-width="8.00" stroke-linecap="round"/>
<line x1="1351.33" y1="1140.33" x2="1360.15" y2="1113.81" stroke="#D32F2F" stroke-width="7.89" stroke-linecap="round"/>
<line x1="1368.24" y1="1105.08" x2="1360.15" y2="1113.81" stroke="#D32F2F" stroke-width="8.00" stroke-linecap="round"/>
<line x1="1348.80" y1="1121.05" x2="1356.86" y2="1094.75" stroke="#D32F2F" stroke-width="8.00" stroke-linecap="round"/>
<line x1="1365.86" y1="1086.86" x2="1356.86" y2="1094.75" stroke="#D32F2F" stroke-width="8.00" stroke-linecap="round"/>
<line x1="1344.47" y1="1100.61" x2="1351.96" y2="1074.90" stroke="#D32F2F" stroke-width="8.00" stroke-linecap="round"/>
<line x1="1361.92" y1="1068.25" x2="1351.96" y2="1074.90" stroke="#D32F2F" stroke-width="8.00" stroke-linecap="round"/>
<line x1="1338.35" y1="1078.85" x2="1345.49" y2="1054.10" stroke="#D32F2F" stroke-width="8.00" stroke-linecap="round"/>
<line x1="1356.52" y1="1049.07" x2="1345.49" y2="1054.10" stroke="#D32F2F" stroke-width="8.00" stroke-linecap="round"/>
<line x1="1330.42" y1="1055.62" x2="1337.49" y2="1032.25" stroke="#D32F2F" stroke-width="8.00" stroke-linecap="round"/>
<line x1="1349.74" y1="1029.18" x2="1337.49" y2="1032.25" stroke="#D32F2F" stroke-width="8.00" stroke-linecap="round"/>
<line x1="1320.70" y1="1030.89" x2="1327.98" y2="1009.28" stroke="#D32F2F" stroke-width="8.00" stroke-linecap="round"/>
<line x1="1341.61" y1="1008.49" x2="1327.98" y2="1009.28" stroke="#D32F2F" stroke-width="8.00" stroke-linecap="round"/>
<line x1="1309.21" y1="1004.73" x2="1316.98" y2="985.28" stroke="#D32F2F" stroke-width="8.00" stroke-linecap="round"/>
<line x1="1332.15" y1="986.96" x2="1316.98" y2="985.28" stroke="#D32F2F" stroke-width="8.00" stroke-linecap="round"/>
<line x1="1296.00" y1="977.40" x2="1304.54" y2="960.45" stroke="#D32F2F" stroke-width="8.00" stroke-linecap="round"/>
<line x1="1321.40" y1="964.71" x2="1304.54" y2="960.45" stroke="#D32F2F" stroke-width="8.00" stroke-linecap="round"/>
<line x1="1281.21" y1="949.35" x2="1290.75" y2="935.20" stroke="#D32F2F" stroke-width="8.00" stroke-linecap="round"/>
<line x1="1309.40" y1="941.96" x2="1290.75" y2="935.20" stroke="#D32F2F" stroke-width="8.00" stroke-linecap="round"/>
<line x1="1265.04" y1="921.29" x2="1275.81" y2="910.14" stroke="#D32F2F" stroke-width="8.00" stroke-linecap="round"/>
<line x1="1296.28" y1="919.19" x2="1275.81" y2="910.14" stroke="#D32F2F" stroke-width="8.00" stroke-linecap="round"/>
<line x1="1247.82" y1="894.12" x2="1260.00" y2="886.11" stroke="#D32F2F" stroke-width="8.00" stroke-linecap="round"/>
<line x1="1282.26" y1="897.07" x2="1260.00" y2="886.11" stroke="#D32F2F" stroke-width="8.00" stroke-linecap="round"/>
<line x1="1230.02" y1="868.88" x2="1243.77" y2="864.07" stroke="#D32F2F" stroke-width="8.00" stroke-linecap="round"/>
<line x1="1267.72" y1="876.45" x2="1243.77" y2="864.07" stroke="#D32F2F" stroke-width="8.00" stroke-linecap="round"/>
<line x1="1212.21" y1="846.69" x2="1227.68" y2="845.02" stroke="#D32F2F" stroke-width="8.00" stroke-linecap="round"/>
<line x1="1253.12" y1="858.27" x2="1227.68" y2="845.02" stroke="#D32F2F" stroke-width="7.16" stroke-linecap="round"/>
<line x1="1195.07" y1="828.52" x2="1212.34" y2="829.83" stroke="#D32F2F" stroke-width="8.00" stroke-linecap="round"/>
<line x1="1239.06" y1="843.36" x2="1212.34" y2="829.83" stroke="#D32F2F" stroke-width="6.22" stroke-linecap="round"/>
<line x1="1179.25" y1="815.07" x2="1198.38" y2="819.10" stroke="#D32F2F" stroke-width="8.00" stroke-linecap="round"/>
<line x1="1226.09" y1="832.33" x2="1198.38" y2="819.10" stroke="#D32F2F" stroke-width="5.25" stroke-linecap="round"/>
<line x1="830.02" y1="947.45" x2="843.41" y2="923.72" stroke="#D32F2F" stroke-width="7.86" stroke-linecap="round"/>
<line x1="840.07" y1="933.31" x2="854.98" y2="909.23" stroke="#D32F2F" stroke-width="7.38" stroke-linecap="round"/>
<line x1="875.35" y1="884.56" x2="867.96" y2="897.10" stroke="#D32F2F" stroke-width="8.00" stroke-linecap="round"/>
<line x1="851.37" y1="921.27" x2="867.96" y2="897.10" stroke="#D32F2F" stroke-width="6.85" stroke-linecap="round"/>
<line x1="890.70" y1="872.88" x2="882.28" y2="887.88" stroke="#D32F2F" stroke-width="8.00" stroke-linecap="round"/>
<line x1="863.87" y1="911.76" x2="882.28" y2="887.88" stroke="#D32F2F" stroke-width="6.31" stroke-linecap="round"/>
<line x1="907.48" y1="864.91" x2="897.76" y2="882.21" stroke="#D32F2F" stroke-width="8.00" stroke-linecap="round"/>
<line x1="877.47" y1="905.29" x2="897.76" y2="882.21" stroke="#D32F2F" stroke-width="5.79" stroke-linecap="round"/>
<line x1="925.38" y1="861.40" x2="914.17" y2="880.72" stroke="#D32F2F" stroke-width="8.00" stroke-linecap="round"/>
<line x1="892.00" y1="902.44" x2="914.17" y2="880.72" stroke="#D32F2F" stroke-width="5.35" stroke-linecap="round"/>
<line x1="944.01" y1="863.01" x2="931.11" y2="883.96" stroke="#D32F2F" stroke-width="8.00" stroke-linecap="round"/>
<line x1="907.16" y1="903.75" x2="931.11" y2="883.96" stroke="#D32F2F" stroke-width="5.05" stroke-linecap="round"/>
<line x1="962.80" y1="870.16" x2="948.10" y2="892.30" stroke="#D32F2F" stroke-width="8.00" stroke-linecap="round"/>
<line x1="922.52" y1="909.60" x2="948.10" y2="892.30" stroke="#D32F2F" stroke-width="5.99" stroke-linecap="round"/>
<line x1="981.12" y1="882.98" x2="964.50" y2="905.75" stroke="#D32F2F" stroke-width="8.00" stroke-linecap="round"/>
<line x1="937.53" y1="920.11" x2="964.50" y2="905.75" stroke="#D32F2F" stroke-width="6.93" stroke-linecap="round"/>
<line x1="998.26" y1="901.15" x2="979.67" y2="923.96" stroke="#D32F2F" stroke-width="8.00" stroke-linecap="round"/>
<line x1="951.60" y1="935.02" x2="979.67" y2="923.96" stroke="#D32F2F" stroke-width="7.80" stroke-linecap="round"/>
<line x1="1013.57" y1="923.98" x2="993.00" y2="946.20" stroke="#D32F2F" stroke-width="8.00" stroke-linecap="round"/>
<line x1="964.14" y1="953.72" x2="993.00" y2="946.20" stroke="#D32F2F" stroke-width="8.00" stroke-linecap="round"/>
<line x1="1026.50" y1="950.45" x2="1004.03" y2="971.48" stroke="#D32F2F" stroke-width="8.00" stroke-linecap="round"/>
<line x1="974.71" y1="975.36" x2="1004.03" y2="971.48" stroke="#D32F2F" stroke-width="8.00" stroke-linecap="round"/>
<line x1="1036.71" y1="979.41" x2="1012.48" y2="998.71" stroke="#D32F2F" stroke-width="8.00" stroke-linecap="round"/>
<line x1="983.02" y1="998.93" x2="1012.48" y2="998.71" stroke="#D32F2F" stroke-width="8.00" stroke-linecap="round"/>
<line x1="1044.08" y1="1009.71" x2="1018.30" y2="1026.86" stroke="#D32F2F" stroke-width="8.00" stroke-linecap="round"/>
<line x1="989.00" y1="1023.52" x2="1018.30" y2="1026.86" stroke="#D32F2F" stroke-width="8.00" stroke-linecap="round"/>
<line x1="1048.68" y1="1040.35" x2="1021.62" y2="1055.08" stroke="#D32F2F" stroke-width="8.00" stroke-linecap="round"/>
<line x1="992.74" y1="1048.36" x2="1021.62" y2="1055.08" stroke="#D32F2F" stroke-width="8.00" stroke-linecap="round"/>
<line x1="1050.77" y1="1070.51" x2="1022.69" y2="1082.73" stroke="#D32F2F" stroke-width="8.00" stroke-linecap="round"/>
<line x1="994.43" y1="1072.93" x2="1022.69" y2="1082.73" stroke="#D32F2F" stroke-width="8.00" stroke-linecap="round"/>
<line x1="1050.68" y1="1099.62" x2="1021.86" y2="1109.39" stroke="#D32F2F" stroke-width="8.00" stroke-linecap="round"/>
<line x1="994.36" y1="1096.87" x2="1021.86" y2="1109.39" stroke="#D32F2F" stroke-width="8.00" stroke-linecap="round"/>
<line x1="1048.84" y1="1127.30" x2="1019.51" y2="1134.81" stroke="#D32F2F" stroke-width="8.00" stroke-linecap="round"/>
<line x1="992.82" y1="1120.03" x2="1019.51" y2="1134.81" stroke="#D32F2F" stroke-width="8.00" stroke-linecap="round"/>
<line x1="1045.69" y1="1153.34" x2="1016.06" y2="1158.88" stroke="#D32F2F" stroke-width="8.00" stroke-linecap="round"/>
<line x1="990.12" y1="1142.33" x2="1016.06" y2="1158.88" stroke="#D32F2F" stroke-width="8.00" stroke-linecap="round"/>
<line x1="1041.66" y1="1177.69" x2="1011.88" y2="1181.60" stroke="#D32F2F" stroke-width="8.00" stroke-linecap="round"/>
<line x1="986.57" y1="1163.79" x2="1011.88" y2="1181.60" stroke="#D32F2F" stroke-width="8.00" stroke-linecap="round"/>
<line x1="1037.17" y1="1200.37" x2="1007.38" y2="1203.02" stroke="#D32F2F" stroke-width="8.00" stroke-linecap="round"/>
<line x1="982.47" y1="1184.45" x2="1007.38" y2="1203.02" stroke="#D32F2F" stroke-width="8.00" stroke-linecap="round"/>
<line x1="1032.61" y1="1221.46" x2="1002.91" y2="1223.21" stroke="#D32F2F" stroke-width="8.00" stroke-linecap="round"/>
<line x1="978.16" y1="1204.37" x2="1002.91" y2="1223.21" stroke="#D32F2F" stroke-width="7.70" stroke-linecap="round"/>
<line x1="1028.34" y1="1241.08" x2="998.83" y2="1242.28" stroke="#D32F2F" stroke-width="8.00" stroke-linecap="round"/>
<line x1="973.97" y1="1223.61" x2="998.83" y2="1242.28" stroke="#D32F2F" stroke-width="7.45" stroke-linecap="round"/>
<line x1="1024.70" y1="1259.35" x2="995.50" y2="1260.32" stroke="#D32F2F" stroke-width="8.00" stroke-linecap="round"/>
<line x1="970.26" y1="1242.24" x2="995.50" y2="1260.32" stroke="#D32F2F" stroke-width="7.20" stroke-linecap="round"/>
<line x1="1022.01" y1="1276.39" x2="993.28" y2="1277.41" stroke="#D32F2F" stroke-width="8.00" stroke-linecap="round"/>
<line x1="967.43" y1="1260.27" x2="993.28" y2="1277.41" stroke="#D32F2F" stroke-width="6.91" stroke-linecap="round"/>
<line x1="1020.61" y1="1292.29" x2="992.53" y2="1293.60" stroke="#D32F2F" stroke-width="8.00" stroke-linecap="round"/>
<line x1="965.89" y1="1277.72" x2="992.53" y2="1293.60" stroke="#D32F2F" stroke-width="6.54" stroke-linecap="round"/>
<line x1="1020.80" y1="1307.11" x2="993.62" y2="1308.89" stroke="#D32F2F" stroke-width="8.00" stroke-linecap="round"/>
<line x1="966.11" y1="1294.54" x2="993.62" y2="1308.89" stroke="#D32F2F" stroke-width="6.07" stroke-linecap="round"/>
<line x1="1022.92" y1="1320.88" x2="996.96" y2="1323.22" stroke="#D32F2F" stroke-width="8.00" stroke-linecap="round"/>
<line x1="968.60" y1="1310.60" x2="996.96" y2="1323.22" stroke="#D32F2F" stroke-width="5.48" stroke-linecap="round"/>
<line x1="1027.31" y1="1333.53" x2="1002.93" y2="1336.44" stroke="#D32F2F" stroke-width="8.00" stroke-linecap="round"/>
<line x1="973.85" y1="1325.72" x2="1002.93" y2="1336.44" stroke="#D32F2F" stroke-width="4.77" stroke-linecap="round"/>
<line x1="1034.32" y1="1344.94" x2="1011.94" y2="1348.34" stroke="#D32F2F" stroke-width="8.00" stroke-linecap="round"/>
<line x1="982.37" y1="1339.59" x2="1011.94" y2="1348.34" stroke="#D32F2F" stroke-width="4.91" stroke-linecap="round"/>
<line x1="1044.27" y1="1354.88" x2="1024.33" y2="1358.55" stroke="#D32F2F" stroke-width="8.00" stroke-linecap="round"/>
<line x1="994.59" y1="1351.79" x2="1024.33" y2="1358.55" stroke="#D32F2F" stroke-width="5.41" stroke-linecap="round"/>
<line x1="1057.45" y1="1363.01" x2="1040.34" y2="1366.66" stroke="#D32F2F" stroke-width="8.00" stroke-linecap="round"/>
<line x1="1010.83" y1="1361.83" x2="1040.34" y2="1366.66" stroke="#D32F2F" stroke-width="6.06" stroke-linecap="round"/>
<line x1="1073.97" y1="1368.92" x2="1060.04" y2="1372.14" stroke="#D32F2F" stroke-width="8.00" stroke-linecap="round"/>
<line x1="1031.20" y1="1369.11" x2="1060.04" y2="1372.14" stroke="#D32F2F" stroke-width="6.80" stroke-linecap="round"/>
<line x1="1093.78" y1="1372.13" x2="1083.25" y2="1374.49" stroke="#D32F2F" stroke-width="8.00" stroke-linecap="round"/>
<line x1="1336.02" y1="1226.88" x2="1348.71" y2="1204.03" stroke="#D32F2F" stroke-width="8.00" stroke-linecap="round"/>
<line x1="1343.02" y1="1210.22" x2="1355.21" y2="1186.04" stroke="#D32F2F" stroke-width="7.92" stroke-linecap="round"/>
<line x1="1347.96" y1="1193.42" x2="1359.42" y2="1168.20" stroke="#D32F2F" stroke-width="7.68" stroke-linecap="round"/>
<line x1="1364.64" y1="1159.16" x2="1359.42" y2="1168.20" stroke="#D32F2F" stroke-width="8.00" stroke-linecap="round"/>
<line x1="1350.95" y1="1176.30" x2="1361.55" y2="1150.34" stroke="#D32F2F" stroke-width="7.59" stroke-linecap="round"/>
<line x1="1367.82" y1="1141.04" x2="1361.55" y2="1150.34" stroke="#D32F2F" stroke-width="8.00" stroke-linecap="round"/>
<line x1="1352.06" y1="1158.68" x2="1361.75" y2="1132.27" stroke="#D32F2F" stroke-width="7.67" stroke-linecap="round"/>
<line x1="1368.95" y1="1123.08" x2="1361.75" y2="1132.27" stroke="#D32F2F" stroke-width="8.00" stroke-linecap="round"/>
<line x1="1351.33" y1="1140.33" x2="1360.15" y2="1113.81" stroke="#D32F2F" stroke-width="7.89" stroke-linecap="round"/>
<line x1="1368.24" y1="1105.08" x2="1360.15" y2="1113.81" stroke="#D32F2F" stroke-width="8.00" stroke-linecap="round"/>
<line x1="1348.80" y1="1121.05" x2="1356.86" y2="1094.75" stroke="#D32F2F" stroke-width="8.00" stroke-linecap="round"/>
<line x1="1365.86" y1="1086.86" x2="1356.86" y2="1094.75" stroke="#D32F2F" stroke-width="8.00" stroke-linecap="round"/>
<line x1="1344.47" y1="1100.61" x2="1351.96" y2="1074.90" stroke="#D32F2F" stroke-width="8.00" stroke-linecap="round"/>
<line x1="1361.92" y1="1068.25" x2="1351.96" y2="1074.90" stroke="#D32F2F" stroke-width="8.00" stroke-linecap="round"/>
<line x1="1338.35" y1="1078.85" x2="1345.49" y2="1054.10" stroke="#D32F2F" stroke-width="8.00" stroke-linecap="round"/>
<line x1="1356.52" y1="1049.07" x2="1345.49" y2="1054.10" stroke="#D32F2F" stroke-width="8.00" stroke-linecap="round"/>
<line x1="1330.42" y1="1055.62" x2="1337.49" y2="1032.25" stroke="#D32F2F" stroke-width="8.00" stroke-linecap="round"/>
<line x1="1349.74" y1="1029.18" x2="1337.49" y2="1032.25" stroke="#D32F2F" stroke-width="8.00" stroke-linecap="round"/>
<line x1="1320.70" y1="1030.89" x2="1327.98" y2="1009.28" stroke="#D32F2F" stroke-width="8.00" stroke-linecap="round"/>
<line x1="1341.61" y1="1008.49" x2="1327.98" y2="1009.28" stroke="#D32F2F" stroke-width="8.00" stroke-linecap="round"/>
<line x1="1309.21" y1="1004.73" x2="1316.98" y2="985.28" stroke="#D32F2F" stroke-width="8.00" stroke-linecap="round"/>
<line x1="1332.15" y1="986.96" x2="1316.98" y2="985.28" stroke="#D32F2F" stroke-width="8.00" stroke-linecap="round"/>
<line x1="1296.00" y1="977.40" x2="1304.54" y2="960.45" stroke="#D32F2F" stroke-width="8.00" stroke-linecap="round"/>
<line x1="1321.40" y1="964.71" x2="1304.54" y2="960.45" stroke="#D32F2F" stroke-width="8.00" stroke-linecap="round"/>
<line x1="1281.21" y1="949.35" x2="1290.75" y2="935.20" stroke="#D32F2F" stroke-width="8.00" stroke-linecap="round"/>
<line x1="1309.40" y1="941.96" x2="1290.75" y2="935.20" stroke="#D32F2F" stroke-width="8.00" stroke-linecap="round"/>
<line x1="1265.04" y1="921.29" x2="1275.81" y2="910.14" stroke="#D32F2F" stroke-width="8.00" stroke-linecap="round"/>
<line x1="1296.28" y1="919.19" x2="1275.81" y2="910.14" stroke="#D32F2F" stroke-width="8.00" stroke-linecap="round"/>
<line x1="1247.82" y1="894.12" x2="1260.00" y2="886.11" stroke="#D32F2F" stroke-width="8.00" stroke-linecap="round"/>
<line x1="1282.26" y1="897.07" x2="1260.00" y2="886.11" stroke="#D32F2F" stroke-width="8.00" stroke-linecap="round"/>
<line x1="1230.02" y1="868.88" x2="1243.77" y2="864.07" stroke="#D32F2F" stroke-width="8.00" stroke-linecap="round"/>
<line x1="1267.72" y1="876.45" x2="1243.77" y2="864.07" stroke="#D32F2F" stroke-width="8.00" stroke-linecap="round"/>
<line x1="1212.21" y1="846.69" x2="1227.68" y2="845.02" stroke="#D32F2F" stroke-width="8.00" stroke-linecap="round"/>
<line x1="1253.12" y1="858.27" x2="1227.68" y2="845.02" stroke="#D32F2F" stroke-width="7.16" stroke-linecap="round"/>
<line x1="1195.07" y1="828.52" x2="1212.34" y2="829.83" stroke="#D32F2F" stroke-width="8.00" stroke-linecap="round"/>
<line x1="1239.06" y1="843.36" x2="1212.34" y2="829.83" stroke="#D32F2F" stroke-width="6.22" stroke-linecap="round"/>
<line x1="1179.25" y1="815.07" x2="1198.38" y2="819.10" stroke="#D32F2F" stroke-width="8.00" stroke-linecap="round"/>
<line x1="1226.09" y1="832.33" x2="1198.38" y2="819.10" stroke="#D32F2F" stroke-width="5.25" stroke-linecap="round"/>
<line x1="830.02" y1="947.45" x2="843.41" y2="923.72" stroke="#D32F2F" stroke-width="7.86" stroke-linecap="round"/>
<line x1="840.07" y1="933.31" x2="854.98" y2="909.23" stroke="#D32F2F" stroke-width="7.38" stroke-linecap="round"/>
<line x1="875.35" y1="884.56" x2="867.96" y2="897.10" stroke="#D32F2F" stroke-width="8.00" stroke-linecap="round"/>
<line x1="851.37" y1="921.27" x2="867.96" y2="897.10" stroke="#D32F2F" stroke-width="6.85" stroke-linecap="round"/>
<line x1="890.70" y1="872.88" x2="882.28" y2="887.88" stroke="#D32F2F" stroke-width="8.00" stroke-linecap="round"/>
<line x1="863.87" y1="911.76" x2="882.28" y2="887.88" stroke="#D32F2F" stroke-width="6.31" stroke-linecap="round"/>
<line x1="907.48" y1="864.91" x2="897.76" y2="882.21" stroke="#D32F2F" stroke-width="8.00" stroke-linecap="round"/>
<line x1="877.47" y1="905.29" x2="897.76" y2="882.21" stroke="#D32F2F" stroke-width="5.79" stroke-linecap="round"/>
<line x1="925.38" y1="861.40" x2="914.17" y2="880.72" stroke="#D32F2F" stroke-width="8.00" stroke-linecap="round"/>
<line x1="892.00" y1="902.44" x2="914.17" y2="880.72" stroke="#D32F2F" stroke-width="5.35" stroke-linecap="round"/>
<line x1="944.01" y1="863.01" x2="931.11" y2="883.96" stroke="#D32F2F" stroke-width="8.00" stroke-linecap="round"/>
<line x1="907.16" y1="903.75" x2="931.11" y2="883.96" stroke="#D32F2F" stroke-width="5.05" stroke-linecap="round"/>
<line x1="962.80" y1="870.16" x2="948.10" y2="892.30" stroke="#D32F2F" stroke-width="8.00" stroke-linecap="round"/>
<line x1="922.52" y1="909.60" x2="948.10" y2="892.30" stroke="#D32F2F" stroke-width="5.99" stroke-linecap="round"/>
<line x1="981.12" y1="882.98" x2="964.50" y2="905.75" stroke="#D32F2F" stroke-width="8.00" stroke-linecap="round"/>
<line x1="937.53" y1="920.11" x2="964.50" y2="905.75" stroke="#D32F2F" stroke-width="6.93" stroke-linecap="round"/>
<line x1="998.26" y1="901.15" x2="979.67" y2="923.96" stroke="#D32F2F" stroke-width="8.00" stroke-linecap="round"/>
<line x1="951.60" y1="935.02" x2="979.67" y2="923.96" stroke="#D32F2F" stroke-width="7.80" stroke-linecap="round"/>
<line x1="1013.57" y1="923.98" x2="993.00" y2="946.20" stroke="#D32F2F" stroke-width="8.00" stroke-linecap="round"/>
<line x1="964.14" y1="953.72" x2="993.00" y2="946.20" stroke="#D32F2F" stroke-width="8.00" stroke-linecap="round"/>
<line x1="1026.50" y1="950.45" x2="1004.03" y2="971.48" stroke="#D32F2F" stroke-width="8.00" stroke-linecap="round"/>
<line x1="974.71" y1="975.36" x2="1004.03" y2="971.48" stroke="#D32F2F" stroke-width="8.00" stroke-linecap="round"/>
<line x1="1036.71" y1="979.41" x2="1012.48" y2="998.71" stroke="#D32F2F" stroke-width="8.00" stroke-linecap="round"/>
<line x1="983.02" y1="998.93" x2="1012.48" y2="998.71" stroke="#D32F2F" stroke-width="8.00" stroke-linecap="round"/>
<line x1="1044.08" y1="1009.71" x2="1018.30" y2="1026.86" stroke="#D32F2F" stroke-width="8.00" stroke-linecap="round"/>
<line x1="989.00" y1="1023.52" x2="1018.30" y2="1026.86" stroke="#D32F2F" stroke-width="8.00" stroke-linecap="round"/>
<line x1="1048.68" y1="1040.35" x2="1021.62" y2="1055.08" stroke="#D32F2F" stroke-width="8.00" stroke-linecap="round"/>
<line x1="992.74" y1="1048.36" x2="1021.62" y2="1055.08" stroke="#D32F2F" stroke-width="8.00" stroke-linecap="round"/>
<line x1="1050.77" y1="1070.51" x2="1022.69" y2="1082.73" stroke="#D32F2F" stroke-width="8.00" stroke-linecap="round"/>
<line x1="994.43" y1="1072.93" x2="1022.69" y2="1082.73" stroke="#D32F2F" stroke-width="8.00" stroke-linecap="round"/>
<line x1="1050.68" y1="1099.62" x2="1021.86" y2="1109.39" stroke="#D32F2F" stroke-width="8.00" stroke-linecap="round"/>
<line x1="994.36" y1="1096.87" x2="1021.86" y2="1109.39" stroke="#D32F2F" stroke-width="8.00" stroke-linecap="round"/>
<line x1="1048.84" y1="1127.30" x2="1019.51" y2="1134.81" stroke="#D32F2F" stroke-width="8.00" stroke-linecap="round"/>
<line x1="992.82" y1="1120.03" x2="1019.51" y2="1134.81" stroke="#D32F2F" stroke-width="8.00" stroke-linecap="round"/>
<line x1="1045.69" y1="1153.34" x2="1016.06" y2="1158.88" stroke="#D32F2F" stroke-width="8.00" stroke-linecap="round"/>
<line x1="990.12" y1="1142.33" x2="1016.06" y2="1158.88" stroke="#D32F2F" stroke-width="8.00" stroke-linecap="round"/>
<line x1="1041.66" y1="1177.69" x2="1011.88" y2="1181.60" stroke="#D32F2F" stroke-width="8.00" stroke-linecap="round"/>
<line x1="986.57" y1="1163.79" x2="1011.88" y2="1181.60" stroke="#D32F2F" stroke-width="8.00" stroke-linecap="round"/>
<line x1="1037.17" y1="1200.37" x2="1007.38" y2="1203.02" stroke="#D32F2F" stroke-width="8.00" stroke-linecap="round"/>
<line x1="982.47" y1="1184.45" x2="1007.38" y2="1203.02" stroke="#D32F2F" stroke-width="8.00" stroke-linecap="round"/>
<line x1="1032.61" y1="1221.46" x2="1002.91" y2="1223.21" stroke="#D32F2F" stroke-width="8.00" stroke-linecap="round"/>
<line x1="978.16" y1="1204.37" x2="1002.91" y2="1223.21" stroke="#D32F2F" stroke-width="7.70" stroke-linecap="round"/>
<line x1="1028.34" y1="1241.08" x2="998.83" y2="1242.28" stroke="#D32F2F" stroke-width="8.00" stroke-linecap="round"/>
<line x1="973.97" y1="1223.61" x2="998.83" y2="1242.28" stroke="#D32F2F" stroke-width="7.45" stroke-linecap="round"/>
<line x1="1024.70" y1="1259.35" x2="995.50" y2="1260.32" stroke="#D32F2F" stroke-width="8.00" stroke-linecap="round"/>
<line x1="970.26" y1="1242.24" x2="995.50" y2="1260.32" stroke="#D32F2F" stroke-width="7.20" stroke-linecap="round"/>
<line x1="1022.01" y1="1276.39" x2="993.28" y2="1277.41" stroke="#D32F2F" stroke-width="8.00" stroke-linecap="round"/>
<line x1="967.43" y1="1260.27" x2="993.28" y2="1277.41" stroke="#D32F2F" stroke-width="6.91" stroke-linecap="round"/>
<line x1="1020.61" y1="1292.29" x2="992.53" y2="1293.60" stroke="#D32F2F" stroke-width="8.00" stroke-linecap="round"/>
<line x1="965.89" y1="1277.72" x2="992.53" y2="1293.60" stroke="#D32F2F" stroke-width="6.54" stroke-linecap="round"/>
<line x1="1020.80" y1="1307.11" x2="993.62" y2="1308.89" stroke="#D32F2F" stroke-width="8.00" stroke-linecap="round"/>
<line x1="966.11" y1="1294.54" x2="993.62" y2="1308.89" stroke="#D32F2F" stroke-width="6.07" stroke-linecap="round"/>
<line x1="1022.92" y1="1320.88" x2="996.96" y2="1323.22" stroke="#D32F2F" stroke-width="8.00" stroke-linecap="round"/>
<line x1="968.60" y1="1310.60" x2="996.96" y2="1323.22" stroke="#D32F2F" stroke-width="5.48" stroke-linecap="round"/>
<line x1="1027.31" y1="1333.53" x2="1002.93" y2="1336.44" stroke="#D32F2F" stroke-width="8.00" stroke-linecap="round"/>
<line x1="973.85" y1="1325.72" x2="1002.93" y2="1336.44" stroke="#D32F2F" stroke-width="4.77" stroke-linecap="round"/>
<line x1="1034.32" y1="1344.94" x2="1011.94" y2="1348.34" stroke="#D32F2F" stroke-width="8.00" stroke-linecap="round"/>
<line x1="982.37" y1="1339.59" x2="1011.94" y2="1348.34" stroke="#D32F2F" stroke-width="4.91" stroke-linecap="round"/>
<line x1="1044.27" y1="1354.88" x2="1024.33" y2="1358.55" stroke="#D32F2F" stroke-width="8.00" stroke-linecap="round"/>
<line x1="994.59" y1="1351.79" x2="1024.33" y2="1358.55" stroke="#D32F2F" stroke-width="5.41" stroke-linecap="round"/>
<line x1="1057.45" y1="1363.01" x2="1040.34" y2="1366.66" stroke="#D32F2F" stroke-width="8.00" stroke-linecap="round"/>
<line x1="1010.83" y1="1361.83" x2="1040.34" y2="1366.66" stroke="#D32F2F" stroke-width="6.06" stroke-linecap="round"/>
<line x1="1073.97" y1="1368.92" x2="1060.04" y2="1372.14" stroke="#D32F2F" stroke-width="8.00" stroke-linecap="round"/>
<line x1="1031.20" y1="1369.11" x2="1060.04" y2="1372.14" stroke="#D32F2F" stroke-width="6.80" stroke-linecap="round"/>
<line x1="1093.78" y1="1372.13" x2="1083.25" y2="1374.49" stroke="#D32F2F" stroke-width="8.00" stroke-linecap="round"/>
<line x1="1336.02" y1="1226.88" x2="1348.71" y2="1204.03" stroke="#D32F2F" stroke-width="8.00" stroke-linecap="round"/>
<line x1="1343.02" y1="1210.22" x2="1355.21" y2="1186.04" stroke="#D32F2F" stroke-width="7.92" stroke-linecap="round"/>
<line x1="1347.96" y1="1193.42" x2="1359.42" y2="1168.20" stroke="#D32F2F" stroke-width="7.68" stroke-linecap="round"/>
<line x1="1364.64" y1="1159.16" x2="1359.42" y2="1168.20" stroke="#D32F2F" stroke-width="8.00" stroke-linecap="round"/>
<line x1="1350.95" y1="1176.30" x2="1361.55" y2="1150.34" stroke="#D32F2F" stroke-width="7.59" stroke-linecap="round"/>
<line x1="1367.82" y1="1141.04" x2="1361.55" y2="1150.34" stroke="#D32F2F" stroke-width="8.00" stroke-linecap="round"/>
<circle cx="1084.59" cy="1084.59" r="290.0" fill="none" stroke="#ccc" stroke-width="0.5"/>
<line x1="573.86" y1="1214.59" x2="829.22" y2="1149.59" stroke="#A1A1AA" stroke-width="5" opacity="0.9"/>
<line x1="1097.92" y1="842.00" x2="1111.26" y2="599.41" stroke="#A1A1AA" stroke-width="5" opacity="0.9"/>
<line x1="1358.16" y1="1374.59" x2="1221.37" y2="1229.59" stroke="#A1A1AA" stroke-width="5" opacity="0.9"/>
<polygon points="1595.32,954.59 1577.91,967.27 1573.97,951.77" fill="#A1A1AA" opacity="0.9"/>
<polygon points="811.02,794.59 830.56,803.65 818.92,814.63" fill="#A1A1AA" opacity="0.9"/>
<polygon points="1111.26,599.41 1118.15,619.82 1102.17,618.94" fill="#A1A1AA" opacity="0.9"/>
<text x="1687.26" y="931.19" font-family="Palatino, 'Palatino Linotype', 'Book Antiqua', Georgia, serif" font-style="italic" font-size="52" fill="#A1A1AA" text-anchor="middle" dominant-baseline="middle" opacity="0.9">x</text>
<text x="761.78" y="742.39" font-family="Palatino, 'Palatino Linotype', 'Book Antiqua', Georgia, serif" font-style="italic" font-size="52" fill="#A1A1AA" text-anchor="middle" dominant-baseline="middle" opacity="0.9">y</text>
<text x="1116.06" y="512.08" font-family="Palatino, 'Palatino Linotype', 'Book Antiqua', Georgia, serif" font-style="italic" font-size="52" fill="#A1A1AA" text-anchor="middle" dominant-baseline="middle" opacity="0.9">z</text>
<polyline points="1133.50,1487.06 1134.95,1484.07 1135.96,1481.00 1136.52,1477.89 1136.63,1474.74 1136.29,1471.58 1135.49,1468.42 1134.25,1465.30 1132.57,1462.22 1130.47,1459.20 1127.95,1456.27 1125.03,1453.43 1121.73,1450.72 1118.07,1448.15 1114.07,1445.72 1109.76,1443.46 1105.17,1441.38 1100.31,1439.50 1095.23,1437.82 1089.94,1436.35 1084.50,1435.11 1078.92,1434.11 1073.25,1433.34 1067.51,1432.81 1061.75,1432.53 1056.00,1432.49 1050.29,1432.71 1044.66,1433.17 1039.15,1433.88 1033.79,1434.82 1028.60,1436.00 1023.64,1437.40 1018.91,1439.03 1014.46,1440.86 1010.31,1442.89 1006.49,1445.10 1003.01,1447.48 999.91,1450.02 997.20,1452.69 994.89,1455.50 993.01,1458.40 991.56,1461.40 990.55,1464.46 989.99,1467.58 989.88,1470.73 990.23,1473.89 991.02,1477.04 992.26,1480.17 993.94,1483.25 996.04,1486.27 998.56,1489.20 1001.48,1492.03 1004.78,1494.74 1008.44,1497.32 1012.44,1499.75 1016.75,1502.00 1021.35,1504.08 1026.20,1505.97 1031.29,1507.65 1036.57,1509.11 1042.01,1510.35" fill="none" stroke="#A1A1AA" stroke-width="2.2" stroke-linecap="round" stroke-linejoin="round" opacity="0.85"/>
<polygon points="1042.01,1510.35 1031.15,1513.01 1033.37,1503.26" fill="#A1A1AA" opacity="0.85"/>
<text x="1007.81" y="1413.96" font-family="Palatino, 'Palatino Linotype', 'Book Antiqua', Georgia, serif" font-style="italic" font-size="28" fill="#A1A1AA" text-anchor="middle" dominant-baseline="middle" opacity="0.85">yaw</text>
<polyline points="698.12,1258.02 700.16,1256.44 702.05,1254.43 703.78,1252.02 705.34,1249.22 706.72,1246.05 707.91,1242.52 708.91,1238.66 709.70,1234.49 710.28,1230.03 710.65,1225.33 710.81,1220.39 710.76,1215.26 710.49,1209.96 710.00,1204.54 709.31,1199.01 708.41,1193.42 707.31,1187.80 706.02,1182.19 704.55,1176.61 702.89,1171.11 701.08,1165.72 699.10,1160.46 696.99,1155.39 694.74,1150.51 692.38,1145.87 689.92,1141.50 687.38,1137.41 684.76,1133.64 682.09,1130.21 679.38,1127.14 676.65,1124.44 673.92,1122.15 671.20,1120.26 668.51,1118.79 665.86,1117.76 663.28,1117.16 660.78,1117.00 658.37,1117.28 656.07,1118.00 653.89,1119.16 651.85,1120.75 649.95,1122.75 648.22,1125.16 646.66,1127.96 645.28,1131.14 644.09,1134.67 643.10,1138.53 642.31,1142.70 641.72,1147.15 641.35,1151.86 641.19,1156.79 641.25,1161.92 641.52,1167.22 642.00,1172.65 642.70,1178.17 643.59,1183.76 644.69,1189.38 645.98,1195.00 647.46,1200.57 649.11,1206.07" fill="none" stroke="#A1A1AA" stroke-width="2.2" stroke-linecap="round" stroke-linejoin="round" opacity="0.85"/>
<polygon points="649.11,1206.07 641.45,1197.93 651.02,1195.06" fill="#A1A1AA" opacity="0.85"/>
<text x="681.41" y="1090.26" font-family="Palatino, 'Palatino Linotype', 'Book Antiqua', Georgia, serif" font-style="italic" font-size="28" fill="#A1A1AA" text-anchor="middle" dominant-baseline="middle" opacity="0.85">pitch</text>
<polyline points="1346.80,1348.40 1350.44,1343.98 1353.80,1339.39 1356.84,1334.66 1359.55,1329.82 1361.92,1324.89 1363.93,1319.92 1365.56,1314.92 1366.81,1309.94 1367.67,1304.99 1368.14,1300.12 1368.20,1295.35 1367.87,1290.71 1367.14,1286.23 1366.02,1281.94 1364.51,1277.86 1362.62,1274.02 1360.37,1270.44 1357.77,1267.14 1354.83,1264.16 1351.58,1261.49 1348.03,1259.16 1344.20,1257.19 1340.13,1255.59 1335.82,1254.36 1331.32,1253.51 1326.65,1253.05 1321.83,1252.99 1316.90,1253.31 1311.89,1254.03 1306.82,1255.13 1301.74,1256.61 1296.66,1258.47 1291.63,1260.68 1286.67,1263.23 1281.81,1266.11 1277.08,1269.31 1272.52,1272.79 1268.15,1276.55 1264.00,1280.55 1260.09,1284.78 1256.45,1289.20 1253.09,1293.79 1250.05,1298.52 1247.34,1303.36 1244.97,1308.28 1242.96,1313.26 1241.33,1318.25 1240.08,1323.24 1239.22,1328.18 1238.75,1333.06 1238.69,1337.83 1239.02,1342.47 1239.75,1346.95 1240.87,1351.24 1242.38,1355.32 1244.27,1359.16 1246.52,1362.74 1249.12,1366.03 1252.06,1369.02 1255.31,1371.69" fill="none" stroke="#A1A1AA" stroke-width="2.2" stroke-linecap="round" stroke-linejoin="round" opacity="0.85"/>
<polygon points="1255.31,1371.69 1244.41,1369.22 1250.75,1361.48" fill="#A1A1AA" opacity="0.85"/>
<text x="1308.85" y="1218.26" font-family="Palatino, 'Palatino Linotype', 'Book Antiqua', Georgia, serif" font-style="italic" font-size="28" fill="#A1A1AA" text-anchor="middle" dominant-baseline="middle" opacity="0.85">roll</text>
</svg>