<svg width="2169" height="2169" viewBox="0 0 2169.1789 2169.1789" xmlns="http://www.w3.org/2000/svg">
<line x1="582.29" y1="1084.59" x2="833.44" y2="1084.59" stroke="#A1A1AA" stroke-width="5" opacity="0.9"/>
<line x1="1374.59" y1="1084.59" x2="1229.59" y2="1084.59" stroke="#A1A1AA" stroke-width="5" opacity="0.9"/>
<circle cx="1084.59" cy="1084.59" r="290.0" fill="#FDFDF5"/>
<line x1="1271.63" y1="864.42" x2="1248.82" y2="846.04" stroke="#D32F2F" stroke-width="6.74" stroke-linecap="round"/>
<line x1="1217.93" y1="827.49" x2="1231.35" y2="837.84" stroke="#D32F2F" stroke-width="8.00" stroke-linecap="round"/>
<line x1="1255.93" y1="855.59" x2="1231.35" y2="837.84" stroke="#D32F2F" stroke-width="5.97" stroke-linecap="round"/>
<line x1="1198.88" y1="821.89" x2="1214.19" y2="834.50" stroke="#D32F2F" stroke-width="8.00" stroke-linecap="round"/>
<line x1="1240.32" y1="851.00" x2="1214.19" y2="834.50" stroke="#D32F2F" stroke-width="5.26" stroke-linecap="round"/>
<line x1="1180.71" y1="821.89" x2="1197.99" y2="836.31" stroke="#D32F2F" stroke-width="8.00" stroke-linecap="round"/>
<line x1="1225.41" y1="851.00" x2="1197.99" y2="836.31" stroke="#D32F2F" stroke-width="4.68" stroke-linecap="round"/>
<line x1="1164.12" y1="827.49" x2="1183.40" y2="843.18" stroke="#D32F2F" stroke-width="8.00" stroke-linecap="round"/>
<line x1="1211.81" y1="855.59" x2="1183.40" y2="843.18" stroke="#D32F2F" stroke-width="5.31" stroke-linecap="round"/>
<line x1="1149.70" y1="838.30" x2="1170.95" y2="854.67" stroke="#D32F2F" stroke-width="8.00" stroke-linecap="round"/>
<line x1="1200.03" y1="864.42" x2="1170.95" y2="854.67" stroke="#D32F2F" stroke-width="6.31" stroke-linecap="round"/>
<line x1="1137.86" y1="853.58" x2="1160.97" y2="870.04" stroke="#D32F2F" stroke-width="8.00" stroke-linecap="round"/>
<line x1="1190.39" y1="876.86" x2="1160.97" y2="870.04" stroke="#D32F2F" stroke-width="7.21" stroke-linecap="round"/>
<line x1="1128.79" y1="872.45" x2="1153.57" y2="888.45" stroke="#D32F2F" stroke-width="8.00" stroke-linecap="round"/>
<line x1="1183.03" y1="892.17" x2="1153.57" y2="888.45" stroke="#D32F2F" stroke-width="7.99" stroke-linecap="round"/>
<line x1="1122.47" y1="893.98" x2="1148.68" y2="909.08" stroke="#D32F2F" stroke-width="8.00" stroke-linecap="round"/>
<line x1="1177.90" y1="909.63" x2="1148.68" y2="909.08" stroke="#D32F2F" stroke-width="8.00" stroke-linecap="round"/>
<line x1="1118.70" y1="917.29" x2="1146.06" y2="931.19" stroke="#D32F2F" stroke-width="8.00" stroke-linecap="round"/>
<line x1="1174.83" y1="928.62" x2="1146.06" y2="931.19" stroke="#D32F2F" stroke-width="8.00" stroke-linecap="round"/>
<line x1="1117.16" y1="941.68" x2="1145.40" y2="954.22" stroke="#D32F2F" stroke-width="8.00" stroke-linecap="round"/>
<line x1="1173.56" y1="948.68" x2="1145.40" y2="954.22" stroke="#D32F2F" stroke-width="8.00" stroke-linecap="round"/>
<line x1="1117.45" y1="966.56" x2="1146.33" y2="977.74" stroke="#D32F2F" stroke-width="8.00" stroke-linecap="round"/>
<line x1="1173.81" y1="969.50" x2="1146.33" y2="977.74" stroke="#D32F2F" stroke-width="8.00" stroke-linecap="round"/>
<line x1="1119.15" y1="991.54" x2="1148.44" y2="1001.47" stroke="#D32F2F" stroke-width="8.00" stroke-linecap="round"/>
<line x1="1175.27" y1="990.89" x2="1148.44" y2="1001.47" stroke="#D32F2F" stroke-width="8.00" stroke-linecap="round"/>
<line x1="1121.83" y1="1016.33" x2="1151.35" y2="1025.24" stroke="#D32F2F" stroke-width="8.00" stroke-linecap="round"/>
<line x1="1177.63" y1="1012.74" x2="1151.35" y2="1025.24" stroke="#D32F2F" stroke-width="8.00" stroke-linecap="round"/>
<line x1="1125.06" y1="1040.77" x2="1154.67" y2="1048.95" stroke="#D32F2F" stroke-width="8.00" stroke-linecap="round"/>
<line x1="1180.57" y1="1035.01" x2="1154.67" y2="1048.95" stroke="#D32F2F" stroke-width="8.00" stroke-linecap="round"/>
<line x1="1128.45" y1="1064.79" x2="1158.02" y2="1072.57" stroke="#D32F2F" stroke-width="8.00" stroke-linecap="round"/>
<line x1="1183.78" y1="1057.70" x2="1158.02" y2="1072.57" stroke="#D32F2F" stroke-width="8.00" stroke-linecap="round"/>
<line x1="1131.64" y1="1088.36" x2="1161.05" y2="1096.08" stroke="#D32F2F" stroke-width="8.00" stroke-linecap="round"/>
<line x1="1186.91" y1="1080.82" x2="1161.05" y2="1096.08" stroke="#D32F2F" stroke-width="8.00" stroke-linecap="round"/>
<line x1="1134.28" y1="1111.48" x2="1163.38" y2="1119.50" stroke="#D32F2F" stroke-width="8.00" stroke-linecap="round"/>
<line x1="1189.59" y1="1104.39" x2="1163.38" y2="1119.50" stroke="#D32F2F" stroke-width="8.00" stroke-linecap="round"/>
<line x1="1136.03" y1="1134.17" x2="1164.67" y2="1142.84" stroke="#D32F2F" stroke-width="8.00" stroke-linecap="round"/>
<line x1="1191.44" y1="1128.41" x2="1164.67" y2="1142.84" stroke="#D32F2F" stroke-width="8.00" stroke-linecap="round"/>
<line x1="1136.57" y1="1156.44" x2="1164.55" y2="1166.09" stroke="#D32F2F" stroke-width="8.00" stroke-linecap="round"/>
<line x1="1192.03" y1="1152.85" x2="1164.55" y2="1166.09" stroke="#D32F2F" stroke-width="8.00" stroke-linecap="round"/>
<line x1="1135.57" y1="1178.29" x2="1162.63" y2="1189.19" stroke="#D32F2F" stroke-width="8.00" stroke-linecap="round"/>
<line x1="1190.90" y1="1177.64" x2="1162.63" y2="1189.19" stroke="#D32F2F" stroke-width="8.00" stroke-linecap="round"/>
<line x1="1132.71" y1="1199.68" x2="1158.53" y2="1212.03" stroke="#D32F2F" stroke-width="8.00" stroke-linecap="round"/>
<line x1="1187.55" y1="1202.62" x2="1158.53" y2="1212.03" stroke="#D32F2F" stroke-width="8.00" stroke-linecap="round"/>
<line x1="1127.65" y1="1220.50" x2="1151.86" y2="1234.42" stroke="#D32F2F" stroke-width="8.00" stroke-linecap="round"/>
<line x1="1181.50" y1="1227.50" x2="1151.86" y2="1234.42" stroke="#D32F2F" stroke-width="7.74" stroke-linecap="round"/>
<line x1="1120.05" y1="1240.56" x2="1142.24" y2="1256.02" stroke="#D32F2F" stroke-width="8.00" stroke-linecap="round"/>
<line x1="1172.26" y1="1251.89" x2="1142.24" y2="1256.02" stroke="#D32F2F" stroke-width="7.45" stroke-linecap="round"/>
<line x1="1109.59" y1="1259.55" x2="1129.33" y2="1276.37" stroke="#D32F2F" stroke-width="8.00" stroke-linecap="round"/>
<line x1="1159.41" y1="1275.20" x2="1129.33" y2="1276.37" stroke="#D32F2F" stroke-width="7.26" stroke-linecap="round"/>
<line x1="1096.01" y1="1277.01" x2="1112.93" y2="1294.85" stroke="#D32F2F" stroke-width="8.00" stroke-linecap="round"/>
<line x1="1142.67" y1="1296.73" x2="1112.93" y2="1294.85" stroke="#D32F2F" stroke-width="7.20" stroke-linecap="round"/>
<line x1="1079.21" y1="1292.32" x2="1092.98" y2="1310.72" stroke="#D32F2F" stroke-width="8.00" stroke-linecap="round"/>
<line x1="1121.97" y1="1315.60" x2="1092.98" y2="1310.72" stroke="#D32F2F" stroke-width="7.27" stroke-linecap="round"/>
<line x1="1059.28" y1="1304.76" x2="1069.72" y2="1323.14" stroke="#D32F2F" stroke-width="8.00" stroke-linecap="round"/>
<line x1="1097.48" y1="1330.88" x2="1069.72" y2="1323.14" stroke="#D32F2F" stroke-width="7.46" stroke-linecap="round"/>
<line x1="1036.61" y1="1313.59" x2="1043.65" y2="1331.34" stroke="#D32F2F" stroke-width="8.00" stroke-linecap="round"/>
<line x1="1069.74" y1="1341.69" x2="1043.65" y2="1331.34" stroke="#D32F2F" stroke-width="7.76" stroke-linecap="round"/>
<line x1="1011.90" y1="1318.18" x2="1015.60" y2="1334.68" stroke="#D32F2F" stroke-width="8.00" stroke-linecap="round"/>
<line x1="1039.59" y1="1347.29" x2="1015.60" y2="1334.68" stroke="#D32F2F" stroke-width="8.00" stroke-linecap="round"/>
<line x1="986.07" y1="1318.18" x2="986.62" y2="1332.87" stroke="#D32F2F" stroke-width="8.00" stroke-linecap="round"/>
<line x1="1008.11" y1="1347.29" x2="986.62" y2="1332.87" stroke="#D32F2F" stroke-width="8.00" stroke-linecap="round"/>
<line x1="960.19" y1="1313.59" x2="957.87" y2="1326.00" stroke="#D32F2F" stroke-width="8.00" stroke-linecap="round"/>
<line x1="976.53" y1="1341.69" x2="957.87" y2="1326.00" stroke="#D32F2F" stroke-width="8.00" stroke-linecap="round"/>
<line x1="935.26" y1="1304.76" x2="930.39" y2="1314.51" stroke="#D32F2F" stroke-width="8.00" stroke-linecap="round"/>
<line x1="946.02" y1="1330.88" x2="930.39" y2="1314.51" stroke="#D32F2F" stroke-width="8.00" stroke-linecap="round"/>
<line x1="912.10" y1="1292.32" x2="905.05" y2="1299.14" stroke="#D32F2F" stroke-width="8.00" stroke-linecap="round"/>
<line x1="917.57" y1="1315.60" x2="905.05" y2="1299.14" stroke="#D32F2F" stroke-width="8.00" stroke-linecap="round"/>
<line x1="891.24" y1="1277.01" x2="882.42" y2="1280.73" stroke="#D32F2F" stroke-width="8.00" stroke-linecap="round"/>
<line x1="891.86" y1="1296.73" x2="882.42" y2="1280.73" stroke="#D32F2F" stroke-width="8.00" stroke-linecap="round"/>
<line x1="872.97" y1="1259.55" x2="862.80" y2="1260.10" stroke="#D32F2F" stroke-width="8.00" stroke-linecap="round"/>
<line x1="869.34" y1="1275.20" x2="862.80" y2="1260.10" stroke="#D32F2F" stroke-width="8.00" stroke-linecap="round"/>
<line x1="857.37" y1="1240.56" x2="846.28" y2="1237.99" stroke="#D32F2F" stroke-width="8.00" stroke-linecap="round"/>
<line x1="850.18" y1="1251.89" x2="846.28" y2="1237.99" stroke="#D32F2F" stroke-width="8.00" stroke-linecap="round"/>
<line x1="844.36" y1="1220.50" x2="832.79" y2="1214.96" stroke="#D32F2F" stroke-width="8.00" stroke-linecap="round"/>
<line x1="834.36" y1="1227.50" x2="832.79" y2="1214.96" stroke="#D32F2F" stroke-width="8.00" stroke-linecap="round"/>
<line x1="833.80" y1="1199.68" x2="822.16" y2="1191.44" stroke="#D32F2F" stroke-width="8.00" stroke-linecap="round"/>
<line x1="821.74" y1="1202.62" x2="822.16" y2="1191.44" stroke="#D32F2F" stroke-width="8.00" stroke-linecap="round"/>
<line x1="825.56" y1="1178.29" x2="814.19" y2="1167.71" stroke="#D32F2F" stroke-width="8.00" stroke-linecap="round"/>
<line x1="812.11" y1="1177.64" x2="814.19" y2="1167.71" stroke="#D32F2F" stroke-width="8.00" stroke-linecap="round"/>
<line x1="819.48" y1="1156.44" x2="808.69" y2="1143.94" stroke="#D32F2F" stroke-width="8.00" stroke-linecap="round"/>
<line x1="805.21" y1="1152.85" x2="808.69" y2="1143.94" stroke="#D32F2F" stroke-width="8.00" stroke-linecap="round"/>
<line x1="815.46" y1="1134.17" x2="805.45" y2="1120.23" stroke="#D32F2F" stroke-width="8.00" stroke-linecap="round"/>
<line x1="800.79" y1="1128.41" x2="805.45" y2="1120.23" stroke="#D32F2F" stroke-width="8.00" stroke-linecap="round"/>
<line x1="813.41" y1="1111.48" x2="804.30" y2="1096.61" stroke="#D32F2F" stroke-width="8.00" stroke-linecap="round"/>
<line x1="798.61" y1="1104.39" x2="804.30" y2="1096.61" stroke="#D32F2F" stroke-width="8.00" stroke-linecap="round"/>
<line x1="813.27" y1="1088.36" x2="805.09" y2="1073.10" stroke="#D32F2F" stroke-width="8.00" stroke-linecap="round"/>
<line x1="798.46" y1="1080.82" x2="805.09" y2="1073.10" stroke="#D32F2F" stroke-width="8.00" stroke-linecap="round"/>
<line x1="814.99" y1="1064.79" x2="807.69" y2="1049.68" stroke="#D32F2F" stroke-width="8.00" stroke-linecap="round"/>
<line x1="800.15" y1="1057.70" x2="807.69" y2="1049.68" stroke="#D32F2F" stroke-width="8.00" stroke-linecap="round"/>
<line x1="818.58" y1="1040.77" x2="812.02" y2="1026.34" stroke="#D32F2F" stroke-width="8.00" stroke-linecap="round"/>
<line x1="803.53" y1="1035.01" x2="812.02" y2="1026.34" stroke="#D32F2F" stroke-width="8.00" stroke-linecap="round"/>
<line x1="824.02" y1="1016.33" x2="818.01" y2="1003.09" stroke="#D32F2F" stroke-width="8.00" stroke-linecap="round"/>
<line x1="808.48" y1="1012.74" x2="818.01" y2="1003.09" stroke="#D32F2F" stroke-width="8.00" stroke-linecap="round"/>
<line x1="831.33" y1="991.54" x2="825.61" y2="979.99" stroke="#D32F2F" stroke-width="8.00" stroke-linecap="round"/>
<line x1="814.92" y1="990.89" x2="825.61" y2="979.99" stroke="#D32F2F" stroke-width="8.00" stroke-linecap="round"/>
<line x1="840.52" y1="966.56" x2="834.81" y2="957.15" stroke="#D32F2F" stroke-width="8.00" stroke-linecap="round"/>
<line x1="822.79" y1="969.50" x2="834.81" y2="957.15" stroke="#D32F2F" stroke-width="8.00" stroke-linecap="round"/>
<line x1="851.60" y1="941.68" x2="845.58" y2="934.76" stroke="#D32F2F" stroke-width="8.00" stroke-linecap="round"/>
<line x1="832.05" y1="948.68" x2="845.58" y2="934.76" stroke="#D32F2F" stroke-width="8.00" stroke-linecap="round"/>
<line x1="864.53" y1="917.29" x2="857.90" y2="913.16" stroke="#D32F2F" stroke-width="8.00" stroke-linecap="round"/>
<line x1="842.69" y1="928.62" x2="857.90" y2="913.16" stroke="#D32F2F" stroke-width="8.00" stroke-linecap="round"/>
<line x1="879.24" y1="893.98" x2="871.70" y2="892.81" stroke="#D32F2F" stroke-width="8.00" stroke-linecap="round"/>
<line x1="854.67" y1="909.63" x2="871.70" y2="892.81" stroke="#D32F2F" stroke-width="8.00" stroke-linecap="round"/>
<line x1="895.58" y1="872.45" x2="886.88" y2="874.33" stroke="#D32F2F" stroke-width="8.00" stroke-linecap="round"/>
<line x1="867.92" y1="892.17" x2="886.88" y2="874.33" stroke="#D32F2F" stroke-width="8.00" stroke-linecap="round"/>
<line x1="913.31" y1="853.58" x2="903.22" y2="858.46" stroke="#D32F2F" stroke-width="8.00" stroke-linecap="round"/>
<line x1="1271.63" y1="864.42" x2="1248.82" y2="846.04" stroke="#D32F2F" stroke-width="6.74" stroke-linecap="round"/>
<line x1="1217.93" y1="827.49" x2="1231.35" y2="837.84" stroke="#D32F2F" stroke-width="8.00" stroke-linecap="round"/>
<line x1="1255.93" y1="855.59" x2="1231.35" y2="837.84" stroke="#D32F2F" stroke-width="5.97" stroke-linecap="round"/>
<line x1="1198.88" y1="821.89" x2="1214.19" y2="834.50" stroke="#D32F2F" stroke-width="8.00" stroke-linecap="round"/>
<line x1="1240.32" y1="851.00" x2="1214.19" y2="834.50" stroke="#D32F2F" stroke-width="5.26" stroke-linecap="round"/>
<line x1="1180.71" y1="821.89" x2="1197.99" y2="836.31" stroke="#D32F2F" stroke-width="8.00" stroke-linecap="round"/>
<line x1="1225.41" y1="851.00" x2="1197.99" y2="836.31" stroke="#D32F2F" stroke-width="4.68" stroke-linecap="round"/>
<line x1="1164.12" y1="827.49" x2="1183.40" y2="843.18" stroke="#D32F2F" stroke-width="8.00" stroke-linecap="round"/>
<line x1="1211.81" y1="855.59" x2="1183.40" y2="843.18" stroke="#D32F2F" stroke-width="5.31" stroke-linecap="round"/>
<line x1="1149.70" y1="838.30" x2="1170.95" y2="854.67" stroke="#D32F2F" stroke-width="8.00" stroke-linecap="round"/>
<line x1="1200.03" y1="864.42" x2="1170.95" y2="854.67" stroke="#D32F2F" stroke-width="6.31" stroke-linecap="round"/>
<line x1="1137.86" y1="853.58" x2="1160.97" y2="870.04" stroke="#D32F2F" stroke-width="8.00" stroke-linecap="round"/>
<line x1="1190.39" y1="876.86" x2="1160.97" y2="870.04" stroke="#D32F2F" stroke-width="7.21" stroke-linecap="round"/>
<line x1="1128.79" y1="872.45" x2="1153.57" y2="888.45" stroke="#D32F2F" stroke-width="8.00" stroke-linecap="round"/>
<line x1="1183.03" y1="892.17" x2="1153.57" y2="888.45" stroke="#D32F2F" stroke-width="7.99" stroke-linecap="round"/>
<line x1="1122.47" y1="893.98" x2="1148.68" y2="909.08" stroke="#D32F2F" stroke-width="8.00" stroke-linecap="round"/>
<line x1="1177.90" y1="909.63" x2="1148.68" y2="909.08" stroke="#D32F2F" stroke-width="8.00" stroke-linecap="round"/>
<line x1="1118.70" y1="917.29" x2="1146.06" y2="931.19" stroke="#D32F2F" stroke-width="8.00" stroke-linecap="round"/>
<line x1="1174.83" y1="928.62" x2="1146.06" y2="931.19" stroke="#D32F2F" stroke-width="8.00" stroke-linecap="round"/>
<line x1="1117.16" y1="941.68" x2="1145.40" y2="954.22" stroke="#D32F2F" stroke-width="8.00" stroke-linecap="round"/>
<line x1="1173.56" y1="948.68" x2="1145.40" y2="954.22" stroke="#D32F2F" stroke-width="8.00" stroke-linecap="round"/>
<line x1="1117.45" y1="966.56" x2="1146.33" y2="977.74" stroke="#D32F2F" stroke-width="8.00" stroke-linecap="round"/>
<line x1="1173.81" y1="969.50" x2="1146.33" y2="977.74" stroke="#D32F2F" stroke-width="8.00" stroke-linecap="round"/>
<line x1="1119.15" y1="991.54" x2="1148.44" y2="1001.47" stroke="#D32F2F" stroke-width="8.00" stroke-linecap="round"/>
<line x1="1175.27" y1="990.89" x2="1148.44" y2="1001.47" stroke="#D32F2F" stroke-width="8.00" stroke-linecap="round"/>
<line x1="1121.83" y1="1016.33" x2="1151.35" y2="1025.24" stroke="#D32F2F" stroke-width="8.00" stroke-linecap="round"/>
<line x1="1177.63" y1="1012.74" x2="1151.35" y2="1025.24" stroke="#D32F2F" stroke-width="8.00" stroke-linecap="round"/>
<line x1="1125.06" y1="1040.77" x2="1154.67" y2="1048.95" stroke="#D32F2F" stroke-width="8.00" stroke-linecap="round"/>
<line x1="1180.57" y1="1035.01" x2="1154.67" y2="1048.95" stroke="#D32F2F" stroke-width="8.00" stroke-linecap="round"/>
<line x1="1128.45" y1="1064.79" x2="1158.02" y2="1072.57" stroke="#D32F2F" stroke-width="8.00" stroke-linecap="round"/>
<line x1="1183.78" y1="1057.70" x2="1158.02" y2="1072.57" stroke="#D32F2F" stroke-width="8.00" stroke-linecap="round"/>
<line x1="1131.64" y1="1088.36" x2="1161.05" y2="1096.08" stroke="#D32F2F" stroke-width="8.00" stroke-linecap="round"/>
<line x1="1186.91" y1="1080.82" x2="1161.05" y2="1096.08" stroke="#D32F2F" stroke-width="8.00" stroke-linecap="round"/>
<line x1="1134.28" y1="1111.48" x2="1163.38" y2="1119.50" stroke="#D32F2F" stroke-width="8.00" stroke-linecap="round"/>
<line x1="1189.59" y1="1104.39" x2="1163.38" y2="1119.50" stroke="#D32F2F" stroke-width="8.00" stroke-linecap="round"/>
<line x1="1136.03" y1="1134.17" x2="1164.67" y2="1142.84" stroke="#D32F2F" stroke-width="8.00" stroke-linecap="round"/>
<line x1="1191.44" y1="1128.41" x2="1164.67" y2="1142.84" stroke="#D32F2F" stroke-width="8.00" stroke-linecap="round"/>
<line x1="1136.57" y1="1156.44" x2="1164.55" y2="1166.09" stroke="#D32F2F" stroke-width="8.00" stroke-linecap="round"/>
<line x1="1192.03" y1="1152.85" x2="1164.55" y2="1166.09" stroke="#D32F2F" stroke-width="8.00" stroke-linecap="round"/>
<line x1="1135.57" y1="1178.29" x2="1162.63" y2="1189.19" stroke="#D32F2F" stroke-width="8.00" stroke-linecap="round"/>
<line x1="1190.90" y1="1177.64" x2="1162.63" y2="1189.19" stroke="#D32F2F" stroke-width="8.00" stroke-linecap="round"/>
<line x1="1132.71" y1="1199.68" x2="1158.53" y2="1212.03" stroke="#D32F2F" stroke-width="8.00" stroke-linecap="round"/>
<line x1="1187.55" y1="1202.62" x2="1158.53" y2="1212.03" stroke="#D32F2F" stroke-width="8.00" stroke-linecap="round"/>
<line x1="1127.65" y1="1220.50" x2="1151.86" y2="1234.42" stroke="#D32F2F" stroke-width="8.00" stroke-linecap="round"/>
<line x1="1181.50" y1="1227.50" x2="1151.86" y2="1234.42" stroke="#D32F2F" stroke-width="7.74" stroke-linecap="round"/>
<line x1="1120.05" y1="1240.56" x2="1142.24" y2="1256.02" stroke="#D32F2F" stroke-width="8.00" stroke-linecap="round"/>
<line x1="1172.26" y1="1251.89" x2="1142.24" y2="1256.02" stroke="#D32F2F" stroke-width="7.45" stroke-linecap="round"/>
<line x1="1109.59" y1="1259.55" x2="1129.33" y2="1276.37" stroke="#D32F2F" stroke-width="8.00" stroke-linecap="round"/>
<line x1="1159.41" y1="1275.20" x2="1129.33" y2="1276.37" stroke="#D32F2F" stroke-width="7.26" stroke-linecap="round"/>
<line x1="1096.01" y1="1277.01" x2="1112.93" y2="1294.85" stroke="#D32F2F" stroke-width="8.00" stroke-linecap="round"/>
<line x1="1142.67" y1="1296.73" x2="1112.93" y2="1294.85" stroke="#D32F2F" stroke-width="7.20" stroke-linecap="round"/>
<line x1="1079.21" y1="1292.32" x2="1092.98" y2="1310.72" stroke="#D32F2F" stroke-width="8.00" stroke-linecap="round"/>
<line x1="1121.97" y1="1315.60" x2="1092.98" y2="1310.72" stroke="#D32F2F" stroke-width="7.27" stroke-linecap="round"/>
<line x1="1059.28" y1="1304.76" x2="1069.72" y2="1323.14" stroke="#D32F2F" stroke-width="8.00" stroke-linecap="round"/>
<line x1="1097.48" y1="1330.88" x2="1069.72" y2="1323.14" stroke="#D32F2F" stroke-width="7.46" stroke-linecap="round"/>
<line x1="1036.61" y1="1313.59" x2="1043.65" y2="1331.34" stroke="#D32F2F" stroke-width="8.00" stroke-linecap="round"/>
<line x1="1069.74" y1="1341.69" x2="1043.65" y2="1331.34" stroke="#D32F2F" stroke-width="7.76" stroke-linecap="round"/>
<line x1="1011.90" y1="1318.18" x2="1015.60" y2="1334.68" stroke="#D32F2F" stroke-width="8.00" stroke-linecap="round"/>
<line x1="1039.59" y1="1347.29" x2="1015.60" y2="1334.68" stroke="#D32F2F" stroke-width="8.00" stroke-linecap="round"/>
<line x1="986.07" y1="1318.18" x2="986.62" y2="1332.87" stroke="#D32F2F" stroke-width="8.00" stroke-linecap="round"/>
<line x1="1008.11" y1="1347.29" x2="986.62" y2="1332.87" stroke="#D32F2F" stroke-width="8.00" stroke-linecap="round"/>
<line x1="960.19" y1="1313.59" x2="957.87" y2="1326.00" stroke="#D32F2F" stroke-width="8.00" stroke-linecap="round"/>
<line x1="976.53" y1="1341.69" x2="957.87" y2="1326.00" stroke="#D32F2F" stroke-width="8.00" stroke-linecap="round"/>
<line x1="935.26" y1="1304.76" x2="930.39" y2="1314.51" stroke="#D32F2F" stroke-width="8.00" stroke-linecap="round"/>
<line x1="946.02" y1="1330.88" x2="930.39" y2="1314.51" stroke="#D32F2F" stroke-width="8.00" stroke-linecap="round"/>
<line x1="912.10" y1="1292.32" x2="905.05" y2="1299.14" stroke="#D32F2F" stroke-width="8.00" stroke-linecap="round"/>
<line x1="917.57" y1="1315.60" x2="905.05" y2="1299.14" stroke="#D32F2F" stroke-width="8.00" stroke-linecap="round"/>
<line x1="891.24" y1="1277.01" x2="882.42" y2="1280.73" stroke="#D32F2F" stroke-width="8.00" stroke-linecap="round"/>
<line x1="891.86" y1="1296.73" x2="882.42" y2="1280.73" stroke="#D32F2F" stroke-width="8.00" stroke-linecap="round"/>
<line x1="872.97" y1="1259.55" x2="862.80" y2="1260.10" stroke="#D32F2F" stroke-width="8.00" stroke-linecap="round"/>
<line x1="869.34" y1="1275.20" x2="862.80" y2="1260.10" stroke="#D32F2F" stroke-width="8.00" stroke-linecap="round"/>
<line x1="857.37" y1="1240.56" x2="846.28" y2="1237.99" stroke="#D32F2F" stroke-width="8.00" stroke-linecap="round"/>
<line x1="850.18" y1="1251.89" x2="846.28" y2="1237.99" stroke="#D32F2F" stroke-width="8.00" stroke-linecap="round"/>
<line x1="844.36" y1="1220.50" x2="832.79" y2="1214.96" stroke="#D32F2F" stroke-width="8.00" stroke-linecap="round"/>
<line x1="834.36" y1="1227.50" x2="832.79" y2="1214.96" stroke="#D32F2F" stroke-width="8.00" stroke-linecap="round"/>
<line x1="833.80" y1="1199.68" x2="822.16" y2="1191.44" stroke="#D32F2F" stroke-width="8.00" stroke-linecap="round"/>
<line x1="821.74" y1="1202.62" x2="822.16" y2="1191.44" stroke="#D32F2F" stroke-width="8.00" stroke-linecap="round"/>
<line x1="825.56" y1="1178.29" x2="814.19" y2="1167.71" stroke="#D32F2F" stroke-width="8.00" stroke-linecap="round"/>
<line x1="812.11" y1="1177.64" x2="814.19" y2="1167.71" stroke="#D32F2F" stroke-width="8.00" stroke-linecap="round"/>
<line x1="819.48" y1="1156.44" x2="808.69" y2="1143.94" stroke="#D32F2F" stroke-width="8.00" stroke-linecap="round"/>
<line x1="805.21" y1="1152.85" x2="808.69" y2="1143.94" stroke="#D32F2F" stroke-width="8.00" stroke-linecap="round"/>
<line x1="815.46" y1="1134.17" x2="805.45" y2="1120.23" stroke="#D32F2F" stroke-width="8.00" stroke-linecap="round"/>
<line x1="800.79" y1="1128.41" x2="805.45" y2="1120.23" stroke="#D32F2F" stroke-width="8.00" stroke-linecap="round"/>
<line x1="813.41" y1="1111.48" x2="804.30" y2="1096.61" stroke="#D32F2F" stroke-width="8.00" stroke-linecap="round"/>
<line x1="798.61" y1="1104.39" x2="804.30" y2="1096.61" stroke="#D32F2F" stroke-width="8.00" stroke-linecap="round"/>
<line x1="813.27" y1="1088.36" x2="805.09" y2="1073.10" stroke="#D32F2F" stroke-width="8.00" stroke-linecap="round"/>
<line x1="798.46" y1="1080.82" x2="805.09" y2="1073.10" stroke="#D32F2F" stroke-width="8.00" stroke-linecap="round"/>
<line x1="814.99" y1="1064.79" x2="807.69" y2="1049.68" stroke="#D32F2F" stroke-width="8.00" stroke-linecap="round"/>
<line x1="800.15" y1="1057.70" x2="807.69" y2="1049.68" stroke="#D32F2F" stroke-width="8.00" stroke-linecap="round"/>
<line x1="818.58" y1="1040.77" x2="812.02" y2="1026.34" stroke="#D32F2F" stroke-width="8.00" stroke-linecap="round"/>
<line x1="803.53" y1="1035.01" x2="812.02" y2="1026.34" stroke="#D32F2F" stroke-width="8.00" stroke-linecap="round"/>
<line x1="824.02" y1="1016.33" x2="818.01" y2="1003.09" stroke="#D32F2F" stroke-width="8.00" stroke-linecap="round"/>
<line x1="808.48" y1="1012.74" x2="818.01" y2="1003.09" stroke="#D32F2F" stroke-width="8.00" stroke-linecap="round"/>
<line x1="831.33" y1="991.54" x2="825.61" y2="979.99" stroke="#D32F2F" stroke-width="8.00" stroke-linecap="round"/>
<line x1="814.92" y1="990.89" x2="825.61" y2="979.99" stroke="#D32F2F" stroke-width="8.00" stroke-linecap="round"/>
<line x1="840.52" y1="966.56" x2="834.81" y2="957.15" stroke="#D32F2F" stroke-width="8.00" stroke-linecap="round"/>
<line x1="822.79" y1="969.50" x2="834.81" y2="957.15" stroke="#D32F2F" stroke-width="8.00" stroke-linecap="round"/>
<line x1="851.60" y1="941.68" x2="845.58" y2="934.76" stroke="#D32F2F" stroke-width="8.00" stroke-linecap="round"/>
<line x1="832.05" y1="948.68" x2="845.58" y2="934.76" stroke="#D32F2F" stroke-width="8.00" stroke-linecap="round"/>
<line x1="864.53" y1="917.29" x2="857.90" y2="913.16" stroke="#D32F2F" stroke-width="8.00" stroke-linecap="round"/>
<line x1="842.69" y1="928.62" x2="857.90" y2="913.16" stroke="#D32F2F" stroke-width="8.00" stroke-linecap="round"/>
<line x1="879.24" y1="893.98" x2="871.70" y2="892.81" stroke="#D32F2F" stroke-width="8.00" stroke-linecap="round"/>
<line x1="854.67" y1="909.63" x2="871.70" y2="892.81" stroke="#D32F2F" stroke-width="8.00" stroke-linecap="round"/>
<line x1="895.58" y1="872.45" x2="886.88" y2="874.33" stroke="#D32F2F" stroke-width="8.00" stroke-linecap="round"/>
<line x1="867.92" y1="892.17" x2="886.88" y2="874.33" stroke="#D32F2F" stroke-width="8.00" stroke-linecap="round"/>
<line x1="913.31" y1="853.58" x2="903.22" y2="858.46" stroke="#D32F2F" stroke-width="8.00" stroke-linecap="round"/>
<circle cx="1084.59" cy="1084.59" r="290.0" fill="none" stroke="#ccc" stroke-width="0.5"/>
<line x1="1335.74" y1="1084.59" x2="1586.88" y2="1084.59" stroke="#A1A1AA" stroke-width="5" opacity="0.9"/>
<line x1="939.59" y1="1084.59" x2="794.59" y2="1084.59" stroke="#A1A1AA" stroke-width="5" opacity="0.9"/>
<line x1="1084.59" y1="1664.59" x2="1084.59" y2="1374.59" stroke="#A1A1AA" stroke-width="5" opacity="0.9"/>
<line x1="1084.59" y1="794.59" x2="1084.59" y2="504.59" stroke="#A1A1AA" stroke-width="5" opacity="0.9"/>
<polygon points="1374.59,1084.59 1354.59,1092.59 1354.59,1076.59" fill="#A1A1AA" opacity="0.9"/>
<text x="1662.23" y="1084.59" font-family="Palatino, 'Palatino Linotype', 'Book Antiqua', Georgia, serif" font-style="italic" font-size="52" fill="#A1A1AA" text-anchor="middle" dominant-baseline="middle" opacity="0.9">x</text>
<text x="724.99" y="1084.59" font-family="Palatino, 'Palatino Linotype', 'Book Antiqua', Georgia, serif" font-style="italic" font-size="52" fill="#A1A1AA" text-anchor="middle" dominant-baseline="middle" opacity="0.9">y</text>
<text x="1084.59" y="417.59" font-family="Palatino, 'Palatino Linotype', 'Book Antiqua', Georgia, serif" font-style="italic" font-size="52" fill="#A1A1AA" text-anchor="middle" dominant-baseline="middle" opacity="0.9">z</text>
</svg>