<svg width="2169" height="2169" viewBox="0 0 2169.1789 2169.1789" xmlns="http://www.w3.org/2000/svg">
<line x1="1012.09" y1="1009.53" x2="939.59" y2="934.47" stroke="#A1A1AA" stroke-width="5" opacity="0.9"/>
<line x1="1192.06" y1="1625.74" x2="1138.33" y2="1355.16" stroke="#A1A1AA" stroke-width="5" opacity="0.9"/>
<line x1="1360.19" y1="1012.09" x2="1635.79" y2="939.59" stroke="#A1A1AA" stroke-width="5" opacity="0.9"/>
<circle cx="1084.59" cy="1084.59" r="290.0" fill="#FDFDF5"/>
<line x1="1316.04" y1="1100.20" x2="1327.66" y2="1076.22" stroke="#D32F2F" stroke-width="8.00" stroke-linecap="round"/>
<line x1="1342.98" y1="1072.58" x2="1327.66" y2="1076.22" stroke="#D32F2F" stroke-width="8.00" stroke-linecap="round"/>
<line x1="1309.34" y1="1079.30" x2="1320.25" y2="1055.41" stroke="#D32F2F" stroke-width="8.00" stroke-linecap="round"/>
<line x1="1336.42" y1="1052.08" x2="1320.25" y2="1055.41" stroke="#D32F2F" stroke-width="8.00" stroke-linecap="round"/>
<line x1="1301.02" y1="1057.85" x2="1311.48" y2="1034.46" stroke="#D32F2F" stroke-width="8.00" stroke-linecap="round"/>
<line x1="1328.55" y1="1031.81" x2="1311.48" y2="1034.46" stroke="#D32F2F" stroke-width="8.00" stroke-linecap="round"/>
<line x1="1291.18" y1="1035.72" x2="1301.53" y2="1013.25" stroke="#D32F2F" stroke-width="8.00" stroke-linecap="round"/>
<line x1="1319.59" y1="1011.65" x2="1301.53" y2="1013.25" stroke="#D32F2F" stroke-width="8.00" stroke-linecap="round"/>
<line x1="1279.94" y1="1012.83" x2="1290.54" y2="991.69" stroke="#D32F2F" stroke-width="8.00" stroke-linecap="round"/>
<line x1="1309.69" y1="991.48" x2="1290.54" y2="991.69" stroke="#D32F2F" stroke-width="8.00" stroke-linecap="round"/>
<line x1="1267.47" y1="989.16" x2="1278.65" y2="969.75" stroke="#D32F2F" stroke-width="8.00" stroke-linecap="round"/>
<line x1="1299.01" y1="971.21" x2="1278.65" y2="969.75" stroke="#D32F2F" stroke-width="8.00" stroke-linecap="round"/>
<line x1="1253.92" y1="964.79" x2="1266.02" y2="947.47" stroke="#D32F2F" stroke-width="8.00" stroke-linecap="round"/>
<line x1="1287.68" y1="950.82" x2="1266.02" y2="947.47" stroke="#D32F2F" stroke-width="8.00" stroke-linecap="round"/>
<line x1="1239.54" y1="939.94" x2="1252.83" y2="925.03" stroke="#D32F2F" stroke-width="8.00" stroke-linecap="round"/>
<line x1="1275.84" y1="930.38" x2="1252.83" y2="925.03" stroke="#D32F2F" stroke-width="8.00" stroke-linecap="round"/>
<line x1="1224.59" y1="914.98" x2="1239.30" y2="902.74" stroke="#D32F2F" stroke-width="8.00" stroke-linecap="round"/>
<line x1="1263.67" y1="910.05" x2="1239.30" y2="902.74" stroke="#D32F2F" stroke-width="8.00" stroke-linecap="round"/>
<line x1="1209.44" y1="890.48" x2="1225.73" y2="881.09" stroke="#D32F2F" stroke-width="8.00" stroke-linecap="round"/>
<line x1="1251.38" y1="890.18" x2="1225.73" y2="881.09" stroke="#D32F2F" stroke-width="7.94" stroke-linecap="round"/>
<line x1="1194.50" y1="867.19" x2="1212.46" y2="860.74" stroke="#D32F2F" stroke-width="8.00" stroke-linecap="round"/>
<line x1="1239.26" y1="871.28" x2="1212.46" y2="860.74" stroke="#D32F2F" stroke-width="7.14" stroke-linecap="round"/>
<line x1="1180.24" y1="846.01" x2="1199.93" y2="842.52" stroke="#D32F2F" stroke-width="8.00" stroke-linecap="round"/>
<line x1="1227.66" y1="854.04" x2="1199.93" y2="842.52" stroke="#D32F2F" stroke-width="6.23" stroke-linecap="round"/>
<line x1="1167.20" y1="827.92" x2="1188.60" y2="827.29" stroke="#D32F2F" stroke-width="8.00" stroke-linecap="round"/>
<line x1="1217.00" y1="839.26" x2="1188.60" y2="827.29" stroke="#D32F2F" stroke-width="5.22" stroke-linecap="round"/>
<line x1="1155.91" y1="813.82" x2="1178.96" y2="815.88" stroke="#D32F2F" stroke-width="8.00" stroke-linecap="round"/>
<line x1="1207.74" y1="827.70" x2="1178.96" y2="815.88" stroke="#D32F2F" stroke-width="4.17" stroke-linecap="round"/>
<line x1="1146.82" y1="804.41" x2="1171.43" y2="808.86" stroke="#D32F2F" stroke-width="8.00" stroke-linecap="round"/>
<line x1="1200.29" y1="819.98" x2="1171.43" y2="808.86" stroke="#D32F2F" stroke-width="4.91" stroke-linecap="round"/>
<line x1="852.94" y1="910.27" x2="872.92" y2="886.47" stroke="#D32F2F" stroke-width="4.11" stroke-linecap="round"/>
<line x1="897.66" y1="863.58" x2="880.85" y2="881.51" stroke="#D32F2F" stroke-width="8.00" stroke-linecap="round"/>
<line x1="859.93" y1="904.29" x2="880.85" y2="881.51" stroke="#D32F2F" stroke-width="4.80" stroke-linecap="round"/>
<line x1="906.70" y1="861.51" x2="889.14" y2="881.45" stroke="#D32F2F" stroke-width="8.00" stroke-linecap="round"/>
<line x1="867.31" y1="902.60" x2="889.14" y2="881.45" stroke="#D32F2F" stroke-width="5.74" stroke-linecap="round"/>
<line x1="915.92" y1="865.15" x2="897.54" y2="886.63" stroke="#D32F2F" stroke-width="7.47" stroke-linecap="round"/>
<line x1="874.87" y1="905.59" x2="897.54" y2="886.63" stroke="#D32F2F" stroke-width="6.68" stroke-linecap="round"/>
<line x1="925.00" y1="874.56" x2="905.74" y2="897.02" stroke="#D32F2F" stroke-width="6.93" stroke-linecap="round"/>
<line x1="882.32" y1="913.31" x2="905.74" y2="897.02" stroke="#D32F2F" stroke-width="7.57" stroke-linecap="round"/>
<line x1="933.60" y1="889.37" x2="913.40" y2="912.20" stroke="#D32F2F" stroke-width="6.55" stroke-linecap="round"/>
<line x1="889.37" y1="925.44" x2="913.40" y2="912.20" stroke="#D32F2F" stroke-width="8.00" stroke-linecap="round"/>
<line x1="941.38" y1="908.84" x2="920.23" y2="931.43" stroke="#D32F2F" stroke-width="6.34" stroke-linecap="round"/>
<line x1="895.73" y1="941.36" x2="920.23" y2="931.43" stroke="#D32F2F" stroke-width="8.00" stroke-linecap="round"/>
<line x1="948.08" y1="932.01" x2="925.98" y2="953.75" stroke="#D32F2F" stroke-width="6.37" stroke-linecap="round"/>
<line x1="901.18" y1="960.21" x2="925.98" y2="953.75" stroke="#D32F2F" stroke-width="8.00" stroke-linecap="round"/>
<line x1="953.52" y1="957.80" x2="930.55" y2="978.19" stroke="#D32F2F" stroke-width="7.38" stroke-linecap="round"/>
<line x1="905.60" y1="981.14" x2="930.55" y2="978.19" stroke="#D32F2F" stroke-width="8.00" stroke-linecap="round"/>
<line x1="957.68" y1="985.20" x2="933.94" y2="1003.85" stroke="#D32F2F" stroke-width="8.00" stroke-linecap="round"/>
<line x1="908.97" y1="1003.36" x2="933.94" y2="1003.85" stroke="#D32F2F" stroke-width="8.00" stroke-linecap="round"/>
<line x1="960.62" y1="1013.31" x2="936.24" y2="1030.02" stroke="#D32F2F" stroke-width="8.00" stroke-linecap="round"/>
<line x1="911.36" y1="1026.26" x2="936.24" y2="1030.02" stroke="#D32F2F" stroke-width="8.00" stroke-linecap="round"/>
<line x1="962.51" y1="1041.45" x2="937.65" y2="1056.16" stroke="#D32F2F" stroke-width="8.00" stroke-linecap="round"/>
<line x1="912.91" y1="1049.41" x2="937.65" y2="1056.16" stroke="#D32F2F" stroke-width="8.00" stroke-linecap="round"/>
<line x1="963.57" y1="1069.10" x2="938.38" y2="1081.90" stroke="#D32F2F" stroke-width="8.00" stroke-linecap="round"/>
<line x1="913.81" y1="1072.54" x2="938.38" y2="1081.90" stroke="#D32F2F" stroke-width="8.00" stroke-linecap="round"/>
<line x1="964.10" y1="1095.92" x2="938.71" y2="1107.01" stroke="#D32F2F" stroke-width="8.00" stroke-linecap="round"/>
<line x1="914.26" y1="1095.50" x2="938.71" y2="1107.01" stroke="#D32F2F" stroke-width="8.00" stroke-linecap="round"/>
<line x1="964.37" y1="1121.69" x2="938.93" y2="1131.36" stroke="#D32F2F" stroke-width="8.00" stroke-linecap="round"/>
<line x1="914.50" y1="1118.22" x2="938.93" y2="1131.36" stroke="#D32F2F" stroke-width="8.00" stroke-linecap="round"/>
<line x1="964.70" y1="1146.32" x2="939.34" y2="1154.90" stroke="#D32F2F" stroke-width="8.00" stroke-linecap="round"/>
<line x1="914.79" y1="1140.66" x2="939.34" y2="1154.90" stroke="#D32F2F" stroke-width="8.00" stroke-linecap="round"/>
<line x1="965.36" y1="1169.79" x2="940.24" y2="1177.63" stroke="#D32F2F" stroke-width="8.00" stroke-linecap="round"/>
<line x1="915.43" y1="1162.82" x2="940.24" y2="1177.63" stroke="#D32F2F" stroke-width="8.00" stroke-linecap="round"/>
<line x1="966.67" y1="1192.10" x2="941.93" y2="1199.56" stroke="#D32F2F" stroke-width="8.00" stroke-linecap="round"/>
<line x1="916.71" y1="1184.72" x2="941.93" y2="1199.56" stroke="#D32F2F" stroke-width="8.00" stroke-linecap="round"/>
<line x1="968.89" y1="1213.31" x2="944.73" y2="1220.70" stroke="#D32F2F" stroke-width="8.00" stroke-linecap="round"/>
<line x1="918.97" y1="1206.34" x2="944.73" y2="1220.70" stroke="#D32F2F" stroke-width="7.99" stroke-linecap="round"/>
<line x1="972.31" y1="1233.46" x2="948.96" y2="1241.08" stroke="#D32F2F" stroke-width="8.00" stroke-linecap="round"/>
<line x1="922.60" y1="1227.65" x2="948.96" y2="1241.08" stroke="#D32F2F" stroke-width="7.64" stroke-linecap="round"/>
<line x1="977.21" y1="1252.55" x2="954.93" y2="1260.67" stroke="#D32F2F" stroke-width="8.00" stroke-linecap="round"/>
<line x1="927.98" y1="1248.61" x2="954.93" y2="1260.67" stroke="#D32F2F" stroke-width="7.38" stroke-linecap="round"/>
<line x1="983.86" y1="1270.61" x2="963.00" y2="1279.40" stroke="#D32F2F" stroke-width="8.00" stroke-linecap="round"/>
<line x1="935.54" y1="1269.09" x2="963.00" y2="1279.40" stroke="#D32F2F" stroke-width="7.23" stroke-linecap="round"/>
<line x1="992.57" y1="1287.57" x2="973.49" y2="1297.15" stroke="#D32F2F" stroke-width="8.00" stroke-linecap="round"/>
<line x1="945.71" y1="1288.89" x2="973.49" y2="1297.15" stroke="#D32F2F" stroke-width="7.21" stroke-linecap="round"/>
<line x1="1003.63" y1="1303.32" x2="986.75" y2="1313.69" stroke="#D32F2F" stroke-width="8.00" stroke-linecap="round"/>
<line x1="958.93" y1="1307.72" x2="986.75" y2="1313.69" stroke="#D32F2F" stroke-width="7.33" stroke-linecap="round"/>
<line x1="1017.30" y1="1317.66" x2="1003.07" y2="1328.70" stroke="#D32F2F" stroke-width="8.00" stroke-linecap="round"/>
<line x1="975.56" y1="1325.15" x2="1003.07" y2="1328.70" stroke="#D32F2F" stroke-width="7.57" stroke-linecap="round"/>
<line x1="1033.84" y1="1330.28" x2="1022.64" y2="1341.74" stroke="#D32F2F" stroke-width="8.00" stroke-linecap="round"/>
<line x1="995.86" y1="1340.65" x2="1022.64" y2="1341.74" stroke="#D32F2F" stroke-width="7.93" stroke-linecap="round"/>
<line x1="1053.37" y1="1340.76" x2="1045.55" y2="1352.26" stroke="#D32F2F" stroke-width="8.00" stroke-linecap="round"/>
<line x1="1019.94" y1="1353.57" x2="1045.55" y2="1352.26" stroke="#D32F2F" stroke-width="8.00" stroke-linecap="round"/>
<line x1="1075.86" y1="1348.56" x2="1071.62" y2="1359.63" stroke="#D32F2F" stroke-width="8.00" stroke-linecap="round"/>
<line x1="1047.65" y1="1363.18" x2="1071.62" y2="1359.63" stroke="#D32F2F" stroke-width="8.00" stroke-linecap="round"/>
<line x1="1101.00" y1="1353.11" x2="1100.41" y2="1363.21" stroke="#D32F2F" stroke-width="8.00" stroke-linecap="round"/>
<line x1="1078.54" y1="1368.77" x2="1100.41" y2="1363.21" stroke="#D32F2F" stroke-width="8.00" stroke-linecap="round"/>
<line x1="1128.18" y1="1353.89" x2="1131.16" y2="1362.48" stroke="#D32F2F" stroke-width="8.00" stroke-linecap="round"/>
<line x1="1111.81" y1="1369.73" x2="1131.16" y2="1362.48" stroke="#D32F2F" stroke-width="8.00" stroke-linecap="round"/>
<line x1="1156.51" y1="1350.57" x2="1162.81" y2="1357.16" stroke="#D32F2F" stroke-width="8.00" stroke-linecap="round"/>
<line x1="1146.37" y1="1365.68" x2="1162.81" y2="1357.16" stroke="#D32F2F" stroke-width="8.00" stroke-linecap="round"/>
<line x1="1184.85" y1="1343.12" x2="1194.14" y2="1347.30" stroke="#D32F2F" stroke-width="8.00" stroke-linecap="round"/>
<line x1="1180.91" y1="1356.59" x2="1194.14" y2="1347.30" stroke="#D32F2F" stroke-width="8.00" stroke-linecap="round"/>
<line x1="1212.05" y1="1331.83" x2="1223.90" y2="1333.29" stroke="#D32F2F" stroke-width="8.00" stroke-linecap="round"/>
<line x1="1214.10" y1="1342.82" x2="1223.90" y2="1333.29" stroke="#D32F2F" stroke-width="8.00" stroke-linecap="round"/>
<line x1="1237.09" y1="1317.31" x2="1251.04" y2="1315.83" stroke="#D32F2F" stroke-width="8.00" stroke-linecap="round"/>
<line x1="1244.75" y1="1325.05" x2="1251.04" y2="1315.83" stroke="#D32F2F" stroke-width="8.00" stroke-linecap="round"/>
<line x1="1259.24" y1="1300.32" x2="1274.79" y2="1295.80" stroke="#D32F2F" stroke-width="8.00" stroke-linecap="round"/>
<line x1="1271.96" y1="1304.18" x2="1274.79" y2="1295.80" stroke="#D32F2F" stroke-width="8.00" stroke-linecap="round"/>
<line x1="1278.08" y1="1281.65" x2="1294.75" y2="1274.06" stroke="#D32F2F" stroke-width="8.00" stroke-linecap="round"/>
<line x1="1295.17" y1="1281.17" x2="1294.75" y2="1274.06" stroke="#D32F2F" stroke-width="8.00" stroke-linecap="round"/>
<line x1="1293.49" y1="1261.98" x2="1310.79" y2="1251.40" stroke="#D32F2F" stroke-width="8.00" stroke-linecap="round"/>
<line x1="1314.17" y1="1256.91" x2="1310.79" y2="1251.40" stroke="#D32F2F" stroke-width="8.00" stroke-linecap="round"/>
<line x1="1305.56" y1="1241.83" x2="1323.03" y2="1228.42" stroke="#D32F2F" stroke-width="8.00" stroke-linecap="round"/>
<line x1="1328.99" y1="1232.17" x2="1323.03" y2="1228.42" stroke="#D32F2F" stroke-width="8.00" stroke-linecap="round"/>
<line x1="1314.51" y1="1221.54" x2="1331.73" y2="1205.53" stroke="#D32F2F" stroke-width="8.00" stroke-linecap="round"/>
<line x1="1339.87" y1="1207.50" x2="1331.73" y2="1205.53" stroke="#D32F2F" stroke-width="8.00" stroke-linecap="round"/>
<line x1="1320.59" y1="1201.28" x2="1337.21" y2="1182.98" stroke="#D32F2F" stroke-width="8.00" stroke-linecap="round"/>
<line x1="1347.15" y1="1183.29" x2="1337.21" y2="1182.98" stroke="#D32F2F" stroke-width="8.00" stroke-linecap="round"/>
<line x1="1324.06" y1="1181.11" x2="1339.82" y2="1160.88" stroke="#D32F2F" stroke-width="8.00" stroke-linecap="round"/>
<line x1="1351.21" y1="1159.74" x2="1339.82" y2="1160.88" stroke="#D32F2F" stroke-width="8.00" stroke-linecap="round"/>
<line x1="1325.16" y1="1161.02" x2="1339.88" y2="1139.24" stroke="#D32F2F" stroke-width="8.00" stroke-linecap="round"/>
<line x1="1352.47" y1="1136.95" x2="1339.88" y2="1139.24" stroke="#D32F2F" stroke-width="8.00" stroke-linecap="round"/>
<line x1="1324.09" y1="1140.92" x2="1337.70" y2="1117.99" stroke="#D32F2F" stroke-width="8.00" stroke-linecap="round"/>
<line x1="1351.29" y1="1114.88" x2="1337.70" y2="1117.99" stroke="#D32F2F" stroke-width="8.00" stroke-linecap="round"/>
<line x1="1321.00" y1="1120.69" x2="1333.54" y2="1097.03" stroke="#D32F2F" stroke-width="8.00" stroke-linecap="round"/>
<line x1="1348.03" y1="1093.47" x2="1333.54" y2="1097.03" stroke="#D32F2F" stroke-width="8.00" stroke-linecap="round"/>
<line x1="1316.04" y1="1100.20" x2="1327.66" y2="1076.22" stroke="#D32F2F" stroke-width="8.00" stroke-linecap="round"/>
<line x1="1342.98" y1="1072.58" x2="1327.66" y2="1076.22" stroke="#D32F2F" stroke-width="8.00" stroke-linecap="round"/>
<line x1="1309.34" y1="1079.30" x2="1320.25" y2="1055.41" stroke="#D32F2F" stroke-width="8.00" stroke-linecap="round"/>
<line x1="1336.42" y1="1052.08" x2="1320.25" y2="1055.41" stroke="#D32F2F" stroke-width="8.00" stroke-linecap="round"/>
<line x1="1301.02" y1="1057.85" x2="1311.48" y2="1034.46" stroke="#D32F2F" stroke-width="8.00" stroke-linecap="round"/>
<line x1="1328.55" y1="1031.81" x2="1311.48" y2="1034.46" stroke="#D32F2F" stroke-width="8.00" stroke-linecap="round"/>
<line x1="1291.18" y1="1035.72" x2="1301.53" y2="1013.25" stroke="#D32F2F" stroke-width="8.00" stroke-linecap="round"/>
<line x1="1319.59" y1="1011.65" x2="1301.53" y2="1013.25" stroke="#D32F2F" stroke-width="8.00" stroke-linecap="round"/>
<line x1="1279.94" y1="1012.83" x2="1290.54" y2="991.69" stroke="#D32F2F" stroke-width="8.00" stroke-linecap="round"/>
<line x1="1309.69" y1="991.48" x2="1290.54" y2="991.69" stroke="#D32F2F" stroke-width="8.00" stroke-linecap="round"/>
<line x1="1267.47" y1="989.16" x2="1278.65" y2="969.75" stroke="#D32F2F" stroke-width="8.00" stroke-linecap="round"/>
<line x1="1299.01" y1="971.21" x2="1278.65" y2="969.75" stroke="#D32F2F" stroke-width="8.00" stroke-linecap="round"/>
<line x1="1253.92" y1="964.79" x2="1266.02" y2="947.47" stroke="#D32F2F" stroke-width="8.00" stroke-linecap="round"/>
<line x1="1287.68" y1="950.82" x2="1266.02" y2="947.47" stroke="#D32F2F" stroke-width="8.00" stroke-linecap="round"/>
<line x1="1239.54" y1="939.94" x2="1252.83" y2="925.03" stroke="#D32F2F" stroke-width="8.00" stroke-linecap="round"/>
<line x1="1275.84" y1="930.38" x2="1252.83" y2="925.03" stroke="#D32F2F" stroke-width="8.00" stroke-linecap="round"/>
<line x1="1224.59" y1="914.98" x2="1239.30" y2="902.74" stroke="#D32F2F" stroke-width="8.00" stroke-linecap="round"/>
<line x1="1263.67" y1="910.05" x2="1239.30" y2="902.74" stroke="#D32F2F" stroke-width="8.00" stroke-linecap="round"/>
<line x1="1209.44" y1="890.48" x2="1225.73" y2="881.09" stroke="#D32F2F" stroke-width="8.00" stroke-linecap="round"/>
<line x1="1251.38" y1="890.18" x2="1225.73" y2="881.09" stroke="#D32F2F" stroke-width="7.94" stroke-linecap="round"/>
<line x1="1194.50" y1="867.19" x2="1212.46" y2="860.74" stroke="#D32F2F" stroke-width="8.00" stroke-linecap="round"/>
<line x1="1239.26" y1="871.28" x2="1212.46" y2="860.74" stroke="#D32F2F" stroke-width="7.14" stroke-linecap="round"/>
<line x1="1180.24" y1="846.01" x2="1199.93" y2="842.52" stroke="#D32F2F" stroke-width="8.00" stroke-linecap="round"/>
<line x1="1227.66" y1="854.04" x2="1199.93" y2="842.52" stroke="#D32F2F" stroke-width="6.23" stroke-linecap="round"/>
<line x1="1167.20" y1="827.92" x2="1188.60" y2="827.29" stroke="#D32F2F" stroke-width="8.00" stroke-linecap="round"/>
<line x1="1217.00" y1="839.26" x2="1188.60" y2="827.29" stroke="#D32F2F" stroke-width="5.22" stroke-linecap="round"/>
<line x1="1155.91" y1="813.82" x2="1178.96" y2="815.88" stroke="#D32F2F" stroke-width="8.00" stroke-linecap="round"/>
<line x1="1207.74" y1="827.70" x2="1178.96" y2="815.88" stroke="#D32F2F" stroke-width="4.17" stroke-linecap="round"/>
<line x1="1146.82" y1="804.41" x2="1171.43" y2="808.86" stroke="#D32F2F" stroke-width="8.00" stroke-linecap="round"/>
<line x1="1200.29" y1="819.98" x2="1171.43" y2="808.86" stroke="#D32F2F" stroke-width="4.91" stroke-linecap="round"/>
<line x1="852.94" y1="910.27" x2="872.92" y2="886.47" stroke="#D32F2F" stroke-width="4.11" stroke-linecap="round"/>
<line x1="897.66" y1="863.58" x2="880.85" y2="881.51" stroke="#D32F2F" stroke-width="8.00" stroke-linecap="round"/>
<line x1="859.93" y1="904.29" x2="880.85" y2="881.51" stroke="#D32F2F" stroke-width="4.80" stroke-linecap="round"/>
<line x1="906.70" y1="861.51" x2="889.14" y2="881.45" stroke="#D32F2F" stroke-width="8.00" stroke-linecap="round"/>
<line x1="867.31" y1="902.60" x2="889.14" y2="881.45" stroke="#D32F2F" stroke-width="5.74" stroke-linecap="round"/>
<line x1="915.92" y1="865.15" x2="897.54" y2="886.63" stroke="#D32F2F" stroke-width="7.47" stroke-linecap="round"/>
<line x1="874.87" y1="905.59" x2="897.54" y2="886.63" stroke="#D32F2F" stroke-width="6.68" stroke-linecap="round"/>
<line x1="925.00" y1="874.56" x2="905.74" y2="897.02" stroke="#D32F2F" stroke-width="6.93" stroke-linecap="round"/>
<line x1="882.32" y1="913.31" x2="905.74" y2="897.02" stroke="#D32F2F" stroke-width="7.57" stroke-linecap="round"/>
<line x1="933.60" y1="889.37" x2="913.40" y2="912.20" stroke="#D32F2F" stroke-width="6.55" stroke-linecap="round"/>
<line x1="889.37" y1="925.44" x2="913.40" y2="912.20" stroke="#D32F2F" stroke-width="8.00" stroke-linecap="round"/>
<line x1="941.38" y1="908.84" x2="920.23" y2="931.43" stroke="#D32F2F" stroke-width="6.34" stroke-linecap="round"/>
<line x1="895.73" y1="941.36" x2="920.23" y2="931.43" stroke="#D32F2F" stroke-width="8.00" stroke-linecap="round"/>
<line x1="948.08" y1="932.01" x2="925.98" y2="953.75" stroke="#D32F2F" stroke-width="6.37" stroke-linecap="round"/>
<line x1="901.18" y1="960.21" x2="925.98" y2="953.75" stroke="#D32F2F" stroke-width="8.00" stroke-linecap="round"/>
<line x1="953.52" y1="957.80" x2="930.55" y2="978.19" stroke="#D32F2F" stroke-width="7.38" stroke-linecap="round"/>
<line x1="905.60" y1="981.14" x2="930.55" y2="978.19" stroke="#D32F2F" stroke-width="8.00" stroke-linecap="round"/>
<line x1="957.68" y1="985.20" x2="933.94" y2="1003.85" stroke="#D32F2F" stroke-width="8.00" stroke-linecap="round"/>
<line x1="908.97" y1="1003.36" x2="933.94" y2="1003.85" stroke="#D32F2F" stroke-width="8.00" stroke-linecap="round"/>
<line x1="960.62" y1="1013.31" x2="936.24" y2="1030.02" stroke="#D32F2F" stroke-width="8.00" stroke-linecap="round"/>
<line x1="911.36" y1="1026.26" x2="936.24" y2="1030.02" stroke="#D32F2F" stroke-width="8.00" stroke-linecap="round"/>
<line x1="962.51" y1="1041.45" x2="937.65" y2="1056.16" stroke="#D32F2F" stroke-width="8.00" stroke-linecap="round"/>
<line x1="912.91" y1="1049.41" x2="937.65" y2="1056.16" stroke="#D32F2F" stroke-width="8.00" stroke-linecap="round"/>
<line x1="963.57" y1="1069.10" x2="938.38" y2="1081.90" stroke="#D32F2F" stroke-width="8.00" stroke-linecap="round"/>
<line x1="913.81" y1="1072.54" x2="938.38" y2="1081.90" stroke="#D32F2F" stroke-width="8.00" stroke-linecap="round"/>
<line x1="964.10" y1="1095.92" x2="938.71" y2="1107.01" stroke="#D32F2F" stroke-width="8.00" stroke-linecap="round"/>
<line x1="914.26" y1="1095.50" x2="938.71" y2="1107.01" stroke="#D32F2F" stroke-width="8.00" stroke-linecap="round"/>
<line x1="964.37" y1="1121.69" x2="938.93" y2="1131.36" stroke="#D32F2F" stroke-width="8.00" stroke-linecap="round"/>
<line x1="914.50" y1="1118.22" x2="938.93" y2="1131.36" stroke="#D32F2F" stroke-width="8.00" stroke-linecap="round"/>
<line x1="964.70" y1="1146.32" x2="939.34" y2="1154.90" stroke="#D32F2F" stroke-width="8.00" stroke-linecap="round"/>
<line x1="914.79" y1="1140.66" x2="939.34" y2="1154.90" stroke="#D32F2F" stroke-width="8.00" stroke-linecap="round"/>
<line x1="965.36" y1="1169.79" x2="940.24" y2="1177.63" stroke="#D32F2F" stroke-width="8.00" stroke-linecap="round"/>
<line x1="915.43" y1="1162.82" x2="940.24" y2="1177.63" stroke="#D32F2F" stroke-width="8.00" stroke-linecap="round"/>
<line x1="966.67" y1="1192.10" x2="941.93" y2="1199.56" stroke="#D32F2F" stroke-width="8.00" stroke-linecap="round"/>
<line x1="916.71" y1="1184.72" x2="941.93" y2="1199.56" stroke="#D32F2F" stroke-width="8.00" stroke-linecap="round"/>
<line x1="968.89" y1="1213.31" x2="944.73" y2="1220.70" stroke="#D32F2F" stroke-width="8.00" stroke-linecap="round"/>
<line x1="918.97" y1="1206.34" x2="944.73" y2="1220.70" stroke="#D32F2F" stroke-width="7.99" stroke-linecap="round"/>
<line x1="972.31" y1="1233.46" x2="948.96" y2="1241.08" stroke="#D32F2F" stroke-width="8.00" stroke-linecap="round"/>
<line x1="922.60" y1="1227.65" x2="948.96" y2="1241.08" stroke="#D32F2F" stroke-width="7.64" stroke-linecap="round"/>
<line x1="977.21" y1="1252.55" x2="954.93" y2="1260.67" stroke="#D32F2F" stroke-width="8.00" stroke-linecap="round"/>
<line x1="927.98" y1="1248.61" x2="954.93" y2="1260.67" stroke="#D32F2F" stroke-width="7.38" stroke-linecap="round"/>
<line x1="983.86" y1="1270.61" x2="963.00" y2="1279.40" stroke="#D32F2F" stroke-width="8.00" stroke-linecap="round"/>
<line x1="935.54" y1="1269.09" x2="963.00" y2="1279.40" stroke="#D32F2F" stroke-width="7.23" stroke-linecap="round"/>
<line x1="992.57" y1="1287.57" x2="973.49" y2="1297.15" stroke="#D32F2F" stroke-width="8.00" stroke-linecap="round"/>
<line x1="945.71" y1="1288.89" x2="973.49" y2="1297.15" stroke="#D32F2F" stroke-width="7.21" stroke-linecap="round"/>
<line x1="1003.63" y1="1303.32" x2="986.75" y2="1313.69" stroke="#D32F2F" stroke-width="8.00" stroke-linecap="round"/>
<line x1="958.93" y1="1307.72" x2="986.75" y2="1313.69" stroke="#D32F2F" stroke-width="7.33" stroke-linecap="round"/>
<line x1="1017.30" y1="1317.66" x2="1003.07" y2="1328.70" stroke="#D32F2F" stroke-width="8.00" stroke-linecap="round"/>
<line x1="975.56" y1="1325.15" x2="1003.07" y2="1328.70" stroke="#D32F2F" stroke-width="7.57" stroke-linecap="round"/>
<line x1="1033.84" y1="1330.28" x2="1022.64" y2="1341.74" stroke="#D32F2F" stroke-width="8.00" stroke-linecap="round"/>
<line x1="995.86" y1="1340.65" x2="1022.64" y2="1341.74" stroke="#D32F2F" stroke-width="7.93" stroke-linecap="round"/>
<line x1="1053.37" y1="1340.76" x2="1045.55" y2="1352.26" stroke="#D32F2F" stroke-width="8.00" stroke-linecap="round"/>
<line x1="1019.94" y1="1353.57" x2="1045.55" y2="1352.26" stroke="#D32F2F" stroke-width="8.00" stroke-linecap="round"/>
<line x1="1075.86" y1="1348.56" x2="1071.62" y2="1359.63" stroke="#D32F2F" stroke-width="8.00" stroke-linecap="round"/>
<line x1="1047.65" y1="1363.18" x2="1071.62" y2="1359.63" stroke="#D32F2F" stroke-width="8.00" stroke-linecap="round"/>
<line x1="1101.00" y1="1353.11" x2="1100.41" y2="1363.21" stroke="#D32F2F" stroke-width="8.00" stroke-linecap="round"/>
<line x1="1078.54" y1="1368.77" x2="1100.41" y2="1363.21" stroke="#D32F2F" stroke-width="8.00" stroke-linecap="round"/>
<line x1="1128.18" y1="1353.89" x2="1131.16" y2="1362.48" stroke="#D32F2F" stroke-width="8.00" stroke-linecap="round"/>
<line x1="1111.81" y1="1369.73" x2="1131.16" y2="1362.48" stroke="#D32F2F" stroke-width="8.00" stroke-linecap="round"/>
<line x1="1156.51" y1="1350.57" x2="1162.81" y2="1357.16" stroke="#D32F2F" stroke-width="8.00" stroke-linecap="round"/>
<line x1="1146.37" y1="1365.68" x2="1162.81" y2="1357.16" stroke="#D32F2F" stroke-width="8.00" stroke-linecap="round"/>
<line x1="1184.85" y1="1343.12" x2="1194.14" y2="1347.30" stroke="#D32F2F" stroke-width="8.00" stroke-linecap="round"/>
<line x1="1180.91" y1="1356.59" x2="1194.14" y2="1347.30" stroke="#D32F2F" stroke-width="8.00" stroke-linecap="round"/>
<line x1="1212.05" y1="1331.83" x2="1223.90" y2="1333.29" stroke="#D32F2F" stroke-width="8.00" stroke-linecap="round"/>
<line x1="1214.10" y1="1342.82" x2="1223.90" y2="1333.29" stroke="#D32F2F" stroke-width="8.00" stroke-linecap="round"/>
<line x1="1237.09" y1="1317.31" x2="1251.04" y2="1315.83" stroke="#D32F2F" stroke-width="8.00" stroke-linecap="round"/>
<line x1="1244.75" y1="1325.05" x2="1251.04" y2="1315.83" stroke="#D32F2F" stroke-width="8.00" stroke-linecap="round"/>
<line x1="1259.24" y1="1300.32" x2="1274.79" y2="1295.80" stroke="#D32F2F" stroke-width="8.00" stroke-linecap="round"/>
<line x1="1271.96" y1="1304.18" x2="1274.79" y2="1295.80" stroke="#D32F2F" stroke-width="8.00" stroke-linecap="round"/>
<line x1="1278.08" y1="1281.65" x2="1294.75" y2="1274.06" stroke="#D32F2F" stroke-width="8.00" stroke-linecap="round"/>
<line x1="1295.17" y1="1281.17" x2="1294.75" y2="1274.06" stroke="#D32F2F" stroke-width="8.00" stroke-linecap="round"/>
<line x1="1293.49" y1="1261.98" x2="1310.79" y2="1251.40" stroke="#D32F2F" stroke-width="8.00" stroke-linecap="round"/>
<line x1="1314.17" y1="1256.91" x2="1310.79" y2="1251.40" stroke="#D32F2F" stroke-width="8.00" stroke-linecap="round"/>
<line x1="1305.56" y1="1241.83" x2="1323.03" y2="1228.42" stroke="#D32F2F" stroke-width="8.00" stroke-linecap="round"/>
<line x1="1328.99" y1="1232.17" x2="1323.03" y2="1228.42" stroke="#D32F2F" stroke-width="8.00" stroke-linecap="round"/>
<line x1="1314.51" y1="1221.54" x2="1331.73" y2="1205.53" stroke="#D32F2F" stroke-width="8.00" stroke-linecap="round"/>
<line x1="1339.87" y1="1207.50" x2="1331.73" y2="1205.53" stroke="#D32F2F" stroke-width="8.00" stroke-linecap="round"/>
<line x1="1320.59" y1="1201.28" x2="1337.21" y2="1182.98" stroke="#D32F2F" stroke-width="8.00" stroke-linecap="round"/>
<line x1="1347.15" y1="1183.29" x2="1337.21" y2="1182.98" stroke="#D32F2F" stroke-width="8.00" stroke-linecap="round"/>
<line x1="1324.06" y1="1181.11" x2="1339.82" y2="1160.88" stroke="#D32F2F" stroke-width="8.00" stroke-linecap="round"/>
<line x1="1351.21" y1="1159.74" x2="1339.82" y2="1160.88" stroke="#D32F2F" stroke-width="8.00" stroke-linecap="round"/>
<line x1="1325.16" y1="1161.02" x2="1339.88" y2="1139.24" stroke="#D32F2F" stroke-width="8.00" stroke-linecap="round"/>
<line x1="1352.47" y1="1136.95" x2="1339.88" y2="1139.24" stroke="#D32F2F" stroke-width="8.00" stroke-linecap="round"/>
<line x1="1324.09" y1="1140.92" x2="1337.70" y2="1117.99" stroke="#D32F2F" stroke-width="8.00" stroke-linecap="round"/>
<line x1="1351.29" y1="1114.88" x2="1337.70" y2="1117.99" stroke="#D32F2F" stroke-width="8.00" stroke-linecap="round"/>
<line x1="1321.00" y1="1120.69" x2="1333.54" y2="1097.03" stroke="#D32F2F" stroke-width="8.00" stroke-linecap="round"/>
<line x1="1348.03" y1="1093.47" x2="1333.54" y2="1097.03" stroke="#D32F2F" stroke-width="8.00" stroke-linecap="round"/>
<circle cx="1084.59" cy="1084.59" r="290.0" fill="none" stroke="#ccc" stroke-width="0.5"/>
<line x1="533.39" y1="1229.59" x2="808.99" y2="1157.09" stroke="#A1A1AA" stroke-width="5" opacity="0.9"/>
<line x1="1030.85" y1="814.02" x2="977.12" y2="543.44" stroke="#A1A1AA" stroke-width="5" opacity="0.9"/>
<line x1="1229.59" y1="1234.70" x2="1157.09" y2="1159.65" stroke="#A1A1AA" stroke-width="5" opacity="0.9"/>
<polygon points="1635.79,939.59 1618.49,952.41 1614.42,936.94" fill="#A1A1AA" opacity="0.9"/>
<polygon points="939.59,934.47 959.24,943.30 947.73,954.42" fill="#A1A1AA" opacity="0.9"/>
<polygon points="977.12,543.44 988.86,561.50 973.17,564.62" fill="#A1A1AA" opacity="0.9"/>
<text x="1735.01" y="913.49" font-family="Palatino, 'Palatino Linotype', 'Book Antiqua', Georgia, serif" font-style="italic" font-size="52" fill="#A1A1AA" text-anchor="middle" dominant-baseline="middle" opacity="0.9">x</text>
<text x="913.49" y="907.45" font-family="Palatino, 'Palatino Linotype', 'Book Antiqua', Georgia, serif" font-style="italic" font-size="52" fill="#A1A1AA" text-anchor="middle" dominant-baseline="middle" opacity="0.9">y</text>
<text x="957.77" y="446.04" font-family="Palatino, 'Palatino Linotype', 'Book Antiqua', Georgia, serif" font-style="italic" font-size="52" fill="#A1A1AA" text-anchor="middle" dominant-baseline="middle" opacity="0.9">z</text>
<polyline points="1232.92,1517.97 1235.59,1515.89 1237.85,1513.82 1239.69,1511.78 1241.11,1509.77 1242.10,1507.82 1242.64,1505.92 1242.74,1504.09 1242.40,1502.34 1241.61,1500.69 1240.39,1499.14 1238.73,1497.71 1236.65,1496.39 1234.17,1495.21 1231.29,1494.16 1228.04,1493.26 1224.44,1492.51 1220.50,1491.91 1216.26,1491.47 1211.73,1491.19 1206.95,1491.07 1201.94,1491.12 1196.75,1491.33 1191.39,1491.70 1185.90,1492.23 1180.32,1492.91 1174.67,1493.75 1169.01,1494.73 1163.35,1495.85 1157.73,1497.11 1152.20,1498.49 1146.78,1499.99 1141.50,1501.60 1136.41,1503.31 1131.52,1505.10 1126.88,1506.97 1122.50,1508.90 1118.43,1510.89 1114.67,1512.92 1111.26,1514.98 1108.21,1517.05 1105.55,1519.12 1103.29,1521.19 1101.44,1523.23 1100.02,1525.24 1099.03,1527.20 1098.49,1529.10 1098.39,1530.93 1098.73,1532.67 1099.52,1534.33 1100.75,1535.87 1102.40,1537.31 1104.48,1538.62 1106.96,1539.81 1109.84,1540.85 1113.09,1541.75 1116.70,1542.50 1120.63,1543.10 1124.88,1543.54 1129.40,1543.82 1134.18,1543.94" fill="none" stroke="#A1A1AA" stroke-width="2.2" stroke-linecap="round" stroke-linejoin="round" opacity="0.85"/>
<polygon points="1134.18,1543.94 1124.06,1548.69 1124.31,1538.70" fill="#A1A1AA" opacity="0.85"/>
<text x="1141.18" y="1487.08" font-family="Palatino, 'Palatino Linotype', 'Book Antiqua', Georgia, serif" font-style="italic" font-size="28" fill="#A1A1AA" text-anchor="middle" dominant-baseline="middle" opacity="0.85">yaw</text>
<polyline points="666.24,1262.50 666.43,1259.56 666.49,1256.26 666.40,1252.62 666.17,1248.65 665.80,1244.39 665.30,1239.86 664.66,1235.08 663.90,1230.09 663.01,1224.92 661.99,1219.60 660.87,1214.17 659.64,1208.65 658.31,1203.08 656.89,1197.49 655.39,1191.93 653.81,1186.41 652.17,1180.99 650.48,1175.68 648.75,1170.53 646.99,1165.57 645.20,1160.82 643.41,1156.31 641.62,1152.08 639.84,1148.15 638.08,1144.54 636.36,1141.27 634.68,1138.38 633.05,1135.86 631.50,1133.75 630.01,1132.04 628.61,1130.76 627.31,1129.91 626.10,1129.50 625.00,1129.52 624.02,1129.99 623.16,1130.88 622.42,1132.21 621.82,1133.96 621.35,1136.12 621.01,1138.68 620.82,1141.61 620.77,1144.92 620.85,1148.56 621.08,1152.53 621.45,1156.79 621.95,1161.32 622.59,1166.10 623.36,1171.09 624.25,1176.26 625.26,1181.57 626.38,1187.01 627.62,1192.53 628.95,1198.10 630.37,1203.69 631.87,1209.25 633.44,1214.77 635.08,1220.19 636.77,1225.50 638.50,1230.65 640.27,1235.61" fill="none" stroke="#A1A1AA" stroke-width="2.2" stroke-linecap="round" stroke-linejoin="round" opacity="0.85"/>
<polygon points="640.27,1235.61 632.21,1227.86 641.63,1224.52" fill="#A1A1AA" opacity="0.85"/>
<text x="621.85" y="1090.92" font-family="Palatino, 'Palatino Linotype', 'Book Antiqua', Georgia, serif" font-style="italic" font-size="28" fill="#A1A1AA" text-anchor="middle" dominant-baseline="middle" opacity="0.85">pitch</text>
<polyline points="1259.58,1240.16 1262.52,1235.23 1265.08,1230.11 1267.23,1224.84 1268.98,1219.44 1270.30,1213.94 1271.20,1208.40 1271.66,1202.82 1271.68,1197.26 1271.26,1191.75 1270.41,1186.31 1269.13,1180.99 1267.42,1175.82 1265.30,1170.82 1262.78,1166.03 1259.88,1161.48 1256.62,1157.20 1253.01,1153.21 1249.07,1149.53 1244.84,1146.20 1240.33,1143.23 1235.58,1140.63 1230.61,1138.43 1225.46,1136.64 1220.16,1135.27 1214.73,1134.33 1209.22,1133.82 1203.65,1133.74 1198.07,1134.11 1192.50,1134.91 1186.98,1136.14 1181.54,1137.79 1176.22,1139.85 1171.05,1142.32 1166.07,1145.17 1161.29,1148.38 1156.76,1151.95 1152.50,1155.83 1148.54,1160.02 1144.89,1164.49 1141.59,1169.20 1138.66,1174.13 1136.10,1179.25 1133.95,1184.53 1132.20,1189.93 1130.88,1195.42 1129.98,1200.97 1129.52,1206.54 1129.50,1212.10 1129.92,1217.61 1130.77,1223.05 1132.05,1228.37 1133.76,1233.54 1135.88,1238.54 1138.39,1243.33 1141.29,1247.88 1144.56,1252.17 1148.17,1256.16 1152.11,1259.83 1156.34,1263.16 1160.85,1266.14" fill="none" stroke="#A1A1AA" stroke-width="2.2" stroke-linecap="round" stroke-linejoin="round" opacity="0.85"/>
<polygon points="1160.85,1266.14 1149.75,1264.80 1155.25,1256.46" fill="#A1A1AA" opacity="0.85"/>
<text x="1178.81" y="1095.01" font-family="Palatino, 'Palatino Linotype', 'Book Antiqua', Georgia, serif" font-style="italic" font-size="28" fill="#A1A1AA" text-anchor="middle" dominant-baseline="middle" opacity="0.85">roll</text>
</svg>