<svg width="1499" height="1499" viewBox="0 0 1499.4526 1499.4526" xmlns="http://www.w3.org/2000/svg">
<line x1="363.06" y1="1136.39" x2="1136.39" y2="1136.39" stroke="#555" stroke-width="1.5" opacity="0.6"/>
<line x1="363.06" y1="943.06" x2="1136.39" y2="943.06" stroke="#888" stroke-width="1.0" opacity="0.35"/>
<line x1="363.06" y1="749.73" x2="1136.39" y2="749.73" stroke="#888" stroke-width="1.0" opacity="0.35"/>
<line x1="363.06" y1="556.39" x2="1136.39" y2="556.39" stroke="#888" stroke-width="1.0" opacity="0.35"/>
<line x1="363.06" y1="363.06" x2="1136.39" y2="363.06" stroke="#555" stroke-width="1.5" opacity="0.6"/>
<line x1="363.06" y1="1136.39" x2="363.06" y2="363.06" stroke="#555" stroke-width="1.5" opacity="0.6"/>
<line x1="556.39" y1="1136.39" x2="556.39" y2="363.06" stroke="#888" stroke-width="1.0" opacity="0.35"/>
<line x1="749.73" y1="1136.39" x2="749.73" y2="363.06" stroke="#888" stroke-width="1.0" opacity="0.35"/>
<line x1="943.06" y1="1136.39" x2="943.06" y2="363.06" stroke="#888" stroke-width="1.0" opacity="0.35"/>
<line x1="1136.39" y1="1136.39" x2="1136.39" y2="363.06" stroke="#555" stroke-width="1.5" opacity="0.6"/>
<line x1="363.06" y1="1136.39" x2="1136.39" y2="1136.39" stroke="#888" stroke-width="1.0" opacity="0.35"/>
<line x1="363.06" y1="943.06" x2="1136.39" y2="943.06" stroke="#888" stroke-width="1.0" opacity="0.35"/>
<line x1="363.06" y1="749.73" x2="1136.39" y2="749.73" stroke="#888" stroke-width="1.0" opacity="0.35"/>
<line x1="363.06" y1="556.39" x2="1136.39" y2="556.39" stroke="#888" stroke-width="1.0" opacity="0.35"/>
<line x1="363.06" y1="363.06" x2="1136.39" y2="363.06" stroke="#888" stroke-width="1.0" opacity="0.35"/>
<line x1="363.06" y1="1136.39" x2="363.06" y2="363.06" stroke="#888" stroke-width="1.0" opacity="0.35"/>
<line x1="556.39" y1="1136.39" x2="556.39" y2="363.06" stroke="#888" stroke-width="1.0" opacity="0.35"/>
<line x1="749.73" y1="1136.39" x2="749.73" y2="363.06" stroke="#888" stroke-width="1.0" opacity="0.35"/>
<line x1="943.06" y1="1136.39" x2="943.06" y2="363.06" stroke="#888" stroke-width="1.0" opacity="0.35"/>
<line x1="1136.39" y1="1136.39" x2="1136.39" y2="363.06" stroke="#888" stroke-width="1.0" opacity="0.35"/>
<circle cx="749.73" cy="749.73" r="290.0" fill="#FDFDF5"/>
<line x1="871.21" y1="487.03" x2="896.91" y2="501.44" stroke="#D32F2F" stroke-width="6.56" stroke-linecap="round"/>
<line x1="920.94" y1="516.13" x2="896.91" y2="501.44" stroke="#D32F2F" stroke-width="7.40" stroke-linecap="round"/>
<line x1="872.63" y1="492.63" x2="898.66" y2="508.32" stroke="#D32F2F" stroke-width="5.80" stroke-linecap="round"/>
<line x1="922.10" y1="520.73" x2="898.66" y2="508.32" stroke="#D32F2F" stroke-width="8.00" stroke-linecap="round"/>
<line x1="875.40" y1="503.43" x2="901.62" y2="519.80" stroke="#D32F2F" stroke-width="5.14" stroke-linecap="round"/>
<line x1="924.36" y1="529.55" x2="901.62" y2="519.80" stroke="#D32F2F" stroke-width="8.00" stroke-linecap="round"/>
<line x1="879.37" y1="518.72" x2="905.64" y2="535.18" stroke="#D32F2F" stroke-width="4.76" stroke-linecap="round"/>
<line x1="927.60" y1="541.99" x2="905.64" y2="535.18" stroke="#D32F2F" stroke-width="8.00" stroke-linecap="round"/>
<line x1="884.37" y1="537.59" x2="910.55" y2="553.59" stroke="#D32F2F" stroke-width="5.83" stroke-linecap="round"/>
<line x1="931.65" y1="557.31" x2="910.55" y2="553.59" stroke="#D32F2F" stroke-width="8.00" stroke-linecap="round"/>
<line x1="890.16" y1="559.11" x2="916.12" y2="574.22" stroke="#D32F2F" stroke-width="6.78" stroke-linecap="round"/>
<line x1="936.34" y1="574.76" x2="916.12" y2="574.22" stroke="#D32F2F" stroke-width="8.00" stroke-linecap="round"/>
<line x1="896.47" y1="582.43" x2="922.12" y2="596.33" stroke="#D32F2F" stroke-width="7.61" stroke-linecap="round"/>
<line x1="941.49" y1="593.75" x2="922.12" y2="596.33" stroke="#D32F2F" stroke-width="8.00" stroke-linecap="round"/>
<line x1="903.05" y1="606.81" x2="928.29" y2="619.36" stroke="#D32F2F" stroke-width="8.00" stroke-linecap="round"/>
<line x1="946.90" y1="613.82" x2="928.29" y2="619.36" stroke="#D32F2F" stroke-width="8.00" stroke-linecap="round"/>
<line x1="909.61" y1="631.70" x2="934.41" y2="642.88" stroke="#D32F2F" stroke-width="8.00" stroke-linecap="round"/>
<line x1="952.39" y1="634.64" x2="934.41" y2="642.88" stroke="#D32F2F" stroke-width="8.00" stroke-linecap="round"/>
<line x1="915.90" y1="656.67" x2="940.22" y2="666.61" stroke="#D32F2F" stroke-width="8.00" stroke-linecap="round"/>
<line x1="957.77" y1="656.03" x2="940.22" y2="666.61" stroke="#D32F2F" stroke-width="8.00" stroke-linecap="round"/>
<line x1="921.66" y1="681.46" x2="945.49" y2="690.38" stroke="#D32F2F" stroke-width="8.00" stroke-linecap="round"/>
<line x1="962.85" y1="677.88" x2="945.49" y2="690.38" stroke="#D32F2F" stroke-width="8.00" stroke-linecap="round"/>
<line x1="926.67" y1="705.91" x2="949.99" y2="714.09" stroke="#D32F2F" stroke-width="8.00" stroke-linecap="round"/>
<line x1="967.42" y1="700.15" x2="949.99" y2="714.09" stroke="#D32F2F" stroke-width="8.00" stroke-linecap="round"/>
<line x1="930.70" y1="729.93" x2="953.47" y2="737.71" stroke="#D32F2F" stroke-width="8.00" stroke-linecap="round"/>
<line x1="971.22" y1="722.84" x2="953.47" y2="737.71" stroke="#D32F2F" stroke-width="8.00" stroke-linecap="round"/>
<line x1="933.54" y1="753.49" x2="955.69" y2="761.22" stroke="#D32F2F" stroke-width="8.00" stroke-linecap="round"/>
<line x1="974.00" y1="745.96" x2="955.69" y2="761.22" stroke="#D32F2F" stroke-width="8.00" stroke-linecap="round"/>
<line x1="934.98" y1="776.61" x2="956.41" y2="784.64" stroke="#D32F2F" stroke-width="8.00" stroke-linecap="round"/>
<line x1="975.46" y1="769.52" x2="956.41" y2="784.64" stroke="#D32F2F" stroke-width="8.00" stroke-linecap="round"/>
<line x1="934.80" y1="799.30" x2="955.36" y2="807.98" stroke="#D32F2F" stroke-width="8.00" stroke-linecap="round"/>
<line x1="975.27" y1="793.54" x2="955.36" y2="807.98" stroke="#D32F2F" stroke-width="8.00" stroke-linecap="round"/>
<line x1="932.79" y1="821.58" x2="952.26" y2="831.22" stroke="#D32F2F" stroke-width="8.00" stroke-linecap="round"/>
<line x1="973.06" y1="817.99" x2="952.26" y2="831.22" stroke="#D32F2F" stroke-width="8.00" stroke-linecap="round"/>
<line x1="928.71" y1="843.43" x2="946.80" y2="854.32" stroke="#D32F2F" stroke-width="8.00" stroke-linecap="round"/>
<line x1="968.42" y1="842.78" x2="946.80" y2="854.32" stroke="#D32F2F" stroke-width="8.00" stroke-linecap="round"/>
<line x1="922.30" y1="864.81" x2="938.65" y2="877.17" stroke="#D32F2F" stroke-width="8.00" stroke-linecap="round"/>
<line x1="960.93" y1="867.75" x2="938.65" y2="877.17" stroke="#D32F2F" stroke-width="8.00" stroke-linecap="round"/>
<line x1="913.29" y1="885.64" x2="927.49" y2="899.55" stroke="#D32F2F" stroke-width="8.00" stroke-linecap="round"/>
<line x1="950.15" y1="892.64" x2="927.49" y2="899.55" stroke="#D32F2F" stroke-width="8.00" stroke-linecap="round"/>
<line x1="901.39" y1="905.70" x2="913.00" y2="921.15" stroke="#D32F2F" stroke-width="8.00" stroke-linecap="round"/>
<line x1="935.68" y1="917.02" x2="913.00" y2="921.15" stroke="#D32F2F" stroke-width="8.00" stroke-linecap="round"/>
<line x1="886.33" y1="924.69" x2="894.92" y2="941.50" stroke="#D32F2F" stroke-width="8.00" stroke-linecap="round"/>
<line x1="917.19" y1="940.34" x2="894.92" y2="941.50" stroke="#D32F2F" stroke-width="8.00" stroke-linecap="round"/>
<line x1="867.95" y1="942.15" x2="873.12" y2="959.99" stroke="#D32F2F" stroke-width="8.00" stroke-linecap="round"/>
<line x1="894.53" y1="961.86" x2="873.12" y2="959.99" stroke="#D32F2F" stroke-width="8.00" stroke-linecap="round"/>
<line x1="846.21" y1="957.46" x2="847.68" y2="975.86" stroke="#D32F2F" stroke-width="8.00" stroke-linecap="round"/>
<line x1="867.74" y1="980.73" x2="847.68" y2="975.86" stroke="#D32F2F" stroke-width="8.00" stroke-linecap="round"/>
<line x1="821.33" y1="969.90" x2="818.96" y2="988.28" stroke="#D32F2F" stroke-width="8.00" stroke-linecap="round"/>
<line x1="837.17" y1="996.02" x2="818.96" y2="988.28" stroke="#D32F2F" stroke-width="8.00" stroke-linecap="round"/>
<line x1="793.85" y1="978.73" x2="787.65" y2="996.47" stroke="#D32F2F" stroke-width="8.00" stroke-linecap="round"/>
<line x1="803.54" y1="1006.82" x2="787.65" y2="996.47" stroke="#D32F2F" stroke-width="8.00" stroke-linecap="round"/>
<line x1="764.64" y1="983.32" x2="754.78" y2="999.82" stroke="#D32F2F" stroke-width="8.00" stroke-linecap="round"/>
<line x1="767.90" y1="1012.43" x2="754.78" y2="999.82" stroke="#D32F2F" stroke-width="8.00" stroke-linecap="round"/>
<line x1="734.82" y1="983.32" x2="721.58" y2="998.01" stroke="#D32F2F" stroke-width="8.00" stroke-linecap="round"/>
<line x1="731.55" y1="1012.43" x2="721.58" y2="998.01" stroke="#D32F2F" stroke-width="8.00" stroke-linecap="round"/>
<line x1="705.60" y1="978.73" x2="689.39" y2="991.13" stroke="#D32F2F" stroke-width="8.00" stroke-linecap="round"/>
<line x1="695.91" y1="1006.82" x2="689.39" y2="991.13" stroke="#D32F2F" stroke-width="8.00" stroke-linecap="round"/>
<line x1="678.12" y1="969.90" x2="659.37" y2="979.65" stroke="#D32F2F" stroke-width="8.00" stroke-linecap="round"/>
<line x1="662.28" y1="996.02" x2="659.37" y2="979.65" stroke="#D32F2F" stroke-width="8.00" stroke-linecap="round"/>
<line x1="653.24" y1="957.46" x2="632.43" y2="964.28" stroke="#D32F2F" stroke-width="8.00" stroke-linecap="round"/>
<line x1="631.72" y1="980.73" x2="632.43" y2="964.28" stroke="#D32F2F" stroke-width="8.00" stroke-linecap="round"/>
<line x1="631.50" y1="942.15" x2="609.14" y2="945.86" stroke="#D32F2F" stroke-width="8.00" stroke-linecap="round"/>
<line x1="604.92" y1="961.86" x2="609.14" y2="945.86" stroke="#D32F2F" stroke-width="8.00" stroke-linecap="round"/>
<line x1="613.12" y1="924.69" x2="589.70" y2="925.24" stroke="#D32F2F" stroke-width="8.00" stroke-linecap="round"/>
<line x1="582.26" y1="940.34" x2="589.70" y2="925.24" stroke="#D32F2F" stroke-width="8.00" stroke-linecap="round"/>
<line x1="598.07" y1="905.70" x2="574.08" y2="903.12" stroke="#D32F2F" stroke-width="8.00" stroke-linecap="round"/>
<line x1="563.78" y1="917.02" x2="574.08" y2="903.12" stroke="#D32F2F" stroke-width="8.00" stroke-linecap="round"/>
<line x1="586.17" y1="885.64" x2="562.06" y2="880.10" stroke="#D32F2F" stroke-width="8.00" stroke-linecap="round"/>
<line x1="549.30" y1="892.64" x2="562.06" y2="880.10" stroke="#D32F2F" stroke-width="8.00" stroke-linecap="round"/>
<line x1="577.15" y1="864.81" x2="553.32" y2="856.58" stroke="#D32F2F" stroke-width="8.00" stroke-linecap="round"/>
<line x1="538.52" y1="867.75" x2="553.32" y2="856.58" stroke="#D32F2F" stroke-width="8.00" stroke-linecap="round"/>
<line x1="570.74" y1="843.43" x2="547.48" y2="832.84" stroke="#D32F2F" stroke-width="8.00" stroke-linecap="round"/>
<line x1="531.03" y1="842.78" x2="547.48" y2="832.84" stroke="#D32F2F" stroke-width="8.00" stroke-linecap="round"/>
<line x1="566.66" y1="821.58" x2="544.17" y2="809.07" stroke="#D32F2F" stroke-width="8.00" stroke-linecap="round"/>
<line x1="526.39" y1="817.99" x2="544.17" y2="809.07" stroke="#D32F2F" stroke-width="8.00" stroke-linecap="round"/>
<line x1="564.65" y1="799.30" x2="543.02" y2="785.36" stroke="#D32F2F" stroke-width="8.00" stroke-linecap="round"/>
<line x1="524.18" y1="793.54" x2="543.02" y2="785.36" stroke="#D32F2F" stroke-width="8.00" stroke-linecap="round"/>
<line x1="564.47" y1="776.61" x2="543.70" y2="761.75" stroke="#D32F2F" stroke-width="8.00" stroke-linecap="round"/>
<line x1="523.99" y1="769.52" x2="543.70" y2="761.75" stroke="#D32F2F" stroke-width="8.00" stroke-linecap="round"/>
<line x1="565.91" y1="753.49" x2="545.90" y2="738.23" stroke="#D32F2F" stroke-width="8.00" stroke-linecap="round"/>
<line x1="525.45" y1="745.96" x2="545.90" y2="738.23" stroke="#D32F2F" stroke-width="8.00" stroke-linecap="round"/>
<line x1="568.75" y1="729.93" x2="549.32" y2="714.81" stroke="#D32F2F" stroke-width="8.00" stroke-linecap="round"/>
<line x1="528.23" y1="722.84" x2="549.32" y2="714.81" stroke="#D32F2F" stroke-width="8.00" stroke-linecap="round"/>
<line x1="572.78" y1="705.91" x2="553.72" y2="691.48" stroke="#D32F2F" stroke-width="8.00" stroke-linecap="round"/>
<line x1="532.04" y1="700.15" x2="553.72" y2="691.48" stroke="#D32F2F" stroke-width="8.00" stroke-linecap="round"/>
<line x1="577.79" y1="681.46" x2="558.84" y2="668.23" stroke="#D32F2F" stroke-width="8.00" stroke-linecap="round"/>
<line x1="536.60" y1="677.88" x2="558.84" y2="668.23" stroke="#D32F2F" stroke-width="8.00" stroke-linecap="round"/>
<line x1="583.55" y1="656.67" x2="564.47" y2="645.13" stroke="#D32F2F" stroke-width="8.00" stroke-linecap="round"/>
<line x1="541.68" y1="656.03" x2="564.47" y2="645.13" stroke="#D32F2F" stroke-width="8.00" stroke-linecap="round"/>
<line x1="589.84" y1="631.70" x2="570.38" y2="622.28" stroke="#D32F2F" stroke-width="8.00" stroke-linecap="round"/>
<line x1="547.06" y1="634.64" x2="570.38" y2="622.28" stroke="#D32F2F" stroke-width="8.00" stroke-linecap="round"/>
<line x1="596.41" y1="606.81" x2="576.37" y2="599.90" stroke="#D32F2F" stroke-width="8.00" stroke-linecap="round"/>
<line x1="552.56" y1="613.82" x2="576.37" y2="599.90" stroke="#D32F2F" stroke-width="7.96" stroke-linecap="round"/>
<line x1="602.98" y1="582.43" x2="582.23" y2="578.30" stroke="#D32F2F" stroke-width="8.00" stroke-linecap="round"/>
<line x1="557.96" y1="593.75" x2="582.23" y2="578.30" stroke="#D32F2F" stroke-width="7.28" stroke-linecap="round"/>
<line x1="609.30" y1="559.11" x2="587.73" y2="557.95" stroke="#D32F2F" stroke-width="8.00" stroke-linecap="round"/>
<line x1="563.11" y1="574.76" x2="587.73" y2="557.95" stroke="#D32F2F" stroke-width="6.48" stroke-linecap="round"/>
<line x1="615.08" y1="537.59" x2="592.68" y2="539.47" stroke="#D32F2F" stroke-width="8.00" stroke-linecap="round"/>
<line x1="567.80" y1="557.31" x2="592.68" y2="539.47" stroke="#D32F2F" stroke-width="5.55" stroke-linecap="round"/>
<line x1="620.08" y1="518.72" x2="596.85" y2="523.60" stroke="#D32F2F" stroke-width="8.00" stroke-linecap="round"/>
<line x1="571.86" y1="541.99" x2="596.85" y2="523.60" stroke="#D32F2F" stroke-width="4.54" stroke-linecap="round"/>
<line x1="624.06" y1="503.43" x2="600.07" y2="511.17" stroke="#D32F2F" stroke-width="8.00" stroke-linecap="round"/>
<line x1="575.09" y1="529.55" x2="600.07" y2="511.17" stroke="#D32F2F" stroke-width="5.01" stroke-linecap="round"/>
<line x1="626.82" y1="492.63" x2="602.15" y2="502.98" stroke="#D32F2F" stroke-width="8.00" stroke-linecap="round"/>
<line x1="577.35" y1="520.73" x2="602.15" y2="502.98" stroke="#D32F2F" stroke-width="5.74" stroke-linecap="round"/>
<line x1="628.24" y1="487.03" x2="603.00" y2="499.64" stroke="#D32F2F" stroke-width="7.39" stroke-linecap="round"/>
<line x1="578.52" y1="516.13" x2="603.00" y2="499.64" stroke="#D32F2F" stroke-width="6.55" stroke-linecap="round"/>
<line x1="871.21" y1="487.03" x2="896.91" y2="501.44" stroke="#D32F2F" stroke-width="6.56" stroke-linecap="round"/>
<line x1="920.94" y1="516.13" x2="896.91" y2="501.44" stroke="#D32F2F" stroke-width="7.40" stroke-linecap="round"/>
<line x1="872.63" y1="492.63" x2="898.66" y2="508.32" stroke="#D32F2F" stroke-width="5.80" stroke-linecap="round"/>
<line x1="922.10" y1="520.73" x2="898.66" y2="508.32" stroke="#D32F2F" stroke-width="8.00" stroke-linecap="round"/>
<line x1="875.40" y1="503.43" x2="901.62" y2="519.80" stroke="#D32F2F" stroke-width="5.14" stroke-linecap="round"/>
<line x1="924.36" y1="529.55" x2="901.62" y2="519.80" stroke="#D32F2F" stroke-width="8.00" stroke-linecap="round"/>
<line x1="879.37" y1="518.72" x2="905.64" y2="535.18" stroke="#D32F2F" stroke-width="4.76" stroke-linecap="round"/>
<line x1="927.60" y1="541.99" x2="905.64" y2="535.18" stroke="#D32F2F" stroke-width="8.00" stroke-linecap="round"/>
<line x1="884.37" y1="537.59" x2="910.55" y2="553.59" stroke="#D32F2F" stroke-width="5.83" stroke-linecap="round"/>
<line x1="931.65" y1="557.31" x2="910.55" y2="553.59" stroke="#D32F2F" stroke-width="8.00" stroke-linecap="round"/>
<line x1="890.16" y1="559.11" x2="916.12" y2="574.22" stroke="#D32F2F" stroke-width="6.78" stroke-linecap="round"/>
<line x1="936.34" y1="574.76" x2="916.12" y2="574.22" stroke="#D32F2F" stroke-width="8.00" stroke-linecap="round"/>
<line x1="896.47" y1="582.43" x2="922.12" y2="596.33" stroke="#D32F2F" stroke-width="7.61" stroke-linecap="round"/>
<line x1="941.49" y1="593.75" x2="922.12" y2="596.33" stroke="#D32F2F" stroke-width="8.00" stroke-linecap="round"/>
<line x1="903.05" y1="606.81" x2="928.29" y2="619.36" stroke="#D32F2F" stroke-width="8.00" stroke-linecap="round"/>
<line x1="946.90" y1="613.82" x2="928.29" y2="619.36" stroke="#D32F2F" stroke-width="8.00" stroke-linecap="round"/>
<line x1="909.61" y1="631.70" x2="934.41" y2="642.88" stroke="#D32F2F" stroke-width="8.00" stroke-linecap="round"/>
<line x1="952.39" y1="634.64" x2="934.41" y2="642.88" stroke="#D32F2F" stroke-width="8.00" stroke-linecap="round"/>
<line x1="915.90" y1="656.67" x2="940.22" y2="666.61" stroke="#D32F2F" stroke-width="8.00" stroke-linecap="round"/>
<line x1="957.77" y1="656.03" x2="940.22" y2="666.61" stroke="#D32F2F" stroke-width="8.00" stroke-linecap="round"/>
<line x1="921.66" y1="681.46" x2="945.49" y2="690.38" stroke="#D32F2F" stroke-width="8.00" stroke-linecap="round"/>
<line x1="962.85" y1="677.88" x2="945.49" y2="690.38" stroke="#D32F2F" stroke-width="8.00" stroke-linecap="round"/>
<line x1="926.67" y1="705.91" x2="949.99" y2="714.09" stroke="#D32F2F" stroke-width="8.00" stroke-linecap="round"/>
<line x1="967.42" y1="700.15" x2="949.99" y2="714.09" stroke="#D32F2F" stroke-width="8.00" stroke-linecap="round"/>
<line x1="930.70" y1="729.93" x2="953.47" y2="737.71" stroke="#D32F2F" stroke-width="8.00" stroke-linecap="round"/>
<line x1="971.22" y1="722.84" x2="953.47" y2="737.71" stroke="#D32F2F" stroke-width="8.00" stroke-linecap="round"/>
<line x1="933.54" y1="753.49" x2="955.69" y2="761.22" stroke="#D32F2F" stroke-width="8.00" stroke-linecap="round"/>
<line x1="974.00" y1="745.96" x2="955.69" y2="761.22" stroke="#D32F2F" stroke-width="8.00" stroke-linecap="round"/>
<line x1="934.98" y1="776.61" x2="956.41" y2="784.64" stroke="#D32F2F" stroke-width="8.00" stroke-linecap="round"/>
<line x1="975.46" y1="769.52" x2="956.41" y2="784.64" stroke="#D32F2F" stroke-width="8.00" stroke-linecap="round"/>
<line x1="934.80" y1="799.30" x2="955.36" y2="807.98" stroke="#D32F2F" stroke-width="8.00" stroke-linecap="round"/>
<line x1="975.27" y1="793.54" x2="955.36" y2="807.98" stroke="#D32F2F" stroke-width="8.00" stroke-linecap="round"/>
<line x1="932.79" y1="821.58" x2="952.26" y2="831.22" stroke="#D32F2F" stroke-width="8.00" stroke-linecap="round"/>
<line x1="973.06" y1="817.99" x2="952.26" y2="831.22" stroke="#D32F2F" stroke-width="8.00" stroke-linecap="round"/>
<line x1="928.71" y1="843.43" x2="946.80" y2="854.32" stroke="#D32F2F" stroke-width="8.00" stroke-linecap="round"/>
<line x1="968.42" y1="842.78" x2="946.80" y2="854.32" stroke="#D32F2F" stroke-width="8.00" stroke-linecap="round"/>
<line x1="922.30" y1="864.81" x2="938.65" y2="877.17" stroke="#D32F2F" stroke-width="8.00" stroke-linecap="round"/>
<line x1="960.93" y1="867.75" x2="938.65" y2="877.17" stroke="#D32F2F" stroke-width="8.00" stroke-linecap="round"/>
<line x1="913.29" y1="885.64" x2="927.49" y2="899.55" stroke="#D32F2F" stroke-width="8.00" stroke-linecap="round"/>
<line x1="950.15" y1="892.64" x2="927.49" y2="899.55" stroke="#D32F2F" stroke-width="8.00" stroke-linecap="round"/>
<line x1="901.39" y1="905.70" x2="913.00" y2="921.15" stroke="#D32F2F" stroke-width="8.00" stroke-linecap="round"/>
<line x1="935.68" y1="917.02" x2="913.00" y2="921.15" stroke="#D32F2F" stroke-width="8.00" stroke-linecap="round"/>
<line x1="886.33" y1="924.69" x2="894.92" y2="941.50" stroke="#D32F2F" stroke-width="8.00" stroke-linecap="round"/>
<line x1="917.19" y1="940.34" x2="894.92" y2="941.50" stroke="#D32F2F" stroke-width="8.00" stroke-linecap="round"/>
<line x1="867.95" y1="942.15" x2="873.12" y2="959.99" stroke="#D32F2F" stroke-width="8.00" stroke-linecap="round"/>
<line x1="894.53" y1="961.86" x2="873.12" y2="959.99" stroke="#D32F2F" stroke-width="8.00" stroke-linecap="round"/>
<line x1="846.21" y1="957.46" x2="847.68" y2="975.86" stroke="#D32F2F" stroke-width="8.00" stroke-linecap="round"/>
<line x1="867.74" y1="980.73" x2="847.68" y2="975.86" stroke="#D32F2F" stroke-width="8.00" stroke-linecap="round"/>
<line x1="821.33" y1="969.90" x2="818.96" y2="988.28" stroke="#D32F2F" stroke-width="8.00" stroke-linecap="round"/>
<line x1="837.17" y1="996.02" x2="818.96" y2="988.28" stroke="#D32F2F" stroke-width="8.00" stroke-linecap="round"/>
<line x1="793.85" y1="978.73" x2="787.65" y2="996.47" stroke="#D32F2F" stroke-width="8.00" stroke-linecap="round"/>
<line x1="803.54" y1="1006.82" x2="787.65" y2="996.47" stroke="#D32F2F" stroke-width="8.00" stroke-linecap="round"/>
<line x1="764.64" y1="983.32" x2="754.78" y2="999.82" stroke="#D32F2F" stroke-width="8.00" stroke-linecap="round"/>
<line x1="767.90" y1="1012.43" x2="754.78" y2="999.82" stroke="#D32F2F" stroke-width="8.00" stroke-linecap="round"/>
<line x1="734.82" y1="983.32" x2="721.58" y2="998.01" stroke="#D32F2F" stroke-width="8.00" stroke-linecap="round"/>
<line x1="731.55" y1="1012.43" x2="721.58" y2="998.01" stroke="#D32F2F" stroke-width="8.00" stroke-linecap="round"/>
<line x1="705.60" y1="978.73" x2="689.39" y2="991.13" stroke="#D32F2F" stroke-width="8.00" stroke-linecap="round"/>
<line x1="695.91" y1="1006.82" x2="689.39" y2="991.13" stroke="#D32F2F" stroke-width="8.00" stroke-linecap="round"/>
<line x1="678.12" y1="969.90" x2="659.37" y2="979.65" stroke="#D32F2F" stroke-width="8.00" stroke-linecap="round"/>
<line x1="662.28" y1="996.02" x2="659.37" y2="979.65" stroke="#D32F2F" stroke-width="8.00" stroke-linecap="round"/>
<line x1="653.24" y1="957.46" x2="632.43" y2="964.28" stroke="#D32F2F" stroke-width="8.00" stroke-linecap="round"/>
<line x1="631.72" y1="980.73" x2="632.43" y2="964.28" stroke="#D32F2F" stroke-width="8.00" stroke-linecap="round"/>
<line x1="631.50" y1="942.15" x2="609.14" y2="945.86" stroke="#D32F2F" stroke-width="8.00" stroke-linecap="round"/>
<line x1="604.92" y1="961.86" x2="609.14" y2="945.86" stroke="#D32F2F" stroke-width="8.00" stroke-linecap="round"/>
<line x1="613.12" y1="924.69" x2="589.70" y2="925.24" stroke="#D32F2F" stroke-width="8.00" stroke-linecap="round"/>
<line x1="582.26" y1="940.34" x2="589.70" y2="925.24" stroke="#D32F2F" stroke-width="8.00" stroke-linecap="round"/>
<line x1="598.07" y1="905.70" x2="574.08" y2="903.12" stroke="#D32F2F" stroke-width="8.00" stroke-linecap="round"/>
<line x1="563.78" y1="917.02" x2="574.08" y2="903.12" stroke="#D32F2F" stroke-width="8.00" stroke-linecap="round"/>
<line x1="586.17" y1="885.64" x2="562.06" y2="880.10" stroke="#D32F2F" stroke-width="8.00" stroke-linecap="round"/>
<line x1="549.30" y1="892.64" x2="562.06" y2="880.10" stroke="#D32F2F" stroke-width="8.00" stroke-linecap="round"/>
<line x1="577.15" y1="864.81" x2="553.32" y2="856.58" stroke="#D32F2F" stroke-width="8.00" stroke-linecap="round"/>
<line x1="538.52" y1="867.75" x2="553.32" y2="856.58" stroke="#D32F2F" stroke-width="8.00" stroke-linecap="round"/>
<line x1="570.74" y1="843.43" x2="547.48" y2="832.84" stroke="#D32F2F" stroke-width="8.00" stroke-linecap="round"/>
<line x1="531.03" y1="842.78" x2="547.48" y2="832.84" stroke="#D32F2F" stroke-width="8.00" stroke-linecap="round"/>
<line x1="566.66" y1="821.58" x2="544.17" y2="809.07" stroke="#D32F2F" stroke-width="8.00" stroke-linecap="round"/>
<line x1="526.39" y1="817.99" x2="544.17" y2="809.07" stroke="#D32F2F" stroke-width="8.00" stroke-linecap="round"/>
<line x1="564.65" y1="799.30" x2="543.02" y2="785.36" stroke="#D32F2F" stroke-width="8.00" stroke-linecap="round"/>
<line x1="524.18" y1="793.54" x2="543.02" y2="785.36" stroke="#D32F2F" stroke-width="8.00" stroke-linecap="round"/>
<line x1="564.47" y1="776.61" x2="543.70" y2="761.75" stroke="#D32F2F" stroke-width="8.00" stroke-linecap="round"/>
<line x1="523.99" y1="769.52" x2="543.70" y2="761.75" stroke="#D32F2F" stroke-width="8.00" stroke-linecap="round"/>
<line x1="565.91" y1="753.49" x2="545.90" y2="738.23" stroke="#D32F2F" stroke-width="8.00" stroke-linecap="round"/>
<line x1="525.45" y1="745.96" x2="545.90" y2="738.23" stroke="#D32F2F" stroke-width="8.00" stroke-linecap="round"/>
<line x1="568.75" y1="729.93" x2="549.32" y2="714.81" stroke="#D32F2F" stroke-width="8.00" stroke-linecap="round"/>
<line x1="528.23" y1="722.84" x2="549.32" y2="714.81" stroke="#D32F2F" stroke-width="8.00" stroke-linecap="round"/>
<line x1="572.78" y1="705.91" x2="553.72" y2="691.48" stroke="#D32F2F" stroke-width="8.00" stroke-linecap="round"/>
<line x1="532.04" y1="700.15" x2="553.72" y2="691.48" stroke="#D32F2F" stroke-width="8.00" stroke-linecap="round"/>
<line x1="577.79" y1="681.46" x2="558.84" y2="668.23" stroke="#D32F2F" stroke-width="8.00" stroke-linecap="round"/>
<line x1="536.60" y1="677.88" x2="558.84" y2="668.23" stroke="#D32F2F" stroke-width="8.00" stroke-linecap="round"/>
<line x1="583.55" y1="656.67" x2="564.47" y2="645.13" stroke="#D32F2F" stroke-width="8.00" stroke-linecap="round"/>
<line x1="541.68" y1="656.03" x2="564.47" y2="645.13" stroke="#D32F2F" stroke-width="8.00" stroke-linecap="round"/>
<line x1="589.84" y1="631.70" x2="570.38" y2="622.28" stroke="#D32F2F" stroke-width="8.00" stroke-linecap="round"/>
<line x1="547.06" y1="634.64" x2="570.38" y2="622.28" stroke="#D32F2F" stroke-width="8.00" stroke-linecap="round"/>
<line x1="596.41" y1="606.81" x2="576.37" y2="599.90" stroke="#D32F2F" stroke-width="8.00" stroke-linecap="round"/>
<line x1="552.56" y1="613.82" x2="576.37" y2="599.90" stroke="#D32F2F" stroke-width="7.96" stroke-linecap="round"/>
<line x1="602.98" y1="582.43" x2="582.23" y2="578.30" stroke="#D32F2F" stroke-width="8.00" stroke-linecap="round"/>
<line x1="557.96" y1="593.75" x2="582.23" y2="578.30" stroke="#D32F2F" stroke-width="7.28" stroke-linecap="round"/>
<line x1="609.30" y1="559.11" x2="587.73" y2="557.95" stroke="#D32F2F" stroke-width="8.00" stroke-linecap="round"/>
<line x1="563.11" y1="574.76" x2="587.73" y2="557.95" stroke="#D32F2F" stroke-width="6.48" stroke-linecap="round"/>
<line x1="615.08" y1="537.59" x2="592.68" y2="539.47" stroke="#D32F2F" stroke-width="8.00" stroke-linecap="round"/>
<line x1="567.80" y1="557.31" x2="592.68" y2="539.47" stroke="#D32F2F" stroke-width="5.55" stroke-linecap="round"/>
<line x1="620.08" y1="518.72" x2="596.85" y2="523.60" stroke="#D32F2F" stroke-width="8.00" stroke-linecap="round"/>
<line x1="571.86" y1="541.99" x2="596.85" y2="523.60" stroke="#D32F2F" stroke-width="4.54" stroke-linecap="round"/>
<line x1="624.06" y1="503.43" x2="600.07" y2="511.17" stroke="#D32F2F" stroke-width="8.00" stroke-linecap="round"/>
<line x1="575.09" y1="529.55" x2="600.07" y2="511.17" stroke="#D32F2F" stroke-width="5.01" stroke-linecap="round"/>
<line x1="626.82" y1="492.63" x2="602.15" y2="502.98" stroke="#D32F2F" stroke-width="8.00" stroke-linecap="round"/>
<line x1="577.35" y1="520.73" x2="602.15" y2="502.98" stroke="#D32F2F" stroke-width="5.74" stroke-linecap="round"/>
<line x1="628.24" y1="487.03" x2="603.00" y2="499.64" stroke="#D32F2F" stroke-width="7.39" stroke-linecap="round"/>
<line x1="578.52" y1="516.13" x2="603.00" y2="499.64" stroke="#D32F2F" stroke-width="6.55" stroke-linecap="round"/>
<circle cx="749.73" cy="749.73" r="290.0" fill="none" stroke="#ccc" stroke-width="0.5"/>
<line x1="363.06" y1="1136.39" x2="1136.39" y2="1136.39" stroke="#888" stroke-width="1.0" opacity="0.35"/>
<line x1="363.06" y1="943.06" x2="1136.39" y2="943.06" stroke="#888" stroke-width="1.0" opacity="0.35"/>
<line x1="363.06" y1="749.73" x2="1136.39" y2="749.73" stroke="#D32F2F" stroke-width="2.0" opacity="0.85"/>
<line x1="363.06" y1="556.39" x2="1136.39" y2="556.39" stroke="#888" stroke-width="1.0" opacity="0.35"/>
<line x1="363.06" y1="363.06" x2="1136.39" y2="363.06" stroke="#888" stroke-width="1.0" opacity="0.35"/>
<line x1="363.06" y1="1136.39" x2="363.06" y2="1136.39" stroke="#555" stroke-width="1.5" opacity="0.6"/>
<line x1="363.06" y1="943.06" x2="363.06" y2="943.06" stroke="#888" stroke-width="1.0" opacity="0.35"/>
<line x1="363.06" y1="749.73" x2="363.06" y2="749.73" stroke="#888" stroke-width="1.0" opacity="0.35"/>
<line x1="363.06" y1="556.39" x2="363.06" y2="556.39" stroke="#888" stroke-width="1.0" opacity="0.35"/>
<line x1="363.06" y1="363.06" x2="363.06" y2="363.06" stroke="#555" stroke-width="1.5" opacity="0.6"/>
<line x1="556.39" y1="1136.39" x2="556.39" y2="1136.39" stroke="#888" stroke-width="1.0" opacity="0.35"/>
<line x1="556.39" y1="943.06" x2="556.39" y2="943.06" stroke="#888" stroke-width="1.0" opacity="0.35"/>
<line x1="556.39" y1="749.73" x2="556.39" y2="749.73" stroke="#888" stroke-width="1.0" opacity="0.35"/>
<line x1="556.39" y1="556.39" x2="556.39" y2="556.39" stroke="#888" stroke-width="1.0" opacity="0.35"/>
<line x1="556.39" y1="363.06" x2="556.39" y2="363.06" stroke="#888" stroke-width="1.0" opacity="0.35"/>
<line x1="749.73" y1="1136.39" x2="749.73" y2="1136.39" stroke="#888" stroke-width="1.0" opacity="0.35"/>
<line x1="749.73" y1="943.06" x2="749.73" y2="943.06" stroke="#888" stroke-width="1.0" opacity="0.35"/>
<line x1="749.73" y1="749.73" x2="749.73" y2="749.73" stroke="#2E7D32" stroke-width="2.0" opacity="0.85"/>
<line x1="749.73" y1="556.39" x2="749.73" y2="556.39" stroke="#888" stroke-width="1.0" opacity="0.35"/>
<line x1="749.73" y1="363.06" x2="749.73" y2="363.06" stroke="#888" stroke-width="1.0" opacity="0.35"/>
<line x1="943.06" y1="1136.39" x2="943.06" y2="1136.39" stroke="#888" stroke-width="1.0" opacity="0.35"/>
<line x1="943.06" y1="943.06" x2="943.06" y2="943.06" stroke="#888" stroke-width="1.0" opacity="0.35"/>
<line x1="943.06" y1="749.73" x2="943.06" y2="749.73" stroke="#888" stroke-width="1.0" opacity="0.35"/>
<line x1="943.06" y1="556.39" x2="943.06" y2="556.39" stroke="#888" stroke-width="1.0" opacity="0.35"/>
<line x1="943.06" y1="363.06" x2="943.06" y2="363.06" stroke="#888" stroke-width="1.0" opacity="0.35"/>
<line x1="1136.39" y1="1136.39" x2="1136.39" y2="1136.39" stroke="#555" stroke-width="1.5" opacity="0.6"/>
<line x1="1136.39" y1="943.06" x2="1136.39" y2="943.06" stroke="#888" stroke-width="1.0" opacity="0.35"/>
<line x1="1136.39" y1="749.73" x2="1136.39" y2="749.73" stroke="#888" stroke-width="1.0" opacity="0.35"/>
<line x1="1136.39" y1="556.39" x2="1136.39" y2="556.39" stroke="#888" stroke-width="1.0" opacity="0.35"/>
<line x1="1136.39" y1="363.06" x2="1136.39" y2="363.06" stroke="#555" stroke-width="1.5" opacity="0.6"/>
<line x1="363.06" y1="1136.39" x2="363.06" y2="363.06" stroke="#888" stroke-width="1.0" opacity="0.35"/>
<line x1="556.39" y1="1136.39" x2="556.39" y2="363.06" stroke="#888" stroke-width="1.0" opacity="0.35"/>
<line x1="749.73" y1="1136.39" x2="749.73" y2="363.06" stroke="#1565C0" stroke-width="2.0" opacity="0.85"/>
<line x1="943.06" y1="1136.39" x2="943.06" y2="363.06" stroke="#888" stroke-width="1.0" opacity="0.35"/>
<line x1="1136.39" y1="1136.39" x2="1136.39" y2="363.06" stroke="#888" stroke-width="1.0" opacity="0.35"/>
<line x1="363.06" y1="1136.39" x2="1136.39" y2="1136.39" stroke="#888" stroke-width="1.0" opacity="0.35"/>
<line x1="363.06" y1="943.06" x2="1136.39" y2="943.06" stroke="#888" stroke-width="1.0" opacity="0.35"/>
<line x1="363.06" y1="749.73" x2="1136.39" y2="749.73" stroke="#888" stroke-width="1.0" opacity="0.35"/>
<line x1="363.06" y1="556.39" x2="1136.39" y2="556.39" stroke="#888" stroke-width="1.0" opacity="0.35"/>
<line x1="363.06" y1="363.06" x2="1136.39" y2="363.06" stroke="#888" stroke-width="1.0" opacity="0.35"/>
<line x1="363.06" y1="1136.39" x2="363.06" y2="363.06" stroke="#888" stroke-width="1.0" opacity="0.35"/>
<line x1="556.39" y1="1136.39" x2="556.39" y2="363.06" stroke="#888" stroke-width="1.0" opacity="0.35"/>
<line x1="749.73" y1="1136.39" x2="749.73" y2="363.06" stroke="#888" stroke-width="1.0" opacity="0.35"/>
<line x1="943.06" y1="1136.39" x2="943.06" y2="363.06" stroke="#888" stroke-width="1.0" opacity="0.35"/>
<line x1="1136.39" y1="1136.39" x2="1136.39" y2="363.06" stroke="#888" stroke-width="1.0" opacity="0.35"/>
<line x1="363.06" y1="1136.39" x2="1136.39" y2="1136.39" stroke="#555" stroke-width="1.5" opacity="0.6"/>
<line x1="363.06" y1="943.06" x2="1136.39" y2="943.06" stroke="#888" stroke-width="1.0" opacity="0.35"/>
<line x1="363.06" y1="749.73" x2="1136.39" y2="749.73" stroke="#888" stroke-width="1.0" opacity="0.35"/>
<line x1="363.06" y1="556.39" x2="1136.39" y2="556.39" stroke="#888" stroke-width="1.0" opacity="0.35"/>
<line x1="363.06" y1="363.06" x2="1136.39" y2="363.06" stroke="#555" stroke-width="1.5" opacity="0.6"/>
<line x1="363.06" y1="1136.39" x2="363.06" y2="363.06" stroke="#555" stroke-width="1.5" opacity="0.6"/>
<line x1="556.39" y1="1136.39" x2="556.39" y2="363.06" stroke="#888" stroke-width="1.0" opacity="0.35"/>
<line x1="749.73" y1="1136.39" x2="749.73" y2="363.06" stroke="#888" stroke-width="1.0" opacity="0.35"/>
<line x1="943.06" y1="1136.39" x2="943.06" y2="363.06" stroke="#888" stroke-width="1.0" opacity="0.35"/>
<line x1="1136.39" y1="1136.39" x2="1136.39" y2="363.06" stroke="#555" stroke-width="1.5" opacity="0.6"/>
</svg>