<svg width="2169" height="2169" viewBox="0 0 2169.1789 2169.1789" xmlns="http://www.w3.org/2000/svg">
<line x1="944.53" y1="1009.53" x2="804.47" y2="934.47" stroke="#A1A1AA" stroke-width="5" opacity="0.9"/>
<line x1="1336.89" y1="1012.09" x2="1589.20" y2="939.59" stroke="#A1A1AA" stroke-width="5" opacity="0.9"/>
<line x1="1142.09" y1="1625.74" x2="1113.34" y2="1355.16" stroke="#A1A1AA" stroke-width="5" opacity="0.9"/>
<circle cx="1084.59" cy="1084.59" r="290.0" fill="#FDFDF5"/>
<line x1="1353.20" y1="1100.20" x2="1360.26" y2="1076.22" stroke="#D32F2F" stroke-width="8.00" stroke-linecap="round"/>
<line x1="1368.11" y1="1072.58" x2="1360.26" y2="1076.22" stroke="#D32F2F" stroke-width="8.00" stroke-linecap="round"/>
<line x1="1349.10" y1="1079.30" x2="1355.30" y2="1055.41" stroke="#D32F2F" stroke-width="8.00" stroke-linecap="round"/>
<line x1="1364.09" y1="1052.08" x2="1355.30" y2="1055.41" stroke="#D32F2F" stroke-width="8.00" stroke-linecap="round"/>
<line x1="1343.12" y1="1057.85" x2="1348.66" y2="1034.46" stroke="#D32F2F" stroke-width="8.00" stroke-linecap="round"/>
<line x1="1358.45" y1="1031.81" x2="1348.66" y2="1034.46" stroke="#D32F2F" stroke-width="8.00" stroke-linecap="round"/>
<line x1="1335.27" y1="1035.72" x2="1340.40" y2="1013.25" stroke="#D32F2F" stroke-width="8.00" stroke-linecap="round"/>
<line x1="1351.30" y1="1011.65" x2="1340.40" y2="1013.25" stroke="#D32F2F" stroke-width="8.00" stroke-linecap="round"/>
<line x1="1325.56" y1="1012.83" x2="1330.58" y2="991.69" stroke="#D32F2F" stroke-width="8.00" stroke-linecap="round"/>
<line x1="1342.75" y1="991.48" x2="1330.58" y2="991.69" stroke="#D32F2F" stroke-width="8.00" stroke-linecap="round"/>
<line x1="1313.99" y1="989.16" x2="1319.23" y2="969.75" stroke="#D32F2F" stroke-width="8.00" stroke-linecap="round"/>
<line x1="1332.85" y1="971.21" x2="1319.23" y2="969.75" stroke="#D32F2F" stroke-width="8.00" stroke-linecap="round"/>
<line x1="1300.61" y1="964.79" x2="1306.41" y2="947.47" stroke="#D32F2F" stroke-width="8.00" stroke-linecap="round"/>
<line x1="1321.65" y1="950.82" x2="1306.41" y2="947.47" stroke="#D32F2F" stroke-width="8.00" stroke-linecap="round"/>
<line x1="1285.48" y1="939.94" x2="1292.17" y2="925.03" stroke="#D32F2F" stroke-width="8.00" stroke-linecap="round"/>
<line x1="1309.21" y1="930.38" x2="1292.17" y2="925.03" stroke="#D32F2F" stroke-width="8.00" stroke-linecap="round"/>
<line x1="1268.75" y1="914.98" x2="1276.63" y2="902.74" stroke="#D32F2F" stroke-width="8.00" stroke-linecap="round"/>
<line x1="1295.58" y1="910.05" x2="1276.63" y2="902.74" stroke="#D32F2F" stroke-width="8.00" stroke-linecap="round"/>
<line x1="1250.63" y1="890.48" x2="1259.97" y2="881.09" stroke="#D32F2F" stroke-width="8.00" stroke-linecap="round"/>
<line x1="1280.89" y1="890.18" x2="1259.97" y2="881.09" stroke="#D32F2F" stroke-width="8.00" stroke-linecap="round"/>
<line x1="1231.48" y1="867.19" x2="1242.48" y2="860.74" stroke="#D32F2F" stroke-width="8.00" stroke-linecap="round"/>
<line x1="1265.34" y1="871.28" x2="1242.48" y2="860.74" stroke="#D32F2F" stroke-width="8.00" stroke-linecap="round"/>
<line x1="1211.74" y1="846.01" x2="1224.58" y2="842.52" stroke="#D32F2F" stroke-width="8.00" stroke-linecap="round"/>
<line x1="1249.28" y1="854.04" x2="1224.58" y2="842.52" stroke="#D32F2F" stroke-width="7.79" stroke-linecap="round"/>
<line x1="1192.02" y1="827.92" x2="1206.83" y2="827.29" stroke="#D32F2F" stroke-width="8.00" stroke-linecap="round"/>
<line x1="1233.16" y1="839.26" x2="1206.83" y2="827.29" stroke="#D32F2F" stroke-width="6.92" stroke-linecap="round"/>
<line x1="1173.01" y1="813.82" x2="1189.89" y2="815.88" stroke="#D32F2F" stroke-width="8.00" stroke-linecap="round"/>
<line x1="1217.59" y1="827.70" x2="1189.89" y2="815.88" stroke="#D32F2F" stroke-width="6.01" stroke-linecap="round"/>
<line x1="838.91" y1="932.64" x2="854.52" y2="908.58" stroke="#D32F2F" stroke-width="7.11" stroke-linecap="round"/>
<line x1="876.48" y1="882.84" x2="867.51" y2="895.74" stroke="#D32F2F" stroke-width="8.00" stroke-linecap="round"/>
<line x1="850.14" y1="919.94" x2="867.51" y2="895.74" stroke="#D32F2F" stroke-width="6.42" stroke-linecap="round"/>
<line x1="891.90" y1="870.92" x2="881.86" y2="886.47" stroke="#D32F2F" stroke-width="8.00" stroke-linecap="round"/>
<line x1="862.65" y1="910.27" x2="881.86" y2="886.47" stroke="#D32F2F" stroke-width="5.76" stroke-linecap="round"/>
<line x1="908.60" y1="863.58" x2="897.29" y2="881.51" stroke="#D32F2F" stroke-width="8.00" stroke-linecap="round"/>
<line x1="876.25" y1="904.29" x2="897.29" y2="881.51" stroke="#D32F2F" stroke-width="5.16" stroke-linecap="round"/>
<line x1="926.18" y1="861.51" x2="913.42" y2="881.45" stroke="#D32F2F" stroke-width="8.00" stroke-linecap="round"/>
<line x1="890.61" y1="902.60" x2="913.42" y2="881.45" stroke="#D32F2F" stroke-width="4.70" stroke-linecap="round"/>
<line x1="944.08" y1="865.15" x2="929.70" y2="886.63" stroke="#D32F2F" stroke-width="8.00" stroke-linecap="round"/>
<line x1="905.28" y1="905.59" x2="929.70" y2="886.63" stroke="#D32F2F" stroke-width="5.66" stroke-linecap="round"/>
<line x1="961.63" y1="874.56" x2="945.51" y2="897.02" stroke="#D32F2F" stroke-width="8.00" stroke-linecap="round"/>
<line x1="919.68" y1="913.31" x2="945.51" y2="897.02" stroke="#D32F2F" stroke-width="6.64" stroke-linecap="round"/>
<line x1="978.16" y1="889.37" x2="960.22" y2="912.20" stroke="#D32F2F" stroke-width="8.00" stroke-linecap="round"/>
<line x1="933.23" y1="925.44" x2="960.22" y2="912.20" stroke="#D32F2F" stroke-width="7.53" stroke-linecap="round"/>
<line x1="993.07" y1="908.84" x2="973.29" y2="931.43" stroke="#D32F2F" stroke-width="8.00" stroke-linecap="round"/>
<line x1="945.41" y1="941.36" x2="973.29" y2="931.43" stroke="#D32F2F" stroke-width="8.00" stroke-linecap="round"/>
<line x1="1005.89" y1="932.01" x2="984.32" y2="953.75" stroke="#D32F2F" stroke-width="8.00" stroke-linecap="round"/>
<line x1="955.84" y1="960.21" x2="984.32" y2="953.75" stroke="#D32F2F" stroke-width="8.00" stroke-linecap="round"/>
<line x1="1016.35" y1="957.80" x2="993.12" y2="978.19" stroke="#D32F2F" stroke-width="8.00" stroke-linecap="round"/>
<line x1="964.33" y1="981.14" x2="993.12" y2="978.19" stroke="#D32F2F" stroke-width="8.00" stroke-linecap="round"/>
<line x1="1024.40" y1="985.20" x2="999.71" y2="1003.85" stroke="#D32F2F" stroke-width="8.00" stroke-linecap="round"/>
<line x1="970.86" y1="1003.36" x2="999.71" y2="1003.85" stroke="#D32F2F" stroke-width="8.00" stroke-linecap="round"/>
<line x1="1030.14" y1="1013.31" x2="1004.23" y2="1030.02" stroke="#D32F2F" stroke-width="8.00" stroke-linecap="round"/>
<line x1="975.54" y1="1026.26" x2="1004.23" y2="1030.02" stroke="#D32F2F" stroke-width="8.00" stroke-linecap="round"/>
<line x1="1033.83" y1="1041.45" x2="1006.94" y2="1056.16" stroke="#D32F2F" stroke-width="8.00" stroke-linecap="round"/>
<line x1="978.57" y1="1049.41" x2="1006.94" y2="1056.16" stroke="#D32F2F" stroke-width="8.00" stroke-linecap="round"/>
<line x1="1035.79" y1="1069.10" x2="1008.18" y2="1081.90" stroke="#D32F2F" stroke-width="8.00" stroke-linecap="round"/>
<line x1="980.21" y1="1072.54" x2="1008.18" y2="1081.90" stroke="#D32F2F" stroke-width="8.00" stroke-linecap="round"/>
<line x1="1036.41" y1="1095.92" x2="1008.29" y2="1107.01" stroke="#D32F2F" stroke-width="8.00" stroke-linecap="round"/>
<line x1="980.74" y1="1095.50" x2="1008.29" y2="1107.01" stroke="#D32F2F" stroke-width="8.00" stroke-linecap="round"/>
<line x1="1036.10" y1="1121.69" x2="1007.66" y2="1131.36" stroke="#D32F2F" stroke-width="8.00" stroke-linecap="round"/>
<line x1="980.46" y1="1118.22" x2="1007.66" y2="1131.36" stroke="#D32F2F" stroke-width="8.00" stroke-linecap="round"/>
<line x1="1035.23" y1="1146.32" x2="1006.66" y2="1154.90" stroke="#D32F2F" stroke-width="8.00" stroke-linecap="round"/>
<line x1="979.67" y1="1140.66" x2="1006.66" y2="1154.90" stroke="#D32F2F" stroke-width="8.00" stroke-linecap="round"/>
<line x1="1034.20" y1="1169.79" x2="1005.64" y2="1177.63" stroke="#D32F2F" stroke-width="8.00" stroke-linecap="round"/>
<line x1="978.69" y1="1162.82" x2="1005.64" y2="1177.63" stroke="#D32F2F" stroke-width="8.00" stroke-linecap="round"/>
<line x1="1033.36" y1="1192.10" x2="1004.98" y2="1199.56" stroke="#D32F2F" stroke-width="8.00" stroke-linecap="round"/>
<line x1="977.87" y1="1184.72" x2="1004.98" y2="1199.56" stroke="#D32F2F" stroke-width="8.00" stroke-linecap="round"/>
<line x1="1033.06" y1="1213.31" x2="1005.02" y2="1220.70" stroke="#D32F2F" stroke-width="8.00" stroke-linecap="round"/>
<line x1="977.57" y1="1206.34" x2="1005.02" y2="1220.70" stroke="#D32F2F" stroke-width="7.78" stroke-linecap="round"/>
<line x1="1033.62" y1="1233.46" x2="1006.12" y2="1241.08" stroke="#D32F2F" stroke-width="8.00" stroke-linecap="round"/>
<line x1="978.17" y1="1227.65" x2="1006.12" y2="1241.08" stroke="#D32F2F" stroke-width="7.20" stroke-linecap="round"/>
<line x1="1035.37" y1="1252.55" x2="1008.65" y2="1260.67" stroke="#D32F2F" stroke-width="8.00" stroke-linecap="round"/>
<line x1="980.10" y1="1248.61" x2="1008.65" y2="1260.67" stroke="#D32F2F" stroke-width="6.69" stroke-linecap="round"/>
<line x1="1038.64" y1="1270.61" x2="1012.98" y2="1279.40" stroke="#D32F2F" stroke-width="8.00" stroke-linecap="round"/>
<line x1="983.80" y1="1269.09" x2="1012.98" y2="1279.40" stroke="#D32F2F" stroke-width="6.29" stroke-linecap="round"/>
<line x1="1043.74" y1="1287.57" x2="1019.47" y2="1297.15" stroke="#D32F2F" stroke-width="8.00" stroke-linecap="round"/>
<line x1="989.76" y1="1288.89" x2="1019.47" y2="1297.15" stroke="#D32F2F" stroke-width="6.04" stroke-linecap="round"/>
<line x1="1050.99" y1="1303.32" x2="1028.51" y2="1313.69" stroke="#D32F2F" stroke-width="8.00" stroke-linecap="round"/>
<line x1="998.44" y1="1307.72" x2="1028.51" y2="1313.69" stroke="#D32F2F" stroke-width="5.94" stroke-linecap="round"/>
<line x1="1060.72" y1="1317.66" x2="1040.44" y2="1328.70" stroke="#D32F2F" stroke-width="8.00" stroke-linecap="round"/>
<line x1="1010.27" y1="1325.15" x2="1040.44" y2="1328.70" stroke="#D32F2F" stroke-width="6.02" stroke-linecap="round"/>
<line x1="1073.21" y1="1330.28" x2="1055.52" y2="1341.74" stroke="#D32F2F" stroke-width="8.00" stroke-linecap="round"/>
<line x1="1025.61" y1="1340.65" x2="1055.52" y2="1341.74" stroke="#D32F2F" stroke-width="6.27" stroke-linecap="round"/>
<line x1="1088.67" y1="1340.76" x2="1073.93" y2="1352.26" stroke="#D32F2F" stroke-width="8.00" stroke-linecap="round"/>
<line x1="1044.67" y1="1353.57" x2="1073.93" y2="1352.26" stroke="#D32F2F" stroke-width="6.67" stroke-linecap="round"/>
<line x1="1107.15" y1="1348.56" x2="1095.62" y2="1359.63" stroke="#D32F2F" stroke-width="8.00" stroke-linecap="round"/>
<line x1="1067.44" y1="1363.18" x2="1095.62" y2="1359.63" stroke="#D32F2F" stroke-width="7.18" stroke-linecap="round"/>
<line x1="1128.46" y1="1353.11" x2="1120.29" y2="1363.21" stroke="#D32F2F" stroke-width="8.00" stroke-linecap="round"/>
<line x1="1093.62" y1="1368.77" x2="1120.29" y2="1363.21" stroke="#D32F2F" stroke-width="7.78" stroke-linecap="round"/>
<line x1="1152.16" y1="1353.89" x2="1147.33" y2="1362.48" stroke="#D32F2F" stroke-width="8.00" stroke-linecap="round"/>
<line x1="1122.62" y1="1369.73" x2="1147.33" y2="1362.48" stroke="#D32F2F" stroke-width="8.00" stroke-linecap="round"/>
<line x1="1177.46" y1="1350.57" x2="1175.86" y2="1357.16" stroke="#D32F2F" stroke-width="8.00" stroke-linecap="round"/>
<line x1="1153.50" y1="1365.68" x2="1175.86" y2="1357.16" stroke="#D32F2F" stroke-width="8.00" stroke-linecap="round"/>
<line x1="1203.41" y1="1343.12" x2="1204.78" y2="1347.30" stroke="#D32F2F" stroke-width="8.00" stroke-linecap="round"/>
<line x1="1185.12" y1="1356.59" x2="1204.78" y2="1347.30" stroke="#D32F2F" stroke-width="8.00" stroke-linecap="round"/>
<line x1="1228.93" y1="1331.83" x2="1232.95" y2="1333.29" stroke="#D32F2F" stroke-width="8.00" stroke-linecap="round"/>
<line x1="1253.05" y1="1317.31" x2="1259.35" y2="1315.83" stroke="#D32F2F" stroke-width="8.00" stroke-linecap="round"/>
<line x1="1275.03" y1="1300.32" x2="1283.21" y2="1295.80" stroke="#D32F2F" stroke-width="8.00" stroke-linecap="round"/>
<line x1="1294.39" y1="1281.65" x2="1304.02" y2="1274.06" stroke="#D32F2F" stroke-width="8.00" stroke-linecap="round"/>
<line x1="1310.92" y1="1261.98" x2="1321.58" y2="1251.40" stroke="#D32F2F" stroke-width="8.00" stroke-linecap="round"/>
<line x1="1324.61" y1="1241.83" x2="1335.87" y2="1228.42" stroke="#D32F2F" stroke-width="8.00" stroke-linecap="round"/>
<line x1="1335.59" y1="1221.54" x2="1347.02" y2="1205.53" stroke="#D32F2F" stroke-width="8.00" stroke-linecap="round"/>
<line x1="1344.02" y1="1201.28" x2="1355.25" y2="1182.98" stroke="#D32F2F" stroke-width="8.00" stroke-linecap="round"/>
<line x1="1357.26" y1="1183.29" x2="1355.25" y2="1182.98" stroke="#D32F2F" stroke-width="8.00" stroke-linecap="round"/>
<line x1="1350.08" y1="1181.11" x2="1360.79" y2="1160.88" stroke="#D32F2F" stroke-width="8.00" stroke-linecap="round"/>
<line x1="1364.34" y1="1159.74" x2="1360.79" y2="1160.88" stroke="#D32F2F" stroke-width="8.00" stroke-linecap="round"/>
<line x1="1353.92" y1="1161.02" x2="1363.86" y2="1139.24" stroke="#D32F2F" stroke-width="8.00" stroke-linecap="round"/>
<line x1="1368.70" y1="1136.95" x2="1363.86" y2="1139.24" stroke="#D32F2F" stroke-width="8.00" stroke-linecap="round"/>
<line x1="1355.66" y1="1140.92" x2="1364.67" y2="1117.99" stroke="#D32F2F" stroke-width="8.00" stroke-linecap="round"/>
<line x1="1370.62" y1="1114.88" x2="1364.67" y2="1117.99" stroke="#D32F2F" stroke-width="8.00" stroke-linecap="round"/>
<line x1="1355.40" y1="1120.69" x2="1363.42" y2="1097.03" stroke="#D32F2F" stroke-width="8.00" stroke-linecap="round"/>
<line x1="1370.35" y1="1093.47" x2="1363.42" y2="1097.03" stroke="#D32F2F" stroke-width="8.00" stroke-linecap="round"/>
<line x1="1353.20" y1="1100.20" x2="1360.26" y2="1076.22" stroke="#D32F2F" stroke-width="8.00" stroke-linecap="round"/>
<line x1="1368.11" y1="1072.58" x2="1360.26" y2="1076.22" stroke="#D32F2F" stroke-width="8.00" stroke-linecap="round"/>
<line x1="1349.10" y1="1079.30" x2="1355.30" y2="1055.41" stroke="#D32F2F" stroke-width="8.00" stroke-linecap="round"/>
<line x1="1364.09" y1="1052.08" x2="1355.30" y2="1055.41" stroke="#D32F2F" stroke-width="8.00" stroke-linecap="round"/>
<line x1="1343.12" y1="1057.85" x2="1348.66" y2="1034.46" stroke="#D32F2F" stroke-width="8.00" stroke-linecap="round"/>
<line x1="1358.45" y1="1031.81" x2="1348.66" y2="1034.46" stroke="#D32F2F" stroke-width="8.00" stroke-linecap="round"/>
<line x1="1335.27" y1="1035.72" x2="1340.40" y2="1013.25" stroke="#D32F2F" stroke-width="8.00" stroke-linecap="round"/>
<line x1="1351.30" y1="1011.65" x2="1340.40" y2="1013.25" stroke="#D32F2F" stroke-width="8.00" stroke-linecap="round"/>
<line x1="1325.56" y1="1012.83" x2="1330.58" y2="991.69" stroke="#D32F2F" stroke-width="8.00" stroke-linecap="round"/>
<line x1="1342.75" y1="991.48" x2="1330.58" y2="991.69" stroke="#D32F2F" stroke-width="8.00" stroke-linecap="round"/>
<line x1="1313.99" y1="989.16" x2="1319.23" y2="969.75" stroke="#D32F2F" stroke-width="8.00" stroke-linecap="round"/>
<line x1="1332.85" y1="971.21" x2="1319.23" y2="969.75" stroke="#D32F2F" stroke-width="8.00" stroke-linecap="round"/>
<line x1="1300.61" y1="964.79" x2="1306.41" y2="947.47" stroke="#D32F2F" stroke-width="8.00" stroke-linecap="round"/>
<line x1="1321.65" y1="950.82" x2="1306.41" y2="947.47" stroke="#D32F2F" stroke-width="8.00" stroke-linecap="round"/>
<line x1="1285.48" y1="939.94" x2="1292.17" y2="925.03" stroke="#D32F2F" stroke-width="8.00" stroke-linecap="round"/>
<line x1="1309.21" y1="930.38" x2="1292.17" y2="925.03" stroke="#D32F2F" stroke-width="8.00" stroke-linecap="round"/>
<line x1="1268.75" y1="914.98" x2="1276.63" y2="902.74" stroke="#D32F2F" stroke-width="8.00" stroke-linecap="round"/>
<line x1="1295.58" y1="910.05" x2="1276.63" y2="902.74" stroke="#D32F2F" stroke-width="8.00" stroke-linecap="round"/>
<line x1="1250.63" y1="890.48" x2="1259.97" y2="881.09" stroke="#D32F2F" stroke-width="8.00" stroke-linecap="round"/>
<line x1="1280.89" y1="890.18" x2="1259.97" y2="881.09" stroke="#D32F2F" stroke-width="8.00" stroke-linecap="round"/>
<line x1="1231.48" y1="867.19" x2="1242.48" y2="860.74" stroke="#D32F2F" stroke-width="8.00" stroke-linecap="round"/>
<line x1="1265.34" y1="871.28" x2="1242.48" y2="860.74" stroke="#D32F2F" stroke-width="8.00" stroke-linecap="round"/>
<line x1="1211.74" y1="846.01" x2="1224.58" y2="842.52" stroke="#D32F2F" stroke-width="8.00" stroke-linecap="round"/>
<line x1="1249.28" y1="854.04" x2="1224.58" y2="842.52" stroke="#D32F2F" stroke-width="7.79" stroke-linecap="round"/>
<line x1="1192.02" y1="827.92" x2="1206.83" y2="827.29" stroke="#D32F2F" stroke-width="8.00" stroke-linecap="round"/>
<line x1="1233.16" y1="839.26" x2="1206.83" y2="827.29" stroke="#D32F2F" stroke-width="6.92" stroke-linecap="round"/>
<line x1="1173.01" y1="813.82" x2="1189.89" y2="815.88" stroke="#D32F2F" stroke-width="8.00" stroke-linecap="round"/>
<line x1="1217.59" y1="827.70" x2="1189.89" y2="815.88" stroke="#D32F2F" stroke-width="6.01" stroke-linecap="round"/>
<line x1="838.91" y1="932.64" x2="854.52" y2="908.58" stroke="#D32F2F" stroke-width="7.11" stroke-linecap="round"/>
<line x1="876.48" y1="882.84" x2="867.51" y2="895.74" stroke="#D32F2F" stroke-width="8.00" stroke-linecap="round"/>
<line x1="850.14" y1="919.94" x2="867.51" y2="895.74" stroke="#D32F2F" stroke-width="6.42" stroke-linecap="round"/>
<line x1="891.90" y1="870.92" x2="881.86" y2="886.47" stroke="#D32F2F" stroke-width="8.00" stroke-linecap="round"/>
<line x1="862.65" y1="910.27" x2="881.86" y2="886.47" stroke="#D32F2F" stroke-width="5.76" stroke-linecap="round"/>
<line x1="908.60" y1="863.58" x2="897.29" y2="881.51" stroke="#D32F2F" stroke-width="8.00" stroke-linecap="round"/>
<line x1="876.25" y1="904.29" x2="897.29" y2="881.51" stroke="#D32F2F" stroke-width="5.16" stroke-linecap="round"/>
<line x1="926.18" y1="861.51" x2="913.42" y2="881.45" stroke="#D32F2F" stroke-width="8.00" stroke-linecap="round"/>
<line x1="890.61" y1="902.60" x2="913.42" y2="881.45" stroke="#D32F2F" stroke-width="4.70" stroke-linecap="round"/>
<line x1="944.08" y1="865.15" x2="929.70" y2="886.63" stroke="#D32F2F" stroke-width="8.00" stroke-linecap="round"/>
<line x1="905.28" y1="905.59" x2="929.70" y2="886.63" stroke="#D32F2F" stroke-width="5.66" stroke-linecap="round"/>
<line x1="961.63" y1="874.56" x2="945.51" y2="897.02" stroke="#D32F2F" stroke-width="8.00" stroke-linecap="round"/>
<line x1="919.68" y1="913.31" x2="945.51" y2="897.02" stroke="#D32F2F" stroke-width="6.64" stroke-linecap="round"/>
<line x1="978.16" y1="889.37" x2="960.22" y2="912.20" stroke="#D32F2F" stroke-width="8.00" stroke-linecap="round"/>
<line x1="933.23" y1="925.44" x2="960.22" y2="912.20" stroke="#D32F2F" stroke-width="7.53" stroke-linecap="round"/>
<line x1="993.07" y1="908.84" x2="973.29" y2="931.43" stroke="#D32F2F" stroke-width="8.00" stroke-linecap="round"/>
<line x1="945.41" y1="941.36" x2="973.29" y2="931.43" stroke="#D32F2F" stroke-width="8.00" stroke-linecap="round"/>
<line x1="1005.89" y1="932.01" x2="984.32" y2="953.75" stroke="#D32F2F" stroke-width="8.00" stroke-linecap="round"/>
<line x1="955.84" y1="960.21" x2="984.32" y2="953.75" stroke="#D32F2F" stroke-width="8.00" stroke-linecap="round"/>
<line x1="1016.35" y1="957.80" x2="993.12" y2="978.19" stroke="#D32F2F" stroke-width="8.00" stroke-linecap="round"/>
<line x1="964.33" y1="981.14" x2="993.12" y2="978.19" stroke="#D32F2F" stroke-width="8.00" stroke-linecap="round"/>
<line x1="1024.40" y1="985.20" x2="999.71" y2="1003.85" stroke="#D32F2F" stroke-width="8.00" stroke-linecap="round"/>
<line x1="970.86" y1="1003.36" x2="999.71" y2="1003.85" stroke="#D32F2F" stroke-width="8.00" stroke-linecap="round"/>
<line x1="1030.14" y1="1013.31" x2="1004.23" y2="1030.02" stroke="#D32F2F" stroke-width="8.00" stroke-linecap="round"/>
<line x1="975.54" y1="1026.26" x2="1004.23" y2="1030.02" stroke="#D32F2F" stroke-width="8.00" stroke-linecap="round"/>
<line x1="1033.83" y1="1041.45" x2="1006.94" y2="1056.16" stroke="#D32F2F" stroke-width="8.00" stroke-linecap="round"/>
<line x1="978.57" y1="1049.41" x2="1006.94" y2="1056.16" stroke="#D32F2F" stroke-width="8.00" stroke-linecap="round"/>
<line x1="1035.79" y1="1069.10" x2="1008.18" y2="1081.90" stroke="#D32F2F" stroke-width="8.00" stroke-linecap="round"/>
<line x1="980.21" y1="1072.54" x2="1008.18" y2="1081.90" stroke="#D32F2F" stroke-width="8.00" stroke-linecap="round"/>
<line x1="1036.41" y1="1095.92" x2="1008.29" y2="1107.01" stroke="#D32F2F" stroke-width="8.00" stroke-linecap="round"/>
<line x1="980.74" y1="1095.50" x2="1008.29" y2="1107.01" stroke="#D32F2F" stroke-width="8.00" stroke-linecap="round"/>
<line x1="1036.10" y1="1121.69" x2="1007.66" y2="1131.36" stroke="#D32F2F" stroke-width="8.00" stroke-linecap="round"/>
<line x1="980.46" y1="1118.22" x2="1007.66" y2="1131.36" stroke="#D32F2F" stroke-width="8.00" stroke-linecap="round"/>
<line x1="1035.23" y1="1146.32" x2="1006.66" y2="1154.90" stroke="#D32F2F" stroke-width="8.00" stroke-linecap="round"/>
<line x1="979.67" y1="1140.66" x2="1006.66" y2="1154.90" stroke="#D32F2F" stroke-width="8.00" stroke-linecap="round"/>
<line x1="1034.20" y1="1169.79" x2="1005.64" y2="1177.63" stroke="#D32F2F" stroke-width="8.00" stroke-linecap="round"/>
<line x1="978.69" y1="1162.82" x2="1005.64" y2="1177.63" stroke="#D32F2F" stroke-width="8.00" stroke-linecap="round"/>
<line x1="1033.36" y1="1192.10" x2="1004.98" y2="1199.56" stroke="#D32F2F" stroke-width="8.00" stroke-linecap="round"/>
<line x1="977.87" y1="1184.72" x2="1004.98" y2="1199.56" stroke="#D32F2F" stroke-width="8.00" stroke-linecap="round"/>
<line x1="1033.06" y1="1213.31" x2="1005.02" y2="1220.70" stroke="#D32F2F" stroke-width="8.00" stroke-linecap="round"/>
<line x1="977.57" y1="1206.34" x2="1005.02" y2="1220.70" stroke="#D32F2F" stroke-width="7.78" stroke-linecap="round"/>
<line x1="1033.62" y1="1233.46" x2="1006.12" y2="1241.08" stroke="#D32F2F" stroke-width="8.00" stroke-linecap="round"/>
<line x1="978.17" y1="1227.65" x2="1006.12" y2="1241.08" stroke="#D32F2F" stroke-width="7.20" stroke-linecap="round"/>
<line x1="1035.37" y1="1252.55" x2="1008.65" y2="1260.67" stroke="#D32F2F" stroke-width="8.00" stroke-linecap="round"/>
<line x1="980.10" y1="1248.61" x2="1008.65" y2="1260.67" stroke="#D32F2F" stroke-width="6.69" stroke-linecap="round"/>
<line x1="1038.64" y1="1270.61" x2="1012.98" y2="1279.40" stroke="#D32F2F" stroke-width="8.00" stroke-linecap="round"/>
<line x1="983.80" y1="1269.09" x2="1012.98" y2="1279.40" stroke="#D32F2F" stroke-width="6.29" stroke-linecap="round"/>
<line x1="1043.74" y1="1287.57" x2="1019.47" y2="1297.15" stroke="#D32F2F" stroke-width="8.00" stroke-linecap="round"/>
<line x1="989.76" y1="1288.89" x2="1019.47" y2="1297.15" stroke="#D32F2F" stroke-width="6.04" stroke-linecap="round"/>
<line x1="1050.99" y1="1303.32" x2="1028.51" y2="1313.69" stroke="#D32F2F" stroke-width="8.00" stroke-linecap="round"/>
<line x1="998.44" y1="1307.72" x2="1028.51" y2="1313.69" stroke="#D32F2F" stroke-width="5.94" stroke-linecap="round"/>
<line x1="1060.72" y1="1317.66" x2="1040.44" y2="1328.70" stroke="#D32F2F" stroke-width="8.00" stroke-linecap="round"/>
<line x1="1010.27" y1="1325.15" x2="1040.44" y2="1328.70" stroke="#D32F2F" stroke-width="6.02" stroke-linecap="round"/>
<line x1="1073.21" y1="1330.28" x2="1055.52" y2="1341.74" stroke="#D32F2F" stroke-width="8.00" stroke-linecap="round"/>
<line x1="1025.61" y1="1340.65" x2="1055.52" y2="1341.74" stroke="#D32F2F" stroke-width="6.27" stroke-linecap="round"/>
<line x1="1088.67" y1="1340.76" x2="1073.93" y2="1352.26" stroke="#D32F2F" stroke-width="8.00" stroke-linecap="round"/>
<line x1="1044.67" y1="1353.57" x2="1073.93" y2="1352.26" stroke="#D32F2F" stroke-width="6.67" stroke-linecap="round"/>
<line x1="1107.15" y1="1348.56" x2="1095.62" y2="1359.63" stroke="#D32F2F" stroke-width="8.00" stroke-linecap="round"/>
<line x1="1067.44" y1="1363.18" x2="1095.62" y2="1359.63" stroke="#D32F2F" stroke-width="7.18" stroke-linecap="round"/>
<line x1="1128.46" y1="1353.11" x2="1120.29" y2="1363.21" stroke="#D32F2F" stroke-width="8.00" stroke-linecap="round"/>
<line x1="1093.62" y1="1368.77" x2="1120.29" y2="1363.21" stroke="#D32F2F" stroke-width="7.78" stroke-linecap="round"/>
<line x1="1152.16" y1="1353.89" x2="1147.33" y2="1362.48" stroke="#D32F2F" stroke-width="8.00" stroke-linecap="round"/>
<line x1="1122.62" y1="1369.73" x2="1147.33" y2="1362.48" stroke="#D32F2F" stroke-width="8.00" stroke-linecap="round"/>
<line x1="1177.46" y1="1350.57" x2="1175.86" y2="1357.16" stroke="#D32F2F" stroke-width="8.00" stroke-linecap="round"/>
<line x1="1153.50" y1="1365.68" x2="1175.86" y2="1357.16" stroke="#D32F2F" stroke-width="8.00" stroke-linecap="round"/>
<line x1="1203.41" y1="1343.12" x2="1204.78" y2="1347.30" stroke="#D32F2F" stroke-width="8.00" stroke-linecap="round"/>
<line x1="1185.12" y1="1356.59" x2="1204.78" y2="1347.30" stroke="#D32F2F" stroke-width="8.00" stroke-linecap="round"/>
<line x1="1228.93" y1="1331.83" x2="1232.95" y2="1333.29" stroke="#D32F2F" stroke-width="8.00" stroke-linecap="round"/>
<line x1="1253.05" y1="1317.31" x2="1259.35" y2="1315.83" stroke="#D32F2F" stroke-width="8.00" stroke-linecap="round"/>
<line x1="1275.03" y1="1300.32" x2="1283.21" y2="1295.80" stroke="#D32F2F" stroke-width="8.00" stroke-linecap="round"/>
<line x1="1294.39" y1="1281.65" x2="1304.02" y2="1274.06" stroke="#D32F2F" stroke-width="8.00" stroke-linecap="round"/>
<line x1="1310.92" y1="1261.98" x2="1321.58" y2="1251.40" stroke="#D32F2F" stroke-width="8.00" stroke-linecap="round"/>
<line x1="1324.61" y1="1241.83" x2="1335.87" y2="1228.42" stroke="#D32F2F" stroke-width="8.00" stroke-linecap="round"/>
<line x1="1335.59" y1="1221.54" x2="1347.02" y2="1205.53" stroke="#D32F2F" stroke-width="8.00" stroke-linecap="round"/>
<line x1="1344.02" y1="1201.28" x2="1355.25" y2="1182.98" stroke="#D32F2F" stroke-width="8.00" stroke-linecap="round"/>
<line x1="1357.26" y1="1183.29" x2="1355.25" y2="1182.98" stroke="#D32F2F" stroke-width="8.00" stroke-linecap="round"/>
<line x1="1350.08" y1="1181.11" x2="1360.79" y2="1160.88" stroke="#D32F2F" stroke-width="8.00" stroke-linecap="round"/>
<line x1="1364.34" y1="1159.74" x2="1360.79" y2="1160.88" stroke="#D32F2F" stroke-width="8.00" stroke-linecap="round"/>
<line x1="1353.92" y1="1161.02" x2="1363.86" y2="1139.24" stroke="#D32F2F" stroke-width="8.00" stroke-linecap="round"/>
<line x1="1368.70" y1="1136.95" x2="1363.86" y2="1139.24" stroke="#D32F2F" stroke-width="8.00" stroke-linecap="round"/>
<line x1="1355.66" y1="1140.92" x2="1364.67" y2="1117.99" stroke="#D32F2F" stroke-width="8.00" stroke-linecap="round"/>
<line x1="1370.62" y1="1114.88" x2="1364.67" y2="1117.99" stroke="#D32F2F" stroke-width="8.00" stroke-linecap="round"/>
<line x1="1355.40" y1="1120.69" x2="1363.42" y2="1097.03" stroke="#D32F2F" stroke-width="8.00" stroke-linecap="round"/>
<line x1="1370.35" y1="1093.47" x2="1363.42" y2="1097.03" stroke="#D32F2F" stroke-width="8.00" stroke-linecap="round"/>
<circle cx="1084.59" cy="1084.59" r="290.0" fill="none" stroke="#ccc" stroke-width="0.5"/>
<line x1="1055.84" y1="814.02" x2="1027.09" y2="543.44" stroke="#A1A1AA" stroke-width="5" opacity="0.9"/>
<line x1="579.98" y1="1229.59" x2="832.29" y2="1157.09" stroke="#A1A1AA" stroke-width="5" opacity="0.9"/>
<line x1="1364.71" y1="1234.70" x2="1224.65" y2="1159.65" stroke="#A1A1AA" stroke-width="5" opacity="0.9"/>
<polygon points="1589.20,939.59 1572.18,952.80 1567.76,937.42" fill="#A1A1AA" opacity="0.9"/>
<polygon points="804.47,934.47 825.88,936.87 818.32,950.97" fill="#A1A1AA" opacity="0.9"/>
<polygon points="1027.09,543.44 1037.15,562.48 1021.24,564.18" fill="#A1A1AA" opacity="0.9"/>
<text x="1680.02" y="913.49" font-family="Palatino, 'Palatino Linotype', 'Book Antiqua', Georgia, serif" font-style="italic" font-size="52" fill="#A1A1AA" text-anchor="middle" dominant-baseline="middle" opacity="0.9">x</text>
<text x="754.05" y="907.45" font-family="Palatino, 'Palatino Linotype', 'Book Antiqua', Georgia, serif" font-style="italic" font-size="52" fill="#A1A1AA" text-anchor="middle" dominant-baseline="middle" opacity="0.9">y</text>
<text x="1016.74" y="446.04" font-family="Palatino, 'Palatino Linotype', 'Book Antiqua', Georgia, serif" font-style="italic" font-size="52" fill="#A1A1AA" text-anchor="middle" dominant-baseline="middle" opacity="0.9">z</text>
<polyline points="1200.88,1517.97 1202.24,1515.89 1203.16,1513.82 1203.63,1511.78 1203.65,1509.77 1203.22,1507.82 1202.35,1505.92 1201.03,1504.09 1199.27,1502.34 1197.10,1500.69 1194.51,1499.14 1191.53,1497.71 1188.17,1496.39 1184.46,1495.21 1180.42,1494.16 1176.07,1493.26 1171.43,1492.51 1166.55,1491.91 1161.45,1491.47 1156.15,1491.19 1150.70,1491.07 1145.12,1491.12 1139.46,1491.33 1133.74,1491.70 1128.00,1492.23 1122.27,1492.91 1116.60,1493.75 1111.01,1494.73 1105.55,1495.85 1100.23,1497.11 1095.11,1498.49 1090.21,1499.99 1085.55,1501.60 1081.17,1503.31 1077.10,1505.10 1073.35,1506.97 1069.96,1508.90 1066.94,1510.89 1064.32,1512.92 1062.10,1514.98 1060.31,1517.05 1058.95,1519.12 1058.03,1521.19 1057.56,1523.23 1057.53,1525.24 1057.96,1527.20 1058.84,1529.10 1060.16,1530.93 1061.91,1532.67 1064.09,1534.33 1066.68,1535.87 1069.66,1537.31 1073.01,1538.62 1076.72,1539.81 1080.77,1540.85 1085.12,1541.75 1089.75,1542.50 1094.63,1543.10 1099.74,1543.54 1105.03,1543.82 1110.49,1543.94" fill="none" stroke="#A1A1AA" stroke-width="2.2" stroke-linecap="round" stroke-linejoin="round" opacity="0.85"/>
<polygon points="1110.49,1543.94 1100.38,1548.72 1100.60,1538.73" fill="#A1A1AA" opacity="0.85"/>
<text x="1073.82" y="1487.08" font-family="Palatino, 'Palatino Linotype', 'Book Antiqua', Georgia, serif" font-style="italic" font-size="28" fill="#A1A1AA" text-anchor="middle" dominant-baseline="middle" opacity="0.85">yaw</text>
<polyline points="711.14,1262.50 712.62,1259.56 713.89,1256.26 714.96,1252.62 715.83,1248.65 716.47,1244.39 716.90,1239.86 717.11,1235.08 717.09,1230.09 716.85,1224.92 716.39,1219.60 715.71,1214.17 714.81,1208.65 713.71,1203.08 712.40,1197.49 710.90,1191.93 709.21,1186.41 707.35,1180.99 705.33,1175.68 703.15,1170.53 700.84,1165.57 698.41,1160.82 695.87,1156.31 693.23,1152.08 690.52,1148.15 687.75,1144.54 684.94,1141.27 682.11,1138.38 679.26,1135.86 676.43,1133.75 673.62,1132.04 670.86,1130.76 668.16,1129.91 665.54,1129.50 663.01,1129.52 660.60,1129.99 658.31,1130.88 656.16,1132.21 654.16,1133.96 652.32,1136.12 650.67,1138.68 649.19,1141.61 647.92,1144.92 646.85,1148.56 645.98,1152.53 645.34,1156.79 644.91,1161.32 644.70,1166.10 644.72,1171.09 644.96,1176.26 645.42,1181.57 646.10,1187.01 647.00,1192.53 648.10,1198.10 649.41,1203.69 650.91,1209.25 652.60,1214.77 654.46,1220.19 656.48,1225.50 658.65,1230.65 660.97,1235.61" fill="none" stroke="#A1A1AA" stroke-width="2.2" stroke-linecap="round" stroke-linejoin="round" opacity="0.85"/>
<polygon points="660.97,1235.61 652.21,1228.66 661.28,1224.44" fill="#A1A1AA" opacity="0.85"/>
<text x="669.25" y="1090.92" font-family="Palatino, 'Palatino Linotype', 'Book Antiqua', Georgia, serif" font-style="italic" font-size="28" fill="#A1A1AA" text-anchor="middle" dominant-baseline="middle" opacity="0.85">pitch</text>
<polyline points="1359.03,1240.16 1362.02,1235.23 1364.68,1230.11 1366.99,1224.84 1368.94,1219.44 1370.52,1213.94 1371.72,1208.40 1372.54,1202.82 1372.95,1197.26 1372.98,1191.75 1372.60,1186.31 1371.83,1180.99 1370.67,1175.82 1369.13,1170.82 1367.22,1166.03 1364.95,1161.48 1362.33,1157.20 1359.38,1153.21 1356.11,1149.53 1352.56,1146.20 1348.73,1143.23 1344.66,1140.63 1340.36,1138.43 1335.87,1136.64 1331.21,1135.27 1326.41,1134.33 1321.51,1133.82 1316.52,1133.74 1311.49,1134.11 1306.44,1134.91 1301.40,1136.14 1296.41,1137.79 1291.49,1139.85 1286.68,1142.32 1282.01,1145.17 1277.50,1148.38 1273.18,1151.95 1269.08,1155.83 1265.22,1160.02 1261.64,1164.49 1258.34,1169.20 1255.35,1174.13 1252.69,1179.25 1250.38,1184.53 1248.43,1189.93 1246.85,1195.42 1245.65,1200.97 1244.83,1206.54 1244.42,1212.10 1244.39,1217.61 1244.77,1223.05 1245.54,1228.37 1246.69,1233.54 1248.23,1238.54 1250.15,1243.33 1252.42,1247.88 1255.04,1252.17 1257.99,1256.16 1261.26,1259.83 1264.81,1263.16 1268.64,1266.14" fill="none" stroke="#A1A1AA" stroke-width="2.2" stroke-linecap="round" stroke-linejoin="round" opacity="0.85"/>
<polygon points="1268.64,1266.14 1257.67,1263.95 1263.81,1256.05" fill="#A1A1AA" opacity="0.85"/>
<text x="1297.03" y="1095.01" font-family="Palatino, 'Palatino Linotype', 'Book Antiqua', Georgia, serif" font-style="italic" font-size="28" fill="#A1A1AA" text-anchor="middle" dominant-baseline="middle" opacity="0.85">roll</text>
</svg>