<svg width="2169" height="2169" viewBox="0 0 2169.1789 2169.1789" xmlns="http://www.w3.org/2000/svg">
<line x1="1335.74" y1="1084.59" x2="1586.88" y2="1084.59" stroke="#A1A1AA" stroke-width="5" opacity="0.9"/>
<line x1="833.44" y1="794.59" x2="959.02" y2="939.59" stroke="#A1A1AA" stroke-width="5" opacity="0.9"/>
<line x1="939.59" y1="1586.88" x2="1012.09" y2="1335.74" stroke="#A1A1AA" stroke-width="5" opacity="0.9"/>
<circle cx="1084.59" cy="1084.59" r="290.0" fill="#FDFDF5"/>
<line x1="1232.00" y1="835.03" x2="1257.66" y2="851.94" stroke="#D32F2F" stroke-width="5.27" stroke-linecap="round"/>
<line x1="1247.60" y1="848.00" x2="1272.00" y2="865.48" stroke="#D32F2F" stroke-width="6.21" stroke-linecap="round"/>
<line x1="1284.80" y1="874.84" x2="1272.00" y2="865.48" stroke="#D32F2F" stroke-width="8.00" stroke-linecap="round"/>
<line x1="1263.34" y1="866.17" x2="1286.31" y2="883.64" stroke="#D32F2F" stroke-width="7.14" stroke-linecap="round"/>
<line x1="1297.72" y1="889.75" x2="1286.31" y2="883.64" stroke="#D32F2F" stroke-width="8.00" stroke-linecap="round"/>
<line x1="1278.60" y1="888.84" x2="1300.05" y2="905.69" stroke="#D32F2F" stroke-width="8.00" stroke-linecap="round"/>
<line x1="1310.22" y1="908.33" x2="1300.05" y2="905.69" stroke="#D32F2F" stroke-width="8.00" stroke-linecap="round"/>
<line x1="1292.86" y1="915.02" x2="1312.74" y2="930.65" stroke="#D32F2F" stroke-width="8.00" stroke-linecap="round"/>
<line x1="1321.87" y1="929.72" x2="1312.74" y2="930.65" stroke="#D32F2F" stroke-width="8.00" stroke-linecap="round"/>
<line x1="1305.72" y1="943.54" x2="1324.05" y2="957.43" stroke="#D32F2F" stroke-width="8.00" stroke-linecap="round"/>
<line x1="1332.34" y1="952.93" x2="1324.05" y2="957.43" stroke="#D32F2F" stroke-width="8.00" stroke-linecap="round"/>
<line x1="1316.93" y1="973.27" x2="1333.78" y2="985.03" stroke="#D32F2F" stroke-width="8.00" stroke-linecap="round"/>
<line x1="1341.44" y1="977.06" x2="1333.78" y2="985.03" stroke="#D32F2F" stroke-width="8.00" stroke-linecap="round"/>
<line x1="1326.37" y1="1003.25" x2="1341.86" y2="1012.61" stroke="#D32F2F" stroke-width="8.00" stroke-linecap="round"/>
<line x1="1349.10" y1="1001.37" x2="1341.86" y2="1012.61" stroke="#D32F2F" stroke-width="8.00" stroke-linecap="round"/>
<line x1="1334.02" y1="1032.68" x2="1348.29" y2="1039.56" stroke="#D32F2F" stroke-width="8.00" stroke-linecap="round"/>
<line x1="1355.32" y1="1025.34" x2="1348.29" y2="1039.56" stroke="#D32F2F" stroke-width="8.00" stroke-linecap="round"/>
<line x1="1339.88" y1="1061.03" x2="1353.09" y2="1065.52" stroke="#D32F2F" stroke-width="8.00" stroke-linecap="round"/>
<line x1="1360.15" y1="1048.67" x2="1353.09" y2="1065.52" stroke="#D32F2F" stroke-width="8.00" stroke-linecap="round"/>
<line x1="1344.01" y1="1087.98" x2="1356.29" y2="1090.26" stroke="#D32F2F" stroke-width="8.00" stroke-linecap="round"/>
<line x1="1363.60" y1="1071.21" x2="1356.29" y2="1090.26" stroke="#D32F2F" stroke-width="8.00" stroke-linecap="round"/>
<line x1="1346.46" y1="1113.35" x2="1357.92" y2="1113.73" stroke="#D32F2F" stroke-width="8.00" stroke-linecap="round"/>
<line x1="1365.69" y1="1092.94" x2="1357.92" y2="1113.73" stroke="#D32F2F" stroke-width="8.00" stroke-linecap="round"/>
<line x1="1347.26" y1="1137.14" x2="1357.97" y2="1135.97" stroke="#D32F2F" stroke-width="8.00" stroke-linecap="round"/>
<line x1="1366.40" y1="1113.90" x2="1357.97" y2="1135.97" stroke="#D32F2F" stroke-width="8.00" stroke-linecap="round"/>
<line x1="1346.45" y1="1159.41" x2="1356.43" y2="1157.08" stroke="#D32F2F" stroke-width="8.00" stroke-linecap="round"/>
<line x1="1365.65" y1="1134.19" x2="1356.43" y2="1157.08" stroke="#D32F2F" stroke-width="8.00" stroke-linecap="round"/>
<line x1="1344.01" y1="1180.31" x2="1353.25" y2="1177.19" stroke="#D32F2F" stroke-width="8.00" stroke-linecap="round"/>
<line x1="1363.35" y1="1153.93" x2="1353.25" y2="1177.19" stroke="#D32F2F" stroke-width="8.00" stroke-linecap="round"/>
<line x1="1339.95" y1="1199.99" x2="1348.35" y2="1196.45" stroke="#D32F2F" stroke-width="8.00" stroke-linecap="round"/>
<line x1="1359.35" y1="1173.23" x2="1348.35" y2="1196.45" stroke="#D32F2F" stroke-width="8.00" stroke-linecap="round"/>
<line x1="1334.21" y1="1218.62" x2="1341.64" y2="1215.03" stroke="#D32F2F" stroke-width="8.00" stroke-linecap="round"/>
<line x1="1353.50" y1="1192.22" x2="1341.64" y2="1215.03" stroke="#D32F2F" stroke-width="8.00" stroke-linecap="round"/>
<line x1="1326.74" y1="1236.37" x2="1332.99" y2="1233.04" stroke="#D32F2F" stroke-width="8.00" stroke-linecap="round"/>
<line x1="1345.58" y1="1211.01" x2="1332.99" y2="1233.04" stroke="#D32F2F" stroke-width="8.00" stroke-linecap="round"/>
<line x1="1317.46" y1="1253.38" x2="1322.27" y2="1250.61" stroke="#D32F2F" stroke-width="8.00" stroke-linecap="round"/>
<line x1="1087.41" y1="1372.49" x2="1061.88" y2="1373.20" stroke="#D32F2F" stroke-width="8.00" stroke-linecap="round"/>
<line x1="1063.77" y1="1369.10" x2="1036.47" y2="1368.12" stroke="#D32F2F" stroke-width="7.88" stroke-linecap="round"/>
<line x1="1026.93" y1="1368.69" x2="1036.47" y2="1368.12" stroke="#D32F2F" stroke-width="8.00" stroke-linecap="round"/>
<line x1="1043.15" y1="1362.58" x2="1014.63" y2="1359.65" stroke="#D32F2F" stroke-width="7.17" stroke-linecap="round"/>
<line x1="1001.70" y1="1360.72" x2="1014.63" y2="1359.65" stroke="#D32F2F" stroke-width="8.00" stroke-linecap="round"/>
<line x1="1026.12" y1="1353.43" x2="996.89" y2="1348.35" stroke="#D32F2F" stroke-width="6.51" stroke-linecap="round"/>
<line x1="980.78" y1="1349.47" x2="996.89" y2="1348.35" stroke="#D32F2F" stroke-width="8.00" stroke-linecap="round"/>
<line x1="1012.87" y1="1342.19" x2="983.44" y2="1334.86" stroke="#D32F2F" stroke-width="5.96" stroke-linecap="round"/>
<line x1="964.45" y1="1335.63" x2="983.44" y2="1334.86" stroke="#D32F2F" stroke-width="8.00" stroke-linecap="round"/>
<line x1="1003.35" y1="1329.42" x2="974.18" y2="1319.78" stroke="#D32F2F" stroke-width="5.54" stroke-linecap="round"/>
<line x1="952.71" y1="1319.88" x2="974.18" y2="1319.78" stroke="#D32F2F" stroke-width="8.00" stroke-linecap="round"/>
<line x1="997.29" y1="1315.55" x2="968.78" y2="1303.63" stroke="#D32F2F" stroke-width="5.29" stroke-linecap="round"/>
<line x1="945.27" y1="1302.85" x2="968.78" y2="1303.63" stroke="#D32F2F" stroke-width="8.00" stroke-linecap="round"/>
<line x1="994.34" y1="1300.88" x2="966.80" y2="1286.78" stroke="#D32F2F" stroke-width="5.85" stroke-linecap="round"/>
<line x1="941.68" y1="1285.02" x2="966.80" y2="1286.78" stroke="#D32F2F" stroke-width="8.00" stroke-linecap="round"/>
<line x1="994.12" y1="1285.59" x2="967.76" y2="1269.47" stroke="#D32F2F" stroke-width="6.52" stroke-linecap="round"/>
<line x1="941.41" y1="1266.75" x2="967.76" y2="1269.47" stroke="#D32F2F" stroke-width="8.00" stroke-linecap="round"/>
<line x1="996.24" y1="1269.76" x2="971.15" y2="1251.82" stroke="#D32F2F" stroke-width="7.08" stroke-linecap="round"/>
<line x1="943.89" y1="1248.26" x2="971.15" y2="1251.82" stroke="#D32F2F" stroke-width="8.00" stroke-linecap="round"/>
<line x1="1000.37" y1="1253.38" x2="976.51" y2="1233.87" stroke="#D32F2F" stroke-width="7.54" stroke-linecap="round"/>
<line x1="948.56" y1="1229.68" x2="976.51" y2="1233.87" stroke="#D32F2F" stroke-width="8.00" stroke-linecap="round"/>
<line x1="1006.18" y1="1236.37" x2="983.39" y2="1215.58" stroke="#D32F2F" stroke-width="7.93" stroke-linecap="round"/>
<line x1="954.93" y1="1211.01" x2="983.39" y2="1215.58" stroke="#D32F2F" stroke-width="8.00" stroke-linecap="round"/>
<line x1="1013.34" y1="1218.62" x2="991.39" y2="1196.87" stroke="#D32F2F" stroke-width="8.00" stroke-linecap="round"/>
<line x1="962.51" y1="1192.22" x2="991.39" y2="1196.87" stroke="#D32F2F" stroke-width="8.00" stroke-linecap="round"/>
<line x1="1021.57" y1="1199.99" x2="1000.13" y2="1177.62" stroke="#D32F2F" stroke-width="8.00" stroke-linecap="round"/>
<line x1="970.90" y1="1173.23" x2="1000.13" y2="1177.62" stroke="#D32F2F" stroke-width="8.00" stroke-linecap="round"/>
<line x1="1030.56" y1="1180.31" x2="1009.26" y2="1157.70" stroke="#D32F2F" stroke-width="8.00" stroke-linecap="round"/>
<line x1="979.71" y1="1153.93" x2="1009.26" y2="1157.70" stroke="#D32F2F" stroke-width="8.00" stroke-linecap="round"/>
<line x1="1039.97" y1="1159.41" x2="1018.45" y2="1136.96" stroke="#D32F2F" stroke-width="8.00" stroke-linecap="round"/>
<line x1="988.60" y1="1134.19" x2="1018.45" y2="1136.96" stroke="#D32F2F" stroke-width="8.00" stroke-linecap="round"/>
<line x1="1049.46" y1="1137.14" x2="1027.35" y2="1115.28" stroke="#D32F2F" stroke-width="8.00" stroke-linecap="round"/>
<line x1="997.25" y1="1113.90" x2="1027.35" y2="1115.28" stroke="#D32F2F" stroke-width="8.00" stroke-linecap="round"/>
<line x1="1058.64" y1="1113.35" x2="1035.63" y2="1092.54" stroke="#D32F2F" stroke-width="8.00" stroke-linecap="round"/>
<line x1="1005.34" y1="1092.94" x2="1035.63" y2="1092.54" stroke="#D32F2F" stroke-width="8.00" stroke-linecap="round"/>
<line x1="1067.09" y1="1087.98" x2="1042.94" y2="1068.68" stroke="#D32F2F" stroke-width="8.00" stroke-linecap="round"/>
<line x1="1012.58" y1="1071.21" x2="1042.94" y2="1068.68" stroke="#D32F2F" stroke-width="8.00" stroke-linecap="round"/>
<line x1="1074.32" y1="1061.03" x2="1048.89" y2="1043.72" stroke="#D32F2F" stroke-width="8.00" stroke-linecap="round"/>
<line x1="1018.64" y1="1048.67" x2="1048.89" y2="1043.72" stroke="#D32F2F" stroke-width="8.00" stroke-linecap="round"/>
<line x1="1079.85" y1="1032.68" x2="1053.08" y2="1017.77" stroke="#D32F2F" stroke-width="8.00" stroke-linecap="round"/>
<line x1="1023.18" y1="1025.34" x2="1053.08" y2="1017.77" stroke="#D32F2F" stroke-width="8.00" stroke-linecap="round"/>
<line x1="1083.14" y1="1003.25" x2="1055.11" y2="991.10" stroke="#D32F2F" stroke-width="8.00" stroke-linecap="round"/>
<line x1="1025.87" y1="1001.37" x2="1055.11" y2="991.10" stroke="#D32F2F" stroke-width="8.00" stroke-linecap="round"/>
<line x1="1083.72" y1="973.27" x2="1054.58" y2="964.19" stroke="#D32F2F" stroke-width="8.00" stroke-linecap="round"/>
<line x1="1026.34" y1="977.06" x2="1054.58" y2="964.19" stroke="#D32F2F" stroke-width="8.00" stroke-linecap="round"/>
<line x1="1081.16" y1="943.54" x2="1051.15" y2="937.73" stroke="#D32F2F" stroke-width="8.00" stroke-linecap="round"/>
<line x1="1024.26" y1="952.93" x2="1051.15" y2="937.73" stroke="#D32F2F" stroke-width="8.00" stroke-linecap="round"/>
<line x1="1075.19" y1="915.02" x2="1044.60" y2="912.61" stroke="#D32F2F" stroke-width="8.00" stroke-linecap="round"/>
<line x1="1019.40" y1="929.72" x2="1044.60" y2="912.61" stroke="#D32F2F" stroke-width="8.00" stroke-linecap="round"/>
<line x1="1065.73" y1="888.84" x2="1034.90" y2="889.86" stroke="#D32F2F" stroke-width="7.52" stroke-linecap="round"/>
<line x1="1011.67" y1="908.33" x2="1034.90" y2="889.86" stroke="#D32F2F" stroke-width="8.00" stroke-linecap="round"/>
<line x1="1052.93" y1="866.17" x2="1022.23" y2="870.53" stroke="#D32F2F" stroke-width="6.61" stroke-linecap="round"/>
<line x1="1001.17" y1="889.75" x2="1022.23" y2="870.53" stroke="#D32F2F" stroke-width="8.00" stroke-linecap="round"/>
<line x1="1037.19" y1="848.00" x2="1007.01" y2="855.50" stroke="#D32F2F" stroke-width="5.62" stroke-linecap="round"/>
<line x1="988.26" y1="874.84" x2="1007.01" y2="855.50" stroke="#D32F2F" stroke-width="8.00" stroke-linecap="round"/>
<line x1="1019.12" y1="835.03" x2="989.83" y2="845.35" stroke="#D32F2F" stroke-width="5.18" stroke-linecap="round"/>
<line x1="973.45" y1="864.21" x2="989.83" y2="845.35" stroke="#D32F2F" stroke-width="8.00" stroke-linecap="round"/>
<line x1="999.46" y1="827.57" x2="971.40" y2="840.29" stroke="#D32F2F" stroke-width="5.52" stroke-linecap="round"/>
<line x1="957.39" y1="858.11" x2="971.40" y2="840.29" stroke="#D32F2F" stroke-width="8.00" stroke-linecap="round"/>
<line x1="978.96" y1="825.52" x2="952.41" y2="840.14" stroke="#D32F2F" stroke-width="6.00" stroke-linecap="round"/>
<line x1="940.70" y1="856.45" x2="952.41" y2="840.14" stroke="#D32F2F" stroke-width="8.00" stroke-linecap="round"/>
<line x1="958.32" y1="828.47" x2="933.47" y2="844.44" stroke="#D32F2F" stroke-width="6.58" stroke-linecap="round"/>
<line x1="923.95" y1="858.84" x2="933.47" y2="844.44" stroke="#D32F2F" stroke-width="8.00" stroke-linecap="round"/>
<line x1="938.11" y1="835.78" x2="915.07" y2="852.58" stroke="#D32F2F" stroke-width="7.18" stroke-linecap="round"/>
<line x1="907.56" y1="864.76" x2="915.07" y2="852.58" stroke="#D32F2F" stroke-width="8.00" stroke-linecap="round"/>
<line x1="918.81" y1="846.73" x2="897.59" y2="863.92" stroke="#D32F2F" stroke-width="7.78" stroke-linecap="round"/>
<line x1="891.84" y1="873.68" x2="897.59" y2="863.92" stroke="#D32F2F" stroke-width="8.00" stroke-linecap="round"/>
<line x1="876.99" y1="885.11" x2="881.28" y2="877.85" stroke="#D32F2F" stroke-width="8.00" stroke-linecap="round"/>
<line x1="1232.00" y1="835.03" x2="1257.66" y2="851.94" stroke="#D32F2F" stroke-width="5.27" stroke-linecap="round"/>
<line x1="1247.60" y1="848.00" x2="1272.00" y2="865.48" stroke="#D32F2F" stroke-width="6.21" stroke-linecap="round"/>
<line x1="1284.80" y1="874.84" x2="1272.00" y2="865.48" stroke="#D32F2F" stroke-width="8.00" stroke-linecap="round"/>
<line x1="1263.34" y1="866.17" x2="1286.31" y2="883.64" stroke="#D32F2F" stroke-width="7.14" stroke-linecap="round"/>
<line x1="1297.72" y1="889.75" x2="1286.31" y2="883.64" stroke="#D32F2F" stroke-width="8.00" stroke-linecap="round"/>
<line x1="1278.60" y1="888.84" x2="1300.05" y2="905.69" stroke="#D32F2F" stroke-width="8.00" stroke-linecap="round"/>
<line x1="1310.22" y1="908.33" x2="1300.05" y2="905.69" stroke="#D32F2F" stroke-width="8.00" stroke-linecap="round"/>
<line x1="1292.86" y1="915.02" x2="1312.74" y2="930.65" stroke="#D32F2F" stroke-width="8.00" stroke-linecap="round"/>
<line x1="1321.87" y1="929.72" x2="1312.74" y2="930.65" stroke="#D32F2F" stroke-width="8.00" stroke-linecap="round"/>
<line x1="1305.72" y1="943.54" x2="1324.05" y2="957.43" stroke="#D32F2F" stroke-width="8.00" stroke-linecap="round"/>
<line x1="1332.34" y1="952.93" x2="1324.05" y2="957.43" stroke="#D32F2F" stroke-width="8.00" stroke-linecap="round"/>
<line x1="1316.93" y1="973.27" x2="1333.78" y2="985.03" stroke="#D32F2F" stroke-width="8.00" stroke-linecap="round"/>
<line x1="1341.44" y1="977.06" x2="1333.78" y2="985.03" stroke="#D32F2F" stroke-width="8.00" stroke-linecap="round"/>
<line x1="1326.37" y1="1003.25" x2="1341.86" y2="1012.61" stroke="#D32F2F" stroke-width="8.00" stroke-linecap="round"/>
<line x1="1349.10" y1="1001.37" x2="1341.86" y2="1012.61" stroke="#D32F2F" stroke-width="8.00" stroke-linecap="round"/>
<line x1="1334.02" y1="1032.68" x2="1348.29" y2="1039.56" stroke="#D32F2F" stroke-width="8.00" stroke-linecap="round"/>
<line x1="1355.32" y1="1025.34" x2="1348.29" y2="1039.56" stroke="#D32F2F" stroke-width="8.00" stroke-linecap="round"/>
<line x1="1339.88" y1="1061.03" x2="1353.09" y2="1065.52" stroke="#D32F2F" stroke-width="8.00" stroke-linecap="round"/>
<line x1="1360.15" y1="1048.67" x2="1353.09" y2="1065.52" stroke="#D32F2F" stroke-width="8.00" stroke-linecap="round"/>
<line x1="1344.01" y1="1087.98" x2="1356.29" y2="1090.26" stroke="#D32F2F" stroke-width="8.00" stroke-linecap="round"/>
<line x1="1363.60" y1="1071.21" x2="1356.29" y2="1090.26" stroke="#D32F2F" stroke-width="8.00" stroke-linecap="round"/>
<line x1="1346.46" y1="1113.35" x2="1357.92" y2="1113.73" stroke="#D32F2F" stroke-width="8.00" stroke-linecap="round"/>
<line x1="1365.69" y1="1092.94" x2="1357.92" y2="1113.73" stroke="#D32F2F" stroke-width="8.00" stroke-linecap="round"/>
<line x1="1347.26" y1="1137.14" x2="1357.97" y2="1135.97" stroke="#D32F2F" stroke-width="8.00" stroke-linecap="round"/>
<line x1="1366.40" y1="1113.90" x2="1357.97" y2="1135.97" stroke="#D32F2F" stroke-width="8.00" stroke-linecap="round"/>
<line x1="1346.45" y1="1159.41" x2="1356.43" y2="1157.08" stroke="#D32F2F" stroke-width="8.00" stroke-linecap="round"/>
<line x1="1365.65" y1="1134.19" x2="1356.43" y2="1157.08" stroke="#D32F2F" stroke-width="8.00" stroke-linecap="round"/>
<line x1="1344.01" y1="1180.31" x2="1353.25" y2="1177.19" stroke="#D32F2F" stroke-width="8.00" stroke-linecap="round"/>
<line x1="1363.35" y1="1153.93" x2="1353.25" y2="1177.19" stroke="#D32F2F" stroke-width="8.00" stroke-linecap="round"/>
<line x1="1339.95" y1="1199.99" x2="1348.35" y2="1196.45" stroke="#D32F2F" stroke-width="8.00" stroke-linecap="round"/>
<line x1="1359.35" y1="1173.23" x2="1348.35" y2="1196.45" stroke="#D32F2F" stroke-width="8.00" stroke-linecap="round"/>
<line x1="1334.21" y1="1218.62" x2="1341.64" y2="1215.03" stroke="#D32F2F" stroke-width="8.00" stroke-linecap="round"/>
<line x1="1353.50" y1="1192.22" x2="1341.64" y2="1215.03" stroke="#D32F2F" stroke-width="8.00" stroke-linecap="round"/>
<line x1="1326.74" y1="1236.37" x2="1332.99" y2="1233.04" stroke="#D32F2F" stroke-width="8.00" stroke-linecap="round"/>
<line x1="1345.58" y1="1211.01" x2="1332.99" y2="1233.04" stroke="#D32F2F" stroke-width="8.00" stroke-linecap="round"/>
<line x1="1317.46" y1="1253.38" x2="1322.27" y2="1250.61" stroke="#D32F2F" stroke-width="8.00" stroke-linecap="round"/>
<line x1="1087.41" y1="1372.49" x2="1061.88" y2="1373.20" stroke="#D32F2F" stroke-width="8.00" stroke-linecap="round"/>
<line x1="1063.77" y1="1369.10" x2="1036.47" y2="1368.12" stroke="#D32F2F" stroke-width="7.88" stroke-linecap="round"/>
<line x1="1026.93" y1="1368.69" x2="1036.47" y2="1368.12" stroke="#D32F2F" stroke-width="8.00" stroke-linecap="round"/>
<line x1="1043.15" y1="1362.58" x2="1014.63" y2="1359.65" stroke="#D32F2F" stroke-width="7.17" stroke-linecap="round"/>
<line x1="1001.70" y1="1360.72" x2="1014.63" y2="1359.65" stroke="#D32F2F" stroke-width="8.00" stroke-linecap="round"/>
<line x1="1026.12" y1="1353.43" x2="996.89" y2="1348.35" stroke="#D32F2F" stroke-width="6.51" stroke-linecap="round"/>
<line x1="980.78" y1="1349.47" x2="996.89" y2="1348.35" stroke="#D32F2F" stroke-width="8.00" stroke-linecap="round"/>
<line x1="1012.87" y1="1342.19" x2="983.44" y2="1334.86" stroke="#D32F2F" stroke-width="5.96" stroke-linecap="round"/>
<line x1="964.45" y1="1335.63" x2="983.44" y2="1334.86" stroke="#D32F2F" stroke-width="8.00" stroke-linecap="round"/>
<line x1="1003.35" y1="1329.42" x2="974.18" y2="1319.78" stroke="#D32F2F" stroke-width="5.54" stroke-linecap="round"/>
<line x1="952.71" y1="1319.88" x2="974.18" y2="1319.78" stroke="#D32F2F" stroke-width="8.00" stroke-linecap="round"/>
<line x1="997.29" y1="1315.55" x2="968.78" y2="1303.63" stroke="#D32F2F" stroke-width="5.29" stroke-linecap="round"/>
<line x1="945.27" y1="1302.85" x2="968.78" y2="1303.63" stroke="#D32F2F" stroke-width="8.00" stroke-linecap="round"/>
<line x1="994.34" y1="1300.88" x2="966.80" y2="1286.78" stroke="#D32F2F" stroke-width="5.85" stroke-linecap="round"/>
<line x1="941.68" y1="1285.02" x2="966.80" y2="1286.78" stroke="#D32F2F" stroke-width="8.00" stroke-linecap="round"/>
<line x1="994.12" y1="1285.59" x2="967.76" y2="1269.47" stroke="#D32F2F" stroke-width="6.52" stroke-linecap="round"/>
<line x1="941.41" y1="1266.75" x2="967.76" y2="1269.47" stroke="#D32F2F" stroke-width="8.00" stroke-linecap="round"/>
<line x1="996.24" y1="1269.76" x2="971.15" y2="1251.82" stroke="#D32F2F" stroke-width="7.08" stroke-linecap="round"/>
<line x1="943.89" y1="1248.26" x2="971.15" y2="1251.82" stroke="#D32F2F" stroke-width="8.00" stroke-linecap="round"/>
<line x1="1000.37" y1="1253.38" x2="976.51" y2="1233.87" stroke="#D32F2F" stroke-width="7.54" stroke-linecap="round"/>
<line x1="948.56" y1="1229.68" x2="976.51" y2="1233.87" stroke="#D32F2F" stroke-width="8.00" stroke-linecap="round"/>
<line x1="1006.18" y1="1236.37" x2="983.39" y2="1215.58" stroke="#D32F2F" stroke-width="7.93" stroke-linecap="round"/>
<line x1="954.93" y1="1211.01" x2="983.39" y2="1215.58" stroke="#D32F2F" stroke-width="8.00" stroke-linecap="round"/>
<line x1="1013.34" y1="1218.62" x2="991.39" y2="1196.87" stroke="#D32F2F" stroke-width="8.00" stroke-linecap="round"/>
<line x1="962.51" y1="1192.22" x2="991.39" y2="1196.87" stroke="#D32F2F" stroke-width="8.00" stroke-linecap="round"/>
<line x1="1021.57" y1="1199.99" x2="1000.13" y2="1177.62" stroke="#D32F2F" stroke-width="8.00" stroke-linecap="round"/>
<line x1="970.90" y1="1173.23" x2="1000.13" y2="1177.62" stroke="#D32F2F" stroke-width="8.00" stroke-linecap="round"/>
<line x1="1030.56" y1="1180.31" x2="1009.26" y2="1157.70" stroke="#D32F2F" stroke-width="8.00" stroke-linecap="round"/>
<line x1="979.71" y1="1153.93" x2="1009.26" y2="1157.70" stroke="#D32F2F" stroke-width="8.00" stroke-linecap="round"/>
<line x1="1039.97" y1="1159.41" x2="1018.45" y2="1136.96" stroke="#D32F2F" stroke-width="8.00" stroke-linecap="round"/>
<line x1="988.60" y1="1134.19" x2="1018.45" y2="1136.96" stroke="#D32F2F" stroke-width="8.00" stroke-linecap="round"/>
<line x1="1049.46" y1="1137.14" x2="1027.35" y2="1115.28" stroke="#D32F2F" stroke-width="8.00" stroke-linecap="round"/>
<line x1="997.25" y1="1113.90" x2="1027.35" y2="1115.28" stroke="#D32F2F" stroke-width="8.00" stroke-linecap="round"/>
<line x1="1058.64" y1="1113.35" x2="1035.63" y2="1092.54" stroke="#D32F2F" stroke-width="8.00" stroke-linecap="round"/>
<line x1="1005.34" y1="1092.94" x2="1035.63" y2="1092.54" stroke="#D32F2F" stroke-width="8.00" stroke-linecap="round"/>
<line x1="1067.09" y1="1087.98" x2="1042.94" y2="1068.68" stroke="#D32F2F" stroke-width="8.00" stroke-linecap="round"/>
<line x1="1012.58" y1="1071.21" x2="1042.94" y2="1068.68" stroke="#D32F2F" stroke-width="8.00" stroke-linecap="round"/>
<line x1="1074.32" y1="1061.03" x2="1048.89" y2="1043.72" stroke="#D32F2F" stroke-width="8.00" stroke-linecap="round"/>
<line x1="1018.64" y1="1048.67" x2="1048.89" y2="1043.72" stroke="#D32F2F" stroke-width="8.00" stroke-linecap="round"/>
<line x1="1079.85" y1="1032.68" x2="1053.08" y2="1017.77" stroke="#D32F2F" stroke-width="8.00" stroke-linecap="round"/>
<line x1="1023.18" y1="1025.34" x2="1053.08" y2="1017.77" stroke="#D32F2F" stroke-width="8.00" stroke-linecap="round"/>
<line x1="1083.14" y1="1003.25" x2="1055.11" y2="991.10" stroke="#D32F2F" stroke-width="8.00" stroke-linecap="round"/>
<line x1="1025.87" y1="1001.37" x2="1055.11" y2="991.10" stroke="#D32F2F" stroke-width="8.00" stroke-linecap="round"/>
<line x1="1083.72" y1="973.27" x2="1054.58" y2="964.19" stroke="#D32F2F" stroke-width="8.00" stroke-linecap="round"/>
<line x1="1026.34" y1="977.06" x2="1054.58" y2="964.19" stroke="#D32F2F" stroke-width="8.00" stroke-linecap="round"/>
<line x1="1081.16" y1="943.54" x2="1051.15" y2="937.73" stroke="#D32F2F" stroke-width="8.00" stroke-linecap="round"/>
<line x1="1024.26" y1="952.93" x2="1051.15" y2="937.73" stroke="#D32F2F" stroke-width="8.00" stroke-linecap="round"/>
<line x1="1075.19" y1="915.02" x2="1044.60" y2="912.61" stroke="#D32F2F" stroke-width="8.00" stroke-linecap="round"/>
<line x1="1019.40" y1="929.72" x2="1044.60" y2="912.61" stroke="#D32F2F" stroke-width="8.00" stroke-linecap="round"/>
<line x1="1065.73" y1="888.84" x2="1034.90" y2="889.86" stroke="#D32F2F" stroke-width="7.52" stroke-linecap="round"/>
<line x1="1011.67" y1="908.33" x2="1034.90" y2="889.86" stroke="#D32F2F" stroke-width="8.00" stroke-linecap="round"/>
<line x1="1052.93" y1="866.17" x2="1022.23" y2="870.53" stroke="#D32F2F" stroke-width="6.61" stroke-linecap="round"/>
<line x1="1001.17" y1="889.75" x2="1022.23" y2="870.53" stroke="#D32F2F" stroke-width="8.00" stroke-linecap="round"/>
<line x1="1037.19" y1="848.00" x2="1007.01" y2="855.50" stroke="#D32F2F" stroke-width="5.62" stroke-linecap="round"/>
<line x1="988.26" y1="874.84" x2="1007.01" y2="855.50" stroke="#D32F2F" stroke-width="8.00" stroke-linecap="round"/>
<line x1="1019.12" y1="835.03" x2="989.83" y2="845.35" stroke="#D32F2F" stroke-width="5.18" stroke-linecap="round"/>
<line x1="973.45" y1="864.21" x2="989.83" y2="845.35" stroke="#D32F2F" stroke-width="8.00" stroke-linecap="round"/>
<line x1="999.46" y1="827.57" x2="971.40" y2="840.29" stroke="#D32F2F" stroke-width="5.52" stroke-linecap="round"/>
<line x1="957.39" y1="858.11" x2="971.40" y2="840.29" stroke="#D32F2F" stroke-width="8.00" stroke-linecap="round"/>
<line x1="978.96" y1="825.52" x2="952.41" y2="840.14" stroke="#D32F2F" stroke-width="6.00" stroke-linecap="round"/>
<line x1="940.70" y1="856.45" x2="952.41" y2="840.14" stroke="#D32F2F" stroke-width="8.00" stroke-linecap="round"/>
<line x1="958.32" y1="828.47" x2="933.47" y2="844.44" stroke="#D32F2F" stroke-width="6.58" stroke-linecap="round"/>
<line x1="923.95" y1="858.84" x2="933.47" y2="844.44" stroke="#D32F2F" stroke-width="8.00" stroke-linecap="round"/>
<line x1="938.11" y1="835.78" x2="915.07" y2="852.58" stroke="#D32F2F" stroke-width="7.18" stroke-linecap="round"/>
<line x1="907.56" y1="864.76" x2="915.07" y2="852.58" stroke="#D32F2F" stroke-width="8.00" stroke-linecap="round"/>
<line x1="918.81" y1="846.73" x2="897.59" y2="863.92" stroke="#D32F2F" stroke-width="7.78" stroke-linecap="round"/>
<line x1="891.84" y1="873.68" x2="897.59" y2="863.92" stroke="#D32F2F" stroke-width="8.00" stroke-linecap="round"/>
<line x1="876.99" y1="885.11" x2="881.28" y2="877.85" stroke="#D32F2F" stroke-width="8.00" stroke-linecap="round"/>
<circle cx="1084.59" cy="1084.59" r="290.0" fill="none" stroke="#ccc" stroke-width="0.5"/>
<line x1="582.29" y1="1084.59" x2="833.44" y2="1084.59" stroke="#A1A1AA" stroke-width="5" opacity="0.9"/>
<line x1="1210.16" y1="1229.59" x2="1335.74" y2="1374.59" stroke="#A1A1AA" stroke-width="5" opacity="0.9"/>
<line x1="1157.09" y1="833.44" x2="1229.59" y2="582.29" stroke="#A1A1AA" stroke-width="5" opacity="0.9"/>
<polygon points="833.44,794.59 852.58,804.47 840.49,814.95" fill="#A1A1AA" opacity="0.9"/>
<text x="1662.23" y="1084.59" font-family="Palatino, 'Palatino Linotype', 'Book Antiqua', Georgia, serif" font-style="italic" font-size="52" fill="#A1A1AA" text-anchor="middle" dominant-baseline="middle" opacity="0.9">x</text>
<text x="1396.01" y="1444.19" font-family="Palatino, 'Palatino Linotype', 'Book Antiqua', Georgia, serif" font-style="italic" font-size="52" fill="#A1A1AA" text-anchor="middle" dominant-baseline="middle" opacity="0.9">y</text>
<text x="1251.34" y="506.95" font-family="Palatino, 'Palatino Linotype', 'Book Antiqua', Georgia, serif" font-style="italic" font-size="52" fill="#A1A1AA" text-anchor="middle" dominant-baseline="middle" opacity="0.9">z</text>
</svg>