<svg width="2169" height="2169" viewBox="0 0 2169.1789 2169.1789" xmlns="http://www.w3.org/2000/svg">
<line x1="1012.09" y1="1159.65" x2="939.59" y2="1234.70" stroke="#A1A1AA" stroke-width="5" opacity="0.9"/>
<line x1="1350.14" y1="1012.09" x2="1615.68" y2="939.59" stroke="#A1A1AA" stroke-width="5" opacity="0.9"/>
<line x1="993.33" y1="814.02" x2="902.06" y2="543.44" stroke="#A1A1AA" stroke-width="5" opacity="0.9"/>
<circle cx="1084.59" cy="1084.59" r="290.0" fill="#FDFDF5"/>
<line x1="1310.16" y1="984.11" x2="1319.10" y2="969.60" stroke="#D32F2F" stroke-width="8.00" stroke-linecap="round"/>
<line x1="1334.72" y1="977.43" x2="1319.10" y2="969.60" stroke="#D32F2F" stroke-width="8.00" stroke-linecap="round"/>
<line x1="1300.51" y1="962.45" x2="1308.78" y2="948.42" stroke="#D32F2F" stroke-width="8.00" stroke-linecap="round"/>
<line x1="1325.26" y1="956.18" x2="1308.78" y2="948.42" stroke="#D32F2F" stroke-width="8.00" stroke-linecap="round"/>
<line x1="1289.21" y1="941.10" x2="1297.15" y2="928.02" stroke="#D32F2F" stroke-width="8.00" stroke-linecap="round"/>
<line x1="1314.59" y1="936.01" x2="1297.15" y2="928.02" stroke="#D32F2F" stroke-width="8.00" stroke-linecap="round"/>
<line x1="1276.38" y1="920.11" x2="1284.37" y2="908.41" stroke="#D32F2F" stroke-width="8.00" stroke-linecap="round"/>
<line x1="1302.90" y1="916.89" x2="1284.37" y2="908.41" stroke="#D32F2F" stroke-width="8.00" stroke-linecap="round"/>
<line x1="1262.14" y1="899.62" x2="1270.58" y2="889.68" stroke="#D32F2F" stroke-width="8.00" stroke-linecap="round"/>
<line x1="1290.35" y1="898.83" x2="1270.58" y2="889.68" stroke="#D32F2F" stroke-width="8.00" stroke-linecap="round"/>
<line x1="1246.65" y1="879.83" x2="1255.94" y2="871.95" stroke="#D32F2F" stroke-width="8.00" stroke-linecap="round"/>
<line x1="1277.09" y1="881.88" x2="1255.94" y2="871.95" stroke="#D32F2F" stroke-width="8.00" stroke-linecap="round"/>
<line x1="1230.11" y1="861.05" x2="1240.62" y2="855.45" stroke="#D32F2F" stroke-width="8.00" stroke-linecap="round"/>
<line x1="1263.25" y1="866.16" x2="1240.62" y2="855.45" stroke="#D32F2F" stroke-width="8.00" stroke-linecap="round"/>
<line x1="1212.80" y1="843.69" x2="1224.83" y2="840.51" stroke="#D32F2F" stroke-width="8.00" stroke-linecap="round"/>
<line x1="1249.01" y1="851.87" x2="1224.83" y2="840.51" stroke="#D32F2F" stroke-width="7.90" stroke-linecap="round"/>
<line x1="1195.06" y1="828.29" x2="1208.87" y2="827.58" stroke="#D32F2F" stroke-width="8.00" stroke-linecap="round"/>
<line x1="1234.56" y1="839.34" x2="1208.87" y2="827.58" stroke="#D32F2F" stroke-width="7.17" stroke-linecap="round"/>
<line x1="1177.32" y1="815.52" x2="1193.07" y2="817.21" stroke="#D32F2F" stroke-width="8.00" stroke-linecap="round"/>
<line x1="1220.18" y1="828.98" x2="1193.07" y2="817.21" stroke="#D32F2F" stroke-width="6.38" stroke-linecap="round"/>
<line x1="1160.11" y1="806.10" x2="1177.90" y2="810.04" stroke="#D32F2F" stroke-width="8.00" stroke-linecap="round"/>
<line x1="895.22" y1="865.15" x2="878.71" y2="882.45" stroke="#D32F2F" stroke-width="8.00" stroke-linecap="round"/>
<line x1="858.03" y1="905.59" x2="878.71" y2="882.45" stroke="#D32F2F" stroke-width="4.59" stroke-linecap="round"/>
<line x1="904.59" y1="861.51" x2="887.33" y2="880.97" stroke="#D32F2F" stroke-width="8.00" stroke-linecap="round"/>
<line x1="865.72" y1="902.60" x2="887.33" y2="880.97" stroke="#D32F2F" stroke-width="5.57" stroke-linecap="round"/>
<line x1="913.87" y1="863.58" x2="895.74" y2="884.65" stroke="#D32F2F" stroke-width="7.79" stroke-linecap="round"/>
<line x1="873.29" y1="904.29" x2="895.74" y2="884.65" stroke="#D32F2F" stroke-width="6.53" stroke-linecap="round"/>
<line x1="922.68" y1="870.92" x2="903.62" y2="893.03" stroke="#D32F2F" stroke-width="7.24" stroke-linecap="round"/>
<line x1="880.46" y1="910.27" x2="903.62" y2="893.03" stroke="#D32F2F" stroke-width="7.43" stroke-linecap="round"/>
<line x1="930.74" y1="882.84" x2="910.75" y2="905.41" stroke="#D32F2F" stroke-width="6.80" stroke-linecap="round"/>
<line x1="887.01" y1="919.94" x2="910.75" y2="905.41" stroke="#D32F2F" stroke-width="8.00" stroke-linecap="round"/>
<line x1="937.88" y1="898.51" x2="917.00" y2="921.02" stroke="#D32F2F" stroke-width="6.51" stroke-linecap="round"/>
<line x1="892.80" y1="932.64" x2="917.00" y2="921.02" stroke="#D32F2F" stroke-width="8.00" stroke-linecap="round"/>
<line x1="944.06" y1="917.06" x2="922.37" y2="939.11" stroke="#D32F2F" stroke-width="6.37" stroke-linecap="round"/>
<line x1="897.83" y1="947.75" x2="922.37" y2="939.11" stroke="#D32F2F" stroke-width="8.00" stroke-linecap="round"/>
<line x1="949.33" y1="937.71" x2="926.97" y2="959.02" stroke="#D32F2F" stroke-width="6.57" stroke-linecap="round"/>
<line x1="902.16" y1="964.74" x2="926.97" y2="959.02" stroke="#D32F2F" stroke-width="8.00" stroke-linecap="round"/>
<line x1="953.84" y1="959.78" x2="930.95" y2="980.23" stroke="#D32F2F" stroke-width="7.42" stroke-linecap="round"/>
<line x1="905.94" y1="983.21" x2="930.95" y2="980.23" stroke="#D32F2F" stroke-width="8.00" stroke-linecap="round"/>
<line x1="957.82" y1="982.71" x2="934.56" y2="1002.32" stroke="#D32F2F" stroke-width="8.00" stroke-linecap="round"/>
<line x1="909.34" y1="1002.85" x2="934.56" y2="1002.32" stroke="#D32F2F" stroke-width="8.00" stroke-linecap="round"/>
<line x1="961.50" y1="1006.08" x2="938.04" y2="1024.96" stroke="#D32F2F" stroke-width="8.00" stroke-linecap="round"/>
<line x1="912.59" y1="1023.45" x2="938.04" y2="1024.96" stroke="#D32F2F" stroke-width="8.00" stroke-linecap="round"/>
<line x1="965.16" y1="1029.57" x2="941.68" y2="1047.91" stroke="#D32F2F" stroke-width="8.00" stroke-linecap="round"/>
<line x1="915.92" y1="1044.86" x2="941.68" y2="1047.91" stroke="#D32F2F" stroke-width="8.00" stroke-linecap="round"/>
<line x1="969.08" y1="1052.94" x2="945.75" y2="1070.99" stroke="#D32F2F" stroke-width="8.00" stroke-linecap="round"/>
<line x1="919.63" y1="1066.93" x2="945.75" y2="1070.99" stroke="#D32F2F" stroke-width="8.00" stroke-linecap="round"/>
<line x1="973.53" y1="1076.01" x2="950.56" y2="1094.05" stroke="#D32F2F" stroke-width="8.00" stroke-linecap="round"/>
<line x1="924.00" y1="1089.57" x2="950.56" y2="1094.05" stroke="#D32F2F" stroke-width="8.00" stroke-linecap="round"/>
<line x1="978.79" y1="1098.66" x2="956.42" y2="1116.97" stroke="#D32F2F" stroke-width="8.00" stroke-linecap="round"/>
<line x1="929.36" y1="1112.66" x2="956.42" y2="1116.97" stroke="#D32F2F" stroke-width="8.00" stroke-linecap="round"/>
<line x1="985.14" y1="1120.77" x2="963.63" y2="1139.62" stroke="#D32F2F" stroke-width="8.00" stroke-linecap="round"/>
<line x1="936.09" y1="1136.06" x2="963.63" y2="1139.62" stroke="#D32F2F" stroke-width="8.00" stroke-linecap="round"/>
<line x1="992.85" y1="1142.23" x2="972.50" y2="1161.86" stroke="#D32F2F" stroke-width="8.00" stroke-linecap="round"/>
<line x1="944.56" y1="1159.61" x2="972.50" y2="1161.86" stroke="#D32F2F" stroke-width="8.00" stroke-linecap="round"/>
<line x1="1002.20" y1="1162.91" x2="983.37" y2="1183.50" stroke="#D32F2F" stroke-width="8.00" stroke-linecap="round"/>
<line x1="955.16" y1="1183.07" x2="983.37" y2="1183.50" stroke="#D32F2F" stroke-width="8.00" stroke-linecap="round"/>
<line x1="1013.45" y1="1182.66" x2="996.54" y2="1204.31" stroke="#D32F2F" stroke-width="8.00" stroke-linecap="round"/>
<line x1="968.31" y1="1206.13" x2="996.54" y2="1204.31" stroke="#D32F2F" stroke-width="8.00" stroke-linecap="round"/>
<line x1="1026.88" y1="1201.25" x2="1012.31" y2="1223.95" stroke="#D32F2F" stroke-width="8.00" stroke-linecap="round"/>
<line x1="984.37" y1="1228.35" x2="1012.31" y2="1223.95" stroke="#D32F2F" stroke-width="8.00" stroke-linecap="round"/>
<line x1="1042.74" y1="1218.40" x2="1030.91" y2="1242.00" stroke="#D32F2F" stroke-width="8.00" stroke-linecap="round"/>
<line x1="1003.65" y1="1249.19" x2="1030.91" y2="1242.00" stroke="#D32F2F" stroke-width="8.00" stroke-linecap="round"/>
<line x1="1061.22" y1="1233.68" x2="1052.49" y2="1257.89" stroke="#D32F2F" stroke-width="8.00" stroke-linecap="round"/>
<line x1="1026.34" y1="1267.96" x2="1052.49" y2="1257.89" stroke="#D32F2F" stroke-width="8.00" stroke-linecap="round"/>
<line x1="1082.37" y1="1246.59" x2="1077.03" y2="1270.97" stroke="#D32F2F" stroke-width="8.00" stroke-linecap="round"/>
<line x1="1052.42" y1="1283.87" x2="1077.03" y2="1270.97" stroke="#D32F2F" stroke-width="8.00" stroke-linecap="round"/>
<line x1="1106.08" y1="1256.49" x2="1104.28" y2="1280.49" stroke="#D32F2F" stroke-width="8.00" stroke-linecap="round"/>
<line x1="1081.64" y1="1296.07" x2="1104.28" y2="1280.49" stroke="#D32F2F" stroke-width="8.00" stroke-linecap="round"/>
<line x1="1131.97" y1="1262.72" x2="1133.68" y2="1285.74" stroke="#D32F2F" stroke-width="8.00" stroke-linecap="round"/>
<line x1="1113.45" y1="1303.72" x2="1133.68" y2="1285.74" stroke="#D32F2F" stroke-width="8.00" stroke-linecap="round"/>
<line x1="1159.35" y1="1264.67" x2="1164.41" y2="1286.09" stroke="#D32F2F" stroke-width="8.00" stroke-linecap="round"/>
<line x1="1146.95" y1="1306.11" x2="1164.41" y2="1286.09" stroke="#D32F2F" stroke-width="8.00" stroke-linecap="round"/>
<line x1="1187.25" y1="1261.95" x2="1195.35" y2="1281.21" stroke="#D32F2F" stroke-width="8.00" stroke-linecap="round"/>
<line x1="1180.99" y1="1302.79" x2="1195.35" y2="1281.21" stroke="#D32F2F" stroke-width="8.00" stroke-linecap="round"/>
<line x1="1214.56" y1="1254.49" x2="1225.29" y2="1271.11" stroke="#D32F2F" stroke-width="8.00" stroke-linecap="round"/>
<line x1="1214.27" y1="1293.71" x2="1225.29" y2="1271.11" stroke="#D32F2F" stroke-width="8.00" stroke-linecap="round"/>
<line x1="1240.15" y1="1242.61" x2="1253.05" y2="1256.19" stroke="#D32F2F" stroke-width="8.00" stroke-linecap="round"/>
<line x1="1245.50" y1="1279.20" x2="1253.05" y2="1256.19" stroke="#D32F2F" stroke-width="8.00" stroke-linecap="round"/>
<line x1="1263.10" y1="1226.91" x2="1277.66" y2="1237.21" stroke="#D32F2F" stroke-width="8.00" stroke-linecap="round"/>
<line x1="1273.59" y1="1260.00" x2="1277.66" y2="1237.21" stroke="#D32F2F" stroke-width="8.00" stroke-linecap="round"/>
<line x1="1282.78" y1="1208.25" x2="1298.49" y2="1215.09" stroke="#D32F2F" stroke-width="8.00" stroke-linecap="round"/>
<line x1="1297.76" y1="1237.07" x2="1298.49" y2="1215.09" stroke="#D32F2F" stroke-width="8.00" stroke-linecap="round"/>
<line x1="1298.88" y1="1187.48" x2="1315.26" y2="1190.81" stroke="#D32F2F" stroke-width="8.00" stroke-linecap="round"/>
<line x1="1317.60" y1="1211.47" x2="1315.26" y2="1190.81" stroke="#D32F2F" stroke-width="8.00" stroke-linecap="round"/>
<line x1="1311.39" y1="1165.38" x2="1327.96" y2="1165.27" stroke="#D32F2F" stroke-width="8.00" stroke-linecap="round"/>
<line x1="1333.03" y1="1184.22" x2="1327.96" y2="1165.27" stroke="#D32F2F" stroke-width="8.00" stroke-linecap="round"/>
<line x1="1320.48" y1="1142.57" x2="1336.79" y2="1139.18" stroke="#D32F2F" stroke-width="8.00" stroke-linecap="round"/>
<line x1="1344.20" y1="1156.21" x2="1336.79" y2="1139.18" stroke="#D32F2F" stroke-width="8.00" stroke-linecap="round"/>
<line x1="1326.42" y1="1119.47" x2="1342.10" y2="1113.10" stroke="#D32F2F" stroke-width="8.00" stroke-linecap="round"/>
<line x1="1351.42" y1="1128.14" x2="1342.10" y2="1113.10" stroke="#D32F2F" stroke-width="8.00" stroke-linecap="round"/>
<line x1="1329.50" y1="1096.37" x2="1344.23" y2="1087.38" stroke="#D32F2F" stroke-width="8.00" stroke-linecap="round"/>
<line x1="1355.10" y1="1100.53" x2="1344.23" y2="1087.38" stroke="#D32F2F" stroke-width="8.00" stroke-linecap="round"/>
<line x1="1329.98" y1="1073.42" x2="1343.56" y2="1062.27" stroke="#D32F2F" stroke-width="8.00" stroke-linecap="round"/>
<line x1="1355.67" y1="1073.73" x2="1343.56" y2="1062.27" stroke="#D32F2F" stroke-width="8.00" stroke-linecap="round"/>
<line x1="1328.11" y1="1050.70" x2="1340.43" y2="1037.90" stroke="#D32F2F" stroke-width="8.00" stroke-linecap="round"/>
<line x1="1353.56" y1="1047.95" x2="1340.43" y2="1037.90" stroke="#D32F2F" stroke-width="8.00" stroke-linecap="round"/>
<line x1="1324.08" y1="1028.23" x2="1335.14" y2="1014.33" stroke="#D32F2F" stroke-width="8.00" stroke-linecap="round"/>
<line x1="1349.14" y1="1023.29" x2="1335.14" y2="1014.33" stroke="#D32F2F" stroke-width="8.00" stroke-linecap="round"/>
<line x1="1318.05" y1="1006.04" x2="1327.96" y2="991.57" stroke="#D32F2F" stroke-width="8.00" stroke-linecap="round"/>
<line x1="1342.76" y1="999.79" x2="1327.96" y2="991.57" stroke="#D32F2F" stroke-width="8.00" stroke-linecap="round"/>
<line x1="1310.16" y1="984.11" x2="1319.10" y2="969.60" stroke="#D32F2F" stroke-width="8.00" stroke-linecap="round"/>
<line x1="1334.72" y1="977.43" x2="1319.10" y2="969.60" stroke="#D32F2F" stroke-width="8.00" stroke-linecap="round"/>
<line x1="1300.51" y1="962.45" x2="1308.78" y2="948.42" stroke="#D32F2F" stroke-width="8.00" stroke-linecap="round"/>
<line x1="1325.26" y1="956.18" x2="1308.78" y2="948.42" stroke="#D32F2F" stroke-width="8.00" stroke-linecap="round"/>
<line x1="1289.21" y1="941.10" x2="1297.15" y2="928.02" stroke="#D32F2F" stroke-width="8.00" stroke-linecap="round"/>
<line x1="1314.59" y1="936.01" x2="1297.15" y2="928.02" stroke="#D32F2F" stroke-width="8.00" stroke-linecap="round"/>
<line x1="1276.38" y1="920.11" x2="1284.37" y2="908.41" stroke="#D32F2F" stroke-width="8.00" stroke-linecap="round"/>
<line x1="1302.90" y1="916.89" x2="1284.37" y2="908.41" stroke="#D32F2F" stroke-width="8.00" stroke-linecap="round"/>
<line x1="1262.14" y1="899.62" x2="1270.58" y2="889.68" stroke="#D32F2F" stroke-width="8.00" stroke-linecap="round"/>
<line x1="1290.35" y1="898.83" x2="1270.58" y2="889.68" stroke="#D32F2F" stroke-width="8.00" stroke-linecap="round"/>
<line x1="1246.65" y1="879.83" x2="1255.94" y2="871.95" stroke="#D32F2F" stroke-width="8.00" stroke-linecap="round"/>
<line x1="1277.09" y1="881.88" x2="1255.94" y2="871.95" stroke="#D32F2F" stroke-width="8.00" stroke-linecap="round"/>
<line x1="1230.11" y1="861.05" x2="1240.62" y2="855.45" stroke="#D32F2F" stroke-width="8.00" stroke-linecap="round"/>
<line x1="1263.25" y1="866.16" x2="1240.62" y2="855.45" stroke="#D32F2F" stroke-width="8.00" stroke-linecap="round"/>
<line x1="1212.80" y1="843.69" x2="1224.83" y2="840.51" stroke="#D32F2F" stroke-width="8.00" stroke-linecap="round"/>
<line x1="1249.01" y1="851.87" x2="1224.83" y2="840.51" stroke="#D32F2F" stroke-width="7.90" stroke-linecap="round"/>
<line x1="1195.06" y1="828.29" x2="1208.87" y2="827.58" stroke="#D32F2F" stroke-width="8.00" stroke-linecap="round"/>
<line x1="1234.56" y1="839.34" x2="1208.87" y2="827.58" stroke="#D32F2F" stroke-width="7.17" stroke-linecap="round"/>
<line x1="1177.32" y1="815.52" x2="1193.07" y2="817.21" stroke="#D32F2F" stroke-width="8.00" stroke-linecap="round"/>
<line x1="1220.18" y1="828.98" x2="1193.07" y2="817.21" stroke="#D32F2F" stroke-width="6.38" stroke-linecap="round"/>
<line x1="1160.11" y1="806.10" x2="1177.90" y2="810.04" stroke="#D32F2F" stroke-width="8.00" stroke-linecap="round"/>
<line x1="895.22" y1="865.15" x2="878.71" y2="882.45" stroke="#D32F2F" stroke-width="8.00" stroke-linecap="round"/>
<line x1="858.03" y1="905.59" x2="878.71" y2="882.45" stroke="#D32F2F" stroke-width="4.59" stroke-linecap="round"/>
<line x1="904.59" y1="861.51" x2="887.33" y2="880.97" stroke="#D32F2F" stroke-width="8.00" stroke-linecap="round"/>
<line x1="865.72" y1="902.60" x2="887.33" y2="880.97" stroke="#D32F2F" stroke-width="5.57" stroke-linecap="round"/>
<line x1="913.87" y1="863.58" x2="895.74" y2="884.65" stroke="#D32F2F" stroke-width="7.79" stroke-linecap="round"/>
<line x1="873.29" y1="904.29" x2="895.74" y2="884.65" stroke="#D32F2F" stroke-width="6.53" stroke-linecap="round"/>
<line x1="922.68" y1="870.92" x2="903.62" y2="893.03" stroke="#D32F2F" stroke-width="7.24" stroke-linecap="round"/>
<line x1="880.46" y1="910.27" x2="903.62" y2="893.03" stroke="#D32F2F" stroke-width="7.43" stroke-linecap="round"/>
<line x1="930.74" y1="882.84" x2="910.75" y2="905.41" stroke="#D32F2F" stroke-width="6.80" stroke-linecap="round"/>
<line x1="887.01" y1="919.94" x2="910.75" y2="905.41" stroke="#D32F2F" stroke-width="8.00" stroke-linecap="round"/>
<line x1="937.88" y1="898.51" x2="917.00" y2="921.02" stroke="#D32F2F" stroke-width="6.51" stroke-linecap="round"/>
<line x1="892.80" y1="932.64" x2="917.00" y2="921.02" stroke="#D32F2F" stroke-width="8.00" stroke-linecap="round"/>
<line x1="944.06" y1="917.06" x2="922.37" y2="939.11" stroke="#D32F2F" stroke-width="6.37" stroke-linecap="round"/>
<line x1="897.83" y1="947.75" x2="922.37" y2="939.11" stroke="#D32F2F" stroke-width="8.00" stroke-linecap="round"/>
<line x1="949.33" y1="937.71" x2="926.97" y2="959.02" stroke="#D32F2F" stroke-width="6.57" stroke-linecap="round"/>
<line x1="902.16" y1="964.74" x2="926.97" y2="959.02" stroke="#D32F2F" stroke-width="8.00" stroke-linecap="round"/>
<line x1="953.84" y1="959.78" x2="930.95" y2="980.23" stroke="#D32F2F" stroke-width="7.42" stroke-linecap="round"/>
<line x1="905.94" y1="983.21" x2="930.95" y2="980.23" stroke="#D32F2F" stroke-width="8.00" stroke-linecap="round"/>
<line x1="957.82" y1="982.71" x2="934.56" y2="1002.32" stroke="#D32F2F" stroke-width="8.00" stroke-linecap="round"/>
<line x1="909.34" y1="1002.85" x2="934.56" y2="1002.32" stroke="#D32F2F" stroke-width="8.00" stroke-linecap="round"/>
<line x1="961.50" y1="1006.08" x2="938.04" y2="1024.96" stroke="#D32F2F" stroke-width="8.00" stroke-linecap="round"/>
<line x1="912.59" y1="1023.45" x2="938.04" y2="1024.96" stroke="#D32F2F" stroke-width="8.00" stroke-linecap="round"/>
<line x1="965.16" y1="1029.57" x2="941.68" y2="1047.91" stroke="#D32F2F" stroke-width="8.00" stroke-linecap="round"/>
<line x1="915.92" y1="1044.86" x2="941.68" y2="1047.91" stroke="#D32F2F" stroke-width="8.00" stroke-linecap="round"/>
<line x1="969.08" y1="1052.94" x2="945.75" y2="1070.99" stroke="#D32F2F" stroke-width="8.00" stroke-linecap="round"/>
<line x1="919.63" y1="1066.93" x2="945.75" y2="1070.99" stroke="#D32F2F" stroke-width="8.00" stroke-linecap="round"/>
<line x1="973.53" y1="1076.01" x2="950.56" y2="1094.05" stroke="#D32F2F" stroke-width="8.00" stroke-linecap="round"/>
<line x1="924.00" y1="1089.57" x2="950.56" y2="1094.05" stroke="#D32F2F" stroke-width="8.00" stroke-linecap="round"/>
<line x1="978.79" y1="1098.66" x2="956.42" y2="1116.97" stroke="#D32F2F" stroke-width="8.00" stroke-linecap="round"/>
<line x1="929.36" y1="1112.66" x2="956.42" y2="1116.97" stroke="#D32F2F" stroke-width="8.00" stroke-linecap="round"/>
<line x1="985.14" y1="1120.77" x2="963.63" y2="1139.62" stroke="#D32F2F" stroke-width="8.00" stroke-linecap="round"/>
<line x1="936.09" y1="1136.06" x2="963.63" y2="1139.62" stroke="#D32F2F" stroke-width="8.00" stroke-linecap="round"/>
<line x1="992.85" y1="1142.23" x2="972.50" y2="1161.86" stroke="#D32F2F" stroke-width="8.00" stroke-linecap="round"/>
<line x1="944.56" y1="1159.61" x2="972.50" y2="1161.86" stroke="#D32F2F" stroke-width="8.00" stroke-linecap="round"/>
<line x1="1002.20" y1="1162.91" x2="983.37" y2="1183.50" stroke="#D32F2F" stroke-width="8.00" stroke-linecap="round"/>
<line x1="955.16" y1="1183.07" x2="983.37" y2="1183.50" stroke="#D32F2F" stroke-width="8.00" stroke-linecap="round"/>
<line x1="1013.45" y1="1182.66" x2="996.54" y2="1204.31" stroke="#D32F2F" stroke-width="8.00" stroke-linecap="round"/>
<line x1="968.31" y1="1206.13" x2="996.54" y2="1204.31" stroke="#D32F2F" stroke-width="8.00" stroke-linecap="round"/>
<line x1="1026.88" y1="1201.25" x2="1012.31" y2="1223.95" stroke="#D32F2F" stroke-width="8.00" stroke-linecap="round"/>
<line x1="984.37" y1="1228.35" x2="1012.31" y2="1223.95" stroke="#D32F2F" stroke-width="8.00" stroke-linecap="round"/>
<line x1="1042.74" y1="1218.40" x2="1030.91" y2="1242.00" stroke="#D32F2F" stroke-width="8.00" stroke-linecap="round"/>
<line x1="1003.65" y1="1249.19" x2="1030.91" y2="1242.00" stroke="#D32F2F" stroke-width="8.00" stroke-linecap="round"/>
<line x1="1061.22" y1="1233.68" x2="1052.49" y2="1257.89" stroke="#D32F2F" stroke-width="8.00" stroke-linecap="round"/>
<line x1="1026.34" y1="1267.96" x2="1052.49" y2="1257.89" stroke="#D32F2F" stroke-width="8.00" stroke-linecap="round"/>
<line x1="1082.37" y1="1246.59" x2="1077.03" y2="1270.97" stroke="#D32F2F" stroke-width="8.00" stroke-linecap="round"/>
<line x1="1052.42" y1="1283.87" x2="1077.03" y2="1270.97" stroke="#D32F2F" stroke-width="8.00" stroke-linecap="round"/>
<line x1="1106.08" y1="1256.49" x2="1104.28" y2="1280.49" stroke="#D32F2F" stroke-width="8.00" stroke-linecap="round"/>
<line x1="1081.64" y1="1296.07" x2="1104.28" y2="1280.49" stroke="#D32F2F" stroke-width="8.00" stroke-linecap="round"/>
<line x1="1131.97" y1="1262.72" x2="1133.68" y2="1285.74" stroke="#D32F2F" stroke-width="8.00" stroke-linecap="round"/>
<line x1="1113.45" y1="1303.72" x2="1133.68" y2="1285.74" stroke="#D32F2F" stroke-width="8.00" stroke-linecap="round"/>
<line x1="1159.35" y1="1264.67" x2="1164.41" y2="1286.09" stroke="#D32F2F" stroke-width="8.00" stroke-linecap="round"/>
<line x1="1146.95" y1="1306.11" x2="1164.41" y2="1286.09" stroke="#D32F2F" stroke-width="8.00" stroke-linecap="round"/>
<line x1="1187.25" y1="1261.95" x2="1195.35" y2="1281.21" stroke="#D32F2F" stroke-width="8.00" stroke-linecap="round"/>
<line x1="1180.99" y1="1302.79" x2="1195.35" y2="1281.21" stroke="#D32F2F" stroke-width="8.00" stroke-linecap="round"/>
<line x1="1214.56" y1="1254.49" x2="1225.29" y2="1271.11" stroke="#D32F2F" stroke-width="8.00" stroke-linecap="round"/>
<line x1="1214.27" y1="1293.71" x2="1225.29" y2="1271.11" stroke="#D32F2F" stroke-width="8.00" stroke-linecap="round"/>
<line x1="1240.15" y1="1242.61" x2="1253.05" y2="1256.19" stroke="#D32F2F" stroke-width="8.00" stroke-linecap="round"/>
<line x1="1245.50" y1="1279.20" x2="1253.05" y2="1256.19" stroke="#D32F2F" stroke-width="8.00" stroke-linecap="round"/>
<line x1="1263.10" y1="1226.91" x2="1277.66" y2="1237.21" stroke="#D32F2F" stroke-width="8.00" stroke-linecap="round"/>
<line x1="1273.59" y1="1260.00" x2="1277.66" y2="1237.21" stroke="#D32F2F" stroke-width="8.00" stroke-linecap="round"/>
<line x1="1282.78" y1="1208.25" x2="1298.49" y2="1215.09" stroke="#D32F2F" stroke-width="8.00" stroke-linecap="round"/>
<line x1="1297.76" y1="1237.07" x2="1298.49" y2="1215.09" stroke="#D32F2F" stroke-width="8.00" stroke-linecap="round"/>
<line x1="1298.88" y1="1187.48" x2="1315.26" y2="1190.81" stroke="#D32F2F" stroke-width="8.00" stroke-linecap="round"/>
<line x1="1317.60" y1="1211.47" x2="1315.26" y2="1190.81" stroke="#D32F2F" stroke-width="8.00" stroke-linecap="round"/>
<line x1="1311.39" y1="1165.38" x2="1327.96" y2="1165.27" stroke="#D32F2F" stroke-width="8.00" stroke-linecap="round"/>
<line x1="1333.03" y1="1184.22" x2="1327.96" y2="1165.27" stroke="#D32F2F" stroke-width="8.00" stroke-linecap="round"/>
<line x1="1320.48" y1="1142.57" x2="1336.79" y2="1139.18" stroke="#D32F2F" stroke-width="8.00" stroke-linecap="round"/>
<line x1="1344.20" y1="1156.21" x2="1336.79" y2="1139.18" stroke="#D32F2F" stroke-width="8.00" stroke-linecap="round"/>
<line x1="1326.42" y1="1119.47" x2="1342.10" y2="1113.10" stroke="#D32F2F" stroke-width="8.00" stroke-linecap="round"/>
<line x1="1351.42" y1="1128.14" x2="1342.10" y2="1113.10" stroke="#D32F2F" stroke-width="8.00" stroke-linecap="round"/>
<line x1="1329.50" y1="1096.37" x2="1344.23" y2="1087.38" stroke="#D32F2F" stroke-width="8.00" stroke-linecap="round"/>
<line x1="1355.10" y1="1100.53" x2="1344.23" y2="1087.38" stroke="#D32F2F" stroke-width="8.00" stroke-linecap="round"/>
<line x1="1329.98" y1="1073.42" x2="1343.56" y2="1062.27" stroke="#D32F2F" stroke-width="8.00" stroke-linecap="round"/>
<line x1="1355.67" y1="1073.73" x2="1343.56" y2="1062.27" stroke="#D32F2F" stroke-width="8.00" stroke-linecap="round"/>
<line x1="1328.11" y1="1050.70" x2="1340.43" y2="1037.90" stroke="#D32F2F" stroke-width="8.00" stroke-linecap="round"/>
<line x1="1353.56" y1="1047.95" x2="1340.43" y2="1037.90" stroke="#D32F2F" stroke-width="8.00" stroke-linecap="round"/>
<line x1="1324.08" y1="1028.23" x2="1335.14" y2="1014.33" stroke="#D32F2F" stroke-width="8.00" stroke-linecap="round"/>
<line x1="1349.14" y1="1023.29" x2="1335.14" y2="1014.33" stroke="#D32F2F" stroke-width="8.00" stroke-linecap="round"/>
<line x1="1318.05" y1="1006.04" x2="1327.96" y2="991.57" stroke="#D32F2F" stroke-width="8.00" stroke-linecap="round"/>
<line x1="1342.76" y1="999.79" x2="1327.96" y2="991.57" stroke="#D32F2F" stroke-width="8.00" stroke-linecap="round"/>
<circle cx="1084.59" cy="1084.59" r="290.0" fill="none" stroke="#ccc" stroke-width="0.5"/>
<line x1="1267.12" y1="1625.74" x2="1175.85" y2="1355.16" stroke="#A1A1AA" stroke-width="5" opacity="0.9"/>
<line x1="553.50" y1="1229.59" x2="819.04" y2="1157.09" stroke="#A1A1AA" stroke-width="5" opacity="0.9"/>
<line x1="1229.59" y1="934.47" x2="1157.09" y2="1009.53" stroke="#A1A1AA" stroke-width="5" opacity="0.9"/>
<polygon points="1615.68,939.59 1598.49,952.57 1594.28,937.14" fill="#A1A1AA" opacity="0.9"/>
<polygon points="939.59,1234.70 947.73,1214.76 959.24,1225.88" fill="#A1A1AA" opacity="0.9"/>
<polygon points="902.06,543.44 916.03,559.84 900.87,564.95" fill="#A1A1AA" opacity="0.9"/>
<text x="1711.28" y="913.49" font-family="Palatino, 'Palatino Linotype', 'Book Antiqua', Georgia, serif" font-style="italic" font-size="52" fill="#A1A1AA" text-anchor="middle" dominant-baseline="middle" opacity="0.9">x</text>
<text x="913.49" y="1261.73" font-family="Palatino, 'Palatino Linotype', 'Book Antiqua', Georgia, serif" font-style="italic" font-size="52" fill="#A1A1AA" text-anchor="middle" dominant-baseline="middle" opacity="0.9">y</text>
<text x="869.21" y="446.04" font-family="Palatino, 'Palatino Linotype', 'Book Antiqua', Georgia, serif" font-style="italic" font-size="52" fill="#A1A1AA" text-anchor="middle" dominant-baseline="middle" opacity="0.9">z</text>
<polyline points="1291.17,1491.07 1293.69,1491.19 1295.83,1491.47 1297.57,1491.91 1298.89,1492.51 1299.79,1493.26 1300.27,1494.16 1300.31,1495.21 1299.93,1496.39 1299.12,1497.71 1297.88,1499.14 1296.24,1500.69 1294.18,1502.34 1291.74,1504.09 1288.92,1505.92 1285.73,1507.82 1282.21,1509.77 1278.37,1511.78 1274.24,1513.82 1269.84,1515.89 1265.19,1517.97 1260.34,1520.04 1255.29,1522.09 1250.10,1524.12 1244.79,1526.11 1239.39,1528.05 1233.93,1529.92 1228.46,1531.71 1223.00,1533.41 1217.58,1535.02 1212.25,1536.52 1207.02,1537.90 1201.95,1539.16 1197.05,1540.28 1192.36,1541.27 1187.90,1542.10 1183.71,1542.79 1179.80,1543.32 1176.21,1543.69 1172.96,1543.89 1170.06,1543.94 1167.53,1543.82 1165.39,1543.54 1163.66,1543.10 1162.33,1542.50 1161.43,1541.75 1160.96,1540.85 1160.91,1539.81 1161.30,1538.62 1162.11,1537.31 1163.34,1535.87 1164.99,1534.33 1167.04,1532.67 1169.49,1530.93 1172.31,1529.10 1175.49,1527.20 1179.01,1525.24 1182.85,1523.23 1186.98,1521.19 1191.39,1519.12 1196.03,1517.05" fill="none" stroke="#A1A1AA" stroke-width="2.2" stroke-linecap="round" stroke-linejoin="round" opacity="0.85"/>
<polygon points="1196.03,1517.05 1188.94,1525.69 1184.86,1516.56" fill="#A1A1AA" opacity="0.85"/>
<text x="1201.23" y="1547.93" font-family="Palatino, 'Palatino Linotype', 'Book Antiqua', Georgia, serif" font-style="italic" font-size="28" fill="#A1A1AA" text-anchor="middle" dominant-baseline="middle" opacity="0.85">yaw</text>
<polyline points="689.05,1235.61 688.70,1230.65 688.16,1225.50 687.46,1220.19 686.58,1214.77 685.53,1209.25 684.33,1203.69 682.97,1198.10 681.47,1192.53 679.84,1187.01 678.08,1181.57 676.21,1176.26 674.24,1171.09 672.18,1166.10 670.04,1161.32 667.84,1156.79 665.58,1152.53 663.30,1148.56 660.99,1144.92 658.67,1141.61 656.35,1138.68 654.06,1136.12 651.81,1133.96 649.60,1132.21 647.45,1130.88 645.38,1129.99 643.40,1129.52 641.52,1129.50 639.75,1129.91 638.11,1130.76 636.60,1132.04 635.23,1133.75 634.01,1135.86 632.95,1138.38 632.05,1141.27 631.33,1144.54 630.78,1148.15 630.41,1152.08 630.22,1156.31 630.21,1160.82 630.38,1165.57 630.73,1170.53 631.27,1175.68 631.98,1180.99 632.85,1186.41 633.90,1191.93 635.10,1197.49 636.46,1203.08 637.96,1208.65 639.59,1214.17 641.35,1219.60 643.22,1224.92 645.19,1230.09 647.25,1235.08 649.39,1239.86 651.60,1244.39 653.85,1248.65 656.14,1252.62 658.45,1256.26 660.77,1259.56 663.08,1262.50" fill="none" stroke="#A1A1AA" stroke-width="2.2" stroke-linecap="round" stroke-linejoin="round" opacity="0.85"/>
<polygon points="663.08,1262.50 652.96,1257.74 660.82,1251.55" fill="#A1A1AA" opacity="0.85"/>
<text x="622.72" y="1090.92" font-family="Palatino, 'Palatino Linotype', 'Book Antiqua', Georgia, serif" font-style="italic" font-size="28" fill="#A1A1AA" text-anchor="middle" dominant-baseline="middle" opacity="0.85">pitch</text>
<polyline points="1264.51,999.98 1266.76,995.05 1268.60,989.93 1270.03,984.65 1271.03,979.25 1271.59,973.76 1271.71,968.21 1271.40,962.64 1270.65,957.08 1269.47,951.57 1267.86,946.13 1265.84,940.81 1263.42,935.63 1260.61,930.64 1257.42,925.85 1253.89,921.30 1250.03,917.01 1245.87,913.02 1241.42,909.35 1236.73,906.01 1231.81,903.04 1226.70,900.45 1221.43,898.25 1216.03,896.46 1210.53,895.08 1204.97,894.14 1199.39,893.63 1193.81,893.56 1188.28,893.92 1182.82,894.72 1177.47,895.95 1172.26,897.60 1167.23,899.67 1162.40,902.13 1157.81,904.98 1153.49,908.20 1149.45,911.76 1145.73,915.65 1142.34,919.84 1139.32,924.30 1136.67,929.02 1134.42,933.95 1132.58,939.07 1131.15,944.34 1130.15,949.74 1129.59,955.23 1129.47,960.78 1129.78,966.36 1130.53,971.92 1131.71,977.43 1133.32,982.86 1135.34,988.19 1137.76,993.36 1140.57,998.36 1143.75,1003.15 1147.29,1007.70 1151.15,1011.98 1155.31,1015.97 1159.76,1019.65 1164.45,1022.98 1169.37,1025.95" fill="none" stroke="#A1A1AA" stroke-width="2.2" stroke-linecap="round" stroke-linejoin="round" opacity="0.85"/>
<polygon points="1169.37,1025.95 1158.23,1025.06 1163.40,1016.50" fill="#A1A1AA" opacity="0.85"/>
<text x="1163.60" y="854.82" font-family="Palatino, 'Palatino Linotype', 'Book Antiqua', Georgia, serif" font-style="italic" font-size="28" fill="#A1A1AA" text-anchor="middle" dominant-baseline="middle" opacity="0.85">roll</text>
</svg>