<svg width="2169" height="2169" viewBox="0 0 2169.1789 2169.1789" xmlns="http://www.w3.org/2000/svg">
<line x1="1084.59" y1="1084.59" x2="1084.59" y2="1084.59" stroke="#A1A1AA" stroke-width="5" opacity="0.9"/>
<circle cx="1084.59" cy="1084.59" r="290.0" fill="#FDFDF5"/>
<line x1="1268.40" y1="1088.36" x2="1288.42" y2="1073.10" stroke="#D32F2F" stroke-width="8.00" stroke-linecap="round"/>
<line x1="1308.86" y1="1080.82" x2="1288.42" y2="1073.10" stroke="#D32F2F" stroke-width="8.00" stroke-linecap="round"/>
<line x1="1265.56" y1="1064.79" x2="1284.99" y2="1049.68" stroke="#D32F2F" stroke-width="8.00" stroke-linecap="round"/>
<line x1="1306.08" y1="1057.70" x2="1284.99" y2="1049.68" stroke="#D32F2F" stroke-width="8.00" stroke-linecap="round"/>
<line x1="1261.54" y1="1040.77" x2="1280.60" y2="1026.34" stroke="#D32F2F" stroke-width="8.00" stroke-linecap="round"/>
<line x1="1302.28" y1="1035.01" x2="1280.60" y2="1026.34" stroke="#D32F2F" stroke-width="8.00" stroke-linecap="round"/>
<line x1="1256.53" y1="1016.33" x2="1275.48" y2="1003.09" stroke="#D32F2F" stroke-width="8.00" stroke-linecap="round"/>
<line x1="1297.72" y1="1012.74" x2="1275.48" y2="1003.09" stroke="#D32F2F" stroke-width="8.00" stroke-linecap="round"/>
<line x1="1250.76" y1="991.54" x2="1269.85" y2="979.99" stroke="#D32F2F" stroke-width="8.00" stroke-linecap="round"/>
<line x1="1292.64" y1="990.89" x2="1269.85" y2="979.99" stroke="#D32F2F" stroke-width="8.00" stroke-linecap="round"/>
<line x1="1244.47" y1="966.56" x2="1263.94" y2="957.15" stroke="#D32F2F" stroke-width="8.00" stroke-linecap="round"/>
<line x1="1287.25" y1="969.50" x2="1263.94" y2="957.15" stroke="#D32F2F" stroke-width="8.00" stroke-linecap="round"/>
<line x1="1237.91" y1="941.68" x2="1257.94" y2="934.76" stroke="#D32F2F" stroke-width="8.00" stroke-linecap="round"/>
<line x1="1281.76" y1="948.68" x2="1257.94" y2="934.76" stroke="#D32F2F" stroke-width="7.96" stroke-linecap="round"/>
<line x1="1231.33" y1="917.29" x2="1252.09" y2="913.16" stroke="#D32F2F" stroke-width="8.00" stroke-linecap="round"/>
<line x1="1276.35" y1="928.62" x2="1252.09" y2="913.16" stroke="#D32F2F" stroke-width="7.28" stroke-linecap="round"/>
<line x1="1225.02" y1="893.98" x2="1246.58" y2="892.81" stroke="#D32F2F" stroke-width="8.00" stroke-linecap="round"/>
<line x1="1271.21" y1="909.63" x2="1246.58" y2="892.81" stroke="#D32F2F" stroke-width="6.48" stroke-linecap="round"/>
<line x1="1219.23" y1="872.45" x2="1241.64" y2="874.33" stroke="#D32F2F" stroke-width="8.00" stroke-linecap="round"/>
<line x1="1266.52" y1="892.17" x2="1241.64" y2="874.33" stroke="#D32F2F" stroke-width="5.55" stroke-linecap="round"/>
<line x1="1214.24" y1="853.58" x2="1237.46" y2="858.46" stroke="#D32F2F" stroke-width="8.00" stroke-linecap="round"/>
<line x1="1262.46" y1="876.86" x2="1237.46" y2="858.46" stroke="#D32F2F" stroke-width="4.54" stroke-linecap="round"/>
<line x1="1210.26" y1="838.30" x2="1234.25" y2="846.04" stroke="#D32F2F" stroke-width="8.00" stroke-linecap="round"/>
<line x1="1259.22" y1="864.42" x2="1234.25" y2="846.04" stroke="#D32F2F" stroke-width="5.01" stroke-linecap="round"/>
<line x1="1207.49" y1="827.49" x2="1232.16" y2="837.84" stroke="#D32F2F" stroke-width="8.00" stroke-linecap="round"/>
<line x1="1256.96" y1="855.59" x2="1232.16" y2="837.84" stroke="#D32F2F" stroke-width="5.74" stroke-linecap="round"/>
<line x1="1206.07" y1="821.89" x2="1231.32" y2="834.50" stroke="#D32F2F" stroke-width="7.39" stroke-linecap="round"/>
<line x1="1255.80" y1="851.00" x2="1231.32" y2="834.50" stroke="#D32F2F" stroke-width="6.55" stroke-linecap="round"/>
<line x1="963.11" y1="821.89" x2="937.40" y2="836.31" stroke="#D32F2F" stroke-width="6.56" stroke-linecap="round"/>
<line x1="913.38" y1="851.00" x2="937.40" y2="836.31" stroke="#D32F2F" stroke-width="7.40" stroke-linecap="round"/>
<line x1="961.69" y1="827.49" x2="935.66" y2="843.18" stroke="#D32F2F" stroke-width="5.80" stroke-linecap="round"/>
<line x1="912.22" y1="855.59" x2="935.66" y2="843.18" stroke="#D32F2F" stroke-width="8.00" stroke-linecap="round"/>
<line x1="958.92" y1="838.30" x2="932.70" y2="854.67" stroke="#D32F2F" stroke-width="5.14" stroke-linecap="round"/>
<line x1="909.96" y1="864.42" x2="932.70" y2="854.67" stroke="#D32F2F" stroke-width="8.00" stroke-linecap="round"/>
<line x1="954.94" y1="853.58" x2="928.67" y2="870.04" stroke="#D32F2F" stroke-width="4.76" stroke-linecap="round"/>
<line x1="906.72" y1="876.86" x2="928.67" y2="870.04" stroke="#D32F2F" stroke-width="8.00" stroke-linecap="round"/>
<line x1="949.94" y1="872.45" x2="923.76" y2="888.45" stroke="#D32F2F" stroke-width="5.83" stroke-linecap="round"/>
<line x1="902.66" y1="892.17" x2="923.76" y2="888.45" stroke="#D32F2F" stroke-width="8.00" stroke-linecap="round"/>
<line x1="944.16" y1="893.98" x2="918.19" y2="909.08" stroke="#D32F2F" stroke-width="6.78" stroke-linecap="round"/>
<line x1="897.97" y1="909.63" x2="918.19" y2="909.08" stroke="#D32F2F" stroke-width="8.00" stroke-linecap="round"/>
<line x1="937.84" y1="917.29" x2="912.20" y2="931.19" stroke="#D32F2F" stroke-width="7.61" stroke-linecap="round"/>
<line x1="892.83" y1="928.62" x2="912.20" y2="931.19" stroke="#D32F2F" stroke-width="8.00" stroke-linecap="round"/>
<line x1="931.27" y1="941.68" x2="906.02" y2="954.22" stroke="#D32F2F" stroke-width="8.00" stroke-linecap="round"/>
<line x1="887.42" y1="948.68" x2="906.02" y2="954.22" stroke="#D32F2F" stroke-width="8.00" stroke-linecap="round"/>
<line x1="924.71" y1="966.56" x2="899.91" y2="977.74" stroke="#D32F2F" stroke-width="8.00" stroke-linecap="round"/>
<line x1="881.93" y1="969.50" x2="899.91" y2="977.74" stroke="#D32F2F" stroke-width="8.00" stroke-linecap="round"/>
<line x1="918.42" y1="991.54" x2="894.09" y2="1001.47" stroke="#D32F2F" stroke-width="8.00" stroke-linecap="round"/>
<line x1="876.54" y1="990.89" x2="894.09" y2="1001.47" stroke="#D32F2F" stroke-width="8.00" stroke-linecap="round"/>
<line x1="912.65" y1="1016.33" x2="888.82" y2="1025.24" stroke="#D32F2F" stroke-width="8.00" stroke-linecap="round"/>
<line x1="871.46" y1="1012.74" x2="888.82" y2="1025.24" stroke="#D32F2F" stroke-width="8.00" stroke-linecap="round"/>
<line x1="907.64" y1="1040.77" x2="884.33" y2="1048.95" stroke="#D32F2F" stroke-width="8.00" stroke-linecap="round"/>
<line x1="866.90" y1="1035.01" x2="884.33" y2="1048.95" stroke="#D32F2F" stroke-width="8.00" stroke-linecap="round"/>
<line x1="903.61" y1="1064.79" x2="880.85" y2="1072.57" stroke="#D32F2F" stroke-width="8.00" stroke-linecap="round"/>
<line x1="863.10" y1="1057.70" x2="880.85" y2="1072.57" stroke="#D32F2F" stroke-width="8.00" stroke-linecap="round"/>
<line x1="900.78" y1="1088.36" x2="878.62" y2="1096.08" stroke="#D32F2F" stroke-width="8.00" stroke-linecap="round"/>
<line x1="860.32" y1="1080.82" x2="878.62" y2="1096.08" stroke="#D32F2F" stroke-width="8.00" stroke-linecap="round"/>
<line x1="899.34" y1="1111.48" x2="877.90" y2="1119.50" stroke="#D32F2F" stroke-width="8.00" stroke-linecap="round"/>
<line x1="858.85" y1="1104.39" x2="877.90" y2="1119.50" stroke="#D32F2F" stroke-width="8.00" stroke-linecap="round"/>
<line x1="899.51" y1="1134.17" x2="878.95" y2="1142.84" stroke="#D32F2F" stroke-width="8.00" stroke-linecap="round"/>
<line x1="859.05" y1="1128.41" x2="878.95" y2="1142.84" stroke="#D32F2F" stroke-width="8.00" stroke-linecap="round"/>
<line x1="901.52" y1="1156.44" x2="882.05" y2="1166.09" stroke="#D32F2F" stroke-width="8.00" stroke-linecap="round"/>
<line x1="861.26" y1="1152.85" x2="882.05" y2="1166.09" stroke="#D32F2F" stroke-width="8.00" stroke-linecap="round"/>
<line x1="905.60" y1="1178.29" x2="887.52" y2="1189.19" stroke="#D32F2F" stroke-width="8.00" stroke-linecap="round"/>
<line x1="865.89" y1="1177.64" x2="887.52" y2="1189.19" stroke="#D32F2F" stroke-width="8.00" stroke-linecap="round"/>
<line x1="912.01" y1="1199.68" x2="895.66" y2="1212.03" stroke="#D32F2F" stroke-width="8.00" stroke-linecap="round"/>
<line x1="873.39" y1="1202.62" x2="895.66" y2="1212.03" stroke="#D32F2F" stroke-width="8.00" stroke-linecap="round"/>
<line x1="921.03" y1="1220.50" x2="906.83" y2="1234.42" stroke="#D32F2F" stroke-width="8.00" stroke-linecap="round"/>
<line x1="884.17" y1="1227.50" x2="906.83" y2="1234.42" stroke="#D32F2F" stroke-width="8.00" stroke-linecap="round"/>
<line x1="932.93" y1="1240.56" x2="921.32" y2="1256.02" stroke="#D32F2F" stroke-width="8.00" stroke-linecap="round"/>
<line x1="898.64" y1="1251.89" x2="921.32" y2="1256.02" stroke="#D32F2F" stroke-width="8.00" stroke-linecap="round"/>
<line x1="947.98" y1="1259.55" x2="939.40" y2="1276.37" stroke="#D32F2F" stroke-width="8.00" stroke-linecap="round"/>
<line x1="917.12" y1="1275.20" x2="939.40" y2="1276.37" stroke="#D32F2F" stroke-width="8.00" stroke-linecap="round"/>
<line x1="966.36" y1="1277.01" x2="961.20" y2="1294.85" stroke="#D32F2F" stroke-width="8.00" stroke-linecap="round"/>
<line x1="939.79" y1="1296.73" x2="961.20" y2="1294.85" stroke="#D32F2F" stroke-width="8.00" stroke-linecap="round"/>
<line x1="988.11" y1="1292.32" x2="986.63" y2="1310.72" stroke="#D32F2F" stroke-width="8.00" stroke-linecap="round"/>
<line x1="966.58" y1="1315.60" x2="986.63" y2="1310.72" stroke="#D32F2F" stroke-width="8.00" stroke-linecap="round"/>
<line x1="1012.99" y1="1304.76" x2="1015.36" y2="1323.14" stroke="#D32F2F" stroke-width="8.00" stroke-linecap="round"/>
<line x1="997.14" y1="1330.88" x2="1015.36" y2="1323.14" stroke="#D32F2F" stroke-width="8.00" stroke-linecap="round"/>
<line x1="1040.47" y1="1313.59" x2="1046.66" y2="1331.34" stroke="#D32F2F" stroke-width="8.00" stroke-linecap="round"/>
<line x1="1030.77" y1="1341.69" x2="1046.66" y2="1331.34" stroke="#D32F2F" stroke-width="8.00" stroke-linecap="round"/>
<line x1="1069.68" y1="1318.18" x2="1079.54" y2="1334.68" stroke="#D32F2F" stroke-width="8.00" stroke-linecap="round"/>
<line x1="1066.42" y1="1347.29" x2="1079.54" y2="1334.68" stroke="#D32F2F" stroke-width="8.00" stroke-linecap="round"/>
<line x1="1099.50" y1="1318.18" x2="1112.73" y2="1332.87" stroke="#D32F2F" stroke-width="8.00" stroke-linecap="round"/>
<line x1="1102.76" y1="1347.29" x2="1112.73" y2="1332.87" stroke="#D32F2F" stroke-width="8.00" stroke-linecap="round"/>
<line x1="1128.71" y1="1313.59" x2="1144.93" y2="1326.00" stroke="#D32F2F" stroke-width="8.00" stroke-linecap="round"/>
<line x1="1138.40" y1="1341.69" x2="1144.93" y2="1326.00" stroke="#D32F2F" stroke-width="8.00" stroke-linecap="round"/>
<line x1="1156.19" y1="1304.76" x2="1174.95" y2="1314.51" stroke="#D32F2F" stroke-width="8.00" stroke-linecap="round"/>
<line x1="1172.03" y1="1330.88" x2="1174.95" y2="1314.51" stroke="#D32F2F" stroke-width="8.00" stroke-linecap="round"/>
<line x1="1181.07" y1="1292.32" x2="1201.88" y2="1299.14" stroke="#D32F2F" stroke-width="8.00" stroke-linecap="round"/>
<line x1="1202.60" y1="1315.60" x2="1201.88" y2="1299.14" stroke="#D32F2F" stroke-width="8.00" stroke-linecap="round"/>
<line x1="1202.82" y1="1277.01" x2="1225.18" y2="1280.73" stroke="#D32F2F" stroke-width="8.00" stroke-linecap="round"/>
<line x1="1229.39" y1="1296.73" x2="1225.18" y2="1280.73" stroke="#D32F2F" stroke-width="8.00" stroke-linecap="round"/>
<line x1="1221.20" y1="1259.55" x2="1244.62" y2="1260.10" stroke="#D32F2F" stroke-width="8.00" stroke-linecap="round"/>
<line x1="1252.06" y1="1275.20" x2="1244.62" y2="1260.10" stroke="#D32F2F" stroke-width="8.00" stroke-linecap="round"/>
<line x1="1236.25" y1="1240.56" x2="1260.23" y2="1237.99" stroke="#D32F2F" stroke-width="8.00" stroke-linecap="round"/>
<line x1="1270.54" y1="1251.89" x2="1260.23" y2="1237.99" stroke="#D32F2F" stroke-width="8.00" stroke-linecap="round"/>
<line x1="1248.15" y1="1220.50" x2="1272.25" y2="1214.96" stroke="#D32F2F" stroke-width="8.00" stroke-linecap="round"/>
<line x1="1285.01" y1="1227.50" x2="1272.25" y2="1214.96" stroke="#D32F2F" stroke-width="8.00" stroke-linecap="round"/>
<line x1="1257.17" y1="1199.68" x2="1280.99" y2="1191.44" stroke="#D32F2F" stroke-width="8.00" stroke-linecap="round"/>
<line x1="1295.79" y1="1202.62" x2="1280.99" y2="1191.44" stroke="#D32F2F" stroke-width="8.00" stroke-linecap="round"/>
<line x1="1263.58" y1="1178.29" x2="1286.83" y2="1167.71" stroke="#D32F2F" stroke-width="8.00" stroke-linecap="round"/>
<line x1="1303.28" y1="1177.64" x2="1286.83" y2="1167.71" stroke="#D32F2F" stroke-width="8.00" stroke-linecap="round"/>
<line x1="1267.66" y1="1156.44" x2="1290.14" y2="1143.94" stroke="#D32F2F" stroke-width="8.00" stroke-linecap="round"/>
<line x1="1307.92" y1="1152.85" x2="1290.14" y2="1143.94" stroke="#D32F2F" stroke-width="8.00" stroke-linecap="round"/>
<line x1="1269.67" y1="1134.17" x2="1291.29" y2="1120.23" stroke="#D32F2F" stroke-width="8.00" stroke-linecap="round"/>
<line x1="1310.13" y1="1128.41" x2="1291.29" y2="1120.23" stroke="#D32F2F" stroke-width="8.00" stroke-linecap="round"/>
<line x1="1269.84" y1="1111.48" x2="1290.61" y2="1096.61" stroke="#D32F2F" stroke-width="8.00" stroke-linecap="round"/>
<line x1="1310.32" y1="1104.39" x2="1290.61" y2="1096.61" stroke="#D32F2F" stroke-width="8.00" stroke-linecap="round"/>
<line x1="1268.40" y1="1088.36" x2="1288.42" y2="1073.10" stroke="#D32F2F" stroke-width="8.00" stroke-linecap="round"/>
<line x1="1308.86" y1="1080.82" x2="1288.42" y2="1073.10" stroke="#D32F2F" stroke-width="8.00" stroke-linecap="round"/>
<line x1="1265.56" y1="1064.79" x2="1284.99" y2="1049.68" stroke="#D32F2F" stroke-width="8.00" stroke-linecap="round"/>
<line x1="1306.08" y1="1057.70" x2="1284.99" y2="1049.68" stroke="#D32F2F" stroke-width="8.00" stroke-linecap="round"/>
<line x1="1261.54" y1="1040.77" x2="1280.60" y2="1026.34" stroke="#D32F2F" stroke-width="8.00" stroke-linecap="round"/>
<line x1="1302.28" y1="1035.01" x2="1280.60" y2="1026.34" stroke="#D32F2F" stroke-width="8.00" stroke-linecap="round"/>
<line x1="1256.53" y1="1016.33" x2="1275.48" y2="1003.09" stroke="#D32F2F" stroke-width="8.00" stroke-linecap="round"/>
<line x1="1297.72" y1="1012.74" x2="1275.48" y2="1003.09" stroke="#D32F2F" stroke-width="8.00" stroke-linecap="round"/>
<line x1="1250.76" y1="991.54" x2="1269.85" y2="979.99" stroke="#D32F2F" stroke-width="8.00" stroke-linecap="round"/>
<line x1="1292.64" y1="990.89" x2="1269.85" y2="979.99" stroke="#D32F2F" stroke-width="8.00" stroke-linecap="round"/>
<line x1="1244.47" y1="966.56" x2="1263.94" y2="957.15" stroke="#D32F2F" stroke-width="8.00" stroke-linecap="round"/>
<line x1="1287.25" y1="969.50" x2="1263.94" y2="957.15" stroke="#D32F2F" stroke-width="8.00" stroke-linecap="round"/>
<line x1="1237.91" y1="941.68" x2="1257.94" y2="934.76" stroke="#D32F2F" stroke-width="8.00" stroke-linecap="round"/>
<line x1="1281.76" y1="948.68" x2="1257.94" y2="934.76" stroke="#D32F2F" stroke-width="7.96" stroke-linecap="round"/>
<line x1="1231.33" y1="917.29" x2="1252.09" y2="913.16" stroke="#D32F2F" stroke-width="8.00" stroke-linecap="round"/>
<line x1="1276.35" y1="928.62" x2="1252.09" y2="913.16" stroke="#D32F2F" stroke-width="7.28" stroke-linecap="round"/>
<line x1="1225.02" y1="893.98" x2="1246.58" y2="892.81" stroke="#D32F2F" stroke-width="8.00" stroke-linecap="round"/>
<line x1="1271.21" y1="909.63" x2="1246.58" y2="892.81" stroke="#D32F2F" stroke-width="6.48" stroke-linecap="round"/>
<line x1="1219.23" y1="872.45" x2="1241.64" y2="874.33" stroke="#D32F2F" stroke-width="8.00" stroke-linecap="round"/>
<line x1="1266.52" y1="892.17" x2="1241.64" y2="874.33" stroke="#D32F2F" stroke-width="5.55" stroke-linecap="round"/>
<line x1="1214.24" y1="853.58" x2="1237.46" y2="858.46" stroke="#D32F2F" stroke-width="8.00" stroke-linecap="round"/>
<line x1="1262.46" y1="876.86" x2="1237.46" y2="858.46" stroke="#D32F2F" stroke-width="4.54" stroke-linecap="round"/>
<line x1="1210.26" y1="838.30" x2="1234.25" y2="846.04" stroke="#D32F2F" stroke-width="8.00" stroke-linecap="round"/>
<line x1="1259.22" y1="864.42" x2="1234.25" y2="846.04" stroke="#D32F2F" stroke-width="5.01" stroke-linecap="round"/>
<line x1="1207.49" y1="827.49" x2="1232.16" y2="837.84" stroke="#D32F2F" stroke-width="8.00" stroke-linecap="round"/>
<line x1="1256.96" y1="855.59" x2="1232.16" y2="837.84" stroke="#D32F2F" stroke-width="5.74" stroke-linecap="round"/>
<line x1="1206.07" y1="821.89" x2="1231.32" y2="834.50" stroke="#D32F2F" stroke-width="7.39" stroke-linecap="round"/>
<line x1="1255.80" y1="851.00" x2="1231.32" y2="834.50" stroke="#D32F2F" stroke-width="6.55" stroke-linecap="round"/>
<line x1="963.11" y1="821.89" x2="937.40" y2="836.31" stroke="#D32F2F" stroke-width="6.56" stroke-linecap="round"/>
<line x1="913.38" y1="851.00" x2="937.40" y2="836.31" stroke="#D32F2F" stroke-width="7.40" stroke-linecap="round"/>
<line x1="961.69" y1="827.49" x2="935.66" y2="843.18" stroke="#D32F2F" stroke-width="5.80" stroke-linecap="round"/>
<line x1="912.22" y1="855.59" x2="935.66" y2="843.18" stroke="#D32F2F" stroke-width="8.00" stroke-linecap="round"/>
<line x1="958.92" y1="838.30" x2="932.70" y2="854.67" stroke="#D32F2F" stroke-width="5.14" stroke-linecap="round"/>
<line x1="909.96" y1="864.42" x2="932.70" y2="854.67" stroke="#D32F2F" stroke-width="8.00" stroke-linecap="round"/>
<line x1="954.94" y1="853.58" x2="928.67" y2="870.04" stroke="#D32F2F" stroke-width="4.76" stroke-linecap="round"/>
<line x1="906.72" y1="876.86" x2="928.67" y2="870.04" stroke="#D32F2F" stroke-width="8.00" stroke-linecap="round"/>
<line x1="949.94" y1="872.45" x2="923.76" y2="888.45" stroke="#D32F2F" stroke-width="5.83" stroke-linecap="round"/>
<line x1="902.66" y1="892.17" x2="923.76" y2="888.45" stroke="#D32F2F" stroke-width="8.00" stroke-linecap="round"/>
<line x1="944.16" y1="893.98" x2="918.19" y2="909.08" stroke="#D32F2F" stroke-width="6.78" stroke-linecap="round"/>
<line x1="897.97" y1="909.63" x2="918.19" y2="909.08" stroke="#D32F2F" stroke-width="8.00" stroke-linecap="round"/>
<line x1="937.84" y1="917.29" x2="912.20" y2="931.19" stroke="#D32F2F" stroke-width="7.61" stroke-linecap="round"/>
<line x1="892.83" y1="928.62" x2="912.20" y2="931.19" stroke="#D32F2F" stroke-width="8.00" stroke-linecap="round"/>
<line x1="931.27" y1="941.68" x2="906.02" y2="954.22" stroke="#D32F2F" stroke-width="8.00" stroke-linecap="round"/>
<line x1="887.42" y1="948.68" x2="906.02" y2="954.22" stroke="#D32F2F" stroke-width="8.00" stroke-linecap="round"/>
<line x1="924.71" y1="966.56" x2="899.91" y2="977.74" stroke="#D32F2F" stroke-width="8.00" stroke-linecap="round"/>
<line x1="881.93" y1="969.50" x2="899.91" y2="977.74" stroke="#D32F2F" stroke-width="8.00" stroke-linecap="round"/>
<line x1="918.42" y1="991.54" x2="894.09" y2="1001.47" stroke="#D32F2F" stroke-width="8.00" stroke-linecap="round"/>
<line x1="876.54" y1="990.89" x2="894.09" y2="1001.47" stroke="#D32F2F" stroke-width="8.00" stroke-linecap="round"/>
<line x1="912.65" y1="1016.33" x2="888.82" y2="1025.24" stroke="#D32F2F" stroke-width="8.00" stroke-linecap="round"/>
<line x1="871.46" y1="1012.74" x2="888.82" y2="1025.24" stroke="#D32F2F" stroke-width="8.00" stroke-linecap="round"/>
<line x1="907.64" y1="1040.77" x2="884.33" y2="1048.95" stroke="#D32F2F" stroke-width="8.00" stroke-linecap="round"/>
<line x1="866.90" y1="1035.01" x2="884.33" y2="1048.95" stroke="#D32F2F" stroke-width="8.00" stroke-linecap="round"/>
<line x1="903.61" y1="1064.79" x2="880.85" y2="1072.57" stroke="#D32F2F" stroke-width="8.00" stroke-linecap="round"/>
<line x1="863.10" y1="1057.70" x2="880.85" y2="1072.57" stroke="#D32F2F" stroke-width="8.00" stroke-linecap="round"/>
<line x1="900.78" y1="1088.36" x2="878.62" y2="1096.08" stroke="#D32F2F" stroke-width="8.00" stroke-linecap="round"/>
<line x1="860.32" y1="1080.82" x2="878.62" y2="1096.08" stroke="#D32F2F" stroke-width="8.00" stroke-linecap="round"/>
<line x1="899.34" y1="1111.48" x2="877.90" y2="1119.50" stroke="#D32F2F" stroke-width="8.00" stroke-linecap="round"/>
<line x1="858.85" y1="1104.39" x2="877.90" y2="1119.50" stroke="#D32F2F" stroke-width="8.00" stroke-linecap="round"/>
<line x1="899.51" y1="1134.17" x2="878.95" y2="1142.84" stroke="#D32F2F" stroke-width="8.00" stroke-linecap="round"/>
<line x1="859.05" y1="1128.41" x2="878.95" y2="1142.84" stroke="#D32F2F" stroke-width="8.00" stroke-linecap="round"/>
<line x1="901.52" y1="1156.44" x2="882.05" y2="1166.09" stroke="#D32F2F" stroke-width="8.00" stroke-linecap="round"/>
<line x1="861.26" y1="1152.85" x2="882.05" y2="1166.09" stroke="#D32F2F" stroke-width="8.00" stroke-linecap="round"/>
<line x1="905.60" y1="1178.29" x2="887.52" y2="1189.19" stroke="#D32F2F" stroke-width="8.00" stroke-linecap="round"/>
<line x1="865.89" y1="1177.64" x2="887.52" y2="1189.19" stroke="#D32F2F" stroke-width="8.00" stroke-linecap="round"/>
<line x1="912.01" y1="1199.68" x2="895.66" y2="1212.03" stroke="#D32F2F" stroke-width="8.00" stroke-linecap="round"/>
<line x1="873.39" y1="1202.62" x2="895.66" y2="1212.03" stroke="#D32F2F" stroke-width="8.00" stroke-linecap="round"/>
<line x1="921.03" y1="1220.50" x2="906.83" y2="1234.42" stroke="#D32F2F" stroke-width="8.00" stroke-linecap="round"/>
<line x1="884.17" y1="1227.50" x2="906.83" y2="1234.42" stroke="#D32F2F" stroke-width="8.00" stroke-linecap="round"/>
<line x1="932.93" y1="1240.56" x2="921.32" y2="1256.02" stroke="#D32F2F" stroke-width="8.00" stroke-linecap="round"/>
<line x1="898.64" y1="1251.89" x2="921.32" y2="1256.02" stroke="#D32F2F" stroke-width="8.00" stroke-linecap="round"/>
<line x1="947.98" y1="1259.55" x2="939.40" y2="1276.37" stroke="#D32F2F" stroke-width="8.00" stroke-linecap="round"/>
<line x1="917.12" y1="1275.20" x2="939.40" y2="1276.37" stroke="#D32F2F" stroke-width="8.00" stroke-linecap="round"/>
<line x1="966.36" y1="1277.01" x2="961.20" y2="1294.85" stroke="#D32F2F" stroke-width="8.00" stroke-linecap="round"/>
<line x1="939.79" y1="1296.73" x2="961.20" y2="1294.85" stroke="#D32F2F" stroke-width="8.00" stroke-linecap="round"/>
<line x1="988.11" y1="1292.32" x2="986.63" y2="1310.72" stroke="#D32F2F" stroke-width="8.00" stroke-linecap="round"/>
<line x1="966.58" y1="1315.60" x2="986.63" y2="1310.72" stroke="#D32F2F" stroke-width="8.00" stroke-linecap="round"/>
<line x1="1012.99" y1="1304.76" x2="1015.36" y2="1323.14" stroke="#D32F2F" stroke-width="8.00" stroke-linecap="round"/>
<line x1="997.14" y1="1330.88" x2="1015.36" y2="1323.14" stroke="#D32F2F" stroke-width="8.00" stroke-linecap="round"/>
<line x1="1040.47" y1="1313.59" x2="1046.66" y2="1331.34" stroke="#D32F2F" stroke-width="8.00" stroke-linecap="round"/>
<line x1="1030.77" y1="1341.69" x2="1046.66" y2="1331.34" stroke="#D32F2F" stroke-width="8.00" stroke-linecap="round"/>
<line x1="1069.68" y1="1318.18" x2="1079.54" y2="1334.68" stroke="#D32F2F" stroke-width="8.00" stroke-linecap="round"/>
<line x1="1066.42" y1="1347.29" x2="1079.54" y2="1334.68" stroke="#D32F2F" stroke-width="8.00" stroke-linecap="round"/>
<line x1="1099.50" y1="1318.18" x2="1112.73" y2="1332.87" stroke="#D32F2F" stroke-width="8.00" stroke-linecap="round"/>
<line x1="1102.76" y1="1347.29" x2="1112.73" y2="1332.87" stroke="#D32F2F" stroke-width="8.00" stroke-linecap="round"/>
<line x1="1128.71" y1="1313.59" x2="1144.93" y2="1326.00" stroke="#D32F2F" stroke-width="8.00" stroke-linecap="round"/>
<line x1="1138.40" y1="1341.69" x2="1144.93" y2="1326.00" stroke="#D32F2F" stroke-width="8.00" stroke-linecap="round"/>
<line x1="1156.19" y1="1304.76" x2="1174.95" y2="1314.51" stroke="#D32F2F" stroke-width="8.00" stroke-linecap="round"/>
<line x1="1172.03" y1="1330.88" x2="1174.95" y2="1314.51" stroke="#D32F2F" stroke-width="8.00" stroke-linecap="round"/>
<line x1="1181.07" y1="1292.32" x2="1201.88" y2="1299.14" stroke="#D32F2F" stroke-width="8.00" stroke-linecap="round"/>
<line x1="1202.60" y1="1315.60" x2="1201.88" y2="1299.14" stroke="#D32F2F" stroke-width="8.00" stroke-linecap="round"/>
<line x1="1202.82" y1="1277.01" x2="1225.18" y2="1280.73" stroke="#D32F2F" stroke-width="8.00" stroke-linecap="round"/>
<line x1="1229.39" y1="1296.73" x2="1225.18" y2="1280.73" stroke="#D32F2F" stroke-width="8.00" stroke-linecap="round"/>
<line x1="1221.20" y1="1259.55" x2="1244.62" y2="1260.10" stroke="#D32F2F" stroke-width="8.00" stroke-linecap="round"/>
<line x1="1252.06" y1="1275.20" x2="1244.62" y2="1260.10" stroke="#D32F2F" stroke-width="8.00" stroke-linecap="round"/>
<line x1="1236.25" y1="1240.56" x2="1260.23" y2="1237.99" stroke="#D32F2F" stroke-width="8.00" stroke-linecap="round"/>
<line x1="1270.54" y1="1251.89" x2="1260.23" y2="1237.99" stroke="#D32F2F" stroke-width="8.00" stroke-linecap="round"/>
<line x1="1248.15" y1="1220.50" x2="1272.25" y2="1214.96" stroke="#D32F2F" stroke-width="8.00" stroke-linecap="round"/>
<line x1="1285.01" y1="1227.50" x2="1272.25" y2="1214.96" stroke="#D32F2F" stroke-width="8.00" stroke-linecap="round"/>
<line x1="1257.17" y1="1199.68" x2="1280.99" y2="1191.44" stroke="#D32F2F" stroke-width="8.00" stroke-linecap="round"/>
<line x1="1295.79" y1="1202.62" x2="1280.99" y2="1191.44" stroke="#D32F2F" stroke-width="8.00" stroke-linecap="round"/>
<line x1="1263.58" y1="1178.29" x2="1286.83" y2="1167.71" stroke="#D32F2F" stroke-width="8.00" stroke-linecap="round"/>
<line x1="1303.28" y1="1177.64" x2="1286.83" y2="1167.71" stroke="#D32F2F" stroke-width="8.00" stroke-linecap="round"/>
<line x1="1267.66" y1="1156.44" x2="1290.14" y2="1143.94" stroke="#D32F2F" stroke-width="8.00" stroke-linecap="round"/>
<line x1="1307.92" y1="1152.85" x2="1290.14" y2="1143.94" stroke="#D32F2F" stroke-width="8.00" stroke-linecap="round"/>
<line x1="1269.67" y1="1134.17" x2="1291.29" y2="1120.23" stroke="#D32F2F" stroke-width="8.00" stroke-linecap="round"/>
<line x1="1310.13" y1="1128.41" x2="1291.29" y2="1120.23" stroke="#D32F2F" stroke-width="8.00" stroke-linecap="round"/>
<line x1="1269.84" y1="1111.48" x2="1290.61" y2="1096.61" stroke="#D32F2F" stroke-width="8.00" stroke-linecap="round"/>
<line x1="1310.32" y1="1104.39" x2="1290.61" y2="1096.61" stroke="#D32F2F" stroke-width="8.00" stroke-linecap="round"/>
<circle cx="1084.59" cy="1084.59" r="290.0" fill="none" stroke="#ccc" stroke-width="0.5"/>
<line x1="504.59" y1="1084.59" x2="794.59" y2="1084.59" stroke="#A1A1AA" stroke-width="5" opacity="0.9"/>
<line x1="1374.59" y1="1084.59" x2="1664.59" y2="1084.59" stroke="#A1A1AA" stroke-width="5" opacity="0.9"/>
<line x1="1084.59" y1="1664.59" x2="1084.59" y2="1374.59" stroke="#A1A1AA" stroke-width="5" opacity="0.9"/>
<line x1="1084.59" y1="794.59" x2="1084.59" y2="504.59" stroke="#A1A1AA" stroke-width="5" opacity="0.9"/>
<line x1="1084.59" y1="1084.59" x2="1084.59" y2="1084.59" stroke="#A1A1AA" stroke-width="5" opacity="0.9"/>
<polygon points="1664.59,1084.59 1644.59,1092.59 1644.59,1076.59" fill="#A1A1AA" opacity="0.9"/>
<polygon points="1084.59,504.59 1092.59,524.59 1076.59,524.59" fill="#A1A1AA" opacity="0.9"/>
<text x="1768.99" y="1084.59" font-family="Palatino, 'Palatino Linotype', 'Book Antiqua', Georgia, serif" font-style="italic" font-size="52" fill="#A1A1AA" text-anchor="middle" dominant-baseline="middle" opacity="0.9">x</text>
<text x="1084.59" y="1084.59" font-family="Palatino, 'Palatino Linotype', 'Book Antiqua', Georgia, serif" font-style="italic" font-size="52" fill="#A1A1AA" text-anchor="middle" dominant-baseline="middle" opacity="0.9">y</text>
<text x="1084.59" y="400.19" font-family="Palatino, 'Palatino Linotype', 'Book Antiqua', Georgia, serif" font-style="italic" font-size="52" fill="#A1A1AA" text-anchor="middle" dominant-baseline="middle" opacity="0.9">z</text>
<polyline points="1136.54,1548.59 1140.45,1548.59 1144.03,1548.59 1147.23,1548.59 1150.05,1548.59 1152.46,1548.59 1154.46,1548.59 1156.03,1548.59 1157.15,1548.59 1157.83,1548.59 1158.06,1548.59 1157.83,1548.59 1157.15,1548.59 1156.03,1548.59 1154.46,1548.59 1152.46,1548.59 1150.05,1548.59 1147.23,1548.59 1144.03,1548.59 1140.45,1548.59 1136.54,1548.59 1132.30,1548.59 1127.77,1548.59 1122.98,1548.59 1117.94,1548.59 1112.70,1548.59 1107.29,1548.59 1101.74,1548.59 1096.08,1548.59 1090.35,1548.59 1084.59,1548.59 1078.83,1548.59 1073.10,1548.59 1067.44,1548.59 1061.89,1548.59 1056.47,1548.59 1051.24,1548.59 1046.20,1548.59 1041.41,1548.59 1036.88,1548.59 1032.64,1548.59 1028.72,1548.59 1025.15,1548.59 1021.95,1548.59 1019.13,1548.59 1016.72,1548.59 1014.72,1548.59 1013.15,1548.59 1012.03,1548.59 1011.35,1548.59 1011.12,1548.59 1011.35,1548.59 1012.03,1548.59 1013.15,1548.59 1014.72,1548.59 1016.72,1548.59 1019.13,1548.59 1021.95,1548.59 1025.15,1548.59 1028.72,1548.59 1032.64,1548.59" fill="none" stroke="#A1A1AA" stroke-width="2.2" stroke-linecap="round" stroke-linejoin="round" opacity="0.85"/>
<polygon points="1032.64,1548.59 1022.64,1553.59 1022.64,1543.59" fill="#A1A1AA" opacity="0.85"/>
<text x="1084.59" y="1548.59" font-family="Palatino, 'Palatino Linotype', 'Book Antiqua', Georgia, serif" font-style="italic" font-size="28" fill="#A1A1AA" text-anchor="middle" dominant-baseline="middle" opacity="0.85">yaw</text>
<polyline points="620.59,1136.54 620.59,1132.30 620.59,1127.77 620.59,1122.98 620.59,1117.94 620.59,1112.70 620.59,1107.29 620.59,1101.74 620.59,1096.08 620.59,1090.35 620.59,1084.59 620.59,1078.83 620.59,1073.10 620.59,1067.44 620.59,1061.89 620.59,1056.47 620.59,1051.24 620.59,1046.20 620.59,1041.41 620.59,1036.88 620.59,1032.64 620.59,1028.72 620.59,1025.15 620.59,1021.95 620.59,1019.13 620.59,1016.72 620.59,1014.72 620.59,1013.15 620.59,1012.03 620.59,1011.35 620.59,1011.12 620.59,1011.35 620.59,1012.03 620.59,1013.15 620.59,1014.72 620.59,1016.72 620.59,1019.13 620.59,1021.95 620.59,1025.15 620.59,1028.72 620.59,1032.64 620.59,1036.88 620.59,1041.41 620.59,1046.20 620.59,1051.24 620.59,1056.47 620.59,1061.89 620.59,1067.44 620.59,1073.10 620.59,1078.83 620.59,1084.59 620.59,1090.35 620.59,1096.08 620.59,1101.74 620.59,1107.29 620.59,1112.70 620.59,1117.94 620.59,1122.98 620.59,1127.77 620.59,1132.30 620.59,1136.54" fill="none" stroke="#A1A1AA" stroke-width="2.2" stroke-linecap="round" stroke-linejoin="round" opacity="0.85"/>
<polygon points="620.59,1136.54 615.59,1126.54 625.59,1126.54" fill="#A1A1AA" opacity="0.85"/>
<text x="620.59" y="967.04" font-family="Palatino, 'Palatino Linotype', 'Book Antiqua', Georgia, serif" font-style="italic" font-size="28" fill="#A1A1AA" text-anchor="middle" dominant-baseline="middle" opacity="0.85">pitch</text>
<polyline points="1136.54,1136.54 1140.45,1132.30 1144.03,1127.77 1147.23,1122.98 1150.05,1117.94 1152.46,1112.70 1154.46,1107.29 1156.03,1101.74 1157.15,1096.08 1157.83,1090.35 1158.06,1084.59 1157.83,1078.83 1157.15,1073.10 1156.03,1067.44 1154.46,1061.89 1152.46,1056.47 1150.05,1051.24 1147.23,1046.20 1144.03,1041.41 1140.45,1036.88 1136.54,1032.64 1132.30,1028.72 1127.77,1025.15 1122.98,1021.95 1117.94,1019.13 1112.70,1016.72 1107.29,1014.72 1101.74,1013.15 1096.08,1012.03 1090.35,1011.35 1084.59,1011.12 1078.83,1011.35 1073.10,1012.03 1067.44,1013.15 1061.89,1014.72 1056.47,1016.72 1051.24,1019.13 1046.20,1021.95 1041.41,1025.15 1036.88,1028.72 1032.64,1032.64 1028.72,1036.88 1025.15,1041.41 1021.95,1046.20 1019.13,1051.24 1016.72,1056.47 1014.72,1061.89 1013.15,1067.44 1012.03,1073.10 1011.35,1078.83 1011.12,1084.59 1011.35,1090.35 1012.03,1096.08 1013.15,1101.74 1014.72,1107.29 1016.72,1112.70 1019.13,1117.94 1021.95,1122.98 1025.15,1127.77 1028.72,1132.30 1032.64,1136.54" fill="none" stroke="#A1A1AA" stroke-width="2.2" stroke-linecap="round" stroke-linejoin="round" opacity="0.85"/>
<polygon points="1032.64,1136.54 1022.18,1132.59 1029.52,1125.80" fill="#A1A1AA" opacity="0.85"/>
<text x="1084.59" y="967.04" font-family="Palatino, 'Palatino Linotype', 'Book Antiqua', Georgia, serif" font-style="italic" font-size="28" fill="#A1A1AA" text-anchor="middle" dominant-baseline="middle" opacity="0.85">roll</text>
</svg>