<svg width="2169" height="2169" viewBox="0 0 2169.1789 2169.1789" xmlns="http://www.w3.org/2000/svg">
<line x1="1334.18" y1="1017.71" x2="1583.76" y2="950.84" stroke="#A1A1AA" stroke-width="5" opacity="0.9"/>
<line x1="789.26" y1="854.46" x2="936.93" y2="969.53" stroke="#A1A1AA" stroke-width="5" opacity="0.9"/>
<line x1="1082.27" y1="1599.91" x2="1083.43" y2="1342.25" stroke="#A1A1AA" stroke-width="5" opacity="0.9"/>
<circle cx="1084.59" cy="1084.59" r="290.0" fill="#FDFDF5"/>
<line x1="1163.99" y1="806.47" x2="1193.28" y2="816.28" stroke="#D32F2F" stroke-width="5.03" stroke-linecap="round"/>
<line x1="1180.94" y1="815.96" x2="1209.30" y2="826.55" stroke="#D32F2F" stroke-width="6.01" stroke-linecap="round"/>
<line x1="1225.28" y1="831.65" x2="1209.30" y2="826.55" stroke="#D32F2F" stroke-width="8.00" stroke-linecap="round"/>
<line x1="1199.45" y1="830.38" x2="1226.59" y2="841.22" stroke="#D32F2F" stroke-width="6.97" stroke-linecap="round"/>
<line x1="1240.47" y1="843.48" x2="1226.59" y2="841.22" stroke="#D32F2F" stroke-width="8.00" stroke-linecap="round"/>
<line x1="1218.80" y1="849.17" x2="1244.46" y2="859.70" stroke="#D32F2F" stroke-width="7.87" stroke-linecap="round"/>
<line x1="1256.32" y1="858.88" x2="1244.46" y2="859.70" stroke="#D32F2F" stroke-width="8.00" stroke-linecap="round"/>
<line x1="1238.26" y1="871.48" x2="1262.24" y2="881.13" stroke="#D32F2F" stroke-width="8.00" stroke-linecap="round"/>
<line x1="1272.23" y1="877.11" x2="1262.24" y2="881.13" stroke="#D32F2F" stroke-width="8.00" stroke-linecap="round"/>
<line x1="1257.18" y1="896.27" x2="1279.36" y2="904.55" stroke="#D32F2F" stroke-width="8.00" stroke-linecap="round"/>
<line x1="1287.63" y1="897.29" x2="1279.36" y2="904.55" stroke="#D32F2F" stroke-width="8.00" stroke-linecap="round"/>
<line x1="1275.05" y1="922.51" x2="1295.38" y2="929.02" stroke="#D32F2F" stroke-width="8.00" stroke-linecap="round"/>
<line x1="1302.13" y1="918.58" x2="1295.38" y2="929.02" stroke="#D32F2F" stroke-width="8.00" stroke-linecap="round"/>
<line x1="1291.49" y1="949.29" x2="1309.98" y2="953.77" stroke="#D32F2F" stroke-width="8.00" stroke-linecap="round"/>
<line x1="1315.46" y1="940.31" x2="1309.98" y2="953.77" stroke="#D32F2F" stroke-width="8.00" stroke-linecap="round"/>
<line x1="1306.24" y1="975.89" x2="1323.01" y2="978.23" stroke="#D32F2F" stroke-width="8.00" stroke-linecap="round"/>
<line x1="1327.48" y1="961.96" x2="1323.01" y2="978.23" stroke="#D32F2F" stroke-width="8.00" stroke-linecap="round"/>
<line x1="1319.17" y1="1001.78" x2="1334.35" y2="1002.04" stroke="#D32F2F" stroke-width="8.00" stroke-linecap="round"/>
<line x1="1338.11" y1="983.26" x2="1334.35" y2="1002.04" stroke="#D32F2F" stroke-width="8.00" stroke-linecap="round"/>
<line x1="1330.21" y1="1026.65" x2="1343.97" y2="1024.99" stroke="#D32F2F" stroke-width="8.00" stroke-linecap="round"/>
<line x1="1347.34" y1="1004.07" x2="1343.97" y2="1024.99" stroke="#D32F2F" stroke-width="8.00" stroke-linecap="round"/>
<line x1="1339.33" y1="1050.36" x2="1351.85" y2="1047.06" stroke="#D32F2F" stroke-width="8.00" stroke-linecap="round"/>
<line x1="1355.16" y1="1024.38" x2="1351.85" y2="1047.06" stroke="#D32F2F" stroke-width="8.00" stroke-linecap="round"/>
<line x1="1346.56" y1="1072.90" x2="1357.98" y2="1068.27" stroke="#D32F2F" stroke-width="8.00" stroke-linecap="round"/>
<line x1="1361.52" y1="1044.24" x2="1357.98" y2="1068.27" stroke="#D32F2F" stroke-width="8.00" stroke-linecap="round"/>
<line x1="1351.90" y1="1094.34" x2="1362.34" y2="1088.76" stroke="#D32F2F" stroke-width="8.00" stroke-linecap="round"/>
<line x1="1366.38" y1="1063.77" x2="1362.34" y2="1088.76" stroke="#D32F2F" stroke-width="8.00" stroke-linecap="round"/>
<line x1="1355.37" y1="1114.83" x2="1364.89" y2="1108.67" stroke="#D32F2F" stroke-width="8.00" stroke-linecap="round"/>
<line x1="1369.65" y1="1083.13" x2="1364.89" y2="1108.67" stroke="#D32F2F" stroke-width="8.00" stroke-linecap="round"/>
<line x1="1356.97" y1="1134.53" x2="1365.59" y2="1128.17" stroke="#D32F2F" stroke-width="8.00" stroke-linecap="round"/>
<line x1="1371.22" y1="1102.45" x2="1365.59" y2="1128.17" stroke="#D32F2F" stroke-width="8.00" stroke-linecap="round"/>
<line x1="1356.70" y1="1153.64" x2="1364.38" y2="1147.46" stroke="#D32F2F" stroke-width="8.00" stroke-linecap="round"/>
<line x1="1370.94" y1="1121.93" x2="1364.38" y2="1147.46" stroke="#D32F2F" stroke-width="8.00" stroke-linecap="round"/>
<line x1="1354.52" y1="1172.33" x2="1361.14" y2="1166.69" stroke="#D32F2F" stroke-width="8.00" stroke-linecap="round"/>
<line x1="1368.63" y1="1141.71" x2="1361.14" y2="1166.69" stroke="#D32F2F" stroke-width="8.00" stroke-linecap="round"/>
<line x1="1350.38" y1="1190.77" x2="1355.77" y2="1186.03" stroke="#D32F2F" stroke-width="8.00" stroke-linecap="round"/>
<line x1="1344.19" y1="1209.11" x2="1348.11" y2="1205.58" stroke="#D32F2F" stroke-width="8.00" stroke-linecap="round"/>
<line x1="1158.00" y1="1363.50" x2="1134.32" y2="1370.07" stroke="#D32F2F" stroke-width="8.00" stroke-linecap="round"/>
<line x1="1133.47" y1="1366.62" x2="1107.53" y2="1372.08" stroke="#D32F2F" stroke-width="8.00" stroke-linecap="round"/>
<line x1="1099.82" y1="1374.19" x2="1107.53" y2="1372.08" stroke="#D32F2F" stroke-width="8.00" stroke-linecap="round"/>
<line x1="1111.00" y1="1366.01" x2="1083.24" y2="1369.97" stroke="#D32F2F" stroke-width="7.50" stroke-linecap="round"/>
<line x1="1072.33" y1="1373.44" x2="1083.24" y2="1369.97" stroke="#D32F2F" stroke-width="8.00" stroke-linecap="round"/>
<line x1="1091.29" y1="1361.98" x2="1062.17" y2="1364.13" stroke="#D32F2F" stroke-width="6.83" stroke-linecap="round"/>
<line x1="1048.11" y1="1368.49" x2="1062.17" y2="1364.13" stroke="#D32F2F" stroke-width="8.00" stroke-linecap="round"/>
<line x1="1074.70" y1="1355.00" x2="1044.70" y2="1355.08" stroke="#D32F2F" stroke-width="6.23" stroke-linecap="round"/>
<line x1="1027.67" y1="1359.89" x2="1044.70" y2="1355.08" stroke="#D32F2F" stroke-width="8.00" stroke-linecap="round"/>
<line x1="1061.34" y1="1345.59" x2="1030.89" y2="1343.45" stroke="#D32F2F" stroke-width="5.76" stroke-linecap="round"/>
<line x1="1011.20" y1="1348.28" x2="1030.89" y2="1343.45" stroke="#D32F2F" stroke-width="8.00" stroke-linecap="round"/>
<line x1="1051.08" y1="1334.23" x2="1020.59" y2="1329.78" stroke="#D32F2F" stroke-width="5.45" stroke-linecap="round"/>
<line x1="998.60" y1="1334.34" x2="1020.59" y2="1329.78" stroke="#D32F2F" stroke-width="8.00" stroke-linecap="round"/>
<line x1="1043.67" y1="1321.29" x2="1013.48" y2="1314.55" stroke="#D32F2F" stroke-width="5.41" stroke-linecap="round"/>
<line x1="989.59" y1="1318.62" x2="1013.48" y2="1314.55" stroke="#D32F2F" stroke-width="8.00" stroke-linecap="round"/>
<line x1="1038.79" y1="1307.05" x2="1009.16" y2="1298.09" stroke="#D32F2F" stroke-width="6.10" stroke-linecap="round"/>
<line x1="983.76" y1="1301.60" x2="1009.16" y2="1298.09" stroke="#D32F2F" stroke-width="8.00" stroke-linecap="round"/>
<line x1="1036.11" y1="1291.66" x2="1007.19" y2="1280.66" stroke="#D32F2F" stroke-width="6.68" stroke-linecap="round"/>
<line x1="980.61" y1="1283.63" x2="1007.19" y2="1280.66" stroke="#D32F2F" stroke-width="8.00" stroke-linecap="round"/>
<line x1="1035.27" y1="1275.21" x2="1007.12" y2="1262.40" stroke="#D32F2F" stroke-width="7.16" stroke-linecap="round"/>
<line x1="979.65" y1="1264.96" x2="1007.12" y2="1262.40" stroke="#D32F2F" stroke-width="8.00" stroke-linecap="round"/>
<line x1="1035.95" y1="1257.69" x2="1008.52" y2="1243.38" stroke="#D32F2F" stroke-width="7.56" stroke-linecap="round"/>
<line x1="980.40" y1="1245.74" x2="1008.52" y2="1243.38" stroke="#D32F2F" stroke-width="8.00" stroke-linecap="round"/>
<line x1="1037.83" y1="1239.08" x2="1010.97" y2="1223.62" stroke="#D32F2F" stroke-width="7.92" stroke-linecap="round"/>
<line x1="982.38" y1="1226.04" x2="1010.97" y2="1223.62" stroke="#D32F2F" stroke-width="8.00" stroke-linecap="round"/>
<line x1="1040.57" y1="1219.31" x2="1014.09" y2="1203.11" stroke="#D32F2F" stroke-width="8.00" stroke-linecap="round"/>
<line x1="985.18" y1="1205.89" x2="1014.09" y2="1203.11" stroke="#D32F2F" stroke-width="8.00" stroke-linecap="round"/>
<line x1="1043.85" y1="1198.30" x2="1017.50" y2="1181.79" stroke="#D32F2F" stroke-width="8.00" stroke-linecap="round"/>
<line x1="988.40" y1="1185.28" x2="1017.50" y2="1181.79" stroke="#D32F2F" stroke-width="8.00" stroke-linecap="round"/>
<line x1="1047.32" y1="1175.95" x2="1020.84" y2="1159.63" stroke="#D32F2F" stroke-width="8.00" stroke-linecap="round"/>
<line x1="991.67" y1="1164.18" x2="1020.84" y2="1159.63" stroke="#D32F2F" stroke-width="8.00" stroke-linecap="round"/>
<line x1="1050.60" y1="1152.20" x2="1023.76" y2="1136.56" stroke="#D32F2F" stroke-width="8.00" stroke-linecap="round"/>
<line x1="994.67" y1="1142.54" x2="1023.76" y2="1136.56" stroke="#D32F2F" stroke-width="8.00" stroke-linecap="round"/>
<line x1="1053.30" y1="1127.01" x2="1025.91" y2="1112.57" stroke="#D32F2F" stroke-width="8.00" stroke-linecap="round"/>
<line x1="997.05" y1="1120.33" x2="1025.91" y2="1112.57" stroke="#D32F2F" stroke-width="8.00" stroke-linecap="round"/>
<line x1="1055.00" y1="1100.39" x2="1026.95" y2="1087.68" stroke="#D32F2F" stroke-width="8.00" stroke-linecap="round"/>
<line x1="998.50" y1="1097.54" x2="1026.95" y2="1087.68" stroke="#D32F2F" stroke-width="8.00" stroke-linecap="round"/>
<line x1="1055.26" y1="1072.49" x2="1026.51" y2="1061.98" stroke="#D32F2F" stroke-width="8.00" stroke-linecap="round"/>
<line x1="998.72" y1="1074.20" x2="1026.51" y2="1061.98" stroke="#D32F2F" stroke-width="8.00" stroke-linecap="round"/>
<line x1="1053.65" y1="1043.57" x2="1024.25" y2="1035.69" stroke="#D32F2F" stroke-width="8.00" stroke-linecap="round"/>
<line x1="997.40" y1="1050.41" x2="1024.25" y2="1035.69" stroke="#D32F2F" stroke-width="8.00" stroke-linecap="round"/>
<line x1="1049.77" y1="1014.06" x2="1019.87" y2="1009.16" stroke="#D32F2F" stroke-width="8.00" stroke-linecap="round"/>
<line x1="994.24" y1="1026.38" x2="1019.87" y2="1009.16" stroke="#D32F2F" stroke-width="8.00" stroke-linecap="round"/>
<line x1="1043.29" y1="984.61" x2="1013.10" y2="982.95" stroke="#D32F2F" stroke-width="8.00" stroke-linecap="round"/>
<line x1="988.99" y1="1002.49" x2="1013.10" y2="982.95" stroke="#D32F2F" stroke-width="8.00" stroke-linecap="round"/>
<line x1="1034.02" y1="956.06" x2="1003.80" y2="957.80" stroke="#D32F2F" stroke-width="8.00" stroke-linecap="round"/>
<line x1="981.47" y1="979.32" x2="1003.80" y2="957.80" stroke="#D32F2F" stroke-width="8.00" stroke-linecap="round"/>
<line x1="1021.94" y1="929.44" x2="991.99" y2="934.62" stroke="#D32F2F" stroke-width="8.00" stroke-linecap="round"/>
<line x1="971.63" y1="957.65" x2="991.99" y2="934.62" stroke="#D32F2F" stroke-width="8.00" stroke-linecap="round"/>
<line x1="1007.25" y1="905.86" x2="977.88" y2="914.44" stroke="#D32F2F" stroke-width="7.83" stroke-linecap="round"/>
<line x1="959.62" y1="938.39" x2="977.88" y2="914.44" stroke="#D32F2F" stroke-width="8.00" stroke-linecap="round"/>
<line x1="990.34" y1="886.41" x2="961.88" y2="898.23" stroke="#D32F2F" stroke-width="6.95" stroke-linecap="round"/>
<line x1="945.77" y1="922.45" x2="961.88" y2="898.23" stroke="#D32F2F" stroke-width="8.00" stroke-linecap="round"/>
<line x1="971.83" y1="871.99" x2="944.58" y2="886.77" stroke="#D32F2F" stroke-width="5.99" stroke-linecap="round"/>
<line x1="930.58" y1="910.62" x2="944.58" y2="886.77" stroke="#D32F2F" stroke-width="8.00" stroke-linecap="round"/>
<line x1="952.44" y1="863.15" x2="926.65" y2="880.51" stroke="#D32F2F" stroke-width="4.98" stroke-linecap="round"/>
<line x1="914.69" y1="903.37" x2="926.65" y2="880.51" stroke="#D32F2F" stroke-width="8.00" stroke-linecap="round"/>
<line x1="932.89" y1="860.05" x2="908.78" y2="879.48" stroke="#D32F2F" stroke-width="5.10" stroke-linecap="round"/>
<line x1="898.71" y1="900.83" x2="908.78" y2="879.48" stroke="#D32F2F" stroke-width="8.00" stroke-linecap="round"/>
<line x1="913.84" y1="862.42" x2="891.53" y2="883.38" stroke="#D32F2F" stroke-width="5.58" stroke-linecap="round"/>
<line x1="883.21" y1="902.76" x2="891.53" y2="883.38" stroke="#D32F2F" stroke-width="8.00" stroke-linecap="round"/>
<line x1="895.83" y1="869.71" x2="875.37" y2="891.63" stroke="#D32F2F" stroke-width="6.16" stroke-linecap="round"/>
<line x1="868.59" y1="908.67" x2="875.37" y2="891.63" stroke="#D32F2F" stroke-width="8.00" stroke-linecap="round"/>
<line x1="879.22" y1="881.17" x2="860.60" y2="903.53" stroke="#D32F2F" stroke-width="6.79" stroke-linecap="round"/>
<line x1="855.12" y1="917.97" x2="860.60" y2="903.53" stroke="#D32F2F" stroke-width="8.00" stroke-linecap="round"/>
<line x1="864.28" y1="896.01" x2="847.40" y2="918.36" stroke="#D32F2F" stroke-width="7.41" stroke-linecap="round"/>
<line x1="842.95" y1="930.06" x2="847.40" y2="918.36" stroke="#D32F2F" stroke-width="8.00" stroke-linecap="round"/>
<line x1="1163.99" y1="806.47" x2="1193.28" y2="816.28" stroke="#D32F2F" stroke-width="5.03" stroke-linecap="round"/>
<line x1="1180.94" y1="815.96" x2="1209.30" y2="826.55" stroke="#D32F2F" stroke-width="6.01" stroke-linecap="round"/>
<line x1="1225.28" y1="831.65" x2="1209.30" y2="826.55" stroke="#D32F2F" stroke-width="8.00" stroke-linecap="round"/>
<line x1="1199.45" y1="830.38" x2="1226.59" y2="841.22" stroke="#D32F2F" stroke-width="6.97" stroke-linecap="round"/>
<line x1="1240.47" y1="843.48" x2="1226.59" y2="841.22" stroke="#D32F2F" stroke-width="8.00" stroke-linecap="round"/>
<line x1="1218.80" y1="849.17" x2="1244.46" y2="859.70" stroke="#D32F2F" stroke-width="7.87" stroke-linecap="round"/>
<line x1="1256.32" y1="858.88" x2="1244.46" y2="859.70" stroke="#D32F2F" stroke-width="8.00" stroke-linecap="round"/>
<line x1="1238.26" y1="871.48" x2="1262.24" y2="881.13" stroke="#D32F2F" stroke-width="8.00" stroke-linecap="round"/>
<line x1="1272.23" y1="877.11" x2="1262.24" y2="881.13" stroke="#D32F2F" stroke-width="8.00" stroke-linecap="round"/>
<line x1="1257.18" y1="896.27" x2="1279.36" y2="904.55" stroke="#D32F2F" stroke-width="8.00" stroke-linecap="round"/>
<line x1="1287.63" y1="897.29" x2="1279.36" y2="904.55" stroke="#D32F2F" stroke-width="8.00" stroke-linecap="round"/>
<line x1="1275.05" y1="922.51" x2="1295.38" y2="929.02" stroke="#D32F2F" stroke-width="8.00" stroke-linecap="round"/>
<line x1="1302.13" y1="918.58" x2="1295.38" y2="929.02" stroke="#D32F2F" stroke-width="8.00" stroke-linecap="round"/>
<line x1="1291.49" y1="949.29" x2="1309.98" y2="953.77" stroke="#D32F2F" stroke-width="8.00" stroke-linecap="round"/>
<line x1="1315.46" y1="940.31" x2="1309.98" y2="953.77" stroke="#D32F2F" stroke-width="8.00" stroke-linecap="round"/>
<line x1="1306.24" y1="975.89" x2="1323.01" y2="978.23" stroke="#D32F2F" stroke-width="8.00" stroke-linecap="round"/>
<line x1="1327.48" y1="961.96" x2="1323.01" y2="978.23" stroke="#D32F2F" stroke-width="8.00" stroke-linecap="round"/>
<line x1="1319.17" y1="1001.78" x2="1334.35" y2="1002.04" stroke="#D32F2F" stroke-width="8.00" stroke-linecap="round"/>
<line x1="1338.11" y1="983.26" x2="1334.35" y2="1002.04" stroke="#D32F2F" stroke-width="8.00" stroke-linecap="round"/>
<line x1="1330.21" y1="1026.65" x2="1343.97" y2="1024.99" stroke="#D32F2F" stroke-width="8.00" stroke-linecap="round"/>
<line x1="1347.34" y1="1004.07" x2="1343.97" y2="1024.99" stroke="#D32F2F" stroke-width="8.00" stroke-linecap="round"/>
<line x1="1339.33" y1="1050.36" x2="1351.85" y2="1047.06" stroke="#D32F2F" stroke-width="8.00" stroke-linecap="round"/>
<line x1="1355.16" y1="1024.38" x2="1351.85" y2="1047.06" stroke="#D32F2F" stroke-width="8.00" stroke-linecap="round"/>
<line x1="1346.56" y1="1072.90" x2="1357.98" y2="1068.27" stroke="#D32F2F" stroke-width="8.00" stroke-linecap="round"/>
<line x1="1361.52" y1="1044.24" x2="1357.98" y2="1068.27" stroke="#D32F2F" stroke-width="8.00" stroke-linecap="round"/>
<line x1="1351.90" y1="1094.34" x2="1362.34" y2="1088.76" stroke="#D32F2F" stroke-width="8.00" stroke-linecap="round"/>
<line x1="1366.38" y1="1063.77" x2="1362.34" y2="1088.76" stroke="#D32F2F" stroke-width="8.00" stroke-linecap="round"/>
<line x1="1355.37" y1="1114.83" x2="1364.89" y2="1108.67" stroke="#D32F2F" stroke-width="8.00" stroke-linecap="round"/>
<line x1="1369.65" y1="1083.13" x2="1364.89" y2="1108.67" stroke="#D32F2F" stroke-width="8.00" stroke-linecap="round"/>
<line x1="1356.97" y1="1134.53" x2="1365.59" y2="1128.17" stroke="#D32F2F" stroke-width="8.00" stroke-linecap="round"/>
<line x1="1371.22" y1="1102.45" x2="1365.59" y2="1128.17" stroke="#D32F2F" stroke-width="8.00" stroke-linecap="round"/>
<line x1="1356.70" y1="1153.64" x2="1364.38" y2="1147.46" stroke="#D32F2F" stroke-width="8.00" stroke-linecap="round"/>
<line x1="1370.94" y1="1121.93" x2="1364.38" y2="1147.46" stroke="#D32F2F" stroke-width="8.00" stroke-linecap="round"/>
<line x1="1354.52" y1="1172.33" x2="1361.14" y2="1166.69" stroke="#D32F2F" stroke-width="8.00" stroke-linecap="round"/>
<line x1="1368.63" y1="1141.71" x2="1361.14" y2="1166.69" stroke="#D32F2F" stroke-width="8.00" stroke-linecap="round"/>
<line x1="1350.38" y1="1190.77" x2="1355.77" y2="1186.03" stroke="#D32F2F" stroke-width="8.00" stroke-linecap="round"/>
<line x1="1344.19" y1="1209.11" x2="1348.11" y2="1205.58" stroke="#D32F2F" stroke-width="8.00" stroke-linecap="round"/>
<line x1="1158.00" y1="1363.50" x2="1134.32" y2="1370.07" stroke="#D32F2F" stroke-width="8.00" stroke-linecap="round"/>
<line x1="1133.47" y1="1366.62" x2="1107.53" y2="1372.08" stroke="#D32F2F" stroke-width="8.00" stroke-linecap="round"/>
<line x1="1099.82" y1="1374.19" x2="1107.53" y2="1372.08" stroke="#D32F2F" stroke-width="8.00" stroke-linecap="round"/>
<line x1="1111.00" y1="1366.01" x2="1083.24" y2="1369.97" stroke="#D32F2F" stroke-width="7.50" stroke-linecap="round"/>
<line x1="1072.33" y1="1373.44" x2="1083.24" y2="1369.97" stroke="#D32F2F" stroke-width="8.00" stroke-linecap="round"/>
<line x1="1091.29" y1="1361.98" x2="1062.17" y2="1364.13" stroke="#D32F2F" stroke-width="6.83" stroke-linecap="round"/>
<line x1="1048.11" y1="1368.49" x2="1062.17" y2="1364.13" stroke="#D32F2F" stroke-width="8.00" stroke-linecap="round"/>
<line x1="1074.70" y1="1355.00" x2="1044.70" y2="1355.08" stroke="#D32F2F" stroke-width="6.23" stroke-linecap="round"/>
<line x1="1027.67" y1="1359.89" x2="1044.70" y2="1355.08" stroke="#D32F2F" stroke-width="8.00" stroke-linecap="round"/>
<line x1="1061.34" y1="1345.59" x2="1030.89" y2="1343.45" stroke="#D32F2F" stroke-width="5.76" stroke-linecap="round"/>
<line x1="1011.20" y1="1348.28" x2="1030.89" y2="1343.45" stroke="#D32F2F" stroke-width="8.00" stroke-linecap="round"/>
<line x1="1051.08" y1="1334.23" x2="1020.59" y2="1329.78" stroke="#D32F2F" stroke-width="5.45" stroke-linecap="round"/>
<line x1="998.60" y1="1334.34" x2="1020.59" y2="1329.78" stroke="#D32F2F" stroke-width="8.00" stroke-linecap="round"/>
<line x1="1043.67" y1="1321.29" x2="1013.48" y2="1314.55" stroke="#D32F2F" stroke-width="5.41" stroke-linecap="round"/>
<line x1="989.59" y1="1318.62" x2="1013.48" y2="1314.55" stroke="#D32F2F" stroke-width="8.00" stroke-linecap="round"/>
<line x1="1038.79" y1="1307.05" x2="1009.16" y2="1298.09" stroke="#D32F2F" stroke-width="6.10" stroke-linecap="round"/>
<line x1="983.76" y1="1301.60" x2="1009.16" y2="1298.09" stroke="#D32F2F" stroke-width="8.00" stroke-linecap="round"/>
<line x1="1036.11" y1="1291.66" x2="1007.19" y2="1280.66" stroke="#D32F2F" stroke-width="6.68" stroke-linecap="round"/>
<line x1="980.61" y1="1283.63" x2="1007.19" y2="1280.66" stroke="#D32F2F" stroke-width="8.00" stroke-linecap="round"/>
<line x1="1035.27" y1="1275.21" x2="1007.12" y2="1262.40" stroke="#D32F2F" stroke-width="7.16" stroke-linecap="round"/>
<line x1="979.65" y1="1264.96" x2="1007.12" y2="1262.40" stroke="#D32F2F" stroke-width="8.00" stroke-linecap="round"/>
<line x1="1035.95" y1="1257.69" x2="1008.52" y2="1243.38" stroke="#D32F2F" stroke-width="7.56" stroke-linecap="round"/>
<line x1="980.40" y1="1245.74" x2="1008.52" y2="1243.38" stroke="#D32F2F" stroke-width="8.00" stroke-linecap="round"/>
<line x1="1037.83" y1="1239.08" x2="1010.97" y2="1223.62" stroke="#D32F2F" stroke-width="7.92" stroke-linecap="round"/>
<line x1="982.38" y1="1226.04" x2="1010.97" y2="1223.62" stroke="#D32F2F" stroke-width="8.00" stroke-linecap="round"/>
<line x1="1040.57" y1="1219.31" x2="1014.09" y2="1203.11" stroke="#D32F2F" stroke-width="8.00" stroke-linecap="round"/>
<line x1="985.18" y1="1205.89" x2="1014.09" y2="1203.11" stroke="#D32F2F" stroke-width="8.00" stroke-linecap="round"/>
<line x1="1043.85" y1="1198.30" x2="1017.50" y2="1181.79" stroke="#D32F2F" stroke-width="8.00" stroke-linecap="round"/>
<line x1="988.40" y1="1185.28" x2="1017.50" y2="1181.79" stroke="#D32F2F" stroke-width="8.00" stroke-linecap="round"/>
<line x1="1047.32" y1="1175.95" x2="1020.84" y2="1159.63" stroke="#D32F2F" stroke-width="8.00" stroke-linecap="round"/>
<line x1="991.67" y1="1164.18" x2="1020.84" y2="1159.63" stroke="#D32F2F" stroke-width="8.00" stroke-linecap="round"/>
<line x1="1050.60" y1="1152.20" x2="1023.76" y2="1136.56" stroke="#D32F2F" stroke-width="8.00" stroke-linecap="round"/>
<line x1="994.67" y1="1142.54" x2="1023.76" y2="1136.56" stroke="#D32F2F" stroke-width="8.00" stroke-linecap="round"/>
<line x1="1053.30" y1="1127.01" x2="1025.91" y2="1112.57" stroke="#D32F2F" stroke-width="8.00" stroke-linecap="round"/>
<line x1="997.05" y1="1120.33" x2="1025.91" y2="1112.57" stroke="#D32F2F" stroke-width="8.00" stroke-linecap="round"/>
<line x1="1055.00" y1="1100.39" x2="1026.95" y2="1087.68" stroke="#D32F2F" stroke-width="8.00" stroke-linecap="round"/>
<line x1="998.50" y1="1097.54" x2="1026.95" y2="1087.68" stroke="#D32F2F" stroke-width="8.00" stroke-linecap="round"/>
<line x1="1055.26" y1="1072.49" x2="1026.51" y2="1061.98" stroke="#D32F2F" stroke-width="8.00" stroke-linecap="round"/>
<line x1="998.72" y1="1074.20" x2="1026.51" y2="1061.98" stroke="#D32F2F" stroke-width="8.00" stroke-linecap="round"/>
<line x1="1053.65" y1="1043.57" x2="1024.25" y2="1035.69" stroke="#D32F2F" stroke-width="8.00" stroke-linecap="round"/>
<line x1="997.40" y1="1050.41" x2="1024.25" y2="1035.69" stroke="#D32F2F" stroke-width="8.00" stroke-linecap="round"/>
<line x1="1049.77" y1="1014.06" x2="1019.87" y2="1009.16" stroke="#D32F2F" stroke-width="8.00" stroke-linecap="round"/>
<line x1="994.24" y1="1026.38" x2="1019.87" y2="1009.16" stroke="#D32F2F" stroke-width="8.00" stroke-linecap="round"/>
<line x1="1043.29" y1="984.61" x2="1013.10" y2="982.95" stroke="#D32F2F" stroke-width="8.00" stroke-linecap="round"/>
<line x1="988.99" y1="1002.49" x2="1013.10" y2="982.95" stroke="#D32F2F" stroke-width="8.00" stroke-linecap="round"/>
<line x1="1034.02" y1="956.06" x2="1003.80" y2="957.80" stroke="#D32F2F" stroke-width="8.00" stroke-linecap="round"/>
<line x1="981.47" y1="979.32" x2="1003.80" y2="957.80" stroke="#D32F2F" stroke-width="8.00" stroke-linecap="round"/>
<line x1="1021.94" y1="929.44" x2="991.99" y2="934.62" stroke="#D32F2F" stroke-width="8.00" stroke-linecap="round"/>
<line x1="971.63" y1="957.65" x2="991.99" y2="934.62" stroke="#D32F2F" stroke-width="8.00" stroke-linecap="round"/>
<line x1="1007.25" y1="905.86" x2="977.88" y2="914.44" stroke="#D32F2F" stroke-width="7.83" stroke-linecap="round"/>
<line x1="959.62" y1="938.39" x2="977.88" y2="914.44" stroke="#D32F2F" stroke-width="8.00" stroke-linecap="round"/>
<line x1="990.34" y1="886.41" x2="961.88" y2="898.23" stroke="#D32F2F" stroke-width="6.95" stroke-linecap="round"/>
<line x1="945.77" y1="922.45" x2="961.88" y2="898.23" stroke="#D32F2F" stroke-width="8.00" stroke-linecap="round"/>
<line x1="971.83" y1="871.99" x2="944.58" y2="886.77" stroke="#D32F2F" stroke-width="5.99" stroke-linecap="round"/>
<line x1="930.58" y1="910.62" x2="944.58" y2="886.77" stroke="#D32F2F" stroke-width="8.00" stroke-linecap="round"/>
<line x1="952.44" y1="863.15" x2="926.65" y2="880.51" stroke="#D32F2F" stroke-width="4.98" stroke-linecap="round"/>
<line x1="914.69" y1="903.37" x2="926.65" y2="880.51" stroke="#D32F2F" stroke-width="8.00" stroke-linecap="round"/>
<line x1="932.89" y1="860.05" x2="908.78" y2="879.48" stroke="#D32F2F" stroke-width="5.10" stroke-linecap="round"/>
<line x1="898.71" y1="900.83" x2="908.78" y2="879.48" stroke="#D32F2F" stroke-width="8.00" stroke-linecap="round"/>
<line x1="913.84" y1="862.42" x2="891.53" y2="883.38" stroke="#D32F2F" stroke-width="5.58" stroke-linecap="round"/>
<line x1="883.21" y1="902.76" x2="891.53" y2="883.38" stroke="#D32F2F" stroke-width="8.00" stroke-linecap="round"/>
<line x1="895.83" y1="869.71" x2="875.37" y2="891.63" stroke="#D32F2F" stroke-width="6.16" stroke-linecap="round"/>
<line x1="868.59" y1="908.67" x2="875.37" y2="891.63" stroke="#D32F2F" stroke-width="8.00" stroke-linecap="round"/>
<line x1="879.22" y1="881.17" x2="860.60" y2="903.53" stroke="#D32F2F" stroke-width="6.79" stroke-linecap="round"/>
<line x1="855.12" y1="917.97" x2="860.60" y2="903.53" stroke="#D32F2F" stroke-width="8.00" stroke-linecap="round"/>
<line x1="864.28" y1="896.01" x2="847.40" y2="918.36" stroke="#D32F2F" stroke-width="7.41" stroke-linecap="round"/>
<line x1="842.95" y1="930.06" x2="847.40" y2="918.36" stroke="#D32F2F" stroke-width="8.00" stroke-linecap="round"/>
<circle cx="1084.59" cy="1084.59" r="290.0" fill="none" stroke="#ccc" stroke-width="0.5"/>
<line x1="585.41" y1="1218.34" x2="835.00" y2="1151.47" stroke="#A1A1AA" stroke-width="5" opacity="0.9"/>
<line x1="1232.25" y1="1199.65" x2="1379.92" y2="1314.72" stroke="#A1A1AA" stroke-width="5" opacity="0.9"/>
<line x1="1085.75" y1="826.93" x2="1086.91" y2="569.27" stroke="#A1A1AA" stroke-width="5" opacity="0.9"/>
<polygon points="789.26,854.46 809.95,860.45 800.12,873.07" fill="#A1A1AA" opacity="0.9"/>
<text x="1658.64" y="930.77" font-family="Palatino, 'Palatino Linotype', 'Book Antiqua', Georgia, serif" font-style="italic" font-size="52" fill="#A1A1AA" text-anchor="middle" dominant-baseline="middle" opacity="0.9">x</text>
<text x="1450.80" y="1369.95" font-family="Palatino, 'Palatino Linotype', 'Book Antiqua', Georgia, serif" font-style="italic" font-size="52" fill="#A1A1AA" text-anchor="middle" dominant-baseline="middle" opacity="0.9">y</text>
<text x="1087.26" y="491.97" font-family="Palatino, 'Palatino Linotype', 'Book Antiqua', Georgia, serif" font-style="italic" font-size="52" fill="#A1A1AA" text-anchor="middle" dominant-baseline="middle" opacity="0.9">z</text>
</svg>