<svg width="2169" height="2169" viewBox="0 0 2169.1789 2169.1789" xmlns="http://www.w3.org/2000/svg">
<line x1="947.80" y1="939.59" x2="811.02" y2="794.59" stroke="#A1A1AA" stroke-width="5" opacity="0.9"/>
<line x1="1084.69" y1="1562.30" x2="1084.64" y2="1323.44" stroke="#A1A1AA" stroke-width="5" opacity="0.9"/>
<line x1="1340.30" y1="1006.98" x2="1596.02" y2="929.37" stroke="#A1A1AA" stroke-width="5" opacity="0.9"/>
<circle cx="1084.59" cy="1084.59" r="290.0" fill="#FDFDF5"/>
<line x1="1352.46" y1="1150.64" x2="1361.47" y2="1123.56" stroke="#D32F2F" stroke-width="7.48" stroke-linecap="round"/>
<line x1="1369.05" y1="1113.37" x2="1361.47" y2="1123.56" stroke="#D32F2F" stroke-width="8.00" stroke-linecap="round"/>
<line x1="1350.64" y1="1132.72" x2="1358.78" y2="1105.55" stroke="#D32F2F" stroke-width="7.72" stroke-linecap="round"/>
<line x1="1367.27" y1="1095.80" x2="1358.78" y2="1105.55" stroke="#D32F2F" stroke-width="8.00" stroke-linecap="round"/>
<line x1="1346.99" y1="1113.92" x2="1354.41" y2="1086.98" stroke="#D32F2F" stroke-width="8.00" stroke-linecap="round"/>
<line x1="1363.83" y1="1078.04" x2="1354.41" y2="1086.98" stroke="#D32F2F" stroke-width="8.00" stroke-linecap="round"/>
<line x1="1341.53" y1="1094.02" x2="1348.42" y2="1067.65" stroke="#D32F2F" stroke-width="8.00" stroke-linecap="round"/>
<line x1="1358.86" y1="1059.91" x2="1348.42" y2="1067.65" stroke="#D32F2F" stroke-width="8.00" stroke-linecap="round"/>
<line x1="1334.25" y1="1072.82" x2="1340.88" y2="1047.40" stroke="#D32F2F" stroke-width="8.00" stroke-linecap="round"/>
<line x1="1352.45" y1="1041.23" x2="1340.88" y2="1047.40" stroke="#D32F2F" stroke-width="8.00" stroke-linecap="round"/>
<line x1="1325.17" y1="1050.19" x2="1331.82" y2="1026.09" stroke="#D32F2F" stroke-width="8.00" stroke-linecap="round"/>
<line x1="1344.67" y1="1021.85" x2="1331.82" y2="1026.09" stroke="#D32F2F" stroke-width="8.00" stroke-linecap="round"/>
<line x1="1314.29" y1="1026.06" x2="1321.27" y2="1003.68" stroke="#D32F2F" stroke-width="8.00" stroke-linecap="round"/>
<line x1="1335.57" y1="1001.66" x2="1321.27" y2="1003.68" stroke="#D32F2F" stroke-width="8.00" stroke-linecap="round"/>
<line x1="1301.66" y1="1000.50" x2="1309.27" y2="980.21" stroke="#D32F2F" stroke-width="8.00" stroke-linecap="round"/>
<line x1="1325.19" y1="980.64" x2="1309.27" y2="980.21" stroke="#D32F2F" stroke-width="8.00" stroke-linecap="round"/>
<line x1="1287.37" y1="973.74" x2="1295.88" y2="955.88" stroke="#D32F2F" stroke-width="8.00" stroke-linecap="round"/>
<line x1="1313.55" y1="958.85" x2="1295.88" y2="955.88" stroke="#D32F2F" stroke-width="8.00" stroke-linecap="round"/>
<line x1="1271.58" y1="946.23" x2="1281.24" y2="931.08" stroke="#D32F2F" stroke-width="8.00" stroke-linecap="round"/>
<line x1="1300.74" y1="936.53" x2="1281.24" y2="931.08" stroke="#D32F2F" stroke-width="8.00" stroke-linecap="round"/>
<line x1="1254.53" y1="918.63" x2="1265.55" y2="906.41" stroke="#D32F2F" stroke-width="8.00" stroke-linecap="round"/>
<line x1="1286.90" y1="914.13" x2="1265.55" y2="906.41" stroke="#D32F2F" stroke-width="8.00" stroke-linecap="round"/>
<line x1="1236.60" y1="891.82" x2="1249.17" y2="882.67" stroke="#D32F2F" stroke-width="8.00" stroke-linecap="round"/>
<line x1="1272.31" y1="892.31" x2="1249.17" y2="882.67" stroke="#D32F2F" stroke-width="8.00" stroke-linecap="round"/>
<line x1="1218.30" y1="866.85" x2="1232.56" y2="860.83" stroke="#D32F2F" stroke-width="8.00" stroke-linecap="round"/>
<line x1="1257.35" y1="871.91" x2="1232.56" y2="860.83" stroke="#D32F2F" stroke-width="7.97" stroke-linecap="round"/>
<line x1="1200.24" y1="844.79" x2="1216.31" y2="841.86" stroke="#D32F2F" stroke-width="8.00" stroke-linecap="round"/>
<line x1="1242.55" y1="853.83" x2="1216.31" y2="841.86" stroke="#D32F2F" stroke-width="7.10" stroke-linecap="round"/>
<line x1="1183.09" y1="826.62" x2="1201.06" y2="826.63" stroke="#D32F2F" stroke-width="8.00" stroke-linecap="round"/>
<line x1="1228.48" y1="838.92" x2="1201.06" y2="826.63" stroke="#D32F2F" stroke-width="6.15" stroke-linecap="round"/>
<line x1="1167.53" y1="813.04" x2="1187.41" y2="815.73" stroke="#D32F2F" stroke-width="8.00" stroke-linecap="round"/>
<line x1="1215.73" y1="827.79" x2="1187.41" y2="815.73" stroke="#D32F2F" stroke-width="5.16" stroke-linecap="round"/>
<line x1="1154.11" y1="804.38" x2="1175.86" y2="809.39" stroke="#D32F2F" stroke-width="8.00" stroke-linecap="round"/>
<line x1="1204.77" y1="820.71" x2="1175.86" y2="809.39" stroke="#D32F2F" stroke-width="4.19" stroke-linecap="round"/>
<line x1="824.47" y1="957.75" x2="837.31" y2="933.15" stroke="#D32F2F" stroke-width="7.60" stroke-linecap="round"/>
<line x1="833.56" y1="943.64" x2="847.86" y2="918.70" stroke="#D32F2F" stroke-width="7.11" stroke-linecap="round"/>
<line x1="867.46" y1="893.09" x2="859.85" y2="906.59" stroke="#D32F2F" stroke-width="8.00" stroke-linecap="round"/>
<line x1="843.94" y1="931.61" x2="859.85" y2="906.59" stroke="#D32F2F" stroke-width="6.58" stroke-linecap="round"/>
<line x1="881.74" y1="881.44" x2="873.23" y2="897.39" stroke="#D32F2F" stroke-width="8.00" stroke-linecap="round"/>
<line x1="855.57" y1="922.12" x2="873.23" y2="897.39" stroke="#D32F2F" stroke-width="6.03" stroke-linecap="round"/>
<line x1="897.53" y1="873.50" x2="887.87" y2="891.74" stroke="#D32F2F" stroke-width="8.00" stroke-linecap="round"/>
<line x1="868.38" y1="915.68" x2="887.87" y2="891.74" stroke="#D32F2F" stroke-width="5.51" stroke-linecap="round"/>
<line x1="914.57" y1="870.01" x2="903.55" y2="890.27" stroke="#D32F2F" stroke-width="8.00" stroke-linecap="round"/>
<line x1="882.20" y1="912.85" x2="903.55" y2="890.27" stroke="#D32F2F" stroke-width="5.08" stroke-linecap="round"/>
<line x1="932.49" y1="871.64" x2="919.93" y2="893.54" stroke="#D32F2F" stroke-width="8.00" stroke-linecap="round"/>
<line x1="896.79" y1="914.18" x2="919.93" y2="893.54" stroke="#D32F2F" stroke-width="5.25" stroke-linecap="round"/>
<line x1="950.79" y1="878.82" x2="936.53" y2="901.89" stroke="#D32F2F" stroke-width="8.00" stroke-linecap="round"/>
<line x1="911.75" y1="920.04" x2="936.53" y2="901.89" stroke="#D32F2F" stroke-width="6.22" stroke-linecap="round"/>
<line x1="968.85" y1="891.64" x2="952.78" y2="915.35" stroke="#D32F2F" stroke-width="8.00" stroke-linecap="round"/>
<line x1="926.55" y1="930.56" x2="952.78" y2="915.35" stroke="#D32F2F" stroke-width="7.15" stroke-linecap="round"/>
<line x1="986.00" y1="909.82" x2="968.04" y2="933.56" stroke="#D32F2F" stroke-width="8.00" stroke-linecap="round"/>
<line x1="940.61" y1="945.47" x2="968.04" y2="933.56" stroke="#D32F2F" stroke-width="7.99" stroke-linecap="round"/>
<line x1="1001.56" y1="932.63" x2="981.68" y2="955.78" stroke="#D32F2F" stroke-width="8.00" stroke-linecap="round"/>
<line x1="953.37" y1="964.17" x2="981.68" y2="955.78" stroke="#D32F2F" stroke-width="8.00" stroke-linecap="round"/>
<line x1="1014.98" y1="959.09" x2="993.24" y2="981.04" stroke="#D32F2F" stroke-width="8.00" stroke-linecap="round"/>
<line x1="964.34" y1="985.78" x2="993.24" y2="981.04" stroke="#D32F2F" stroke-width="8.00" stroke-linecap="round"/>
<line x1="1025.89" y1="988.02" x2="1002.39" y2="1008.25" stroke="#D32F2F" stroke-width="8.00" stroke-linecap="round"/>
<line x1="973.22" y1="1009.34" x2="1002.39" y2="1008.25" stroke="#D32F2F" stroke-width="8.00" stroke-linecap="round"/>
<line x1="1034.13" y1="1018.30" x2="1009.06" y2="1036.38" stroke="#D32F2F" stroke-width="8.00" stroke-linecap="round"/>
<line x1="979.90" y1="1033.90" x2="1009.06" y2="1036.38" stroke="#D32F2F" stroke-width="8.00" stroke-linecap="round"/>
<line x1="1039.72" y1="1048.91" x2="1013.32" y2="1064.58" stroke="#D32F2F" stroke-width="8.00" stroke-linecap="round"/>
<line x1="984.44" y1="1058.73" x2="1013.32" y2="1064.58" stroke="#D32F2F" stroke-width="8.00" stroke-linecap="round"/>
<line x1="1042.87" y1="1079.04" x2="1015.40" y2="1092.20" stroke="#D32F2F" stroke-width="8.00" stroke-linecap="round"/>
<line x1="987.01" y1="1083.27" x2="1015.40" y2="1092.20" stroke="#D32F2F" stroke-width="8.00" stroke-linecap="round"/>
<line x1="1043.90" y1="1108.12" x2="1015.62" y2="1118.83" stroke="#D32F2F" stroke-width="8.00" stroke-linecap="round"/>
<line x1="987.85" y1="1107.20" x2="1015.62" y2="1118.83" stroke="#D32F2F" stroke-width="8.00" stroke-linecap="round"/>
<line x1="1043.21" y1="1135.77" x2="1014.36" y2="1144.21" stroke="#D32F2F" stroke-width="8.00" stroke-linecap="round"/>
<line x1="987.27" y1="1130.32" x2="1014.36" y2="1144.21" stroke="#D32F2F" stroke-width="8.00" stroke-linecap="round"/>
<line x1="1041.20" y1="1161.77" x2="1011.99" y2="1168.23" stroke="#D32F2F" stroke-width="8.00" stroke-linecap="round"/>
<line x1="985.55" y1="1152.58" x2="1011.99" y2="1168.23" stroke="#D32F2F" stroke-width="8.00" stroke-linecap="round"/>
<line x1="1038.31" y1="1186.05" x2="1008.91" y2="1190.88" stroke="#D32F2F" stroke-width="8.00" stroke-linecap="round"/>
<line x1="982.99" y1="1173.98" x2="1008.91" y2="1190.88" stroke="#D32F2F" stroke-width="8.00" stroke-linecap="round"/>
<line x1="1034.94" y1="1208.63" x2="1005.49" y2="1212.18" stroke="#D32F2F" stroke-width="8.00" stroke-linecap="round"/>
<line x1="979.92" y1="1194.55" x2="1005.49" y2="1212.18" stroke="#D32F2F" stroke-width="7.98" stroke-linecap="round"/>
<line x1="1031.48" y1="1229.58" x2="1002.11" y2="1232.22" stroke="#D32F2F" stroke-width="8.00" stroke-linecap="round"/>
<line x1="976.66" y1="1214.35" x2="1002.11" y2="1232.22" stroke="#D32F2F" stroke-width="7.44" stroke-linecap="round"/>
<line x1="1028.29" y1="1249.02" x2="999.11" y2="1251.09" stroke="#D32F2F" stroke-width="8.00" stroke-linecap="round"/>
<line x1="973.53" y1="1233.41" x2="999.11" y2="1251.09" stroke="#D32F2F" stroke-width="7.21" stroke-linecap="round"/>
<line x1="1025.71" y1="1267.06" x2="996.87" y2="1268.86" stroke="#D32F2F" stroke-width="8.00" stroke-linecap="round"/>
<line x1="970.91" y1="1251.79" x2="996.87" y2="1268.86" stroke="#D32F2F" stroke-width="6.97" stroke-linecap="round"/>
<line x1="1024.08" y1="1283.80" x2="995.72" y2="1285.60" stroke="#D32F2F" stroke-width="8.00" stroke-linecap="round"/>
<line x1="969.18" y1="1269.51" x2="995.72" y2="1285.60" stroke="#D32F2F" stroke-width="6.68" stroke-linecap="round"/>
<line x1="1023.70" y1="1299.32" x2="996.05" y2="1301.36" stroke="#D32F2F" stroke-width="8.00" stroke-linecap="round"/>
<line x1="968.77" y1="1286.55" x2="996.05" y2="1301.36" stroke="#D32F2F" stroke-width="6.31" stroke-linecap="round"/>
<line x1="1024.91" y1="1313.69" x2="998.22" y2="1316.11" stroke="#D32F2F" stroke-width="8.00" stroke-linecap="round"/>
<line x1="970.14" y1="1302.84" x2="998.22" y2="1316.11" stroke="#D32F2F" stroke-width="5.84" stroke-linecap="round"/>
<line x1="1028.03" y1="1326.90" x2="1002.61" y2="1329.79" stroke="#D32F2F" stroke-width="8.00" stroke-linecap="round"/>
<line x1="973.79" y1="1318.26" x2="1002.61" y2="1329.79" stroke="#D32F2F" stroke-width="5.24" stroke-linecap="round"/>
<line x1="1033.39" y1="1338.89" x2="1009.63" y2="1342.24" stroke="#D32F2F" stroke-width="8.00" stroke-linecap="round"/>
<line x1="980.20" y1="1332.59" x2="1009.63" y2="1342.24" stroke="#D32F2F" stroke-width="4.65" stroke-linecap="round"/>
<line x1="1041.34" y1="1349.52" x2="1019.66" y2="1353.23" stroke="#D32F2F" stroke-width="8.00" stroke-linecap="round"/>
<line x1="989.87" y1="1345.52" x2="1019.66" y2="1353.23" stroke="#D32F2F" stroke-width="5.01" stroke-linecap="round"/>
<line x1="1052.18" y1="1358.56" x2="1033.01" y2="1362.40" stroke="#D32F2F" stroke-width="8.00" stroke-linecap="round"/>
<line x1="1003.19" y1="1356.62" x2="1033.01" y2="1362.40" stroke="#D32F2F" stroke-width="5.55" stroke-linecap="round"/>
<line x1="1066.18" y1="1365.68" x2="1049.90" y2="1369.32" stroke="#D32F2F" stroke-width="8.00" stroke-linecap="round"/>
<line x1="1020.45" y1="1365.39" x2="1049.90" y2="1369.32" stroke="#D32F2F" stroke-width="6.23" stroke-linecap="round"/>
<line x1="1083.45" y1="1370.44" x2="1070.36" y2="1373.49" stroke="#D32F2F" stroke-width="8.00" stroke-linecap="round"/>
<line x1="1041.72" y1="1371.26" x2="1070.36" y2="1373.49" stroke="#D32F2F" stroke-width="6.99" stroke-linecap="round"/>
<line x1="1103.86" y1="1372.41" x2="1094.17" y2="1374.43" stroke="#D32F2F" stroke-width="8.00" stroke-linecap="round"/>
<line x1="1340.56" y1="1217.89" x2="1352.79" y2="1194.17" stroke="#D32F2F" stroke-width="8.00" stroke-linecap="round"/>
<line x1="1346.55" y1="1201.34" x2="1358.19" y2="1176.34" stroke="#D32F2F" stroke-width="7.69" stroke-linecap="round"/>
<line x1="1350.47" y1="1184.74" x2="1361.32" y2="1158.75" stroke="#D32F2F" stroke-width="7.46" stroke-linecap="round"/>
<line x1="1366.94" y1="1148.79" x2="1361.32" y2="1158.75" stroke="#D32F2F" stroke-width="8.00" stroke-linecap="round"/>
<line x1="1352.42" y1="1167.90" x2="1362.36" y2="1141.23" stroke="#D32F2F" stroke-width="7.38" stroke-linecap="round"/>
<line x1="1369.00" y1="1130.97" x2="1362.36" y2="1141.23" stroke="#D32F2F" stroke-width="8.00" stroke-linecap="round"/>
<line x1="1352.46" y1="1150.64" x2="1361.47" y2="1123.56" stroke="#D32F2F" stroke-width="7.48" stroke-linecap="round"/>
<line x1="1369.05" y1="1113.37" x2="1361.47" y2="1123.56" stroke="#D32F2F" stroke-width="8.00" stroke-linecap="round"/>
<line x1="1350.64" y1="1132.72" x2="1358.78" y2="1105.55" stroke="#D32F2F" stroke-width="7.72" stroke-linecap="round"/>
<line x1="1367.27" y1="1095.80" x2="1358.78" y2="1105.55" stroke="#D32F2F" stroke-width="8.00" stroke-linecap="round"/>
<line x1="1346.99" y1="1113.92" x2="1354.41" y2="1086.98" stroke="#D32F2F" stroke-width="8.00" stroke-linecap="round"/>
<line x1="1363.83" y1="1078.04" x2="1354.41" y2="1086.98" stroke="#D32F2F" stroke-width="8.00" stroke-linecap="round"/>
<line x1="1341.53" y1="1094.02" x2="1348.42" y2="1067.65" stroke="#D32F2F" stroke-width="8.00" stroke-linecap="round"/>
<line x1="1358.86" y1="1059.91" x2="1348.42" y2="1067.65" stroke="#D32F2F" stroke-width="8.00" stroke-linecap="round"/>
<line x1="1334.25" y1="1072.82" x2="1340.88" y2="1047.40" stroke="#D32F2F" stroke-width="8.00" stroke-linecap="round"/>
<line x1="1352.45" y1="1041.23" x2="1340.88" y2="1047.40" stroke="#D32F2F" stroke-width="8.00" stroke-linecap="round"/>
<line x1="1325.17" y1="1050.19" x2="1331.82" y2="1026.09" stroke="#D32F2F" stroke-width="8.00" stroke-linecap="round"/>
<line x1="1344.67" y1="1021.85" x2="1331.82" y2="1026.09" stroke="#D32F2F" stroke-width="8.00" stroke-linecap="round"/>
<line x1="1314.29" y1="1026.06" x2="1321.27" y2="1003.68" stroke="#D32F2F" stroke-width="8.00" stroke-linecap="round"/>
<line x1="1335.57" y1="1001.66" x2="1321.27" y2="1003.68" stroke="#D32F2F" stroke-width="8.00" stroke-linecap="round"/>
<line x1="1301.66" y1="1000.50" x2="1309.27" y2="980.21" stroke="#D32F2F" stroke-width="8.00" stroke-linecap="round"/>
<line x1="1325.19" y1="980.64" x2="1309.27" y2="980.21" stroke="#D32F2F" stroke-width="8.00" stroke-linecap="round"/>
<line x1="1287.37" y1="973.74" x2="1295.88" y2="955.88" stroke="#D32F2F" stroke-width="8.00" stroke-linecap="round"/>
<line x1="1313.55" y1="958.85" x2="1295.88" y2="955.88" stroke="#D32F2F" stroke-width="8.00" stroke-linecap="round"/>
<line x1="1271.58" y1="946.23" x2="1281.24" y2="931.08" stroke="#D32F2F" stroke-width="8.00" stroke-linecap="round"/>
<line x1="1300.74" y1="936.53" x2="1281.24" y2="931.08" stroke="#D32F2F" stroke-width="8.00" stroke-linecap="round"/>
<line x1="1254.53" y1="918.63" x2="1265.55" y2="906.41" stroke="#D32F2F" stroke-width="8.00" stroke-linecap="round"/>
<line x1="1286.90" y1="914.13" x2="1265.55" y2="906.41" stroke="#D32F2F" stroke-width="8.00" stroke-linecap="round"/>
<line x1="1236.60" y1="891.82" x2="1249.17" y2="882.67" stroke="#D32F2F" stroke-width="8.00" stroke-linecap="round"/>
<line x1="1272.31" y1="892.31" x2="1249.17" y2="882.67" stroke="#D32F2F" stroke-width="8.00" stroke-linecap="round"/>
<line x1="1218.30" y1="866.85" x2="1232.56" y2="860.83" stroke="#D32F2F" stroke-width="8.00" stroke-linecap="round"/>
<line x1="1257.35" y1="871.91" x2="1232.56" y2="860.83" stroke="#D32F2F" stroke-width="7.97" stroke-linecap="round"/>
<line x1="1200.24" y1="844.79" x2="1216.31" y2="841.86" stroke="#D32F2F" stroke-width="8.00" stroke-linecap="round"/>
<line x1="1242.55" y1="853.83" x2="1216.31" y2="841.86" stroke="#D32F2F" stroke-width="7.10" stroke-linecap="round"/>
<line x1="1183.09" y1="826.62" x2="1201.06" y2="826.63" stroke="#D32F2F" stroke-width="8.00" stroke-linecap="round"/>
<line x1="1228.48" y1="838.92" x2="1201.06" y2="826.63" stroke="#D32F2F" stroke-width="6.15" stroke-linecap="round"/>
<line x1="1167.53" y1="813.04" x2="1187.41" y2="815.73" stroke="#D32F2F" stroke-width="8.00" stroke-linecap="round"/>
<line x1="1215.73" y1="827.79" x2="1187.41" y2="815.73" stroke="#D32F2F" stroke-width="5.16" stroke-linecap="round"/>
<line x1="1154.11" y1="804.38" x2="1175.86" y2="809.39" stroke="#D32F2F" stroke-width="8.00" stroke-linecap="round"/>
<line x1="1204.77" y1="820.71" x2="1175.86" y2="809.39" stroke="#D32F2F" stroke-width="4.19" stroke-linecap="round"/>
<line x1="824.47" y1="957.75" x2="837.31" y2="933.15" stroke="#D32F2F" stroke-width="7.60" stroke-linecap="round"/>
<line x1="833.56" y1="943.64" x2="847.86" y2="918.70" stroke="#D32F2F" stroke-width="7.11" stroke-linecap="round"/>
<line x1="867.46" y1="893.09" x2="859.85" y2="906.59" stroke="#D32F2F" stroke-width="8.00" stroke-linecap="round"/>
<line x1="843.94" y1="931.61" x2="859.85" y2="906.59" stroke="#D32F2F" stroke-width="6.58" stroke-linecap="round"/>
<line x1="881.74" y1="881.44" x2="873.23" y2="897.39" stroke="#D32F2F" stroke-width="8.00" stroke-linecap="round"/>
<line x1="855.57" y1="922.12" x2="873.23" y2="897.39" stroke="#D32F2F" stroke-width="6.03" stroke-linecap="round"/>
<line x1="897.53" y1="873.50" x2="887.87" y2="891.74" stroke="#D32F2F" stroke-width="8.00" stroke-linecap="round"/>
<line x1="868.38" y1="915.68" x2="887.87" y2="891.74" stroke="#D32F2F" stroke-width="5.51" stroke-linecap="round"/>
<line x1="914.57" y1="870.01" x2="903.55" y2="890.27" stroke="#D32F2F" stroke-width="8.00" stroke-linecap="round"/>
<line x1="882.20" y1="912.85" x2="903.55" y2="890.27" stroke="#D32F2F" stroke-width="5.08" stroke-linecap="round"/>
<line x1="932.49" y1="871.64" x2="919.93" y2="893.54" stroke="#D32F2F" stroke-width="8.00" stroke-linecap="round"/>
<line x1="896.79" y1="914.18" x2="919.93" y2="893.54" stroke="#D32F2F" stroke-width="5.25" stroke-linecap="round"/>
<line x1="950.79" y1="878.82" x2="936.53" y2="901.89" stroke="#D32F2F" stroke-width="8.00" stroke-linecap="round"/>
<line x1="911.75" y1="920.04" x2="936.53" y2="901.89" stroke="#D32F2F" stroke-width="6.22" stroke-linecap="round"/>
<line x1="968.85" y1="891.64" x2="952.78" y2="915.35" stroke="#D32F2F" stroke-width="8.00" stroke-linecap="round"/>
<line x1="926.55" y1="930.56" x2="952.78" y2="915.35" stroke="#D32F2F" stroke-width="7.15" stroke-linecap="round"/>
<line x1="986.00" y1="909.82" x2="968.04" y2="933.56" stroke="#D32F2F" stroke-width="8.00" stroke-linecap="round"/>
<line x1="940.61" y1="945.47" x2="968.04" y2="933.56" stroke="#D32F2F" stroke-width="7.99" stroke-linecap="round"/>
<line x1="1001.56" y1="932.63" x2="981.68" y2="955.78" stroke="#D32F2F" stroke-width="8.00" stroke-linecap="round"/>
<line x1="953.37" y1="964.17" x2="981.68" y2="955.78" stroke="#D32F2F" stroke-width="8.00" stroke-linecap="round"/>
<line x1="1014.98" y1="959.09" x2="993.24" y2="981.04" stroke="#D32F2F" stroke-width="8.00" stroke-linecap="round"/>
<line x1="964.34" y1="985.78" x2="993.24" y2="981.04" stroke="#D32F2F" stroke-width="8.00" stroke-linecap="round"/>
<line x1="1025.89" y1="988.02" x2="1002.39" y2="1008.25" stroke="#D32F2F" stroke-width="8.00" stroke-linecap="round"/>
<line x1="973.22" y1="1009.34" x2="1002.39" y2="1008.25" stroke="#D32F2F" stroke-width="8.00" stroke-linecap="round"/>
<line x1="1034.13" y1="1018.30" x2="1009.06" y2="1036.38" stroke="#D32F2F" stroke-width="8.00" stroke-linecap="round"/>
<line x1="979.90" y1="1033.90" x2="1009.06" y2="1036.38" stroke="#D32F2F" stroke-width="8.00" stroke-linecap="round"/>
<line x1="1039.72" y1="1048.91" x2="1013.32" y2="1064.58" stroke="#D32F2F" stroke-width="8.00" stroke-linecap="round"/>
<line x1="984.44" y1="1058.73" x2="1013.32" y2="1064.58" stroke="#D32F2F" stroke-width="8.00" stroke-linecap="round"/>
<line x1="1042.87" y1="1079.04" x2="1015.40" y2="1092.20" stroke="#D32F2F" stroke-width="8.00" stroke-linecap="round"/>
<line x1="987.01" y1="1083.27" x2="1015.40" y2="1092.20" stroke="#D32F2F" stroke-width="8.00" stroke-linecap="round"/>
<line x1="1043.90" y1="1108.12" x2="1015.62" y2="1118.83" stroke="#D32F2F" stroke-width="8.00" stroke-linecap="round"/>
<line x1="987.85" y1="1107.20" x2="1015.62" y2="1118.83" stroke="#D32F2F" stroke-width="8.00" stroke-linecap="round"/>
<line x1="1043.21" y1="1135.77" x2="1014.36" y2="1144.21" stroke="#D32F2F" stroke-width="8.00" stroke-linecap="round"/>
<line x1="987.27" y1="1130.32" x2="1014.36" y2="1144.21" stroke="#D32F2F" stroke-width="8.00" stroke-linecap="round"/>
<line x1="1041.20" y1="1161.77" x2="1011.99" y2="1168.23" stroke="#D32F2F" stroke-width="8.00" stroke-linecap="round"/>
<line x1="985.55" y1="1152.58" x2="1011.99" y2="1168.23" stroke="#D32F2F" stroke-width="8.00" stroke-linecap="round"/>
<line x1="1038.31" y1="1186.05" x2="1008.91" y2="1190.88" stroke="#D32F2F" stroke-width="8.00" stroke-linecap="round"/>
<line x1="982.99" y1="1173.98" x2="1008.91" y2="1190.88" stroke="#D32F2F" stroke-width="8.00" stroke-linecap="round"/>
<line x1="1034.94" y1="1208.63" x2="1005.49" y2="1212.18" stroke="#D32F2F" stroke-width="8.00" stroke-linecap="round"/>
<line x1="979.92" y1="1194.55" x2="1005.49" y2="1212.18" stroke="#D32F2F" stroke-width="7.98" stroke-linecap="round"/>
<line x1="1031.48" y1="1229.58" x2="1002.11" y2="1232.22" stroke="#D32F2F" stroke-width="8.00" stroke-linecap="round"/>
<line x1="976.66" y1="1214.35" x2="1002.11" y2="1232.22" stroke="#D32F2F" stroke-width="7.44" stroke-linecap="round"/>
<line x1="1028.29" y1="1249.02" x2="999.11" y2="1251.09" stroke="#D32F2F" stroke-width="8.00" stroke-linecap="round"/>
<line x1="973.53" y1="1233.41" x2="999.11" y2="1251.09" stroke="#D32F2F" stroke-width="7.21" stroke-linecap="round"/>
<line x1="1025.71" y1="1267.06" x2="996.87" y2="1268.86" stroke="#D32F2F" stroke-width="8.00" stroke-linecap="round"/>
<line x1="970.91" y1="1251.79" x2="996.87" y2="1268.86" stroke="#D32F2F" stroke-width="6.97" stroke-linecap="round"/>
<line x1="1024.08" y1="1283.80" x2="995.72" y2="1285.60" stroke="#D32F2F" stroke-width="8.00" stroke-linecap="round"/>
<line x1="969.18" y1="1269.51" x2="995.72" y2="1285.60" stroke="#D32F2F" stroke-width="6.68" stroke-linecap="round"/>
<line x1="1023.70" y1="1299.32" x2="996.05" y2="1301.36" stroke="#D32F2F" stroke-width="8.00" stroke-linecap="round"/>
<line x1="968.77" y1="1286.55" x2="996.05" y2="1301.36" stroke="#D32F2F" stroke-width="6.31" stroke-linecap="round"/>
<line x1="1024.91" y1="1313.69" x2="998.22" y2="1316.11" stroke="#D32F2F" stroke-width="8.00" stroke-linecap="round"/>
<line x1="970.14" y1="1302.84" x2="998.22" y2="1316.11" stroke="#D32F2F" stroke-width="5.84" stroke-linecap="round"/>
<line x1="1028.03" y1="1326.90" x2="1002.61" y2="1329.79" stroke="#D32F2F" stroke-width="8.00" stroke-linecap="round"/>
<line x1="973.79" y1="1318.26" x2="1002.61" y2="1329.79" stroke="#D32F2F" stroke-width="5.24" stroke-linecap="round"/>
<line x1="1033.39" y1="1338.89" x2="1009.63" y2="1342.24" stroke="#D32F2F" stroke-width="8.00" stroke-linecap="round"/>
<line x1="980.20" y1="1332.59" x2="1009.63" y2="1342.24" stroke="#D32F2F" stroke-width="4.65" stroke-linecap="round"/>
<line x1="1041.34" y1="1349.52" x2="1019.66" y2="1353.23" stroke="#D32F2F" stroke-width="8.00" stroke-linecap="round"/>
<line x1="989.87" y1="1345.52" x2="1019.66" y2="1353.23" stroke="#D32F2F" stroke-width="5.01" stroke-linecap="round"/>
<line x1="1052.18" y1="1358.56" x2="1033.01" y2="1362.40" stroke="#D32F2F" stroke-width="8.00" stroke-linecap="round"/>
<line x1="1003.19" y1="1356.62" x2="1033.01" y2="1362.40" stroke="#D32F2F" stroke-width="5.55" stroke-linecap="round"/>
<line x1="1066.18" y1="1365.68" x2="1049.90" y2="1369.32" stroke="#D32F2F" stroke-width="8.00" stroke-linecap="round"/>
<line x1="1020.45" y1="1365.39" x2="1049.90" y2="1369.32" stroke="#D32F2F" stroke-width="6.23" stroke-linecap="round"/>
<line x1="1083.45" y1="1370.44" x2="1070.36" y2="1373.49" stroke="#D32F2F" stroke-width="8.00" stroke-linecap="round"/>
<line x1="1041.72" y1="1371.26" x2="1070.36" y2="1373.49" stroke="#D32F2F" stroke-width="6.99" stroke-linecap="round"/>
<line x1="1103.86" y1="1372.41" x2="1094.17" y2="1374.43" stroke="#D32F2F" stroke-width="8.00" stroke-linecap="round"/>
<line x1="1340.56" y1="1217.89" x2="1352.79" y2="1194.17" stroke="#D32F2F" stroke-width="8.00" stroke-linecap="round"/>
<line x1="1346.55" y1="1201.34" x2="1358.19" y2="1176.34" stroke="#D32F2F" stroke-width="7.69" stroke-linecap="round"/>
<line x1="1350.47" y1="1184.74" x2="1361.32" y2="1158.75" stroke="#D32F2F" stroke-width="7.46" stroke-linecap="round"/>
<line x1="1366.94" y1="1148.79" x2="1361.32" y2="1158.75" stroke="#D32F2F" stroke-width="8.00" stroke-linecap="round"/>
<line x1="1352.42" y1="1167.90" x2="1362.36" y2="1141.23" stroke="#D32F2F" stroke-width="7.38" stroke-linecap="round"/>
<line x1="1369.00" y1="1130.97" x2="1362.36" y2="1141.23" stroke="#D32F2F" stroke-width="8.00" stroke-linecap="round"/>
<circle cx="1084.59" cy="1084.59" r="290.0" fill="none" stroke="#ccc" stroke-width="0.5"/>
<line x1="573.16" y1="1239.81" x2="828.87" y2="1162.20" stroke="#A1A1AA" stroke-width="5" opacity="0.9"/>
<line x1="1084.54" y1="845.73" x2="1084.49" y2="606.88" stroke="#A1A1AA" stroke-width="5" opacity="0.9"/>
<line x1="1358.16" y1="1374.59" x2="1221.37" y2="1229.59" stroke="#A1A1AA" stroke-width="5" opacity="0.9"/>
<polygon points="1596.02,929.37 1579.20,942.84 1574.56,927.52" fill="#A1A1AA" opacity="0.9"/>
<polygon points="811.02,794.59 830.56,803.65 818.92,814.63" fill="#A1A1AA" opacity="0.9"/>
<polygon points="1084.49,606.88 1092.49,626.88 1076.49,626.88" fill="#A1A1AA" opacity="0.9"/>
<text x="1688.08" y="901.43" font-family="Palatino, 'Palatino Linotype', 'Book Antiqua', Georgia, serif" font-style="italic" font-size="52" fill="#A1A1AA" text-anchor="middle" dominant-baseline="middle" opacity="0.9">x</text>
<text x="761.78" y="742.39" font-family="Palatino, 'Palatino Linotype', 'Book Antiqua', Georgia, serif" font-style="italic" font-size="52" fill="#A1A1AA" text-anchor="middle" dominant-baseline="middle" opacity="0.9">y</text>
<text x="1084.47" y="520.89" font-family="Palatino, 'Palatino Linotype', 'Book Antiqua', Georgia, serif" font-style="italic" font-size="52" fill="#A1A1AA" text-anchor="middle" dominant-baseline="middle" opacity="0.9">z</text>
<polyline points="1154.98,1478.83 1156.43,1475.66 1157.45,1472.44 1158.01,1469.19 1158.12,1465.92 1157.78,1462.65 1156.99,1459.41 1155.75,1456.22 1154.07,1453.09 1151.97,1450.04 1149.45,1447.10 1146.53,1444.28 1143.23,1441.59 1139.57,1439.07 1135.57,1436.71 1131.26,1434.54 1126.66,1432.56 1121.80,1430.80 1116.71,1429.26 1111.42,1427.95 1105.97,1426.88 1100.39,1426.06 1094.71,1425.48 1088.97,1425.16 1083.20,1425.10 1077.45,1425.30 1071.73,1425.75 1066.10,1426.45 1060.58,1427.40 1055.21,1428.60 1050.02,1430.02 1045.04,1431.68 1040.31,1433.55 1035.85,1435.63 1031.69,1437.90 1027.86,1440.34 1024.38,1442.95 1021.28,1445.71 1018.56,1448.60 1016.25,1451.59 1014.36,1454.69 1012.90,1457.85 1011.89,1461.07 1011.33,1464.33 1011.22,1467.60 1011.56,1470.87 1012.35,1474.11 1013.59,1477.30 1015.27,1480.43 1017.37,1483.48 1019.89,1486.42 1022.81,1489.24 1026.11,1491.92 1029.77,1494.45 1033.77,1496.81 1038.08,1498.98 1042.68,1500.95 1047.54,1502.71 1052.63,1504.26 1057.91,1505.56 1063.37,1506.63" fill="none" stroke="#A1A1AA" stroke-width="2.2" stroke-linecap="round" stroke-linejoin="round" opacity="0.85"/>
<polygon points="1063.37,1506.63 1052.59,1509.61 1054.52,1499.80" fill="#A1A1AA" opacity="0.85"/>
<text x="1029.23" y="1407.98" font-family="Palatino, 'Palatino Linotype', 'Book Antiqua', Georgia, serif" font-style="italic" font-size="28" fill="#A1A1AA" text-anchor="middle" dominant-baseline="middle" opacity="0.85">yaw</text>
<polyline points="699.96,1277.52 701.80,1275.99 703.49,1274.05 705.00,1271.70 706.33,1268.96 707.47,1265.86 708.41,1262.40 709.14,1258.61 709.67,1254.51 709.99,1250.13 710.10,1245.50 709.99,1240.64 709.67,1235.58 709.14,1230.36 708.40,1225.00 707.46,1219.54 706.32,1214.02 704.99,1208.47 703.47,1202.91 701.79,1197.40 699.94,1191.95 697.94,1186.61 695.80,1181.40 693.54,1176.36 691.17,1171.53 688.70,1166.92 686.14,1162.57 683.52,1158.50 680.85,1154.74 678.15,1151.32 675.43,1148.25 672.71,1145.56 670.01,1143.25 667.34,1141.35 664.73,1139.86 662.17,1138.80 659.70,1138.17 657.33,1137.98 655.07,1138.22 652.93,1138.89 650.93,1140.00 649.09,1141.53 647.40,1143.48 645.89,1145.83 644.57,1148.56 643.43,1151.67 642.49,1155.13 641.75,1158.92 641.22,1163.02 640.90,1167.40 640.79,1172.03 640.90,1176.89 641.22,1181.95 641.75,1187.17 642.49,1192.53 643.44,1197.98 644.58,1203.50 645.91,1209.06 647.42,1214.61 649.10,1220.13 650.95,1225.58" fill="none" stroke="#A1A1AA" stroke-width="2.2" stroke-linecap="round" stroke-linejoin="round" opacity="0.85"/>
<polygon points="650.95,1225.58 643.00,1217.71 652.47,1214.50" fill="#A1A1AA" opacity="0.85"/>
<text x="675.43" y="1111.95" font-family="Palatino, 'Palatino Linotype', 'Book Antiqua', Georgia, serif" font-style="italic" font-size="28" fill="#A1A1AA" text-anchor="middle" dominant-baseline="middle" opacity="0.85">pitch</text>
<polyline points="1349.26,1345.47 1352.71,1340.94 1355.86,1336.25 1358.69,1331.44 1361.17,1326.54 1363.30,1321.58 1365.06,1316.59 1366.44,1311.60 1367.43,1306.64 1368.03,1301.74 1368.23,1296.93 1368.03,1292.24 1367.43,1287.70 1366.43,1283.35 1365.05,1279.19 1363.29,1275.27 1361.16,1271.60 1358.67,1268.21 1355.85,1265.12 1352.70,1262.34 1349.24,1259.90 1345.51,1257.81 1341.51,1256.08 1337.28,1254.72 1332.84,1253.75 1328.22,1253.16 1323.45,1252.97 1318.56,1253.16 1313.57,1253.75 1308.51,1254.72 1303.43,1256.08 1298.35,1257.81 1293.30,1259.90 1288.31,1262.34 1283.41,1265.12 1278.64,1268.21 1274.02,1271.60 1269.59,1275.27 1265.36,1279.19 1261.36,1283.35 1257.63,1287.70 1254.18,1292.24 1251.03,1296.93 1248.20,1301.74 1245.72,1306.64 1243.59,1311.60 1241.83,1316.59 1240.45,1321.58 1239.46,1326.54 1238.86,1331.44 1238.66,1336.25 1238.86,1340.94 1239.46,1345.47 1240.46,1349.83 1241.84,1353.99 1243.60,1357.91 1245.73,1361.58 1248.22,1364.97 1251.04,1368.06 1254.19,1370.84 1257.65,1373.28" fill="none" stroke="#A1A1AA" stroke-width="2.2" stroke-linecap="round" stroke-linejoin="round" opacity="0.85"/>
<polygon points="1257.65,1373.28 1246.59,1371.59 1252.37,1363.42" fill="#A1A1AA" opacity="0.85"/>
<text x="1303.42" y="1219.77" font-family="Palatino, 'Palatino Linotype', 'Book Antiqua', Georgia, serif" font-style="italic" font-size="28" fill="#A1A1AA" text-anchor="middle" dominant-baseline="middle" opacity="0.85">roll</text>
</svg>