<svg width="2169" height="2169" viewBox="0 0 2169.1789 2169.1789" xmlns="http://www.w3.org/2000/svg">
<line x1="1334.18" y1="1017.71" x2="1583.76" y2="950.84" stroke="#A1A1AA" stroke-width="5" opacity="0.9"/>
<line x1="789.27" y1="863.49" x2="936.93" y2="974.04" stroke="#A1A1AA" stroke-width="5" opacity="0.9"/>
<line x1="1087.42" y1="1603.84" x2="1086.01" y2="1344.22" stroke="#A1A1AA" stroke-width="5" opacity="0.9"/>
<circle cx="1084.59" cy="1084.59" r="290.0" fill="#FDFDF5"/>
<line x1="1161.71" y1="805.56" x2="1191.08" y2="815.20" stroke="#D32F2F" stroke-width="4.95" stroke-linecap="round"/>
<line x1="1178.61" y1="814.46" x2="1207.08" y2="824.93" stroke="#D32F2F" stroke-width="5.92" stroke-linecap="round"/>
<line x1="1223.21" y1="830.30" x2="1207.08" y2="824.93" stroke="#D32F2F" stroke-width="8.00" stroke-linecap="round"/>
<line x1="1197.11" y1="828.31" x2="1224.38" y2="839.10" stroke="#D32F2F" stroke-width="6.89" stroke-linecap="round"/>
<line x1="1238.39" y1="841.66" x2="1224.38" y2="839.10" stroke="#D32F2F" stroke-width="8.00" stroke-linecap="round"/>
<line x1="1216.51" y1="846.59" x2="1242.31" y2="857.12" stroke="#D32F2F" stroke-width="7.79" stroke-linecap="round"/>
<line x1="1254.29" y1="856.64" x2="1242.31" y2="857.12" stroke="#D32F2F" stroke-width="8.00" stroke-linecap="round"/>
<line x1="1236.07" y1="868.44" x2="1260.20" y2="878.16" stroke="#D32F2F" stroke-width="8.00" stroke-linecap="round"/>
<line x1="1270.27" y1="874.50" x2="1260.20" y2="878.16" stroke="#D32F2F" stroke-width="8.00" stroke-linecap="round"/>
<line x1="1255.13" y1="892.86" x2="1277.45" y2="901.27" stroke="#D32F2F" stroke-width="8.00" stroke-linecap="round"/>
<line x1="1285.79" y1="894.37" x2="1277.45" y2="901.27" stroke="#D32F2F" stroke-width="8.00" stroke-linecap="round"/>
<line x1="1273.17" y1="918.82" x2="1293.63" y2="925.50" stroke="#D32F2F" stroke-width="8.00" stroke-linecap="round"/>
<line x1="1300.42" y1="915.44" x2="1293.63" y2="925.50" stroke="#D32F2F" stroke-width="8.00" stroke-linecap="round"/>
<line x1="1289.79" y1="945.39" x2="1308.42" y2="950.09" stroke="#D32F2F" stroke-width="8.00" stroke-linecap="round"/>
<line x1="1313.91" y1="936.99" x2="1308.42" y2="950.09" stroke="#D32F2F" stroke-width="8.00" stroke-linecap="round"/>
<line x1="1304.75" y1="971.86" x2="1321.64" y2="974.46" stroke="#D32F2F" stroke-width="8.00" stroke-linecap="round"/>
<line x1="1326.09" y1="958.54" x2="1321.64" y2="974.46" stroke="#D32F2F" stroke-width="8.00" stroke-linecap="round"/>
<line x1="1317.90" y1="997.69" x2="1333.19" y2="998.23" stroke="#D32F2F" stroke-width="8.00" stroke-linecap="round"/>
<line x1="1336.90" y1="979.79" x2="1333.19" y2="998.23" stroke="#D32F2F" stroke-width="8.00" stroke-linecap="round"/>
<line x1="1329.16" y1="1022.56" x2="1343.02" y2="1021.21" stroke="#D32F2F" stroke-width="8.00" stroke-linecap="round"/>
<line x1="1346.32" y1="1000.61" x2="1343.02" y2="1021.21" stroke="#D32F2F" stroke-width="8.00" stroke-linecap="round"/>
<line x1="1338.51" y1="1046.33" x2="1351.11" y2="1043.34" stroke="#D32F2F" stroke-width="8.00" stroke-linecap="round"/>
<line x1="1354.32" y1="1020.95" x2="1351.11" y2="1043.34" stroke="#D32F2F" stroke-width="8.00" stroke-linecap="round"/>
<line x1="1345.95" y1="1068.96" x2="1357.45" y2="1064.67" stroke="#D32F2F" stroke-width="8.00" stroke-linecap="round"/>
<line x1="1360.88" y1="1040.90" x2="1357.45" y2="1064.67" stroke="#D32F2F" stroke-width="8.00" stroke-linecap="round"/>
<line x1="1351.51" y1="1090.53" x2="1362.02" y2="1085.30" stroke="#D32F2F" stroke-width="8.00" stroke-linecap="round"/>
<line x1="1365.94" y1="1060.56" x2="1362.02" y2="1085.30" stroke="#D32F2F" stroke-width="8.00" stroke-linecap="round"/>
<line x1="1355.19" y1="1111.18" x2="1364.78" y2="1105.38" stroke="#D32F2F" stroke-width="8.00" stroke-linecap="round"/>
<line x1="1369.41" y1="1080.06" x2="1364.78" y2="1105.38" stroke="#D32F2F" stroke-width="8.00" stroke-linecap="round"/>
<line x1="1357.00" y1="1131.07" x2="1365.70" y2="1125.08" stroke="#D32F2F" stroke-width="8.00" stroke-linecap="round"/>
<line x1="1371.18" y1="1099.57" x2="1365.70" y2="1125.08" stroke="#D32F2F" stroke-width="8.00" stroke-linecap="round"/>
<line x1="1356.94" y1="1150.37" x2="1364.69" y2="1144.58" stroke="#D32F2F" stroke-width="8.00" stroke-linecap="round"/>
<line x1="1371.11" y1="1119.25" x2="1364.69" y2="1144.58" stroke="#D32F2F" stroke-width="8.00" stroke-linecap="round"/>
<line x1="1354.96" y1="1169.28" x2="1361.66" y2="1164.04" stroke="#D32F2F" stroke-width="8.00" stroke-linecap="round"/>
<line x1="1369.01" y1="1139.26" x2="1361.66" y2="1164.04" stroke="#D32F2F" stroke-width="8.00" stroke-linecap="round"/>
<line x1="1351.02" y1="1187.94" x2="1356.49" y2="1183.61" stroke="#D32F2F" stroke-width="8.00" stroke-linecap="round"/>
<line x1="1364.68" y1="1159.74" x2="1356.49" y2="1183.61" stroke="#D32F2F" stroke-width="8.00" stroke-linecap="round"/>
<line x1="1345.03" y1="1206.51" x2="1349.04" y2="1203.41" stroke="#D32F2F" stroke-width="8.00" stroke-linecap="round"/>
<line x1="1160.07" y1="1362.42" x2="1136.52" y2="1369.47" stroke="#D32F2F" stroke-width="8.00" stroke-linecap="round"/>
<line x1="1135.50" y1="1365.49" x2="1109.67" y2="1371.40" stroke="#D32F2F" stroke-width="8.00" stroke-linecap="round"/>
<line x1="1102.11" y1="1374.02" x2="1109.67" y2="1371.40" stroke="#D32F2F" stroke-width="8.00" stroke-linecap="round"/>
<line x1="1112.96" y1="1364.79" x2="1085.29" y2="1369.17" stroke="#D32F2F" stroke-width="7.53" stroke-linecap="round"/>
<line x1="1074.52" y1="1373.16" x2="1085.29" y2="1369.17" stroke="#D32F2F" stroke-width="8.00" stroke-linecap="round"/>
<line x1="1093.13" y1="1360.62" x2="1064.08" y2="1363.15" stroke="#D32F2F" stroke-width="6.87" stroke-linecap="round"/>
<line x1="1050.17" y1="1368.04" x2="1064.08" y2="1363.15" stroke="#D32F2F" stroke-width="8.00" stroke-linecap="round"/>
<line x1="1076.41" y1="1353.47" x2="1046.44" y2="1353.91" stroke="#D32F2F" stroke-width="6.29" stroke-linecap="round"/>
<line x1="1029.56" y1="1359.23" x2="1046.44" y2="1353.91" stroke="#D32F2F" stroke-width="8.00" stroke-linecap="round"/>
<line x1="1062.89" y1="1343.87" x2="1032.44" y2="1342.05" stroke="#D32F2F" stroke-width="5.84" stroke-linecap="round"/>
<line x1="1012.89" y1="1347.39" x2="1032.44" y2="1342.05" stroke="#D32F2F" stroke-width="8.00" stroke-linecap="round"/>
<line x1="1052.47" y1="1332.30" x2="1021.95" y2="1328.14" stroke="#D32F2F" stroke-width="5.54" stroke-linecap="round"/>
<line x1="1000.09" y1="1333.19" x2="1021.95" y2="1328.14" stroke="#D32F2F" stroke-width="8.00" stroke-linecap="round"/>
<line x1="1044.88" y1="1319.15" x2="1014.64" y2="1312.65" stroke="#D32F2F" stroke-width="5.43" stroke-linecap="round"/>
<line x1="990.86" y1="1317.20" x2="1014.64" y2="1312.65" stroke="#D32F2F" stroke-width="8.00" stroke-linecap="round"/>
<line x1="1039.82" y1="1304.68" x2="1010.11" y2="1295.94" stroke="#D32F2F" stroke-width="6.12" stroke-linecap="round"/>
<line x1="984.80" y1="1299.91" x2="1010.11" y2="1295.94" stroke="#D32F2F" stroke-width="8.00" stroke-linecap="round"/>
<line x1="1036.94" y1="1289.06" x2="1007.93" y2="1278.26" stroke="#D32F2F" stroke-width="6.70" stroke-linecap="round"/>
<line x1="981.44" y1="1281.68" x2="1007.93" y2="1278.26" stroke="#D32F2F" stroke-width="8.00" stroke-linecap="round"/>
<line x1="1035.90" y1="1272.38" x2="1007.65" y2="1259.75" stroke="#D32F2F" stroke-width="7.18" stroke-linecap="round"/>
<line x1="980.26" y1="1262.75" x2="1007.65" y2="1259.75" stroke="#D32F2F" stroke-width="8.00" stroke-linecap="round"/>
<line x1="1036.39" y1="1254.64" x2="1008.84" y2="1240.50" stroke="#D32F2F" stroke-width="7.58" stroke-linecap="round"/>
<line x1="980.79" y1="1243.28" x2="1008.84" y2="1240.50" stroke="#D32F2F" stroke-width="8.00" stroke-linecap="round"/>
<line x1="1038.06" y1="1235.81" x2="1011.08" y2="1220.53" stroke="#D32F2F" stroke-width="7.95" stroke-linecap="round"/>
<line x1="982.56" y1="1223.36" x2="1011.08" y2="1220.53" stroke="#D32F2F" stroke-width="8.00" stroke-linecap="round"/>
<line x1="1040.60" y1="1215.85" x2="1013.98" y2="1199.82" stroke="#D32F2F" stroke-width="8.00" stroke-linecap="round"/>
<line x1="985.15" y1="1203.01" x2="1013.98" y2="1199.82" stroke="#D32F2F" stroke-width="8.00" stroke-linecap="round"/>
<line x1="1043.68" y1="1194.65" x2="1017.18" y2="1178.34" stroke="#D32F2F" stroke-width="8.00" stroke-linecap="round"/>
<line x1="988.16" y1="1182.22" x2="1017.18" y2="1178.34" stroke="#D32F2F" stroke-width="8.00" stroke-linecap="round"/>
<line x1="1046.93" y1="1172.14" x2="1020.32" y2="1156.03" stroke="#D32F2F" stroke-width="8.00" stroke-linecap="round"/>
<line x1="991.23" y1="1160.96" x2="1020.32" y2="1156.03" stroke="#D32F2F" stroke-width="8.00" stroke-linecap="round"/>
<line x1="1049.99" y1="1148.26" x2="1023.03" y2="1132.86" stroke="#D32F2F" stroke-width="8.00" stroke-linecap="round"/>
<line x1="994.03" y1="1139.20" x2="1023.03" y2="1132.86" stroke="#D32F2F" stroke-width="8.00" stroke-linecap="round"/>
<line x1="1052.47" y1="1122.97" x2="1024.98" y2="1108.79" stroke="#D32F2F" stroke-width="8.00" stroke-linecap="round"/>
<line x1="996.21" y1="1116.91" x2="1024.98" y2="1108.79" stroke="#D32F2F" stroke-width="8.00" stroke-linecap="round"/>
<line x1="1053.95" y1="1096.31" x2="1025.81" y2="1083.87" stroke="#D32F2F" stroke-width="8.00" stroke-linecap="round"/>
<line x1="997.48" y1="1094.08" x2="1025.81" y2="1083.87" stroke="#D32F2F" stroke-width="8.00" stroke-linecap="round"/>
<line x1="1053.99" y1="1068.40" x2="1025.17" y2="1058.20" stroke="#D32F2F" stroke-width="8.00" stroke-linecap="round"/>
<line x1="997.51" y1="1070.73" x2="1025.17" y2="1058.20" stroke="#D32F2F" stroke-width="8.00" stroke-linecap="round"/>
<line x1="1052.16" y1="1039.54" x2="1022.73" y2="1031.98" stroke="#D32F2F" stroke-width="8.00" stroke-linecap="round"/>
<line x1="996.01" y1="1046.99" x2="1022.73" y2="1031.98" stroke="#D32F2F" stroke-width="8.00" stroke-linecap="round"/>
<line x1="1048.07" y1="1010.16" x2="1018.16" y2="1005.60" stroke="#D32F2F" stroke-width="8.00" stroke-linecap="round"/>
<line x1="992.68" y1="1023.06" x2="1018.16" y2="1005.60" stroke="#D32F2F" stroke-width="8.00" stroke-linecap="round"/>
<line x1="1041.40" y1="980.92" x2="1011.23" y2="979.60" stroke="#D32F2F" stroke-width="8.00" stroke-linecap="round"/>
<line x1="987.27" y1="999.34" x2="1011.23" y2="979.60" stroke="#D32F2F" stroke-width="8.00" stroke-linecap="round"/>
<line x1="1031.97" y1="952.66" x2="1001.79" y2="954.74" stroke="#D32F2F" stroke-width="8.00" stroke-linecap="round"/>
<line x1="979.62" y1="976.41" x2="1001.79" y2="954.74" stroke="#D32F2F" stroke-width="8.00" stroke-linecap="round"/>
<line x1="1019.75" y1="926.41" x2="989.87" y2="931.93" stroke="#D32F2F" stroke-width="8.00" stroke-linecap="round"/>
<line x1="969.68" y1="955.04" x2="989.87" y2="931.93" stroke="#D32F2F" stroke-width="8.00" stroke-linecap="round"/>
<line x1="1004.96" y1="903.28" x2="975.69" y2="912.17" stroke="#D32F2F" stroke-width="7.76" stroke-linecap="round"/>
<line x1="957.59" y1="936.14" x2="975.69" y2="912.17" stroke="#D32F2F" stroke-width="8.00" stroke-linecap="round"/>
<line x1="988.01" y1="884.34" x2="959.66" y2="896.45" stroke="#D32F2F" stroke-width="6.87" stroke-linecap="round"/>
<line x1="943.69" y1="920.63" x2="959.66" y2="896.45" stroke="#D32F2F" stroke-width="8.00" stroke-linecap="round"/>
<line x1="969.50" y1="870.49" x2="942.37" y2="885.53" stroke="#D32F2F" stroke-width="5.90" stroke-linecap="round"/>
<line x1="928.51" y1="909.26" x2="942.37" y2="885.53" stroke="#D32F2F" stroke-width="8.00" stroke-linecap="round"/>
<line x1="950.16" y1="862.25" x2="924.51" y2="879.81" stroke="#D32F2F" stroke-width="4.89" stroke-linecap="round"/>
<line x1="912.65" y1="902.50" x2="924.51" y2="879.81" stroke="#D32F2F" stroke-width="8.00" stroke-linecap="round"/>
<line x1="930.70" y1="859.74" x2="906.73" y2="879.33" stroke="#D32F2F" stroke-width="5.11" stroke-linecap="round"/>
<line x1="896.76" y1="900.45" x2="906.73" y2="879.33" stroke="#D32F2F" stroke-width="8.00" stroke-linecap="round"/>
<line x1="911.79" y1="862.69" x2="889.63" y2="883.75" stroke="#D32F2F" stroke-width="5.61" stroke-linecap="round"/>
<line x1="881.36" y1="902.85" x2="889.63" y2="883.75" stroke="#D32F2F" stroke-width="8.00" stroke-linecap="round"/>
<line x1="893.94" y1="870.52" x2="873.63" y2="892.49" stroke="#D32F2F" stroke-width="6.21" stroke-linecap="round"/>
<line x1="866.88" y1="909.21" x2="873.63" y2="892.49" stroke="#D32F2F" stroke-width="8.00" stroke-linecap="round"/>
<line x1="877.53" y1="882.48" x2="859.04" y2="904.83" stroke="#D32F2F" stroke-width="6.84" stroke-linecap="round"/>
<line x1="853.56" y1="918.91" x2="859.04" y2="904.83" stroke="#D32F2F" stroke-width="8.00" stroke-linecap="round"/>
<line x1="841.57" y1="931.36" x2="846.04" y2="920.06" stroke="#D32F2F" stroke-width="8.00" stroke-linecap="round"/>
<line x1="1161.71" y1="805.56" x2="1191.08" y2="815.20" stroke="#D32F2F" stroke-width="4.95" stroke-linecap="round"/>
<line x1="1178.61" y1="814.46" x2="1207.08" y2="824.93" stroke="#D32F2F" stroke-width="5.92" stroke-linecap="round"/>
<line x1="1223.21" y1="830.30" x2="1207.08" y2="824.93" stroke="#D32F2F" stroke-width="8.00" stroke-linecap="round"/>
<line x1="1197.11" y1="828.31" x2="1224.38" y2="839.10" stroke="#D32F2F" stroke-width="6.89" stroke-linecap="round"/>
<line x1="1238.39" y1="841.66" x2="1224.38" y2="839.10" stroke="#D32F2F" stroke-width="8.00" stroke-linecap="round"/>
<line x1="1216.51" y1="846.59" x2="1242.31" y2="857.12" stroke="#D32F2F" stroke-width="7.79" stroke-linecap="round"/>
<line x1="1254.29" y1="856.64" x2="1242.31" y2="857.12" stroke="#D32F2F" stroke-width="8.00" stroke-linecap="round"/>
<line x1="1236.07" y1="868.44" x2="1260.20" y2="878.16" stroke="#D32F2F" stroke-width="8.00" stroke-linecap="round"/>
<line x1="1270.27" y1="874.50" x2="1260.20" y2="878.16" stroke="#D32F2F" stroke-width="8.00" stroke-linecap="round"/>
<line x1="1255.13" y1="892.86" x2="1277.45" y2="901.27" stroke="#D32F2F" stroke-width="8.00" stroke-linecap="round"/>
<line x1="1285.79" y1="894.37" x2="1277.45" y2="901.27" stroke="#D32F2F" stroke-width="8.00" stroke-linecap="round"/>
<line x1="1273.17" y1="918.82" x2="1293.63" y2="925.50" stroke="#D32F2F" stroke-width="8.00" stroke-linecap="round"/>
<line x1="1300.42" y1="915.44" x2="1293.63" y2="925.50" stroke="#D32F2F" stroke-width="8.00" stroke-linecap="round"/>
<line x1="1289.79" y1="945.39" x2="1308.42" y2="950.09" stroke="#D32F2F" stroke-width="8.00" stroke-linecap="round"/>
<line x1="1313.91" y1="936.99" x2="1308.42" y2="950.09" stroke="#D32F2F" stroke-width="8.00" stroke-linecap="round"/>
<line x1="1304.75" y1="971.86" x2="1321.64" y2="974.46" stroke="#D32F2F" stroke-width="8.00" stroke-linecap="round"/>
<line x1="1326.09" y1="958.54" x2="1321.64" y2="974.46" stroke="#D32F2F" stroke-width="8.00" stroke-linecap="round"/>
<line x1="1317.90" y1="997.69" x2="1333.19" y2="998.23" stroke="#D32F2F" stroke-width="8.00" stroke-linecap="round"/>
<line x1="1336.90" y1="979.79" x2="1333.19" y2="998.23" stroke="#D32F2F" stroke-width="8.00" stroke-linecap="round"/>
<line x1="1329.16" y1="1022.56" x2="1343.02" y2="1021.21" stroke="#D32F2F" stroke-width="8.00" stroke-linecap="round"/>
<line x1="1346.32" y1="1000.61" x2="1343.02" y2="1021.21" stroke="#D32F2F" stroke-width="8.00" stroke-linecap="round"/>
<line x1="1338.51" y1="1046.33" x2="1351.11" y2="1043.34" stroke="#D32F2F" stroke-width="8.00" stroke-linecap="round"/>
<line x1="1354.32" y1="1020.95" x2="1351.11" y2="1043.34" stroke="#D32F2F" stroke-width="8.00" stroke-linecap="round"/>
<line x1="1345.95" y1="1068.96" x2="1357.45" y2="1064.67" stroke="#D32F2F" stroke-width="8.00" stroke-linecap="round"/>
<line x1="1360.88" y1="1040.90" x2="1357.45" y2="1064.67" stroke="#D32F2F" stroke-width="8.00" stroke-linecap="round"/>
<line x1="1351.51" y1="1090.53" x2="1362.02" y2="1085.30" stroke="#D32F2F" stroke-width="8.00" stroke-linecap="round"/>
<line x1="1365.94" y1="1060.56" x2="1362.02" y2="1085.30" stroke="#D32F2F" stroke-width="8.00" stroke-linecap="round"/>
<line x1="1355.19" y1="1111.18" x2="1364.78" y2="1105.38" stroke="#D32F2F" stroke-width="8.00" stroke-linecap="round"/>
<line x1="1369.41" y1="1080.06" x2="1364.78" y2="1105.38" stroke="#D32F2F" stroke-width="8.00" stroke-linecap="round"/>
<line x1="1357.00" y1="1131.07" x2="1365.70" y2="1125.08" stroke="#D32F2F" stroke-width="8.00" stroke-linecap="round"/>
<line x1="1371.18" y1="1099.57" x2="1365.70" y2="1125.08" stroke="#D32F2F" stroke-width="8.00" stroke-linecap="round"/>
<line x1="1356.94" y1="1150.37" x2="1364.69" y2="1144.58" stroke="#D32F2F" stroke-width="8.00" stroke-linecap="round"/>
<line x1="1371.11" y1="1119.25" x2="1364.69" y2="1144.58" stroke="#D32F2F" stroke-width="8.00" stroke-linecap="round"/>
<line x1="1354.96" y1="1169.28" x2="1361.66" y2="1164.04" stroke="#D32F2F" stroke-width="8.00" stroke-linecap="round"/>
<line x1="1369.01" y1="1139.26" x2="1361.66" y2="1164.04" stroke="#D32F2F" stroke-width="8.00" stroke-linecap="round"/>
<line x1="1351.02" y1="1187.94" x2="1356.49" y2="1183.61" stroke="#D32F2F" stroke-width="8.00" stroke-linecap="round"/>
<line x1="1364.68" y1="1159.74" x2="1356.49" y2="1183.61" stroke="#D32F2F" stroke-width="8.00" stroke-linecap="round"/>
<line x1="1345.03" y1="1206.51" x2="1349.04" y2="1203.41" stroke="#D32F2F" stroke-width="8.00" stroke-linecap="round"/>
<line x1="1160.07" y1="1362.42" x2="1136.52" y2="1369.47" stroke="#D32F2F" stroke-width="8.00" stroke-linecap="round"/>
<line x1="1135.50" y1="1365.49" x2="1109.67" y2="1371.40" stroke="#D32F2F" stroke-width="8.00" stroke-linecap="round"/>
<line x1="1102.11" y1="1374.02" x2="1109.67" y2="1371.40" stroke="#D32F2F" stroke-width="8.00" stroke-linecap="round"/>
<line x1="1112.96" y1="1364.79" x2="1085.29" y2="1369.17" stroke="#D32F2F" stroke-width="7.53" stroke-linecap="round"/>
<line x1="1074.52" y1="1373.16" x2="1085.29" y2="1369.17" stroke="#D32F2F" stroke-width="8.00" stroke-linecap="round"/>
<line x1="1093.13" y1="1360.62" x2="1064.08" y2="1363.15" stroke="#D32F2F" stroke-width="6.87" stroke-linecap="round"/>
<line x1="1050.17" y1="1368.04" x2="1064.08" y2="1363.15" stroke="#D32F2F" stroke-width="8.00" stroke-linecap="round"/>
<line x1="1076.41" y1="1353.47" x2="1046.44" y2="1353.91" stroke="#D32F2F" stroke-width="6.29" stroke-linecap="round"/>
<line x1="1029.56" y1="1359.23" x2="1046.44" y2="1353.91" stroke="#D32F2F" stroke-width="8.00" stroke-linecap="round"/>
<line x1="1062.89" y1="1343.87" x2="1032.44" y2="1342.05" stroke="#D32F2F" stroke-width="5.84" stroke-linecap="round"/>
<line x1="1012.89" y1="1347.39" x2="1032.44" y2="1342.05" stroke="#D32F2F" stroke-width="8.00" stroke-linecap="round"/>
<line x1="1052.47" y1="1332.30" x2="1021.95" y2="1328.14" stroke="#D32F2F" stroke-width="5.54" stroke-linecap="round"/>
<line x1="1000.09" y1="1333.19" x2="1021.95" y2="1328.14" stroke="#D32F2F" stroke-width="8.00" stroke-linecap="round"/>
<line x1="1044.88" y1="1319.15" x2="1014.64" y2="1312.65" stroke="#D32F2F" stroke-width="5.43" stroke-linecap="round"/>
<line x1="990.86" y1="1317.20" x2="1014.64" y2="1312.65" stroke="#D32F2F" stroke-width="8.00" stroke-linecap="round"/>
<line x1="1039.82" y1="1304.68" x2="1010.11" y2="1295.94" stroke="#D32F2F" stroke-width="6.12" stroke-linecap="round"/>
<line x1="984.80" y1="1299.91" x2="1010.11" y2="1295.94" stroke="#D32F2F" stroke-width="8.00" stroke-linecap="round"/>
<line x1="1036.94" y1="1289.06" x2="1007.93" y2="1278.26" stroke="#D32F2F" stroke-width="6.70" stroke-linecap="round"/>
<line x1="981.44" y1="1281.68" x2="1007.93" y2="1278.26" stroke="#D32F2F" stroke-width="8.00" stroke-linecap="round"/>
<line x1="1035.90" y1="1272.38" x2="1007.65" y2="1259.75" stroke="#D32F2F" stroke-width="7.18" stroke-linecap="round"/>
<line x1="980.26" y1="1262.75" x2="1007.65" y2="1259.75" stroke="#D32F2F" stroke-width="8.00" stroke-linecap="round"/>
<line x1="1036.39" y1="1254.64" x2="1008.84" y2="1240.50" stroke="#D32F2F" stroke-width="7.58" stroke-linecap="round"/>
<line x1="980.79" y1="1243.28" x2="1008.84" y2="1240.50" stroke="#D32F2F" stroke-width="8.00" stroke-linecap="round"/>
<line x1="1038.06" y1="1235.81" x2="1011.08" y2="1220.53" stroke="#D32F2F" stroke-width="7.95" stroke-linecap="round"/>
<line x1="982.56" y1="1223.36" x2="1011.08" y2="1220.53" stroke="#D32F2F" stroke-width="8.00" stroke-linecap="round"/>
<line x1="1040.60" y1="1215.85" x2="1013.98" y2="1199.82" stroke="#D32F2F" stroke-width="8.00" stroke-linecap="round"/>
<line x1="985.15" y1="1203.01" x2="1013.98" y2="1199.82" stroke="#D32F2F" stroke-width="8.00" stroke-linecap="round"/>
<line x1="1043.68" y1="1194.65" x2="1017.18" y2="1178.34" stroke="#D32F2F" stroke-width="8.00" stroke-linecap="round"/>
<line x1="988.16" y1="1182.22" x2="1017.18" y2="1178.34" stroke="#D32F2F" stroke-width="8.00" stroke-linecap="round"/>
<line x1="1046.93" y1="1172.14" x2="1020.32" y2="1156.03" stroke="#D32F2F" stroke-width="8.00" stroke-linecap="round"/>
<line x1="991.23" y1="1160.96" x2="1020.32" y2="1156.03" stroke="#D32F2F" stroke-width="8.00" stroke-linecap="round"/>
<line x1="1049.99" y1="1148.26" x2="1023.03" y2="1132.86" stroke="#D32F2F" stroke-width="8.00" stroke-linecap="round"/>
<line x1="994.03" y1="1139.20" x2="1023.03" y2="1132.86" stroke="#D32F2F" stroke-width="8.00" stroke-linecap="round"/>
<line x1="1052.47" y1="1122.97" x2="1024.98" y2="1108.79" stroke="#D32F2F" stroke-width="8.00" stroke-linecap="round"/>
<line x1="996.21" y1="1116.91" x2="1024.98" y2="1108.79" stroke="#D32F2F" stroke-width="8.00" stroke-linecap="round"/>
<line x1="1053.95" y1="1096.31" x2="1025.81" y2="1083.87" stroke="#D32F2F" stroke-width="8.00" stroke-linecap="round"/>
<line x1="997.48" y1="1094.08" x2="1025.81" y2="1083.87" stroke="#D32F2F" stroke-width="8.00" stroke-linecap="round"/>
<line x1="1053.99" y1="1068.40" x2="1025.17" y2="1058.20" stroke="#D32F2F" stroke-width="8.00" stroke-linecap="round"/>
<line x1="997.51" y1="1070.73" x2="1025.17" y2="1058.20" stroke="#D32F2F" stroke-width="8.00" stroke-linecap="round"/>
<line x1="1052.16" y1="1039.54" x2="1022.73" y2="1031.98" stroke="#D32F2F" stroke-width="8.00" stroke-linecap="round"/>
<line x1="996.01" y1="1046.99" x2="1022.73" y2="1031.98" stroke="#D32F2F" stroke-width="8.00" stroke-linecap="round"/>
<line x1="1048.07" y1="1010.16" x2="1018.16" y2="1005.60" stroke="#D32F2F" stroke-width="8.00" stroke-linecap="round"/>
<line x1="992.68" y1="1023.06" x2="1018.16" y2="1005.60" stroke="#D32F2F" stroke-width="8.00" stroke-linecap="round"/>
<line x1="1041.40" y1="980.92" x2="1011.23" y2="979.60" stroke="#D32F2F" stroke-width="8.00" stroke-linecap="round"/>
<line x1="987.27" y1="999.34" x2="1011.23" y2="979.60" stroke="#D32F2F" stroke-width="8.00" stroke-linecap="round"/>
<line x1="1031.97" y1="952.66" x2="1001.79" y2="954.74" stroke="#D32F2F" stroke-width="8.00" stroke-linecap="round"/>
<line x1="979.62" y1="976.41" x2="1001.79" y2="954.74" stroke="#D32F2F" stroke-width="8.00" stroke-linecap="round"/>
<line x1="1019.75" y1="926.41" x2="989.87" y2="931.93" stroke="#D32F2F" stroke-width="8.00" stroke-linecap="round"/>
<line x1="969.68" y1="955.04" x2="989.87" y2="931.93" stroke="#D32F2F" stroke-width="8.00" stroke-linecap="round"/>
<line x1="1004.96" y1="903.28" x2="975.69" y2="912.17" stroke="#D32F2F" stroke-width="7.76" stroke-linecap="round"/>
<line x1="957.59" y1="936.14" x2="975.69" y2="912.17" stroke="#D32F2F" stroke-width="8.00" stroke-linecap="round"/>
<line x1="988.01" y1="884.34" x2="959.66" y2="896.45" stroke="#D32F2F" stroke-width="6.87" stroke-linecap="round"/>
<line x1="943.69" y1="920.63" x2="959.66" y2="896.45" stroke="#D32F2F" stroke-width="8.00" stroke-linecap="round"/>
<line x1="969.50" y1="870.49" x2="942.37" y2="885.53" stroke="#D32F2F" stroke-width="5.90" stroke-linecap="round"/>
<line x1="928.51" y1="909.26" x2="942.37" y2="885.53" stroke="#D32F2F" stroke-width="8.00" stroke-linecap="round"/>
<line x1="950.16" y1="862.25" x2="924.51" y2="879.81" stroke="#D32F2F" stroke-width="4.89" stroke-linecap="round"/>
<line x1="912.65" y1="902.50" x2="924.51" y2="879.81" stroke="#D32F2F" stroke-width="8.00" stroke-linecap="round"/>
<line x1="930.70" y1="859.74" x2="906.73" y2="879.33" stroke="#D32F2F" stroke-width="5.11" stroke-linecap="round"/>
<line x1="896.76" y1="900.45" x2="906.73" y2="879.33" stroke="#D32F2F" stroke-width="8.00" stroke-linecap="round"/>
<line x1="911.79" y1="862.69" x2="889.63" y2="883.75" stroke="#D32F2F" stroke-width="5.61" stroke-linecap="round"/>
<line x1="881.36" y1="902.85" x2="889.63" y2="883.75" stroke="#D32F2F" stroke-width="8.00" stroke-linecap="round"/>
<line x1="893.94" y1="870.52" x2="873.63" y2="892.49" stroke="#D32F2F" stroke-width="6.21" stroke-linecap="round"/>
<line x1="866.88" y1="909.21" x2="873.63" y2="892.49" stroke="#D32F2F" stroke-width="8.00" stroke-linecap="round"/>
<line x1="877.53" y1="882.48" x2="859.04" y2="904.83" stroke="#D32F2F" stroke-width="6.84" stroke-linecap="round"/>
<line x1="853.56" y1="918.91" x2="859.04" y2="904.83" stroke="#D32F2F" stroke-width="8.00" stroke-linecap="round"/>
<line x1="841.57" y1="931.36" x2="846.04" y2="920.06" stroke="#D32F2F" stroke-width="8.00" stroke-linecap="round"/>
<circle cx="1084.59" cy="1084.59" r="290.0" fill="none" stroke="#ccc" stroke-width="0.5"/>
<line x1="585.41" y1="1218.34" x2="835.00" y2="1151.47" stroke="#A1A1AA" stroke-width="5" opacity="0.9"/>
<line x1="1232.25" y1="1195.14" x2="1379.91" y2="1305.69" stroke="#A1A1AA" stroke-width="5" opacity="0.9"/>
<line x1="1083.17" y1="824.96" x2="1081.76" y2="565.33" stroke="#A1A1AA" stroke-width="5" opacity="0.9"/>
<polygon points="789.27,863.49 810.07,869.07 800.48,881.88" fill="#A1A1AA" opacity="0.9"/>
<text x="1658.64" y="930.77" font-family="Palatino, 'Palatino Linotype', 'Book Antiqua', Georgia, serif" font-style="italic" font-size="52" fill="#A1A1AA" text-anchor="middle" dominant-baseline="middle" opacity="0.9">x</text>
<text x="1450.79" y="1358.75" font-family="Palatino, 'Palatino Linotype', 'Book Antiqua', Georgia, serif" font-style="italic" font-size="52" fill="#A1A1AA" text-anchor="middle" dominant-baseline="middle" opacity="0.9">y</text>
<text x="1081.33" y="487.45" font-family="Palatino, 'Palatino Linotype', 'Book Antiqua', Georgia, serif" font-style="italic" font-size="52" fill="#A1A1AA" text-anchor="middle" dominant-baseline="middle" opacity="0.9">z</text>
</svg>