<svg width="2169" height="2169" viewBox="0 0 2169.1789 2169.1789" xmlns="http://www.w3.org/2000/svg">
<line x1="959.02" y1="1229.59" x2="833.44" y2="1374.59" stroke="#A1A1AA" stroke-width="5" opacity="0.9"/>
<line x1="1308.41" y1="1019.59" x2="1532.24" y2="954.59" stroke="#A1A1AA" stroke-width="5" opacity="0.9"/>
<line x1="949.56" y1="842.00" x2="814.53" y2="599.41" stroke="#A1A1AA" stroke-width="5" opacity="0.9"/>
<circle cx="1084.59" cy="1084.59" r="290.0" fill="#FDFDF5"/>
<line x1="1325.33" y1="934.40" x2="1325.74" y2="926.31" stroke="#D32F2F" stroke-width="8.00" stroke-linecap="round"/>
<line x1="1335.53" y1="939.26" x2="1325.74" y2="926.31" stroke="#D32F2F" stroke-width="8.00" stroke-linecap="round"/>
<line x1="1312.80" y1="914.60" x2="1312.51" y2="907.12" stroke="#D32F2F" stroke-width="8.00" stroke-linecap="round"/>
<line x1="1298.42" y1="895.50" x2="1297.79" y2="889.11" stroke="#D32F2F" stroke-width="8.00" stroke-linecap="round"/>
<line x1="1282.21" y1="877.28" x2="1281.67" y2="872.36" stroke="#D32F2F" stroke-width="8.00" stroke-linecap="round"/>
<line x1="1264.21" y1="860.15" x2="1264.21" y2="857.03" stroke="#D32F2F" stroke-width="8.00" stroke-linecap="round"/>
<line x1="1077.36" y1="1373.05" x2="1056.14" y2="1373.12" stroke="#D32F2F" stroke-width="8.00" stroke-linecap="round"/>
<line x1="1044.93" y1="1369.11" x2="1026.45" y2="1368.31" stroke="#D32F2F" stroke-width="8.00" stroke-linecap="round"/>
<line x1="1013.30" y1="1361.83" x2="997.77" y2="1360.59" stroke="#D32F2F" stroke-width="8.00" stroke-linecap="round"/>
<line x1="983.28" y1="1351.79" x2="970.75" y2="1350.47" stroke="#D32F2F" stroke-width="8.00" stroke-linecap="round"/>
<line x1="955.43" y1="1339.59" x2="945.80" y2="1338.47" stroke="#D32F2F" stroke-width="8.00" stroke-linecap="round"/>
<line x1="930.06" y1="1325.72" x2="923.13" y2="1324.99" stroke="#D32F2F" stroke-width="8.00" stroke-linecap="round"/>
<line x1="907.31" y1="1310.60" x2="902.78" y2="1310.34" stroke="#D32F2F" stroke-width="8.00" stroke-linecap="round"/>
<line x1="887.17" y1="1294.54" x2="884.71" y2="1294.70" stroke="#D32F2F" stroke-width="8.00" stroke-linecap="round"/>
<line x1="837.23" y1="935.02" x2="852.71" y2="910.80" stroke="#D32F2F" stroke-width="7.10" stroke-linecap="round"/>
<line x1="876.38" y1="882.98" x2="867.57" y2="895.82" stroke="#D32F2F" stroke-width="8.00" stroke-linecap="round"/>
<line x1="850.14" y1="920.11" x2="867.57" y2="895.82" stroke="#D32F2F" stroke-width="6.30" stroke-linecap="round"/>
<line x1="893.32" y1="870.16" x2="883.36" y2="885.86" stroke="#D32F2F" stroke-width="8.00" stroke-linecap="round"/>
<line x1="864.03" y1="909.60" x2="883.36" y2="885.86" stroke="#D32F2F" stroke-width="5.57" stroke-linecap="round"/>
<line x1="910.78" y1="863.01" x2="899.43" y2="881.12" stroke="#D32F2F" stroke-width="8.00" stroke-linecap="round"/>
<line x1="878.29" y1="903.75" x2="899.43" y2="881.12" stroke="#D32F2F" stroke-width="4.94" stroke-linecap="round"/>
<line x1="928.06" y1="861.40" x2="915.14" y2="881.42" stroke="#D32F2F" stroke-width="8.00" stroke-linecap="round"/>
<line x1="892.36" y1="902.44" x2="915.14" y2="881.42" stroke="#D32F2F" stroke-width="4.93" stroke-linecap="round"/>
<line x1="944.59" y1="864.91" x2="930.01" y2="886.27" stroke="#D32F2F" stroke-width="8.00" stroke-linecap="round"/>
<line x1="905.77" y1="905.29" x2="930.01" y2="886.27" stroke="#D32F2F" stroke-width="5.90" stroke-linecap="round"/>
<line x1="959.97" y1="872.88" x2="943.74" y2="895.05" stroke="#D32F2F" stroke-width="8.00" stroke-linecap="round"/>
<line x1="918.24" y1="911.76" x2="943.74" y2="895.05" stroke="#D32F2F" stroke-width="6.77" stroke-linecap="round"/>
<line x1="973.95" y1="884.56" x2="956.17" y2="907.09" stroke="#D32F2F" stroke-width="8.00" stroke-linecap="round"/>
<line x1="929.63" y1="921.27" x2="956.17" y2="907.09" stroke="#D32F2F" stroke-width="7.52" stroke-linecap="round"/>
<line x1="986.50" y1="899.20" x2="967.32" y2="921.73" stroke="#D32F2F" stroke-width="8.00" stroke-linecap="round"/>
<line x1="939.95" y1="933.31" x2="967.32" y2="921.73" stroke="#D32F2F" stroke-width="8.00" stroke-linecap="round"/>
<line x1="997.69" y1="916.09" x2="977.34" y2="938.40" stroke="#D32F2F" stroke-width="8.00" stroke-linecap="round"/>
<line x1="949.31" y1="947.45" x2="977.34" y2="938.40" stroke="#D32F2F" stroke-width="8.00" stroke-linecap="round"/>
<line x1="1007.71" y1="934.65" x2="986.44" y2="956.64" stroke="#D32F2F" stroke-width="8.00" stroke-linecap="round"/>
<line x1="957.89" y1="963.35" x2="986.44" y2="956.64" stroke="#D32F2F" stroke-width="8.00" stroke-linecap="round"/>
<line x1="1016.81" y1="954.36" x2="994.87" y2="976.05" stroke="#D32F2F" stroke-width="8.00" stroke-linecap="round"/>
<line x1="965.91" y1="980.72" x2="994.87" y2="976.05" stroke="#D32F2F" stroke-width="8.00" stroke-linecap="round"/>
<line x1="1025.28" y1="974.82" x2="1002.94" y2="996.32" stroke="#D32F2F" stroke-width="8.00" stroke-linecap="round"/>
<line x1="973.63" y1="999.37" x2="1002.94" y2="996.32" stroke="#D32F2F" stroke-width="8.00" stroke-linecap="round"/>
<line x1="1033.44" y1="995.72" x2="1010.95" y2="1017.19" stroke="#D32F2F" stroke-width="8.00" stroke-linecap="round"/>
<line x1="981.34" y1="1019.12" x2="1010.95" y2="1017.19" stroke="#D32F2F" stroke-width="8.00" stroke-linecap="round"/>
<line x1="1041.59" y1="1016.81" x2="1019.23" y2="1038.46" stroke="#D32F2F" stroke-width="8.00" stroke-linecap="round"/>
<line x1="989.33" y1="1039.80" x2="1019.23" y2="1038.46" stroke="#D32F2F" stroke-width="8.00" stroke-linecap="round"/>
<line x1="1050.04" y1="1037.86" x2="1028.10" y2="1059.92" stroke="#D32F2F" stroke-width="8.00" stroke-linecap="round"/>
<line x1="997.95" y1="1061.26" x2="1028.10" y2="1059.92" stroke="#D32F2F" stroke-width="8.00" stroke-linecap="round"/>
<line x1="1059.09" y1="1058.70" x2="1037.87" y2="1081.41" stroke="#D32F2F" stroke-width="8.00" stroke-linecap="round"/>
<line x1="1007.53" y1="1083.33" x2="1037.87" y2="1081.41" stroke="#D32F2F" stroke-width="8.00" stroke-linecap="round"/>
<line x1="1069.04" y1="1079.16" x2="1048.87" y2="1102.72" stroke="#D32F2F" stroke-width="8.00" stroke-linecap="round"/>
<line x1="1018.45" y1="1105.78" x2="1048.87" y2="1102.72" stroke="#D32F2F" stroke-width="8.00" stroke-linecap="round"/>
<line x1="1080.16" y1="1099.07" x2="1061.41" y2="1123.63" stroke="#D32F2F" stroke-width="8.00" stroke-linecap="round"/>
<line x1="1031.08" y1="1128.36" x2="1061.41" y2="1123.63" stroke="#D32F2F" stroke-width="8.00" stroke-linecap="round"/>
<line x1="1092.74" y1="1118.21" x2="1075.77" y2="1143.87" stroke="#D32F2F" stroke-width="8.00" stroke-linecap="round"/>
<line x1="1045.77" y1="1150.72" x2="1075.77" y2="1143.87" stroke="#D32F2F" stroke-width="8.00" stroke-linecap="round"/>
<line x1="1107.01" y1="1136.36" x2="1092.22" y2="1163.09" stroke="#D32F2F" stroke-width="8.00" stroke-linecap="round"/>
<line x1="1062.83" y1="1172.40" x2="1092.22" y2="1163.09" stroke="#D32F2F" stroke-width="8.00" stroke-linecap="round"/>
<line x1="1123.20" y1="1153.17" x2="1110.93" y2="1180.84" stroke="#D32F2F" stroke-width="8.00" stroke-linecap="round"/>
<line x1="1082.51" y1="1192.84" x2="1110.93" y2="1180.84" stroke="#D32F2F" stroke-width="8.00" stroke-linecap="round"/>
<line x1="1141.43" y1="1168.26" x2="1131.97" y2="1196.56" stroke="#D32F2F" stroke-width="8.00" stroke-linecap="round"/>
<line x1="1104.90" y1="1211.36" x2="1131.97" y2="1196.56" stroke="#D32F2F" stroke-width="8.00" stroke-linecap="round"/>
<line x1="1161.71" y1="1181.09" x2="1155.26" y2="1209.61" stroke="#D32F2F" stroke-width="8.00" stroke-linecap="round"/>
<line x1="1129.91" y1="1227.18" x2="1155.26" y2="1209.61" stroke="#D32F2F" stroke-width="7.98" stroke-linecap="round"/>
<line x1="1183.87" y1="1191.05" x2="1180.47" y2="1219.27" stroke="#D32F2F" stroke-width="8.00" stroke-linecap="round"/>
<line x1="1157.21" y1="1239.46" x2="1180.47" y2="1219.27" stroke="#D32F2F" stroke-width="7.54" stroke-linecap="round"/>
<line x1="1207.46" y1="1197.50" x2="1207.04" y2="1224.83" stroke="#D32F2F" stroke-width="8.00" stroke-linecap="round"/>
<line x1="1186.20" y1="1247.38" x2="1207.04" y2="1224.83" stroke="#D32F2F" stroke-width="7.23" stroke-linecap="round"/>
<line x1="1231.80" y1="1199.85" x2="1234.11" y2="1225.71" stroke="#D32F2F" stroke-width="8.00" stroke-linecap="round"/>
<line x1="1215.98" y1="1250.27" x2="1234.11" y2="1225.71" stroke="#D32F2F" stroke-width="7.07" stroke-linecap="round"/>
<line x1="1255.98" y1="1197.73" x2="1260.68" y2="1221.56" stroke="#D32F2F" stroke-width="8.00" stroke-linecap="round"/>
<line x1="1245.49" y1="1247.67" x2="1260.68" y2="1221.56" stroke="#D32F2F" stroke-width="7.06" stroke-linecap="round"/>
<line x1="1279.00" y1="1191.05" x2="1285.65" y2="1212.38" stroke="#D32F2F" stroke-width="8.00" stroke-linecap="round"/>
<line x1="1273.54" y1="1239.53" x2="1285.65" y2="1212.38" stroke="#D32F2F" stroke-width="7.21" stroke-linecap="round"/>
<line x1="1299.91" y1="1180.08" x2="1308.06" y2="1198.54" stroke="#D32F2F" stroke-width="8.00" stroke-linecap="round"/>
<line x1="1299.05" y1="1226.14" x2="1308.06" y2="1198.54" stroke="#D32F2F" stroke-width="7.48" stroke-linecap="round"/>
<line x1="1317.99" y1="1165.40" x2="1327.16" y2="1180.73" stroke="#D32F2F" stroke-width="8.00" stroke-linecap="round"/>
<line x1="1321.18" y1="1208.18" x2="1327.16" y2="1180.73" stroke="#D32F2F" stroke-width="7.86" stroke-linecap="round"/>
<line x1="1332.80" y1="1147.80" x2="1342.53" y2="1159.82" stroke="#D32F2F" stroke-width="8.00" stroke-linecap="round"/>
<line x1="1339.37" y1="1186.56" x2="1342.53" y2="1159.82" stroke="#D32F2F" stroke-width="8.00" stroke-linecap="round"/>
<line x1="1344.21" y1="1128.09" x2="1354.06" y2="1136.74" stroke="#D32F2F" stroke-width="8.00" stroke-linecap="round"/>
<line x1="1353.43" y1="1162.27" x2="1354.06" y2="1136.74" stroke="#D32F2F" stroke-width="8.00" stroke-linecap="round"/>
<line x1="1352.30" y1="1107.02" x2="1361.87" y2="1112.34" stroke="#D32F2F" stroke-width="8.00" stroke-linecap="round"/>
<line x1="1363.41" y1="1136.29" x2="1361.87" y2="1112.34" stroke="#D32F2F" stroke-width="8.00" stroke-linecap="round"/>
<line x1="1357.30" y1="1085.19" x2="1366.23" y2="1087.34" stroke="#D32F2F" stroke-width="8.00" stroke-linecap="round"/>
<line x1="1369.55" y1="1109.48" x2="1366.23" y2="1087.34" stroke="#D32F2F" stroke-width="8.00" stroke-linecap="round"/>
<line x1="1359.49" y1="1063.03" x2="1367.46" y2="1062.30" stroke="#D32F2F" stroke-width="8.00" stroke-linecap="round"/>
<line x1="1372.21" y1="1082.55" x2="1367.46" y2="1062.30" stroke="#D32F2F" stroke-width="8.00" stroke-linecap="round"/>
<line x1="1359.13" y1="1040.85" x2="1365.90" y2="1037.61" stroke="#D32F2F" stroke-width="8.00" stroke-linecap="round"/>
<line x1="1371.79" y1="1056.04" x2="1365.90" y2="1037.61" stroke="#D32F2F" stroke-width="8.00" stroke-linecap="round"/>
<line x1="1356.45" y1="1018.83" x2="1361.87" y2="1013.54" stroke="#D32F2F" stroke-width="8.00" stroke-linecap="round"/>
<line x1="1368.66" y1="1030.32" x2="1361.87" y2="1013.54" stroke="#D32F2F" stroke-width="8.00" stroke-linecap="round"/>
<line x1="1351.63" y1="997.09" x2="1355.64" y2="990.28" stroke="#D32F2F" stroke-width="8.00" stroke-linecap="round"/>
<line x1="1363.20" y1="1005.66" x2="1355.64" y2="990.28" stroke="#D32F2F" stroke-width="8.00" stroke-linecap="round"/>
<line x1="1344.78" y1="975.73" x2="1347.43" y2="967.94" stroke="#D32F2F" stroke-width="8.00" stroke-linecap="round"/>
<line x1="1355.69" y1="982.22" x2="1347.43" y2="967.94" stroke="#D32F2F" stroke-width="8.00" stroke-linecap="round"/>
<line x1="1336.00" y1="954.81" x2="1337.42" y2="946.60" stroke="#D32F2F" stroke-width="8.00" stroke-linecap="round"/>
<line x1="1346.40" y1="960.07" x2="1337.42" y2="946.60" stroke="#D32F2F" stroke-width="8.00" stroke-linecap="round"/>
<line x1="1325.33" y1="934.40" x2="1325.74" y2="926.31" stroke="#D32F2F" stroke-width="8.00" stroke-linecap="round"/>
<line x1="1335.53" y1="939.26" x2="1325.74" y2="926.31" stroke="#D32F2F" stroke-width="8.00" stroke-linecap="round"/>
<line x1="1312.80" y1="914.60" x2="1312.51" y2="907.12" stroke="#D32F2F" stroke-width="8.00" stroke-linecap="round"/>
<line x1="1298.42" y1="895.50" x2="1297.79" y2="889.11" stroke="#D32F2F" stroke-width="8.00" stroke-linecap="round"/>
<line x1="1282.21" y1="877.28" x2="1281.67" y2="872.36" stroke="#D32F2F" stroke-width="8.00" stroke-linecap="round"/>
<line x1="1264.21" y1="860.15" x2="1264.21" y2="857.03" stroke="#D32F2F" stroke-width="8.00" stroke-linecap="round"/>
<line x1="1077.36" y1="1373.05" x2="1056.14" y2="1373.12" stroke="#D32F2F" stroke-width="8.00" stroke-linecap="round"/>
<line x1="1044.93" y1="1369.11" x2="1026.45" y2="1368.31" stroke="#D32F2F" stroke-width="8.00" stroke-linecap="round"/>
<line x1="1013.30" y1="1361.83" x2="997.77" y2="1360.59" stroke="#D32F2F" stroke-width="8.00" stroke-linecap="round"/>
<line x1="983.28" y1="1351.79" x2="970.75" y2="1350.47" stroke="#D32F2F" stroke-width="8.00" stroke-linecap="round"/>
<line x1="955.43" y1="1339.59" x2="945.80" y2="1338.47" stroke="#D32F2F" stroke-width="8.00" stroke-linecap="round"/>
<line x1="930.06" y1="1325.72" x2="923.13" y2="1324.99" stroke="#D32F2F" stroke-width="8.00" stroke-linecap="round"/>
<line x1="907.31" y1="1310.60" x2="902.78" y2="1310.34" stroke="#D32F2F" stroke-width="8.00" stroke-linecap="round"/>
<line x1="887.17" y1="1294.54" x2="884.71" y2="1294.70" stroke="#D32F2F" stroke-width="8.00" stroke-linecap="round"/>
<line x1="837.23" y1="935.02" x2="852.71" y2="910.80" stroke="#D32F2F" stroke-width="7.10" stroke-linecap="round"/>
<line x1="876.38" y1="882.98" x2="867.57" y2="895.82" stroke="#D32F2F" stroke-width="8.00" stroke-linecap="round"/>
<line x1="850.14" y1="920.11" x2="867.57" y2="895.82" stroke="#D32F2F" stroke-width="6.30" stroke-linecap="round"/>
<line x1="893.32" y1="870.16" x2="883.36" y2="885.86" stroke="#D32F2F" stroke-width="8.00" stroke-linecap="round"/>
<line x1="864.03" y1="909.60" x2="883.36" y2="885.86" stroke="#D32F2F" stroke-width="5.57" stroke-linecap="round"/>
<line x1="910.78" y1="863.01" x2="899.43" y2="881.12" stroke="#D32F2F" stroke-width="8.00" stroke-linecap="round"/>
<line x1="878.29" y1="903.75" x2="899.43" y2="881.12" stroke="#D32F2F" stroke-width="4.94" stroke-linecap="round"/>
<line x1="928.06" y1="861.40" x2="915.14" y2="881.42" stroke="#D32F2F" stroke-width="8.00" stroke-linecap="round"/>
<line x1="892.36" y1="902.44" x2="915.14" y2="881.42" stroke="#D32F2F" stroke-width="4.93" stroke-linecap="round"/>
<line x1="944.59" y1="864.91" x2="930.01" y2="886.27" stroke="#D32F2F" stroke-width="8.00" stroke-linecap="round"/>
<line x1="905.77" y1="905.29" x2="930.01" y2="886.27" stroke="#D32F2F" stroke-width="5.90" stroke-linecap="round"/>
<line x1="959.97" y1="872.88" x2="943.74" y2="895.05" stroke="#D32F2F" stroke-width="8.00" stroke-linecap="round"/>
<line x1="918.24" y1="911.76" x2="943.74" y2="895.05" stroke="#D32F2F" stroke-width="6.77" stroke-linecap="round"/>
<line x1="973.95" y1="884.56" x2="956.17" y2="907.09" stroke="#D32F2F" stroke-width="8.00" stroke-linecap="round"/>
<line x1="929.63" y1="921.27" x2="956.17" y2="907.09" stroke="#D32F2F" stroke-width="7.52" stroke-linecap="round"/>
<line x1="986.50" y1="899.20" x2="967.32" y2="921.73" stroke="#D32F2F" stroke-width="8.00" stroke-linecap="round"/>
<line x1="939.95" y1="933.31" x2="967.32" y2="921.73" stroke="#D32F2F" stroke-width="8.00" stroke-linecap="round"/>
<line x1="997.69" y1="916.09" x2="977.34" y2="938.40" stroke="#D32F2F" stroke-width="8.00" stroke-linecap="round"/>
<line x1="949.31" y1="947.45" x2="977.34" y2="938.40" stroke="#D32F2F" stroke-width="8.00" stroke-linecap="round"/>
<line x1="1007.71" y1="934.65" x2="986.44" y2="956.64" stroke="#D32F2F" stroke-width="8.00" stroke-linecap="round"/>
<line x1="957.89" y1="963.35" x2="986.44" y2="956.64" stroke="#D32F2F" stroke-width="8.00" stroke-linecap="round"/>
<line x1="1016.81" y1="954.36" x2="994.87" y2="976.05" stroke="#D32F2F" stroke-width="8.00" stroke-linecap="round"/>
<line x1="965.91" y1="980.72" x2="994.87" y2="976.05" stroke="#D32F2F" stroke-width="8.00" stroke-linecap="round"/>
<line x1="1025.28" y1="974.82" x2="1002.94" y2="996.32" stroke="#D32F2F" stroke-width="8.00" stroke-linecap="round"/>
<line x1="973.63" y1="999.37" x2="1002.94" y2="996.32" stroke="#D32F2F" stroke-width="8.00" stroke-linecap="round"/>
<line x1="1033.44" y1="995.72" x2="1010.95" y2="1017.19" stroke="#D32F2F" stroke-width="8.00" stroke-linecap="round"/>
<line x1="981.34" y1="1019.12" x2="1010.95" y2="1017.19" stroke="#D32F2F" stroke-width="8.00" stroke-linecap="round"/>
<line x1="1041.59" y1="1016.81" x2="1019.23" y2="1038.46" stroke="#D32F2F" stroke-width="8.00" stroke-linecap="round"/>
<line x1="989.33" y1="1039.80" x2="1019.23" y2="1038.46" stroke="#D32F2F" stroke-width="8.00" stroke-linecap="round"/>
<line x1="1050.04" y1="1037.86" x2="1028.10" y2="1059.92" stroke="#D32F2F" stroke-width="8.00" stroke-linecap="round"/>
<line x1="997.95" y1="1061.26" x2="1028.10" y2="1059.92" stroke="#D32F2F" stroke-width="8.00" stroke-linecap="round"/>
<line x1="1059.09" y1="1058.70" x2="1037.87" y2="1081.41" stroke="#D32F2F" stroke-width="8.00" stroke-linecap="round"/>
<line x1="1007.53" y1="1083.33" x2="1037.87" y2="1081.41" stroke="#D32F2F" stroke-width="8.00" stroke-linecap="round"/>
<line x1="1069.04" y1="1079.16" x2="1048.87" y2="1102.72" stroke="#D32F2F" stroke-width="8.00" stroke-linecap="round"/>
<line x1="1018.45" y1="1105.78" x2="1048.87" y2="1102.72" stroke="#D32F2F" stroke-width="8.00" stroke-linecap="round"/>
<line x1="1080.16" y1="1099.07" x2="1061.41" y2="1123.63" stroke="#D32F2F" stroke-width="8.00" stroke-linecap="round"/>
<line x1="1031.08" y1="1128.36" x2="1061.41" y2="1123.63" stroke="#D32F2F" stroke-width="8.00" stroke-linecap="round"/>
<line x1="1092.74" y1="1118.21" x2="1075.77" y2="1143.87" stroke="#D32F2F" stroke-width="8.00" stroke-linecap="round"/>
<line x1="1045.77" y1="1150.72" x2="1075.77" y2="1143.87" stroke="#D32F2F" stroke-width="8.00" stroke-linecap="round"/>
<line x1="1107.01" y1="1136.36" x2="1092.22" y2="1163.09" stroke="#D32F2F" stroke-width="8.00" stroke-linecap="round"/>
<line x1="1062.83" y1="1172.40" x2="1092.22" y2="1163.09" stroke="#D32F2F" stroke-width="8.00" stroke-linecap="round"/>
<line x1="1123.20" y1="1153.17" x2="1110.93" y2="1180.84" stroke="#D32F2F" stroke-width="8.00" stroke-linecap="round"/>
<line x1="1082.51" y1="1192.84" x2="1110.93" y2="1180.84" stroke="#D32F2F" stroke-width="8.00" stroke-linecap="round"/>
<line x1="1141.43" y1="1168.26" x2="1131.97" y2="1196.56" stroke="#D32F2F" stroke-width="8.00" stroke-linecap="round"/>
<line x1="1104.90" y1="1211.36" x2="1131.97" y2="1196.56" stroke="#D32F2F" stroke-width="8.00" stroke-linecap="round"/>
<line x1="1161.71" y1="1181.09" x2="1155.26" y2="1209.61" stroke="#D32F2F" stroke-width="8.00" stroke-linecap="round"/>
<line x1="1129.91" y1="1227.18" x2="1155.26" y2="1209.61" stroke="#D32F2F" stroke-width="7.98" stroke-linecap="round"/>
<line x1="1183.87" y1="1191.05" x2="1180.47" y2="1219.27" stroke="#D32F2F" stroke-width="8.00" stroke-linecap="round"/>
<line x1="1157.21" y1="1239.46" x2="1180.47" y2="1219.27" stroke="#D32F2F" stroke-width="7.54" stroke-linecap="round"/>
<line x1="1207.46" y1="1197.50" x2="1207.04" y2="1224.83" stroke="#D32F2F" stroke-width="8.00" stroke-linecap="round"/>
<line x1="1186.20" y1="1247.38" x2="1207.04" y2="1224.83" stroke="#D32F2F" stroke-width="7.23" stroke-linecap="round"/>
<line x1="1231.80" y1="1199.85" x2="1234.11" y2="1225.71" stroke="#D32F2F" stroke-width="8.00" stroke-linecap="round"/>
<line x1="1215.98" y1="1250.27" x2="1234.11" y2="1225.71" stroke="#D32F2F" stroke-width="7.07" stroke-linecap="round"/>
<line x1="1255.98" y1="1197.73" x2="1260.68" y2="1221.56" stroke="#D32F2F" stroke-width="8.00" stroke-linecap="round"/>
<line x1="1245.49" y1="1247.67" x2="1260.68" y2="1221.56" stroke="#D32F2F" stroke-width="7.06" stroke-linecap="round"/>
<line x1="1279.00" y1="1191.05" x2="1285.65" y2="1212.38" stroke="#D32F2F" stroke-width="8.00" stroke-linecap="round"/>
<line x1="1273.54" y1="1239.53" x2="1285.65" y2="1212.38" stroke="#D32F2F" stroke-width="7.21" stroke-linecap="round"/>
<line x1="1299.91" y1="1180.08" x2="1308.06" y2="1198.54" stroke="#D32F2F" stroke-width="8.00" stroke-linecap="round"/>
<line x1="1299.05" y1="1226.14" x2="1308.06" y2="1198.54" stroke="#D32F2F" stroke-width="7.48" stroke-linecap="round"/>
<line x1="1317.99" y1="1165.40" x2="1327.16" y2="1180.73" stroke="#D32F2F" stroke-width="8.00" stroke-linecap="round"/>
<line x1="1321.18" y1="1208.18" x2="1327.16" y2="1180.73" stroke="#D32F2F" stroke-width="7.86" stroke-linecap="round"/>
<line x1="1332.80" y1="1147.80" x2="1342.53" y2="1159.82" stroke="#D32F2F" stroke-width="8.00" stroke-linecap="round"/>
<line x1="1339.37" y1="1186.56" x2="1342.53" y2="1159.82" stroke="#D32F2F" stroke-width="8.00" stroke-linecap="round"/>
<line x1="1344.21" y1="1128.09" x2="1354.06" y2="1136.74" stroke="#D32F2F" stroke-width="8.00" stroke-linecap="round"/>
<line x1="1353.43" y1="1162.27" x2="1354.06" y2="1136.74" stroke="#D32F2F" stroke-width="8.00" stroke-linecap="round"/>
<line x1="1352.30" y1="1107.02" x2="1361.87" y2="1112.34" stroke="#D32F2F" stroke-width="8.00" stroke-linecap="round"/>
<line x1="1363.41" y1="1136.29" x2="1361.87" y2="1112.34" stroke="#D32F2F" stroke-width="8.00" stroke-linecap="round"/>
<line x1="1357.30" y1="1085.19" x2="1366.23" y2="1087.34" stroke="#D32F2F" stroke-width="8.00" stroke-linecap="round"/>
<line x1="1369.55" y1="1109.48" x2="1366.23" y2="1087.34" stroke="#D32F2F" stroke-width="8.00" stroke-linecap="round"/>
<line x1="1359.49" y1="1063.03" x2="1367.46" y2="1062.30" stroke="#D32F2F" stroke-width="8.00" stroke-linecap="round"/>
<line x1="1372.21" y1="1082.55" x2="1367.46" y2="1062.30" stroke="#D32F2F" stroke-width="8.00" stroke-linecap="round"/>
<line x1="1359.13" y1="1040.85" x2="1365.90" y2="1037.61" stroke="#D32F2F" stroke-width="8.00" stroke-linecap="round"/>
<line x1="1371.79" y1="1056.04" x2="1365.90" y2="1037.61" stroke="#D32F2F" stroke-width="8.00" stroke-linecap="round"/>
<line x1="1356.45" y1="1018.83" x2="1361.87" y2="1013.54" stroke="#D32F2F" stroke-width="8.00" stroke-linecap="round"/>
<line x1="1368.66" y1="1030.32" x2="1361.87" y2="1013.54" stroke="#D32F2F" stroke-width="8.00" stroke-linecap="round"/>
<line x1="1351.63" y1="997.09" x2="1355.64" y2="990.28" stroke="#D32F2F" stroke-width="8.00" stroke-linecap="round"/>
<line x1="1363.20" y1="1005.66" x2="1355.64" y2="990.28" stroke="#D32F2F" stroke-width="8.00" stroke-linecap="round"/>
<line x1="1344.78" y1="975.73" x2="1347.43" y2="967.94" stroke="#D32F2F" stroke-width="8.00" stroke-linecap="round"/>
<line x1="1355.69" y1="982.22" x2="1347.43" y2="967.94" stroke="#D32F2F" stroke-width="8.00" stroke-linecap="round"/>
<line x1="1336.00" y1="954.81" x2="1337.42" y2="946.60" stroke="#D32F2F" stroke-width="8.00" stroke-linecap="round"/>
<line x1="1346.40" y1="960.07" x2="1337.42" y2="946.60" stroke="#D32F2F" stroke-width="8.00" stroke-linecap="round"/>
<circle cx="1084.59" cy="1084.59" r="290.0" fill="none" stroke="#ccc" stroke-width="0.5"/>
<line x1="1354.65" y1="1569.77" x2="1219.62" y2="1327.18" stroke="#A1A1AA" stroke-width="5" opacity="0.9"/>
<line x1="636.94" y1="1214.59" x2="860.76" y2="1149.59" stroke="#A1A1AA" stroke-width="5" opacity="0.9"/>
<line x1="1335.74" y1="794.59" x2="1210.16" y2="939.59" stroke="#A1A1AA" stroke-width="5" opacity="0.9"/>
<polygon points="1532.24,954.59 1515.26,967.85 1510.80,952.48" fill="#A1A1AA" opacity="0.9"/>
<polygon points="833.44,1374.59 840.49,1354.23 852.58,1364.71" fill="#A1A1AA" opacity="0.9"/>
<polygon points="814.53,599.41 831.24,612.99 817.26,620.78" fill="#A1A1AA" opacity="0.9"/>
<text x="1612.82" y="931.19" font-family="Palatino, 'Palatino Linotype', 'Book Antiqua', Georgia, serif" font-style="italic" font-size="52" fill="#A1A1AA" text-anchor="middle" dominant-baseline="middle" opacity="0.9">x</text>
<text x="788.24" y="1426.79" font-family="Palatino, 'Palatino Linotype', 'Book Antiqua', Georgia, serif" font-style="italic" font-size="52" fill="#A1A1AA" text-anchor="middle" dominant-baseline="middle" opacity="0.9">y</text>
<text x="765.92" y="512.08" font-family="Palatino, 'Palatino Linotype', 'Book Antiqua', Georgia, serif" font-style="italic" font-size="52" fill="#A1A1AA" text-anchor="middle" dominant-baseline="middle" opacity="0.9">z</text>
<polyline points="1363.23,1435.11 1364.42,1436.35 1365.21,1437.82 1365.61,1439.50 1365.60,1441.38 1365.20,1443.46 1364.40,1445.72 1363.20,1448.15 1361.62,1450.72 1359.66,1453.43 1357.34,1456.27 1354.67,1459.20 1351.67,1462.22 1348.35,1465.30 1344.74,1468.42 1340.85,1471.58 1336.72,1474.74 1332.36,1477.89 1327.81,1481.00 1323.10,1484.07 1318.24,1487.06 1313.27,1489.97 1308.23,1492.77 1303.14,1495.45 1298.04,1497.99 1292.95,1500.37 1287.91,1502.58 1282.94,1504.61 1278.09,1506.44 1273.37,1508.06 1268.83,1509.47 1264.48,1510.65 1260.35,1511.59 1256.47,1512.30 1252.86,1512.76 1249.55,1512.97 1246.55,1512.94 1243.89,1512.66 1241.57,1512.13 1239.62,1511.36 1238.05,1510.35 1236.86,1509.11 1236.07,1507.65 1235.67,1505.97 1235.68,1504.08 1236.08,1502.00 1236.88,1499.75 1238.08,1497.32 1239.66,1494.74 1241.62,1492.03 1243.94,1489.20 1246.61,1486.27 1249.61,1483.25 1252.93,1480.17 1256.54,1477.04 1260.43,1473.89 1264.56,1470.73 1268.91,1467.58 1273.47,1464.46 1278.18,1461.40 1283.04,1458.40" fill="none" stroke="#A1A1AA" stroke-width="2.2" stroke-linecap="round" stroke-linejoin="round" opacity="0.85"/>
<polygon points="1283.04,1458.40 1277.15,1467.91 1271.90,1459.40" fill="#A1A1AA" opacity="0.85"/>
<text x="1249.74" y="1531.51" font-family="Palatino, 'Palatino Linotype', 'Book Antiqua', Georgia, serif" font-style="italic" font-size="28" fill="#A1A1AA" text-anchor="middle" dominant-baseline="middle" opacity="0.85">yaw</text>
<polyline points="773.15,1206.07 772.88,1200.57 772.31,1195.00 771.47,1189.38 770.34,1183.76 768.95,1178.17 767.29,1172.65 765.39,1167.22 763.24,1161.92 760.87,1156.79 758.28,1151.86 755.50,1147.15 752.54,1142.70 749.42,1138.53 746.15,1134.67 742.77,1131.14 739.28,1127.96 735.72,1125.16 732.10,1122.75 728.44,1120.75 724.77,1119.16 721.12,1118.00 717.49,1117.28 713.92,1117.00 710.43,1117.16 707.04,1117.76 703.77,1118.79 700.63,1120.26 697.66,1122.15 694.86,1124.44 692.26,1127.14 689.87,1130.21 687.71,1133.64 685.78,1137.41 684.10,1141.50 682.69,1145.87 681.55,1150.51 680.68,1155.39 680.10,1160.46 679.80,1165.72 679.79,1171.11 680.06,1176.61 680.63,1182.19 681.47,1187.80 682.59,1193.42 683.99,1199.01 685.64,1204.54 687.55,1209.96 689.70,1215.26 692.07,1220.39 694.66,1225.33 697.44,1230.03 700.40,1234.49 703.52,1238.66 706.78,1242.52 710.17,1246.05 713.65,1249.22 717.22,1252.02 720.84,1254.43 724.50,1256.44 728.16,1258.02" fill="none" stroke="#A1A1AA" stroke-width="2.2" stroke-linecap="round" stroke-linejoin="round" opacity="0.85"/>
<polygon points="728.16,1258.02 717.00,1258.64 720.97,1249.47" fill="#A1A1AA" opacity="0.85"/>
<text x="671.74" y="1090.26" font-family="Palatino, 'Palatino Linotype', 'Book Antiqua', Georgia, serif" font-style="italic" font-size="28" fill="#A1A1AA" text-anchor="middle" dominant-baseline="middle" opacity="0.85">pitch</text>
<polyline points="1349.79,884.40 1350.84,879.98 1351.49,875.39 1351.73,870.66 1351.56,865.82 1350.98,860.89 1350.01,855.92 1348.63,850.92 1346.86,845.94 1344.72,840.99 1342.21,836.12 1339.35,831.35 1336.16,826.71 1332.66,822.23 1328.86,817.94 1324.80,813.86 1320.50,810.02 1315.98,806.44 1311.27,803.14 1306.41,800.16 1301.41,797.49 1296.32,795.16 1291.16,793.19 1285.97,791.59 1280.77,790.36 1275.60,789.51 1270.50,789.05 1265.48,788.99 1260.59,789.31 1255.85,790.03 1251.30,791.13 1246.96,792.61 1242.85,794.47 1239.01,796.68 1235.45,799.23 1232.20,802.11 1229.29,805.31 1226.71,808.79 1224.50,812.55 1222.67,816.55 1221.22,820.78 1220.17,825.20 1219.53,829.79 1219.29,834.52 1219.46,839.36 1220.03,844.28 1221.01,849.26 1222.39,854.25 1224.15,859.24 1226.30,864.18 1228.80,869.06 1231.66,873.83 1234.85,878.47 1238.36,882.95 1242.15,887.24 1246.21,891.32 1250.52,895.16 1255.03,898.74 1259.74,902.03 1264.61,905.02 1269.60,907.69" fill="none" stroke="#A1A1AA" stroke-width="2.2" stroke-linecap="round" stroke-linejoin="round" opacity="0.85"/>
<polygon points="1269.60,907.69 1258.42,907.39 1263.13,898.57" fill="#A1A1AA" opacity="0.85"/>
<text x="1230.77" y="754.26" font-family="Palatino, 'Palatino Linotype', 'Book Antiqua', Georgia, serif" font-style="italic" font-size="28" fill="#A1A1AA" text-anchor="middle" dominant-baseline="middle" opacity="0.85">roll</text>
</svg>