<svg width="2169" height="2169" viewBox="0 0 2169.1789 2169.1789" xmlns="http://www.w3.org/2000/svg">
<line x1="1012.09" y1="1009.53" x2="939.59" y2="934.47" stroke="#A1A1AA" stroke-width="5" opacity="0.9"/>
<line x1="1350.14" y1="1157.09" x2="1615.68" y2="1229.59" stroke="#A1A1AA" stroke-width="5" opacity="0.9"/>
<line x1="902.06" y1="1625.74" x2="993.33" y2="1355.16" stroke="#A1A1AA" stroke-width="5" opacity="0.9"/>
<circle cx="1084.59" cy="1084.59" r="290.0" fill="#FDFDF5"/>
<line x1="1307.79" y1="1192.10" x2="1326.34" y2="1178.13" stroke="#D32F2F" stroke-width="8.00" stroke-linecap="round"/>
<line x1="1337.09" y1="1184.72" x2="1326.34" y2="1178.13" stroke="#D32F2F" stroke-width="8.00" stroke-linecap="round"/>
<line x1="1312.97" y1="1169.79" x2="1330.75" y2="1155.61" stroke="#D32F2F" stroke-width="8.00" stroke-linecap="round"/>
<line x1="1342.18" y1="1162.82" x2="1330.75" y2="1155.61" stroke="#D32F2F" stroke-width="8.00" stroke-linecap="round"/>
<line x1="1316.79" y1="1146.32" x2="1333.81" y2="1132.47" stroke="#D32F2F" stroke-width="8.00" stroke-linecap="round"/>
<line x1="1345.79" y1="1140.66" x2="1333.81" y2="1132.47" stroke="#D32F2F" stroke-width="8.00" stroke-linecap="round"/>
<line x1="1319.34" y1="1121.69" x2="1335.66" y2="1108.69" stroke="#D32F2F" stroke-width="8.00" stroke-linecap="round"/>
<line x1="1348.12" y1="1118.22" x2="1335.66" y2="1108.69" stroke="#D32F2F" stroke-width="8.00" stroke-linecap="round"/>
<line x1="1320.71" y1="1095.92" x2="1336.41" y2="1084.32" stroke="#D32F2F" stroke-width="8.00" stroke-linecap="round"/>
<line x1="1349.33" y1="1095.50" x2="1336.41" y2="1084.32" stroke="#D32F2F" stroke-width="8.00" stroke-linecap="round"/>
<line x1="1320.94" y1="1069.10" x2="1336.15" y2="1059.42" stroke="#D32F2F" stroke-width="8.00" stroke-linecap="round"/>
<line x1="1349.53" y1="1072.54" x2="1336.15" y2="1059.42" stroke="#D32F2F" stroke-width="8.00" stroke-linecap="round"/>
<line x1="1320.06" y1="1041.45" x2="1334.92" y2="1034.15" stroke="#D32F2F" stroke-width="8.00" stroke-linecap="round"/>
<line x1="1348.80" y1="1049.41" x2="1334.92" y2="1034.15" stroke="#D32F2F" stroke-width="8.00" stroke-linecap="round"/>
<line x1="1318.10" y1="1013.31" x2="1332.73" y2="1008.78" stroke="#D32F2F" stroke-width="8.00" stroke-linecap="round"/>
<line x1="1347.18" y1="1026.26" x2="1332.73" y2="1008.78" stroke="#D32F2F" stroke-width="8.00" stroke-linecap="round"/>
<line x1="1315.03" y1="985.20" x2="1329.57" y2="983.74" stroke="#D32F2F" stroke-width="8.00" stroke-linecap="round"/>
<line x1="1344.68" y1="1003.36" x2="1329.57" y2="983.74" stroke="#D32F2F" stroke-width="8.00" stroke-linecap="round"/>
<line x1="1310.84" y1="957.80" x2="1325.41" y2="959.61" stroke="#D32F2F" stroke-width="8.00" stroke-linecap="round"/>
<line x1="1341.29" y1="981.14" x2="1325.41" y2="959.61" stroke="#D32F2F" stroke-width="7.94" stroke-linecap="round"/>
<line x1="1305.51" y1="932.01" x2="1320.22" y2="937.18" stroke="#D32F2F" stroke-width="8.00" stroke-linecap="round"/>
<line x1="1336.96" y1="960.21" x2="1320.22" y2="937.18" stroke="#D32F2F" stroke-width="7.13" stroke-linecap="round"/>
<line x1="1299.03" y1="908.84" x2="1314.01" y2="917.35" stroke="#D32F2F" stroke-width="8.00" stroke-linecap="round"/>
<line x1="1331.69" y1="941.36" x2="1314.01" y2="917.35" stroke="#D32F2F" stroke-width="6.23" stroke-linecap="round"/>
<line x1="1291.49" y1="889.37" x2="1306.85" y2="901.08" stroke="#D32F2F" stroke-width="8.00" stroke-linecap="round"/>
<line x1="1325.52" y1="925.44" x2="1306.85" y2="901.08" stroke="#D32F2F" stroke-width="5.29" stroke-linecap="round"/>
<line x1="1283.04" y1="874.56" x2="1298.91" y2="889.24" stroke="#D32F2F" stroke-width="8.00" stroke-linecap="round"/>
<line x1="1318.60" y1="913.31" x2="1298.91" y2="889.24" stroke="#D32F2F" stroke-width="4.35" stroke-linecap="round"/>
<line x1="1025.17" y1="800.74" x2="1005.31" y2="806.68" stroke="#D32F2F" stroke-width="8.00" stroke-linecap="round"/>
<line x1="976.07" y1="816.97" x2="1005.31" y2="806.68" stroke="#D32F2F" stroke-width="4.72" stroke-linecap="round"/>
<line x1="1039.51" y1="800.06" x2="1017.63" y2="807.66" stroke="#D32F2F" stroke-width="8.00" stroke-linecap="round"/>
<line x1="987.79" y1="816.42" x2="1017.63" y2="807.66" stroke="#D32F2F" stroke-width="4.30" stroke-linecap="round"/>
<line x1="1051.48" y1="804.41" x2="1027.67" y2="813.26" stroke="#D32F2F" stroke-width="8.00" stroke-linecap="round"/>
<line x1="997.60" y1="819.98" x2="1027.67" y2="813.26" stroke="#D32F2F" stroke-width="5.30" stroke-linecap="round"/>
<line x1="1060.57" y1="813.82" x2="1034.99" y2="823.43" stroke="#D32F2F" stroke-width="8.00" stroke-linecap="round"/>
<line x1="1005.06" y1="827.70" x2="1034.99" y2="823.43" stroke="#D32F2F" stroke-width="6.29" stroke-linecap="round"/>
<line x1="1066.41" y1="827.92" x2="1039.27" y2="837.74" stroke="#D32F2F" stroke-width="7.58" stroke-linecap="round"/>
<line x1="1009.85" y1="839.26" x2="1039.27" y2="837.74" stroke="#D32F2F" stroke-width="7.22" stroke-linecap="round"/>
<line x1="1068.89" y1="846.01" x2="1040.45" y2="855.48" stroke="#D32F2F" stroke-width="7.25" stroke-linecap="round"/>
<line x1="1011.87" y1="854.04" x2="1040.45" y2="855.48" stroke="#D32F2F" stroke-width="8.00" stroke-linecap="round"/>
<line x1="1068.08" y1="867.19" x2="1038.66" y2="875.79" stroke="#D32F2F" stroke-width="7.08" stroke-linecap="round"/>
<line x1="1011.21" y1="871.28" x2="1038.66" y2="875.79" stroke="#D32F2F" stroke-width="8.00" stroke-linecap="round"/>
<line x1="1064.26" y1="890.48" x2="1034.20" y2="897.77" stroke="#D32F2F" stroke-width="7.08" stroke-linecap="round"/>
<line x1="1008.12" y1="890.18" x2="1034.20" y2="897.77" stroke="#D32F2F" stroke-width="8.00" stroke-linecap="round"/>
<line x1="1057.86" y1="914.98" x2="1027.47" y2="920.66" stroke="#D32F2F" stroke-width="7.25" stroke-linecap="round"/>
<line x1="1002.92" y1="910.05" x2="1027.47" y2="920.66" stroke="#D32F2F" stroke-width="8.00" stroke-linecap="round"/>
<line x1="1049.36" y1="939.94" x2="1018.92" y2="943.83" stroke="#D32F2F" stroke-width="8.00" stroke-linecap="round"/>
<line x1="996.00" y1="930.38" x2="1018.92" y2="943.83" stroke="#D32F2F" stroke-width="8.00" stroke-linecap="round"/>
<line x1="1039.28" y1="964.79" x2="1009.02" y2="966.88" stroke="#D32F2F" stroke-width="8.00" stroke-linecap="round"/>
<line x1="987.71" y1="950.82" x2="1009.02" y2="966.88" stroke="#D32F2F" stroke-width="8.00" stroke-linecap="round"/>
<line x1="1028.13" y1="989.16" x2="998.21" y2="989.56" stroke="#D32F2F" stroke-width="8.00" stroke-linecap="round"/>
<line x1="978.38" y1="971.21" x2="998.21" y2="989.56" stroke="#D32F2F" stroke-width="8.00" stroke-linecap="round"/>
<line x1="1016.39" y1="1012.83" x2="986.88" y2="1011.76" stroke="#D32F2F" stroke-width="8.00" stroke-linecap="round"/>
<line x1="968.32" y1="991.48" x2="986.88" y2="1011.76" stroke="#D32F2F" stroke-width="8.00" stroke-linecap="round"/>
<line x1="1004.47" y1="1035.72" x2="975.40" y2="1033.48" stroke="#D32F2F" stroke-width="8.00" stroke-linecap="round"/>
<line x1="957.81" y1="1011.65" x2="975.40" y2="1033.48" stroke="#D32F2F" stroke-width="8.00" stroke-linecap="round"/>
<line x1="992.74" y1="1057.85" x2="964.11" y2="1054.77" stroke="#D32F2F" stroke-width="8.00" stroke-linecap="round"/>
<line x1="947.13" y1="1031.81" x2="964.11" y2="1054.77" stroke="#D32F2F" stroke-width="8.00" stroke-linecap="round"/>
<line x1="981.54" y1="1079.30" x2="953.32" y2="1075.76" stroke="#D32F2F" stroke-width="8.00" stroke-linecap="round"/>
<line x1="936.55" y1="1052.08" x2="953.32" y2="1075.76" stroke="#D32F2F" stroke-width="8.00" stroke-linecap="round"/>
<line x1="971.16" y1="1100.20" x2="943.33" y2="1096.57" stroke="#D32F2F" stroke-width="8.00" stroke-linecap="round"/>
<line x1="926.37" y1="1072.58" x2="943.33" y2="1096.57" stroke="#D32F2F" stroke-width="8.00" stroke-linecap="round"/>
<line x1="961.87" y1="1120.69" x2="934.44" y2="1117.36" stroke="#D32F2F" stroke-width="8.00" stroke-linecap="round"/>
<line x1="916.90" y1="1093.47" x2="934.44" y2="1117.36" stroke="#D32F2F" stroke-width="8.00" stroke-linecap="round"/>
<line x1="953.94" y1="1140.92" x2="926.96" y2="1138.26" stroke="#D32F2F" stroke-width="8.00" stroke-linecap="round"/>
<line x1="908.51" y1="1114.88" x2="926.96" y2="1138.26" stroke="#D32F2F" stroke-width="8.00" stroke-linecap="round"/>
<line x1="947.63" y1="1161.02" x2="921.21" y2="1159.40" stroke="#D32F2F" stroke-width="8.00" stroke-linecap="round"/>
<line x1="901.59" y1="1136.95" x2="921.21" y2="1159.40" stroke="#D32F2F" stroke-width="7.95" stroke-linecap="round"/>
<line x1="943.22" y1="1181.11" x2="917.53" y2="1180.86" stroke="#D32F2F" stroke-width="8.00" stroke-linecap="round"/>
<line x1="896.59" y1="1159.74" x2="917.53" y2="1180.86" stroke="#D32F2F" stroke-width="7.66" stroke-linecap="round"/>
<line x1="941.01" y1="1201.28" x2="916.32" y2="1202.68" stroke="#D32F2F" stroke-width="8.00" stroke-linecap="round"/>
<line x1="894.02" y1="1183.29" x2="916.32" y2="1202.68" stroke="#D32F2F" stroke-width="7.46" stroke-linecap="round"/>
<line x1="941.34" y1="1221.54" x2="918.00" y2="1224.81" stroke="#D32F2F" stroke-width="8.00" stroke-linecap="round"/>
<line x1="894.42" y1="1207.50" x2="918.00" y2="1224.81" stroke="#D32F2F" stroke-width="7.38" stroke-linecap="round"/>
<line x1="944.57" y1="1241.83" x2="923.01" y2="1247.07" stroke="#D32F2F" stroke-width="8.00" stroke-linecap="round"/>
<line x1="898.36" y1="1232.17" x2="923.01" y2="1247.07" stroke="#D32F2F" stroke-width="7.41" stroke-linecap="round"/>
<line x1="951.09" y1="1261.98" x2="931.79" y2="1269.15" stroke="#D32F2F" stroke-width="8.00" stroke-linecap="round"/>
<line x1="906.36" y1="1256.91" x2="931.79" y2="1269.15" stroke="#D32F2F" stroke-width="7.57" stroke-linecap="round"/>
<line x1="961.26" y1="1281.65" x2="944.69" y2="1290.56" stroke="#D32F2F" stroke-width="8.00" stroke-linecap="round"/>
<line x1="918.90" y1="1281.17" x2="944.69" y2="1290.56" stroke="#D32F2F" stroke-width="7.83" stroke-linecap="round"/>
<line x1="975.34" y1="1300.32" x2="961.95" y2="1310.65" stroke="#D32F2F" stroke-width="8.00" stroke-linecap="round"/>
<line x1="936.24" y1="1304.18" x2="961.95" y2="1310.65" stroke="#D32F2F" stroke-width="8.00" stroke-linecap="round"/>
<line x1="993.39" y1="1317.31" x2="983.53" y2="1328.59" stroke="#D32F2F" stroke-width="8.00" stroke-linecap="round"/>
<line x1="958.43" y1="1325.05" x2="983.53" y2="1328.59" stroke="#D32F2F" stroke-width="8.00" stroke-linecap="round"/>
<line x1="1015.21" y1="1331.83" x2="1009.10" y2="1343.52" stroke="#D32F2F" stroke-width="8.00" stroke-linecap="round"/>
<line x1="985.13" y1="1342.82" x2="1009.10" y2="1343.52" stroke="#D32F2F" stroke-width="8.00" stroke-linecap="round"/>
<line x1="1040.23" y1="1343.12" x2="1037.94" y2="1354.64" stroke="#D32F2F" stroke-width="8.00" stroke-linecap="round"/>
<line x1="1015.65" y1="1356.59" x2="1037.94" y2="1354.64" stroke="#D32F2F" stroke-width="8.00" stroke-linecap="round"/>
<line x1="1067.53" y1="1350.57" x2="1069.02" y2="1361.37" stroke="#D32F2F" stroke-width="8.00" stroke-linecap="round"/>
<line x1="1048.93" y1="1365.68" x2="1069.02" y2="1361.37" stroke="#D32F2F" stroke-width="8.00" stroke-linecap="round"/>
<line x1="1096.02" y1="1353.89" x2="1101.10" y2="1363.46" stroke="#D32F2F" stroke-width="8.00" stroke-linecap="round"/>
<line x1="1083.68" y1="1369.73" x2="1101.10" y2="1363.46" stroke="#D32F2F" stroke-width="8.00" stroke-linecap="round"/>
<line x1="1124.52" y1="1353.11" x2="1132.94" y2="1361.01" stroke="#D32F2F" stroke-width="8.00" stroke-linecap="round"/>
<line x1="1118.57" y1="1368.77" x2="1132.94" y2="1361.01" stroke="#D32F2F" stroke-width="8.00" stroke-linecap="round"/>
<line x1="1152.03" y1="1348.56" x2="1163.45" y2="1354.45" stroke="#D32F2F" stroke-width="8.00" stroke-linecap="round"/>
<line x1="1152.36" y1="1363.18" x2="1163.45" y2="1354.45" stroke="#D32F2F" stroke-width="8.00" stroke-linecap="round"/>
<line x1="1177.77" y1="1340.76" x2="1191.81" y2="1344.36" stroke="#D32F2F" stroke-width="8.00" stroke-linecap="round"/>
<line x1="1184.08" y1="1353.57" x2="1191.81" y2="1344.36" stroke="#D32F2F" stroke-width="8.00" stroke-linecap="round"/>
<line x1="1201.27" y1="1330.28" x2="1217.49" y2="1331.42" stroke="#D32F2F" stroke-width="8.00" stroke-linecap="round"/>
<line x1="1213.06" y1="1340.65" x2="1217.49" y2="1331.42" stroke="#D32F2F" stroke-width="8.00" stroke-linecap="round"/>
<line x1="1222.31" y1="1317.66" x2="1240.24" y2="1316.24" stroke="#D32F2F" stroke-width="8.00" stroke-linecap="round"/>
<line x1="1238.90" y1="1325.15" x2="1240.24" y2="1316.24" stroke="#D32F2F" stroke-width="8.00" stroke-linecap="round"/>
<line x1="1240.88" y1="1303.32" x2="1260.04" y2="1299.36" stroke="#D32F2F" stroke-width="8.00" stroke-linecap="round"/>
<line x1="1261.47" y1="1307.72" x2="1260.04" y2="1299.36" stroke="#D32F2F" stroke-width="8.00" stroke-linecap="round"/>
<line x1="1257.06" y1="1287.57" x2="1276.98" y2="1281.18" stroke="#D32F2F" stroke-width="8.00" stroke-linecap="round"/>
<line x1="1280.81" y1="1288.89" x2="1276.98" y2="1281.18" stroke="#D32F2F" stroke-width="8.00" stroke-linecap="round"/>
<line x1="1271.01" y1="1270.61" x2="1291.25" y2="1262.00" stroke="#D32F2F" stroke-width="8.00" stroke-linecap="round"/>
<line x1="1297.10" y1="1269.09" x2="1291.25" y2="1262.00" stroke="#D32F2F" stroke-width="8.00" stroke-linecap="round"/>
<line x1="1282.89" y1="1252.55" x2="1303.08" y2="1242.02" stroke="#D32F2F" stroke-width="8.00" stroke-linecap="round"/>
<line x1="1310.59" y1="1248.61" x2="1303.08" y2="1242.02" stroke="#D32F2F" stroke-width="8.00" stroke-linecap="round"/>
<line x1="1292.88" y1="1233.46" x2="1312.71" y2="1221.34" stroke="#D32F2F" stroke-width="8.00" stroke-linecap="round"/>
<line x1="1321.56" y1="1227.65" x2="1312.71" y2="1221.34" stroke="#D32F2F" stroke-width="8.00" stroke-linecap="round"/>
<line x1="1301.13" y1="1213.31" x2="1320.39" y2="1200.04" stroke="#D32F2F" stroke-width="8.00" stroke-linecap="round"/>
<line x1="1330.30" y1="1206.34" x2="1320.39" y2="1200.04" stroke="#D32F2F" stroke-width="8.00" stroke-linecap="round"/>
<line x1="1307.79" y1="1192.10" x2="1326.34" y2="1178.13" stroke="#D32F2F" stroke-width="8.00" stroke-linecap="round"/>
<line x1="1337.09" y1="1184.72" x2="1326.34" y2="1178.13" stroke="#D32F2F" stroke-width="8.00" stroke-linecap="round"/>
<line x1="1312.97" y1="1169.79" x2="1330.75" y2="1155.61" stroke="#D32F2F" stroke-width="8.00" stroke-linecap="round"/>
<line x1="1342.18" y1="1162.82" x2="1330.75" y2="1155.61" stroke="#D32F2F" stroke-width="8.00" stroke-linecap="round"/>
<line x1="1316.79" y1="1146.32" x2="1333.81" y2="1132.47" stroke="#D32F2F" stroke-width="8.00" stroke-linecap="round"/>
<line x1="1345.79" y1="1140.66" x2="1333.81" y2="1132.47" stroke="#D32F2F" stroke-width="8.00" stroke-linecap="round"/>
<line x1="1319.34" y1="1121.69" x2="1335.66" y2="1108.69" stroke="#D32F2F" stroke-width="8.00" stroke-linecap="round"/>
<line x1="1348.12" y1="1118.22" x2="1335.66" y2="1108.69" stroke="#D32F2F" stroke-width="8.00" stroke-linecap="round"/>
<line x1="1320.71" y1="1095.92" x2="1336.41" y2="1084.32" stroke="#D32F2F" stroke-width="8.00" stroke-linecap="round"/>
<line x1="1349.33" y1="1095.50" x2="1336.41" y2="1084.32" stroke="#D32F2F" stroke-width="8.00" stroke-linecap="round"/>
<line x1="1320.94" y1="1069.10" x2="1336.15" y2="1059.42" stroke="#D32F2F" stroke-width="8.00" stroke-linecap="round"/>
<line x1="1349.53" y1="1072.54" x2="1336.15" y2="1059.42" stroke="#D32F2F" stroke-width="8.00" stroke-linecap="round"/>
<line x1="1320.06" y1="1041.45" x2="1334.92" y2="1034.15" stroke="#D32F2F" stroke-width="8.00" stroke-linecap="round"/>
<line x1="1348.80" y1="1049.41" x2="1334.92" y2="1034.15" stroke="#D32F2F" stroke-width="8.00" stroke-linecap="round"/>
<line x1="1318.10" y1="1013.31" x2="1332.73" y2="1008.78" stroke="#D32F2F" stroke-width="8.00" stroke-linecap="round"/>
<line x1="1347.18" y1="1026.26" x2="1332.73" y2="1008.78" stroke="#D32F2F" stroke-width="8.00" stroke-linecap="round"/>
<line x1="1315.03" y1="985.20" x2="1329.57" y2="983.74" stroke="#D32F2F" stroke-width="8.00" stroke-linecap="round"/>
<line x1="1344.68" y1="1003.36" x2="1329.57" y2="983.74" stroke="#D32F2F" stroke-width="8.00" stroke-linecap="round"/>
<line x1="1310.84" y1="957.80" x2="1325.41" y2="959.61" stroke="#D32F2F" stroke-width="8.00" stroke-linecap="round"/>
<line x1="1341.29" y1="981.14" x2="1325.41" y2="959.61" stroke="#D32F2F" stroke-width="7.94" stroke-linecap="round"/>
<line x1="1305.51" y1="932.01" x2="1320.22" y2="937.18" stroke="#D32F2F" stroke-width="8.00" stroke-linecap="round"/>
<line x1="1336.96" y1="960.21" x2="1320.22" y2="937.18" stroke="#D32F2F" stroke-width="7.13" stroke-linecap="round"/>
<line x1="1299.03" y1="908.84" x2="1314.01" y2="917.35" stroke="#D32F2F" stroke-width="8.00" stroke-linecap="round"/>
<line x1="1331.69" y1="941.36" x2="1314.01" y2="917.35" stroke="#D32F2F" stroke-width="6.23" stroke-linecap="round"/>
<line x1="1291.49" y1="889.37" x2="1306.85" y2="901.08" stroke="#D32F2F" stroke-width="8.00" stroke-linecap="round"/>
<line x1="1325.52" y1="925.44" x2="1306.85" y2="901.08" stroke="#D32F2F" stroke-width="5.29" stroke-linecap="round"/>
<line x1="1283.04" y1="874.56" x2="1298.91" y2="889.24" stroke="#D32F2F" stroke-width="8.00" stroke-linecap="round"/>
<line x1="1318.60" y1="913.31" x2="1298.91" y2="889.24" stroke="#D32F2F" stroke-width="4.35" stroke-linecap="round"/>
<line x1="1025.17" y1="800.74" x2="1005.31" y2="806.68" stroke="#D32F2F" stroke-width="8.00" stroke-linecap="round"/>
<line x1="976.07" y1="816.97" x2="1005.31" y2="806.68" stroke="#D32F2F" stroke-width="4.72" stroke-linecap="round"/>
<line x1="1039.51" y1="800.06" x2="1017.63" y2="807.66" stroke="#D32F2F" stroke-width="8.00" stroke-linecap="round"/>
<line x1="987.79" y1="816.42" x2="1017.63" y2="807.66" stroke="#D32F2F" stroke-width="4.30" stroke-linecap="round"/>
<line x1="1051.48" y1="804.41" x2="1027.67" y2="813.26" stroke="#D32F2F" stroke-width="8.00" stroke-linecap="round"/>
<line x1="997.60" y1="819.98" x2="1027.67" y2="813.26" stroke="#D32F2F" stroke-width="5.30" stroke-linecap="round"/>
<line x1="1060.57" y1="813.82" x2="1034.99" y2="823.43" stroke="#D32F2F" stroke-width="8.00" stroke-linecap="round"/>
<line x1="1005.06" y1="827.70" x2="1034.99" y2="823.43" stroke="#D32F2F" stroke-width="6.29" stroke-linecap="round"/>
<line x1="1066.41" y1="827.92" x2="1039.27" y2="837.74" stroke="#D32F2F" stroke-width="7.58" stroke-linecap="round"/>
<line x1="1009.85" y1="839.26" x2="1039.27" y2="837.74" stroke="#D32F2F" stroke-width="7.22" stroke-linecap="round"/>
<line x1="1068.89" y1="846.01" x2="1040.45" y2="855.48" stroke="#D32F2F" stroke-width="7.25" stroke-linecap="round"/>
<line x1="1011.87" y1="854.04" x2="1040.45" y2="855.48" stroke="#D32F2F" stroke-width="8.00" stroke-linecap="round"/>
<line x1="1068.08" y1="867.19" x2="1038.66" y2="875.79" stroke="#D32F2F" stroke-width="7.08" stroke-linecap="round"/>
<line x1="1011.21" y1="871.28" x2="1038.66" y2="875.79" stroke="#D32F2F" stroke-width="8.00" stroke-linecap="round"/>
<line x1="1064.26" y1="890.48" x2="1034.20" y2="897.77" stroke="#D32F2F" stroke-width="7.08" stroke-linecap="round"/>
<line x1="1008.12" y1="890.18" x2="1034.20" y2="897.77" stroke="#D32F2F" stroke-width="8.00" stroke-linecap="round"/>
<line x1="1057.86" y1="914.98" x2="1027.47" y2="920.66" stroke="#D32F2F" stroke-width="7.25" stroke-linecap="round"/>
<line x1="1002.92" y1="910.05" x2="1027.47" y2="920.66" stroke="#D32F2F" stroke-width="8.00" stroke-linecap="round"/>
<line x1="1049.36" y1="939.94" x2="1018.92" y2="943.83" stroke="#D32F2F" stroke-width="8.00" stroke-linecap="round"/>
<line x1="996.00" y1="930.38" x2="1018.92" y2="943.83" stroke="#D32F2F" stroke-width="8.00" stroke-linecap="round"/>
<line x1="1039.28" y1="964.79" x2="1009.02" y2="966.88" stroke="#D32F2F" stroke-width="8.00" stroke-linecap="round"/>
<line x1="987.71" y1="950.82" x2="1009.02" y2="966.88" stroke="#D32F2F" stroke-width="8.00" stroke-linecap="round"/>
<line x1="1028.13" y1="989.16" x2="998.21" y2="989.56" stroke="#D32F2F" stroke-width="8.00" stroke-linecap="round"/>
<line x1="978.38" y1="971.21" x2="998.21" y2="989.56" stroke="#D32F2F" stroke-width="8.00" stroke-linecap="round"/>
<line x1="1016.39" y1="1012.83" x2="986.88" y2="1011.76" stroke="#D32F2F" stroke-width="8.00" stroke-linecap="round"/>
<line x1="968.32" y1="991.48" x2="986.88" y2="1011.76" stroke="#D32F2F" stroke-width="8.00" stroke-linecap="round"/>
<line x1="1004.47" y1="1035.72" x2="975.40" y2="1033.48" stroke="#D32F2F" stroke-width="8.00" stroke-linecap="round"/>
<line x1="957.81" y1="1011.65" x2="975.40" y2="1033.48" stroke="#D32F2F" stroke-width="8.00" stroke-linecap="round"/>
<line x1="992.74" y1="1057.85" x2="964.11" y2="1054.77" stroke="#D32F2F" stroke-width="8.00" stroke-linecap="round"/>
<line x1="947.13" y1="1031.81" x2="964.11" y2="1054.77" stroke="#D32F2F" stroke-width="8.00" stroke-linecap="round"/>
<line x1="981.54" y1="1079.30" x2="953.32" y2="1075.76" stroke="#D32F2F" stroke-width="8.00" stroke-linecap="round"/>
<line x1="936.55" y1="1052.08" x2="953.32" y2="1075.76" stroke="#D32F2F" stroke-width="8.00" stroke-linecap="round"/>
<line x1="971.16" y1="1100.20" x2="943.33" y2="1096.57" stroke="#D32F2F" stroke-width="8.00" stroke-linecap="round"/>
<line x1="926.37" y1="1072.58" x2="943.33" y2="1096.57" stroke="#D32F2F" stroke-width="8.00" stroke-linecap="round"/>
<line x1="961.87" y1="1120.69" x2="934.44" y2="1117.36" stroke="#D32F2F" stroke-width="8.00" stroke-linecap="round"/>
<line x1="916.90" y1="1093.47" x2="934.44" y2="1117.36" stroke="#D32F2F" stroke-width="8.00" stroke-linecap="round"/>
<line x1="953.94" y1="1140.92" x2="926.96" y2="1138.26" stroke="#D32F2F" stroke-width="8.00" stroke-linecap="round"/>
<line x1="908.51" y1="1114.88" x2="926.96" y2="1138.26" stroke="#D32F2F" stroke-width="8.00" stroke-linecap="round"/>
<line x1="947.63" y1="1161.02" x2="921.21" y2="1159.40" stroke="#D32F2F" stroke-width="8.00" stroke-linecap="round"/>
<line x1="901.59" y1="1136.95" x2="921.21" y2="1159.40" stroke="#D32F2F" stroke-width="7.95" stroke-linecap="round"/>
<line x1="943.22" y1="1181.11" x2="917.53" y2="1180.86" stroke="#D32F2F" stroke-width="8.00" stroke-linecap="round"/>
<line x1="896.59" y1="1159.74" x2="917.53" y2="1180.86" stroke="#D32F2F" stroke-width="7.66" stroke-linecap="round"/>
<line x1="941.01" y1="1201.28" x2="916.32" y2="1202.68" stroke="#D32F2F" stroke-width="8.00" stroke-linecap="round"/>
<line x1="894.02" y1="1183.29" x2="916.32" y2="1202.68" stroke="#D32F2F" stroke-width="7.46" stroke-linecap="round"/>
<line x1="941.34" y1="1221.54" x2="918.00" y2="1224.81" stroke="#D32F2F" stroke-width="8.00" stroke-linecap="round"/>
<line x1="894.42" y1="1207.50" x2="918.00" y2="1224.81" stroke="#D32F2F" stroke-width="7.38" stroke-linecap="round"/>
<line x1="944.57" y1="1241.83" x2="923.01" y2="1247.07" stroke="#D32F2F" stroke-width="8.00" stroke-linecap="round"/>
<line x1="898.36" y1="1232.17" x2="923.01" y2="1247.07" stroke="#D32F2F" stroke-width="7.41" stroke-linecap="round"/>
<line x1="951.09" y1="1261.98" x2="931.79" y2="1269.15" stroke="#D32F2F" stroke-width="8.00" stroke-linecap="round"/>
<line x1="906.36" y1="1256.91" x2="931.79" y2="1269.15" stroke="#D32F2F" stroke-width="7.57" stroke-linecap="round"/>
<line x1="961.26" y1="1281.65" x2="944.69" y2="1290.56" stroke="#D32F2F" stroke-width="8.00" stroke-linecap="round"/>
<line x1="918.90" y1="1281.17" x2="944.69" y2="1290.56" stroke="#D32F2F" stroke-width="7.83" stroke-linecap="round"/>
<line x1="975.34" y1="1300.32" x2="961.95" y2="1310.65" stroke="#D32F2F" stroke-width="8.00" stroke-linecap="round"/>
<line x1="936.24" y1="1304.18" x2="961.95" y2="1310.65" stroke="#D32F2F" stroke-width="8.00" stroke-linecap="round"/>
<line x1="993.39" y1="1317.31" x2="983.53" y2="1328.59" stroke="#D32F2F" stroke-width="8.00" stroke-linecap="round"/>
<line x1="958.43" y1="1325.05" x2="983.53" y2="1328.59" stroke="#D32F2F" stroke-width="8.00" stroke-linecap="round"/>
<line x1="1015.21" y1="1331.83" x2="1009.10" y2="1343.52" stroke="#D32F2F" stroke-width="8.00" stroke-linecap="round"/>
<line x1="985.13" y1="1342.82" x2="1009.10" y2="1343.52" stroke="#D32F2F" stroke-width="8.00" stroke-linecap="round"/>
<line x1="1040.23" y1="1343.12" x2="1037.94" y2="1354.64" stroke="#D32F2F" stroke-width="8.00" stroke-linecap="round"/>
<line x1="1015.65" y1="1356.59" x2="1037.94" y2="1354.64" stroke="#D32F2F" stroke-width="8.00" stroke-linecap="round"/>
<line x1="1067.53" y1="1350.57" x2="1069.02" y2="1361.37" stroke="#D32F2F" stroke-width="8.00" stroke-linecap="round"/>
<line x1="1048.93" y1="1365.68" x2="1069.02" y2="1361.37" stroke="#D32F2F" stroke-width="8.00" stroke-linecap="round"/>
<line x1="1096.02" y1="1353.89" x2="1101.10" y2="1363.46" stroke="#D32F2F" stroke-width="8.00" stroke-linecap="round"/>
<line x1="1083.68" y1="1369.73" x2="1101.10" y2="1363.46" stroke="#D32F2F" stroke-width="8.00" stroke-linecap="round"/>
<line x1="1124.52" y1="1353.11" x2="1132.94" y2="1361.01" stroke="#D32F2F" stroke-width="8.00" stroke-linecap="round"/>
<line x1="1118.57" y1="1368.77" x2="1132.94" y2="1361.01" stroke="#D32F2F" stroke-width="8.00" stroke-linecap="round"/>
<line x1="1152.03" y1="1348.56" x2="1163.45" y2="1354.45" stroke="#D32F2F" stroke-width="8.00" stroke-linecap="round"/>
<line x1="1152.36" y1="1363.18" x2="1163.45" y2="1354.45" stroke="#D32F2F" stroke-width="8.00" stroke-linecap="round"/>
<line x1="1177.77" y1="1340.76" x2="1191.81" y2="1344.36" stroke="#D32F2F" stroke-width="8.00" stroke-linecap="round"/>
<line x1="1184.08" y1="1353.57" x2="1191.81" y2="1344.36" stroke="#D32F2F" stroke-width="8.00" stroke-linecap="round"/>
<line x1="1201.27" y1="1330.28" x2="1217.49" y2="1331.42" stroke="#D32F2F" stroke-width="8.00" stroke-linecap="round"/>
<line x1="1213.06" y1="1340.65" x2="1217.49" y2="1331.42" stroke="#D32F2F" stroke-width="8.00" stroke-linecap="round"/>
<line x1="1222.31" y1="1317.66" x2="1240.24" y2="1316.24" stroke="#D32F2F" stroke-width="8.00" stroke-linecap="round"/>
<line x1="1238.90" y1="1325.15" x2="1240.24" y2="1316.24" stroke="#D32F2F" stroke-width="8.00" stroke-linecap="round"/>
<line x1="1240.88" y1="1303.32" x2="1260.04" y2="1299.36" stroke="#D32F2F" stroke-width="8.00" stroke-linecap="round"/>
<line x1="1261.47" y1="1307.72" x2="1260.04" y2="1299.36" stroke="#D32F2F" stroke-width="8.00" stroke-linecap="round"/>
<line x1="1257.06" y1="1287.57" x2="1276.98" y2="1281.18" stroke="#D32F2F" stroke-width="8.00" stroke-linecap="round"/>
<line x1="1280.81" y1="1288.89" x2="1276.98" y2="1281.18" stroke="#D32F2F" stroke-width="8.00" stroke-linecap="round"/>
<line x1="1271.01" y1="1270.61" x2="1291.25" y2="1262.00" stroke="#D32F2F" stroke-width="8.00" stroke-linecap="round"/>
<line x1="1297.10" y1="1269.09" x2="1291.25" y2="1262.00" stroke="#D32F2F" stroke-width="8.00" stroke-linecap="round"/>
<line x1="1282.89" y1="1252.55" x2="1303.08" y2="1242.02" stroke="#D32F2F" stroke-width="8.00" stroke-linecap="round"/>
<line x1="1310.59" y1="1248.61" x2="1303.08" y2="1242.02" stroke="#D32F2F" stroke-width="8.00" stroke-linecap="round"/>
<line x1="1292.88" y1="1233.46" x2="1312.71" y2="1221.34" stroke="#D32F2F" stroke-width="8.00" stroke-linecap="round"/>
<line x1="1321.56" y1="1227.65" x2="1312.71" y2="1221.34" stroke="#D32F2F" stroke-width="8.00" stroke-linecap="round"/>
<line x1="1301.13" y1="1213.31" x2="1320.39" y2="1200.04" stroke="#D32F2F" stroke-width="8.00" stroke-linecap="round"/>
<line x1="1330.30" y1="1206.34" x2="1320.39" y2="1200.04" stroke="#D32F2F" stroke-width="8.00" stroke-linecap="round"/>
<circle cx="1084.59" cy="1084.59" r="290.0" fill="none" stroke="#ccc" stroke-width="0.5"/>
<line x1="1175.85" y1="814.02" x2="1267.12" y2="543.44" stroke="#A1A1AA" stroke-width="5" opacity="0.9"/>
<line x1="553.50" y1="939.59" x2="819.04" y2="1012.09" stroke="#A1A1AA" stroke-width="5" opacity="0.9"/>
<line x1="1229.59" y1="1234.70" x2="1157.09" y2="1159.65" stroke="#A1A1AA" stroke-width="5" opacity="0.9"/>
<polygon points="1615.68,1229.59 1594.28,1232.04 1598.49,1216.60" fill="#A1A1AA" opacity="0.9"/>
<polygon points="939.59,934.47 959.24,943.30 947.73,954.42" fill="#A1A1AA" opacity="0.9"/>
<polygon points="1267.12,543.44 1268.31,564.95 1253.15,559.84" fill="#A1A1AA" opacity="0.9"/>
<text x="1711.28" y="1255.69" font-family="Palatino, 'Palatino Linotype', 'Book Antiqua', Georgia, serif" font-style="italic" font-size="52" fill="#A1A1AA" text-anchor="middle" dominant-baseline="middle" opacity="0.9">x</text>
<text x="913.49" y="907.45" font-family="Palatino, 'Palatino Linotype', 'Book Antiqua', Georgia, serif" font-style="italic" font-size="52" fill="#A1A1AA" text-anchor="middle" dominant-baseline="middle" opacity="0.9">y</text>
<text x="1299.97" y="446.04" font-family="Palatino, 'Palatino Linotype', 'Book Antiqua', Georgia, serif" font-style="italic" font-size="52" fill="#A1A1AA" text-anchor="middle" dominant-baseline="middle" opacity="0.9">z</text>
<polyline points="999.12,1543.94 1001.65,1543.82 1003.79,1543.54 1005.52,1543.10 1006.84,1542.50 1007.75,1541.75 1008.22,1540.85 1008.27,1539.81 1007.88,1538.62 1007.07,1537.31 1005.84,1535.87 1004.19,1534.33 1002.14,1532.67 999.69,1530.93 996.87,1529.10 993.69,1527.20 990.17,1525.24 986.33,1523.23 982.19,1521.19 977.79,1519.12 973.15,1517.05 968.29,1514.98 963.25,1512.92 958.06,1510.89 952.74,1508.90 947.34,1506.97 941.89,1505.10 936.41,1503.31 930.95,1501.60 925.53,1499.99 920.20,1498.49 914.98,1497.11 909.90,1495.85 905.00,1494.73 900.31,1493.75 895.85,1492.91 891.66,1492.23 887.76,1491.70 884.17,1491.33 880.91,1491.12 878.01,1491.07 875.48,1491.19 873.35,1491.47 871.61,1491.91 870.29,1492.51 869.39,1493.26 868.91,1494.16 868.87,1495.21 869.25,1496.39 870.06,1497.71 871.29,1499.14 872.94,1500.69 875.00,1502.34 877.44,1504.09 880.26,1505.92 883.44,1507.82 886.97,1509.77 890.80,1511.78 894.94,1513.82 899.34,1515.89 903.99,1517.97" fill="none" stroke="#A1A1AA" stroke-width="2.2" stroke-linecap="round" stroke-linejoin="round" opacity="0.85"/>
<polygon points="903.99,1517.97 892.82,1518.45 896.90,1509.32" fill="#A1A1AA" opacity="0.85"/>
<text x="909.18" y="1487.08" font-family="Palatino, 'Palatino Linotype', 'Book Antiqua', Georgia, serif" font-style="italic" font-size="28" fill="#A1A1AA" text-anchor="middle" dominant-baseline="middle" opacity="0.85">yaw</text>
<polyline points="656.35,1030.50 658.67,1027.56 660.99,1024.26 663.30,1020.62 665.58,1016.65 667.84,1012.39 670.04,1007.86 672.18,1003.08 674.24,998.09 676.21,992.92 678.08,987.60 679.84,982.17 681.47,976.65 682.97,971.08 684.33,965.49 685.53,959.93 686.58,954.41 687.46,948.99 688.16,943.68 688.70,938.53 689.05,933.57 689.23,928.82 689.22,924.31 689.03,920.08 688.65,916.15 688.11,912.54 687.38,909.27 686.49,906.38 685.43,903.86 684.21,901.75 682.84,900.04 681.32,898.76 679.68,897.91 677.91,897.50 676.03,897.52 674.05,897.99 671.98,898.88 669.83,900.21 667.63,901.96 665.37,904.12 663.08,906.68 660.77,909.61 658.45,912.92 656.14,916.56 653.85,920.53 651.60,924.79 649.39,929.32 647.25,934.10 645.19,939.09 643.22,944.26 641.35,949.57 639.59,955.01 637.96,960.53 636.46,966.10 635.10,971.69 633.90,977.25 632.85,982.77 631.98,988.19 631.27,993.50 630.73,998.65 630.38,1003.61" fill="none" stroke="#A1A1AA" stroke-width="2.2" stroke-linecap="round" stroke-linejoin="round" opacity="0.85"/>
<polygon points="630.38,1003.61 626.10,993.28 636.08,993.99" fill="#A1A1AA" opacity="0.85"/>
<text x="696.71" y="858.92" font-family="Palatino, 'Palatino Linotype', 'Book Antiqua', Georgia, serif" font-style="italic" font-size="28" fill="#A1A1AA" text-anchor="middle" dominant-baseline="middle" opacity="0.85">pitch</text>
<polyline points="1231.81,1266.14 1236.73,1263.16 1241.42,1259.83 1245.87,1256.16 1250.03,1252.17 1253.89,1247.88 1257.42,1243.33 1260.61,1238.54 1263.42,1233.54 1265.84,1228.37 1267.86,1223.05 1269.47,1217.61 1270.65,1212.10 1271.40,1206.54 1271.71,1200.97 1271.59,1195.42 1271.03,1189.93 1270.03,1184.53 1268.60,1179.25 1266.76,1174.13 1264.51,1169.20 1261.86,1164.49 1258.84,1160.02 1255.45,1155.83 1251.73,1151.95 1247.69,1148.38 1243.37,1145.17 1238.78,1142.32 1233.95,1139.85 1228.92,1137.79 1223.71,1136.14 1218.36,1134.91 1212.90,1134.11 1207.37,1133.74 1201.79,1133.82 1196.21,1134.33 1190.65,1135.27 1185.15,1136.64 1179.75,1138.43 1174.48,1140.63 1169.37,1143.23 1164.45,1146.20 1159.76,1149.53 1155.31,1153.21 1151.15,1157.20 1147.29,1161.48 1143.75,1166.03 1140.57,1170.82 1137.76,1175.82 1135.34,1180.99 1133.32,1186.31 1131.71,1191.75 1130.53,1197.26 1129.78,1202.82 1129.47,1208.40 1129.59,1213.94 1130.15,1219.44 1131.15,1224.84 1132.58,1230.11 1134.42,1235.23 1136.67,1240.16" fill="none" stroke="#A1A1AA" stroke-width="2.2" stroke-linecap="round" stroke-linejoin="round" opacity="0.85"/>
<polygon points="1136.67,1240.16 1127.97,1233.14 1137.07,1228.99" fill="#A1A1AA" opacity="0.85"/>
<text x="1237.58" y="1095.01" font-family="Palatino, 'Palatino Linotype', 'Book Antiqua', Georgia, serif" font-style="italic" font-size="28" fill="#A1A1AA" text-anchor="middle" dominant-baseline="middle" opacity="0.85">roll</text>
</svg>