<svg width="2169" height="2169" viewBox="0 0 2169.1789 2169.1789" xmlns="http://www.w3.org/2000/svg">
<line x1="1334.18" y1="1017.71" x2="1583.76" y2="950.84" stroke="#A1A1AA" stroke-width="5" opacity="0.9"/>
<line x1="926.12" y1="1399.65" x2="1005.35" y2="1242.12" stroke="#A1A1AA" stroke-width="5" opacity="0.9"/>
<line x1="959.98" y1="850.47" x2="835.37" y2="616.35" stroke="#A1A1AA" stroke-width="5" opacity="0.9"/>
<circle cx="1084.59" cy="1084.59" r="290.0" fill="#FDFDF5"/>
<line x1="1209.90" y1="824.99" x2="1233.53" y2="836.22" stroke="#D32F2F" stroke-width="8.00" stroke-linecap="round"/>
<line x1="1229.18" y1="837.71" x2="1251.29" y2="849.05" stroke="#D32F2F" stroke-width="8.00" stroke-linecap="round"/>
<line x1="1247.37" y1="852.35" x2="1268.08" y2="863.70" stroke="#D32F2F" stroke-width="8.00" stroke-linecap="round"/>
<line x1="1272.29" y1="863.74" x2="1268.08" y2="863.70" stroke="#D32F2F" stroke-width="8.00" stroke-linecap="round"/>
<line x1="1264.26" y1="868.51" x2="1283.74" y2="879.87" stroke="#D32F2F" stroke-width="8.00" stroke-linecap="round"/>
<line x1="1287.16" y1="877.99" x2="1283.74" y2="879.87" stroke="#D32F2F" stroke-width="8.00" stroke-linecap="round"/>
<line x1="1279.67" y1="885.89" x2="1298.11" y2="897.36" stroke="#D32F2F" stroke-width="8.00" stroke-linecap="round"/>
<line x1="1301.21" y1="893.83" x2="1298.11" y2="897.36" stroke="#D32F2F" stroke-width="8.00" stroke-linecap="round"/>
<line x1="1293.51" y1="904.25" x2="1311.06" y2="915.99" stroke="#D32F2F" stroke-width="8.00" stroke-linecap="round"/>
<line x1="1314.28" y1="911.17" x2="1311.06" y2="915.99" stroke="#D32F2F" stroke-width="8.00" stroke-linecap="round"/>
<line x1="1305.68" y1="923.41" x2="1322.48" y2="935.65" stroke="#D32F2F" stroke-width="8.00" stroke-linecap="round"/>
<line x1="1326.21" y1="929.98" x2="1322.48" y2="935.65" stroke="#D32F2F" stroke-width="8.00" stroke-linecap="round"/>
<line x1="1316.10" y1="943.26" x2="1332.23" y2="956.25" stroke="#D32F2F" stroke-width="8.00" stroke-linecap="round"/>
<line x1="1336.82" y1="950.21" x2="1332.23" y2="956.25" stroke="#D32F2F" stroke-width="8.00" stroke-linecap="round"/>
<line x1="1324.66" y1="963.68" x2="1340.16" y2="977.72" stroke="#D32F2F" stroke-width="8.00" stroke-linecap="round"/>
<line x1="1345.88" y1="971.83" x2="1340.16" y2="977.72" stroke="#D32F2F" stroke-width="8.00" stroke-linecap="round"/>
<line x1="1331.25" y1="984.60" x2="1346.07" y2="999.98" stroke="#D32F2F" stroke-width="8.00" stroke-linecap="round"/>
<line x1="1353.11" y1="994.80" x2="1346.07" y2="999.98" stroke="#D32F2F" stroke-width="8.00" stroke-linecap="round"/>
<line x1="1335.74" y1="1005.94" x2="1349.76" y2="1022.95" stroke="#D32F2F" stroke-width="8.00" stroke-linecap="round"/>
<line x1="1358.20" y1="1019.01" x2="1349.76" y2="1022.95" stroke="#D32F2F" stroke-width="8.00" stroke-linecap="round"/>
<line x1="1337.94" y1="1027.61" x2="1350.95" y2="1046.48" stroke="#D32F2F" stroke-width="8.00" stroke-linecap="round"/>
<line x1="1360.76" y1="1044.32" x2="1350.95" y2="1046.48" stroke="#D32F2F" stroke-width="8.00" stroke-linecap="round"/>
<line x1="1337.63" y1="1049.48" x2="1349.33" y2="1070.38" stroke="#D32F2F" stroke-width="8.00" stroke-linecap="round"/>
<line x1="1360.38" y1="1070.46" x2="1349.33" y2="1070.38" stroke="#D32F2F" stroke-width="8.00" stroke-linecap="round"/>
<line x1="1334.53" y1="1071.36" x2="1344.53" y2="1094.34" stroke="#D32F2F" stroke-width="8.00" stroke-linecap="round"/>
<line x1="1356.61" y1="1097.05" x2="1344.53" y2="1094.34" stroke="#D32F2F" stroke-width="8.00" stroke-linecap="round"/>
<line x1="1328.33" y1="1092.96" x2="1336.21" y2="1117.93" stroke="#D32F2F" stroke-width="8.00" stroke-linecap="round"/>
<line x1="1349.00" y1="1123.57" x2="1336.21" y2="1117.93" stroke="#D32F2F" stroke-width="8.00" stroke-linecap="round"/>
<line x1="1318.73" y1="1113.84" x2="1324.04" y2="1140.57" stroke="#D32F2F" stroke-width="8.00" stroke-linecap="round"/>
<line x1="1337.16" y1="1149.32" x2="1324.04" y2="1140.57" stroke="#D32F2F" stroke-width="8.00" stroke-linecap="round"/>
<line x1="1305.49" y1="1133.42" x2="1307.83" y2="1161.51" stroke="#D32F2F" stroke-width="8.00" stroke-linecap="round"/>
<line x1="1320.84" y1="1173.44" x2="1307.83" y2="1161.51" stroke="#D32F2F" stroke-width="8.00" stroke-linecap="round"/>
<line x1="1288.54" y1="1150.96" x2="1287.57" y2="1179.91" stroke="#D32F2F" stroke-width="8.00" stroke-linecap="round"/>
<line x1="1300.02" y1="1194.99" x2="1287.57" y2="1179.91" stroke="#D32F2F" stroke-width="8.00" stroke-linecap="round"/>
<line x1="1268.06" y1="1165.65" x2="1263.58" y2="1194.88" stroke="#D32F2F" stroke-width="8.00" stroke-linecap="round"/>
<line x1="1274.96" y1="1212.97" x2="1263.58" y2="1194.88" stroke="#D32F2F" stroke-width="8.00" stroke-linecap="round"/>
<line x1="1244.57" y1="1176.73" x2="1236.49" y2="1205.62" stroke="#D32F2F" stroke-width="8.00" stroke-linecap="round"/>
<line x1="1246.30" y1="1226.49" x2="1236.49" y2="1205.62" stroke="#D32F2F" stroke-width="8.00" stroke-linecap="round"/>
<line x1="1218.91" y1="1183.60" x2="1207.27" y2="1211.56" stroke="#D32F2F" stroke-width="8.00" stroke-linecap="round"/>
<line x1="1215.02" y1="1234.87" x2="1207.27" y2="1211.56" stroke="#D32F2F" stroke-width="8.00" stroke-linecap="round"/>
<line x1="1192.11" y1="1186.00" x2="1177.08" y2="1212.49" stroke="#D32F2F" stroke-width="8.00" stroke-linecap="round"/>
<line x1="1182.33" y1="1237.79" x2="1177.08" y2="1212.49" stroke="#D32F2F" stroke-width="8.00" stroke-linecap="round"/>
<line x1="1165.29" y1="1183.98" x2="1147.12" y2="1208.53" stroke="#D32F2F" stroke-width="8.00" stroke-linecap="round"/>
<line x1="1149.50" y1="1235.32" x2="1147.12" y2="1208.53" stroke="#D32F2F" stroke-width="8.00" stroke-linecap="round"/>
<line x1="1139.41" y1="1177.92" x2="1118.43" y2="1200.15" stroke="#D32F2F" stroke-width="8.00" stroke-linecap="round"/>
<line x1="1117.71" y1="1227.87" x2="1118.43" y2="1200.15" stroke="#D32F2F" stroke-width="8.00" stroke-linecap="round"/>
<line x1="1115.23" y1="1168.37" x2="1091.81" y2="1187.99" stroke="#D32F2F" stroke-width="8.00" stroke-linecap="round"/>
<line x1="1087.91" y1="1216.10" x2="1091.81" y2="1187.99" stroke="#D32F2F" stroke-width="8.00" stroke-linecap="round"/>
<line x1="1093.19" y1="1155.97" x2="1067.74" y2="1172.79" stroke="#D32F2F" stroke-width="8.00" stroke-linecap="round"/>
<line x1="1060.73" y1="1200.81" x2="1067.74" y2="1172.79" stroke="#D32F2F" stroke-width="8.00" stroke-linecap="round"/>
<line x1="1073.48" y1="1141.31" x2="1046.44" y2="1155.29" stroke="#D32F2F" stroke-width="8.00" stroke-linecap="round"/>
<line x1="1036.53" y1="1182.82" x2="1046.44" y2="1155.29" stroke="#D32F2F" stroke-width="8.00" stroke-linecap="round"/>
<line x1="1056.09" y1="1124.92" x2="1027.89" y2="1136.11" stroke="#D32F2F" stroke-width="8.00" stroke-linecap="round"/>
<line x1="1015.40" y1="1162.90" x2="1027.89" y2="1136.11" stroke="#D32F2F" stroke-width="8.00" stroke-linecap="round"/>
<line x1="1040.89" y1="1107.21" x2="1011.93" y2="1115.82" stroke="#D32F2F" stroke-width="8.00" stroke-linecap="round"/>
<line x1="997.22" y1="1141.73" x2="1011.93" y2="1115.82" stroke="#D32F2F" stroke-width="8.00" stroke-linecap="round"/>
<line x1="1027.65" y1="1088.50" x2="998.29" y2="1094.85" stroke="#D32F2F" stroke-width="8.00" stroke-linecap="round"/>
<line x1="981.76" y1="1119.88" x2="998.29" y2="1094.85" stroke="#D32F2F" stroke-width="8.00" stroke-linecap="round"/>
<line x1="1016.14" y1="1069.04" x2="986.67" y2="1073.56" stroke="#D32F2F" stroke-width="8.00" stroke-linecap="round"/>
<line x1="968.69" y1="1097.80" x2="986.67" y2="1073.56" stroke="#D32F2F" stroke-width="8.00" stroke-linecap="round"/>
<line x1="1006.08" y1="1049.04" x2="976.72" y2="1052.24" stroke="#D32F2F" stroke-width="8.00" stroke-linecap="round"/>
<line x1="957.65" y1="1075.86" x2="976.72" y2="1052.24" stroke="#D32F2F" stroke-width="8.00" stroke-linecap="round"/>
<line x1="997.22" y1="1028.70" x2="968.11" y2="1031.13" stroke="#D32F2F" stroke-width="8.00" stroke-linecap="round"/>
<line x1="948.27" y1="1054.32" x2="968.11" y2="1031.13" stroke="#D32F2F" stroke-width="8.00" stroke-linecap="round"/>
<line x1="989.29" y1="1008.19" x2="960.50" y2="1010.43" stroke="#D32F2F" stroke-width="8.00" stroke-linecap="round"/>
<line x1="940.17" y1="1033.42" x2="960.50" y2="1010.43" stroke="#D32F2F" stroke-width="8.00" stroke-linecap="round"/>
<line x1="982.00" y1="987.72" x2="953.58" y2="990.34" stroke="#D32F2F" stroke-width="8.00" stroke-linecap="round"/>
<line x1="933.03" y1="1013.33" x2="953.58" y2="990.34" stroke="#D32F2F" stroke-width="7.85" stroke-linecap="round"/>
<line x1="975.10" y1="967.50" x2="947.05" y2="971.06" stroke="#D32F2F" stroke-width="8.00" stroke-linecap="round"/>
<line x1="926.50" y1="994.23" x2="947.05" y2="971.06" stroke="#D32F2F" stroke-width="7.19" stroke-linecap="round"/>
<line x1="968.30" y1="947.81" x2="940.62" y2="952.80" stroke="#D32F2F" stroke-width="8.00" stroke-linecap="round"/>
<line x1="920.31" y1="976.29" x2="940.62" y2="952.80" stroke="#D32F2F" stroke-width="6.74" stroke-linecap="round"/>
<line x1="961.34" y1="928.99" x2="934.05" y2="935.82" stroke="#D32F2F" stroke-width="8.00" stroke-linecap="round"/>
<line x1="914.17" y1="959.69" x2="934.05" y2="935.82" stroke="#D32F2F" stroke-width="6.70" stroke-linecap="round"/>
<line x1="953.98" y1="911.45" x2="927.09" y2="920.44" stroke="#D32F2F" stroke-width="8.00" stroke-linecap="round"/>
<line x1="907.87" y1="944.67" x2="927.09" y2="920.44" stroke="#D32F2F" stroke-width="6.76" stroke-linecap="round"/>
<line x1="945.99" y1="895.70" x2="919.58" y2="907.05" stroke="#D32F2F" stroke-width="8.00" stroke-linecap="round"/>
<line x1="901.18" y1="931.49" x2="919.58" y2="907.05" stroke="#D32F2F" stroke-width="6.95" stroke-linecap="round"/>
<line x1="937.21" y1="882.36" x2="911.38" y2="896.13" stroke="#D32F2F" stroke-width="7.76" stroke-linecap="round"/>
<line x1="893.97" y1="920.51" x2="911.38" y2="896.13" stroke="#D32F2F" stroke-width="7.26" stroke-linecap="round"/>
<line x1="927.58" y1="872.12" x2="902.43" y2="888.26" stroke="#D32F2F" stroke-width="7.01" stroke-linecap="round"/>
<line x1="886.12" y1="912.17" x2="902.43" y2="888.26" stroke="#D32F2F" stroke-width="7.68" stroke-linecap="round"/>
<line x1="917.12" y1="865.72" x2="892.79" y2="884.03" stroke="#D32F2F" stroke-width="6.13" stroke-linecap="round"/>
<line x1="877.64" y1="906.98" x2="892.79" y2="884.03" stroke="#D32F2F" stroke-width="8.00" stroke-linecap="round"/>
<line x1="905.99" y1="863.89" x2="882.62" y2="884.08" stroke="#D32F2F" stroke-width="5.18" stroke-linecap="round"/>
<line x1="868.61" y1="905.49" x2="882.62" y2="884.08" stroke="#D32F2F" stroke-width="8.00" stroke-linecap="round"/>
<line x1="894.49" y1="867.24" x2="872.20" y2="888.91" stroke="#D32F2F" stroke-width="4.21" stroke-linecap="round"/>
<line x1="859.25" y1="908.22" x2="872.20" y2="888.91" stroke="#D32F2F" stroke-width="8.00" stroke-linecap="round"/>
<line x1="931.61" y1="1329.47" x2="948.61" y2="1340.71" stroke="#D32F2F" stroke-width="8.00" stroke-linecap="round"/>
<line x1="956.34" y1="1342.24" x2="971.97" y2="1351.62" stroke="#D32F2F" stroke-width="8.00" stroke-linecap="round"/>
<line x1="984.00" y1="1353.38" x2="997.78" y2="1360.89" stroke="#D32F2F" stroke-width="8.00" stroke-linecap="round"/>
<line x1="1014.33" y1="1362.38" x2="1025.83" y2="1368.10" stroke="#D32F2F" stroke-width="8.00" stroke-linecap="round"/>
<line x1="1046.86" y1="1368.72" x2="1055.68" y2="1372.78" stroke="#D32F2F" stroke-width="8.00" stroke-linecap="round"/>
<line x1="1080.82" y1="1371.85" x2="1086.62" y2="1374.44" stroke="#D32F2F" stroke-width="8.00" stroke-linecap="round"/>
<line x1="1209.90" y1="824.99" x2="1233.53" y2="836.22" stroke="#D32F2F" stroke-width="8.00" stroke-linecap="round"/>
<line x1="1229.18" y1="837.71" x2="1251.29" y2="849.05" stroke="#D32F2F" stroke-width="8.00" stroke-linecap="round"/>
<line x1="1247.37" y1="852.35" x2="1268.08" y2="863.70" stroke="#D32F2F" stroke-width="8.00" stroke-linecap="round"/>
<line x1="1272.29" y1="863.74" x2="1268.08" y2="863.70" stroke="#D32F2F" stroke-width="8.00" stroke-linecap="round"/>
<line x1="1264.26" y1="868.51" x2="1283.74" y2="879.87" stroke="#D32F2F" stroke-width="8.00" stroke-linecap="round"/>
<line x1="1287.16" y1="877.99" x2="1283.74" y2="879.87" stroke="#D32F2F" stroke-width="8.00" stroke-linecap="round"/>
<line x1="1279.67" y1="885.89" x2="1298.11" y2="897.36" stroke="#D32F2F" stroke-width="8.00" stroke-linecap="round"/>
<line x1="1301.21" y1="893.83" x2="1298.11" y2="897.36" stroke="#D32F2F" stroke-width="8.00" stroke-linecap="round"/>
<line x1="1293.51" y1="904.25" x2="1311.06" y2="915.99" stroke="#D32F2F" stroke-width="8.00" stroke-linecap="round"/>
<line x1="1314.28" y1="911.17" x2="1311.06" y2="915.99" stroke="#D32F2F" stroke-width="8.00" stroke-linecap="round"/>
<line x1="1305.68" y1="923.41" x2="1322.48" y2="935.65" stroke="#D32F2F" stroke-width="8.00" stroke-linecap="round"/>
<line x1="1326.21" y1="929.98" x2="1322.48" y2="935.65" stroke="#D32F2F" stroke-width="8.00" stroke-linecap="round"/>
<line x1="1316.10" y1="943.26" x2="1332.23" y2="956.25" stroke="#D32F2F" stroke-width="8.00" stroke-linecap="round"/>
<line x1="1336.82" y1="950.21" x2="1332.23" y2="956.25" stroke="#D32F2F" stroke-width="8.00" stroke-linecap="round"/>
<line x1="1324.66" y1="963.68" x2="1340.16" y2="977.72" stroke="#D32F2F" stroke-width="8.00" stroke-linecap="round"/>
<line x1="1345.88" y1="971.83" x2="1340.16" y2="977.72" stroke="#D32F2F" stroke-width="8.00" stroke-linecap="round"/>
<line x1="1331.25" y1="984.60" x2="1346.07" y2="999.98" stroke="#D32F2F" stroke-width="8.00" stroke-linecap="round"/>
<line x1="1353.11" y1="994.80" x2="1346.07" y2="999.98" stroke="#D32F2F" stroke-width="8.00" stroke-linecap="round"/>
<line x1="1335.74" y1="1005.94" x2="1349.76" y2="1022.95" stroke="#D32F2F" stroke-width="8.00" stroke-linecap="round"/>
<line x1="1358.20" y1="1019.01" x2="1349.76" y2="1022.95" stroke="#D32F2F" stroke-width="8.00" stroke-linecap="round"/>
<line x1="1337.94" y1="1027.61" x2="1350.95" y2="1046.48" stroke="#D32F2F" stroke-width="8.00" stroke-linecap="round"/>
<line x1="1360.76" y1="1044.32" x2="1350.95" y2="1046.48" stroke="#D32F2F" stroke-width="8.00" stroke-linecap="round"/>
<line x1="1337.63" y1="1049.48" x2="1349.33" y2="1070.38" stroke="#D32F2F" stroke-width="8.00" stroke-linecap="round"/>
<line x1="1360.38" y1="1070.46" x2="1349.33" y2="1070.38" stroke="#D32F2F" stroke-width="8.00" stroke-linecap="round"/>
<line x1="1334.53" y1="1071.36" x2="1344.53" y2="1094.34" stroke="#D32F2F" stroke-width="8.00" stroke-linecap="round"/>
<line x1="1356.61" y1="1097.05" x2="1344.53" y2="1094.34" stroke="#D32F2F" stroke-width="8.00" stroke-linecap="round"/>
<line x1="1328.33" y1="1092.96" x2="1336.21" y2="1117.93" stroke="#D32F2F" stroke-width="8.00" stroke-linecap="round"/>
<line x1="1349.00" y1="1123.57" x2="1336.21" y2="1117.93" stroke="#D32F2F" stroke-width="8.00" stroke-linecap="round"/>
<line x1="1318.73" y1="1113.84" x2="1324.04" y2="1140.57" stroke="#D32F2F" stroke-width="8.00" stroke-linecap="round"/>
<line x1="1337.16" y1="1149.32" x2="1324.04" y2="1140.57" stroke="#D32F2F" stroke-width="8.00" stroke-linecap="round"/>
<line x1="1305.49" y1="1133.42" x2="1307.83" y2="1161.51" stroke="#D32F2F" stroke-width="8.00" stroke-linecap="round"/>
<line x1="1320.84" y1="1173.44" x2="1307.83" y2="1161.51" stroke="#D32F2F" stroke-width="8.00" stroke-linecap="round"/>
<line x1="1288.54" y1="1150.96" x2="1287.57" y2="1179.91" stroke="#D32F2F" stroke-width="8.00" stroke-linecap="round"/>
<line x1="1300.02" y1="1194.99" x2="1287.57" y2="1179.91" stroke="#D32F2F" stroke-width="8.00" stroke-linecap="round"/>
<line x1="1268.06" y1="1165.65" x2="1263.58" y2="1194.88" stroke="#D32F2F" stroke-width="8.00" stroke-linecap="round"/>
<line x1="1274.96" y1="1212.97" x2="1263.58" y2="1194.88" stroke="#D32F2F" stroke-width="8.00" stroke-linecap="round"/>
<line x1="1244.57" y1="1176.73" x2="1236.49" y2="1205.62" stroke="#D32F2F" stroke-width="8.00" stroke-linecap="round"/>
<line x1="1246.30" y1="1226.49" x2="1236.49" y2="1205.62" stroke="#D32F2F" stroke-width="8.00" stroke-linecap="round"/>
<line x1="1218.91" y1="1183.60" x2="1207.27" y2="1211.56" stroke="#D32F2F" stroke-width="8.00" stroke-linecap="round"/>
<line x1="1215.02" y1="1234.87" x2="1207.27" y2="1211.56" stroke="#D32F2F" stroke-width="8.00" stroke-linecap="round"/>
<line x1="1192.11" y1="1186.00" x2="1177.08" y2="1212.49" stroke="#D32F2F" stroke-width="8.00" stroke-linecap="round"/>
<line x1="1182.33" y1="1237.79" x2="1177.08" y2="1212.49" stroke="#D32F2F" stroke-width="8.00" stroke-linecap="round"/>
<line x1="1165.29" y1="1183.98" x2="1147.12" y2="1208.53" stroke="#D32F2F" stroke-width="8.00" stroke-linecap="round"/>
<line x1="1149.50" y1="1235.32" x2="1147.12" y2="1208.53" stroke="#D32F2F" stroke-width="8.00" stroke-linecap="round"/>
<line x1="1139.41" y1="1177.92" x2="1118.43" y2="1200.15" stroke="#D32F2F" stroke-width="8.00" stroke-linecap="round"/>
<line x1="1117.71" y1="1227.87" x2="1118.43" y2="1200.15" stroke="#D32F2F" stroke-width="8.00" stroke-linecap="round"/>
<line x1="1115.23" y1="1168.37" x2="1091.81" y2="1187.99" stroke="#D32F2F" stroke-width="8.00" stroke-linecap="round"/>
<line x1="1087.91" y1="1216.10" x2="1091.81" y2="1187.99" stroke="#D32F2F" stroke-width="8.00" stroke-linecap="round"/>
<line x1="1093.19" y1="1155.97" x2="1067.74" y2="1172.79" stroke="#D32F2F" stroke-width="8.00" stroke-linecap="round"/>
<line x1="1060.73" y1="1200.81" x2="1067.74" y2="1172.79" stroke="#D32F2F" stroke-width="8.00" stroke-linecap="round"/>
<line x1="1073.48" y1="1141.31" x2="1046.44" y2="1155.29" stroke="#D32F2F" stroke-width="8.00" stroke-linecap="round"/>
<line x1="1036.53" y1="1182.82" x2="1046.44" y2="1155.29" stroke="#D32F2F" stroke-width="8.00" stroke-linecap="round"/>
<line x1="1056.09" y1="1124.92" x2="1027.89" y2="1136.11" stroke="#D32F2F" stroke-width="8.00" stroke-linecap="round"/>
<line x1="1015.40" y1="1162.90" x2="1027.89" y2="1136.11" stroke="#D32F2F" stroke-width="8.00" stroke-linecap="round"/>
<line x1="1040.89" y1="1107.21" x2="1011.93" y2="1115.82" stroke="#D32F2F" stroke-width="8.00" stroke-linecap="round"/>
<line x1="997.22" y1="1141.73" x2="1011.93" y2="1115.82" stroke="#D32F2F" stroke-width="8.00" stroke-linecap="round"/>
<line x1="1027.65" y1="1088.50" x2="998.29" y2="1094.85" stroke="#D32F2F" stroke-width="8.00" stroke-linecap="round"/>
<line x1="981.76" y1="1119.88" x2="998.29" y2="1094.85" stroke="#D32F2F" stroke-width="8.00" stroke-linecap="round"/>
<line x1="1016.14" y1="1069.04" x2="986.67" y2="1073.56" stroke="#D32F2F" stroke-width="8.00" stroke-linecap="round"/>
<line x1="968.69" y1="1097.80" x2="986.67" y2="1073.56" stroke="#D32F2F" stroke-width="8.00" stroke-linecap="round"/>
<line x1="1006.08" y1="1049.04" x2="976.72" y2="1052.24" stroke="#D32F2F" stroke-width="8.00" stroke-linecap="round"/>
<line x1="957.65" y1="1075.86" x2="976.72" y2="1052.24" stroke="#D32F2F" stroke-width="8.00" stroke-linecap="round"/>
<line x1="997.22" y1="1028.70" x2="968.11" y2="1031.13" stroke="#D32F2F" stroke-width="8.00" stroke-linecap="round"/>
<line x1="948.27" y1="1054.32" x2="968.11" y2="1031.13" stroke="#D32F2F" stroke-width="8.00" stroke-linecap="round"/>
<line x1="989.29" y1="1008.19" x2="960.50" y2="1010.43" stroke="#D32F2F" stroke-width="8.00" stroke-linecap="round"/>
<line x1="940.17" y1="1033.42" x2="960.50" y2="1010.43" stroke="#D32F2F" stroke-width="8.00" stroke-linecap="round"/>
<line x1="982.00" y1="987.72" x2="953.58" y2="990.34" stroke="#D32F2F" stroke-width="8.00" stroke-linecap="round"/>
<line x1="933.03" y1="1013.33" x2="953.58" y2="990.34" stroke="#D32F2F" stroke-width="7.85" stroke-linecap="round"/>
<line x1="975.10" y1="967.50" x2="947.05" y2="971.06" stroke="#D32F2F" stroke-width="8.00" stroke-linecap="round"/>
<line x1="926.50" y1="994.23" x2="947.05" y2="971.06" stroke="#D32F2F" stroke-width="7.19" stroke-linecap="round"/>
<line x1="968.30" y1="947.81" x2="940.62" y2="952.80" stroke="#D32F2F" stroke-width="8.00" stroke-linecap="round"/>
<line x1="920.31" y1="976.29" x2="940.62" y2="952.80" stroke="#D32F2F" stroke-width="6.74" stroke-linecap="round"/>
<line x1="961.34" y1="928.99" x2="934.05" y2="935.82" stroke="#D32F2F" stroke-width="8.00" stroke-linecap="round"/>
<line x1="914.17" y1="959.69" x2="934.05" y2="935.82" stroke="#D32F2F" stroke-width="6.70" stroke-linecap="round"/>
<line x1="953.98" y1="911.45" x2="927.09" y2="920.44" stroke="#D32F2F" stroke-width="8.00" stroke-linecap="round"/>
<line x1="907.87" y1="944.67" x2="927.09" y2="920.44" stroke="#D32F2F" stroke-width="6.76" stroke-linecap="round"/>
<line x1="945.99" y1="895.70" x2="919.58" y2="907.05" stroke="#D32F2F" stroke-width="8.00" stroke-linecap="round"/>
<line x1="901.18" y1="931.49" x2="919.58" y2="907.05" stroke="#D32F2F" stroke-width="6.95" stroke-linecap="round"/>
<line x1="937.21" y1="882.36" x2="911.38" y2="896.13" stroke="#D32F2F" stroke-width="7.76" stroke-linecap="round"/>
<line x1="893.97" y1="920.51" x2="911.38" y2="896.13" stroke="#D32F2F" stroke-width="7.26" stroke-linecap="round"/>
<line x1="927.58" y1="872.12" x2="902.43" y2="888.26" stroke="#D32F2F" stroke-width="7.01" stroke-linecap="round"/>
<line x1="886.12" y1="912.17" x2="902.43" y2="888.26" stroke="#D32F2F" stroke-width="7.68" stroke-linecap="round"/>
<line x1="917.12" y1="865.72" x2="892.79" y2="884.03" stroke="#D32F2F" stroke-width="6.13" stroke-linecap="round"/>
<line x1="877.64" y1="906.98" x2="892.79" y2="884.03" stroke="#D32F2F" stroke-width="8.00" stroke-linecap="round"/>
<line x1="905.99" y1="863.89" x2="882.62" y2="884.08" stroke="#D32F2F" stroke-width="5.18" stroke-linecap="round"/>
<line x1="868.61" y1="905.49" x2="882.62" y2="884.08" stroke="#D32F2F" stroke-width="8.00" stroke-linecap="round"/>
<line x1="894.49" y1="867.24" x2="872.20" y2="888.91" stroke="#D32F2F" stroke-width="4.21" stroke-linecap="round"/>
<line x1="859.25" y1="908.22" x2="872.20" y2="888.91" stroke="#D32F2F" stroke-width="8.00" stroke-linecap="round"/>
<line x1="931.61" y1="1329.47" x2="948.61" y2="1340.71" stroke="#D32F2F" stroke-width="8.00" stroke-linecap="round"/>
<line x1="956.34" y1="1342.24" x2="971.97" y2="1351.62" stroke="#D32F2F" stroke-width="8.00" stroke-linecap="round"/>
<line x1="984.00" y1="1353.38" x2="997.78" y2="1360.89" stroke="#D32F2F" stroke-width="8.00" stroke-linecap="round"/>
<line x1="1014.33" y1="1362.38" x2="1025.83" y2="1368.10" stroke="#D32F2F" stroke-width="8.00" stroke-linecap="round"/>
<line x1="1046.86" y1="1368.72" x2="1055.68" y2="1372.78" stroke="#D32F2F" stroke-width="8.00" stroke-linecap="round"/>
<line x1="1080.82" y1="1371.85" x2="1086.62" y2="1374.44" stroke="#D32F2F" stroke-width="8.00" stroke-linecap="round"/>
<circle cx="1084.59" cy="1084.59" r="290.0" fill="none" stroke="#ccc" stroke-width="0.5"/>
<line x1="585.41" y1="1218.34" x2="835.00" y2="1151.47" stroke="#A1A1AA" stroke-width="5" opacity="0.9"/>
<line x1="1163.82" y1="927.06" x2="1243.06" y2="769.52" stroke="#A1A1AA" stroke-width="5" opacity="0.9"/>
<line x1="1333.81" y1="1552.82" x2="1209.20" y2="1318.71" stroke="#A1A1AA" stroke-width="5" opacity="0.9"/>
<polygon points="926.12,1399.65 927.96,1378.19 942.25,1385.38" fill="#A1A1AA" opacity="0.9"/>
<text x="1658.64" y="930.77" font-family="Palatino, 'Palatino Linotype', 'Book Antiqua', Georgia, serif" font-style="italic" font-size="52" fill="#A1A1AA" text-anchor="middle" dominant-baseline="middle" opacity="0.9">x</text>
<text x="1281.09" y="693.91" font-family="Palatino, 'Palatino Linotype', 'Book Antiqua', Georgia, serif" font-style="italic" font-size="52" fill="#A1A1AA" text-anchor="middle" dominant-baseline="middle" opacity="0.9">y</text>
<text x="797.98" y="546.12" font-family="Palatino, 'Palatino Linotype', 'Book Antiqua', Georgia, serif" font-style="italic" font-size="52" fill="#A1A1AA" text-anchor="middle" dominant-baseline="middle" opacity="0.9">z</text>
</svg>