<svg width="2169" height="2169" viewBox="0 0 2169.1789 2169.1789" xmlns="http://www.w3.org/2000/svg">
<line x1="1084.59" y1="1084.59" x2="1084.59" y2="1084.59" stroke="#A1A1AA" stroke-width="5" opacity="0.9"/>
<circle cx="1084.59" cy="1084.59" r="290.0" fill="#FDFDF5"/>
<line x1="1206.07" y1="821.89" x2="1231.78" y2="836.31" stroke="#D32F2F" stroke-width="6.56" stroke-linecap="round"/>
<line x1="1255.80" y1="851.00" x2="1231.78" y2="836.31" stroke="#D32F2F" stroke-width="7.40" stroke-linecap="round"/>
<line x1="1207.49" y1="827.49" x2="1233.52" y2="843.18" stroke="#D32F2F" stroke-width="5.80" stroke-linecap="round"/>
<line x1="1256.96" y1="855.59" x2="1233.52" y2="843.18" stroke="#D32F2F" stroke-width="8.00" stroke-linecap="round"/>
<line x1="1210.26" y1="838.30" x2="1236.48" y2="854.67" stroke="#D32F2F" stroke-width="5.14" stroke-linecap="round"/>
<line x1="1259.22" y1="864.42" x2="1236.48" y2="854.67" stroke="#D32F2F" stroke-width="8.00" stroke-linecap="round"/>
<line x1="1214.24" y1="853.58" x2="1240.51" y2="870.04" stroke="#D32F2F" stroke-width="4.76" stroke-linecap="round"/>
<line x1="1262.46" y1="876.86" x2="1240.51" y2="870.04" stroke="#D32F2F" stroke-width="8.00" stroke-linecap="round"/>
<line x1="1219.23" y1="872.45" x2="1245.41" y2="888.45" stroke="#D32F2F" stroke-width="5.83" stroke-linecap="round"/>
<line x1="1266.52" y1="892.17" x2="1245.41" y2="888.45" stroke="#D32F2F" stroke-width="8.00" stroke-linecap="round"/>
<line x1="1225.02" y1="893.98" x2="1250.98" y2="909.08" stroke="#D32F2F" stroke-width="6.78" stroke-linecap="round"/>
<line x1="1271.21" y1="909.63" x2="1250.98" y2="909.08" stroke="#D32F2F" stroke-width="8.00" stroke-linecap="round"/>
<line x1="1231.33" y1="917.29" x2="1256.98" y2="931.19" stroke="#D32F2F" stroke-width="7.61" stroke-linecap="round"/>
<line x1="1276.35" y1="928.62" x2="1256.98" y2="931.19" stroke="#D32F2F" stroke-width="8.00" stroke-linecap="round"/>
<line x1="1237.91" y1="941.68" x2="1263.16" y2="954.22" stroke="#D32F2F" stroke-width="8.00" stroke-linecap="round"/>
<line x1="1281.76" y1="948.68" x2="1263.16" y2="954.22" stroke="#D32F2F" stroke-width="8.00" stroke-linecap="round"/>
<line x1="1244.47" y1="966.56" x2="1269.27" y2="977.74" stroke="#D32F2F" stroke-width="8.00" stroke-linecap="round"/>
<line x1="1287.25" y1="969.50" x2="1269.27" y2="977.74" stroke="#D32F2F" stroke-width="8.00" stroke-linecap="round"/>
<line x1="1250.76" y1="991.54" x2="1275.09" y2="1001.47" stroke="#D32F2F" stroke-width="8.00" stroke-linecap="round"/>
<line x1="1292.64" y1="990.89" x2="1275.09" y2="1001.47" stroke="#D32F2F" stroke-width="8.00" stroke-linecap="round"/>
<line x1="1256.53" y1="1016.33" x2="1280.36" y2="1025.24" stroke="#D32F2F" stroke-width="8.00" stroke-linecap="round"/>
<line x1="1297.72" y1="1012.74" x2="1280.36" y2="1025.24" stroke="#D32F2F" stroke-width="8.00" stroke-linecap="round"/>
<line x1="1261.54" y1="1040.77" x2="1284.85" y2="1048.95" stroke="#D32F2F" stroke-width="8.00" stroke-linecap="round"/>
<line x1="1302.28" y1="1035.01" x2="1284.85" y2="1048.95" stroke="#D32F2F" stroke-width="8.00" stroke-linecap="round"/>
<line x1="1265.56" y1="1064.79" x2="1288.33" y2="1072.57" stroke="#D32F2F" stroke-width="8.00" stroke-linecap="round"/>
<line x1="1306.08" y1="1057.70" x2="1288.33" y2="1072.57" stroke="#D32F2F" stroke-width="8.00" stroke-linecap="round"/>
<line x1="1268.40" y1="1088.36" x2="1290.56" y2="1096.08" stroke="#D32F2F" stroke-width="8.00" stroke-linecap="round"/>
<line x1="1308.86" y1="1080.82" x2="1290.56" y2="1096.08" stroke="#D32F2F" stroke-width="8.00" stroke-linecap="round"/>
<line x1="1269.84" y1="1111.48" x2="1291.28" y2="1119.50" stroke="#D32F2F" stroke-width="8.00" stroke-linecap="round"/>
<line x1="1310.32" y1="1104.39" x2="1291.28" y2="1119.50" stroke="#D32F2F" stroke-width="8.00" stroke-linecap="round"/>
<line x1="1269.67" y1="1134.17" x2="1290.23" y2="1142.84" stroke="#D32F2F" stroke-width="8.00" stroke-linecap="round"/>
<line x1="1310.13" y1="1128.41" x2="1290.23" y2="1142.84" stroke="#D32F2F" stroke-width="8.00" stroke-linecap="round"/>
<line x1="1267.66" y1="1156.44" x2="1287.12" y2="1166.09" stroke="#D32F2F" stroke-width="8.00" stroke-linecap="round"/>
<line x1="1307.92" y1="1152.85" x2="1287.12" y2="1166.09" stroke="#D32F2F" stroke-width="8.00" stroke-linecap="round"/>
<line x1="1263.58" y1="1178.29" x2="1281.66" y2="1189.19" stroke="#D32F2F" stroke-width="8.00" stroke-linecap="round"/>
<line x1="1303.28" y1="1177.64" x2="1281.66" y2="1189.19" stroke="#D32F2F" stroke-width="8.00" stroke-linecap="round"/>
<line x1="1257.17" y1="1199.68" x2="1273.52" y2="1212.03" stroke="#D32F2F" stroke-width="8.00" stroke-linecap="round"/>
<line x1="1295.79" y1="1202.62" x2="1273.52" y2="1212.03" stroke="#D32F2F" stroke-width="8.00" stroke-linecap="round"/>
<line x1="1248.15" y1="1220.50" x2="1262.35" y2="1234.42" stroke="#D32F2F" stroke-width="8.00" stroke-linecap="round"/>
<line x1="1285.01" y1="1227.50" x2="1262.35" y2="1234.42" stroke="#D32F2F" stroke-width="8.00" stroke-linecap="round"/>
<line x1="1236.25" y1="1240.56" x2="1247.86" y2="1256.02" stroke="#D32F2F" stroke-width="8.00" stroke-linecap="round"/>
<line x1="1270.54" y1="1251.89" x2="1247.86" y2="1256.02" stroke="#D32F2F" stroke-width="8.00" stroke-linecap="round"/>
<line x1="1221.20" y1="1259.55" x2="1229.78" y2="1276.37" stroke="#D32F2F" stroke-width="8.00" stroke-linecap="round"/>
<line x1="1252.06" y1="1275.20" x2="1229.78" y2="1276.37" stroke="#D32F2F" stroke-width="8.00" stroke-linecap="round"/>
<line x1="1202.82" y1="1277.01" x2="1207.98" y2="1294.85" stroke="#D32F2F" stroke-width="8.00" stroke-linecap="round"/>
<line x1="1229.39" y1="1296.73" x2="1207.98" y2="1294.85" stroke="#D32F2F" stroke-width="8.00" stroke-linecap="round"/>
<line x1="1181.07" y1="1292.32" x2="1182.54" y2="1310.72" stroke="#D32F2F" stroke-width="8.00" stroke-linecap="round"/>
<line x1="1202.60" y1="1315.60" x2="1182.54" y2="1310.72" stroke="#D32F2F" stroke-width="8.00" stroke-linecap="round"/>
<line x1="1156.19" y1="1304.76" x2="1153.82" y2="1323.14" stroke="#D32F2F" stroke-width="8.00" stroke-linecap="round"/>
<line x1="1172.03" y1="1330.88" x2="1153.82" y2="1323.14" stroke="#D32F2F" stroke-width="8.00" stroke-linecap="round"/>
<line x1="1128.71" y1="1313.59" x2="1122.51" y2="1331.34" stroke="#D32F2F" stroke-width="8.00" stroke-linecap="round"/>
<line x1="1138.40" y1="1341.69" x2="1122.51" y2="1331.34" stroke="#D32F2F" stroke-width="8.00" stroke-linecap="round"/>
<line x1="1099.50" y1="1318.18" x2="1089.64" y2="1334.68" stroke="#D32F2F" stroke-width="8.00" stroke-linecap="round"/>
<line x1="1102.76" y1="1347.29" x2="1089.64" y2="1334.68" stroke="#D32F2F" stroke-width="8.00" stroke-linecap="round"/>
<line x1="1069.68" y1="1318.18" x2="1056.45" y2="1332.87" stroke="#D32F2F" stroke-width="8.00" stroke-linecap="round"/>
<line x1="1066.42" y1="1347.29" x2="1056.45" y2="1332.87" stroke="#D32F2F" stroke-width="8.00" stroke-linecap="round"/>
<line x1="1040.47" y1="1313.59" x2="1024.25" y2="1326.00" stroke="#D32F2F" stroke-width="8.00" stroke-linecap="round"/>
<line x1="1030.77" y1="1341.69" x2="1024.25" y2="1326.00" stroke="#D32F2F" stroke-width="8.00" stroke-linecap="round"/>
<line x1="1012.99" y1="1304.76" x2="994.23" y2="1314.51" stroke="#D32F2F" stroke-width="8.00" stroke-linecap="round"/>
<line x1="997.14" y1="1330.88" x2="994.23" y2="1314.51" stroke="#D32F2F" stroke-width="8.00" stroke-linecap="round"/>
<line x1="988.11" y1="1292.32" x2="967.30" y2="1299.14" stroke="#D32F2F" stroke-width="8.00" stroke-linecap="round"/>
<line x1="966.58" y1="1315.60" x2="967.30" y2="1299.14" stroke="#D32F2F" stroke-width="8.00" stroke-linecap="round"/>
<line x1="966.36" y1="1277.01" x2="944.00" y2="1280.73" stroke="#D32F2F" stroke-width="8.00" stroke-linecap="round"/>
<line x1="939.79" y1="1296.73" x2="944.00" y2="1280.73" stroke="#D32F2F" stroke-width="8.00" stroke-linecap="round"/>
<line x1="947.98" y1="1259.55" x2="924.56" y2="1260.10" stroke="#D32F2F" stroke-width="8.00" stroke-linecap="round"/>
<line x1="917.12" y1="1275.20" x2="924.56" y2="1260.10" stroke="#D32F2F" stroke-width="8.00" stroke-linecap="round"/>
<line x1="932.93" y1="1240.56" x2="908.95" y2="1237.99" stroke="#D32F2F" stroke-width="8.00" stroke-linecap="round"/>
<line x1="898.64" y1="1251.89" x2="908.95" y2="1237.99" stroke="#D32F2F" stroke-width="8.00" stroke-linecap="round"/>
<line x1="921.03" y1="1220.50" x2="896.93" y2="1214.96" stroke="#D32F2F" stroke-width="8.00" stroke-linecap="round"/>
<line x1="884.17" y1="1227.50" x2="896.93" y2="1214.96" stroke="#D32F2F" stroke-width="8.00" stroke-linecap="round"/>
<line x1="912.01" y1="1199.68" x2="888.18" y2="1191.44" stroke="#D32F2F" stroke-width="8.00" stroke-linecap="round"/>
<line x1="873.39" y1="1202.62" x2="888.18" y2="1191.44" stroke="#D32F2F" stroke-width="8.00" stroke-linecap="round"/>
<line x1="905.60" y1="1178.29" x2="882.35" y2="1167.71" stroke="#D32F2F" stroke-width="8.00" stroke-linecap="round"/>
<line x1="865.89" y1="1177.64" x2="882.35" y2="1167.71" stroke="#D32F2F" stroke-width="8.00" stroke-linecap="round"/>
<line x1="901.52" y1="1156.44" x2="879.03" y2="1143.94" stroke="#D32F2F" stroke-width="8.00" stroke-linecap="round"/>
<line x1="861.26" y1="1152.85" x2="879.03" y2="1143.94" stroke="#D32F2F" stroke-width="8.00" stroke-linecap="round"/>
<line x1="899.51" y1="1134.17" x2="877.89" y2="1120.23" stroke="#D32F2F" stroke-width="8.00" stroke-linecap="round"/>
<line x1="859.05" y1="1128.41" x2="877.89" y2="1120.23" stroke="#D32F2F" stroke-width="8.00" stroke-linecap="round"/>
<line x1="899.34" y1="1111.48" x2="878.57" y2="1096.61" stroke="#D32F2F" stroke-width="8.00" stroke-linecap="round"/>
<line x1="858.85" y1="1104.39" x2="878.57" y2="1096.61" stroke="#D32F2F" stroke-width="8.00" stroke-linecap="round"/>
<line x1="900.78" y1="1088.36" x2="880.76" y2="1073.10" stroke="#D32F2F" stroke-width="8.00" stroke-linecap="round"/>
<line x1="860.32" y1="1080.82" x2="880.76" y2="1073.10" stroke="#D32F2F" stroke-width="8.00" stroke-linecap="round"/>
<line x1="903.61" y1="1064.79" x2="884.19" y2="1049.68" stroke="#D32F2F" stroke-width="8.00" stroke-linecap="round"/>
<line x1="863.10" y1="1057.70" x2="884.19" y2="1049.68" stroke="#D32F2F" stroke-width="8.00" stroke-linecap="round"/>
<line x1="907.64" y1="1040.77" x2="888.58" y2="1026.34" stroke="#D32F2F" stroke-width="8.00" stroke-linecap="round"/>
<line x1="866.90" y1="1035.01" x2="888.58" y2="1026.34" stroke="#D32F2F" stroke-width="8.00" stroke-linecap="round"/>
<line x1="912.65" y1="1016.33" x2="893.70" y2="1003.09" stroke="#D32F2F" stroke-width="8.00" stroke-linecap="round"/>
<line x1="871.46" y1="1012.74" x2="893.70" y2="1003.09" stroke="#D32F2F" stroke-width="8.00" stroke-linecap="round"/>
<line x1="918.42" y1="991.54" x2="899.33" y2="979.99" stroke="#D32F2F" stroke-width="8.00" stroke-linecap="round"/>
<line x1="876.54" y1="990.89" x2="899.33" y2="979.99" stroke="#D32F2F" stroke-width="8.00" stroke-linecap="round"/>
<line x1="924.71" y1="966.56" x2="905.24" y2="957.15" stroke="#D32F2F" stroke-width="8.00" stroke-linecap="round"/>
<line x1="881.93" y1="969.50" x2="905.24" y2="957.15" stroke="#D32F2F" stroke-width="8.00" stroke-linecap="round"/>
<line x1="931.27" y1="941.68" x2="911.23" y2="934.76" stroke="#D32F2F" stroke-width="8.00" stroke-linecap="round"/>
<line x1="887.42" y1="948.68" x2="911.23" y2="934.76" stroke="#D32F2F" stroke-width="7.96" stroke-linecap="round"/>
<line x1="937.84" y1="917.29" x2="917.09" y2="913.16" stroke="#D32F2F" stroke-width="8.00" stroke-linecap="round"/>
<line x1="892.83" y1="928.62" x2="917.09" y2="913.16" stroke="#D32F2F" stroke-width="7.28" stroke-linecap="round"/>
<line x1="944.16" y1="893.98" x2="922.60" y2="892.81" stroke="#D32F2F" stroke-width="8.00" stroke-linecap="round"/>
<line x1="897.97" y1="909.63" x2="922.60" y2="892.81" stroke="#D32F2F" stroke-width="6.48" stroke-linecap="round"/>
<line x1="949.94" y1="872.45" x2="927.54" y2="874.33" stroke="#D32F2F" stroke-width="8.00" stroke-linecap="round"/>
<line x1="902.66" y1="892.17" x2="927.54" y2="874.33" stroke="#D32F2F" stroke-width="5.55" stroke-linecap="round"/>
<line x1="954.94" y1="853.58" x2="931.72" y2="858.46" stroke="#D32F2F" stroke-width="8.00" stroke-linecap="round"/>
<line x1="906.72" y1="876.86" x2="931.72" y2="858.46" stroke="#D32F2F" stroke-width="4.54" stroke-linecap="round"/>
<line x1="958.92" y1="838.30" x2="934.93" y2="846.04" stroke="#D32F2F" stroke-width="8.00" stroke-linecap="round"/>
<line x1="909.96" y1="864.42" x2="934.93" y2="846.04" stroke="#D32F2F" stroke-width="5.01" stroke-linecap="round"/>
<line x1="961.69" y1="827.49" x2="937.02" y2="837.84" stroke="#D32F2F" stroke-width="8.00" stroke-linecap="round"/>
<line x1="912.22" y1="855.59" x2="937.02" y2="837.84" stroke="#D32F2F" stroke-width="5.74" stroke-linecap="round"/>
<line x1="963.11" y1="821.89" x2="937.86" y2="834.50" stroke="#D32F2F" stroke-width="7.39" stroke-linecap="round"/>
<line x1="913.38" y1="851.00" x2="937.86" y2="834.50" stroke="#D32F2F" stroke-width="6.55" stroke-linecap="round"/>
<line x1="1206.07" y1="821.89" x2="1231.78" y2="836.31" stroke="#D32F2F" stroke-width="6.56" stroke-linecap="round"/>
<line x1="1255.80" y1="851.00" x2="1231.78" y2="836.31" stroke="#D32F2F" stroke-width="7.40" stroke-linecap="round"/>
<line x1="1207.49" y1="827.49" x2="1233.52" y2="843.18" stroke="#D32F2F" stroke-width="5.80" stroke-linecap="round"/>
<line x1="1256.96" y1="855.59" x2="1233.52" y2="843.18" stroke="#D32F2F" stroke-width="8.00" stroke-linecap="round"/>
<line x1="1210.26" y1="838.30" x2="1236.48" y2="854.67" stroke="#D32F2F" stroke-width="5.14" stroke-linecap="round"/>
<line x1="1259.22" y1="864.42" x2="1236.48" y2="854.67" stroke="#D32F2F" stroke-width="8.00" stroke-linecap="round"/>
<line x1="1214.24" y1="853.58" x2="1240.51" y2="870.04" stroke="#D32F2F" stroke-width="4.76" stroke-linecap="round"/>
<line x1="1262.46" y1="876.86" x2="1240.51" y2="870.04" stroke="#D32F2F" stroke-width="8.00" stroke-linecap="round"/>
<line x1="1219.23" y1="872.45" x2="1245.41" y2="888.45" stroke="#D32F2F" stroke-width="5.83" stroke-linecap="round"/>
<line x1="1266.52" y1="892.17" x2="1245.41" y2="888.45" stroke="#D32F2F" stroke-width="8.00" stroke-linecap="round"/>
<line x1="1225.02" y1="893.98" x2="1250.98" y2="909.08" stroke="#D32F2F" stroke-width="6.78" stroke-linecap="round"/>
<line x1="1271.21" y1="909.63" x2="1250.98" y2="909.08" stroke="#D32F2F" stroke-width="8.00" stroke-linecap="round"/>
<line x1="1231.33" y1="917.29" x2="1256.98" y2="931.19" stroke="#D32F2F" stroke-width="7.61" stroke-linecap="round"/>
<line x1="1276.35" y1="928.62" x2="1256.98" y2="931.19" stroke="#D32F2F" stroke-width="8.00" stroke-linecap="round"/>
<line x1="1237.91" y1="941.68" x2="1263.16" y2="954.22" stroke="#D32F2F" stroke-width="8.00" stroke-linecap="round"/>
<line x1="1281.76" y1="948.68" x2="1263.16" y2="954.22" stroke="#D32F2F" stroke-width="8.00" stroke-linecap="round"/>
<line x1="1244.47" y1="966.56" x2="1269.27" y2="977.74" stroke="#D32F2F" stroke-width="8.00" stroke-linecap="round"/>
<line x1="1287.25" y1="969.50" x2="1269.27" y2="977.74" stroke="#D32F2F" stroke-width="8.00" stroke-linecap="round"/>
<line x1="1250.76" y1="991.54" x2="1275.09" y2="1001.47" stroke="#D32F2F" stroke-width="8.00" stroke-linecap="round"/>
<line x1="1292.64" y1="990.89" x2="1275.09" y2="1001.47" stroke="#D32F2F" stroke-width="8.00" stroke-linecap="round"/>
<line x1="1256.53" y1="1016.33" x2="1280.36" y2="1025.24" stroke="#D32F2F" stroke-width="8.00" stroke-linecap="round"/>
<line x1="1297.72" y1="1012.74" x2="1280.36" y2="1025.24" stroke="#D32F2F" stroke-width="8.00" stroke-linecap="round"/>
<line x1="1261.54" y1="1040.77" x2="1284.85" y2="1048.95" stroke="#D32F2F" stroke-width="8.00" stroke-linecap="round"/>
<line x1="1302.28" y1="1035.01" x2="1284.85" y2="1048.95" stroke="#D32F2F" stroke-width="8.00" stroke-linecap="round"/>
<line x1="1265.56" y1="1064.79" x2="1288.33" y2="1072.57" stroke="#D32F2F" stroke-width="8.00" stroke-linecap="round"/>
<line x1="1306.08" y1="1057.70" x2="1288.33" y2="1072.57" stroke="#D32F2F" stroke-width="8.00" stroke-linecap="round"/>
<line x1="1268.40" y1="1088.36" x2="1290.56" y2="1096.08" stroke="#D32F2F" stroke-width="8.00" stroke-linecap="round"/>
<line x1="1308.86" y1="1080.82" x2="1290.56" y2="1096.08" stroke="#D32F2F" stroke-width="8.00" stroke-linecap="round"/>
<line x1="1269.84" y1="1111.48" x2="1291.28" y2="1119.50" stroke="#D32F2F" stroke-width="8.00" stroke-linecap="round"/>
<line x1="1310.32" y1="1104.39" x2="1291.28" y2="1119.50" stroke="#D32F2F" stroke-width="8.00" stroke-linecap="round"/>
<line x1="1269.67" y1="1134.17" x2="1290.23" y2="1142.84" stroke="#D32F2F" stroke-width="8.00" stroke-linecap="round"/>
<line x1="1310.13" y1="1128.41" x2="1290.23" y2="1142.84" stroke="#D32F2F" stroke-width="8.00" stroke-linecap="round"/>
<line x1="1267.66" y1="1156.44" x2="1287.12" y2="1166.09" stroke="#D32F2F" stroke-width="8.00" stroke-linecap="round"/>
<line x1="1307.92" y1="1152.85" x2="1287.12" y2="1166.09" stroke="#D32F2F" stroke-width="8.00" stroke-linecap="round"/>
<line x1="1263.58" y1="1178.29" x2="1281.66" y2="1189.19" stroke="#D32F2F" stroke-width="8.00" stroke-linecap="round"/>
<line x1="1303.28" y1="1177.64" x2="1281.66" y2="1189.19" stroke="#D32F2F" stroke-width="8.00" stroke-linecap="round"/>
<line x1="1257.17" y1="1199.68" x2="1273.52" y2="1212.03" stroke="#D32F2F" stroke-width="8.00" stroke-linecap="round"/>
<line x1="1295.79" y1="1202.62" x2="1273.52" y2="1212.03" stroke="#D32F2F" stroke-width="8.00" stroke-linecap="round"/>
<line x1="1248.15" y1="1220.50" x2="1262.35" y2="1234.42" stroke="#D32F2F" stroke-width="8.00" stroke-linecap="round"/>
<line x1="1285.01" y1="1227.50" x2="1262.35" y2="1234.42" stroke="#D32F2F" stroke-width="8.00" stroke-linecap="round"/>
<line x1="1236.25" y1="1240.56" x2="1247.86" y2="1256.02" stroke="#D32F2F" stroke-width="8.00" stroke-linecap="round"/>
<line x1="1270.54" y1="1251.89" x2="1247.86" y2="1256.02" stroke="#D32F2F" stroke-width="8.00" stroke-linecap="round"/>
<line x1="1221.20" y1="1259.55" x2="1229.78" y2="1276.37" stroke="#D32F2F" stroke-width="8.00" stroke-linecap="round"/>
<line x1="1252.06" y1="1275.20" x2="1229.78" y2="1276.37" stroke="#D32F2F" stroke-width="8.00" stroke-linecap="round"/>
<line x1="1202.82" y1="1277.01" x2="1207.98" y2="1294.85" stroke="#D32F2F" stroke-width="8.00" stroke-linecap="round"/>
<line x1="1229.39" y1="1296.73" x2="1207.98" y2="1294.85" stroke="#D32F2F" stroke-width="8.00" stroke-linecap="round"/>
<line x1="1181.07" y1="1292.32" x2="1182.54" y2="1310.72" stroke="#D32F2F" stroke-width="8.00" stroke-linecap="round"/>
<line x1="1202.60" y1="1315.60" x2="1182.54" y2="1310.72" stroke="#D32F2F" stroke-width="8.00" stroke-linecap="round"/>
<line x1="1156.19" y1="1304.76" x2="1153.82" y2="1323.14" stroke="#D32F2F" stroke-width="8.00" stroke-linecap="round"/>
<line x1="1172.03" y1="1330.88" x2="1153.82" y2="1323.14" stroke="#D32F2F" stroke-width="8.00" stroke-linecap="round"/>
<line x1="1128.71" y1="1313.59" x2="1122.51" y2="1331.34" stroke="#D32F2F" stroke-width="8.00" stroke-linecap="round"/>
<line x1="1138.40" y1="1341.69" x2="1122.51" y2="1331.34" stroke="#D32F2F" stroke-width="8.00" stroke-linecap="round"/>
<line x1="1099.50" y1="1318.18" x2="1089.64" y2="1334.68" stroke="#D32F2F" stroke-width="8.00" stroke-linecap="round"/>
<line x1="1102.76" y1="1347.29" x2="1089.64" y2="1334.68" stroke="#D32F2F" stroke-width="8.00" stroke-linecap="round"/>
<line x1="1069.68" y1="1318.18" x2="1056.45" y2="1332.87" stroke="#D32F2F" stroke-width="8.00" stroke-linecap="round"/>
<line x1="1066.42" y1="1347.29" x2="1056.45" y2="1332.87" stroke="#D32F2F" stroke-width="8.00" stroke-linecap="round"/>
<line x1="1040.47" y1="1313.59" x2="1024.25" y2="1326.00" stroke="#D32F2F" stroke-width="8.00" stroke-linecap="round"/>
<line x1="1030.77" y1="1341.69" x2="1024.25" y2="1326.00" stroke="#D32F2F" stroke-width="8.00" stroke-linecap="round"/>
<line x1="1012.99" y1="1304.76" x2="994.23" y2="1314.51" stroke="#D32F2F" stroke-width="8.00" stroke-linecap="round"/>
<line x1="997.14" y1="1330.88" x2="994.23" y2="1314.51" stroke="#D32F2F" stroke-width="8.00" stroke-linecap="round"/>
<line x1="988.11" y1="1292.32" x2="967.30" y2="1299.14" stroke="#D32F2F" stroke-width="8.00" stroke-linecap="round"/>
<line x1="966.58" y1="1315.60" x2="967.30" y2="1299.14" stroke="#D32F2F" stroke-width="8.00" stroke-linecap="round"/>
<line x1="966.36" y1="1277.01" x2="944.00" y2="1280.73" stroke="#D32F2F" stroke-width="8.00" stroke-linecap="round"/>
<line x1="939.79" y1="1296.73" x2="944.00" y2="1280.73" stroke="#D32F2F" stroke-width="8.00" stroke-linecap="round"/>
<line x1="947.98" y1="1259.55" x2="924.56" y2="1260.10" stroke="#D32F2F" stroke-width="8.00" stroke-linecap="round"/>
<line x1="917.12" y1="1275.20" x2="924.56" y2="1260.10" stroke="#D32F2F" stroke-width="8.00" stroke-linecap="round"/>
<line x1="932.93" y1="1240.56" x2="908.95" y2="1237.99" stroke="#D32F2F" stroke-width="8.00" stroke-linecap="round"/>
<line x1="898.64" y1="1251.89" x2="908.95" y2="1237.99" stroke="#D32F2F" stroke-width="8.00" stroke-linecap="round"/>
<line x1="921.03" y1="1220.50" x2="896.93" y2="1214.96" stroke="#D32F2F" stroke-width="8.00" stroke-linecap="round"/>
<line x1="884.17" y1="1227.50" x2="896.93" y2="1214.96" stroke="#D32F2F" stroke-width="8.00" stroke-linecap="round"/>
<line x1="912.01" y1="1199.68" x2="888.18" y2="1191.44" stroke="#D32F2F" stroke-width="8.00" stroke-linecap="round"/>
<line x1="873.39" y1="1202.62" x2="888.18" y2="1191.44" stroke="#D32F2F" stroke-width="8.00" stroke-linecap="round"/>
<line x1="905.60" y1="1178.29" x2="882.35" y2="1167.71" stroke="#D32F2F" stroke-width="8.00" stroke-linecap="round"/>
<line x1="865.89" y1="1177.64" x2="882.35" y2="1167.71" stroke="#D32F2F" stroke-width="8.00" stroke-linecap="round"/>
<line x1="901.52" y1="1156.44" x2="879.03" y2="1143.94" stroke="#D32F2F" stroke-width="8.00" stroke-linecap="round"/>
<line x1="861.26" y1="1152.85" x2="879.03" y2="1143.94" stroke="#D32F2F" stroke-width="8.00" stroke-linecap="round"/>
<line x1="899.51" y1="1134.17" x2="877.89" y2="1120.23" stroke="#D32F2F" stroke-width="8.00" stroke-linecap="round"/>
<line x1="859.05" y1="1128.41" x2="877.89" y2="1120.23" stroke="#D32F2F" stroke-width="8.00" stroke-linecap="round"/>
<line x1="899.34" y1="1111.48" x2="878.57" y2="1096.61" stroke="#D32F2F" stroke-width="8.00" stroke-linecap="round"/>
<line x1="858.85" y1="1104.39" x2="878.57" y2="1096.61" stroke="#D32F2F" stroke-width="8.00" stroke-linecap="round"/>
<line x1="900.78" y1="1088.36" x2="880.76" y2="1073.10" stroke="#D32F2F" stroke-width="8.00" stroke-linecap="round"/>
<line x1="860.32" y1="1080.82" x2="880.76" y2="1073.10" stroke="#D32F2F" stroke-width="8.00" stroke-linecap="round"/>
<line x1="903.61" y1="1064.79" x2="884.19" y2="1049.68" stroke="#D32F2F" stroke-width="8.00" stroke-linecap="round"/>
<line x1="863.10" y1="1057.70" x2="884.19" y2="1049.68" stroke="#D32F2F" stroke-width="8.00" stroke-linecap="round"/>
<line x1="907.64" y1="1040.77" x2="888.58" y2="1026.34" stroke="#D32F2F" stroke-width="8.00" stroke-linecap="round"/>
<line x1="866.90" y1="1035.01" x2="888.58" y2="1026.34" stroke="#D32F2F" stroke-width="8.00" stroke-linecap="round"/>
<line x1="912.65" y1="1016.33" x2="893.70" y2="1003.09" stroke="#D32F2F" stroke-width="8.00" stroke-linecap="round"/>
<line x1="871.46" y1="1012.74" x2="893.70" y2="1003.09" stroke="#D32F2F" stroke-width="8.00" stroke-linecap="round"/>
<line x1="918.42" y1="991.54" x2="899.33" y2="979.99" stroke="#D32F2F" stroke-width="8.00" stroke-linecap="round"/>
<line x1="876.54" y1="990.89" x2="899.33" y2="979.99" stroke="#D32F2F" stroke-width="8.00" stroke-linecap="round"/>
<line x1="924.71" y1="966.56" x2="905.24" y2="957.15" stroke="#D32F2F" stroke-width="8.00" stroke-linecap="round"/>
<line x1="881.93" y1="969.50" x2="905.24" y2="957.15" stroke="#D32F2F" stroke-width="8.00" stroke-linecap="round"/>
<line x1="931.27" y1="941.68" x2="911.23" y2="934.76" stroke="#D32F2F" stroke-width="8.00" stroke-linecap="round"/>
<line x1="887.42" y1="948.68" x2="911.23" y2="934.76" stroke="#D32F2F" stroke-width="7.96" stroke-linecap="round"/>
<line x1="937.84" y1="917.29" x2="917.09" y2="913.16" stroke="#D32F2F" stroke-width="8.00" stroke-linecap="round"/>
<line x1="892.83" y1="928.62" x2="917.09" y2="913.16" stroke="#D32F2F" stroke-width="7.28" stroke-linecap="round"/>
<line x1="944.16" y1="893.98" x2="922.60" y2="892.81" stroke="#D32F2F" stroke-width="8.00" stroke-linecap="round"/>
<line x1="897.97" y1="909.63" x2="922.60" y2="892.81" stroke="#D32F2F" stroke-width="6.48" stroke-linecap="round"/>
<line x1="949.94" y1="872.45" x2="927.54" y2="874.33" stroke="#D32F2F" stroke-width="8.00" stroke-linecap="round"/>
<line x1="902.66" y1="892.17" x2="927.54" y2="874.33" stroke="#D32F2F" stroke-width="5.55" stroke-linecap="round"/>
<line x1="954.94" y1="853.58" x2="931.72" y2="858.46" stroke="#D32F2F" stroke-width="8.00" stroke-linecap="round"/>
<line x1="906.72" y1="876.86" x2="931.72" y2="858.46" stroke="#D32F2F" stroke-width="4.54" stroke-linecap="round"/>
<line x1="958.92" y1="838.30" x2="934.93" y2="846.04" stroke="#D32F2F" stroke-width="8.00" stroke-linecap="round"/>
<line x1="909.96" y1="864.42" x2="934.93" y2="846.04" stroke="#D32F2F" stroke-width="5.01" stroke-linecap="round"/>
<line x1="961.69" y1="827.49" x2="937.02" y2="837.84" stroke="#D32F2F" stroke-width="8.00" stroke-linecap="round"/>
<line x1="912.22" y1="855.59" x2="937.02" y2="837.84" stroke="#D32F2F" stroke-width="5.74" stroke-linecap="round"/>
<line x1="963.11" y1="821.89" x2="937.86" y2="834.50" stroke="#D32F2F" stroke-width="7.39" stroke-linecap="round"/>
<line x1="913.38" y1="851.00" x2="937.86" y2="834.50" stroke="#D32F2F" stroke-width="6.55" stroke-linecap="round"/>
<circle cx="1084.59" cy="1084.59" r="290.0" fill="none" stroke="#ccc" stroke-width="0.5"/>
<line x1="504.59" y1="1084.59" x2="794.59" y2="1084.59" stroke="#A1A1AA" stroke-width="5" opacity="0.9"/>
<line x1="1374.59" y1="1084.59" x2="1664.59" y2="1084.59" stroke="#A1A1AA" stroke-width="5" opacity="0.9"/>
<line x1="1084.59" y1="1084.59" x2="1084.59" y2="1084.59" stroke="#A1A1AA" stroke-width="5" opacity="0.9"/>
<line x1="1084.59" y1="1664.59" x2="1084.59" y2="1374.59" stroke="#A1A1AA" stroke-width="5" opacity="0.9"/>
<line x1="1084.59" y1="794.59" x2="1084.59" y2="504.59" stroke="#A1A1AA" stroke-width="5" opacity="0.9"/>
<text x="1751.59" y="1084.59" font-family="Palatino, 'Palatino Linotype', 'Book Antiqua', Georgia, serif" font-style="italic" font-size="52" fill="#A1A1AA" text-anchor="middle" dominant-baseline="middle" opacity="0.9">x</text>
<text x="1084.59" y="1084.59" font-family="Palatino, 'Palatino Linotype', 'Book Antiqua', Georgia, serif" font-style="italic" font-size="52" fill="#A1A1AA" text-anchor="middle" dominant-baseline="middle" opacity="0.9">y</text>
<text x="1084.59" y="417.59" font-family="Palatino, 'Palatino Linotype', 'Book Antiqua', Georgia, serif" font-style="italic" font-size="52" fill="#A1A1AA" text-anchor="middle" dominant-baseline="middle" opacity="0.9">z</text>
</svg>