<svg width="2169" height="2169" viewBox="0 0 2169.1789 2169.1789" xmlns="http://www.w3.org/2000/svg">
<line x1="1327.18" y1="1019.59" x2="1569.77" y2="954.59" stroke="#A1A1AA" stroke-width="5" opacity="0.9"/>
<line x1="766.94" y1="869.47" x2="925.77" y2="977.03" stroke="#A1A1AA" stroke-width="5" opacity="0.9"/>
<line x1="1074.53" y1="1607.30" x2="1079.56" y2="1345.94" stroke="#A1A1AA" stroke-width="5" opacity="0.9"/>
<circle cx="1084.59" cy="1084.59" r="290.0" fill="#FDFDF5"/>
<line x1="1162.38" y1="805.38" x2="1191.55" y2="815.07" stroke="#D32F2F" stroke-width="5.27" stroke-linecap="round"/>
<line x1="1180.81" y1="813.87" x2="1208.90" y2="824.44" stroke="#D32F2F" stroke-width="6.21" stroke-linecap="round"/>
<line x1="1223.69" y1="830.17" x2="1208.90" y2="824.44" stroke="#D32F2F" stroke-width="8.00" stroke-linecap="round"/>
<line x1="1200.72" y1="827.35" x2="1227.43" y2="838.28" stroke="#D32F2F" stroke-width="7.14" stroke-linecap="round"/>
<line x1="1240.02" y1="841.23" x2="1227.43" y2="838.28" stroke="#D32F2F" stroke-width="8.00" stroke-linecap="round"/>
<line x1="1221.33" y1="845.30" x2="1246.41" y2="856.02" stroke="#D32F2F" stroke-width="8.00" stroke-linecap="round"/>
<line x1="1256.92" y1="855.94" x2="1246.41" y2="856.02" stroke="#D32F2F" stroke-width="8.00" stroke-linecap="round"/>
<line x1="1241.88" y1="866.89" x2="1265.12" y2="876.85" stroke="#D32F2F" stroke-width="8.00" stroke-linecap="round"/>
<line x1="1273.71" y1="873.58" x2="1265.12" y2="876.85" stroke="#D32F2F" stroke-width="8.00" stroke-linecap="round"/>
<line x1="1261.68" y1="891.11" x2="1282.97" y2="899.79" stroke="#D32F2F" stroke-width="8.00" stroke-linecap="round"/>
<line x1="1289.82" y1="893.29" x2="1282.97" y2="899.79" stroke="#D32F2F" stroke-width="8.00" stroke-linecap="round"/>
<line x1="1280.20" y1="916.93" x2="1299.52" y2="923.92" stroke="#D32F2F" stroke-width="8.00" stroke-linecap="round"/>
<line x1="1304.86" y1="914.25" x2="1299.52" y2="923.92" stroke="#D32F2F" stroke-width="8.00" stroke-linecap="round"/>
<line x1="1297.08" y1="943.44" x2="1314.47" y2="948.47" stroke="#D32F2F" stroke-width="8.00" stroke-linecap="round"/>
<line x1="1318.55" y1="935.75" x2="1314.47" y2="948.47" stroke="#D32F2F" stroke-width="8.00" stroke-linecap="round"/>
<line x1="1312.08" y1="969.89" x2="1327.65" y2="972.85" stroke="#D32F2F" stroke-width="8.00" stroke-linecap="round"/>
<line x1="1330.76" y1="957.29" x2="1327.65" y2="972.85" stroke="#D32F2F" stroke-width="8.00" stroke-linecap="round"/>
<line x1="1325.09" y1="995.76" x2="1339.00" y2="996.67" stroke="#D32F2F" stroke-width="8.00" stroke-linecap="round"/>
<line x1="1341.46" y1="978.57" x2="1339.00" y2="996.67" stroke="#D32F2F" stroke-width="8.00" stroke-linecap="round"/>
<line x1="1336.05" y1="1020.72" x2="1348.50" y2="1019.74" stroke="#D32F2F" stroke-width="8.00" stroke-linecap="round"/>
<line x1="1350.63" y1="999.45" x2="1348.50" y2="1019.74" stroke="#D32F2F" stroke-width="8.00" stroke-linecap="round"/>
<line x1="1344.98" y1="1044.59" x2="1356.15" y2="1041.99" stroke="#D32F2F" stroke-width="8.00" stroke-linecap="round"/>
<line x1="1358.27" y1="1019.90" x2="1356.15" y2="1041.99" stroke="#D32F2F" stroke-width="8.00" stroke-linecap="round"/>
<line x1="1351.91" y1="1067.36" x2="1361.96" y2="1063.46" stroke="#D32F2F" stroke-width="8.00" stroke-linecap="round"/>
<line x1="1364.38" y1="1039.96" x2="1361.96" y2="1063.46" stroke="#D32F2F" stroke-width="8.00" stroke-linecap="round"/>
<line x1="1356.89" y1="1089.09" x2="1365.93" y2="1084.25" stroke="#D32F2F" stroke-width="8.00" stroke-linecap="round"/>
<line x1="1368.91" y1="1059.76" x2="1365.93" y2="1084.25" stroke="#D32F2F" stroke-width="8.00" stroke-linecap="round"/>
<line x1="1359.95" y1="1109.90" x2="1368.06" y2="1104.50" stroke="#D32F2F" stroke-width="8.00" stroke-linecap="round"/>
<line x1="1371.79" y1="1079.42" x2="1368.06" y2="1104.50" stroke="#D32F2F" stroke-width="8.00" stroke-linecap="round"/>
<line x1="1361.11" y1="1129.97" x2="1368.31" y2="1124.38" stroke="#D32F2F" stroke-width="8.00" stroke-linecap="round"/>
<line x1="1372.93" y1="1099.10" x2="1368.31" y2="1124.38" stroke="#D32F2F" stroke-width="8.00" stroke-linecap="round"/>
<line x1="1360.39" y1="1149.45" x2="1366.64" y2="1144.05" stroke="#D32F2F" stroke-width="8.00" stroke-linecap="round"/>
<line x1="1372.19" y1="1118.96" x2="1366.64" y2="1144.05" stroke="#D32F2F" stroke-width="8.00" stroke-linecap="round"/>
<line x1="1357.77" y1="1168.52" x2="1362.95" y2="1163.69" stroke="#D32F2F" stroke-width="8.00" stroke-linecap="round"/>
<line x1="1369.41" y1="1139.15" x2="1362.95" y2="1163.69" stroke="#D32F2F" stroke-width="8.00" stroke-linecap="round"/>
<line x1="1353.21" y1="1187.36" x2="1357.14" y2="1183.44" stroke="#D32F2F" stroke-width="8.00" stroke-linecap="round"/>
<line x1="1161.83" y1="1361.95" x2="1137.35" y2="1369.24" stroke="#D32F2F" stroke-width="8.00" stroke-linecap="round"/>
<line x1="1138.11" y1="1364.79" x2="1111.50" y2="1370.91" stroke="#D32F2F" stroke-width="7.88" stroke-linecap="round"/>
<line x1="1102.42" y1="1373.94" x2="1111.50" y2="1370.91" stroke="#D32F2F" stroke-width="8.00" stroke-linecap="round"/>
<line x1="1116.52" y1="1363.83" x2="1088.20" y2="1368.39" stroke="#D32F2F" stroke-width="7.17" stroke-linecap="round"/>
<line x1="1076.00" y1="1372.76" x2="1088.20" y2="1368.39" stroke="#D32F2F" stroke-width="8.00" stroke-linecap="round"/>
<line x1="1097.69" y1="1359.40" x2="1068.14" y2="1362.07" stroke="#D32F2F" stroke-width="6.51" stroke-linecap="round"/>
<line x1="1052.87" y1="1367.32" x2="1068.14" y2="1362.07" stroke="#D32F2F" stroke-width="8.00" stroke-linecap="round"/>
<line x1="1081.99" y1="1351.98" x2="1051.66" y2="1352.51" stroke="#D32F2F" stroke-width="5.96" stroke-linecap="round"/>
<line x1="1033.52" y1="1358.17" x2="1051.66" y2="1352.51" stroke="#D32F2F" stroke-width="8.00" stroke-linecap="round"/>
<line x1="1069.49" y1="1342.10" x2="1038.81" y2="1340.35" stroke="#D32F2F" stroke-width="5.54" stroke-linecap="round"/>
<line x1="1018.10" y1="1346.00" x2="1038.81" y2="1340.35" stroke="#D32F2F" stroke-width="8.00" stroke-linecap="round"/>
<line x1="1060.04" y1="1330.27" x2="1029.41" y2="1326.14" stroke="#D32F2F" stroke-width="5.29" stroke-linecap="round"/>
<line x1="1006.51" y1="1331.47" x2="1029.41" y2="1326.14" stroke="#D32F2F" stroke-width="8.00" stroke-linecap="round"/>
<line x1="1053.40" y1="1316.86" x2="1023.14" y2="1310.38" stroke="#D32F2F" stroke-width="5.85" stroke-linecap="round"/>
<line x1="998.42" y1="1315.17" x2="1023.14" y2="1310.38" stroke="#D32F2F" stroke-width="8.00" stroke-linecap="round"/>
<line x1="1049.22" y1="1302.16" x2="1019.59" y2="1293.41" stroke="#D32F2F" stroke-width="6.52" stroke-linecap="round"/>
<line x1="993.43" y1="1297.60" x2="1019.59" y2="1293.41" stroke="#D32F2F" stroke-width="8.00" stroke-linecap="round"/>
<line x1="1047.18" y1="1286.32" x2="1018.30" y2="1275.48" stroke="#D32F2F" stroke-width="7.08" stroke-linecap="round"/>
<line x1="991.04" y1="1279.10" x2="1018.30" y2="1275.48" stroke="#D32F2F" stroke-width="8.00" stroke-linecap="round"/>
<line x1="1046.93" y1="1269.42" x2="1018.83" y2="1256.76" stroke="#D32F2F" stroke-width="7.54" stroke-linecap="round"/>
<line x1="990.75" y1="1259.94" x2="1018.83" y2="1256.76" stroke="#D32F2F" stroke-width="8.00" stroke-linecap="round"/>
<line x1="1048.13" y1="1251.49" x2="1020.74" y2="1237.31" stroke="#D32F2F" stroke-width="7.93" stroke-linecap="round"/>
<line x1="992.07" y1="1240.26" x2="1020.74" y2="1237.31" stroke="#D32F2F" stroke-width="8.00" stroke-linecap="round"/>
<line x1="1050.46" y1="1232.49" x2="1023.62" y2="1217.17" stroke="#D32F2F" stroke-width="8.00" stroke-linecap="round"/>
<line x1="994.53" y1="1220.15" x2="1023.62" y2="1217.17" stroke="#D32F2F" stroke-width="8.00" stroke-linecap="round"/>
<line x1="1053.59" y1="1212.37" x2="1027.09" y2="1196.31" stroke="#D32F2F" stroke-width="8.00" stroke-linecap="round"/>
<line x1="997.72" y1="1199.64" x2="1027.09" y2="1196.31" stroke="#D32F2F" stroke-width="8.00" stroke-linecap="round"/>
<line x1="1057.17" y1="1191.03" x2="1030.75" y2="1174.70" stroke="#D32F2F" stroke-width="8.00" stroke-linecap="round"/>
<line x1="1001.23" y1="1178.71" x2="1030.75" y2="1174.70" stroke="#D32F2F" stroke-width="8.00" stroke-linecap="round"/>
<line x1="1060.85" y1="1168.41" x2="1034.26" y2="1152.30" stroke="#D32F2F" stroke-width="8.00" stroke-linecap="round"/>
<line x1="1004.71" y1="1157.35" x2="1034.26" y2="1152.30" stroke="#D32F2F" stroke-width="8.00" stroke-linecap="round"/>
<line x1="1064.26" y1="1144.44" x2="1037.24" y2="1129.05" stroke="#D32F2F" stroke-width="8.00" stroke-linecap="round"/>
<line x1="1007.81" y1="1135.51" x2="1037.24" y2="1129.05" stroke="#D32F2F" stroke-width="8.00" stroke-linecap="round"/>
<line x1="1066.97" y1="1119.09" x2="1039.36" y2="1104.94" stroke="#D32F2F" stroke-width="8.00" stroke-linecap="round"/>
<line x1="1010.20" y1="1113.16" x2="1039.36" y2="1104.94" stroke="#D32F2F" stroke-width="8.00" stroke-linecap="round"/>
<line x1="1068.56" y1="1092.39" x2="1040.24" y2="1080.01" stroke="#D32F2F" stroke-width="8.00" stroke-linecap="round"/>
<line x1="1011.57" y1="1090.30" x2="1040.24" y2="1080.01" stroke="#D32F2F" stroke-width="8.00" stroke-linecap="round"/>
<line x1="1068.58" y1="1064.49" x2="1039.53" y2="1054.35" stroke="#D32F2F" stroke-width="8.00" stroke-linecap="round"/>
<line x1="1011.59" y1="1066.96" x2="1039.53" y2="1054.35" stroke="#D32F2F" stroke-width="8.00" stroke-linecap="round"/>
<line x1="1066.57" y1="1035.68" x2="1036.86" y2="1028.20" stroke="#D32F2F" stroke-width="8.00" stroke-linecap="round"/>
<line x1="1009.94" y1="1043.26" x2="1036.86" y2="1028.20" stroke="#D32F2F" stroke-width="8.00" stroke-linecap="round"/>
<line x1="1062.14" y1="1006.39" x2="1031.92" y2="1001.92" stroke="#D32F2F" stroke-width="8.00" stroke-linecap="round"/>
<line x1="1006.33" y1="1019.41" x2="1031.92" y2="1001.92" stroke="#D32F2F" stroke-width="8.00" stroke-linecap="round"/>
<line x1="1054.94" y1="977.29" x2="1024.44" y2="976.06" stroke="#D32F2F" stroke-width="8.00" stroke-linecap="round"/>
<line x1="1000.49" y1="995.80" x2="1024.44" y2="976.06" stroke="#D32F2F" stroke-width="8.00" stroke-linecap="round"/>
<line x1="1044.77" y1="949.23" x2="1014.28" y2="951.39" stroke="#D32F2F" stroke-width="8.00" stroke-linecap="round"/>
<line x1="992.24" y1="973.03" x2="1014.28" y2="951.39" stroke="#D32F2F" stroke-width="8.00" stroke-linecap="round"/>
<line x1="1031.63" y1="923.23" x2="1001.45" y2="928.82" stroke="#D32F2F" stroke-width="8.00" stroke-linecap="round"/>
<line x1="981.54" y1="951.86" x2="1001.45" y2="928.82" stroke="#D32F2F" stroke-width="8.00" stroke-linecap="round"/>
<line x1="1015.71" y1="900.40" x2="986.19" y2="909.36" stroke="#D32F2F" stroke-width="7.52" stroke-linecap="round"/>
<line x1="968.53" y1="933.21" x2="986.19" y2="909.36" stroke="#D32F2F" stroke-width="8.00" stroke-linecap="round"/>
<line x1="997.47" y1="881.81" x2="968.95" y2="893.96" stroke="#D32F2F" stroke-width="6.61" stroke-linecap="round"/>
<line x1="953.59" y1="917.98" x2="968.95" y2="893.96" stroke="#D32F2F" stroke-width="8.00" stroke-linecap="round"/>
<line x1="977.57" y1="868.33" x2="950.36" y2="883.39" stroke="#D32F2F" stroke-width="5.62" stroke-linecap="round"/>
<line x1="937.25" y1="906.92" x2="950.36" y2="883.39" stroke="#D32F2F" stroke-width="8.00" stroke-linecap="round"/>
<line x1="956.76" y1="860.48" x2="931.14" y2="878.03" stroke="#D32F2F" stroke-width="5.18" stroke-linecap="round"/>
<line x1="920.20" y1="900.48" x2="931.14" y2="878.03" stroke="#D32F2F" stroke-width="8.00" stroke-linecap="round"/>
<line x1="935.84" y1="858.36" x2="912.03" y2="877.91" stroke="#D32F2F" stroke-width="5.52" stroke-linecap="round"/>
<line x1="903.11" y1="898.75" x2="912.03" y2="877.91" stroke="#D32F2F" stroke-width="8.00" stroke-linecap="round"/>
<line x1="915.51" y1="861.69" x2="893.64" y2="882.68" stroke="#D32F2F" stroke-width="6.00" stroke-linecap="round"/>
<line x1="886.56" y1="901.46" x2="893.64" y2="882.68" stroke="#D32F2F" stroke-width="8.00" stroke-linecap="round"/>
<line x1="896.33" y1="869.88" x2="876.46" y2="891.73" stroke="#D32F2F" stroke-width="6.58" stroke-linecap="round"/>
<line x1="870.99" y1="908.10" x2="876.46" y2="891.73" stroke="#D32F2F" stroke-width="8.00" stroke-linecap="round"/>
<line x1="878.71" y1="882.17" x2="860.80" y2="904.36" stroke="#D32F2F" stroke-width="7.18" stroke-linecap="round"/>
<line x1="856.70" y1="918.07" x2="860.80" y2="904.36" stroke="#D32F2F" stroke-width="8.00" stroke-linecap="round"/>
<line x1="862.90" y1="897.74" x2="846.85" y2="919.84" stroke="#D32F2F" stroke-width="7.78" stroke-linecap="round"/>
<line x1="843.82" y1="930.76" x2="846.85" y2="919.84" stroke="#D32F2F" stroke-width="8.00" stroke-linecap="round"/>
<line x1="832.43" y1="945.64" x2="834.70" y2="937.52" stroke="#D32F2F" stroke-width="8.00" stroke-linecap="round"/>
<line x1="1162.38" y1="805.38" x2="1191.55" y2="815.07" stroke="#D32F2F" stroke-width="5.27" stroke-linecap="round"/>
<line x1="1180.81" y1="813.87" x2="1208.90" y2="824.44" stroke="#D32F2F" stroke-width="6.21" stroke-linecap="round"/>
<line x1="1223.69" y1="830.17" x2="1208.90" y2="824.44" stroke="#D32F2F" stroke-width="8.00" stroke-linecap="round"/>
<line x1="1200.72" y1="827.35" x2="1227.43" y2="838.28" stroke="#D32F2F" stroke-width="7.14" stroke-linecap="round"/>
<line x1="1240.02" y1="841.23" x2="1227.43" y2="838.28" stroke="#D32F2F" stroke-width="8.00" stroke-linecap="round"/>
<line x1="1221.33" y1="845.30" x2="1246.41" y2="856.02" stroke="#D32F2F" stroke-width="8.00" stroke-linecap="round"/>
<line x1="1256.92" y1="855.94" x2="1246.41" y2="856.02" stroke="#D32F2F" stroke-width="8.00" stroke-linecap="round"/>
<line x1="1241.88" y1="866.89" x2="1265.12" y2="876.85" stroke="#D32F2F" stroke-width="8.00" stroke-linecap="round"/>
<line x1="1273.71" y1="873.58" x2="1265.12" y2="876.85" stroke="#D32F2F" stroke-width="8.00" stroke-linecap="round"/>
<line x1="1261.68" y1="891.11" x2="1282.97" y2="899.79" stroke="#D32F2F" stroke-width="8.00" stroke-linecap="round"/>
<line x1="1289.82" y1="893.29" x2="1282.97" y2="899.79" stroke="#D32F2F" stroke-width="8.00" stroke-linecap="round"/>
<line x1="1280.20" y1="916.93" x2="1299.52" y2="923.92" stroke="#D32F2F" stroke-width="8.00" stroke-linecap="round"/>
<line x1="1304.86" y1="914.25" x2="1299.52" y2="923.92" stroke="#D32F2F" stroke-width="8.00" stroke-linecap="round"/>
<line x1="1297.08" y1="943.44" x2="1314.47" y2="948.47" stroke="#D32F2F" stroke-width="8.00" stroke-linecap="round"/>
<line x1="1318.55" y1="935.75" x2="1314.47" y2="948.47" stroke="#D32F2F" stroke-width="8.00" stroke-linecap="round"/>
<line x1="1312.08" y1="969.89" x2="1327.65" y2="972.85" stroke="#D32F2F" stroke-width="8.00" stroke-linecap="round"/>
<line x1="1330.76" y1="957.29" x2="1327.65" y2="972.85" stroke="#D32F2F" stroke-width="8.00" stroke-linecap="round"/>
<line x1="1325.09" y1="995.76" x2="1339.00" y2="996.67" stroke="#D32F2F" stroke-width="8.00" stroke-linecap="round"/>
<line x1="1341.46" y1="978.57" x2="1339.00" y2="996.67" stroke="#D32F2F" stroke-width="8.00" stroke-linecap="round"/>
<line x1="1336.05" y1="1020.72" x2="1348.50" y2="1019.74" stroke="#D32F2F" stroke-width="8.00" stroke-linecap="round"/>
<line x1="1350.63" y1="999.45" x2="1348.50" y2="1019.74" stroke="#D32F2F" stroke-width="8.00" stroke-linecap="round"/>
<line x1="1344.98" y1="1044.59" x2="1356.15" y2="1041.99" stroke="#D32F2F" stroke-width="8.00" stroke-linecap="round"/>
<line x1="1358.27" y1="1019.90" x2="1356.15" y2="1041.99" stroke="#D32F2F" stroke-width="8.00" stroke-linecap="round"/>
<line x1="1351.91" y1="1067.36" x2="1361.96" y2="1063.46" stroke="#D32F2F" stroke-width="8.00" stroke-linecap="round"/>
<line x1="1364.38" y1="1039.96" x2="1361.96" y2="1063.46" stroke="#D32F2F" stroke-width="8.00" stroke-linecap="round"/>
<line x1="1356.89" y1="1089.09" x2="1365.93" y2="1084.25" stroke="#D32F2F" stroke-width="8.00" stroke-linecap="round"/>
<line x1="1368.91" y1="1059.76" x2="1365.93" y2="1084.25" stroke="#D32F2F" stroke-width="8.00" stroke-linecap="round"/>
<line x1="1359.95" y1="1109.90" x2="1368.06" y2="1104.50" stroke="#D32F2F" stroke-width="8.00" stroke-linecap="round"/>
<line x1="1371.79" y1="1079.42" x2="1368.06" y2="1104.50" stroke="#D32F2F" stroke-width="8.00" stroke-linecap="round"/>
<line x1="1361.11" y1="1129.97" x2="1368.31" y2="1124.38" stroke="#D32F2F" stroke-width="8.00" stroke-linecap="round"/>
<line x1="1372.93" y1="1099.10" x2="1368.31" y2="1124.38" stroke="#D32F2F" stroke-width="8.00" stroke-linecap="round"/>
<line x1="1360.39" y1="1149.45" x2="1366.64" y2="1144.05" stroke="#D32F2F" stroke-width="8.00" stroke-linecap="round"/>
<line x1="1372.19" y1="1118.96" x2="1366.64" y2="1144.05" stroke="#D32F2F" stroke-width="8.00" stroke-linecap="round"/>
<line x1="1357.77" y1="1168.52" x2="1362.95" y2="1163.69" stroke="#D32F2F" stroke-width="8.00" stroke-linecap="round"/>
<line x1="1369.41" y1="1139.15" x2="1362.95" y2="1163.69" stroke="#D32F2F" stroke-width="8.00" stroke-linecap="round"/>
<line x1="1353.21" y1="1187.36" x2="1357.14" y2="1183.44" stroke="#D32F2F" stroke-width="8.00" stroke-linecap="round"/>
<line x1="1161.83" y1="1361.95" x2="1137.35" y2="1369.24" stroke="#D32F2F" stroke-width="8.00" stroke-linecap="round"/>
<line x1="1138.11" y1="1364.79" x2="1111.50" y2="1370.91" stroke="#D32F2F" stroke-width="7.88" stroke-linecap="round"/>
<line x1="1102.42" y1="1373.94" x2="1111.50" y2="1370.91" stroke="#D32F2F" stroke-width="8.00" stroke-linecap="round"/>
<line x1="1116.52" y1="1363.83" x2="1088.20" y2="1368.39" stroke="#D32F2F" stroke-width="7.17" stroke-linecap="round"/>
<line x1="1076.00" y1="1372.76" x2="1088.20" y2="1368.39" stroke="#D32F2F" stroke-width="8.00" stroke-linecap="round"/>
<line x1="1097.69" y1="1359.40" x2="1068.14" y2="1362.07" stroke="#D32F2F" stroke-width="6.51" stroke-linecap="round"/>
<line x1="1052.87" y1="1367.32" x2="1068.14" y2="1362.07" stroke="#D32F2F" stroke-width="8.00" stroke-linecap="round"/>
<line x1="1081.99" y1="1351.98" x2="1051.66" y2="1352.51" stroke="#D32F2F" stroke-width="5.96" stroke-linecap="round"/>
<line x1="1033.52" y1="1358.17" x2="1051.66" y2="1352.51" stroke="#D32F2F" stroke-width="8.00" stroke-linecap="round"/>
<line x1="1069.49" y1="1342.10" x2="1038.81" y2="1340.35" stroke="#D32F2F" stroke-width="5.54" stroke-linecap="round"/>
<line x1="1018.10" y1="1346.00" x2="1038.81" y2="1340.35" stroke="#D32F2F" stroke-width="8.00" stroke-linecap="round"/>
<line x1="1060.04" y1="1330.27" x2="1029.41" y2="1326.14" stroke="#D32F2F" stroke-width="5.29" stroke-linecap="round"/>
<line x1="1006.51" y1="1331.47" x2="1029.41" y2="1326.14" stroke="#D32F2F" stroke-width="8.00" stroke-linecap="round"/>
<line x1="1053.40" y1="1316.86" x2="1023.14" y2="1310.38" stroke="#D32F2F" stroke-width="5.85" stroke-linecap="round"/>
<line x1="998.42" y1="1315.17" x2="1023.14" y2="1310.38" stroke="#D32F2F" stroke-width="8.00" stroke-linecap="round"/>
<line x1="1049.22" y1="1302.16" x2="1019.59" y2="1293.41" stroke="#D32F2F" stroke-width="6.52" stroke-linecap="round"/>
<line x1="993.43" y1="1297.60" x2="1019.59" y2="1293.41" stroke="#D32F2F" stroke-width="8.00" stroke-linecap="round"/>
<line x1="1047.18" y1="1286.32" x2="1018.30" y2="1275.48" stroke="#D32F2F" stroke-width="7.08" stroke-linecap="round"/>
<line x1="991.04" y1="1279.10" x2="1018.30" y2="1275.48" stroke="#D32F2F" stroke-width="8.00" stroke-linecap="round"/>
<line x1="1046.93" y1="1269.42" x2="1018.83" y2="1256.76" stroke="#D32F2F" stroke-width="7.54" stroke-linecap="round"/>
<line x1="990.75" y1="1259.94" x2="1018.83" y2="1256.76" stroke="#D32F2F" stroke-width="8.00" stroke-linecap="round"/>
<line x1="1048.13" y1="1251.49" x2="1020.74" y2="1237.31" stroke="#D32F2F" stroke-width="7.93" stroke-linecap="round"/>
<line x1="992.07" y1="1240.26" x2="1020.74" y2="1237.31" stroke="#D32F2F" stroke-width="8.00" stroke-linecap="round"/>
<line x1="1050.46" y1="1232.49" x2="1023.62" y2="1217.17" stroke="#D32F2F" stroke-width="8.00" stroke-linecap="round"/>
<line x1="994.53" y1="1220.15" x2="1023.62" y2="1217.17" stroke="#D32F2F" stroke-width="8.00" stroke-linecap="round"/>
<line x1="1053.59" y1="1212.37" x2="1027.09" y2="1196.31" stroke="#D32F2F" stroke-width="8.00" stroke-linecap="round"/>
<line x1="997.72" y1="1199.64" x2="1027.09" y2="1196.31" stroke="#D32F2F" stroke-width="8.00" stroke-linecap="round"/>
<line x1="1057.17" y1="1191.03" x2="1030.75" y2="1174.70" stroke="#D32F2F" stroke-width="8.00" stroke-linecap="round"/>
<line x1="1001.23" y1="1178.71" x2="1030.75" y2="1174.70" stroke="#D32F2F" stroke-width="8.00" stroke-linecap="round"/>
<line x1="1060.85" y1="1168.41" x2="1034.26" y2="1152.30" stroke="#D32F2F" stroke-width="8.00" stroke-linecap="round"/>
<line x1="1004.71" y1="1157.35" x2="1034.26" y2="1152.30" stroke="#D32F2F" stroke-width="8.00" stroke-linecap="round"/>
<line x1="1064.26" y1="1144.44" x2="1037.24" y2="1129.05" stroke="#D32F2F" stroke-width="8.00" stroke-linecap="round"/>
<line x1="1007.81" y1="1135.51" x2="1037.24" y2="1129.05" stroke="#D32F2F" stroke-width="8.00" stroke-linecap="round"/>
<line x1="1066.97" y1="1119.09" x2="1039.36" y2="1104.94" stroke="#D32F2F" stroke-width="8.00" stroke-linecap="round"/>
<line x1="1010.20" y1="1113.16" x2="1039.36" y2="1104.94" stroke="#D32F2F" stroke-width="8.00" stroke-linecap="round"/>
<line x1="1068.56" y1="1092.39" x2="1040.24" y2="1080.01" stroke="#D32F2F" stroke-width="8.00" stroke-linecap="round"/>
<line x1="1011.57" y1="1090.30" x2="1040.24" y2="1080.01" stroke="#D32F2F" stroke-width="8.00" stroke-linecap="round"/>
<line x1="1068.58" y1="1064.49" x2="1039.53" y2="1054.35" stroke="#D32F2F" stroke-width="8.00" stroke-linecap="round"/>
<line x1="1011.59" y1="1066.96" x2="1039.53" y2="1054.35" stroke="#D32F2F" stroke-width="8.00" stroke-linecap="round"/>
<line x1="1066.57" y1="1035.68" x2="1036.86" y2="1028.20" stroke="#D32F2F" stroke-width="8.00" stroke-linecap="round"/>
<line x1="1009.94" y1="1043.26" x2="1036.86" y2="1028.20" stroke="#D32F2F" stroke-width="8.00" stroke-linecap="round"/>
<line x1="1062.14" y1="1006.39" x2="1031.92" y2="1001.92" stroke="#D32F2F" stroke-width="8.00" stroke-linecap="round"/>
<line x1="1006.33" y1="1019.41" x2="1031.92" y2="1001.92" stroke="#D32F2F" stroke-width="8.00" stroke-linecap="round"/>
<line x1="1054.94" y1="977.29" x2="1024.44" y2="976.06" stroke="#D32F2F" stroke-width="8.00" stroke-linecap="round"/>
<line x1="1000.49" y1="995.80" x2="1024.44" y2="976.06" stroke="#D32F2F" stroke-width="8.00" stroke-linecap="round"/>
<line x1="1044.77" y1="949.23" x2="1014.28" y2="951.39" stroke="#D32F2F" stroke-width="8.00" stroke-linecap="round"/>
<line x1="992.24" y1="973.03" x2="1014.28" y2="951.39" stroke="#D32F2F" stroke-width="8.00" stroke-linecap="round"/>
<line x1="1031.63" y1="923.23" x2="1001.45" y2="928.82" stroke="#D32F2F" stroke-width="8.00" stroke-linecap="round"/>
<line x1="981.54" y1="951.86" x2="1001.45" y2="928.82" stroke="#D32F2F" stroke-width="8.00" stroke-linecap="round"/>
<line x1="1015.71" y1="900.40" x2="986.19" y2="909.36" stroke="#D32F2F" stroke-width="7.52" stroke-linecap="round"/>
<line x1="968.53" y1="933.21" x2="986.19" y2="909.36" stroke="#D32F2F" stroke-width="8.00" stroke-linecap="round"/>
<line x1="997.47" y1="881.81" x2="968.95" y2="893.96" stroke="#D32F2F" stroke-width="6.61" stroke-linecap="round"/>
<line x1="953.59" y1="917.98" x2="968.95" y2="893.96" stroke="#D32F2F" stroke-width="8.00" stroke-linecap="round"/>
<line x1="977.57" y1="868.33" x2="950.36" y2="883.39" stroke="#D32F2F" stroke-width="5.62" stroke-linecap="round"/>
<line x1="937.25" y1="906.92" x2="950.36" y2="883.39" stroke="#D32F2F" stroke-width="8.00" stroke-linecap="round"/>
<line x1="956.76" y1="860.48" x2="931.14" y2="878.03" stroke="#D32F2F" stroke-width="5.18" stroke-linecap="round"/>
<line x1="920.20" y1="900.48" x2="931.14" y2="878.03" stroke="#D32F2F" stroke-width="8.00" stroke-linecap="round"/>
<line x1="935.84" y1="858.36" x2="912.03" y2="877.91" stroke="#D32F2F" stroke-width="5.52" stroke-linecap="round"/>
<line x1="903.11" y1="898.75" x2="912.03" y2="877.91" stroke="#D32F2F" stroke-width="8.00" stroke-linecap="round"/>
<line x1="915.51" y1="861.69" x2="893.64" y2="882.68" stroke="#D32F2F" stroke-width="6.00" stroke-linecap="round"/>
<line x1="886.56" y1="901.46" x2="893.64" y2="882.68" stroke="#D32F2F" stroke-width="8.00" stroke-linecap="round"/>
<line x1="896.33" y1="869.88" x2="876.46" y2="891.73" stroke="#D32F2F" stroke-width="6.58" stroke-linecap="round"/>
<line x1="870.99" y1="908.10" x2="876.46" y2="891.73" stroke="#D32F2F" stroke-width="8.00" stroke-linecap="round"/>
<line x1="878.71" y1="882.17" x2="860.80" y2="904.36" stroke="#D32F2F" stroke-width="7.18" stroke-linecap="round"/>
<line x1="856.70" y1="918.07" x2="860.80" y2="904.36" stroke="#D32F2F" stroke-width="8.00" stroke-linecap="round"/>
<line x1="862.90" y1="897.74" x2="846.85" y2="919.84" stroke="#D32F2F" stroke-width="7.78" stroke-linecap="round"/>
<line x1="843.82" y1="930.76" x2="846.85" y2="919.84" stroke="#D32F2F" stroke-width="8.00" stroke-linecap="round"/>
<line x1="832.43" y1="945.64" x2="834.70" y2="937.52" stroke="#D32F2F" stroke-width="8.00" stroke-linecap="round"/>
<circle cx="1084.59" cy="1084.59" r="290.0" fill="none" stroke="#ccc" stroke-width="0.5"/>
<line x1="599.41" y1="1214.59" x2="842.00" y2="1149.59" stroke="#A1A1AA" stroke-width="5" opacity="0.9"/>
<line x1="1243.41" y1="1192.15" x2="1402.24" y2="1299.71" stroke="#A1A1AA" stroke-width="5" opacity="0.9"/>
<line x1="1089.62" y1="823.24" x2="1094.65" y2="561.88" stroke="#A1A1AA" stroke-width="5" opacity="0.9"/>
<polygon points="766.94,869.47 787.99,874.06 779.02,887.31" fill="#A1A1AA" opacity="0.9"/>
<text x="1642.55" y="935.09" font-family="Palatino, 'Palatino Linotype', 'Book Antiqua', Georgia, serif" font-style="italic" font-size="52" fill="#A1A1AA" text-anchor="middle" dominant-baseline="middle" opacity="0.9">x</text>
<text x="1478.47" y="1351.33" font-family="Palatino, 'Palatino Linotype', 'Book Antiqua', Georgia, serif" font-style="italic" font-size="52" fill="#A1A1AA" text-anchor="middle" dominant-baseline="middle" opacity="0.9">y</text>
<text x="1096.15" y="483.48" font-family="Palatino, 'Palatino Linotype', 'Book Antiqua', Georgia, serif" font-style="italic" font-size="52" fill="#A1A1AA" text-anchor="middle" dominant-baseline="middle" opacity="0.9">z</text>
</svg>