<svg width="1499" height="1499" viewBox="0 0 1499.4526 1499.4526" xmlns="http://www.w3.org/2000/svg">
<line x1="678.96" y1="891.26" x2="485.63" y2="221.53" stroke="#555" stroke-width="1.5" opacity="0.6"/>
<line x1="678.96" y1="891.26" x2="1348.69" y2="891.26" stroke="#555" stroke-width="1.5" opacity="0.6"/>
<line x1="846.39" y1="891.26" x2="653.06" y2="221.53" stroke="#888" stroke-width="1.0" opacity="0.35"/>
<line x1="630.63" y1="723.82" x2="1300.35" y2="723.82" stroke="#888" stroke-width="1.0" opacity="0.35"/>
<line x1="678.96" y1="891.26" x2="344.10" y2="1277.92" stroke="#555" stroke-width="1.5" opacity="0.6"/>
<line x1="595.25" y1="987.92" x2="401.91" y2="318.20" stroke="#888" stroke-width="1.0" opacity="0.35"/>
<line x1="595.25" y1="987.92" x2="1264.97" y2="987.92" stroke="#888" stroke-width="1.0" opacity="0.35"/>
<line x1="582.29" y1="556.39" x2="1252.02" y2="556.39" stroke="#888" stroke-width="1.0" opacity="0.35"/>
<line x1="1013.82" y1="891.26" x2="820.49" y2="221.53" stroke="#888" stroke-width="1.0" opacity="0.35"/>
<line x1="630.63" y1="723.82" x2="295.76" y2="1110.49" stroke="#888" stroke-width="1.0" opacity="0.35"/>
<line x1="846.39" y1="891.26" x2="511.53" y2="1277.92" stroke="#888" stroke-width="1.0" opacity="0.35"/>
<line x1="762.68" y1="987.92" x2="569.34" y2="318.20" stroke="#888" stroke-width="1.0" opacity="0.35"/>
<line x1="546.91" y1="820.49" x2="1216.64" y2="820.49" stroke="#888" stroke-width="1.0" opacity="0.35"/>
<line x1="533.96" y1="388.96" x2="1203.69" y2="388.96" stroke="#888" stroke-width="1.0" opacity="0.35"/>
<line x1="582.29" y1="556.39" x2="247.43" y2="943.06" stroke="#888" stroke-width="1.0" opacity="0.35"/>
<line x1="511.53" y1="1084.59" x2="318.20" y2="414.86" stroke="#888" stroke-width="1.0" opacity="0.35"/>
<line x1="1181.26" y1="891.26" x2="987.92" y2="221.53" stroke="#888" stroke-width="1.0" opacity="0.35"/>
<line x1="798.06" y1="723.82" x2="463.20" y2="1110.49" stroke="#888" stroke-width="1.0" opacity="0.35"/>
<line x1="511.53" y1="1084.59" x2="1181.26" y2="1084.59" stroke="#888" stroke-width="1.0" opacity="0.35"/>
<line x1="1013.82" y1="891.26" x2="678.96" y2="1277.92" stroke="#888" stroke-width="1.0" opacity="0.35"/>
<line x1="498.58" y1="653.06" x2="1168.31" y2="653.06" stroke="#888" stroke-width="1.0" opacity="0.35"/>
<line x1="930.11" y1="987.92" x2="736.78" y2="318.20" stroke="#888" stroke-width="1.0" opacity="0.35"/>
<line x1="485.63" y1="221.53" x2="1155.35" y2="221.53" stroke="#555" stroke-width="1.5" opacity="0.6"/>
<line x1="533.96" y1="388.96" x2="199.10" y2="775.63" stroke="#888" stroke-width="1.0" opacity="0.35"/>
<line x1="749.73" y1="556.39" x2="414.86" y2="943.06" stroke="#888" stroke-width="1.0" opacity="0.35"/>
<line x1="678.96" y1="1084.59" x2="485.63" y2="414.86" stroke="#888" stroke-width="1.0" opacity="0.35"/>
<line x1="1348.69" y1="891.26" x2="1155.35" y2="221.53" stroke="#555" stroke-width="1.5" opacity="0.6"/>
<line x1="965.49" y1="723.82" x2="630.63" y2="1110.49" stroke="#888" stroke-width="1.0" opacity="0.35"/>
<line x1="463.20" y1="917.16" x2="1132.92" y2="917.16" stroke="#888" stroke-width="1.0" opacity="0.35"/>
<line x1="1181.26" y1="891.26" x2="846.39" y2="1277.92" stroke="#888" stroke-width="1.0" opacity="0.35"/>
<line x1="450.25" y1="485.63" x2="1119.97" y2="485.63" stroke="#888" stroke-width="1.0" opacity="0.35"/>
<line x1="427.81" y1="1181.26" x2="234.48" y2="511.53" stroke="#888" stroke-width="1.0" opacity="0.35"/>
<line x1="1097.54" y1="987.92" x2="904.21" y2="318.20" stroke="#888" stroke-width="1.0" opacity="0.35"/>
<line x1="485.63" y1="221.53" x2="150.76" y2="608.20" stroke="#555" stroke-width="1.5" opacity="0.6"/>
<line x1="427.81" y1="1181.26" x2="1097.54" y2="1181.26" stroke="#888" stroke-width="1.0" opacity="0.35"/>
<line x1="701.39" y1="388.96" x2="366.53" y2="775.63" stroke="#888" stroke-width="1.0" opacity="0.35"/>
<circle cx="749.73" cy="749.73" r="290.0" fill="#FDFDF5"/>
<line x1="971.19" y1="563.77" x2="954.99" y2="544.89" stroke="#D32F2F" stroke-width="8.00" stroke-linecap="round"/>
<line x1="957.33" y1="550.24" x2="939.37" y2="531.09" stroke="#D32F2F" stroke-width="8.00" stroke-linecap="round"/>
<line x1="915.51" y1="511.87" x2="922.63" y2="519.63" stroke="#D32F2F" stroke-width="8.00" stroke-linecap="round"/>
<line x1="942.47" y1="538.82" x2="922.63" y2="519.63" stroke="#D32F2F" stroke-width="7.82" stroke-linecap="round"/>
<line x1="896.20" y1="500.92" x2="904.94" y2="511.05" stroke="#D32F2F" stroke-width="8.00" stroke-linecap="round"/>
<line x1="926.75" y1="529.90" x2="904.94" y2="511.05" stroke="#D32F2F" stroke-width="7.26" stroke-linecap="round"/>
<line x1="876.00" y1="493.61" x2="886.60" y2="505.94" stroke="#D32F2F" stroke-width="8.00" stroke-linecap="round"/>
<line x1="910.37" y1="523.97" x2="886.60" y2="505.94" stroke="#D32F2F" stroke-width="6.70" stroke-linecap="round"/>
<line x1="855.35" y1="490.66" x2="868.00" y2="504.92" stroke="#D32F2F" stroke-width="8.00" stroke-linecap="round"/>
<line x1="893.61" y1="521.58" x2="868.00" y2="504.92" stroke="#D32F2F" stroke-width="6.17" stroke-linecap="round"/>
<line x1="834.85" y1="492.71" x2="849.68" y2="508.52" stroke="#D32F2F" stroke-width="8.00" stroke-linecap="round"/>
<line x1="876.93" y1="523.25" x2="849.68" y2="508.52" stroke="#D32F2F" stroke-width="5.75" stroke-linecap="round"/>
<line x1="815.19" y1="500.17" x2="832.26" y2="517.08" stroke="#D32F2F" stroke-width="8.00" stroke-linecap="round"/>
<line x1="860.86" y1="529.35" x2="832.26" y2="517.08" stroke="#D32F2F" stroke-width="5.47" stroke-linecap="round"/>
<line x1="797.13" y1="513.13" x2="816.46" y2="530.62" stroke="#D32F2F" stroke-width="8.00" stroke-linecap="round"/>
<line x1="846.06" y1="539.97" x2="816.46" y2="530.62" stroke="#D32F2F" stroke-width="5.93" stroke-linecap="round"/>
<line x1="781.39" y1="531.31" x2="802.94" y2="548.78" stroke="#D32F2F" stroke-width="8.00" stroke-linecap="round"/>
<line x1="833.14" y1="554.89" x2="802.94" y2="548.78" stroke="#D32F2F" stroke-width="6.90" stroke-linecap="round"/>
<line x1="768.59" y1="553.98" x2="792.23" y2="570.83" stroke="#D32F2F" stroke-width="8.00" stroke-linecap="round"/>
<line x1="822.65" y1="573.47" x2="792.23" y2="570.83" stroke="#D32F2F" stroke-width="7.78" stroke-linecap="round"/>
<line x1="759.12" y1="580.15" x2="784.66" y2="595.79" stroke="#D32F2F" stroke-width="8.00" stroke-linecap="round"/>
<line x1="814.92" y1="594.85" x2="784.66" y2="595.79" stroke="#D32F2F" stroke-width="8.00" stroke-linecap="round"/>
<line x1="753.15" y1="608.67" x2="780.33" y2="622.57" stroke="#D32F2F" stroke-width="8.00" stroke-linecap="round"/>
<line x1="810.06" y1="618.07" x2="780.33" y2="622.57" stroke="#D32F2F" stroke-width="8.00" stroke-linecap="round"/>
<line x1="750.60" y1="638.41" x2="779.09" y2="650.16" stroke="#D32F2F" stroke-width="8.00" stroke-linecap="round"/>
<line x1="807.98" y1="642.20" x2="779.09" y2="650.16" stroke="#D32F2F" stroke-width="8.00" stroke-linecap="round"/>
<line x1="751.17" y1="668.38" x2="780.66" y2="677.74" stroke="#D32F2F" stroke-width="8.00" stroke-linecap="round"/>
<line x1="808.45" y1="666.51" x2="780.66" y2="677.74" stroke="#D32F2F" stroke-width="8.00" stroke-linecap="round"/>
<line x1="754.47" y1="697.82" x2="784.62" y2="704.70" stroke="#D32F2F" stroke-width="8.00" stroke-linecap="round"/>
<line x1="811.13" y1="690.48" x2="784.62" y2="704.70" stroke="#D32F2F" stroke-width="8.00" stroke-linecap="round"/>
<line x1="759.99" y1="726.17" x2="790.52" y2="730.65" stroke="#D32F2F" stroke-width="8.00" stroke-linecap="round"/>
<line x1="815.68" y1="713.81" x2="790.52" y2="730.65" stroke="#D32F2F" stroke-width="8.00" stroke-linecap="round"/>
<line x1="767.23" y1="753.11" x2="797.91" y2="755.39" stroke="#D32F2F" stroke-width="8.00" stroke-linecap="round"/>
<line x1="821.74" y1="736.34" x2="797.91" y2="755.39" stroke="#D32F2F" stroke-width="8.00" stroke-linecap="round"/>
<line x1="775.67" y1="778.49" x2="806.35" y2="778.87" stroke="#D32F2F" stroke-width="8.00" stroke-linecap="round"/>
<line x1="828.97" y1="758.07" x2="806.35" y2="778.87" stroke="#D32F2F" stroke-width="8.00" stroke-linecap="round"/>
<line x1="784.86" y1="802.28" x2="815.42" y2="801.11" stroke="#D32F2F" stroke-width="8.00" stroke-linecap="round"/>
<line x1="837.07" y1="779.04" x2="815.42" y2="801.11" stroke="#D32F2F" stroke-width="8.00" stroke-linecap="round"/>
<line x1="794.35" y1="824.55" x2="824.74" y2="822.22" stroke="#D32F2F" stroke-width="8.00" stroke-linecap="round"/>
<line x1="845.72" y1="799.33" x2="824.74" y2="822.22" stroke="#D32F2F" stroke-width="8.00" stroke-linecap="round"/>
<line x1="803.76" y1="845.45" x2="833.96" y2="842.33" stroke="#D32F2F" stroke-width="8.00" stroke-linecap="round"/>
<line x1="854.61" y1="819.07" x2="833.96" y2="842.33" stroke="#D32F2F" stroke-width="8.00" stroke-linecap="round"/>
<line x1="812.74" y1="865.13" x2="842.71" y2="861.59" stroke="#D32F2F" stroke-width="8.00" stroke-linecap="round"/>
<line x1="863.42" y1="838.37" x2="842.71" y2="861.59" stroke="#D32F2F" stroke-width="8.00" stroke-linecap="round"/>
<line x1="820.97" y1="883.76" x2="850.67" y2="880.16" stroke="#D32F2F" stroke-width="8.00" stroke-linecap="round"/>
<line x1="871.80" y1="857.36" x2="850.67" y2="880.16" stroke="#D32F2F" stroke-width="7.92" stroke-linecap="round"/>
<line x1="828.14" y1="901.50" x2="857.50" y2="898.18" stroke="#D32F2F" stroke-width="8.00" stroke-linecap="round"/>
<line x1="879.39" y1="876.15" x2="857.50" y2="898.18" stroke="#D32F2F" stroke-width="7.59" stroke-linecap="round"/>
<line x1="833.94" y1="918.51" x2="862.84" y2="915.75" stroke="#D32F2F" stroke-width="8.00" stroke-linecap="round"/>
<line x1="885.75" y1="894.81" x2="862.84" y2="915.75" stroke="#D32F2F" stroke-width="7.22" stroke-linecap="round"/>
<line x1="838.07" y1="934.90" x2="866.33" y2="932.94" stroke="#D32F2F" stroke-width="8.00" stroke-linecap="round"/>
<line x1="890.43" y1="913.40" x2="866.33" y2="932.94" stroke="#D32F2F" stroke-width="6.77" stroke-linecap="round"/>
<line x1="840.20" y1="950.73" x2="867.54" y2="949.77" stroke="#D32F2F" stroke-width="8.00" stroke-linecap="round"/>
<line x1="892.91" y1="931.88" x2="867.54" y2="949.77" stroke="#D32F2F" stroke-width="6.21" stroke-linecap="round"/>
<line x1="839.97" y1="966.01" x2="866.07" y2="966.16" stroke="#D32F2F" stroke-width="8.00" stroke-linecap="round"/>
<line x1="892.64" y1="950.15" x2="866.07" y2="966.16" stroke="#D32F2F" stroke-width="5.54" stroke-linecap="round"/>
<line x1="837.02" y1="980.68" x2="861.45" y2="981.94" stroke="#D32F2F" stroke-width="8.00" stroke-linecap="round"/>
<line x1="889.05" y1="967.98" x2="861.45" y2="981.94" stroke="#D32F2F" stroke-width="4.99" stroke-linecap="round"/>
<line x1="830.97" y1="994.56" x2="853.26" y2="996.81" stroke="#D32F2F" stroke-width="8.00" stroke-linecap="round"/>
<line x1="881.60" y1="985.02" x2="853.26" y2="996.81" stroke="#D32F2F" stroke-width="5.29" stroke-linecap="round"/>
<line x1="821.44" y1="1007.33" x2="841.15" y2="1010.34" stroke="#D32F2F" stroke-width="8.00" stroke-linecap="round"/>
<line x1="869.86" y1="1000.77" x2="841.15" y2="1010.34" stroke="#D32F2F" stroke-width="5.76" stroke-linecap="round"/>
<line x1="808.20" y1="1018.56" x2="824.89" y2="1022.00" stroke="#D32F2F" stroke-width="8.00" stroke-linecap="round"/>
<line x1="853.54" y1="1014.61" x2="824.89" y2="1022.00" stroke="#D32F2F" stroke-width="6.37" stroke-linecap="round"/>
<line x1="791.16" y1="1027.72" x2="804.52" y2="1031.15" stroke="#D32F2F" stroke-width="8.00" stroke-linecap="round"/>
<line x1="832.61" y1="1025.86" x2="804.52" y2="1031.15" stroke="#D32F2F" stroke-width="7.08" stroke-linecap="round"/>
<line x1="770.55" y1="1034.23" x2="780.36" y2="1037.20" stroke="#D32F2F" stroke-width="8.00" stroke-linecap="round"/>
<line x1="807.39" y1="1033.83" x2="780.36" y2="1037.20" stroke="#D32F2F" stroke-width="7.83" stroke-linecap="round"/>
<line x1="746.90" y1="1037.63" x2="753.09" y2="1039.68" stroke="#D32F2F" stroke-width="8.00" stroke-linecap="round"/>
<line x1="528.06" y1="934.90" x2="512.87" y2="916.96" stroke="#D32F2F" stroke-width="8.00" stroke-linecap="round"/>
<line x1="516.86" y1="918.51" x2="501.78" y2="899.01" stroke="#D32F2F" stroke-width="8.00" stroke-linecap="round"/>
<line x1="507.58" y1="901.50" x2="492.91" y2="880.72" stroke="#D32F2F" stroke-width="8.00" stroke-linecap="round"/>
<line x1="488.73" y1="876.15" x2="492.91" y2="880.72" stroke="#D32F2F" stroke-width="8.00" stroke-linecap="round"/>
<line x1="500.11" y1="883.76" x2="486.09" y2="862.01" stroke="#D32F2F" stroke-width="8.00" stroke-linecap="round"/>
<line x1="480.82" y1="857.36" x2="486.09" y2="862.01" stroke="#D32F2F" stroke-width="8.00" stroke-linecap="round"/>
<line x1="494.37" y1="865.13" x2="481.15" y2="842.76" stroke="#D32F2F" stroke-width="8.00" stroke-linecap="round"/>
<line x1="474.96" y1="838.37" x2="481.15" y2="842.76" stroke="#D32F2F" stroke-width="8.00" stroke-linecap="round"/>
<line x1="490.30" y1="845.45" x2="477.95" y2="822.84" stroke="#D32F2F" stroke-width="8.00" stroke-linecap="round"/>
<line x1="470.97" y1="819.07" x2="477.95" y2="822.84" stroke="#D32F2F" stroke-width="8.00" stroke-linecap="round"/>
<line x1="487.87" y1="824.55" x2="476.37" y2="802.10" stroke="#D32F2F" stroke-width="8.00" stroke-linecap="round"/>
<line x1="468.67" y1="799.33" x2="476.37" y2="802.10" stroke="#D32F2F" stroke-width="8.00" stroke-linecap="round"/>
<line x1="487.05" y1="802.28" x2="476.34" y2="780.42" stroke="#D32F2F" stroke-width="8.00" stroke-linecap="round"/>
<line x1="467.92" y1="779.04" x2="476.34" y2="780.42" stroke="#D32F2F" stroke-width="8.00" stroke-linecap="round"/>
<line x1="487.86" y1="778.49" x2="477.80" y2="757.68" stroke="#D32F2F" stroke-width="8.00" stroke-linecap="round"/>
<line x1="468.62" y1="758.07" x2="477.80" y2="757.68" stroke="#D32F2F" stroke-width="8.00" stroke-linecap="round"/>
<line x1="490.30" y1="753.11" x2="480.74" y2="733.82" stroke="#D32F2F" stroke-width="8.00" stroke-linecap="round"/>
<line x1="470.72" y1="736.34" x2="480.74" y2="733.82" stroke="#D32F2F" stroke-width="8.00" stroke-linecap="round"/>
<line x1="494.43" y1="726.17" x2="485.17" y2="708.86" stroke="#D32F2F" stroke-width="8.00" stroke-linecap="round"/>
<line x1="474.17" y1="713.81" x2="485.17" y2="708.86" stroke="#D32F2F" stroke-width="8.00" stroke-linecap="round"/>
<line x1="500.30" y1="697.82" x2="491.11" y2="682.90" stroke="#D32F2F" stroke-width="8.00" stroke-linecap="round"/>
<line x1="478.99" y1="690.48" x2="491.11" y2="682.90" stroke="#D32F2F" stroke-width="8.00" stroke-linecap="round"/>
<line x1="507.94" y1="668.38" x2="498.62" y2="656.24" stroke="#D32F2F" stroke-width="8.00" stroke-linecap="round"/>
<line x1="485.22" y1="666.51" x2="498.62" y2="656.24" stroke="#D32F2F" stroke-width="8.00" stroke-linecap="round"/>
<line x1="517.38" y1="638.41" x2="507.72" y2="629.33" stroke="#D32F2F" stroke-width="8.00" stroke-linecap="round"/>
<line x1="492.88" y1="642.20" x2="507.72" y2="629.33" stroke="#D32F2F" stroke-width="8.00" stroke-linecap="round"/>
<line x1="528.60" y1="608.67" x2="518.39" y2="602.87" stroke="#D32F2F" stroke-width="8.00" stroke-linecap="round"/>
<line x1="501.97" y1="618.07" x2="518.39" y2="602.87" stroke="#D32F2F" stroke-width="8.00" stroke-linecap="round"/>
<line x1="541.45" y1="580.15" x2="530.50" y2="577.75" stroke="#D32F2F" stroke-width="8.00" stroke-linecap="round"/>
<line x1="512.44" y1="594.85" x2="530.50" y2="577.75" stroke="#D32F2F" stroke-width="8.00" stroke-linecap="round"/>
<line x1="555.71" y1="553.98" x2="543.82" y2="555.00" stroke="#D32F2F" stroke-width="8.00" stroke-linecap="round"/>
<line x1="524.09" y1="573.47" x2="543.82" y2="555.00" stroke="#D32F2F" stroke-width="7.92" stroke-linecap="round"/>
<line x1="570.97" y1="531.31" x2="557.95" y2="535.67" stroke="#D32F2F" stroke-width="8.00" stroke-linecap="round"/>
<line x1="536.60" y1="554.89" x2="557.95" y2="535.67" stroke="#D32F2F" stroke-width="7.06" stroke-linecap="round"/>
<line x1="586.71" y1="513.13" x2="572.37" y2="520.64" stroke="#D32F2F" stroke-width="8.00" stroke-linecap="round"/>
<line x1="549.51" y1="539.97" x2="572.37" y2="520.64" stroke="#D32F2F" stroke-width="6.17" stroke-linecap="round"/>
<line x1="971.19" y1="563.77" x2="954.99" y2="544.89" stroke="#D32F2F" stroke-width="8.00" stroke-linecap="round"/>
<line x1="957.33" y1="550.24" x2="939.37" y2="531.09" stroke="#D32F2F" stroke-width="8.00" stroke-linecap="round"/>
<line x1="915.51" y1="511.87" x2="922.63" y2="519.63" stroke="#D32F2F" stroke-width="8.00" stroke-linecap="round"/>
<line x1="942.47" y1="538.82" x2="922.63" y2="519.63" stroke="#D32F2F" stroke-width="7.82" stroke-linecap="round"/>
<line x1="896.20" y1="500.92" x2="904.94" y2="511.05" stroke="#D32F2F" stroke-width="8.00" stroke-linecap="round"/>
<line x1="926.75" y1="529.90" x2="904.94" y2="511.05" stroke="#D32F2F" stroke-width="7.26" stroke-linecap="round"/>
<line x1="876.00" y1="493.61" x2="886.60" y2="505.94" stroke="#D32F2F" stroke-width="8.00" stroke-linecap="round"/>
<line x1="910.37" y1="523.97" x2="886.60" y2="505.94" stroke="#D32F2F" stroke-width="6.70" stroke-linecap="round"/>
<line x1="855.35" y1="490.66" x2="868.00" y2="504.92" stroke="#D32F2F" stroke-width="8.00" stroke-linecap="round"/>
<line x1="893.61" y1="521.58" x2="868.00" y2="504.92" stroke="#D32F2F" stroke-width="6.17" stroke-linecap="round"/>
<line x1="834.85" y1="492.71" x2="849.68" y2="508.52" stroke="#D32F2F" stroke-width="8.00" stroke-linecap="round"/>
<line x1="876.93" y1="523.25" x2="849.68" y2="508.52" stroke="#D32F2F" stroke-width="5.75" stroke-linecap="round"/>
<line x1="815.19" y1="500.17" x2="832.26" y2="517.08" stroke="#D32F2F" stroke-width="8.00" stroke-linecap="round"/>
<line x1="860.86" y1="529.35" x2="832.26" y2="517.08" stroke="#D32F2F" stroke-width="5.47" stroke-linecap="round"/>
<line x1="797.13" y1="513.13" x2="816.46" y2="530.62" stroke="#D32F2F" stroke-width="8.00" stroke-linecap="round"/>
<line x1="846.06" y1="539.97" x2="816.46" y2="530.62" stroke="#D32F2F" stroke-width="5.93" stroke-linecap="round"/>
<line x1="781.39" y1="531.31" x2="802.94" y2="548.78" stroke="#D32F2F" stroke-width="8.00" stroke-linecap="round"/>
<line x1="833.14" y1="554.89" x2="802.94" y2="548.78" stroke="#D32F2F" stroke-width="6.90" stroke-linecap="round"/>
<line x1="768.59" y1="553.98" x2="792.23" y2="570.83" stroke="#D32F2F" stroke-width="8.00" stroke-linecap="round"/>
<line x1="822.65" y1="573.47" x2="792.23" y2="570.83" stroke="#D32F2F" stroke-width="7.78" stroke-linecap="round"/>
<line x1="759.12" y1="580.15" x2="784.66" y2="595.79" stroke="#D32F2F" stroke-width="8.00" stroke-linecap="round"/>
<line x1="814.92" y1="594.85" x2="784.66" y2="595.79" stroke="#D32F2F" stroke-width="8.00" stroke-linecap="round"/>
<line x1="753.15" y1="608.67" x2="780.33" y2="622.57" stroke="#D32F2F" stroke-width="8.00" stroke-linecap="round"/>
<line x1="810.06" y1="618.07" x2="780.33" y2="622.57" stroke="#D32F2F" stroke-width="8.00" stroke-linecap="round"/>
<line x1="750.60" y1="638.41" x2="779.09" y2="650.16" stroke="#D32F2F" stroke-width="8.00" stroke-linecap="round"/>
<line x1="807.98" y1="642.20" x2="779.09" y2="650.16" stroke="#D32F2F" stroke-width="8.00" stroke-linecap="round"/>
<line x1="751.17" y1="668.38" x2="780.66" y2="677.74" stroke="#D32F2F" stroke-width="8.00" stroke-linecap="round"/>
<line x1="808.45" y1="666.51" x2="780.66" y2="677.74" stroke="#D32F2F" stroke-width="8.00" stroke-linecap="round"/>
<line x1="754.47" y1="697.82" x2="784.62" y2="704.70" stroke="#D32F2F" stroke-width="8.00" stroke-linecap="round"/>
<line x1="811.13" y1="690.48" x2="784.62" y2="704.70" stroke="#D32F2F" stroke-width="8.00" stroke-linecap="round"/>
<line x1="759.99" y1="726.17" x2="790.52" y2="730.65" stroke="#D32F2F" stroke-width="8.00" stroke-linecap="round"/>
<line x1="815.68" y1="713.81" x2="790.52" y2="730.65" stroke="#D32F2F" stroke-width="8.00" stroke-linecap="round"/>
<line x1="767.23" y1="753.11" x2="797.91" y2="755.39" stroke="#D32F2F" stroke-width="8.00" stroke-linecap="round"/>
<line x1="821.74" y1="736.34" x2="797.91" y2="755.39" stroke="#D32F2F" stroke-width="8.00" stroke-linecap="round"/>
<line x1="775.67" y1="778.49" x2="806.35" y2="778.87" stroke="#D32F2F" stroke-width="8.00" stroke-linecap="round"/>
<line x1="828.97" y1="758.07" x2="806.35" y2="778.87" stroke="#D32F2F" stroke-width="8.00" stroke-linecap="round"/>
<line x1="784.86" y1="802.28" x2="815.42" y2="801.11" stroke="#D32F2F" stroke-width="8.00" stroke-linecap="round"/>
<line x1="837.07" y1="779.04" x2="815.42" y2="801.11" stroke="#D32F2F" stroke-width="8.00" stroke-linecap="round"/>
<line x1="794.35" y1="824.55" x2="824.74" y2="822.22" stroke="#D32F2F" stroke-width="8.00" stroke-linecap="round"/>
<line x1="845.72" y1="799.33" x2="824.74" y2="822.22" stroke="#D32F2F" stroke-width="8.00" stroke-linecap="round"/>
<line x1="803.76" y1="845.45" x2="833.96" y2="842.33" stroke="#D32F2F" stroke-width="8.00" stroke-linecap="round"/>
<line x1="854.61" y1="819.07" x2="833.96" y2="842.33" stroke="#D32F2F" stroke-width="8.00" stroke-linecap="round"/>
<line x1="812.74" y1="865.13" x2="842.71" y2="861.59" stroke="#D32F2F" stroke-width="8.00" stroke-linecap="round"/>
<line x1="863.42" y1="838.37" x2="842.71" y2="861.59" stroke="#D32F2F" stroke-width="8.00" stroke-linecap="round"/>
<line x1="820.97" y1="883.76" x2="850.67" y2="880.16" stroke="#D32F2F" stroke-width="8.00" stroke-linecap="round"/>
<line x1="871.80" y1="857.36" x2="850.67" y2="880.16" stroke="#D32F2F" stroke-width="7.92" stroke-linecap="round"/>
<line x1="828.14" y1="901.50" x2="857.50" y2="898.18" stroke="#D32F2F" stroke-width="8.00" stroke-linecap="round"/>
<line x1="879.39" y1="876.15" x2="857.50" y2="898.18" stroke="#D32F2F" stroke-width="7.59" stroke-linecap="round"/>
<line x1="833.94" y1="918.51" x2="862.84" y2="915.75" stroke="#D32F2F" stroke-width="8.00" stroke-linecap="round"/>
<line x1="885.75" y1="894.81" x2="862.84" y2="915.75" stroke="#D32F2F" stroke-width="7.22" stroke-linecap="round"/>
<line x1="838.07" y1="934.90" x2="866.33" y2="932.94" stroke="#D32F2F" stroke-width="8.00" stroke-linecap="round"/>
<line x1="890.43" y1="913.40" x2="866.33" y2="932.94" stroke="#D32F2F" stroke-width="6.77" stroke-linecap="round"/>
<line x1="840.20" y1="950.73" x2="867.54" y2="949.77" stroke="#D32F2F" stroke-width="8.00" stroke-linecap="round"/>
<line x1="892.91" y1="931.88" x2="867.54" y2="949.77" stroke="#D32F2F" stroke-width="6.21" stroke-linecap="round"/>
<line x1="839.97" y1="966.01" x2="866.07" y2="966.16" stroke="#D32F2F" stroke-width="8.00" stroke-linecap="round"/>
<line x1="892.64" y1="950.15" x2="866.07" y2="966.16" stroke="#D32F2F" stroke-width="5.54" stroke-linecap="round"/>
<line x1="837.02" y1="980.68" x2="861.45" y2="981.94" stroke="#D32F2F" stroke-width="8.00" stroke-linecap="round"/>
<line x1="889.05" y1="967.98" x2="861.45" y2="981.94" stroke="#D32F2F" stroke-width="4.99" stroke-linecap="round"/>
<line x1="830.97" y1="994.56" x2="853.26" y2="996.81" stroke="#D32F2F" stroke-width="8.00" stroke-linecap="round"/>
<line x1="881.60" y1="985.02" x2="853.26" y2="996.81" stroke="#D32F2F" stroke-width="5.29" stroke-linecap="round"/>
<line x1="821.44" y1="1007.33" x2="841.15" y2="1010.34" stroke="#D32F2F" stroke-width="8.00" stroke-linecap="round"/>
<line x1="869.86" y1="1000.77" x2="841.15" y2="1010.34" stroke="#D32F2F" stroke-width="5.76" stroke-linecap="round"/>
<line x1="808.20" y1="1018.56" x2="824.89" y2="1022.00" stroke="#D32F2F" stroke-width="8.00" stroke-linecap="round"/>
<line x1="853.54" y1="1014.61" x2="824.89" y2="1022.00" stroke="#D32F2F" stroke-width="6.37" stroke-linecap="round"/>
<line x1="791.16" y1="1027.72" x2="804.52" y2="1031.15" stroke="#D32F2F" stroke-width="8.00" stroke-linecap="round"/>
<line x1="832.61" y1="1025.86" x2="804.52" y2="1031.15" stroke="#D32F2F" stroke-width="7.08" stroke-linecap="round"/>
<line x1="770.55" y1="1034.23" x2="780.36" y2="1037.20" stroke="#D32F2F" stroke-width="8.00" stroke-linecap="round"/>
<line x1="807.39" y1="1033.83" x2="780.36" y2="1037.20" stroke="#D32F2F" stroke-width="7.83" stroke-linecap="round"/>
<line x1="746.90" y1="1037.63" x2="753.09" y2="1039.68" stroke="#D32F2F" stroke-width="8.00" stroke-linecap="round"/>
<line x1="528.06" y1="934.90" x2="512.87" y2="916.96" stroke="#D32F2F" stroke-width="8.00" stroke-linecap="round"/>
<line x1="516.86" y1="918.51" x2="501.78" y2="899.01" stroke="#D32F2F" stroke-width="8.00" stroke-linecap="round"/>
<line x1="507.58" y1="901.50" x2="492.91" y2="880.72" stroke="#D32F2F" stroke-width="8.00" stroke-linecap="round"/>
<line x1="488.73" y1="876.15" x2="492.91" y2="880.72" stroke="#D32F2F" stroke-width="8.00" stroke-linecap="round"/>
<line x1="500.11" y1="883.76" x2="486.09" y2="862.01" stroke="#D32F2F" stroke-width="8.00" stroke-linecap="round"/>
<line x1="480.82" y1="857.36" x2="486.09" y2="862.01" stroke="#D32F2F" stroke-width="8.00" stroke-linecap="round"/>
<line x1="494.37" y1="865.13" x2="481.15" y2="842.76" stroke="#D32F2F" stroke-width="8.00" stroke-linecap="round"/>
<line x1="474.96" y1="838.37" x2="481.15" y2="842.76" stroke="#D32F2F" stroke-width="8.00" stroke-linecap="round"/>
<line x1="490.30" y1="845.45" x2="477.95" y2="822.84" stroke="#D32F2F" stroke-width="8.00" stroke-linecap="round"/>
<line x1="470.97" y1="819.07" x2="477.95" y2="822.84" stroke="#D32F2F" stroke-width="8.00" stroke-linecap="round"/>
<line x1="487.87" y1="824.55" x2="476.37" y2="802.10" stroke="#D32F2F" stroke-width="8.00" stroke-linecap="round"/>
<line x1="468.67" y1="799.33" x2="476.37" y2="802.10" stroke="#D32F2F" stroke-width="8.00" stroke-linecap="round"/>
<line x1="487.05" y1="802.28" x2="476.34" y2="780.42" stroke="#D32F2F" stroke-width="8.00" stroke-linecap="round"/>
<line x1="467.92" y1="779.04" x2="476.34" y2="780.42" stroke="#D32F2F" stroke-width="8.00" stroke-linecap="round"/>
<line x1="487.86" y1="778.49" x2="477.80" y2="757.68" stroke="#D32F2F" stroke-width="8.00" stroke-linecap="round"/>
<line x1="468.62" y1="758.07" x2="477.80" y2="757.68" stroke="#D32F2F" stroke-width="8.00" stroke-linecap="round"/>
<line x1="490.30" y1="753.11" x2="480.74" y2="733.82" stroke="#D32F2F" stroke-width="8.00" stroke-linecap="round"/>
<line x1="470.72" y1="736.34" x2="480.74" y2="733.82" stroke="#D32F2F" stroke-width="8.00" stroke-linecap="round"/>
<line x1="494.43" y1="726.17" x2="485.17" y2="708.86" stroke="#D32F2F" stroke-width="8.00" stroke-linecap="round"/>
<line x1="474.17" y1="713.81" x2="485.17" y2="708.86" stroke="#D32F2F" stroke-width="8.00" stroke-linecap="round"/>
<line x1="500.30" y1="697.82" x2="491.11" y2="682.90" stroke="#D32F2F" stroke-width="8.00" stroke-linecap="round"/>
<line x1="478.99" y1="690.48" x2="491.11" y2="682.90" stroke="#D32F2F" stroke-width="8.00" stroke-linecap="round"/>
<line x1="507.94" y1="668.38" x2="498.62" y2="656.24" stroke="#D32F2F" stroke-width="8.00" stroke-linecap="round"/>
<line x1="485.22" y1="666.51" x2="498.62" y2="656.24" stroke="#D32F2F" stroke-width="8.00" stroke-linecap="round"/>
<line x1="517.38" y1="638.41" x2="507.72" y2="629.33" stroke="#D32F2F" stroke-width="8.00" stroke-linecap="round"/>
<line x1="492.88" y1="642.20" x2="507.72" y2="629.33" stroke="#D32F2F" stroke-width="8.00" stroke-linecap="round"/>
<line x1="528.60" y1="608.67" x2="518.39" y2="602.87" stroke="#D32F2F" stroke-width="8.00" stroke-linecap="round"/>
<line x1="501.97" y1="618.07" x2="518.39" y2="602.87" stroke="#D32F2F" stroke-width="8.00" stroke-linecap="round"/>
<line x1="541.45" y1="580.15" x2="530.50" y2="577.75" stroke="#D32F2F" stroke-width="8.00" stroke-linecap="round"/>
<line x1="512.44" y1="594.85" x2="530.50" y2="577.75" stroke="#D32F2F" stroke-width="8.00" stroke-linecap="round"/>
<line x1="555.71" y1="553.98" x2="543.82" y2="555.00" stroke="#D32F2F" stroke-width="8.00" stroke-linecap="round"/>
<line x1="524.09" y1="573.47" x2="543.82" y2="555.00" stroke="#D32F2F" stroke-width="7.92" stroke-linecap="round"/>
<line x1="570.97" y1="531.31" x2="557.95" y2="535.67" stroke="#D32F2F" stroke-width="8.00" stroke-linecap="round"/>
<line x1="536.60" y1="554.89" x2="557.95" y2="535.67" stroke="#D32F2F" stroke-width="7.06" stroke-linecap="round"/>
<line x1="586.71" y1="513.13" x2="572.37" y2="520.64" stroke="#D32F2F" stroke-width="8.00" stroke-linecap="round"/>
<line x1="549.51" y1="539.97" x2="572.37" y2="520.64" stroke="#D32F2F" stroke-width="6.17" stroke-linecap="round"/>
<circle cx="749.73" cy="749.73" r="290.0" fill="none" stroke="#ccc" stroke-width="0.5"/>
<line x1="414.86" y1="749.73" x2="1084.59" y2="749.73" stroke="#D32F2F" stroke-width="2.0" opacity="0.85"/>
<line x1="917.16" y1="556.39" x2="582.29" y2="943.06" stroke="#2E7D32" stroke-width="2.0" opacity="0.85"/>
<line x1="846.39" y1="1084.59" x2="653.06" y2="414.86" stroke="#1565C0" stroke-width="2.0" opacity="0.85"/>
<line x1="1132.92" y1="723.82" x2="798.06" y2="1110.49" stroke="#888" stroke-width="1.0" opacity="0.35"/>
<line x1="401.91" y1="318.20" x2="1071.64" y2="318.20" stroke="#888" stroke-width="1.0" opacity="0.35"/>
<line x1="1348.69" y1="891.26" x2="1013.82" y2="1277.92" stroke="#555" stroke-width="1.5" opacity="0.6"/>
<line x1="595.25" y1="1181.26" x2="401.91" y2="511.53" stroke="#888" stroke-width="1.0" opacity="0.35"/>
<line x1="1264.97" y1="987.92" x2="1071.64" y2="318.20" stroke="#888" stroke-width="1.0" opacity="0.35"/>
<line x1="379.48" y1="1013.82" x2="1049.21" y2="1013.82" stroke="#888" stroke-width="1.0" opacity="0.35"/>
<line x1="653.06" y1="221.53" x2="318.20" y2="608.20" stroke="#888" stroke-width="1.0" opacity="0.35"/>
<line x1="366.53" y1="582.29" x2="1036.26" y2="582.29" stroke="#888" stroke-width="1.0" opacity="0.35"/>
<line x1="868.82" y1="388.96" x2="533.96" y2="775.63" stroke="#888" stroke-width="1.0" opacity="0.35"/>
<line x1="344.10" y1="1277.92" x2="150.76" y2="608.20" stroke="#555" stroke-width="1.5" opacity="0.6"/>
<line x1="1084.59" y1="556.39" x2="749.73" y2="943.06" stroke="#888" stroke-width="1.0" opacity="0.35"/>
<line x1="1013.82" y1="1084.59" x2="820.49" y2="414.86" stroke="#888" stroke-width="1.0" opacity="0.35"/>
<line x1="1300.35" y1="723.82" x2="965.49" y2="1110.49" stroke="#888" stroke-width="1.0" opacity="0.35"/>
<line x1="344.10" y1="1277.92" x2="1013.82" y2="1277.92" stroke="#555" stroke-width="1.5" opacity="0.6"/>
<line x1="331.15" y1="846.39" x2="1000.87" y2="846.39" stroke="#888" stroke-width="1.0" opacity="0.35"/>
<line x1="762.68" y1="1181.26" x2="569.34" y2="511.53" stroke="#888" stroke-width="1.0" opacity="0.35"/>
<line x1="820.49" y1="221.53" x2="485.63" y2="608.20" stroke="#888" stroke-width="1.0" opacity="0.35"/>
<line x1="318.20" y1="414.86" x2="987.92" y2="414.86" stroke="#888" stroke-width="1.0" opacity="0.35"/>
<line x1="1036.26" y1="388.96" x2="701.39" y2="775.63" stroke="#888" stroke-width="1.0" opacity="0.35"/>
<line x1="511.53" y1="1277.92" x2="318.20" y2="608.20" stroke="#888" stroke-width="1.0" opacity="0.35"/>
<line x1="1181.26" y1="1084.59" x2="987.92" y2="414.86" stroke="#888" stroke-width="1.0" opacity="0.35"/>
<line x1="1252.02" y1="556.39" x2="917.16" y2="943.06" stroke="#888" stroke-width="1.0" opacity="0.35"/>
<line x1="295.76" y1="1110.49" x2="965.49" y2="1110.49" stroke="#888" stroke-width="1.0" opacity="0.35"/>
<line x1="282.81" y1="678.96" x2="952.54" y2="678.96" stroke="#888" stroke-width="1.0" opacity="0.35"/>
<line x1="930.11" y1="1181.26" x2="736.78" y2="511.53" stroke="#888" stroke-width="1.0" opacity="0.35"/>
<line x1="987.92" y1="221.53" x2="653.06" y2="608.20" stroke="#888" stroke-width="1.0" opacity="0.35"/>
<line x1="1203.69" y1="388.96" x2="868.82" y2="775.63" stroke="#888" stroke-width="1.0" opacity="0.35"/>
<line x1="247.43" y1="943.06" x2="917.16" y2="943.06" stroke="#888" stroke-width="1.0" opacity="0.35"/>
<line x1="678.96" y1="1277.92" x2="485.63" y2="608.20" stroke="#888" stroke-width="1.0" opacity="0.35"/>
<line x1="234.48" y1="511.53" x2="904.21" y2="511.53" stroke="#888" stroke-width="1.0" opacity="0.35"/>
<line x1="1097.54" y1="1181.26" x2="904.21" y2="511.53" stroke="#888" stroke-width="1.0" opacity="0.35"/>
<line x1="1155.35" y1="221.53" x2="820.49" y2="608.20" stroke="#555" stroke-width="1.5" opacity="0.6"/>
<line x1="199.10" y1="775.63" x2="868.82" y2="775.63" stroke="#888" stroke-width="1.0" opacity="0.35"/>
<line x1="846.39" y1="1277.92" x2="653.06" y2="608.20" stroke="#888" stroke-width="1.0" opacity="0.35"/>
<line x1="150.76" y1="608.20" x2="820.49" y2="608.20" stroke="#555" stroke-width="1.5" opacity="0.6"/>
<line x1="1013.82" y1="1277.92" x2="820.49" y2="608.20" stroke="#555" stroke-width="1.5" opacity="0.6"/>
</svg>