<svg width="2169" height="2169" viewBox="0 0 2169.1789 2169.1789" xmlns="http://www.w3.org/2000/svg">
<line x1="649.59" y1="1335.74" x2="867.09" y2="1210.16" stroke="#A1A1AA" stroke-width="5" opacity="0.9"/>
<line x1="1157.09" y1="707.87" x2="1120.84" y2="896.23" stroke="#A1A1AA" stroke-width="5" opacity="0.9"/>
<line x1="1461.31" y1="1447.09" x2="1272.95" y2="1265.84" stroke="#A1A1AA" stroke-width="5" opacity="0.9"/>
<circle cx="1084.59" cy="1084.59" r="290.0" fill="#FDFDF5"/>
<line x1="1183.41" y1="812.81" x2="1159.94" y2="804.57" stroke="#D32F2F" stroke-width="8.00" stroke-linecap="round"/>
<line x1="1164.64" y1="808.03" x2="1139.51" y2="800.42" stroke="#D32F2F" stroke-width="8.00" stroke-linecap="round"/>
<line x1="1109.23" y1="795.71" x2="1119.28" y2="798.87" stroke="#D32F2F" stroke-width="8.00" stroke-linecap="round"/>
<line x1="1146.06" y1="805.57" x2="1119.28" y2="798.87" stroke="#D32F2F" stroke-width="7.82" stroke-linecap="round"/>
<line x1="1087.04" y1="795.87" x2="1099.67" y2="800.28" stroke="#D32F2F" stroke-width="8.00" stroke-linecap="round"/>
<line x1="1127.99" y1="805.70" x2="1099.67" y2="800.28" stroke="#D32F2F" stroke-width="7.26" stroke-linecap="round"/>
<line x1="1065.89" y1="799.65" x2="1081.23" y2="805.03" stroke="#D32F2F" stroke-width="8.00" stroke-linecap="round"/>
<line x1="1110.83" y1="808.76" x2="1081.23" y2="805.03" stroke="#D32F2F" stroke-width="6.70" stroke-linecap="round"/>
<line x1="1046.53" y1="807.42" x2="1064.61" y2="813.44" stroke="#D32F2F" stroke-width="8.00" stroke-linecap="round"/>
<line x1="1095.13" y1="815.07" x2="1064.61" y2="813.44" stroke="#D32F2F" stroke-width="6.17" stroke-linecap="round"/>
<line x1="1029.80" y1="819.44" x2="1050.54" y2="825.72" stroke="#D32F2F" stroke-width="8.00" stroke-linecap="round"/>
<line x1="1081.51" y1="824.86" x2="1050.54" y2="825.72" stroke="#D32F2F" stroke-width="5.75" stroke-linecap="round"/>
<line x1="1016.50" y1="835.73" x2="1039.74" y2="841.84" stroke="#D32F2F" stroke-width="8.00" stroke-linecap="round"/>
<line x1="1070.64" y1="838.17" x2="1039.74" y2="841.84" stroke="#D32F2F" stroke-width="5.47" stroke-linecap="round"/>
<line x1="1007.34" y1="855.99" x2="1032.83" y2="861.47" stroke="#D32F2F" stroke-width="8.00" stroke-linecap="round"/>
<line x1="1063.14" y1="854.77" x2="1032.83" y2="861.47" stroke="#D32F2F" stroke-width="5.93" stroke-linecap="round"/>
<line x1="1002.80" y1="879.60" x2="1030.20" y2="883.96" stroke="#D32F2F" stroke-width="8.00" stroke-linecap="round"/>
<line x1="1059.41" y1="874.14" x2="1030.20" y2="883.96" stroke="#D32F2F" stroke-width="6.90" stroke-linecap="round"/>
<line x1="1003.05" y1="905.64" x2="1031.95" y2="908.41" stroke="#D32F2F" stroke-width="8.00" stroke-linecap="round"/>
<line x1="1059.61" y1="895.48" x2="1031.95" y2="908.41" stroke="#D32F2F" stroke-width="7.78" stroke-linecap="round"/>
<line x1="1007.94" y1="933.04" x2="1037.87" y2="933.81" stroke="#D32F2F" stroke-width="8.00" stroke-linecap="round"/>
<line x1="1063.61" y1="917.87" x2="1037.87" y2="933.81" stroke="#D32F2F" stroke-width="8.00" stroke-linecap="round"/>
<line x1="1017.03" y1="960.72" x2="1047.51" y2="959.17" stroke="#D32F2F" stroke-width="8.00" stroke-linecap="round"/>
<line x1="1071.01" y1="940.40" x2="1047.51" y2="959.17" stroke="#D32F2F" stroke-width="8.00" stroke-linecap="round"/>
<line x1="1029.68" y1="987.75" x2="1060.24" y2="983.68" stroke="#D32F2F" stroke-width="8.00" stroke-linecap="round"/>
<line x1="1081.27" y1="962.34" x2="1060.24" y2="983.68" stroke="#D32F2F" stroke-width="8.00" stroke-linecap="round"/>
<line x1="1045.17" y1="1013.42" x2="1075.38" y2="1006.78" stroke="#D32F2F" stroke-width="8.00" stroke-linecap="round"/>
<line x1="1093.84" y1="983.16" x2="1075.38" y2="1006.78" stroke="#D32F2F" stroke-width="8.00" stroke-linecap="round"/>
<line x1="1062.74" y1="1037.27" x2="1092.29" y2="1028.15" stroke="#D32F2F" stroke-width="8.00" stroke-linecap="round"/>
<line x1="1108.15" y1="1002.58" x2="1092.29" y2="1028.15" stroke="#D32F2F" stroke-width="8.00" stroke-linecap="round"/>
<line x1="1081.70" y1="1059.06" x2="1110.38" y2="1047.67" stroke="#D32F2F" stroke-width="8.00" stroke-linecap="round"/>
<line x1="1123.75" y1="1020.50" x2="1110.38" y2="1047.67" stroke="#D32F2F" stroke-width="8.00" stroke-linecap="round"/>
<line x1="1101.44" y1="1078.77" x2="1129.15" y2="1065.41" stroke="#D32F2F" stroke-width="8.00" stroke-linecap="round"/>
<line x1="1140.26" y1="1037.00" x2="1129.15" y2="1065.41" stroke="#D32F2F" stroke-width="8.00" stroke-linecap="round"/>
<line x1="1121.44" y1="1096.52" x2="1148.19" y2="1081.52" stroke="#D32F2F" stroke-width="8.00" stroke-linecap="round"/>
<line x1="1157.39" y1="1052.19" x2="1148.19" y2="1081.52" stroke="#D32F2F" stroke-width="8.00" stroke-linecap="round"/>
<line x1="1141.29" y1="1112.53" x2="1167.17" y2="1096.24" stroke="#D32F2F" stroke-width="8.00" stroke-linecap="round"/>
<line x1="1174.88" y1="1066.30" x2="1167.17" y2="1096.24" stroke="#D32F2F" stroke-width="8.00" stroke-linecap="round"/>
<line x1="1160.65" y1="1127.08" x2="1185.80" y2="1109.86" stroke="#D32F2F" stroke-width="8.00" stroke-linecap="round"/>
<line x1="1192.52" y1="1079.55" x2="1185.80" y2="1109.86" stroke="#D32F2F" stroke-width="8.00" stroke-linecap="round"/>
<line x1="1179.24" y1="1140.47" x2="1203.84" y2="1122.67" stroke="#D32F2F" stroke-width="8.00" stroke-linecap="round"/>
<line x1="1210.09" y1="1092.20" x2="1203.84" y2="1122.67" stroke="#D32F2F" stroke-width="8.00" stroke-linecap="round"/>
<line x1="1196.86" y1="1153.02" x2="1221.05" y2="1134.97" stroke="#D32F2F" stroke-width="8.00" stroke-linecap="round"/>
<line x1="1227.37" y1="1104.51" x2="1221.05" y2="1134.97" stroke="#D32F2F" stroke-width="8.00" stroke-linecap="round"/>
<line x1="1213.31" y1="1165.04" x2="1237.23" y2="1147.08" stroke="#D32F2F" stroke-width="8.00" stroke-linecap="round"/>
<line x1="1244.13" y1="1116.76" x2="1237.23" y2="1147.08" stroke="#D32F2F" stroke-width="7.92" stroke-linecap="round"/>
<line x1="1228.39" y1="1176.83" x2="1252.15" y2="1159.26" stroke="#D32F2F" stroke-width="8.00" stroke-linecap="round"/>
<line x1="1260.09" y1="1129.24" x2="1252.15" y2="1159.26" stroke="#D32F2F" stroke-width="7.59" stroke-linecap="round"/>
<line x1="1241.92" y1="1188.65" x2="1265.56" y2="1171.81" stroke="#D32F2F" stroke-width="8.00" stroke-linecap="round"/>
<line x1="1274.93" y1="1142.22" x2="1265.56" y2="1171.81" stroke="#D32F2F" stroke-width="7.22" stroke-linecap="round"/>
<line x1="1253.68" y1="1200.78" x2="1277.18" y2="1184.96" stroke="#D32F2F" stroke-width="8.00" stroke-linecap="round"/>
<line x1="1288.28" y1="1155.98" x2="1277.18" y2="1184.96" stroke="#D32F2F" stroke-width="6.77" stroke-linecap="round"/>
<line x1="1263.44" y1="1213.43" x2="1286.64" y2="1198.92" stroke="#D32F2F" stroke-width="8.00" stroke-linecap="round"/>
<line x1="1299.67" y1="1170.75" x2="1286.64" y2="1198.92" stroke="#D32F2F" stroke-width="6.21" stroke-linecap="round"/>
<line x1="1270.89" y1="1226.78" x2="1293.56" y2="1213.85" stroke="#D32F2F" stroke-width="8.00" stroke-linecap="round"/>
<line x1="1308.57" y1="1186.71" x2="1293.56" y2="1213.85" stroke="#D32F2F" stroke-width="5.54" stroke-linecap="round"/>
<line x1="1275.67" y1="1240.95" x2="1297.45" y2="1229.83" stroke="#D32F2F" stroke-width="8.00" stroke-linecap="round"/>
<line x1="1314.37" y1="1203.94" x2="1297.45" y2="1229.83" stroke="#D32F2F" stroke-width="4.99" stroke-linecap="round"/>
<line x1="1277.36" y1="1256.00" x2="1297.79" y2="1246.80" stroke="#D32F2F" stroke-width="8.00" stroke-linecap="round"/>
<line x1="1316.44" y1="1222.42" x2="1297.79" y2="1246.80" stroke="#D32F2F" stroke-width="5.29" stroke-linecap="round"/>
<line x1="1275.50" y1="1271.82" x2="1294.07" y2="1264.58" stroke="#D32F2F" stroke-width="8.00" stroke-linecap="round"/>
<line x1="1314.15" y1="1241.93" x2="1294.07" y2="1264.58" stroke="#D32F2F" stroke-width="5.76" stroke-linecap="round"/>
<line x1="1269.64" y1="1288.17" x2="1285.82" y2="1282.80" stroke="#D32F2F" stroke-width="8.00" stroke-linecap="round"/>
<line x1="1306.94" y1="1262.08" x2="1285.82" y2="1282.80" stroke="#D32F2F" stroke-width="6.37" stroke-linecap="round"/>
<line x1="1259.47" y1="1304.62" x2="1272.75" y2="1300.91" stroke="#D32F2F" stroke-width="8.00" stroke-linecap="round"/>
<line x1="1294.44" y1="1282.28" x2="1272.75" y2="1300.91" stroke="#D32F2F" stroke-width="7.08" stroke-linecap="round"/>
<line x1="1244.87" y1="1320.57" x2="1254.85" y2="1318.24" stroke="#D32F2F" stroke-width="8.00" stroke-linecap="round"/>
<line x1="1276.58" y1="1301.80" x2="1254.85" y2="1318.24" stroke="#D32F2F" stroke-width="7.83" stroke-linecap="round"/>
<line x1="1226.09" y1="1335.33" x2="1232.47" y2="1334.01" stroke="#D32F2F" stroke-width="8.00" stroke-linecap="round"/>
<line x1="985.20" y1="1355.79" x2="963.08" y2="1347.84" stroke="#D32F2F" stroke-width="8.00" stroke-linecap="round"/>
<line x1="967.31" y1="1347.20" x2="944.50" y2="1337.84" stroke="#D32F2F" stroke-width="8.00" stroke-linecap="round"/>
<line x1="950.77" y1="1337.11" x2="927.68" y2="1326.44" stroke="#D32F2F" stroke-width="8.00" stroke-linecap="round"/>
<line x1="921.77" y1="1324.57" x2="927.68" y2="1326.44" stroke="#D32F2F" stroke-width="8.00" stroke-linecap="round"/>
<line x1="935.43" y1="1325.47" x2="912.41" y2="1313.65" stroke="#D32F2F" stroke-width="8.00" stroke-linecap="round"/>
<line x1="905.53" y1="1312.26" x2="912.41" y2="1313.65" stroke="#D32F2F" stroke-width="8.00" stroke-linecap="round"/>
<line x1="921.14" y1="1312.21" x2="898.51" y2="1299.45" stroke="#D32F2F" stroke-width="8.00" stroke-linecap="round"/>
<line x1="890.96" y1="1298.74" x2="898.51" y2="1299.45" stroke="#D32F2F" stroke-width="8.00" stroke-linecap="round"/>
<line x1="907.78" y1="1297.20" x2="885.78" y2="1283.79" stroke="#D32F2F" stroke-width="8.00" stroke-linecap="round"/>
<line x1="877.85" y1="1284.02" x2="885.78" y2="1283.79" stroke="#D32F2F" stroke-width="8.00" stroke-linecap="round"/>
<line x1="895.23" y1="1280.32" x2="874.04" y2="1266.62" stroke="#D32F2F" stroke-width="8.00" stroke-linecap="round"/>
<line x1="865.99" y1="1268.08" x2="874.04" y2="1266.62" stroke="#D32F2F" stroke-width="8.00" stroke-linecap="round"/>
<line x1="883.38" y1="1261.44" x2="863.17" y2="1247.86" stroke="#D32F2F" stroke-width="8.00" stroke-linecap="round"/>
<line x1="855.19" y1="1250.88" x2="863.17" y2="1247.86" stroke="#D32F2F" stroke-width="8.00" stroke-linecap="round"/>
<line x1="872.18" y1="1240.43" x2="853.07" y2="1227.44" stroke="#D32F2F" stroke-width="8.00" stroke-linecap="round"/>
<line x1="845.32" y1="1232.37" x2="853.07" y2="1227.44" stroke="#D32F2F" stroke-width="8.00" stroke-linecap="round"/>
<line x1="861.62" y1="1217.23" x2="843.69" y2="1205.31" stroke="#D32F2F" stroke-width="8.00" stroke-linecap="round"/>
<line x1="836.27" y1="1212.51" x2="843.69" y2="1205.31" stroke="#D32F2F" stroke-width="8.00" stroke-linecap="round"/>
<line x1="851.72" y1="1191.84" x2="835.04" y2="1181.47" stroke="#D32F2F" stroke-width="8.00" stroke-linecap="round"/>
<line x1="827.99" y1="1191.26" x2="835.04" y2="1181.47" stroke="#D32F2F" stroke-width="8.00" stroke-linecap="round"/>
<line x1="842.62" y1="1164.35" x2="827.21" y2="1156.02" stroke="#D32F2F" stroke-width="8.00" stroke-linecap="round"/>
<line x1="820.50" y1="1168.65" x2="827.21" y2="1156.02" stroke="#D32F2F" stroke-width="8.00" stroke-linecap="round"/>
<line x1="834.53" y1="1135.04" x2="820.38" y2="1129.18" stroke="#D32F2F" stroke-width="8.00" stroke-linecap="round"/>
<line x1="813.91" y1="1144.78" x2="820.38" y2="1129.18" stroke="#D32F2F" stroke-width="8.00" stroke-linecap="round"/>
<line x1="827.72" y1="1104.36" x2="814.81" y2="1101.33" stroke="#D32F2F" stroke-width="8.00" stroke-linecap="round"/>
<line x1="808.39" y1="1119.89" x2="814.81" y2="1101.33" stroke="#D32F2F" stroke-width="8.00" stroke-linecap="round"/>
<line x1="822.56" y1="1073.00" x2="810.81" y2="1073.08" stroke="#D32F2F" stroke-width="8.00" stroke-linecap="round"/>
<line x1="804.20" y1="1094.45" x2="810.81" y2="1073.08" stroke="#D32F2F" stroke-width="8.00" stroke-linecap="round"/>
<line x1="819.43" y1="1041.87" x2="808.74" y2="1045.27" stroke="#D32F2F" stroke-width="8.00" stroke-linecap="round"/>
<line x1="801.66" y1="1069.11" x2="808.74" y2="1045.27" stroke="#D32F2F" stroke-width="8.00" stroke-linecap="round"/>
<line x1="818.70" y1="1012.08" x2="808.90" y2="1018.91" stroke="#D32F2F" stroke-width="8.00" stroke-linecap="round"/>
<line x1="801.05" y1="1044.76" x2="808.90" y2="1018.91" stroke="#D32F2F" stroke-width="7.92" stroke-linecap="round"/>
<line x1="820.58" y1="984.81" x2="811.47" y2="995.10" stroke="#D32F2F" stroke-width="8.00" stroke-linecap="round"/>
<line x1="802.60" y1="1022.42" x2="811.47" y2="995.10" stroke="#D32F2F" stroke-width="7.06" stroke-linecap="round"/>
<line x1="825.12" y1="961.20" x2="816.45" y2="974.87" stroke="#D32F2F" stroke-width="8.00" stroke-linecap="round"/>
<line x1="806.32" y1="1003.05" x2="816.45" y2="974.87" stroke="#D32F2F" stroke-width="6.17" stroke-linecap="round"/>
<line x1="1183.41" y1="812.81" x2="1159.94" y2="804.57" stroke="#D32F2F" stroke-width="8.00" stroke-linecap="round"/>
<line x1="1164.64" y1="808.03" x2="1139.51" y2="800.42" stroke="#D32F2F" stroke-width="8.00" stroke-linecap="round"/>
<line x1="1109.23" y1="795.71" x2="1119.28" y2="798.87" stroke="#D32F2F" stroke-width="8.00" stroke-linecap="round"/>
<line x1="1146.06" y1="805.57" x2="1119.28" y2="798.87" stroke="#D32F2F" stroke-width="7.82" stroke-linecap="round"/>
<line x1="1087.04" y1="795.87" x2="1099.67" y2="800.28" stroke="#D32F2F" stroke-width="8.00" stroke-linecap="round"/>
<line x1="1127.99" y1="805.70" x2="1099.67" y2="800.28" stroke="#D32F2F" stroke-width="7.26" stroke-linecap="round"/>
<line x1="1065.89" y1="799.65" x2="1081.23" y2="805.03" stroke="#D32F2F" stroke-width="8.00" stroke-linecap="round"/>
<line x1="1110.83" y1="808.76" x2="1081.23" y2="805.03" stroke="#D32F2F" stroke-width="6.70" stroke-linecap="round"/>
<line x1="1046.53" y1="807.42" x2="1064.61" y2="813.44" stroke="#D32F2F" stroke-width="8.00" stroke-linecap="round"/>
<line x1="1095.13" y1="815.07" x2="1064.61" y2="813.44" stroke="#D32F2F" stroke-width="6.17" stroke-linecap="round"/>
<line x1="1029.80" y1="819.44" x2="1050.54" y2="825.72" stroke="#D32F2F" stroke-width="8.00" stroke-linecap="round"/>
<line x1="1081.51" y1="824.86" x2="1050.54" y2="825.72" stroke="#D32F2F" stroke-width="5.75" stroke-linecap="round"/>
<line x1="1016.50" y1="835.73" x2="1039.74" y2="841.84" stroke="#D32F2F" stroke-width="8.00" stroke-linecap="round"/>
<line x1="1070.64" y1="838.17" x2="1039.74" y2="841.84" stroke="#D32F2F" stroke-width="5.47" stroke-linecap="round"/>
<line x1="1007.34" y1="855.99" x2="1032.83" y2="861.47" stroke="#D32F2F" stroke-width="8.00" stroke-linecap="round"/>
<line x1="1063.14" y1="854.77" x2="1032.83" y2="861.47" stroke="#D32F2F" stroke-width="5.93" stroke-linecap="round"/>
<line x1="1002.80" y1="879.60" x2="1030.20" y2="883.96" stroke="#D32F2F" stroke-width="8.00" stroke-linecap="round"/>
<line x1="1059.41" y1="874.14" x2="1030.20" y2="883.96" stroke="#D32F2F" stroke-width="6.90" stroke-linecap="round"/>
<line x1="1003.05" y1="905.64" x2="1031.95" y2="908.41" stroke="#D32F2F" stroke-width="8.00" stroke-linecap="round"/>
<line x1="1059.61" y1="895.48" x2="1031.95" y2="908.41" stroke="#D32F2F" stroke-width="7.78" stroke-linecap="round"/>
<line x1="1007.94" y1="933.04" x2="1037.87" y2="933.81" stroke="#D32F2F" stroke-width="8.00" stroke-linecap="round"/>
<line x1="1063.61" y1="917.87" x2="1037.87" y2="933.81" stroke="#D32F2F" stroke-width="8.00" stroke-linecap="round"/>
<line x1="1017.03" y1="960.72" x2="1047.51" y2="959.17" stroke="#D32F2F" stroke-width="8.00" stroke-linecap="round"/>
<line x1="1071.01" y1="940.40" x2="1047.51" y2="959.17" stroke="#D32F2F" stroke-width="8.00" stroke-linecap="round"/>
<line x1="1029.68" y1="987.75" x2="1060.24" y2="983.68" stroke="#D32F2F" stroke-width="8.00" stroke-linecap="round"/>
<line x1="1081.27" y1="962.34" x2="1060.24" y2="983.68" stroke="#D32F2F" stroke-width="8.00" stroke-linecap="round"/>
<line x1="1045.17" y1="1013.42" x2="1075.38" y2="1006.78" stroke="#D32F2F" stroke-width="8.00" stroke-linecap="round"/>
<line x1="1093.84" y1="983.16" x2="1075.38" y2="1006.78" stroke="#D32F2F" stroke-width="8.00" stroke-linecap="round"/>
<line x1="1062.74" y1="1037.27" x2="1092.29" y2="1028.15" stroke="#D32F2F" stroke-width="8.00" stroke-linecap="round"/>
<line x1="1108.15" y1="1002.58" x2="1092.29" y2="1028.15" stroke="#D32F2F" stroke-width="8.00" stroke-linecap="round"/>
<line x1="1081.70" y1="1059.06" x2="1110.38" y2="1047.67" stroke="#D32F2F" stroke-width="8.00" stroke-linecap="round"/>
<line x1="1123.75" y1="1020.50" x2="1110.38" y2="1047.67" stroke="#D32F2F" stroke-width="8.00" stroke-linecap="round"/>
<line x1="1101.44" y1="1078.77" x2="1129.15" y2="1065.41" stroke="#D32F2F" stroke-width="8.00" stroke-linecap="round"/>
<line x1="1140.26" y1="1037.00" x2="1129.15" y2="1065.41" stroke="#D32F2F" stroke-width="8.00" stroke-linecap="round"/>
<line x1="1121.44" y1="1096.52" x2="1148.19" y2="1081.52" stroke="#D32F2F" stroke-width="8.00" stroke-linecap="round"/>
<line x1="1157.39" y1="1052.19" x2="1148.19" y2="1081.52" stroke="#D32F2F" stroke-width="8.00" stroke-linecap="round"/>
<line x1="1141.29" y1="1112.53" x2="1167.17" y2="1096.24" stroke="#D32F2F" stroke-width="8.00" stroke-linecap="round"/>
<line x1="1174.88" y1="1066.30" x2="1167.17" y2="1096.24" stroke="#D32F2F" stroke-width="8.00" stroke-linecap="round"/>
<line x1="1160.65" y1="1127.08" x2="1185.80" y2="1109.86" stroke="#D32F2F" stroke-width="8.00" stroke-linecap="round"/>
<line x1="1192.52" y1="1079.55" x2="1185.80" y2="1109.86" stroke="#D32F2F" stroke-width="8.00" stroke-linecap="round"/>
<line x1="1179.24" y1="1140.47" x2="1203.84" y2="1122.67" stroke="#D32F2F" stroke-width="8.00" stroke-linecap="round"/>
<line x1="1210.09" y1="1092.20" x2="1203.84" y2="1122.67" stroke="#D32F2F" stroke-width="8.00" stroke-linecap="round"/>
<line x1="1196.86" y1="1153.02" x2="1221.05" y2="1134.97" stroke="#D32F2F" stroke-width="8.00" stroke-linecap="round"/>
<line x1="1227.37" y1="1104.51" x2="1221.05" y2="1134.97" stroke="#D32F2F" stroke-width="8.00" stroke-linecap="round"/>
<line x1="1213.31" y1="1165.04" x2="1237.23" y2="1147.08" stroke="#D32F2F" stroke-width="8.00" stroke-linecap="round"/>
<line x1="1244.13" y1="1116.76" x2="1237.23" y2="1147.08" stroke="#D32F2F" stroke-width="7.92" stroke-linecap="round"/>
<line x1="1228.39" y1="1176.83" x2="1252.15" y2="1159.26" stroke="#D32F2F" stroke-width="8.00" stroke-linecap="round"/>
<line x1="1260.09" y1="1129.24" x2="1252.15" y2="1159.26" stroke="#D32F2F" stroke-width="7.59" stroke-linecap="round"/>
<line x1="1241.92" y1="1188.65" x2="1265.56" y2="1171.81" stroke="#D32F2F" stroke-width="8.00" stroke-linecap="round"/>
<line x1="1274.93" y1="1142.22" x2="1265.56" y2="1171.81" stroke="#D32F2F" stroke-width="7.22" stroke-linecap="round"/>
<line x1="1253.68" y1="1200.78" x2="1277.18" y2="1184.96" stroke="#D32F2F" stroke-width="8.00" stroke-linecap="round"/>
<line x1="1288.28" y1="1155.98" x2="1277.18" y2="1184.96" stroke="#D32F2F" stroke-width="6.77" stroke-linecap="round"/>
<line x1="1263.44" y1="1213.43" x2="1286.64" y2="1198.92" stroke="#D32F2F" stroke-width="8.00" stroke-linecap="round"/>
<line x1="1299.67" y1="1170.75" x2="1286.64" y2="1198.92" stroke="#D32F2F" stroke-width="6.21" stroke-linecap="round"/>
<line x1="1270.89" y1="1226.78" x2="1293.56" y2="1213.85" stroke="#D32F2F" stroke-width="8.00" stroke-linecap="round"/>
<line x1="1308.57" y1="1186.71" x2="1293.56" y2="1213.85" stroke="#D32F2F" stroke-width="5.54" stroke-linecap="round"/>
<line x1="1275.67" y1="1240.95" x2="1297.45" y2="1229.83" stroke="#D32F2F" stroke-width="8.00" stroke-linecap="round"/>
<line x1="1314.37" y1="1203.94" x2="1297.45" y2="1229.83" stroke="#D32F2F" stroke-width="4.99" stroke-linecap="round"/>
<line x1="1277.36" y1="1256.00" x2="1297.79" y2="1246.80" stroke="#D32F2F" stroke-width="8.00" stroke-linecap="round"/>
<line x1="1316.44" y1="1222.42" x2="1297.79" y2="1246.80" stroke="#D32F2F" stroke-width="5.29" stroke-linecap="round"/>
<line x1="1275.50" y1="1271.82" x2="1294.07" y2="1264.58" stroke="#D32F2F" stroke-width="8.00" stroke-linecap="round"/>
<line x1="1314.15" y1="1241.93" x2="1294.07" y2="1264.58" stroke="#D32F2F" stroke-width="5.76" stroke-linecap="round"/>
<line x1="1269.64" y1="1288.17" x2="1285.82" y2="1282.80" stroke="#D32F2F" stroke-width="8.00" stroke-linecap="round"/>
<line x1="1306.94" y1="1262.08" x2="1285.82" y2="1282.80" stroke="#D32F2F" stroke-width="6.37" stroke-linecap="round"/>
<line x1="1259.47" y1="1304.62" x2="1272.75" y2="1300.91" stroke="#D32F2F" stroke-width="8.00" stroke-linecap="round"/>
<line x1="1294.44" y1="1282.28" x2="1272.75" y2="1300.91" stroke="#D32F2F" stroke-width="7.08" stroke-linecap="round"/>
<line x1="1244.87" y1="1320.57" x2="1254.85" y2="1318.24" stroke="#D32F2F" stroke-width="8.00" stroke-linecap="round"/>
<line x1="1276.58" y1="1301.80" x2="1254.85" y2="1318.24" stroke="#D32F2F" stroke-width="7.83" stroke-linecap="round"/>
<line x1="1226.09" y1="1335.33" x2="1232.47" y2="1334.01" stroke="#D32F2F" stroke-width="8.00" stroke-linecap="round"/>
<line x1="985.20" y1="1355.79" x2="963.08" y2="1347.84" stroke="#D32F2F" stroke-width="8.00" stroke-linecap="round"/>
<line x1="967.31" y1="1347.20" x2="944.50" y2="1337.84" stroke="#D32F2F" stroke-width="8.00" stroke-linecap="round"/>
<line x1="950.77" y1="1337.11" x2="927.68" y2="1326.44" stroke="#D32F2F" stroke-width="8.00" stroke-linecap="round"/>
<line x1="921.77" y1="1324.57" x2="927.68" y2="1326.44" stroke="#D32F2F" stroke-width="8.00" stroke-linecap="round"/>
<line x1="935.43" y1="1325.47" x2="912.41" y2="1313.65" stroke="#D32F2F" stroke-width="8.00" stroke-linecap="round"/>
<line x1="905.53" y1="1312.26" x2="912.41" y2="1313.65" stroke="#D32F2F" stroke-width="8.00" stroke-linecap="round"/>
<line x1="921.14" y1="1312.21" x2="898.51" y2="1299.45" stroke="#D32F2F" stroke-width="8.00" stroke-linecap="round"/>
<line x1="890.96" y1="1298.74" x2="898.51" y2="1299.45" stroke="#D32F2F" stroke-width="8.00" stroke-linecap="round"/>
<line x1="907.78" y1="1297.20" x2="885.78" y2="1283.79" stroke="#D32F2F" stroke-width="8.00" stroke-linecap="round"/>
<line x1="877.85" y1="1284.02" x2="885.78" y2="1283.79" stroke="#D32F2F" stroke-width="8.00" stroke-linecap="round"/>
<line x1="895.23" y1="1280.32" x2="874.04" y2="1266.62" stroke="#D32F2F" stroke-width="8.00" stroke-linecap="round"/>
<line x1="865.99" y1="1268.08" x2="874.04" y2="1266.62" stroke="#D32F2F" stroke-width="8.00" stroke-linecap="round"/>
<line x1="883.38" y1="1261.44" x2="863.17" y2="1247.86" stroke="#D32F2F" stroke-width="8.00" stroke-linecap="round"/>
<line x1="855.19" y1="1250.88" x2="863.17" y2="1247.86" stroke="#D32F2F" stroke-width="8.00" stroke-linecap="round"/>
<line x1="872.18" y1="1240.43" x2="853.07" y2="1227.44" stroke="#D32F2F" stroke-width="8.00" stroke-linecap="round"/>
<line x1="845.32" y1="1232.37" x2="853.07" y2="1227.44" stroke="#D32F2F" stroke-width="8.00" stroke-linecap="round"/>
<line x1="861.62" y1="1217.23" x2="843.69" y2="1205.31" stroke="#D32F2F" stroke-width="8.00" stroke-linecap="round"/>
<line x1="836.27" y1="1212.51" x2="843.69" y2="1205.31" stroke="#D32F2F" stroke-width="8.00" stroke-linecap="round"/>
<line x1="851.72" y1="1191.84" x2="835.04" y2="1181.47" stroke="#D32F2F" stroke-width="8.00" stroke-linecap="round"/>
<line x1="827.99" y1="1191.26" x2="835.04" y2="1181.47" stroke="#D32F2F" stroke-width="8.00" stroke-linecap="round"/>
<line x1="842.62" y1="1164.35" x2="827.21" y2="1156.02" stroke="#D32F2F" stroke-width="8.00" stroke-linecap="round"/>
<line x1="820.50" y1="1168.65" x2="827.21" y2="1156.02" stroke="#D32F2F" stroke-width="8.00" stroke-linecap="round"/>
<line x1="834.53" y1="1135.04" x2="820.38" y2="1129.18" stroke="#D32F2F" stroke-width="8.00" stroke-linecap="round"/>
<line x1="813.91" y1="1144.78" x2="820.38" y2="1129.18" stroke="#D32F2F" stroke-width="8.00" stroke-linecap="round"/>
<line x1="827.72" y1="1104.36" x2="814.81" y2="1101.33" stroke="#D32F2F" stroke-width="8.00" stroke-linecap="round"/>
<line x1="808.39" y1="1119.89" x2="814.81" y2="1101.33" stroke="#D32F2F" stroke-width="8.00" stroke-linecap="round"/>
<line x1="822.56" y1="1073.00" x2="810.81" y2="1073.08" stroke="#D32F2F" stroke-width="8.00" stroke-linecap="round"/>
<line x1="804.20" y1="1094.45" x2="810.81" y2="1073.08" stroke="#D32F2F" stroke-width="8.00" stroke-linecap="round"/>
<line x1="819.43" y1="1041.87" x2="808.74" y2="1045.27" stroke="#D32F2F" stroke-width="8.00" stroke-linecap="round"/>
<line x1="801.66" y1="1069.11" x2="808.74" y2="1045.27" stroke="#D32F2F" stroke-width="8.00" stroke-linecap="round"/>
<line x1="818.70" y1="1012.08" x2="808.90" y2="1018.91" stroke="#D32F2F" stroke-width="8.00" stroke-linecap="round"/>
<line x1="801.05" y1="1044.76" x2="808.90" y2="1018.91" stroke="#D32F2F" stroke-width="7.92" stroke-linecap="round"/>
<line x1="820.58" y1="984.81" x2="811.47" y2="995.10" stroke="#D32F2F" stroke-width="8.00" stroke-linecap="round"/>
<line x1="802.60" y1="1022.42" x2="811.47" y2="995.10" stroke="#D32F2F" stroke-width="7.06" stroke-linecap="round"/>
<line x1="825.12" y1="961.20" x2="816.45" y2="974.87" stroke="#D32F2F" stroke-width="8.00" stroke-linecap="round"/>
<line x1="806.32" y1="1003.05" x2="816.45" y2="974.87" stroke="#D32F2F" stroke-width="6.17" stroke-linecap="round"/>
<circle cx="1084.59" cy="1084.59" r="290.0" fill="none" stroke="#ccc" stroke-width="0.5"/>
<line x1="1302.09" y1="959.02" x2="1519.59" y2="833.44" stroke="#A1A1AA" stroke-width="5" opacity="0.9"/>
<line x1="1048.34" y1="1272.95" x2="1012.09" y2="1461.31" stroke="#A1A1AA" stroke-width="5" opacity="0.9"/>
<line x1="896.23" y1="903.34" x2="707.87" y2="722.09" stroke="#A1A1AA" stroke-width="5" opacity="0.9"/>
<polygon points="1157.09,707.87 1161.17,729.02 1145.45,726.00" fill="#A1A1AA" opacity="0.9"/>
<text x="1584.84" y="795.77" font-family="Palatino, 'Palatino Linotype', 'Book Antiqua', Georgia, serif" font-style="italic" font-size="52" fill="#A1A1AA" text-anchor="middle" dominant-baseline="middle" opacity="0.9">x</text>
<text x="994.69" y="1551.72" font-family="Palatino, 'Palatino Linotype', 'Book Antiqua', Georgia, serif" font-style="italic" font-size="52" fill="#A1A1AA" text-anchor="middle" dominant-baseline="middle" opacity="0.9">y</text>
<text x="651.36" y="667.71" font-family="Palatino, 'Palatino Linotype', 'Book Antiqua', Georgia, serif" font-style="italic" font-size="52" fill="#A1A1AA" text-anchor="middle" dominant-baseline="middle" opacity="0.9">z</text>
</svg>