<svg width="630.0" height="630.0" viewBox="0 0 630.0 630.0" fill="none" stroke="black" stroke-width="6" stroke-linecap="round" stroke-linejoin="round" xmlns="http://www.w3.org/2000/svg">
  <circle cx="315.0" cy="315.0" r="290.0" fill="white"/>
  <polyline points="327.64,293.11 330.75,297.16 333.86,301.22 336.95,305.29 340.03,309.38 343.10,313.48 346.14,317.59 349.16,321.73 352.16,325.88 355.12,330.06 358.06,334.26 360.95,338.49 363.81,342.74 366.62,347.03 369.38,351.34 372.09,355.69 374.75,360.07 377.35,364.49 379.88,368.95 382.35,373.44 384.74,377.97 387.06,382.54 389.30,387.15 391.45,391.79 393.51,396.48 395.47,401.21 397.34,405.98 399.10,410.79 400.75,415.64 402.28,420.53 403.70,425.45 404.98,430.40 406.14,435.39 407.15,440.41 408.03,445.46 408.75,450.53 409.32,455.62 409.73,460.73 409.97,465.85 410.05,470.97 409.94,476.10 409.66,481.22 409.19,486.33 408.53,491.43 407.68,496.50 406.62,501.53 405.37,506.53 403.91,511.47 402.24,516.36 400.36,521.18 398.27,525.92 395.97,530.58 393.46,535.14 390.74,539.60 387.81,543.94 384.67,548.16 381.33,552.24 377.79,556.18 374.06,559.97 370.13,563.60 366.02,567.06 361.73,570.35 357.28,573.45 352.66,576.36 347.89,579.08 342.97,581.60 337.93,583.91 332.75,586.02 327.47,587.92 322.08,589.62 316.60,591.10 311.03,592.37 305.40,593.43 299.70,594.28 293.96,594.92 288.17,595.36 282.36,595.60 276.52,595.65 270.67,595.50 264.83,595.16 258.98,594.64 253.16,593.95 247.35,593.08 241.57,592.05 235.83,590.85 230.13,589.50 224.48,588.00 218.88,586.36 213.34,584.59 207.86,582.68 202.45,580.64 197.10,578.49 191.82,576.22 186.63,573.83 181.50,571.35 176.46,568.76 171.50,566.08 166.62,563.30 161.82,560.44 157.11,557.49 152.48,554.46 147.94,551.36 143.48,548.18 139.11,544.93 134.83,541.61 130.63,538.23 126.52,534.78 122.50,531.27 118.56,527.70 114.71,524.07 110.94,520.39 107.26,516.66 103.66,512.87 100.15,509.02 96.72,505.13 93.37,501.19 90.11,497.20 86.92,493.16 83.82,489.07 80.80,484.94 77.86,480.76 74.99,476.53 72.21,472.26 69.50,467.94 66.88,463.58 64.33,459.17 61.86,454.72 59.47,450.22 57.15,445.68 54.92,441.10 52.75,436.47 50.67,431.79 48.67,427.07 46.74,422.31 44.89,417.50 43.12,412.65 41.42,407.76 39.81,402.82 38.28,397.84 36.82,392.82 35.45,387.75 34.16,382.65 32.95,377.50 31.83,372.31 30.79,367.09 29.84,361.82 28.98,356.52 28.20,351.18 27.52,345.81 26.94,340.41 26.44,334.97 26.05,329.51 25.75,324.02 25.55,318.52 25.46,312.99 25.47,307.44 25.60,301.88 25.83,296.32 26.18,290.74 26.64,285.17 27.22,279.61 27.92,274.06 28.75,268.52"/>
  <polyline points="379.08,32.17 373.53,31.01 367.97,30.00 362.42,29.15 356.88,28.47 351.37,27.95 345.88,27.61 340.44,27.46 335.06,27.48 329.73,27.70 324.47,28.10 319.30,28.70 314.21,29.49 309.23,30.48 304.36,31.66 299.61,33.04 294.99,34.62 290.51,36.38 286.17,38.34 282.00,40.49 277.99,42.81 274.15,45.32 270.49,48.00 267.02,50.84 263.73,53.85 260.64,57.01 257.75,60.32 255.06,63.76 252.58,67.33 250.30,71.03 248.22,74.84 246.35,78.75 244.69,82.76 243.23,86.85 241.97,91.02 240.92,95.27 240.06,99.57 239.40,103.93 238.92,108.34 238.64,112.79 238.53,117.27 238.60,121.78 238.84,126.30 239.25,130.85 239.83,135.40 240.55,139.96 241.43,144.51 242.46,149.06 243.62,153.61 244.91,158.15 246.34,162.67 247.88,167.17 249.55,171.66 251.32,176.13 253.21,180.57 255.19,185.00 257.27,189.40 259.44,193.77 261.69,198.13 264.03,202.45 266.44,206.75 268.93,211.03 271.48,215.29 274.10,219.52 276.78,223.73 279.51,227.91 282.29,232.08 285.12,236.23 287.99,240.35 290.90,244.47 293.84,248.56 296.82,252.65 299.83,256.72 302.86,260.78 305.92,264.83 308.99,268.88 312.08,272.92 315.18,276.95 318.29,280.99 321.40,285.03 324.52,289.07 327.64,293.11 330.75,297.16 333.86,301.22 336.95,305.29 340.03,309.38 343.10,313.48 346.14,317.59 349.16,321.73 352.16,325.88 355.12,330.06 358.06,334.26 360.95,338.49 363.81,342.74 366.62,347.03 369.38,351.34 372.09,355.69 374.75,360.07 377.35,364.49 379.88,368.95 382.35,373.44 384.74,377.97 387.06,382.54 389.30,387.15 391.45,391.79 393.51,396.48 395.47,401.21 397.34,405.98 399.10,410.79 400.75,415.64 402.28,420.53 403.70,425.45 404.98,430.40 406.14,435.39 407.15,440.41 408.03,445.46 408.75,450.53 409.32,455.62 409.73,460.73 409.97,465.85 410.05,470.97 409.94,476.10 409.66,481.22 409.19,486.33 408.53,491.43 407.68,496.50 406.62,501.53 405.37,506.53 403.91,511.47 402.24,516.36 400.36,521.18 398.27,525.92 395.97,530.58 393.46,535.14 390.74,539.60 387.81,543.94 384.67,548.16 381.33,552.24 377.79,556.18 374.06,559.97 370.13,563.60 366.02,567.06 361.73,570.35 357.28,573.45 352.66,576.36 347.89,579.08 342.97,581.60 337.93,583.91 332.75,586.02 327.47,587.92 322.08,589.62 316.60,591.10 311.03,592.37 305.40,593.43 299.70,594.28 293.96,594.92 288.17,595.36 282.36,595.60 276.52,595.65 270.67,595.50 264.83,595.16 258.98,594.64 253.16,593.95 247.35,593.08 241.57,592.05 235.83,590.85 230.13,589.50 224.48,588.00 218.88,586.36 213.34,584.59 207.86,582.68 202.45,580.64 197.10,578.49 191.82,576.22 186.63,573.83 181.50,571.35 176.46,568.76 171.50,566.08 166.62,563.30 161.82,560.44 157.11,557.49 152.48,554.46 147.94,551.36 143.48,548.18 139.11,544.93 134.83,541.61 130.63,538.23 126.52,534.78 122.50,531.27 118.56,527.70 114.71,524.07 110.94,520.39 107.26,516.66 103.66,512.87 100.15,509.02 96.72,505.13 93.37,501.19 90.11,497.20 86.92,493.16 83.82,489.07 80.80,484.94 77.86,480.76 74.99,476.53 72.21,472.26 69.50,467.94 66.88,463.58 64.33,459.17 61.86,454.72 59.47,450.22 57.15,445.68 54.92,441.10 52.75,436.47 50.67,431.79 48.67,427.07 46.74,422.31 44.89,417.50 43.12,412.65 41.42,407.76 39.81,402.82 38.28,397.84 36.82,392.82 35.45,387.75 34.16,382.65 32.95,377.50 31.83,372.31 30.79,367.09 29.84,361.82 28.98,356.52 28.20,351.18 27.52,345.81 26.94,340.41 26.44,334.97 26.05,329.51 25.75,324.02 25.55,318.52 25.46,312.99 25.47,307.44 25.60,301.88 25.83,296.32 26.18,290.74 26.64,285.17 27.22,279.61 27.92,274.06 28.75,268.52"/>
  <polyline points="379.08,32.17 373.53,31.01 367.97,30.00 362.42,29.15 356.88,28.47 351.37,27.95 345.88,27.61 340.44,27.46 335.06,27.48 329.73,27.70 324.47,28.10 319.30,28.70 314.21,29.49 309.23,30.48 304.36,31.66 299.61,33.04 294.99,34.62 290.51,36.38 286.17,38.34 282.00,40.49 277.99,42.81 274.15,45.32 270.49,48.00 267.02,50.84 263.73,53.85 260.64,57.01 257.75,60.32 255.06,63.76 252.58,67.33 250.30,71.03 248.22,74.84 246.35,78.75 244.69,82.76 243.23,86.85 241.97,91.02 240.92,95.27 240.06,99.57 239.40,103.93 238.92,108.34 238.64,112.79 238.53,117.27 238.60,121.78 238.84,126.30 239.25,130.85 239.83,135.40 240.55,139.96 241.43,144.51 242.46,149.06 243.62,153.61 244.91,158.15 246.34,162.67 247.88,167.17 249.55,171.66 251.32,176.13 253.21,180.57 255.19,185.00 257.27,189.40 259.44,193.77 261.69,198.13 264.03,202.45 266.44,206.75 268.93,211.03 271.48,215.29 274.10,219.52 276.78,223.73 279.51,227.91 282.29,232.08 285.12,236.23 287.99,240.35 290.90,244.47 293.84,248.56 296.82,252.65 299.83,256.72 302.86,260.78 305.92,264.83 308.99,268.88 312.08,272.92 315.18,276.95 318.29,280.99 321.40,285.03 324.52,289.07 327.64,293.11"/>
</svg>