<svg width="630.0" height="630.0" viewBox="0 0 630.0 630.0" fill="none" stroke="black" stroke-width="6" stroke-linecap="round" stroke-linejoin="round" xmlns="http://www.w3.org/2000/svg">
  <circle cx="315.0" cy="315.0" r="290.0" fill="white"/>
  <polyline points="296.14,25.63 300.29,25.45 304.41,25.39 308.48,25.45 312.50,25.64 316.47,25.96 320.38,26.40 324.22,26.99 328.00,27.71 331.69,28.57 335.31,29.57 338.83,30.73 342.25,32.03 345.58,33.48 348.79,35.09 351.88,36.86 354.84,38.78 357.67,40.87 360.37,43.12 362.91,45.53 365.30,48.10 367.53,50.83 369.59,53.73 371.48,56.78 373.19,59.99 374.71,63.36 376.04,66.88 377.17,70.55 378.11,74.36 378.84,78.31 379.36,82.39 379.68,86.60 379.79,90.92 379.68,95.36 379.37,99.90 378.84,104.53 378.10,109.25 377.16,114.05 376.01,118.91 374.66,123.83 373.12,128.79 371.38,133.79 369.46,138.83 367.35,143.88 365.06,148.94 362.61,154.00 360.00,159.05 357.23,164.08 354.31,169.09 351.25,174.07 348.06,179.00 344.74,183.89 341.30,188.73 337.76,193.51 334.11,198.23 330.36,202.88 326.53,207.46 322.61,211.96 318.62,216.39 314.56,220.73 310.44,225.00 306.26,229.18 302.04,233.27 297.77,237.28 293.46,241.20 289.11,245.04 284.74,248.79 280.35,252.46 275.93,256.04 271.51,259.54 267.06,262.96 262.62,266.30 258.16,269.56 253.71,272.75 249.26,275.86 244.82,278.90 240.38,281.87 235.96,284.77 231.55,287.61 227.16,290.39 222.78,293.11 218.43,295.78 214.10,298.39 209.79,300.96 205.52,303.47 201.27,305.95 197.05,308.38 192.86,310.78 188.71,313.14 184.59,315.47 180.52,317.78 176.48,320.06 172.48,322.32 168.52,324.56 164.61,326.79 160.74,329.00 156.93,331.21 153.16,333.41 149.44,335.61 145.77,337.81 142.16,340.02 138.60,342.23 135.11,344.45 131.67,346.69 128.29,348.95 124.98,351.22 121.74,353.52 118.56,355.85 115.46,358.21 112.43,360.60 109.48,363.02 106.60,365.49 103.81,367.99 101.10,370.54 98.49,373.14 95.96,375.79 93.53,378.49 91.19,381.24 88.96,384.06 86.84,386.93 84.83,389.86 82.93,392.86 81.15,395.93 79.49,399.06 77.96,402.26 76.57,405.54 75.31,408.88 74.20,412.30 73.24,415.79 72.42,419.36 71.77,423.00 71.28,426.71 70.96,430.49 70.82,434.35 70.86,438.27 71.08,442.27 71.49,446.33 72.10,450.45 72.91,454.63 73.93,458.87 75.15,463.16 76.59,467.50 78.25,471.88 80.12,476.30 82.22,480.75 84.54,485.22 87.08,489.71 89.86,494.21 92.85,498.71 96.08,503.20 99.52,507.68 103.19,512.14 107.07,516.57 111.16,520.96 115.46,525.30 119.97,529.58 124.66,533.79"/>
  <polyline points="358.06,601.78 362.88,601.00 367.60,600.12 372.24,599.16 376.79,598.10 381.25,596.96 385.62,595.74 389.91,594.43 394.12,593.04 398.25,591.57 402.29,590.02 406.27,588.39 410.16,586.68 413.99,584.89 417.75,583.03 421.43,581.09 425.05,579.08 428.61,576.99 432.11,574.83 435.55,572.59 438.93,570.28 442.25,567.89 445.53,565.43 448.75,562.89 451.93,560.28 455.06,557.59 458.15,554.83 461.19,551.99 464.20,549.08 467.17,546.09 470.10,543.02 473.00,539.87 475.87,536.65 478.71,533.35 481.53,529.97 484.31,526.51 487.08,522.97 489.82,519.35 492.53,515.65 495.24,511.87 497.92,508.00 500.58,504.06 503.23,500.03 505.87,495.91 508.49,491.71 511.10,487.43 513.69,483.06 516.28,478.61 518.86,474.08 521.42,469.46 523.97,464.76 526.52,459.97 529.05,455.10 531.57,450.15 534.08,445.12 536.57,440.01 539.05,434.83 541.52,429.56 543.97,424.23 546.40,418.82 548.81,413.35 551.19,407.81 553.55,402.21 555.89,396.55 558.19,390.84 560.45,385.09 562.68,379.29 564.87,373.45 567.01,367.59 569.10,361.70 571.13,355.80 573.11,349.89 575.02,343.98 576.86,338.08 578.63,332.20 580.32,326.35 581.93,320.53 583.45,314.77 584.88,309.06 586.22,303.42 587.45,297.86 588.58,292.39 589.60,287.03 590.50,281.78 591.30,276.65 591.97,271.65 592.53,266.80 592.97,262.09 593.29,257.56 593.48,253.19 593.55,249.00 593.50,244.99 593.33,241.18 593.04,237.57 592.63,234.15 592.11,230.95 591.47,227.96 590.72,225.18"/>
  <polyline points="296.14,25.63 300.29,25.45 304.41,25.39 308.48,25.45 312.50,25.64 316.47,25.96 320.38,26.40 324.22,26.99 328.00,27.71 331.69,28.57 335.31,29.57 338.83,30.73 342.25,32.03 345.58,33.48 348.79,35.09 351.88,36.86 354.84,38.78 357.67,40.87 360.37,43.12 362.91,45.53 365.30,48.10 367.53,50.83 369.59,53.73 371.48,56.78 373.19,59.99 374.71,63.36 376.04,66.88 377.17,70.55 378.11,74.36 378.84,78.31 379.36,82.39 379.68,86.60 379.79,90.92 379.68,95.36 379.37,99.90 378.84,104.53 378.10,109.25 377.16,114.05 376.01,118.91 374.66,123.83 373.12,128.79 371.38,133.79 369.46,138.83 367.35,143.88 365.06,148.94 362.61,154.00 360.00,159.05 357.23,164.08 354.31,169.09 351.25,174.07 348.06,179.00 344.74,183.89 341.30,188.73 337.76,193.51 334.11,198.23 330.36,202.88 326.53,207.46 322.61,211.96 318.62,216.39 314.56,220.73 310.44,225.00 306.26,229.18 302.04,233.27 297.77,237.28 293.46,241.20 289.11,245.04 284.74,248.79 280.35,252.46 275.93,256.04 271.51,259.54 267.06,262.96 262.62,266.30 258.16,269.56 253.71,272.75 249.26,275.86 244.82,278.90 240.38,281.87 235.96,284.77 231.55,287.61 227.16,290.39 222.78,293.11 218.43,295.78 214.10,298.39 209.79,300.96 205.52,303.47 201.27,305.95 197.05,308.38 192.86,310.78 188.71,313.14 184.59,315.47 180.52,317.78 176.48,320.06 172.48,322.32 168.52,324.56 164.61,326.79 160.74,329.00 156.93,331.21 153.16,333.41 149.44,335.61 145.77,337.81 142.16,340.02 138.60,342.23 135.11,344.45 131.67,346.69 128.29,348.95 124.98,351.22 121.74,353.52 118.56,355.85 115.46,358.21 112.43,360.60 109.48,363.02 106.60,365.49 103.81,367.99 101.10,370.54 98.49,373.14 95.96,375.79 93.53,378.49 91.19,381.24 88.96,384.06 86.84,386.93 84.83,389.86 82.93,392.86 81.15,395.93 79.49,399.06 77.96,402.26 76.57,405.54 75.31,408.88 74.20,412.30 73.24,415.79 72.42,419.36 71.77,423.00 71.28,426.71 70.96,430.49 70.82,434.35 70.86,438.27 71.08,442.27 71.49,446.33 72.10,450.45 72.91,454.63 73.93,458.87 75.15,463.16 76.59,467.50 78.25,471.88 80.12,476.30 82.22,480.75 84.54,485.22 87.08,489.71 89.86,494.21 92.85,498.71 96.08,503.20 99.52,507.68 103.19,512.14 107.07,516.57 111.16,520.96 115.46,525.30 119.97,529.58 124.66,533.79"/>
  <polyline points="358.06,601.78 362.88,601.00 367.60,600.12 372.24,599.16 376.79,598.10 381.25,596.96 385.62,595.74 389.91,594.43 394.12,593.04 398.25,591.57 402.29,590.02 406.27,588.39 410.16,586.68 413.99,584.89 417.75,583.03 421.43,581.09 425.05,579.08 428.61,576.99 432.11,574.83 435.55,572.59 438.93,570.28 442.25,567.89 445.53,565.43 448.75,562.89 451.93,560.28 455.06,557.59 458.15,554.83 461.19,551.99 464.20,549.08 467.17,546.09 470.10,543.02 473.00,539.87 475.87,536.65 478.71,533.35 481.53,529.97 484.31,526.51 487.08,522.97 489.82,519.35 492.53,515.65 495.24,511.87 497.92,508.00 500.58,504.06 503.23,500.03 505.87,495.91 508.49,491.71 511.10,487.43 513.69,483.06 516.28,478.61 518.86,474.08 521.42,469.46 523.97,464.76 526.52,459.97 529.05,455.10 531.57,450.15 534.08,445.12 536.57,440.01 539.05,434.83 541.52,429.56 543.97,424.23 546.40,418.82 548.81,413.35 551.19,407.81 553.55,402.21 555.89,396.55 558.19,390.84 560.45,385.09 562.68,379.29 564.87,373.45 567.01,367.59 569.10,361.70 571.13,355.80 573.11,349.89 575.02,343.98 576.86,338.08 578.63,332.20 580.32,326.35 581.93,320.53 583.45,314.77 584.88,309.06 586.22,303.42 587.45,297.86 588.58,292.39 589.60,287.03 590.50,281.78 591.30,276.65 591.97,271.65 592.53,266.80 592.97,262.09 593.29,257.56 593.48,253.19 593.55,249.00 593.50,244.99 593.33,241.18 593.04,237.57 592.63,234.15 592.11,230.95 591.47,227.96 590.72,225.18"/>
</svg>