<svg width="630.0" height="630.0" viewBox="0 0 630.0 630.0" fill="none" stroke="black" stroke-width="6" stroke-linecap="round" stroke-linejoin="round" xmlns="http://www.w3.org/2000/svg">
  <circle cx="315.0" cy="315.0" r="290.0" fill="white"/>
  <polyline points="189.43,97.50 194.02,96.02 198.66,94.61 203.33,93.27 208.04,92.01 212.79,90.82 217.57,89.72 222.39,88.69 227.24,87.76 232.13,86.90 237.05,86.14 242.00,85.48 246.98,84.91 251.99,84.44 257.04,84.07 262.11,83.80 267.20,83.65 272.33,83.61 277.48,83.68 282.65,83.88 287.84,84.20 293.05,84.64 298.28,85.21 303.53,85.92 308.78,86.77 314.05,87.75 319.32,88.89 324.60,90.17 329.88,91.60 335.15,93.20 340.42,94.95 345.67,96.87 350.91,98.95 356.13,101.21 361.32,103.65 366.48,106.26 371.60,109.05 376.68,112.03 381.71,115.19 386.68,118.55 391.58,122.09 396.41,125.82 401.16,129.75 405.82,133.87 410.38,138.19 414.83,142.69 419.17,147.39 423.39,152.27 427.47,157.34 431.41,162.60 435.19,168.03 438.82,173.63 442.27,179.40 445.55,185.33 448.64,191.41 451.53,197.64 454.22,204.00 456.70,210.48 458.96,217.08 461.00,223.78 462.81,230.58 464.38,237.45 465.73,244.39 466.83,251.38 467.69,258.42 468.30,265.48 468.68,272.55 468.81,279.63 468.70,286.69 468.35,293.73 467.76,300.73 466.95,307.68 465.90,314.57 464.63,321.39 463.15,328.12 461.45,334.76 459.55,341.30 457.45,347.73 455.16,354.04 452.69,360.22 450.04,366.27 447.22,372.19 444.25,377.96 441.13,383.59 437.86,389.07 434.45,394.39 430.92,399.56 427.27,404.58 423.51,409.44 419.64,414.14 415.68,418.69 411.62,423.07 407.48,427.30 403.26,431.38 398.96,435.30 394.60,439.08 390.18,442.70 385.71,446.17 381.18,449.51 376.61,452.69 371.99,455.74 367.34,458.66 362.65,461.44 357.94,464.09 353.20,466.61 348.43,469.02 343.65,471.30 338.85,473.46 334.04,475.51 329.21,477.45 324.38,479.29 319.54,481.02 314.70,482.65 309.85,484.19 305.00,485.63 300.16,486.98 295.32,488.25 290.49,489.43 285.66,490.53 280.84,491.55 276.04,492.50 271.24,493.38 266.46,494.19 261.69,494.94 256.94,495.62 252.21,496.25 247.50,496.82 242.81,497.33 238.14,497.80 233.50,498.22 228.88,498.59 224.29,498.92 219.72,499.21 215.19,499.46 210.69,499.67 206.23,499.86 201.80,500.02 197.41,500.14 193.06,500.25 188.75,500.33 184.49,500.39 180.28,500.43 176.11,500.46 172.00,500.48 167.95,500.49 163.96,500.48 160.03,500.47 156.17,500.46 152.38,500.44 148.66,500.43 145.02,500.42 141.47,500.41 138.00,500.40 134.63,500.41 131.35,500.42 128.18,500.44 125.11,500.48 122.16,500.53 119.33,500.60 116.62,500.68 114.05,500.78 111.62,500.90 109.33,501.04 107.19,501.21 105.21,501.39 103.40,501.60 101.77,501.83 100.31,502.08 99.04,502.36 97.96,502.66 97.08,502.99 96.41,503.34 95.95,503.71 95.71,504.11 95.69,504.53 95.90,504.97"/>
  <polyline points="52.84,191.10 54.14,188.72 55.60,186.31 57.22,183.86 59.00,181.39 60.91,178.90 62.97,176.38 65.16,173.85 67.48,171.31 69.92,168.75 72.47,166.19 75.14,163.63 77.91,161.06 80.79,158.50 83.76,155.94 86.83,153.39 89.98,150.86 93.22,148.33 96.54,145.82 99.94,143.33 103.41,140.86 106.95,138.41 110.56,135.98 114.23,133.59 117.97,131.22 121.77,128.88 125.63,126.58 129.54,124.31 133.51,122.09 137.53,119.90 141.61,117.75 145.73,115.65 149.90,113.59 154.12,111.58 158.38,109.62 162.69,107.72 167.04,105.87 171.43,104.07 175.87,102.34 180.35,100.66 184.87,99.05 189.43,97.50 194.02,96.02 198.66,94.61 203.33,93.27 208.04,92.01 212.79,90.82 217.57,89.72 222.39,88.69 227.24,87.76 232.13,86.90 237.05,86.14 242.00,85.48 246.98,84.91 251.99,84.44 257.04,84.07 262.11,83.80 267.20,83.65 272.33,83.61 277.48,83.68 282.65,83.88 287.84,84.20 293.05,84.64 298.28,85.21 303.53,85.92 308.78,86.77 314.05,87.75 319.32,88.89 324.60,90.17 329.88,91.60 335.15,93.20 340.42,94.95 345.67,96.87 350.91,98.95 356.13,101.21 361.32,103.65 366.48,106.26 371.60,109.05 376.68,112.03 381.71,115.19 386.68,118.55 391.58,122.09 396.41,125.82 401.16,129.75 405.82,133.87 410.38,138.19 414.83,142.69 419.17,147.39 423.39,152.27 427.47,157.34 431.41,162.60 435.19,168.03 438.82,173.63 442.27,179.40 445.55,185.33 448.64,191.41 451.53,197.64 454.22,204.00 456.70,210.48 458.96,217.08 461.00,223.78 462.81,230.58 464.38,237.45 465.73,244.39 466.83,251.38 467.69,258.42 468.30,265.48 468.68,272.55 468.81,279.63 468.70,286.69 468.35,293.73 467.76,300.73 466.95,307.68 465.90,314.57 464.63,321.39 463.15,328.12 461.45,334.76 459.55,341.30 457.45,347.73 455.16,354.04 452.69,360.22 450.04,366.27 447.22,372.19 444.25,377.96 441.13,383.59 437.86,389.07 434.45,394.39 430.92,399.56 427.27,404.58 423.51,409.44 419.64,414.14 415.68,418.69 411.62,423.07 407.48,427.30 403.26,431.38 398.96,435.30 394.60,439.08 390.18,442.70 385.71,446.17 381.18,449.51 376.61,452.69 371.99,455.74 367.34,458.66 362.65,461.44 357.94,464.09 353.20,466.61 348.43,469.02 343.65,471.30 338.85,473.46 334.04,475.51 329.21,477.45 324.38,479.29 319.54,481.02 314.70,482.65 309.85,484.19 305.00,485.63 300.16,486.98 295.32,488.25 290.49,489.43 285.66,490.53 280.84,491.55 276.04,492.50 271.24,493.38 266.46,494.19 261.69,494.94 256.94,495.62 252.21,496.25 247.50,496.82 242.81,497.33 238.14,497.80 233.50,498.22 228.88,498.59 224.29,498.92 219.72,499.21 215.19,499.46 210.69,499.67 206.23,499.86 201.80,500.02 197.41,500.14 193.06,500.25 188.75,500.33 184.49,500.39 180.28,500.43 176.11,500.46 172.00,500.48 167.95,500.49 163.96,500.48 160.03,500.47 156.17,500.46 152.38,500.44 148.66,500.43 145.02,500.42 141.47,500.41 138.00,500.40 134.63,500.41 131.35,500.42 128.18,500.44 125.11,500.48 122.16,500.53 119.33,500.60 116.62,500.68 114.05,500.78 111.62,500.90 109.33,501.04 107.19,501.21 105.21,501.39 103.40,501.60 101.77,501.83 100.31,502.08 99.04,502.36 97.96,502.66 97.08,502.99 96.41,503.34 95.95,503.71 95.71,504.11 95.69,504.53 95.90,504.97"/>
  <polyline points="52.84,191.10 54.14,188.72 55.60,186.31 57.22,183.86 59.00,181.39 60.91,178.90 62.97,176.38 65.16,173.85 67.48,171.31 69.92,168.75 72.47,166.19 75.14,163.63 77.91,161.06 80.79,158.50 83.76,155.94 86.83,153.39 89.98,150.86 93.22,148.33 96.54,145.82 99.94,143.33 103.41,140.86 106.95,138.41 110.56,135.98 114.23,133.59 117.97,131.22 121.77,128.88 125.63,126.58 129.54,124.31 133.51,122.09 137.53,119.90 141.61,117.75 145.73,115.65 149.90,113.59 154.12,111.58 158.38,109.62 162.69,107.72 167.04,105.87 171.43,104.07 175.87,102.34 180.35,100.66 184.87,99.05 189.43,97.50"/>
</svg>