<svg width="630.0" height="630.0" viewBox="0 0 630.0 630.0" xmlns="http://www.w3.org/2000/svg">
<circle cx="315.0" cy="315.0" r="290.0" fill="#fff" stroke="#000" stroke-width="6"/>
<polyline points="583.86,206.33 582.92,204.30 581.81,202.19 580.50,199.99 579.01,197.70 577.33,195.32 575.45,192.86 573.37,190.31 571.09,187.67 568.61,184.95 565.93,182.16 563.04,179.28 559.95,176.33 556.65,173.32 553.16,170.23 549.46,167.09 545.57,163.89 541.48,160.63 537.21,157.33 532.75,154.00 528.12,150.62 523.31,147.22 518.35,143.80 513.23,140.36 507.96,136.92 502.56,133.47 497.03,130.03 491.39,126.60 485.65,123.18 479.81,119.79 473.89,116.43 467.91,113.11 461.86,109.82 455.77,106.58 449.65,103.39 443.50,100.25 437.34,97.17 431.18,94.16 425.03,91.21 418.90,88.32 412.80,85.51 406.73,82.77 400.71,80.11 394.74,77.53 388.83,75.02 382.98,72.59 377.21,70.25 371.51,67.98 365.90,65.80 360.37,63.70 354.94,61.68 349.59,59.74 344.34,57.89 339.19,56.11 334.13,54.42 329.17,52.81 324.32,51.28 319.56,49.83 314.91,48.46 310.35,47.18 305.89,45.96 301.53,44.83 297.27,43.78 293.10,42.80 289.03,41.91 285.05,41.09 281.16,40.34 277.35,39.67 273.64,39.08 270.00,38.57 266.45,38.13 262.98,37.76 259.58,37.48 256.25,37.26 253.00,37.13 249.81,37.07 246.69,37.09 243.63,37.18 240.63,37.36 237.68,37.61 234.79,37.94 231.95,38.34 229.16,38.83 226.41,39.40 223.71,40.05 221.04,40.78 218.41,41.59 215.81,42.49" fill="none" stroke="#000" stroke-width="6" stroke-linecap="round"/>
<polyline points="39.85,406.54 40.59,408.33 41.40,409.95 42.29,411.39 43.24,412.67 44.26,413.79 45.35,414.75 46.50,415.56 47.71,416.21 48.98,416.72 50.31,417.10 51.69,417.34 53.13,417.45 54.62,417.43 56.17,417.29 57.77,417.04 59.42,416.68 61.12,416.21 62.87,415.63 64.68,414.97 66.53,414.20 68.44,413.35 70.40,412.42 72.40,411.40 74.46,410.31 76.57,409.15 78.74,407.91 80.96,406.62 83.23,405.26 85.55,403.85 87.93,402.39 90.37,400.87 92.87,399.32 95.42,397.72 98.03,396.08 100.71,394.41 103.44,392.71 106.24,390.98 109.11,389.23 112.04,387.46 115.04,385.67 118.11,383.87 121.25,382.05 124.46,380.24 127.74,378.41 131.10,376.59 134.54,374.78 138.05,372.97 141.65,371.17 145.32,369.39 149.08,367.63 152.93,365.89 156.86,364.17 160.88,362.48 164.99,360.83 169.19,359.22 173.48,357.64 177.86,356.11 182.34,354.63 186.91,353.20 191.58,351.83 196.35,350.53 201.22,349.28 206.18,348.11 211.24,347.01 216.40,345.99 221.66,345.05 227.01,344.20 232.46,343.44 238.01,342.77 243.65,342.21 249.38,341.75 255.20,341.40 261.11,341.16 267.10,341.04 273.17,341.04 279.32,341.17 285.54,341.42 291.83,341.81 298.17,342.33 304.57,342.99 311.02,343.80 317.50,344.74 324.02,345.84 330.56,347.08 337.11,348.47 343.66,350.01 350.21,351.70 356.74,353.54 363.24,355.53 369.70,357.67 376.11,359.95 382.45,362.38 388.72,364.96 394.90,367.67 400.98,370.51 406.95,373.49 412.79,376.59 418.50,379.82 424.06,383.16 429.46,386.60 434.69,390.15 439.74,393.80 444.61,397.53 449.29,401.34 453.76,405.23 458.02,409.18 462.07,413.20 465.90,417.26 469.51,421.37 472.90,425.51 476.05,429.68 478.97,433.87 481.67,438.08 484.14,442.30 486.37,446.52 488.38,450.73 490.17,454.94 491.73,459.13 493.07,463.30 494.20,467.44 495.12,471.55 495.83,475.63 496.34,479.67 496.66,483.67 496.78,487.62 496.72,491.53 496.48,495.38 496.06,499.18 495.48,502.93 494.73,506.61 493.82,510.24 492.77,513.80 491.57,517.31 490.22,520.74 488.74,524.11 487.14,527.42 485.40,530.65 483.55,533.82 481.58,536.91 479.51,539.94 477.33,542.89 475.05,545.78 472.67,548.59 470.20,551.32 467.64,553.99 465.00,556.58 462.28,559.09 459.48,561.53 456.61,563.90 453.67,566.18 450.67,568.39 447.60,570.53 444.48,572.59 441.30,574.57 438.06,576.47 434.78,578.29 431.45,580.03 428.07,581.69 424.66,583.27 421.20,584.77 417.71,586.18 414.19,587.51" fill="none" stroke="#000" stroke-width="6" stroke-linecap="round"/>
<polyline points="583.86,206.33 582.92,204.30 581.81,202.19 580.50,199.99 579.01,197.70 577.33,195.32 575.45,192.86 573.37,190.31 571.09,187.67 568.61,184.95 565.93,182.16 563.04,179.28 559.95,176.33 556.65,173.32 553.16,170.23 549.46,167.09 545.57,163.89 541.48,160.63 537.21,157.33 532.75,154.00 528.12,150.62 523.31,147.22 518.35,143.80 513.23,140.36 507.96,136.92 502.56,133.47 497.03,130.03 491.39,126.60 485.65,123.18 479.81,119.79 473.89,116.43 467.91,113.11 461.86,109.82 455.77,106.58 449.65,103.39 443.50,100.25 437.34,97.17 431.18,94.16 425.03,91.21 418.90,88.32 412.80,85.51 406.73,82.77 400.71,80.11 394.74,77.53 388.83,75.02 382.98,72.59 377.21,70.25 371.51,67.98 365.90,65.80 360.37,63.70 354.94,61.68 349.59,59.74 344.34,57.89 339.19,56.11 334.13,54.42 329.17,52.81 324.32,51.28 319.56,49.83 314.91,48.46 310.35,47.18 305.89,45.96 301.53,44.83 297.27,43.78 293.10,42.80 289.03,41.91 285.05,41.09 281.16,40.34 277.35,39.67 273.64,39.08 270.00,38.57 266.45,38.13 262.98,37.76 259.58,37.48 256.25,37.26 253.00,37.13 249.81,37.07 246.69,37.09 243.63,37.18 240.63,37.36 237.68,37.61 234.79,37.94 231.95,38.34 229.16,38.83 226.41,39.40 223.71,40.05 221.04,40.78 218.41,41.59 215.81,42.49" fill="none" stroke="#000" stroke-width="6" stroke-linecap="round"/>
<polyline points="39.85,406.54 40.59,408.33 41.40,409.95 42.29,411.39 43.24,412.67 44.26,413.79 45.35,414.75 46.50,415.56 47.71,416.21 48.98,416.72 50.31,417.10 51.69,417.34 53.13,417.45 54.62,417.43 56.17,417.29 57.77,417.04 59.42,416.68 61.12,416.21 62.87,415.63 64.68,414.97 66.53,414.20 68.44,413.35 70.40,412.42 72.40,411.40 74.46,410.31 76.57,409.15 78.74,407.91 80.96,406.62 83.23,405.26 85.55,403.85 87.93,402.39 90.37,400.87 92.87,399.32 95.42,397.72 98.03,396.08 100.71,394.41 103.44,392.71 106.24,390.98 109.11,389.23 112.04,387.46 115.04,385.67 118.11,383.87 121.25,382.05 124.46,380.24 127.74,378.41 131.10,376.59 134.54,374.78 138.05,372.97 141.65,371.17 145.32,369.39 149.08,367.63 152.93,365.89 156.86,364.17 160.88,362.48 164.99,360.83 169.19,359.22 173.48,357.64 177.86,356.11 182.34,354.63 186.91,353.20 191.58,351.83 196.35,350.53 201.22,349.28 206.18,348.11 211.24,347.01 216.40,345.99 221.66,345.05 227.01,344.20 232.46,343.44 238.01,342.77 243.65,342.21 249.38,341.75 255.20,341.40 261.11,341.16 267.10,341.04 273.17,341.04 279.32,341.17 285.54,341.42 291.83,341.81 298.17,342.33 304.57,342.99 311.02,343.80 317.50,344.74 324.02,345.84 330.56,347.08 337.11,348.47 343.66,350.01 350.21,351.70 356.74,353.54 363.24,355.53 369.70,357.67 376.11,359.95 382.45,362.38 388.72,364.96 394.90,367.67 400.98,370.51 406.95,373.49 412.79,376.59 418.50,379.82 424.06,383.16 429.46,386.60 434.69,390.15 439.74,393.80 444.61,397.53 449.29,401.34 453.76,405.23 458.02,409.18 462.07,413.20 465.90,417.26 469.51,421.37 472.90,425.51 476.05,429.68 478.97,433.87 481.67,438.08 484.14,442.30 486.37,446.52 488.38,450.73 490.17,454.94 491.73,459.13 493.07,463.30 494.20,467.44 495.12,471.55 495.83,475.63 496.34,479.67 496.66,483.67 496.78,487.62 496.72,491.53 496.48,495.38 496.06,499.18 495.48,502.93 494.73,506.61 493.82,510.24 492.77,513.80 491.57,517.31 490.22,520.74 488.74,524.11 487.14,527.42 485.40,530.65 483.55,533.82 481.58,536.91 479.51,539.94 477.33,542.89 475.05,545.78 472.67,548.59 470.20,551.32 467.64,553.99 465.00,556.58 462.28,559.09 459.48,561.53 456.61,563.90 453.67,566.18 450.67,568.39 447.60,570.53 444.48,572.59 441.30,574.57 438.06,576.47 434.78,578.29 431.45,580.03 428.07,581.69 424.66,583.27 421.20,584.77 417.71,586.18 414.19,587.51" fill="none" stroke="#000" stroke-width="6" stroke-linecap="round"/>
</svg>