<svg width="630.0" height="630.0" viewBox="0 0 630.0 630.0" fill="none" stroke="black" stroke-width="6" stroke-linecap="round" stroke-linejoin="round" xmlns="http://www.w3.org/2000/svg">
  <circle cx="315.0" cy="315.0" r="290.0" fill="white"/>
  <polyline points="398.17,459.05 403.05,458.06 407.90,457.02 412.72,455.94 417.52,454.83 422.29,453.69 427.04,452.52 431.75,451.32 436.44,450.10 441.10,448.86 445.74,447.61 450.34,446.34 454.91,445.06 459.46,443.77 463.97,442.48 468.44,441.19 472.89,439.90 477.29,438.62 481.66,437.34 485.99,436.08 490.28,434.83 494.52,433.60 498.72,432.39 502.87,431.20 506.97,430.05 511.02,428.92 515.01,427.83 518.94,426.78 522.81,425.77 526.60,424.80 530.33,423.88 533.97,423.01 537.54,422.20 541.02,421.45 544.41,420.76 547.69,420.13 550.88,419.57 553.96,419.08 556.92,418.66 559.75,418.32 562.46,418.07 565.03,417.89 567.46,417.80 569.74,417.80 571.86,417.89 573.82,418.07 575.61,418.34 577.21,418.71 578.64,419.17 579.87,419.74 580.90,420.40 581.73,421.16 582.35,422.02 582.76,422.98 582.95,424.04 582.91,425.20 582.65,426.45"/>
  <polyline points="529.97,120.38 527.91,118.33 525.67,116.30 523.25,114.28 520.67,112.28 517.92,110.31 515.02,108.36 511.98,106.43 508.80,104.53 505.49,102.66 502.06,100.82 498.51,99.01 494.85,97.23 491.09,95.49 487.24,93.78 483.29,92.11 479.26,90.47 475.15,88.88 470.97,87.32 466.71,85.80 462.40,84.33 458.02,82.90 453.59,81.51 449.11,80.16 444.57,78.87 440.00,77.62 435.38,76.41 430.72,75.26 426.03,74.16 421.31,73.11 416.55,72.11 411.77,71.16 406.95,70.27 402.12,69.44 397.26,68.66 392.38,67.94 387.48,67.28 382.57,66.69 377.63,66.15 372.68,65.68 367.72,65.28 362.75,64.94 357.76,64.68 352.76,64.48 347.75,64.36 342.73,64.31 337.71,64.33 332.68,64.44 327.64,64.62 322.60,64.89 317.55,65.24 312.50,65.67 307.44,66.20 302.39,66.81 297.33,67.52 292.28,68.32 287.23,69.21 282.18,70.21 277.13,71.31 272.10,72.51 267.07,73.82 262.05,75.24 257.04,76.77 252.04,78.42 247.06,80.18 242.10,82.06 237.16,84.07 232.24,86.20 227.34,88.46 222.48,90.85 217.64,93.37 212.85,96.03 208.09,98.83 203.37,101.77 198.70,104.86 194.08,108.09 189.52,111.47 185.02,115.00 180.59,118.68 176.23,122.52 171.95,126.51 167.76,130.66 163.66,134.97 159.65,139.44 155.75,144.06 151.97,148.84 148.30,153.78 144.77,158.88 141.37,164.13 138.11,169.53 135.01,175.08 132.07,180.77 129.29,186.61 126.70,192.58 124.29,198.68 122.07,204.90 120.06,211.24 118.25,217.69 116.66,224.24 115.29,230.88 114.14,237.60 113.24,244.39 112.56,251.24 112.13,258.14 111.95,265.08 112.01,272.04 112.33,279.01 112.89,285.97 113.70,292.92 114.76,299.85 116.07,306.73 117.62,313.56 119.41,320.32 121.43,327.00 123.69,333.59 126.17,340.07 128.87,346.45 131.77,352.70 134.88,358.82 138.19,364.79 141.67,370.62 145.34,376.29 149.17,381.80 153.16,387.14 157.29,392.30 161.56,397.29 165.97,402.09 170.49,406.71 175.12,411.15 179.86,415.40 184.68,419.46 189.59,423.33 194.58,427.02 199.63,430.52 204.75,433.84 209.92,436.98 215.13,439.93 220.39,442.71 225.68,445.32 231.00,447.75 236.34,450.01 241.70,452.12 247.08,454.06 252.46,455.84 257.85,457.48 263.25,458.96 268.64,460.30 274.03,461.50 279.41,462.57 284.79,463.50 290.15,464.31 295.50,465.00 300.84,465.56 306.16,466.01 311.46,466.36 316.75,466.59 322.01,466.72 327.25,466.76 332.48,466.70 337.67,466.55 342.85,466.32 348.00,466.00 353.13,465.60 358.24,465.13 363.31,464.58 368.37,463.97 373.40,463.29 378.40,462.55 383.38,461.76 388.34,460.91 393.27,460.00 398.17,459.05 403.05,458.06 407.90,457.02 412.72,455.94 417.52,454.83 422.29,453.69 427.04,452.52 431.75,451.32 436.44,450.10 441.10,448.86 445.74,447.61 450.34,446.34 454.91,445.06 459.46,443.77 463.97,442.48 468.44,441.19 472.89,439.90 477.29,438.62 481.66,437.34 485.99,436.08 490.28,434.83 494.52,433.60 498.72,432.39 502.87,431.20 506.97,430.05 511.02,428.92 515.01,427.83 518.94,426.78 522.81,425.77 526.60,424.80 530.33,423.88 533.97,423.01 537.54,422.20 541.02,421.45 544.41,420.76 547.69,420.13 550.88,419.57 553.96,419.08 556.92,418.66 559.75,418.32 562.46,418.07 565.03,417.89 567.46,417.80 569.74,417.80 571.86,417.89 573.82,418.07 575.61,418.34 577.21,418.71 578.64,419.17 579.87,419.74 580.90,420.40 581.73,421.16 582.35,422.02 582.76,422.98 582.95,424.04 582.91,425.20 582.65,426.45"/>
  <polyline points="529.97,120.38 527.91,118.33 525.67,116.30 523.25,114.28 520.67,112.28 517.92,110.31 515.02,108.36 511.98,106.43 508.80,104.53 505.49,102.66 502.06,100.82 498.51,99.01 494.85,97.23 491.09,95.49 487.24,93.78 483.29,92.11 479.26,90.47 475.15,88.88 470.97,87.32 466.71,85.80 462.40,84.33 458.02,82.90 453.59,81.51 449.11,80.16 444.57,78.87 440.00,77.62 435.38,76.41 430.72,75.26 426.03,74.16 421.31,73.11 416.55,72.11 411.77,71.16 406.95,70.27 402.12,69.44 397.26,68.66 392.38,67.94 387.48,67.28 382.57,66.69 377.63,66.15 372.68,65.68 367.72,65.28 362.75,64.94 357.76,64.68 352.76,64.48 347.75,64.36 342.73,64.31 337.71,64.33 332.68,64.44 327.64,64.62 322.60,64.89 317.55,65.24 312.50,65.67 307.44,66.20 302.39,66.81 297.33,67.52 292.28,68.32 287.23,69.21 282.18,70.21 277.13,71.31 272.10,72.51 267.07,73.82 262.05,75.24 257.04,76.77 252.04,78.42 247.06,80.18 242.10,82.06 237.16,84.07 232.24,86.20 227.34,88.46 222.48,90.85 217.64,93.37 212.85,96.03 208.09,98.83 203.37,101.77 198.70,104.86 194.08,108.09 189.52,111.47 185.02,115.00 180.59,118.68 176.23,122.52 171.95,126.51 167.76,130.66 163.66,134.97 159.65,139.44 155.75,144.06 151.97,148.84 148.30,153.78 144.77,158.88 141.37,164.13 138.11,169.53 135.01,175.08 132.07,180.77 129.29,186.61 126.70,192.58 124.29,198.68 122.07,204.90 120.06,211.24 118.25,217.69 116.66,224.24 115.29,230.88 114.14,237.60 113.24,244.39 112.56,251.24 112.13,258.14 111.95,265.08 112.01,272.04 112.33,279.01 112.89,285.97 113.70,292.92 114.76,299.85 116.07,306.73 117.62,313.56 119.41,320.32 121.43,327.00 123.69,333.59 126.17,340.07 128.87,346.45 131.77,352.70 134.88,358.82 138.19,364.79 141.67,370.62 145.34,376.29 149.17,381.80 153.16,387.14 157.29,392.30 161.56,397.29 165.97,402.09 170.49,406.71 175.12,411.15 179.86,415.40 184.68,419.46 189.59,423.33 194.58,427.02 199.63,430.52 204.75,433.84 209.92,436.98 215.13,439.93 220.39,442.71 225.68,445.32 231.00,447.75 236.34,450.01 241.70,452.12 247.08,454.06 252.46,455.84 257.85,457.48 263.25,458.96 268.64,460.30 274.03,461.50 279.41,462.57 284.79,463.50 290.15,464.31 295.50,465.00 300.84,465.56 306.16,466.01 311.46,466.36 316.75,466.59 322.01,466.72 327.25,466.76 332.48,466.70 337.67,466.55 342.85,466.32 348.00,466.00 353.13,465.60 358.24,465.13 363.31,464.58 368.37,463.97 373.40,463.29 378.40,462.55 383.38,461.76 388.34,460.91 393.27,460.00 398.17,459.05"/>
</svg>