<svg width="630.0" height="630.0" viewBox="0 0 630.0 630.0" fill="none" stroke="black" stroke-width="6" stroke-linecap="round" stroke-linejoin="round" xmlns="http://www.w3.org/2000/svg">
  <circle cx="315.0" cy="315.0" r="290.0" fill="white"/>
  <polyline points="440.57,532.50 445.13,530.95 449.65,529.34 454.13,527.66 458.57,525.93 462.96,524.13 467.31,522.28 471.62,520.38 475.88,518.42 480.10,516.41 484.27,514.35 488.39,512.25 492.47,510.10 496.49,507.91 500.46,505.69 504.37,503.42 508.23,501.12 512.03,498.78 515.77,496.41 519.44,494.02 523.05,491.59 526.59,489.14 530.06,486.67 533.46,484.18 536.78,481.67 540.02,479.14 543.17,476.61 546.24,474.06 549.21,471.50 552.09,468.94 554.86,466.37 557.53,463.81 560.08,461.25 562.52,458.69 564.84,456.15 567.03,453.62 569.09,451.10 571.00,448.61 572.78,446.14 574.40,443.69 575.86,441.28 577.16,438.90"/>
  <polyline points="534.10,125.03 534.31,125.47 534.29,125.89 534.05,126.29 533.59,126.66 532.92,127.01 532.04,127.34 530.96,127.64 529.69,127.92 528.23,128.17 526.60,128.40 524.79,128.61 522.81,128.79 520.67,128.96 518.38,129.10 515.95,129.22 513.38,129.32 510.67,129.40 507.84,129.47 504.89,129.52 501.82,129.56 498.65,129.58 495.37,129.59 492.00,129.60 488.53,129.59 484.98,129.58 481.34,129.57 477.62,129.56 473.83,129.54 469.97,129.53 466.04,129.52 462.05,129.51 458.00,129.52 453.89,129.54 449.72,129.57 445.51,129.61 441.25,129.67 436.94,129.75 432.59,129.86 428.20,129.98 423.77,130.14 419.31,130.33 414.81,130.54 410.28,130.79 405.71,131.08 401.12,131.41 396.50,131.78 391.86,132.20 387.19,132.67 382.50,133.18 377.79,133.75 373.06,134.38 368.31,135.06 363.54,135.81 358.76,136.62 353.96,137.50 349.16,138.45 344.34,139.47 339.51,140.57 334.68,141.75 329.84,143.02 325.00,144.37 320.15,145.81 315.30,147.35 310.46,148.98 305.62,150.71 300.79,152.55 295.96,154.49 291.15,156.54 286.35,158.70 281.57,160.98 276.80,163.39 272.06,165.91 267.35,168.56 262.66,171.34 258.01,174.26 253.39,177.31 248.82,180.49 244.29,183.83 239.82,187.30 235.40,190.92 231.04,194.70 226.74,198.62 222.52,202.70 218.38,206.93 214.32,211.31 210.36,215.86 206.49,220.56 202.73,225.42 199.08,230.44 195.55,235.61 192.14,240.93 188.87,246.41 185.75,252.04 182.78,257.81 179.96,263.73 177.31,269.78 174.84,275.96 172.55,282.27 170.45,288.70 168.55,295.24 166.85,301.88 165.37,308.61 164.10,315.43 163.05,322.32 162.24,329.27 161.65,336.27 161.30,343.31 161.19,350.37 161.32,357.45 161.70,364.52 162.31,371.58 163.17,378.62 164.27,385.61 165.62,392.55 167.19,399.42 169.00,406.22 171.04,412.92 173.30,419.52 175.78,426.00 178.47,432.36 181.36,438.59 184.45,444.67 187.73,450.60 191.18,456.37 194.81,461.97 198.59,467.40 202.53,472.66 206.61,477.73 210.83,482.61 215.17,487.31 219.62,491.81 224.18,496.13 228.84,500.25 233.59,504.18 238.42,507.91 243.32,511.45 248.29,514.81 253.32,517.97 258.40,520.95 263.52,523.74 268.68,526.35 273.87,528.79 279.09,531.05 284.33,533.13 289.58,535.05 294.85,536.80 300.12,538.40 305.40,539.83 310.68,541.11 315.95,542.25 321.22,543.23 326.47,544.08 331.72,544.79 336.95,545.36 342.16,545.80 347.35,546.12 352.52,546.32 357.67,546.39 362.80,546.35 367.89,546.20 372.96,545.93 378.01,545.56 383.02,545.09 388.00,544.52 392.95,543.86 397.87,543.10 402.76,542.24 407.61,541.31 412.43,540.28 417.21,539.18 421.96,537.99 426.67,536.73 431.34,535.39 435.98,533.98 440.57,532.50 445.13,530.95 449.65,529.34 454.13,527.66 458.57,525.93 462.96,524.13 467.31,522.28 471.62,520.38 475.88,518.42 480.10,516.41 484.27,514.35 488.39,512.25 492.47,510.10 496.49,507.91 500.46,505.69 504.37,503.42 508.23,501.12 512.03,498.78 515.77,496.41 519.44,494.02 523.05,491.59 526.59,489.14 530.06,486.67 533.46,484.18 536.78,481.67 540.02,479.14 543.17,476.61 546.24,474.06 549.21,471.50 552.09,468.94 554.86,466.37 557.53,463.81 560.08,461.25 562.52,458.69 564.84,456.15 567.03,453.62 569.09,451.10 571.00,448.61 572.78,446.14 574.40,443.69 575.86,441.28 577.16,438.90"/>
  <polyline points="534.10,125.03 534.31,125.47 534.29,125.89 534.05,126.29 533.59,126.66 532.92,127.01 532.04,127.34 530.96,127.64 529.69,127.92 528.23,128.17 526.60,128.40 524.79,128.61 522.81,128.79 520.67,128.96 518.38,129.10 515.95,129.22 513.38,129.32 510.67,129.40 507.84,129.47 504.89,129.52 501.82,129.56 498.65,129.58 495.37,129.59 492.00,129.60 488.53,129.59 484.98,129.58 481.34,129.57 477.62,129.56 473.83,129.54 469.97,129.53 466.04,129.52 462.05,129.51 458.00,129.52 453.89,129.54 449.72,129.57 445.51,129.61 441.25,129.67 436.94,129.75 432.59,129.86 428.20,129.98 423.77,130.14 419.31,130.33 414.81,130.54 410.28,130.79 405.71,131.08 401.12,131.41 396.50,131.78 391.86,132.20 387.19,132.67 382.50,133.18 377.79,133.75 373.06,134.38 368.31,135.06 363.54,135.81 358.76,136.62 353.96,137.50 349.16,138.45 344.34,139.47 339.51,140.57 334.68,141.75 329.84,143.02 325.00,144.37 320.15,145.81 315.30,147.35 310.46,148.98 305.62,150.71 300.79,152.55 295.96,154.49 291.15,156.54 286.35,158.70 281.57,160.98 276.80,163.39 272.06,165.91 267.35,168.56 262.66,171.34 258.01,174.26 253.39,177.31 248.82,180.49 244.29,183.83 239.82,187.30 235.40,190.92 231.04,194.70 226.74,198.62 222.52,202.70 218.38,206.93 214.32,211.31 210.36,215.86 206.49,220.56 202.73,225.42 199.08,230.44 195.55,235.61 192.14,240.93 188.87,246.41 185.75,252.04 182.78,257.81 179.96,263.73 177.31,269.78 174.84,275.96 172.55,282.27 170.45,288.70 168.55,295.24 166.85,301.88 165.37,308.61 164.10,315.43 163.05,322.32 162.24,329.27 161.65,336.27 161.30,343.31 161.19,350.37 161.32,357.45 161.70,364.52 162.31,371.58 163.17,378.62 164.27,385.61 165.62,392.55 167.19,399.42 169.00,406.22 171.04,412.92 173.30,419.52 175.78,426.00 178.47,432.36 181.36,438.59 184.45,444.67 187.73,450.60 191.18,456.37 194.81,461.97 198.59,467.40 202.53,472.66 206.61,477.73 210.83,482.61 215.17,487.31 219.62,491.81 224.18,496.13 228.84,500.25 233.59,504.18 238.42,507.91 243.32,511.45 248.29,514.81 253.32,517.97 258.40,520.95 263.52,523.74 268.68,526.35 273.87,528.79 279.09,531.05 284.33,533.13 289.58,535.05 294.85,536.80 300.12,538.40 305.40,539.83 310.68,541.11 315.95,542.25 321.22,543.23 326.47,544.08 331.72,544.79 336.95,545.36 342.16,545.80 347.35,546.12 352.52,546.32 357.67,546.39 362.80,546.35 367.89,546.20 372.96,545.93 378.01,545.56 383.02,545.09 388.00,544.52 392.95,543.86 397.87,543.10 402.76,542.24 407.61,541.31 412.43,540.28 417.21,539.18 421.96,537.99 426.67,536.73 431.34,535.39 435.98,533.98 440.57,532.50"/>
</svg>