<svg width="630.0" height="630.0" viewBox="0 0 630.0 630.0" fill="none" stroke="black" stroke-width="6" stroke-linecap="round" stroke-linejoin="round" xmlns="http://www.w3.org/2000/svg">
  <circle cx="315.0" cy="315.0" r="290.0" fill="white"/>
  <polyline points="174.94,72.41 179.30,70.53 183.71,68.72 188.16,66.99 192.65,65.34 197.17,63.77 201.74,62.29 206.34,60.90 210.98,59.59 215.65,58.37 220.36,57.25 225.10,56.22 229.88,55.28 234.68,54.45 239.51,53.71 244.37,53.09 249.26,52.57 254.17,52.16 259.10,51.86 264.06,51.68 269.03,51.61 274.02,51.67 279.02,51.86 284.04,52.17 289.06,52.61 294.09,53.19 299.13,53.91 304.16,54.77 309.19,55.78 314.22,56.94 319.23,58.25 324.22,59.71 329.19,61.34 334.14,63.13 339.06,65.08 343.94,67.21 348.77,69.51 353.56,71.98 358.29,74.64 362.96,77.47 367.56,80.49 372.08,83.69 376.52,87.08 380.87,90.66 385.11,94.42 389.24,98.37 393.26,102.51 397.15,106.83 400.90,111.33 404.51,116.01 407.97,120.88 411.27,125.91 414.39,131.11 417.34,136.48 420.11,141.99 422.68,147.66 425.05,153.47 427.21,159.41 429.16,165.47 430.90,171.65 432.41,177.93 433.69,184.29 434.75,190.74 435.57,197.25 436.17,203.82 436.52,210.43 436.65,217.07 436.53,223.73 436.19,230.39 435.62,237.05 434.83,243.68 433.81,250.29 432.57,256.85 431.13,263.36 429.47,269.80 427.62,276.17 425.57,282.45 423.34,288.65 420.92,294.74 418.34,300.73 415.59,306.61 412.68,312.36 409.63,317.99 406.43,323.50 403.10,328.87 399.65,334.11 396.08,339.21 392.39,344.17 388.61,348.98 384.72,353.66 380.75,358.19 376.70,362.59 372.57,366.84 368.37,370.95 364.10,374.92 359.78,378.75 355.40,382.45 350.97,386.02 346.51,389.45 342.00,392.75 337.46,395.93 332.89,398.98 328.29,401.91 323.67,404.73 319.03,407.43 314.37,410.02 309.71,412.50 305.03,414.88 300.35,417.16 295.66,419.34 290.97,421.43 286.29,423.42 281.60,425.33 276.92,427.16 272.25,428.90 267.59,430.57 262.95,432.17 258.31,433.69 253.69,435.15 249.09,436.55 244.50,437.89 239.94,439.17 235.40,440.39 230.88,441.57 226.39,442.70 221.93,443.79 217.49,444.84 213.09,445.85 208.71,446.83 204.38,447.78 200.07,448.70 195.81,449.59 191.58,450.47 187.40,451.32 183.26,452.16 179.17,452.99 175.12,453.81 171.12,454.62 167.18,455.43 163.29,456.24 159.47,457.05 155.70,457.86 151.99,458.68 148.35,459.52 144.79,460.36 141.29,461.22 137.88,462.10 134.54,463.00 131.29,463.92 128.13,464.86 125.06,465.84 122.09,466.84 119.22,467.87 116.46,468.94 113.81,470.04 111.28,471.18 108.88,472.36 106.60,473.58 104.46,474.84 102.46,476.15 100.60,477.50 98.90,478.89 97.36,480.32 95.99,481.80 94.79,483.33 93.76,484.90 92.93,486.52 92.28,488.18 91.83,489.88 91.58,491.62 91.55,493.41 91.73,495.23 92.13,497.09 92.75,498.99 93.60,500.91 94.68,502.87 96.00,504.85 97.55,506.85"/>
  <polyline points="544.88,491.78 547.90,487.75 550.87,483.59 553.81,479.30 556.70,474.88 559.54,470.32 562.34,465.63 565.09,460.81 567.78,455.86 570.42,450.77 572.99,445.56 575.49,440.21 577.93,434.73 580.29,429.12 582.57,423.40 584.77,417.55 586.88,411.58 588.90,405.50 590.81,399.31 592.62,393.02 594.32,386.63 595.90,380.15 597.37,373.60 598.70,366.96 599.91,360.27 600.97,353.51 601.90,346.71 602.68,339.88 603.31,333.03 603.78,326.16 604.10,319.29 604.26,312.43 604.26,305.60 604.09,298.81 603.76,292.07 603.27,285.39 602.61,278.79 601.78,272.27 600.80,265.86"/>
  <polyline points="76.17,150.50 78.63,147.06 81.20,143.64 83.87,140.27 86.64,136.93 89.50,133.63 92.46,130.37 95.50,127.16 98.63,123.99 101.84,120.87 105.12,117.80 108.48,114.78 111.91,111.81 115.42,108.89 118.99,106.03 122.62,103.22 126.32,100.47 130.08,97.78 133.89,95.15 137.77,92.58 141.70,90.07 145.68,87.63 149.71,85.25 153.80,82.93 157.93,80.69 162.12,78.51 166.35,76.40 170.62,74.37 174.94,72.41 179.30,70.53 183.71,68.72 188.16,66.99 192.65,65.34 197.17,63.77 201.74,62.29 206.34,60.90 210.98,59.59 215.65,58.37 220.36,57.25 225.10,56.22 229.88,55.28 234.68,54.45 239.51,53.71 244.37,53.09 249.26,52.57 254.17,52.16 259.10,51.86 264.06,51.68 269.03,51.61 274.02,51.67 279.02,51.86 284.04,52.17 289.06,52.61 294.09,53.19 299.13,53.91 304.16,54.77 309.19,55.78 314.22,56.94 319.23,58.25 324.22,59.71 329.19,61.34 334.14,63.13 339.06,65.08 343.94,67.21 348.77,69.51 353.56,71.98 358.29,74.64 362.96,77.47 367.56,80.49 372.08,83.69 376.52,87.08 380.87,90.66 385.11,94.42 389.24,98.37 393.26,102.51 397.15,106.83 400.90,111.33 404.51,116.01 407.97,120.88 411.27,125.91 414.39,131.11 417.34,136.48 420.11,141.99 422.68,147.66 425.05,153.47 427.21,159.41 429.16,165.47 430.90,171.65 432.41,177.93 433.69,184.29 434.75,190.74 435.57,197.25 436.17,203.82 436.52,210.43 436.65,217.07 436.53,223.73 436.19,230.39 435.62,237.05 434.83,243.68 433.81,250.29 432.57,256.85 431.13,263.36 429.47,269.80 427.62,276.17 425.57,282.45 423.34,288.65 420.92,294.74 418.34,300.73 415.59,306.61 412.68,312.36 409.63,317.99 406.43,323.50 403.10,328.87 399.65,334.11 396.08,339.21 392.39,344.17 388.61,348.98 384.72,353.66 380.75,358.19 376.70,362.59 372.57,366.84 368.37,370.95 364.10,374.92 359.78,378.75 355.40,382.45 350.97,386.02 346.51,389.45 342.00,392.75 337.46,395.93 332.89,398.98 328.29,401.91 323.67,404.73 319.03,407.43 314.37,410.02 309.71,412.50 305.03,414.88 300.35,417.16 295.66,419.34 290.97,421.43 286.29,423.42 281.60,425.33 276.92,427.16 272.25,428.90 267.59,430.57 262.95,432.17 258.31,433.69 253.69,435.15 249.09,436.55 244.50,437.89 239.94,439.17 235.40,440.39 230.88,441.57 226.39,442.70 221.93,443.79 217.49,444.84 213.09,445.85 208.71,446.83 204.38,447.78 200.07,448.70 195.81,449.59 191.58,450.47 187.40,451.32 183.26,452.16 179.17,452.99 175.12,453.81 171.12,454.62 167.18,455.43 163.29,456.24 159.47,457.05 155.70,457.86 151.99,458.68 148.35,459.52 144.79,460.36 141.29,461.22 137.88,462.10 134.54,463.00 131.29,463.92 128.13,464.86 125.06,465.84 122.09,466.84 119.22,467.87 116.46,468.94 113.81,470.04 111.28,471.18 108.88,472.36 106.60,473.58 104.46,474.84 102.46,476.15 100.60,477.50 98.90,478.89 97.36,480.32 95.99,481.80 94.79,483.33 93.76,484.90 92.93,486.52 92.28,488.18 91.83,489.88 91.58,491.62 91.55,493.41 91.73,495.23 92.13,497.09 92.75,498.99 93.60,500.91 94.68,502.87 96.00,504.85 97.55,506.85"/>
  <polyline points="544.88,491.78 547.90,487.75 550.87,483.59 553.81,479.30 556.70,474.88 559.54,470.32 562.34,465.63 565.09,460.81 567.78,455.86 570.42,450.77 572.99,445.56 575.49,440.21 577.93,434.73 580.29,429.12 582.57,423.40 584.77,417.55 586.88,411.58 588.90,405.50 590.81,399.31 592.62,393.02 594.32,386.63 595.90,380.15 597.37,373.60 598.70,366.96 599.91,360.27 600.97,353.51 601.90,346.71 602.68,339.88 603.31,333.03 603.78,326.16 604.10,319.29 604.26,312.43 604.26,305.60 604.09,298.81 603.76,292.07 603.27,285.39 602.61,278.79 601.78,272.27 600.80,265.86"/>
  <polyline points="76.17,150.50 78.63,147.06 81.20,143.64 83.87,140.27 86.64,136.93 89.50,133.63 92.46,130.37 95.50,127.16 98.63,123.99 101.84,120.87 105.12,117.80 108.48,114.78 111.91,111.81 115.42,108.89 118.99,106.03 122.62,103.22 126.32,100.47 130.08,97.78 133.89,95.15 137.77,92.58 141.70,90.07 145.68,87.63 149.71,85.25 153.80,82.93 157.93,80.69 162.12,78.51 166.35,76.40 170.62,74.37 174.94,72.41"/>
</svg>