<svg width="630.0" height="630.0" viewBox="0 0 630.0 630.0" xmlns="http://www.w3.org/2000/svg">
<circle cx="315.0" cy="315.0" r="290.0" fill="#fff" stroke="#000" stroke-width="6"/>
<polyline points="530.68,508.80 532.77,506.17 534.85,503.30 536.90,500.20 538.92,496.87 540.91,493.32 542.86,489.55 544.76,485.56 546.62,481.37 548.44,476.99 550.20,472.41 551.91,467.66 553.56,462.74 555.15,457.66 556.68,452.44 558.15,447.08 559.56,441.59 560.89,435.99 562.17,430.29 563.37,424.50 564.51,418.63 565.59,412.69 566.59,406.70 567.53,400.65 568.41,394.57 569.22,388.46 569.96,382.33 570.65,376.19 571.26,370.05 571.82,363.92 572.32,357.79 572.76,351.69 573.14,345.61 573.46,339.57 573.72,333.55 573.93,327.58 574.08,321.66 574.18,315.78 574.23,309.96 574.22,304.19 574.17,298.47 574.06,292.82 573.90,287.23 573.68,281.70 573.42,276.24 573.11,270.84 572.75,265.51 572.33,260.24 571.87,255.04 571.35,249.90 570.79,244.84 570.17,239.84 569.50,234.90 568.78,230.03 568.00,225.23 567.17,220.49 566.29,215.81 565.35,211.19 564.35,206.64 563.30,202.15 562.18,197.71 561.01,193.34 559.78,189.02 558.48,184.75 557.12,180.55 555.70,176.39 554.21,172.29 552.65,168.24 551.02,164.24 549.32,160.29 547.55,156.38 545.71,152.53 543.78,148.72 541.78,144.95 539.70,141.23 537.54,137.55 535.29,133.92 532.96,130.32 530.54,126.77 528.03,123.26 525.43,119.79 522.74,116.35 519.95,112.96 517.06,109.61 514.07,106.29 510.98,103.01 507.79,99.78 504.49,96.58 501.08,93.42 497.56,90.30 493.93,87.23 490.18,84.19 486.32,81.20 482.34,78.26 478.24,75.36 474.03,72.50 469.69,69.70" fill="none" stroke="#000" stroke-width="6" stroke-linecap="round"/>
<polyline points="270.17,28.49 263.65,29.60 257.23,30.88 250.92,32.32 244.73,33.92 238.67,35.68 232.74,37.60 226.98,39.66 221.37,41.87 215.93,44.21 210.67,46.69 205.60,49.30 200.72,52.02 196.04,54.86 191.56,57.80 187.29,60.85 183.22,63.98 179.38,67.20 175.74,70.50 172.32,73.86 169.12,77.29 166.13,80.78 163.35,84.32 160.79,87.90 158.43,91.52 156.28,95.18 154.34,98.86 152.59,102.57 151.05,106.29 149.69,110.03 148.52,113.78 147.54,117.53 146.73,121.29 146.10,125.05 145.63,128.81 145.33,132.56 145.19,136.31 145.20,140.05 145.36,143.79 145.67,147.51 146.11,151.23 146.68,154.93 147.39,158.63 148.22,162.31 149.17,165.98 150.23,169.64 151.41,173.30 152.69,176.94 154.07,180.58 155.55,184.21 157.12,187.83 158.78,191.45 160.53,195.06 162.36,198.68 164.27,202.29 166.25,205.90 168.31,209.52 170.43,213.14 172.61,216.77 174.86,220.40 177.16,224.05 179.52,227.71 181.93,231.38 184.38,235.07 186.88,238.77 189.43,242.50 192.01,246.25 194.63,250.02 197.28,253.82 199.96,257.65 202.67,261.52 205.40,265.41 208.16,269.34 210.93,273.31 213.72,277.31 216.52,281.36 219.33,285.45 222.15,289.59 224.97,293.78 227.79,298.01 230.61,302.30 233.43,306.64 236.23,311.03 239.02,315.48 241.80,319.99 244.56,324.56 247.29,329.18 250.00,333.87 252.67,338.62 255.32,343.43 257.92,348.31 260.48,353.25 263.00,358.25 265.47,363.31 267.88,368.44 270.23,373.63 272.51,378.88 274.73,384.19 276.88,389.55 278.94,394.97 280.93,400.44 282.83,405.96 284.63,411.52 286.33,417.12 287.94,422.76 289.43,428.43 290.81,434.12 292.08,439.83 293.22,445.55 294.23,451.28 295.12,457.00 295.86,462.71 296.47,468.40 296.93,474.07 297.24,479.69 297.40,485.26 297.41,490.77 297.26,496.22 296.95,501.58 296.48,506.85 295.85,512.02 295.06,517.08 294.10,522.01 292.98,526.81 291.70,531.46 290.26,535.96 288.66,540.30 286.91,544.46 285.00,548.45 282.94,552.25 280.74,555.85 278.40,559.25 275.92,562.45 273.32,565.44 270.59,568.21 267.74,570.77 264.77,573.11 261.71,575.23 258.54,577.13 255.28,578.81 251.93,580.27 248.51,581.52 245.01,582.55 241.44,583.37 237.82,583.99 234.14,584.40 230.42,584.62 226.65,584.64 222.85,584.47 219.02,584.12 215.17,583.59 211.30,582.89 207.41,582.02 203.52,580.99 199.62,579.80 195.72,578.46 191.83,576.98 187.94,575.36 184.07,573.61 180.21,571.72 176.37,569.72" fill="none" stroke="#000" stroke-width="6" stroke-linecap="round"/>
<polyline points="530.68,508.80 532.77,506.17 534.85,503.30 536.90,500.20 538.92,496.87 540.91,493.32 542.86,489.55 544.76,485.56 546.62,481.37 548.44,476.99 550.20,472.41 551.91,467.66 553.56,462.74 555.15,457.66 556.68,452.44 558.15,447.08 559.56,441.59 560.89,435.99 562.17,430.29 563.37,424.50 564.51,418.63 565.59,412.69 566.59,406.70 567.53,400.65 568.41,394.57 569.22,388.46 569.96,382.33 570.65,376.19 571.26,370.05 571.82,363.92 572.32,357.79 572.76,351.69 573.14,345.61 573.46,339.57 573.72,333.55 573.93,327.58 574.08,321.66 574.18,315.78 574.23,309.96 574.22,304.19 574.17,298.47 574.06,292.82 573.90,287.23 573.68,281.70 573.42,276.24 573.11,270.84 572.75,265.51 572.33,260.24 571.87,255.04 571.35,249.90 570.79,244.84 570.17,239.84 569.50,234.90 568.78,230.03 568.00,225.23 567.17,220.49 566.29,215.81 565.35,211.19 564.35,206.64 563.30,202.15 562.18,197.71 561.01,193.34 559.78,189.02 558.48,184.75 557.12,180.55 555.70,176.39 554.21,172.29 552.65,168.24 551.02,164.24 549.32,160.29 547.55,156.38 545.71,152.53 543.78,148.72 541.78,144.95 539.70,141.23 537.54,137.55 535.29,133.92 532.96,130.32 530.54,126.77 528.03,123.26 525.43,119.79 522.74,116.35 519.95,112.96 517.06,109.61 514.07,106.29 510.98,103.01 507.79,99.78 504.49,96.58 501.08,93.42 497.56,90.30 493.93,87.23 490.18,84.19 486.32,81.20 482.34,78.26 478.24,75.36 474.03,72.50 469.69,69.70" fill="none" stroke="#000" stroke-width="6" stroke-linecap="round"/>
<polyline points="270.17,28.49 263.65,29.60 257.23,30.88 250.92,32.32 244.73,33.92 238.67,35.68 232.74,37.60 226.98,39.66 221.37,41.87 215.93,44.21 210.67,46.69 205.60,49.30 200.72,52.02 196.04,54.86 191.56,57.80 187.29,60.85 183.22,63.98 179.38,67.20 175.74,70.50 172.32,73.86 169.12,77.29 166.13,80.78 163.35,84.32 160.79,87.90 158.43,91.52 156.28,95.18 154.34,98.86 152.59,102.57 151.05,106.29 149.69,110.03 148.52,113.78 147.54,117.53 146.73,121.29 146.10,125.05 145.63,128.81 145.33,132.56 145.19,136.31 145.20,140.05 145.36,143.79 145.67,147.51 146.11,151.23 146.68,154.93 147.39,158.63 148.22,162.31 149.17,165.98 150.23,169.64 151.41,173.30 152.69,176.94 154.07,180.58 155.55,184.21 157.12,187.83 158.78,191.45 160.53,195.06 162.36,198.68 164.27,202.29 166.25,205.90 168.31,209.52 170.43,213.14 172.61,216.77 174.86,220.40 177.16,224.05 179.52,227.71 181.93,231.38 184.38,235.07 186.88,238.77 189.43,242.50 192.01,246.25 194.63,250.02 197.28,253.82 199.96,257.65 202.67,261.52 205.40,265.41 208.16,269.34 210.93,273.31 213.72,277.31 216.52,281.36 219.33,285.45 222.15,289.59 224.97,293.78 227.79,298.01 230.61,302.30 233.43,306.64 236.23,311.03 239.02,315.48 241.80,319.99 244.56,324.56 247.29,329.18 250.00,333.87 252.67,338.62 255.32,343.43 257.92,348.31 260.48,353.25 263.00,358.25 265.47,363.31 267.88,368.44 270.23,373.63 272.51,378.88 274.73,384.19 276.88,389.55 278.94,394.97 280.93,400.44 282.83,405.96 284.63,411.52 286.33,417.12 287.94,422.76 289.43,428.43 290.81,434.12 292.08,439.83 293.22,445.55 294.23,451.28 295.12,457.00 295.86,462.71 296.47,468.40 296.93,474.07 297.24,479.69 297.40,485.26 297.41,490.77 297.26,496.22 296.95,501.58 296.48,506.85 295.85,512.02 295.06,517.08 294.10,522.01 292.98,526.81 291.70,531.46 290.26,535.96 288.66,540.30 286.91,544.46 285.00,548.45 282.94,552.25 280.74,555.85 278.40,559.25 275.92,562.45 273.32,565.44 270.59,568.21 267.74,570.77 264.77,573.11 261.71,575.23 258.54,577.13 255.28,578.81 251.93,580.27 248.51,581.52 245.01,582.55 241.44,583.37 237.82,583.99 234.14,584.40 230.42,584.62 226.65,584.64 222.85,584.47 219.02,584.12 215.17,583.59 211.30,582.89 207.41,582.02 203.52,580.99 199.62,579.80 195.72,578.46 191.83,576.98 187.94,575.36 184.07,573.61 180.21,571.72 176.37,569.72" fill="none" stroke="#000" stroke-width="6" stroke-linecap="round"/>
</svg>