<svg width="630.0" height="630.0" viewBox="0 0 630.0 630.0" fill="none" stroke="black" stroke-width="6" stroke-linecap="round" stroke-linejoin="round" xmlns="http://www.w3.org/2000/svg">
  <circle cx="315.0" cy="315.0" r="290.0" fill="white"/>
  <polyline points="532.50,440.57 535.29,436.33 538.01,432.06 540.67,427.74 543.26,423.39 545.79,419.01 548.26,414.60 550.66,410.16 553.01,405.69 555.29,401.20 557.52,396.68 559.69,392.14 561.79,387.57 563.85,382.99 565.84,378.39 567.78,373.78 569.65,369.15 571.48,364.51 573.24,359.86 574.95,355.21 576.60,350.55 578.19,345.90 579.72,341.24 581.20,336.59 582.61,331.95 583.96,327.32 585.25,322.71 586.47,318.12 587.63,313.55 588.73,309.00 589.75,304.49 590.71,300.02 591.59,295.59 592.40,291.21 593.13,286.88 593.78,282.61 594.35,278.41 594.84,274.27 595.24,270.22 595.55,266.25 595.76,262.37 595.89,258.59 595.91,254.92 595.84,251.36 595.66,247.93 595.37,244.63 594.98,241.46 594.47,238.44 593.86,235.57"/>
  <polyline points="362.88,29.00 364.44,29.42 365.80,29.99 366.95,30.70 367.90,31.55 368.65,32.53 369.19,33.65 369.54,34.89 369.68,36.25 369.64,37.74 369.40,39.33 368.97,41.03 368.36,42.84 367.57,44.74 366.60,46.73 365.47,48.81 364.18,50.97 362.73,53.21 361.13,55.52 359.38,57.89 357.49,60.33 355.48,62.82 353.33,65.36 351.07,67.96 348.69,70.60 346.20,73.28 343.61,76.00 340.92,78.76 338.14,81.55 335.28,84.37 332.33,87.22 329.32,90.09 326.23,92.99 323.07,95.92 319.86,98.87 316.59,101.84 313.27,104.83 309.90,107.84 306.49,110.87 303.04,113.92 299.56,116.99 296.04,120.08 292.50,123.19 288.94,126.32 285.35,129.47 281.75,132.64 278.13,135.84 274.51,139.06 270.87,142.30 267.24,145.57 263.60,148.87 259.96,152.20 256.32,155.55 252.70,158.93 249.08,162.35 245.47,165.80 241.88,169.28 238.31,172.81 234.76,176.37 231.23,179.97 227.73,183.61 224.26,187.30 220.82,191.03 217.41,194.81 214.04,198.64 210.71,202.52 207.42,206.45 204.18,210.44 200.99,214.48 197.85,218.58 194.76,222.74 191.74,226.96 188.77,231.25 185.87,235.60 183.04,240.02 180.28,244.50 177.60,249.06 175.00,253.69 172.48,258.38 170.06,263.16 167.72,268.00 165.48,272.92 163.35,277.92 161.32,282.99 159.40,288.14 157.60,293.37 155.93,298.68 154.37,304.06 152.96,309.51 151.67,315.04 150.54,320.65 149.55,326.32 148.71,332.06 148.04,337.87 147.53,343.75 147.20,349.69 147.04,355.68 147.07,361.72 147.28,367.81 147.69,373.95 148.30,380.12 149.11,386.32 150.13,392.54 151.37,398.77 152.82,405.02 154.49,411.26 156.39,417.49 158.51,423.70 160.86,429.87 163.43,436.01 166.24,442.09 169.27,448.11 172.54,454.06 176.02,459.92 179.73,465.68 183.66,471.33 187.80,476.85 192.15,482.25 196.71,487.50 201.46,492.60 206.39,497.53 211.51,502.28 216.79,506.85 222.23,511.23 227.82,515.41 233.56,519.38 239.41,523.13 245.38,526.66 251.46,529.97 257.63,533.06 263.87,535.91 270.18,538.53 276.55,540.91 282.96,543.06 289.41,544.98 295.87,546.67 302.35,548.12 308.83,549.35 315.29,550.36 321.74,551.14 328.16,551.71 334.55,552.06 340.89,552.21 347.19,552.16 353.42,551.91 359.60,551.47 365.71,550.85 371.74,550.05 377.70,549.08 383.58,547.94 389.38,546.64 395.09,545.18 400.71,543.58 406.23,541.83 411.67,539.95 417.01,537.93 422.26,535.79 427.41,533.52 432.47,531.14 437.43,528.65 442.30,526.05 447.06,523.34 451.74,520.54 456.32,517.64 460.80,514.66 465.19,511.58 469.49,508.43 473.69,505.19 477.81,501.88 481.84,498.49 485.78,495.03 489.63,491.50 493.40,487.91 497.09,484.26 500.69,480.55 504.21,476.78 507.65,472.95 511.02,469.07 514.31,465.14 517.52,461.16 520.66,457.13 523.72,453.05 526.72,448.94 529.64,444.78 532.50,440.57 535.29,436.33 538.01,432.06 540.67,427.74 543.26,423.39 545.79,419.01 548.26,414.60 550.66,410.16 553.01,405.69 555.29,401.20 557.52,396.68 559.69,392.14 561.79,387.57 563.85,382.99 565.84,378.39 567.78,373.78 569.65,369.15 571.48,364.51 573.24,359.86 574.95,355.21 576.60,350.55 578.19,345.90 579.72,341.24 581.20,336.59 582.61,331.95 583.96,327.32 585.25,322.71 586.47,318.12 587.63,313.55 588.73,309.00 589.75,304.49 590.71,300.02 591.59,295.59 592.40,291.21 593.13,286.88 593.78,282.61 594.35,278.41 594.84,274.27 595.24,270.22 595.55,266.25 595.76,262.37 595.89,258.59 595.91,254.92 595.84,251.36 595.66,247.93 595.37,244.63 594.98,241.46 594.47,238.44 593.86,235.57"/>
  <polyline points="362.88,29.00 364.44,29.42 365.80,29.99 366.95,30.70 367.90,31.55 368.65,32.53 369.19,33.65 369.54,34.89 369.68,36.25 369.64,37.74 369.40,39.33 368.97,41.03 368.36,42.84 367.57,44.74 366.60,46.73 365.47,48.81 364.18,50.97 362.73,53.21 361.13,55.52 359.38,57.89 357.49,60.33 355.48,62.82 353.33,65.36 351.07,67.96 348.69,70.60 346.20,73.28 343.61,76.00 340.92,78.76 338.14,81.55 335.28,84.37 332.33,87.22 329.32,90.09 326.23,92.99 323.07,95.92 319.86,98.87 316.59,101.84 313.27,104.83 309.90,107.84 306.49,110.87 303.04,113.92 299.56,116.99 296.04,120.08 292.50,123.19 288.94,126.32 285.35,129.47 281.75,132.64 278.13,135.84 274.51,139.06 270.87,142.30 267.24,145.57 263.60,148.87 259.96,152.20 256.32,155.55 252.70,158.93 249.08,162.35 245.47,165.80 241.88,169.28 238.31,172.81 234.76,176.37 231.23,179.97 227.73,183.61 224.26,187.30 220.82,191.03 217.41,194.81 214.04,198.64 210.71,202.52 207.42,206.45 204.18,210.44 200.99,214.48 197.85,218.58 194.76,222.74 191.74,226.96 188.77,231.25 185.87,235.60 183.04,240.02 180.28,244.50 177.60,249.06 175.00,253.69 172.48,258.38 170.06,263.16 167.72,268.00 165.48,272.92 163.35,277.92 161.32,282.99 159.40,288.14 157.60,293.37 155.93,298.68 154.37,304.06 152.96,309.51 151.67,315.04 150.54,320.65 149.55,326.32 148.71,332.06 148.04,337.87 147.53,343.75 147.20,349.69 147.04,355.68 147.07,361.72 147.28,367.81 147.69,373.95 148.30,380.12 149.11,386.32 150.13,392.54 151.37,398.77 152.82,405.02 154.49,411.26 156.39,417.49 158.51,423.70 160.86,429.87 163.43,436.01 166.24,442.09 169.27,448.11 172.54,454.06 176.02,459.92 179.73,465.68 183.66,471.33 187.80,476.85 192.15,482.25 196.71,487.50 201.46,492.60 206.39,497.53 211.51,502.28 216.79,506.85 222.23,511.23 227.82,515.41 233.56,519.38 239.41,523.13 245.38,526.66 251.46,529.97 257.63,533.06 263.87,535.91 270.18,538.53 276.55,540.91 282.96,543.06 289.41,544.98 295.87,546.67 302.35,548.12 308.83,549.35 315.29,550.36 321.74,551.14 328.16,551.71 334.55,552.06 340.89,552.21 347.19,552.16 353.42,551.91 359.60,551.47 365.71,550.85 371.74,550.05 377.70,549.08 383.58,547.94 389.38,546.64 395.09,545.18 400.71,543.58 406.23,541.83 411.67,539.95 417.01,537.93 422.26,535.79 427.41,533.52 432.47,531.14 437.43,528.65 442.30,526.05 447.06,523.34 451.74,520.54 456.32,517.64 460.80,514.66 465.19,511.58 469.49,508.43 473.69,505.19 477.81,501.88 481.84,498.49 485.78,495.03 489.63,491.50 493.40,487.91 497.09,484.26 500.69,480.55 504.21,476.78 507.65,472.95 511.02,469.07 514.31,465.14 517.52,461.16 520.66,457.13 523.72,453.05 526.72,448.94 529.64,444.78 532.50,440.57"/>
</svg>