<svg width="630.0" height="630.0" viewBox="0 0 630.0 630.0" fill="none" stroke="black" stroke-width="6" stroke-linecap="round" stroke-linejoin="round" xmlns="http://www.w3.org/2000/svg">
  <circle cx="315.0" cy="315.0" r="290.0" fill="white"/>
  <polyline points="532.50,440.57 535.67,436.95 538.78,433.30 541.82,429.61 544.80,425.89 547.70,422.13 550.55,418.35 553.32,414.55 556.04,410.72 558.69,406.87 561.27,403.01 563.79,399.13 566.24,395.23 568.63,391.32 570.95,387.41 573.21,383.49 575.40,379.57 577.52,375.65 579.58,371.73 581.56,367.81 583.47,363.91 585.32,360.02 587.09,356.14 588.78,352.28 590.40,348.45 591.94,344.64 593.41,340.87 594.79,337.13 596.08,333.43 597.29,329.77 598.41,326.16 599.44,322.61 600.37,319.11 601.21,315.68 601.94,312.32 602.57,309.03 603.10,305.83 603.51,302.71 603.81,299.68 603.99,296.75 604.05,293.93 603.99,291.22"/>
  <polyline points="409.76,40.93 410.17,41.21 410.36,41.58 410.35,42.04 410.14,42.60 409.73,43.24 409.13,43.96 408.35,44.76 407.39,45.64 406.25,46.58 404.95,47.60 403.48,48.69 401.86,49.84 400.10,51.04 398.18,52.31 396.14,53.63 393.96,55.01 391.66,56.43 389.24,57.91 386.71,59.43 384.07,60.99 381.34,62.60 378.51,64.25 375.58,65.94 372.58,67.67 369.50,69.44 366.34,71.24 363.11,73.09 359.82,74.97 356.47,76.89 353.06,78.85 349.60,80.84 346.10,82.87 342.55,84.94 338.96,87.05 335.33,89.19 331.67,91.38 327.98,93.60 324.27,95.86 320.53,98.17 316.77,100.52 313.00,102.91 309.21,105.35 305.41,107.83 301.60,110.37 297.79,112.95 293.98,115.58 290.16,118.26 286.35,121.00 282.55,123.79 278.75,126.64 274.96,129.55 271.19,132.51 267.44,135.54 263.70,138.64 259.99,141.80 256.30,145.02 252.64,148.32 249.01,151.69 245.42,155.13 241.86,158.64 238.34,162.23 234.87,165.91 231.44,169.66 228.06,173.49 224.73,177.41 221.47,181.42 218.26,185.51 215.11,189.69 212.04,193.97 209.04,198.34 206.11,202.80 203.27,207.35 200.51,212.01 197.84,216.76 195.27,221.61 192.80,226.56 190.43,231.60 188.18,236.75 186.04,242.00 184.02,247.35 182.13,252.80 180.38,258.34 178.76,263.98 177.29,269.72 175.97,275.54 174.81,281.46 173.81,287.47 172.98,293.56 172.32,299.73 171.85,305.97 171.57,312.28 171.48,318.66 171.58,325.10 171.90,331.58 172.42,338.11 173.15,344.68 174.10,351.27 175.27,357.88 176.67,364.50 178.29,371.11 180.14,377.71 182.22,384.28 184.53,390.82 187.07,397.31 189.84,403.74 192.83,410.09 196.05,416.36 199.48,422.53 203.13,428.60 207.00,434.54 211.06,440.34 215.32,446.01 219.77,451.51 224.40,456.85 229.21,462.02 234.17,466.99 239.29,471.78 244.55,476.36 249.94,480.74 255.44,484.91 261.06,488.85 266.78,492.57 272.58,496.07 278.45,499.34 284.40,502.38 290.39,505.19 296.43,507.77 302.50,510.12 308.59,512.24 314.70,514.14 320.81,515.81 326.91,517.27 333.01,518.51 339.09,519.54 345.14,520.36 351.15,520.97 357.13,521.39 363.07,521.62 368.95,521.66 374.79,521.52 380.56,521.20 386.27,520.71 391.92,520.06 397.50,519.24 403.01,518.28 408.45,517.16 413.81,515.91 419.10,514.51 424.31,512.98 429.45,511.33 434.50,509.55 439.48,507.65 444.37,505.64 449.19,503.52 453.92,501.30 458.58,498.98 463.15,496.56 467.65,494.05 472.07,491.46 476.41,488.77 480.67,486.01 484.85,483.17 488.95,480.26 492.98,477.27 496.94,474.22 500.82,471.10 504.62,467.92 508.36,464.68 512.02,461.39 515.61,458.04 519.12,454.64 522.57,451.19 525.95,447.69 529.26,444.15 532.50,440.57 535.67,436.95 538.78,433.30 541.82,429.61 544.80,425.89 547.70,422.13 550.55,418.35 553.32,414.55 556.04,410.72 558.69,406.87 561.27,403.01 563.79,399.13 566.24,395.23 568.63,391.32 570.95,387.41 573.21,383.49 575.40,379.57 577.52,375.65 579.58,371.73 581.56,367.81 583.47,363.91 585.32,360.02 587.09,356.14 588.78,352.28 590.40,348.45 591.94,344.64 593.41,340.87 594.79,337.13 596.08,333.43 597.29,329.77 598.41,326.16 599.44,322.61 600.37,319.11 601.21,315.68 601.94,312.32 602.57,309.03 603.10,305.83 603.51,302.71 603.81,299.68 603.99,296.75 604.05,293.93 603.99,291.22"/>
  <polyline points="409.76,40.93 410.17,41.21 410.36,41.58 410.35,42.04 410.14,42.60 409.73,43.24 409.13,43.96 408.35,44.76 407.39,45.64 406.25,46.58 404.95,47.60 403.48,48.69 401.86,49.84 400.10,51.04 398.18,52.31 396.14,53.63 393.96,55.01 391.66,56.43 389.24,57.91 386.71,59.43 384.07,60.99 381.34,62.60 378.51,64.25 375.58,65.94 372.58,67.67 369.50,69.44 366.34,71.24 363.11,73.09 359.82,74.97 356.47,76.89 353.06,78.85 349.60,80.84 346.10,82.87 342.55,84.94 338.96,87.05 335.33,89.19 331.67,91.38 327.98,93.60 324.27,95.86 320.53,98.17 316.77,100.52 313.00,102.91 309.21,105.35 305.41,107.83 301.60,110.37 297.79,112.95 293.98,115.58 290.16,118.26 286.35,121.00 282.55,123.79 278.75,126.64 274.96,129.55 271.19,132.51 267.44,135.54 263.70,138.64 259.99,141.80 256.30,145.02 252.64,148.32 249.01,151.69 245.42,155.13 241.86,158.64 238.34,162.23 234.87,165.91 231.44,169.66 228.06,173.49 224.73,177.41 221.47,181.42 218.26,185.51 215.11,189.69 212.04,193.97 209.04,198.34 206.11,202.80 203.27,207.35 200.51,212.01 197.84,216.76 195.27,221.61 192.80,226.56 190.43,231.60 188.18,236.75 186.04,242.00 184.02,247.35 182.13,252.80 180.38,258.34 178.76,263.98 177.29,269.72 175.97,275.54 174.81,281.46 173.81,287.47 172.98,293.56 172.32,299.73 171.85,305.97 171.57,312.28 171.48,318.66 171.58,325.10 171.90,331.58 172.42,338.11 173.15,344.68 174.10,351.27 175.27,357.88 176.67,364.50 178.29,371.11 180.14,377.71 182.22,384.28 184.53,390.82 187.07,397.31 189.84,403.74 192.83,410.09 196.05,416.36 199.48,422.53 203.13,428.60 207.00,434.54 211.06,440.34 215.32,446.01 219.77,451.51 224.40,456.85 229.21,462.02 234.17,466.99 239.29,471.78 244.55,476.36 249.94,480.74 255.44,484.91 261.06,488.85 266.78,492.57 272.58,496.07 278.45,499.34 284.40,502.38 290.39,505.19 296.43,507.77 302.50,510.12 308.59,512.24 314.70,514.14 320.81,515.81 326.91,517.27 333.01,518.51 339.09,519.54 345.14,520.36 351.15,520.97 357.13,521.39 363.07,521.62 368.95,521.66 374.79,521.52 380.56,521.20 386.27,520.71 391.92,520.06 397.50,519.24 403.01,518.28 408.45,517.16 413.81,515.91 419.10,514.51 424.31,512.98 429.45,511.33 434.50,509.55 439.48,507.65 444.37,505.64 449.19,503.52 453.92,501.30 458.58,498.98 463.15,496.56 467.65,494.05 472.07,491.46 476.41,488.77 480.67,486.01 484.85,483.17 488.95,480.26 492.98,477.27 496.94,474.22 500.82,471.10 504.62,467.92 508.36,464.68 512.02,461.39 515.61,458.04 519.12,454.64 522.57,451.19 525.95,447.69 529.26,444.15 532.50,440.57"/>
</svg>