<svg width="630.0" height="630.0" viewBox="0 0 630.0 630.0" fill="none" stroke="black" stroke-width="6" stroke-linecap="round" stroke-linejoin="round" xmlns="http://www.w3.org/2000/svg">
  <circle cx="315.0" cy="315.0" r="290.0" fill="white"/>
  <polyline points="315.00,315.00 318.11,319.05 321.22,323.11 324.32,327.17 327.41,331.24 330.49,335.31 333.55,339.40 336.60,343.49 339.62,347.60 342.61,351.73 345.58,355.87 348.51,360.04 351.41,364.22 354.26,368.42 357.08,372.65 359.84,376.91 362.56,381.19 365.22,385.50 367.82,389.84 370.35,394.21 372.82,398.61 375.22,403.04 377.54,407.51 379.78,412.00 381.93,416.53 383.99,421.10 385.96,425.69 387.83,430.32 389.59,434.98 391.23,439.66 392.77,444.38 394.18,449.12 395.46,453.89 396.61,458.68 397.62,463.49 398.49,468.31 399.20,473.15 399.76,477.99 400.16,482.84 400.40,487.69 400.46,492.53 400.35,497.36 400.05,502.17 399.57,506.95 398.89,511.70 398.03,516.42 396.96,521.08 395.69,525.69 394.22,530.24 392.55,534.71 390.66,539.10 388.57,543.40 386.27,547.60 383.76,551.70 381.04,555.67 378.12,559.52 374.99,563.23 371.67,566.79 368.15,570.21 364.44,573.46 360.55,576.54 356.48,579.45 352.23,582.18 347.83,584.72 343.27,587.08 338.56,589.23 333.72,591.19 328.75,592.95 323.67,594.51 318.47,595.86 313.18,597.01 307.81,597.95 302.36,598.69 296.84,599.24 291.26,599.58 285.65,599.73 279.99,599.70 274.31,599.47 268.62,599.06 262.91,598.48 257.21,597.72 251.51,596.80 245.83,595.71 240.17,594.47 234.55,593.08 228.95,591.55 223.40,589.88 217.90,588.07 212.44,586.14 207.05,584.09 201.71,581.92 196.43,579.64 191.22,577.26"/>
  <polyline points="63.85,460.00 61.36,455.59 58.94,451.13 56.60,446.63 54.34,442.09 52.16,437.49 50.06,432.86 48.03,428.17 46.09,423.44 44.22,418.66 42.43,413.84 40.72,408.97 39.10,404.05 37.55,399.09 36.09,394.08 34.72,389.02 33.42,383.92 32.22,378.77 31.10,373.58 30.07,368.34 29.13,363.05 28.28,357.73 27.53,352.36 26.87,346.95 26.30,341.50 25.84,336.02 25.48,330.49 25.22,324.94 25.07,319.35 25.03,313.74 25.09,308.10 25.28,302.44 25.57,296.76"/>
  <polyline points="604.43,333.24 604.72,327.56 604.91,321.90 604.97,316.26 604.93,310.65 604.78,305.06 604.52,299.51 604.16,293.98 603.70,288.50 603.13,283.05 602.47,277.64 601.72,272.27 600.87,266.95 599.93,261.66 598.90,256.42 597.78,251.23 596.58,246.08 595.28,240.98 593.91,235.92 592.45,230.91 590.90,225.95 589.28,221.03 587.57,216.16 585.78,211.34 583.91,206.56 581.97,201.83 579.94,197.14 577.84,192.51 575.66,187.91 573.40,183.37 571.06,178.87 568.64,174.41"/>
  <polyline points="438.78,52.74 433.57,50.36 428.29,48.08 422.95,45.91 417.56,43.86 412.10,41.93 406.60,40.12 401.05,38.45 395.45,36.92 389.83,35.53 384.17,34.29 378.49,33.20 372.79,32.28 367.09,31.52 361.38,30.94 355.69,30.53 350.01,30.30 344.35,30.27 338.74,30.42 333.16,30.76 327.64,31.31 322.19,32.05 316.82,32.99 311.53,34.14 306.33,35.49 301.25,37.05 296.28,38.81 291.44,40.77 286.73,42.92 282.17,45.28 277.77,47.82 273.52,50.55 269.45,53.46 265.56,56.54 261.85,59.79 258.33,63.21 255.01,66.77 251.88,70.48 248.96,74.33 246.24,78.30 243.73,82.40 241.43,86.60 239.34,90.90 237.45,95.29 235.78,99.76 234.31,104.31 233.04,108.92 231.97,113.58 231.11,118.30 230.43,123.05 229.95,127.83 229.65,132.64 229.54,137.47 229.60,142.31 229.84,147.16 230.24,152.01 230.80,156.85 231.51,161.69 232.38,166.51 233.39,171.32 234.54,176.11 235.82,180.88 237.23,185.62 238.77,190.34 240.41,195.02 242.17,199.68 244.04,204.31 246.01,208.90 248.07,213.47 250.22,218.00 252.46,222.49 254.78,226.96 257.18,231.39 259.65,235.79 262.18,240.16 264.78,244.50 267.44,248.81 270.16,253.09 272.92,257.35 275.74,261.58 278.59,265.78 281.49,269.96 284.42,274.13 287.39,278.27 290.38,282.40 293.40,286.51 296.45,290.60 299.51,294.69 302.59,298.76 305.68,302.83 308.78,306.89 311.89,310.95 315.00,315.00 318.11,319.05 321.22,323.11 324.32,327.17 327.41,331.24 330.49,335.31 333.55,339.40 336.60,343.49 339.62,347.60 342.61,351.73 345.58,355.87 348.51,360.04 351.41,364.22 354.26,368.42 357.08,372.65 359.84,376.91 362.56,381.19 365.22,385.50 367.82,389.84 370.35,394.21 372.82,398.61 375.22,403.04 377.54,407.51 379.78,412.00 381.93,416.53 383.99,421.10 385.96,425.69 387.83,430.32 389.59,434.98 391.23,439.66 392.77,444.38 394.18,449.12 395.46,453.89 396.61,458.68 397.62,463.49 398.49,468.31 399.20,473.15 399.76,477.99 400.16,482.84 400.40,487.69 400.46,492.53 400.35,497.36 400.05,502.17 399.57,506.95 398.89,511.70 398.03,516.42 396.96,521.08 395.69,525.69 394.22,530.24 392.55,534.71 390.66,539.10 388.57,543.40 386.27,547.60 383.76,551.70 381.04,555.67 378.12,559.52 374.99,563.23 371.67,566.79 368.15,570.21 364.44,573.46 360.55,576.54 356.48,579.45 352.23,582.18 347.83,584.72 343.27,587.08 338.56,589.23 333.72,591.19 328.75,592.95 323.67,594.51 318.47,595.86 313.18,597.01 307.81,597.95 302.36,598.69 296.84,599.24 291.26,599.58 285.65,599.73 279.99,599.70 274.31,599.47 268.62,599.06 262.91,598.48 257.21,597.72 251.51,596.80 245.83,595.71 240.17,594.47 234.55,593.08 228.95,591.55 223.40,589.88 217.90,588.07 212.44,586.14 207.05,584.09 201.71,581.92 196.43,579.64 191.22,577.26"/>
  <polyline points="61.36,455.59 58.94,451.13 56.60,446.63 54.34,442.09 52.16,437.49 50.06,432.86 48.03,428.17 46.09,423.44 44.22,418.66 42.43,413.84 40.72,408.97 39.10,404.05 37.55,399.09 36.09,394.08 34.72,389.02 33.42,383.92 32.22,378.77 31.10,373.58 30.07,368.34 29.13,363.05 28.28,357.73 27.53,352.36 26.87,346.95 26.30,341.50 25.84,336.02 25.48,330.49 25.22,324.94 25.07,319.35 25.03,313.74 25.09,308.10 25.28,302.44 25.57,296.76"/>
  <polyline points="604.43,333.24 604.72,327.56 604.91,321.90 604.97,316.26 604.93,310.65 604.78,305.06 604.52,299.51 604.16,293.98 603.70,288.50 603.13,283.05 602.47,277.64 601.72,272.27 600.87,266.95 599.93,261.66 598.90,256.42 597.78,251.23 596.58,246.08 595.28,240.98 593.91,235.92 592.45,230.91 590.90,225.95 589.28,221.03 587.57,216.16 585.78,211.34 583.91,206.56 581.97,201.83 579.94,197.14 577.84,192.51 575.66,187.91 573.40,183.37 571.06,178.87 568.64,174.41"/>
  <polyline points="438.78,52.74 433.57,50.36 428.29,48.08 422.95,45.91 417.56,43.86 412.10,41.93 406.60,40.12 401.05,38.45 395.45,36.92 389.83,35.53 384.17,34.29 378.49,33.20 372.79,32.28 367.09,31.52 361.38,30.94 355.69,30.53 350.01,30.30 344.35,30.27 338.74,30.42 333.16,30.76 327.64,31.31 322.19,32.05 316.82,32.99 311.53,34.14 306.33,35.49 301.25,37.05 296.28,38.81 291.44,40.77 286.73,42.92 282.17,45.28 277.77,47.82 273.52,50.55 269.45,53.46 265.56,56.54 261.85,59.79 258.33,63.21 255.01,66.77 251.88,70.48 248.96,74.33 246.24,78.30 243.73,82.40 241.43,86.60 239.34,90.90 237.45,95.29 235.78,99.76 234.31,104.31 233.04,108.92 231.97,113.58 231.11,118.30 230.43,123.05 229.95,127.83 229.65,132.64 229.54,137.47 229.60,142.31 229.84,147.16 230.24,152.01 230.80,156.85 231.51,161.69 232.38,166.51 233.39,171.32 234.54,176.11 235.82,180.88 237.23,185.62 238.77,190.34 240.41,195.02 242.17,199.68 244.04,204.31 246.01,208.90 248.07,213.47 250.22,218.00 252.46,222.49 254.78,226.96 257.18,231.39 259.65,235.79 262.18,240.16 264.78,244.50 267.44,248.81 270.16,253.09 272.92,257.35 275.74,261.58 278.59,265.78 281.49,269.96 284.42,274.13 287.39,278.27 290.38,282.40 293.40,286.51 296.45,290.60 299.51,294.69 302.59,298.76 305.68,302.83 308.78,306.89 311.89,310.95 315.00,315.00"/>
</svg>