<svg width="630.0" height="630.0" viewBox="0 0 630.0 630.0" fill="none" stroke="black" stroke-width="6" stroke-linecap="round" stroke-linejoin="round" xmlns="http://www.w3.org/2000/svg">
  <circle cx="315.0" cy="315.0" r="290.0" fill="white"/>
  <polyline points="417.53,417.53 422.05,415.37 426.54,413.19 431.00,410.98 435.43,408.75 439.83,406.49 444.20,404.23 448.55,401.95 452.86,399.66 457.15,397.36 461.42,395.07 465.66,392.77 469.87,390.48 474.06,388.19 478.22,385.92 482.35,383.66 486.46,381.41 490.55,379.19 494.60,377.00 498.63,374.83 502.63,372.69 506.60,370.59 510.54,368.53 514.45,366.52 518.32,364.55 522.15,362.63 525.95,360.77 529.71,358.97 533.42,357.24 537.09,355.57 540.71,353.98 544.28,352.47 547.79,351.04 551.24,349.70 554.63,348.44 557.94,347.29 561.19,346.23 564.35,345.28 567.43,344.45 570.42,343.72 573.31,343.12 576.11,342.63 578.79,342.28 581.36,342.05 583.80,341.96 586.12,342.01 588.31,342.20 590.35,342.54 592.25,343.02 593.99,343.65 595.57,344.44 596.98,345.37 598.22,346.46 599.29,347.71 600.17,349.10 600.86,350.66 601.36,352.36 601.66,354.21 601.77,356.22 601.68,358.37"/>
  <polyline points="469.34,69.51 466.30,67.78 463.10,66.11 459.75,64.52 456.26,62.99 452.64,61.54 448.89,60.16 445.03,58.85 441.06,57.61 436.99,56.44 432.82,55.34 428.57,54.31 424.23,53.35 419.83,52.45 415.35,51.63 410.80,50.86 406.21,50.17 401.55,49.54 396.85,48.98 392.11,48.48 387.33,48.04 382.52,47.67 377.67,47.37 372.80,47.13 367.90,46.95 362.98,46.84 358.04,46.79 353.09,46.81 348.13,46.89 343.16,47.03 338.18,47.24 333.19,47.52 328.20,47.86 323.21,48.27 318.22,48.75 313.23,49.29 308.24,49.91 303.26,50.59 298.29,51.34 293.32,52.17 288.36,53.06 283.41,54.03 278.47,55.08 273.54,56.20 268.63,57.40 263.73,58.67 258.85,60.03 253.99,61.47 249.14,62.98 244.32,64.59 239.51,66.28 234.73,68.05 229.97,69.92 225.23,71.87 220.52,73.92 215.84,76.06 211.19,78.29 206.57,80.63 201.98,83.06 197.43,85.60 192.92,88.23 188.44,90.98 184.01,93.83 179.62,96.79 175.28,99.86 170.99,103.04 166.76,106.33 162.58,109.75 158.46,113.28 154.40,116.93 150.42,120.70 146.50,124.59 142.66,128.61 138.90,132.75 135.23,137.02 131.65,141.41 128.16,145.93 124.78,150.58 121.51,155.36 118.34,160.26 115.30,165.29 112.39,170.44 109.60,175.72 106.96,181.13 104.47,186.65 102.13,192.29 99.95,198.04 97.94,203.91 96.10,209.88 94.45,215.95 92.99,222.12 91.72,228.38 90.66,234.72 89.81,241.13 89.18,247.61 88.76,254.15 88.58,260.74 88.63,267.37 88.91,274.02 89.43,280.70 90.19,287.38 91.20,294.05 92.46,300.71 93.95,307.34 95.70,313.92 97.68,320.46 99.91,326.92 102.37,333.31 105.07,339.60 108.00,345.79 111.14,351.87 114.51,357.82 118.08,363.63 121.85,369.30 125.81,374.81 129.96,380.16 134.28,385.34 138.76,390.34 143.39,395.15 148.17,399.78 153.07,404.21 158.10,408.44 163.24,412.47 168.48,416.30 173.81,419.92 179.22,423.33 184.70,426.54 190.25,429.55 195.84,432.35 201.48,434.95 207.15,437.35 212.86,439.55 218.58,441.56 224.31,443.38 230.06,445.01 235.80,446.46 241.55,447.73 247.28,448.82 253.00,449.75 258.70,450.51 264.38,451.11 270.03,451.55 275.66,451.85 281.26,451.99 286.82,452.00 292.35,451.87 297.84,451.61 303.30,451.23 308.71,450.72 314.08,450.09 319.42,449.36 324.71,448.51 329.96,447.57 335.17,446.52 340.33,445.38 345.45,444.15 350.53,442.84 355.57,441.44 360.57,439.96 365.52,438.41 370.44,436.79 375.32,435.11 380.15,433.36 384.95,431.55 389.71,429.69 394.44,427.77 399.12,425.81 403.78,423.80 408.39,421.74 412.98,419.66 417.53,417.53 422.05,415.37 426.54,413.19 431.00,410.98 435.43,408.75 439.83,406.49 444.20,404.23 448.55,401.95 452.86,399.66 457.15,397.36 461.42,395.07 465.66,392.77 469.87,390.48 474.06,388.19 478.22,385.92 482.35,383.66 486.46,381.41 490.55,379.19 494.60,377.00 498.63,374.83 502.63,372.69 506.60,370.59 510.54,368.53 514.45,366.52 518.32,364.55 522.15,362.63 525.95,360.77 529.71,358.97 533.42,357.24 537.09,355.57 540.71,353.98 544.28,352.47 547.79,351.04 551.24,349.70 554.63,348.44 557.94,347.29 561.19,346.23 564.35,345.28 567.43,344.45 570.42,343.72 573.31,343.12 576.11,342.63 578.79,342.28 581.36,342.05 583.80,341.96 586.12,342.01 588.31,342.20 590.35,342.54 592.25,343.02 593.99,343.65 595.57,344.44 596.98,345.37 598.22,346.46 599.29,347.71 600.17,349.10 600.86,350.66 601.36,352.36 601.66,354.21 601.77,356.22 601.68,358.37"/>
  <polyline points="469.34,69.51 466.30,67.78 463.10,66.11 459.75,64.52 456.26,62.99 452.64,61.54 448.89,60.16 445.03,58.85 441.06,57.61 436.99,56.44 432.82,55.34 428.57,54.31 424.23,53.35 419.83,52.45 415.35,51.63 410.80,50.86 406.21,50.17 401.55,49.54 396.85,48.98 392.11,48.48 387.33,48.04 382.52,47.67 377.67,47.37 372.80,47.13 367.90,46.95 362.98,46.84 358.04,46.79 353.09,46.81 348.13,46.89 343.16,47.03 338.18,47.24 333.19,47.52 328.20,47.86 323.21,48.27 318.22,48.75 313.23,49.29 308.24,49.91 303.26,50.59 298.29,51.34 293.32,52.17 288.36,53.06 283.41,54.03 278.47,55.08 273.54,56.20 268.63,57.40 263.73,58.67 258.85,60.03 253.99,61.47 249.14,62.98 244.32,64.59 239.51,66.28 234.73,68.05 229.97,69.92 225.23,71.87 220.52,73.92 215.84,76.06 211.19,78.29 206.57,80.63 201.98,83.06 197.43,85.60 192.92,88.23 188.44,90.98 184.01,93.83 179.62,96.79 175.28,99.86 170.99,103.04 166.76,106.33 162.58,109.75 158.46,113.28 154.40,116.93 150.42,120.70 146.50,124.59 142.66,128.61 138.90,132.75 135.23,137.02 131.65,141.41 128.16,145.93 124.78,150.58 121.51,155.36 118.34,160.26 115.30,165.29 112.39,170.44 109.60,175.72 106.96,181.13 104.47,186.65 102.13,192.29 99.95,198.04 97.94,203.91 96.10,209.88 94.45,215.95 92.99,222.12 91.72,228.38 90.66,234.72 89.81,241.13 89.18,247.61 88.76,254.15 88.58,260.74 88.63,267.37 88.91,274.02 89.43,280.70 90.19,287.38 91.20,294.05 92.46,300.71 93.95,307.34 95.70,313.92 97.68,320.46 99.91,326.92 102.37,333.31 105.07,339.60 108.00,345.79 111.14,351.87 114.51,357.82 118.08,363.63 121.85,369.30 125.81,374.81 129.96,380.16 134.28,385.34 138.76,390.34 143.39,395.15 148.17,399.78 153.07,404.21 158.10,408.44 163.24,412.47 168.48,416.30 173.81,419.92 179.22,423.33 184.70,426.54 190.25,429.55 195.84,432.35 201.48,434.95 207.15,437.35 212.86,439.55 218.58,441.56 224.31,443.38 230.06,445.01 235.80,446.46 241.55,447.73 247.28,448.82 253.00,449.75 258.70,450.51 264.38,451.11 270.03,451.55 275.66,451.85 281.26,451.99 286.82,452.00 292.35,451.87 297.84,451.61 303.30,451.23 308.71,450.72 314.08,450.09 319.42,449.36 324.71,448.51 329.96,447.57 335.17,446.52 340.33,445.38 345.45,444.15 350.53,442.84 355.57,441.44 360.57,439.96 365.52,438.41 370.44,436.79 375.32,435.11 380.15,433.36 384.95,431.55 389.71,429.69 394.44,427.77 399.12,425.81 403.78,423.80 408.39,421.74 412.98,419.66 417.53,417.53"/>
</svg>