<svg width="630.0" height="630.0" viewBox="0 0 630.0 630.0" fill="none" stroke="black" stroke-width="6" stroke-linecap="round" stroke-linejoin="round" xmlns="http://www.w3.org/2000/svg">
  <circle cx="315.0" cy="315.0" r="290.0" fill="white"/>
  <polyline points="174.11,61.53 178.27,59.29 182.46,57.13 186.70,55.04 190.98,53.04 195.29,51.13 199.64,49.29 204.03,47.55 208.45,45.89 212.90,44.31 217.38,42.83 221.89,41.44 226.42,40.15 230.98,38.94 235.57,37.84 240.17,36.83 244.80,35.93 249.44,35.13 254.10,34.43 258.77,33.85 263.45,33.37 268.14,33.01 272.83,32.76 277.53,32.64 282.22,32.63 286.91,32.75 291.59,33.00 296.26,33.38 300.91,33.89 305.54,34.54 310.15,35.33 314.72,36.27 319.26,37.35 323.76,38.59 328.21,39.97 332.61,41.52 336.96,43.22 341.23,45.09 345.44,47.13 349.57,49.33 353.61,51.70 357.56,54.25 361.41,56.97 365.16,59.86 368.78,62.93 372.28,66.17 375.65,69.59 378.88,73.19 381.97,76.96 384.89,80.90 387.66,85.01 390.25,89.29 392.66,93.73 394.89,98.32 396.93,103.07 398.77,107.96 400.41,112.98 401.84,118.14 403.05,123.42 404.06,128.82 404.84,134.32 405.40,139.91 405.74,145.59 405.86,151.34 405.76,157.15 405.43,163.01 404.88,168.91 404.12,174.84 403.14,180.79 401.95,186.75 400.56,192.69 398.96,198.63 397.17,204.54 395.18,210.41 393.02,216.23 390.67,222.01 388.16,227.72 385.48,233.36 382.65,238.92 379.67,244.40 376.56,249.79 373.31,255.08 369.93,260.28 366.44,265.36 362.84,270.35 359.13,275.22 355.33,279.98 351.45,284.62 347.48,289.15 343.43,293.56 339.32,297.85 335.15,302.03 330.92,306.08 326.63,310.03 322.31,313.85 317.94,317.56 313.53,321.17 309.10,324.66 304.64,328.04 300.15,331.31 295.65,334.48 291.13,337.55 286.60,340.53 282.06,343.40 277.52,346.19 272.98,348.89 268.43,351.49 263.89,354.02 259.36,356.47 254.84,358.84 250.32,361.13 245.82,363.36 241.34,365.52 236.87,367.62 232.42,369.66 228.00,371.64 223.60,373.57 219.22,375.45 214.87,377.28 210.55,379.07 206.25,380.82 201.99,382.54 197.77,384.22 193.58,385.87 189.43,387.50 185.31,389.11 181.24,390.69 177.21,392.26 173.22,393.82 169.28,395.37 165.39,396.91 161.55,398.45 157.76,399.99 154.03,401.53 150.35,403.08 146.73,404.64 143.17,406.21 139.68,407.80 136.26,409.41 132.90,411.04 129.62,412.69 126.41,414.37 123.28,416.08 120.23,417.83 117.27,419.61 114.40,421.43 111.62,423.29 108.93,425.20 106.35,427.15 103.88,429.15 101.51,431.20 99.26,433.31 97.13,435.47 95.13,437.68 93.25,439.96 91.51,442.29 89.91,444.68 88.46,447.14 87.16,449.65 86.02,452.23 85.04,454.87 84.23,457.57 83.60,460.34 83.14,463.16 82.88,466.05 82.81,468.99 82.94,471.99 83.27,475.05 83.81,478.15 84.56,481.31 85.53,484.50 86.73,487.74 88.15,491.02 89.80,494.32 91.68,497.66 93.79,501.02 96.13,504.39 98.71,507.77 101.53,511.16 104.57,514.54"/>
  <polyline points="460.00,566.15 463.49,564.08 466.93,561.94 470.34,559.71 473.70,557.40 477.03,555.01 480.32,552.54 483.57,549.98 486.79,547.34 489.98,544.61 493.13,541.79 496.26,538.88 499.36,535.88 502.43,532.78 505.47,529.59 508.49,526.31 511.48,522.93 514.45,519.45 517.39,515.87 520.31,512.19 523.21,508.41 526.08,504.52 528.93,500.53 531.76,496.43 534.57,492.23 537.35,487.92 540.10,483.50 542.83,478.98 545.53,474.34 548.21,469.60 550.85,464.75 553.47,459.79 556.05,454.73 558.59,449.55 561.09,444.28 563.56,438.89 565.98,433.41 568.35,427.83 570.67,422.15 572.93,416.38 575.14,410.52 577.28,404.58 579.36,398.55 581.36,392.45 583.29,386.29 585.14,380.06 586.90,373.77 588.57,367.44 590.14,361.08 591.61,354.68 592.97,348.26 594.23,341.83 595.37,335.40 596.38,328.98 597.28,322.58 598.05,316.22 598.68,309.90 599.18,303.63 599.55,297.44 599.77,291.32 599.86,285.30 599.80,279.38 599.60,273.58 599.26,267.90 598.78,262.37 598.16,256.97 597.40,251.74 596.50,246.67 595.47,241.77 594.31,237.06"/>
  <polyline points="174.11,61.53 178.27,59.29 182.46,57.13 186.70,55.04 190.98,53.04 195.29,51.13 199.64,49.29 204.03,47.55 208.45,45.89 212.90,44.31 217.38,42.83 221.89,41.44 226.42,40.15 230.98,38.94 235.57,37.84 240.17,36.83 244.80,35.93 249.44,35.13 254.10,34.43 258.77,33.85 263.45,33.37 268.14,33.01 272.83,32.76 277.53,32.64 282.22,32.63 286.91,32.75 291.59,33.00 296.26,33.38 300.91,33.89 305.54,34.54 310.15,35.33 314.72,36.27 319.26,37.35 323.76,38.59 328.21,39.97 332.61,41.52 336.96,43.22 341.23,45.09 345.44,47.13 349.57,49.33 353.61,51.70 357.56,54.25 361.41,56.97 365.16,59.86 368.78,62.93 372.28,66.17 375.65,69.59 378.88,73.19 381.97,76.96 384.89,80.90 387.66,85.01 390.25,89.29 392.66,93.73 394.89,98.32 396.93,103.07 398.77,107.96 400.41,112.98 401.84,118.14 403.05,123.42 404.06,128.82 404.84,134.32 405.40,139.91 405.74,145.59 405.86,151.34 405.76,157.15 405.43,163.01 404.88,168.91 404.12,174.84 403.14,180.79 401.95,186.75 400.56,192.69 398.96,198.63 397.17,204.54 395.18,210.41 393.02,216.23 390.67,222.01 388.16,227.72 385.48,233.36 382.65,238.92 379.67,244.40 376.56,249.79 373.31,255.08 369.93,260.28 366.44,265.36 362.84,270.35 359.13,275.22 355.33,279.98 351.45,284.62 347.48,289.15 343.43,293.56 339.32,297.85 335.15,302.03 330.92,306.08 326.63,310.03 322.31,313.85 317.94,317.56 313.53,321.17 309.10,324.66 304.64,328.04 300.15,331.31 295.65,334.48 291.13,337.55 286.60,340.53 282.06,343.40 277.52,346.19 272.98,348.89 268.43,351.49 263.89,354.02 259.36,356.47 254.84,358.84 250.32,361.13 245.82,363.36 241.34,365.52 236.87,367.62 232.42,369.66 228.00,371.64 223.60,373.57 219.22,375.45 214.87,377.28 210.55,379.07 206.25,380.82 201.99,382.54 197.77,384.22 193.58,385.87 189.43,387.50 185.31,389.11 181.24,390.69 177.21,392.26 173.22,393.82 169.28,395.37 165.39,396.91 161.55,398.45 157.76,399.99 154.03,401.53 150.35,403.08 146.73,404.64 143.17,406.21 139.68,407.80 136.26,409.41 132.90,411.04 129.62,412.69 126.41,414.37 123.28,416.08 120.23,417.83 117.27,419.61 114.40,421.43 111.62,423.29 108.93,425.20 106.35,427.15 103.88,429.15 101.51,431.20 99.26,433.31 97.13,435.47 95.13,437.68 93.25,439.96 91.51,442.29 89.91,444.68 88.46,447.14 87.16,449.65 86.02,452.23 85.04,454.87 84.23,457.57 83.60,460.34 83.14,463.16 82.88,466.05 82.81,468.99 82.94,471.99 83.27,475.05 83.81,478.15 84.56,481.31 85.53,484.50 86.73,487.74 88.15,491.02 89.80,494.32 91.68,497.66 93.79,501.02 96.13,504.39 98.71,507.77 101.53,511.16 104.57,514.54"/>
  <polyline points="463.49,564.08 466.93,561.94 470.34,559.71 473.70,557.40 477.03,555.01 480.32,552.54 483.57,549.98 486.79,547.34 489.98,544.61 493.13,541.79 496.26,538.88 499.36,535.88 502.43,532.78 505.47,529.59 508.49,526.31 511.48,522.93 514.45,519.45 517.39,515.87 520.31,512.19 523.21,508.41 526.08,504.52 528.93,500.53 531.76,496.43 534.57,492.23 537.35,487.92 540.10,483.50 542.83,478.98 545.53,474.34 548.21,469.60 550.85,464.75 553.47,459.79 556.05,454.73 558.59,449.55 561.09,444.28 563.56,438.89 565.98,433.41 568.35,427.83 570.67,422.15 572.93,416.38 575.14,410.52 577.28,404.58 579.36,398.55 581.36,392.45 583.29,386.29 585.14,380.06 586.90,373.77 588.57,367.44 590.14,361.08 591.61,354.68 592.97,348.26 594.23,341.83 595.37,335.40 596.38,328.98 597.28,322.58 598.05,316.22 598.68,309.90 599.18,303.63 599.55,297.44 599.77,291.32 599.86,285.30 599.80,279.38 599.60,273.58 599.26,267.90 598.78,262.37 598.16,256.97 597.40,251.74 596.50,246.67 595.47,241.77 594.31,237.06"/>
</svg>