<svg width="630.0" height="630.0" viewBox="0 0 630.0 630.0" fill="none" stroke="black" stroke-width="6" stroke-linecap="round" stroke-linejoin="round" xmlns="http://www.w3.org/2000/svg">
  <circle cx="315.0" cy="315.0" r="290.0" fill="white"/>
  <polyline points="387.50,440.57 392.42,439.66 397.33,438.71 402.21,437.73 407.06,436.72 411.89,435.69 416.70,434.63 421.49,433.55 426.25,432.46 430.99,431.35 435.71,430.23 440.40,429.11 445.06,427.99 449.69,426.87 454.30,425.74 458.88,424.63 463.43,423.53 467.95,422.44 472.44,421.37 476.89,420.32 481.31,419.29 485.68,418.29 490.02,417.32 494.32,416.38 498.57,415.48 502.77,414.62 506.92,413.81 511.01,413.05 515.05,412.33 519.02,411.67 522.93,411.07 526.77,410.53 530.53,410.06 534.21,409.66 537.81,409.32 541.31,409.07 544.71,408.89 548.02,408.79 551.21,408.78 554.28,408.85 557.23,409.01 560.06,409.27 562.74,409.62 565.28,410.07 567.67,410.62 569.89,411.27 571.96,412.02 573.84,412.87 575.55,413.82 577.07,414.89 578.39,416.05 579.51,417.32 580.43,418.69 581.14,420.17 581.62,421.75 581.89,423.43 581.93,425.20 581.75,427.07 581.33,429.03 580.68,431.09"/>
  <polyline points="527.62,117.82 525.13,115.36 522.47,112.92 519.65,110.52 516.67,108.14 513.55,105.80 510.29,103.50 506.90,101.24 503.38,99.01 499.75,96.83 496.01,94.69 492.17,92.59 488.23,90.54 484.21,88.53 480.09,86.57 475.90,84.66 471.64,82.80 467.31,80.99 462.92,79.23 458.47,77.52 453.96,75.86 449.40,74.26 444.80,72.71 440.16,71.22 435.47,69.78 430.75,68.40 426.00,67.07 421.21,65.81 416.40,64.60 411.55,63.45 406.69,62.37 401.80,61.34 396.89,60.38 391.97,59.49 387.02,58.66 382.06,57.89 377.09,57.19 372.10,56.56 367.10,56.00 362.08,55.51 357.06,55.09 352.03,54.75 346.99,54.48 341.94,54.29 336.88,54.17 331.82,54.14 326.76,54.19 321.69,54.31 316.61,54.53 311.54,54.83 306.46,55.21 301.38,55.69 296.30,56.26 291.22,56.92 286.14,57.68 281.06,58.54 275.99,59.49 270.92,60.55 265.86,61.71 260.81,62.98 255.77,64.36 250.74,65.86 245.72,67.46 240.72,69.18 235.73,71.02 230.76,72.99 225.82,75.08 220.90,77.29 216.00,79.63 211.14,82.11 206.31,84.72 201.53,87.47 196.78,90.35 192.07,93.38 187.42,96.55 182.83,99.87 178.29,103.33 173.82,106.95 169.42,110.72 165.09,114.63 160.85,118.70 156.70,122.93 152.65,127.31 148.70,131.84 144.86,136.53 141.14,141.38 137.55,146.37 134.09,151.51 130.77,156.81 127.60,162.24 124.59,167.82 121.75,173.54 119.09,179.39 116.60,185.36 114.31,191.46 112.22,197.67 110.34,203.99 108.67,210.40 107.22,216.90 105.99,223.48 105.00,230.14 104.25,236.84 103.74,243.60 103.47,250.39 103.45,257.20 103.68,264.02 104.15,270.84 104.88,277.65 105.86,284.43 107.08,291.16 108.55,297.85 110.26,304.47 112.20,311.01 114.38,317.46 116.78,323.81 119.40,330.05 122.23,336.17 125.26,342.16 128.49,348.01 131.91,353.71 135.50,359.26 139.27,364.65 143.19,369.87 147.26,374.92 151.47,379.80 155.81,384.50 160.27,389.02 164.85,393.36 169.53,397.51 174.30,401.48 179.16,405.27 184.10,408.87 189.11,412.29 194.18,415.53 199.30,418.60 204.48,421.48 209.70,424.19 214.95,426.74 220.23,429.11 225.54,431.32 230.88,433.37 236.22,435.26 241.58,437.00 246.95,438.59 252.32,440.04 257.70,441.35 263.07,442.52 268.44,443.55 273.80,444.47 279.15,445.25 284.49,445.92 289.82,446.48 295.14,446.92 300.44,447.26 305.72,447.50 310.99,447.63 316.24,447.68 321.46,447.63 326.67,447.50 331.86,447.28 337.03,446.99 342.18,446.62 347.30,446.19 352.40,445.68 357.48,445.11 362.54,444.49 367.58,443.80 372.59,443.07 377.58,442.28 382.55,441.45 387.50,440.57 392.42,439.66 397.33,438.71 402.21,437.73 407.06,436.72 411.89,435.69 416.70,434.63 421.49,433.55 426.25,432.46 430.99,431.35 435.71,430.23 440.40,429.11 445.06,427.99 449.69,426.87 454.30,425.74 458.88,424.63 463.43,423.53 467.95,422.44 472.44,421.37 476.89,420.32 481.31,419.29 485.68,418.29 490.02,417.32 494.32,416.38 498.57,415.48 502.77,414.62 506.92,413.81 511.01,413.05 515.05,412.33 519.02,411.67 522.93,411.07 526.77,410.53 530.53,410.06 534.21,409.66 537.81,409.32 541.31,409.07 544.71,408.89 548.02,408.79 551.21,408.78 554.28,408.85 557.23,409.01 560.06,409.27 562.74,409.62 565.28,410.07 567.67,410.62 569.89,411.27 571.96,412.02 573.84,412.87 575.55,413.82 577.07,414.89 578.39,416.05 579.51,417.32 580.43,418.69 581.14,420.17 581.62,421.75 581.89,423.43 581.93,425.20 581.75,427.07 581.33,429.03 580.68,431.09"/>
  <polyline points="527.62,117.82 525.13,115.36 522.47,112.92 519.65,110.52 516.67,108.14 513.55,105.80 510.29,103.50 506.90,101.24 503.38,99.01 499.75,96.83 496.01,94.69 492.17,92.59 488.23,90.54 484.21,88.53 480.09,86.57 475.90,84.66 471.64,82.80 467.31,80.99 462.92,79.23 458.47,77.52 453.96,75.86 449.40,74.26 444.80,72.71 440.16,71.22 435.47,69.78 430.75,68.40 426.00,67.07 421.21,65.81 416.40,64.60 411.55,63.45 406.69,62.37 401.80,61.34 396.89,60.38 391.97,59.49 387.02,58.66 382.06,57.89 377.09,57.19 372.10,56.56 367.10,56.00 362.08,55.51 357.06,55.09 352.03,54.75 346.99,54.48 341.94,54.29 336.88,54.17 331.82,54.14 326.76,54.19 321.69,54.31 316.61,54.53 311.54,54.83 306.46,55.21 301.38,55.69 296.30,56.26 291.22,56.92 286.14,57.68 281.06,58.54 275.99,59.49 270.92,60.55 265.86,61.71 260.81,62.98 255.77,64.36 250.74,65.86 245.72,67.46 240.72,69.18 235.73,71.02 230.76,72.99 225.82,75.08 220.90,77.29 216.00,79.63 211.14,82.11 206.31,84.72 201.53,87.47 196.78,90.35 192.07,93.38 187.42,96.55 182.83,99.87 178.29,103.33 173.82,106.95 169.42,110.72 165.09,114.63 160.85,118.70 156.70,122.93 152.65,127.31 148.70,131.84 144.86,136.53 141.14,141.38 137.55,146.37 134.09,151.51 130.77,156.81 127.60,162.24 124.59,167.82 121.75,173.54 119.09,179.39 116.60,185.36 114.31,191.46 112.22,197.67 110.34,203.99 108.67,210.40 107.22,216.90 105.99,223.48 105.00,230.14 104.25,236.84 103.74,243.60 103.47,250.39 103.45,257.20 103.68,264.02 104.15,270.84 104.88,277.65 105.86,284.43 107.08,291.16 108.55,297.85 110.26,304.47 112.20,311.01 114.38,317.46 116.78,323.81 119.40,330.05 122.23,336.17 125.26,342.16 128.49,348.01 131.91,353.71 135.50,359.26 139.27,364.65 143.19,369.87 147.26,374.92 151.47,379.80 155.81,384.50 160.27,389.02 164.85,393.36 169.53,397.51 174.30,401.48 179.16,405.27 184.10,408.87 189.11,412.29 194.18,415.53 199.30,418.60 204.48,421.48 209.70,424.19 214.95,426.74 220.23,429.11 225.54,431.32 230.88,433.37 236.22,435.26 241.58,437.00 246.95,438.59 252.32,440.04 257.70,441.35 263.07,442.52 268.44,443.55 273.80,444.47 279.15,445.25 284.49,445.92 289.82,446.48 295.14,446.92 300.44,447.26 305.72,447.50 310.99,447.63 316.24,447.68 321.46,447.63 326.67,447.50 331.86,447.28 337.03,446.99 342.18,446.62 347.30,446.19 352.40,445.68 357.48,445.11 362.54,444.49 367.58,443.80 372.59,443.07 377.58,442.28 382.55,441.45 387.50,440.57"/>
</svg>