<svg width="630.0" height="630.0" viewBox="0 0 630.0 630.0" fill="none" stroke="black" stroke-width="6" stroke-linecap="round" stroke-linejoin="round" xmlns="http://www.w3.org/2000/svg">
  <circle cx="315.0" cy="315.0" r="290.0" fill="white"/>
  <polyline points="172.20,67.67 176.48,65.64 180.81,63.69 185.17,61.82 189.58,60.03 194.03,58.32 198.51,56.70 203.03,55.17 207.59,53.72 212.18,52.36 216.81,51.09 221.47,49.92 226.16,48.84 230.88,47.87 235.63,46.99 240.40,46.21 245.20,45.54 250.02,44.98 254.87,44.53 259.73,44.19 264.61,43.96 269.51,43.86 274.42,43.88 279.33,44.02 284.26,44.29 289.19,44.69 294.12,45.23 299.04,45.91 303.97,46.73 308.88,47.69 313.77,48.80 318.65,50.06 323.51,51.48 328.33,53.06 333.12,54.80 337.88,56.71 342.58,58.78 347.24,61.03 351.83,63.45 356.37,66.05 360.83,68.82 365.21,71.78 369.50,74.92 373.70,78.24 377.79,81.75 381.78,85.44 385.64,89.31 389.38,93.36 392.98,97.60 396.43,102.02 399.73,106.61 402.87,111.37 405.84,116.30 408.64,121.39 411.24,126.64 413.66,132.04 415.87,137.58 417.88,143.26 419.68,149.06 421.27,154.97 422.63,160.99 423.77,167.11 424.69,173.31 425.37,179.58 425.82,185.91 426.05,192.29 426.04,198.71 425.81,205.15 425.34,211.60 424.66,218.06 423.75,224.50 422.62,230.92 421.29,237.30 419.74,243.64 417.99,249.92 416.05,256.14 413.92,262.28 411.61,268.34 409.13,274.31 406.47,280.18 403.66,285.94 400.70,291.60 397.59,297.14 394.34,302.56 390.97,307.86 387.48,313.03 383.87,318.07 380.16,322.97 376.35,327.75 372.44,332.39 368.46,336.90 364.39,341.27 360.25,345.50 356.04,349.61 351.78,353.58 347.46,357.41 343.09,361.12 338.67,364.71 334.22,368.16 329.73,371.50 325.21,374.71 320.66,377.80 316.09,380.79 311.50,383.66 306.89,386.42 302.28,389.07 297.65,391.62 293.02,394.08 288.38,396.44 283.75,398.70 279.11,400.88 274.48,402.98 269.86,404.99 265.24,406.92 260.64,408.78 256.04,410.57 251.47,412.29 246.91,413.94 242.36,415.53 237.84,417.07 233.34,418.55 228.87,419.98 224.41,421.37 219.99,422.71 215.60,424.01 211.23,425.27 206.90,426.50 202.60,427.69 198.34,428.86 194.11,430.00 189.93,431.13 185.78,432.23 181.68,433.32 177.63,434.40 173.62,435.47 169.66,436.53 165.75,437.59 161.90,438.65 158.10,439.71 154.37,440.78 150.69,441.85 147.08,442.94 143.54,444.05 140.07,445.17 136.67,446.31 133.36,447.47 130.12,448.66 126.97,449.88 123.90,451.12 120.93,452.40 118.06,453.72 115.29,455.07 112.63,456.46 110.08,457.89 107.65,459.37 105.34,460.89 103.16,462.46 101.11,464.07 99.20,465.73 97.43,467.45 95.82,469.21 94.37,471.02 93.07,472.89 91.95,474.81 91.00,476.78 90.24,478.80 89.66,480.87 89.28,482.98 89.10,485.15 89.12,487.36 89.36,489.62 89.81,491.91 90.48,494.25 91.38,496.62 92.51,499.03 93.87,501.46 95.47,503.92 97.30,506.40 99.37,508.90"/>
  <polyline points="516.70,523.36 519.89,520.19 523.04,516.92 526.17,513.53 529.26,510.03 532.33,506.41 535.37,502.68 538.38,498.83 541.35,494.86 544.30,490.77 547.21,486.56 550.09,482.23 552.92,477.77 555.72,473.19 558.48,468.48 561.20,463.65 563.86,458.69 566.48,453.61 569.05,448.40 571.55,443.07 574.00,437.62 576.39,432.06 578.70,426.37 580.94,420.57 583.11,414.66 585.19,408.65 587.18,402.54 589.09,396.33 590.89,390.03 592.59,383.64 594.19,377.18 595.67,370.65 597.03,364.07 598.27,357.43 599.38,350.75 600.35,344.04 601.19,337.31 601.89,330.57 602.44,323.83 602.85,317.11 603.10,310.42 603.20,303.76 603.14,297.16 602.93,290.62 602.55,284.15 602.03,277.78 601.34,271.51 600.50,265.35 599.51,259.32 598.37,253.42"/>
  <polyline points="94.92,126.15 97.92,122.76 101.00,119.42 104.16,116.14 107.40,112.91 110.72,109.73 114.10,106.62 117.56,103.57 121.09,100.57 124.68,97.64 128.34,94.77 132.05,91.96 135.83,89.22 139.66,86.55 143.55,83.94 147.49,81.40 151.49,78.93 155.54,76.54 159.63,74.21 163.78,71.95 167.97,69.77 172.20,67.67 176.48,65.64 180.81,63.69 185.17,61.82 189.58,60.03 194.03,58.32 198.51,56.70 203.03,55.17 207.59,53.72 212.18,52.36 216.81,51.09 221.47,49.92 226.16,48.84 230.88,47.87 235.63,46.99 240.40,46.21 245.20,45.54 250.02,44.98 254.87,44.53 259.73,44.19 264.61,43.96 269.51,43.86 274.42,43.88 279.33,44.02 284.26,44.29 289.19,44.69 294.12,45.23 299.04,45.91 303.97,46.73 308.88,47.69 313.77,48.80 318.65,50.06 323.51,51.48 328.33,53.06 333.12,54.80 337.88,56.71 342.58,58.78 347.24,61.03 351.83,63.45 356.37,66.05 360.83,68.82 365.21,71.78 369.50,74.92 373.70,78.24 377.79,81.75 381.78,85.44 385.64,89.31 389.38,93.36 392.98,97.60 396.43,102.02 399.73,106.61 402.87,111.37 405.84,116.30 408.64,121.39 411.24,126.64 413.66,132.04 415.87,137.58 417.88,143.26 419.68,149.06 421.27,154.97 422.63,160.99 423.77,167.11 424.69,173.31 425.37,179.58 425.82,185.91 426.05,192.29 426.04,198.71 425.81,205.15 425.34,211.60 424.66,218.06 423.75,224.50 422.62,230.92 421.29,237.30 419.74,243.64 417.99,249.92 416.05,256.14 413.92,262.28 411.61,268.34 409.13,274.31 406.47,280.18 403.66,285.94 400.70,291.60 397.59,297.14 394.34,302.56 390.97,307.86 387.48,313.03 383.87,318.07 380.16,322.97 376.35,327.75 372.44,332.39 368.46,336.90 364.39,341.27 360.25,345.50 356.04,349.61 351.78,353.58 347.46,357.41 343.09,361.12 338.67,364.71 334.22,368.16 329.73,371.50 325.21,374.71 320.66,377.80 316.09,380.79 311.50,383.66 306.89,386.42 302.28,389.07 297.65,391.62 293.02,394.08 288.38,396.44 283.75,398.70 279.11,400.88 274.48,402.98 269.86,404.99 265.24,406.92 260.64,408.78 256.04,410.57 251.47,412.29 246.91,413.94 242.36,415.53 237.84,417.07 233.34,418.55 228.87,419.98 224.41,421.37 219.99,422.71 215.60,424.01 211.23,425.27 206.90,426.50 202.60,427.69 198.34,428.86 194.11,430.00 189.93,431.13 185.78,432.23 181.68,433.32 177.63,434.40 173.62,435.47 169.66,436.53 165.75,437.59 161.90,438.65 158.10,439.71 154.37,440.78 150.69,441.85 147.08,442.94 143.54,444.05 140.07,445.17 136.67,446.31 133.36,447.47 130.12,448.66 126.97,449.88 123.90,451.12 120.93,452.40 118.06,453.72 115.29,455.07 112.63,456.46 110.08,457.89 107.65,459.37 105.34,460.89 103.16,462.46 101.11,464.07 99.20,465.73 97.43,467.45 95.82,469.21 94.37,471.02 93.07,472.89 91.95,474.81 91.00,476.78 90.24,478.80 89.66,480.87 89.28,482.98 89.10,485.15 89.12,487.36 89.36,489.62 89.81,491.91 90.48,494.25 91.38,496.62 92.51,499.03 93.87,501.46 95.47,503.92 97.30,506.40 99.37,508.90"/>
  <polyline points="516.70,523.36 519.89,520.19 523.04,516.92 526.17,513.53 529.26,510.03 532.33,506.41 535.37,502.68 538.38,498.83 541.35,494.86 544.30,490.77 547.21,486.56 550.09,482.23 552.92,477.77 555.72,473.19 558.48,468.48 561.20,463.65 563.86,458.69 566.48,453.61 569.05,448.40 571.55,443.07 574.00,437.62 576.39,432.06 578.70,426.37 580.94,420.57 583.11,414.66 585.19,408.65 587.18,402.54 589.09,396.33 590.89,390.03 592.59,383.64 594.19,377.18 595.67,370.65 597.03,364.07 598.27,357.43 599.38,350.75 600.35,344.04 601.19,337.31 601.89,330.57 602.44,323.83 602.85,317.11 603.10,310.42 603.20,303.76 603.14,297.16 602.93,290.62 602.55,284.15 602.03,277.78 601.34,271.51 600.50,265.35 599.51,259.32 598.37,253.42"/>
  <polyline points="94.92,126.15 97.92,122.76 101.00,119.42 104.16,116.14 107.40,112.91 110.72,109.73 114.10,106.62 117.56,103.57 121.09,100.57 124.68,97.64 128.34,94.77 132.05,91.96 135.83,89.22 139.66,86.55 143.55,83.94 147.49,81.40 151.49,78.93 155.54,76.54 159.63,74.21 163.78,71.95 167.97,69.77 172.20,67.67"/>
</svg>