<svg width="630.0" height="630.0" viewBox="0 0 630.0 630.0" fill="none" stroke="black" stroke-width="6" stroke-linecap="round" stroke-linejoin="round" xmlns="http://www.w3.org/2000/svg">
  <circle cx="315.0" cy="315.0" r="290.0" fill="white"/>
  <polyline points="433.78,109.27 437.29,112.64 440.76,116.07 444.18,119.56 447.57,123.12 450.90,126.75 454.19,130.44 457.43,134.21 460.61,138.05 463.73,141.95 466.79,145.93 469.79,149.98 472.71,154.11 475.57,158.31 478.36,162.59 481.07,166.94 483.70,171.37 486.24,175.88 488.70,180.46 491.07,185.13 493.34,189.87 495.51,194.70 497.57,199.60 499.53,204.59 501.37,209.66 503.10,214.80 504.70,220.03 506.18,225.33 507.52,230.71 508.72,236.17 509.78,241.70 510.69,247.31 511.45,252.98 512.05,258.73 512.48,264.54 512.74,270.41 512.82,276.35 512.73,282.33 512.44,288.37 511.96,294.45 511.28,300.57 510.40,306.73 509.32,312.91 508.02,319.11 506.50,325.33 504.76,331.54 502.81,337.76 500.62,343.96 498.21,350.13 495.57,356.27 492.70,362.37 489.60,368.42 486.27,374.39 482.72,380.30 478.94,386.11 474.93,391.83 470.72,397.43 466.29,402.91 461.65,408.26 456.81,413.46 451.79,418.51 446.58,423.40 441.19,428.10 435.64,432.63 429.94,436.96 424.09,441.09 418.12,445.02 412.02,448.73 405.82,452.22 399.52,455.49 393.13,458.53 386.68,461.34 380.17,463.91 373.61,466.26 367.02,468.37 360.41,470.25 353.78,471.89 347.15,473.30 340.54,474.49 333.94,475.45 327.37,476.20 320.84,476.72 314.35,477.03 307.92,477.14 301.54,477.04 295.23,476.75 288.99,476.26 282.83,475.60 276.75,474.75 270.76,473.73 264.85,472.55 259.04,471.20 253.32,469.70 247.70,468.06 242.17,466.27 236.75,464.34 231.42,462.29 226.20,460.11 221.07,457.81 216.05,455.40 211.13,452.88 206.31,450.26 201.59,447.54 196.96,444.73 192.44,441.83 188.01,438.84 183.68,435.78 179.44,432.64 175.30,429.43 171.25,426.15 167.29,422.81 163.41,419.40 159.62,415.94 155.92,412.43 152.30,408.87 148.76,405.26 145.29,401.61 141.91,397.92 138.60,394.19 135.37,390.42 132.20,386.62 129.11,382.80 126.08,378.95 123.13,375.07 120.23,371.17 117.40,367.25 114.63,363.32 111.92,359.37 109.27,355.41 106.67,351.45 104.13,347.47 101.65,343.50 99.21,339.52 96.83,335.55 94.50,331.58 92.21,327.61 89.98,323.66 87.79,319.72 85.65,315.79 83.55,311.89 81.49,308.00 79.48,304.15 77.51,300.32 75.59,296.52 73.71,292.76 71.86,289.03 70.07,285.35 68.31,281.72 66.59,278.14 64.92,274.61 63.29,271.15 61.71,267.75 60.16,264.42 58.67,261.16 57.22,257.98 55.81,254.89 54.46,251.89 53.16,248.98 51.91,246.18 50.71,243.49 49.57,240.90 48.48,238.44 47.46,236.11 46.50,233.91 45.61,231.85 44.78,229.93 44.03,228.17 43.35,226.57 42.75,225.13 42.23,223.87 41.79,222.78 41.43,221.88 41.17,221.17 41.00,220.65 40.92,220.33"/>
  <polyline points="282.03,26.88 283.96,26.76 286.03,26.76 288.23,26.89 290.57,27.14 293.03,27.51 295.60,28.00 298.29,28.60 301.08,29.30 303.97,30.12 306.95,31.03 310.02,32.04 313.17,33.14 316.40,34.33 319.69,35.61 323.05,36.98 326.47,38.43 329.94,39.96 333.47,41.56 337.03,43.24 340.64,44.99 344.28,46.81 347.96,48.71 351.66,50.66 355.39,52.69 359.14,54.78 362.91,56.93 366.69,59.15 370.48,61.42 374.28,63.76 378.08,66.16 381.89,68.62 385.69,71.13 389.49,73.71 393.28,76.34 397.06,79.04 400.83,81.79 404.58,84.60 408.32,87.47 412.03,90.40 415.73,93.40 419.40,96.45 423.04,99.56 426.65,102.73 430.23,105.97 433.78,109.27 437.29,112.64 440.76,116.07 444.18,119.56 447.57,123.12 450.90,126.75 454.19,130.44 457.43,134.21 460.61,138.05 463.73,141.95 466.79,145.93 469.79,149.98 472.71,154.11 475.57,158.31 478.36,162.59 481.07,166.94 483.70,171.37 486.24,175.88 488.70,180.46 491.07,185.13 493.34,189.87 495.51,194.70 497.57,199.60 499.53,204.59 501.37,209.66 503.10,214.80 504.70,220.03 506.18,225.33 507.52,230.71 508.72,236.17 509.78,241.70 510.69,247.31 511.45,252.98 512.05,258.73 512.48,264.54 512.74,270.41 512.82,276.35 512.73,282.33 512.44,288.37 511.96,294.45 511.28,300.57 510.40,306.73 509.32,312.91 508.02,319.11 506.50,325.33 504.76,331.54 502.81,337.76 500.62,343.96 498.21,350.13 495.57,356.27 492.70,362.37 489.60,368.42 486.27,374.39 482.72,380.30 478.94,386.11 474.93,391.83 470.72,397.43 466.29,402.91 461.65,408.26 456.81,413.46 451.79,418.51 446.58,423.40 441.19,428.10 435.64,432.63 429.94,436.96 424.09,441.09 418.12,445.02 412.02,448.73 405.82,452.22 399.52,455.49 393.13,458.53 386.68,461.34 380.17,463.91 373.61,466.26 367.02,468.37 360.41,470.25 353.78,471.89 347.15,473.30 340.54,474.49 333.94,475.45 327.37,476.20 320.84,476.72 314.35,477.03 307.92,477.14 301.54,477.04 295.23,476.75 288.99,476.26 282.83,475.60 276.75,474.75 270.76,473.73 264.85,472.55 259.04,471.20 253.32,469.70 247.70,468.06 242.17,466.27 236.75,464.34 231.42,462.29 226.20,460.11 221.07,457.81 216.05,455.40 211.13,452.88 206.31,450.26 201.59,447.54 196.96,444.73 192.44,441.83 188.01,438.84 183.68,435.78 179.44,432.64 175.30,429.43 171.25,426.15 167.29,422.81 163.41,419.40 159.62,415.94 155.92,412.43 152.30,408.87 148.76,405.26 145.29,401.61 141.91,397.92 138.60,394.19 135.37,390.42 132.20,386.62 129.11,382.80 126.08,378.95 123.13,375.07 120.23,371.17 117.40,367.25 114.63,363.32 111.92,359.37 109.27,355.41 106.67,351.45 104.13,347.47 101.65,343.50 99.21,339.52 96.83,335.55 94.50,331.58 92.21,327.61 89.98,323.66 87.79,319.72 85.65,315.79 83.55,311.89 81.49,308.00 79.48,304.15 77.51,300.32 75.59,296.52 73.71,292.76 71.86,289.03 70.07,285.35 68.31,281.72 66.59,278.14 64.92,274.61 63.29,271.15 61.71,267.75 60.16,264.42 58.67,261.16 57.22,257.98 55.81,254.89 54.46,251.89 53.16,248.98 51.91,246.18 50.71,243.49 49.57,240.90 48.48,238.44 47.46,236.11 46.50,233.91 45.61,231.85 44.78,229.93 44.03,228.17 43.35,226.57 42.75,225.13 42.23,223.87 41.79,222.78 41.43,221.88 41.17,221.17 41.00,220.65 40.92,220.33"/>
  <polyline points="282.03,26.88 283.96,26.76 286.03,26.76 288.23,26.89 290.57,27.14 293.03,27.51 295.60,28.00 298.29,28.60 301.08,29.30 303.97,30.12 306.95,31.03 310.02,32.04 313.17,33.14 316.40,34.33 319.69,35.61 323.05,36.98 326.47,38.43 329.94,39.96 333.47,41.56 337.03,43.24 340.64,44.99 344.28,46.81 347.96,48.71 351.66,50.66 355.39,52.69 359.14,54.78 362.91,56.93 366.69,59.15 370.48,61.42 374.28,63.76 378.08,66.16 381.89,68.62 385.69,71.13 389.49,73.71 393.28,76.34 397.06,79.04 400.83,81.79 404.58,84.60 408.32,87.47 412.03,90.40 415.73,93.40 419.40,96.45 423.04,99.56 426.65,102.73 430.23,105.97 433.78,109.27"/>
</svg>