<svg width="630.0" height="630.0" viewBox="0 0 630.0 630.0" fill="none" stroke="black" stroke-width="6" stroke-linecap="round" stroke-linejoin="round" xmlns="http://www.w3.org/2000/svg">
  <circle cx="315.0" cy="315.0" r="290.0" fill="white"/>
  <polyline points="376.28,208.86 379.47,212.77 382.64,216.72 385.79,220.70 388.91,224.73 391.99,228.79 395.04,232.89 398.06,237.04 401.03,241.23 403.96,245.47 406.84,249.76 409.67,254.10 412.45,258.49 415.17,262.93 417.83,267.44 420.42,271.99 422.94,276.61 425.39,281.28 427.76,286.02 430.05,290.82 432.25,295.68 434.36,300.60 436.38,305.59 438.30,310.64 440.11,315.76 441.82,320.94 443.41,326.19 444.88,331.50 446.22,336.88 447.44,342.32 448.52,347.82 449.46,353.38 450.25,358.99 450.89,364.67 451.37,370.39 451.68,376.17 451.83,381.99 451.81,387.85 451.60,393.75 451.21,399.68 450.63,405.64 449.85,411.61 448.87,417.60 447.69,423.60 446.30,429.59 444.70,435.58 442.89,441.54 440.85,447.48 438.60,453.37 436.13,459.22 433.44,465.01 430.52,470.74 427.39,476.38 424.04,481.93 420.47,487.38 416.69,492.71 412.70,497.92 408.50,503.00 404.11,507.92 399.52,512.69 394.75,517.30 389.81,521.72 384.69,525.96 379.42,530.01 374.00,533.86 368.44,537.49 362.75,540.92 356.94,544.12 351.04,547.10 345.03,549.85 338.95,552.38 332.80,554.67 326.59,556.72 320.33,558.55 314.03,560.14 307.72,561.51 301.38,562.64 295.05,563.55 288.72,564.24 282.41,564.71 276.12,564.97 269.86,565.01 263.64,564.86 257.47,564.50 251.36,563.96 245.31,563.22 239.32,562.31 233.40,561.22 227.55,559.97 221.79,558.55 216.11,556.97 210.52,555.25 205.01,553.38 199.59,551.37 194.27,549.23 189.04,546.97 183.91,544.58 178.87,542.07 173.93,539.45 169.09,536.73 164.35,533.90 159.70,530.98 155.16,527.96 150.70,524.85 146.35,521.65 142.09,518.38 137.93,515.02 133.86,511.59 129.89,508.08 126.01,504.51 122.22,500.86 118.52,497.16 114.91,493.39 111.39,489.56 107.96,485.67 104.61,481.73 101.35,477.73 98.17,473.68 95.07,469.58 92.06,465.44 89.12,461.24 86.27,457.00 83.49,452.72 80.79,448.40 78.17,444.03 75.62,439.62 73.14,435.18 70.74,430.69 68.42,426.17 66.16,421.62 63.98,417.03 61.86,412.41 59.82,407.76 57.84,403.08 55.94,398.36 54.10,393.62 52.34,388.86 50.64,384.07 49.01,379.26 47.44,374.42 45.95,369.56 44.53,364.69 43.17,359.80 41.88,354.90 40.67,349.98 39.52,345.05 38.45,340.12 37.45,335.18 36.52,330.23 35.66,325.29 34.88,320.35 34.18,315.42 33.55,310.50 33.01,305.60 32.55,300.71 32.17,295.85 31.87,291.01 31.66,286.21 31.54,281.45 31.52,276.73 31.58,272.06 31.74,267.44 32.00,262.89 32.36,258.40 32.83,253.99 33.39,249.66 34.07,245.43 34.85,241.29 35.75,237.26 36.76,233.34"/>
  <polyline points="293.41,25.80 290.29,26.13 287.34,26.62 284.57,27.27 281.99,28.09 279.59,29.07 277.39,30.20 275.38,31.49 273.57,32.92 271.95,34.50 270.54,36.22 269.32,38.08 268.30,40.06 267.47,42.16 266.84,44.39 266.40,46.72 266.15,49.15 266.08,51.69 266.19,54.31 266.48,57.02 266.94,59.81 267.57,62.68 268.36,65.61 269.30,68.60 270.40,71.65 271.64,74.75 273.02,77.90 274.54,81.09 276.18,84.32 277.95,87.59 279.83,90.88 281.83,94.21 283.93,97.56 286.13,100.93 288.42,104.32 290.81,107.73 293.28,111.16 295.83,114.60 298.45,118.06 301.15,121.53 303.91,125.01 306.73,128.50 309.60,132.00 312.53,135.51 315.51,139.04 318.53,142.57 321.58,146.11 324.68,149.67 327.81,153.24 330.96,156.82 334.14,160.41 337.35,164.02 340.57,167.64 343.80,171.28 347.05,174.93 350.31,178.61 353.57,182.30 356.83,186.02 360.09,189.76 363.35,193.52 366.60,197.31 369.84,201.13 373.07,204.98 376.28,208.86 379.47,212.77 382.64,216.72 385.79,220.70 388.91,224.73 391.99,228.79 395.04,232.89 398.06,237.04 401.03,241.23 403.96,245.47 406.84,249.76 409.67,254.10 412.45,258.49 415.17,262.93 417.83,267.44 420.42,271.99 422.94,276.61 425.39,281.28 427.76,286.02 430.05,290.82 432.25,295.68 434.36,300.60 436.38,305.59 438.30,310.64 440.11,315.76 441.82,320.94 443.41,326.19 444.88,331.50 446.22,336.88 447.44,342.32 448.52,347.82 449.46,353.38 450.25,358.99 450.89,364.67 451.37,370.39 451.68,376.17 451.83,381.99 451.81,387.85 451.60,393.75 451.21,399.68 450.63,405.64 449.85,411.61 448.87,417.60 447.69,423.60 446.30,429.59 444.70,435.58 442.89,441.54 440.85,447.48 438.60,453.37 436.13,459.22 433.44,465.01 430.52,470.74 427.39,476.38 424.04,481.93 420.47,487.38 416.69,492.71 412.70,497.92 408.50,503.00 404.11,507.92 399.52,512.69 394.75,517.30 389.81,521.72 384.69,525.96 379.42,530.01 374.00,533.86 368.44,537.49 362.75,540.92 356.94,544.12 351.04,547.10 345.03,549.85 338.95,552.38 332.80,554.67 326.59,556.72 320.33,558.55 314.03,560.14 307.72,561.51 301.38,562.64 295.05,563.55 288.72,564.24 282.41,564.71 276.12,564.97 269.86,565.01 263.64,564.86 257.47,564.50 251.36,563.96 245.31,563.22 239.32,562.31 233.40,561.22 227.55,559.97 221.79,558.55 216.11,556.97 210.52,555.25 205.01,553.38 199.59,551.37 194.27,549.23 189.04,546.97 183.91,544.58 178.87,542.07 173.93,539.45 169.09,536.73 164.35,533.90 159.70,530.98 155.16,527.96 150.70,524.85 146.35,521.65 142.09,518.38 137.93,515.02 133.86,511.59 129.89,508.08 126.01,504.51 122.22,500.86 118.52,497.16 114.91,493.39 111.39,489.56 107.96,485.67 104.61,481.73 101.35,477.73 98.17,473.68 95.07,469.58 92.06,465.44 89.12,461.24 86.27,457.00 83.49,452.72 80.79,448.40 78.17,444.03 75.62,439.62 73.14,435.18 70.74,430.69 68.42,426.17 66.16,421.62 63.98,417.03 61.86,412.41 59.82,407.76 57.84,403.08 55.94,398.36 54.10,393.62 52.34,388.86 50.64,384.07 49.01,379.26 47.44,374.42 45.95,369.56 44.53,364.69 43.17,359.80 41.88,354.90 40.67,349.98 39.52,345.05 38.45,340.12 37.45,335.18 36.52,330.23 35.66,325.29 34.88,320.35 34.18,315.42 33.55,310.50 33.01,305.60 32.55,300.71 32.17,295.85 31.87,291.01 31.66,286.21 31.54,281.45 31.52,276.73 31.58,272.06 31.74,267.44 32.00,262.89 32.36,258.40 32.83,253.99 33.39,249.66 34.07,245.43 34.85,241.29 35.75,237.26 36.76,233.34"/>
  <polyline points="293.41,25.80 290.29,26.13 287.34,26.62 284.57,27.27 281.99,28.09 279.59,29.07 277.39,30.20 275.38,31.49 273.57,32.92 271.95,34.50 270.54,36.22 269.32,38.08 268.30,40.06 267.47,42.16 266.84,44.39 266.40,46.72 266.15,49.15 266.08,51.69 266.19,54.31 266.48,57.02 266.94,59.81 267.57,62.68 268.36,65.61 269.30,68.60 270.40,71.65 271.64,74.75 273.02,77.90 274.54,81.09 276.18,84.32 277.95,87.59 279.83,90.88 281.83,94.21 283.93,97.56 286.13,100.93 288.42,104.32 290.81,107.73 293.28,111.16 295.83,114.60 298.45,118.06 301.15,121.53 303.91,125.01 306.73,128.50 309.60,132.00 312.53,135.51 315.51,139.04 318.53,142.57 321.58,146.11 324.68,149.67 327.81,153.24 330.96,156.82 334.14,160.41 337.35,164.02 340.57,167.64 343.80,171.28 347.05,174.93 350.31,178.61 353.57,182.30 356.83,186.02 360.09,189.76 363.35,193.52 366.60,197.31 369.84,201.13 373.07,204.98 376.28,208.86"/>
</svg>