<svg width="630.0" height="630.0" viewBox="0 0 630.0 630.0" fill="none" stroke="black" stroke-width="6" stroke-linecap="round" stroke-linejoin="round" xmlns="http://www.w3.org/2000/svg">
  <circle cx="315.0" cy="315.0" r="290.0" fill="white"/>
  <polyline points="532.50,440.57 535.12,436.19 537.67,431.77 540.15,427.31 542.57,422.81 544.93,418.28 547.23,413.72 549.46,409.13 551.64,404.51 553.76,399.86 555.82,395.19 557.82,390.49 559.77,385.76 561.67,381.01 563.51,376.25 565.29,371.46 567.02,366.65 568.69,361.84 570.32,357.00 571.88,352.16 573.40,347.31 574.86,342.45 576.27,337.60 577.62,332.74 578.91,327.88 580.15,323.03 581.34,318.19 582.46,313.36 583.53,308.55 584.53,303.76 585.48,299.00 586.36,294.26 587.17,289.57 587.92,284.91 588.60,280.30 589.21,275.74 589.75,271.24 590.21,266.81 590.59,262.44 590.90,258.16 591.12,253.96 591.26,249.85 591.31,245.84 591.27,241.95 591.14,238.16 590.91,234.51 590.59,230.98 590.16,227.60 589.64,224.37 589.01,221.29 588.27,218.38 587.43,215.65"/>
  <polyline points="344.75,26.54 346.65,26.89 348.36,27.39 349.88,28.05 351.20,28.87 352.32,29.84 353.25,30.97 353.99,32.23 354.53,33.64 354.87,35.19 355.02,36.86 354.98,38.67 354.75,40.59 354.35,42.63 353.76,44.78 352.99,47.03 352.06,49.38 350.96,51.82 349.70,54.34 348.29,56.95 346.73,59.63 345.03,62.37 343.19,65.18 341.22,68.05 339.12,70.97 336.90,73.95 334.58,76.96 332.14,80.02 329.61,83.11 326.98,86.23 324.26,89.39 321.45,92.57 318.57,95.78 315.61,99.01 312.59,102.26 309.50,105.53 306.35,108.82 303.15,112.12 299.89,115.44 296.60,118.77 293.26,122.12 289.88,125.48 286.47,128.86 283.04,132.24 279.57,135.64 276.09,139.05 272.58,142.48 269.07,145.92 265.53,149.38 261.99,152.85 258.45,156.34 254.90,159.85 251.35,163.38 247.81,166.92 244.27,170.49 240.74,174.08 237.22,177.70 233.72,181.34 230.23,185.01 226.77,188.71 223.32,192.43 219.90,196.20 216.51,199.99 213.15,203.82 209.83,207.69 206.53,211.60 203.28,215.54 200.07,219.53 196.91,223.57 193.79,227.65 190.72,231.78 187.71,235.96 184.75,240.20 181.85,244.48 179.02,248.82 176.25,253.22 173.55,257.68 170.93,262.19 168.38,266.77 165.92,271.41 163.54,276.12 161.25,280.89 159.05,285.72 156.95,290.62 154.96,295.59 153.07,300.63 151.29,305.74 149.63,310.92 148.09,316.16 146.67,321.48 145.39,326.86 144.25,332.30 143.25,337.82 142.39,343.40 141.69,349.04 141.15,354.74 140.77,360.50 140.57,366.31 140.54,372.17 140.69,378.08 141.03,384.03 141.55,390.02 142.28,396.03 143.21,402.08 144.34,408.14 145.69,414.21 147.25,420.29 149.03,426.36 151.03,432.42 153.25,438.45 155.70,444.46 158.38,450.42 161.28,456.33 164.41,462.17 167.77,467.94 171.35,473.62 175.15,479.20 179.17,484.68 183.41,490.04 187.85,495.26 192.50,500.34 197.34,505.27 202.37,510.04 207.58,514.63 212.96,519.04 218.50,523.26 224.20,527.28 230.03,531.10 235.99,534.70 242.06,538.08 248.25,541.24 254.52,544.18 260.87,546.88 267.29,549.36 273.77,551.60 280.29,553.61 286.84,555.38 293.41,556.92 299.99,558.24 306.57,559.33 313.14,560.19 319.69,560.83 326.21,561.26 332.68,561.47 339.12,561.48 345.50,561.29 351.82,560.90 358.07,560.33 364.25,559.57 370.35,558.63 376.37,557.52 382.30,556.24 388.15,554.81 393.90,553.22 399.56,551.48 405.12,549.61 410.58,547.59 415.95,545.45 421.21,543.18 426.37,540.78 431.43,538.28 436.38,535.66 441.24,532.94 445.99,530.12 450.64,527.20 455.19,524.19 459.65,521.09 464.00,517.90 468.25,514.63 472.41,511.29 476.48,507.86 480.45,504.37 484.33,500.81 488.11,497.18 491.81,493.48 495.42,489.73 498.95,485.91 502.39,482.04 505.75,478.11 509.02,474.13 512.22,470.10 515.34,466.02 518.38,461.89 521.35,457.71 524.24,453.49 527.06,449.23 529.82,444.92 532.50,440.57 535.12,436.19 537.67,431.77 540.15,427.31 542.57,422.81 544.93,418.28 547.23,413.72 549.46,409.13 551.64,404.51 553.76,399.86 555.82,395.19 557.82,390.49 559.77,385.76 561.67,381.01 563.51,376.25 565.29,371.46 567.02,366.65 568.69,361.84 570.32,357.00 571.88,352.16 573.40,347.31 574.86,342.45 576.27,337.60 577.62,332.74 578.91,327.88 580.15,323.03 581.34,318.19 582.46,313.36 583.53,308.55 584.53,303.76 585.48,299.00 586.36,294.26 587.17,289.57 587.92,284.91 588.60,280.30 589.21,275.74 589.75,271.24 590.21,266.81 590.59,262.44 590.90,258.16 591.12,253.96 591.26,249.85 591.31,245.84 591.27,241.95 591.14,238.16 590.91,234.51 590.59,230.98 590.16,227.60 589.64,224.37 589.01,221.29 588.27,218.38 587.43,215.65"/>
  <polyline points="344.75,26.54 346.65,26.89 348.36,27.39 349.88,28.05 351.20,28.87 352.32,29.84 353.25,30.97 353.99,32.23 354.53,33.64 354.87,35.19 355.02,36.86 354.98,38.67 354.75,40.59 354.35,42.63 353.76,44.78 352.99,47.03 352.06,49.38 350.96,51.82 349.70,54.34 348.29,56.95 346.73,59.63 345.03,62.37 343.19,65.18 341.22,68.05 339.12,70.97 336.90,73.95 334.58,76.96 332.14,80.02 329.61,83.11 326.98,86.23 324.26,89.39 321.45,92.57 318.57,95.78 315.61,99.01 312.59,102.26 309.50,105.53 306.35,108.82 303.15,112.12 299.89,115.44 296.60,118.77 293.26,122.12 289.88,125.48 286.47,128.86 283.04,132.24 279.57,135.64 276.09,139.05 272.58,142.48 269.07,145.92 265.53,149.38 261.99,152.85 258.45,156.34 254.90,159.85 251.35,163.38 247.81,166.92 244.27,170.49 240.74,174.08 237.22,177.70 233.72,181.34 230.23,185.01 226.77,188.71 223.32,192.43 219.90,196.20 216.51,199.99 213.15,203.82 209.83,207.69 206.53,211.60 203.28,215.54 200.07,219.53 196.91,223.57 193.79,227.65 190.72,231.78 187.71,235.96 184.75,240.20 181.85,244.48 179.02,248.82 176.25,253.22 173.55,257.68 170.93,262.19 168.38,266.77 165.92,271.41 163.54,276.12 161.25,280.89 159.05,285.72 156.95,290.62 154.96,295.59 153.07,300.63 151.29,305.74 149.63,310.92 148.09,316.16 146.67,321.48 145.39,326.86 144.25,332.30 143.25,337.82 142.39,343.40 141.69,349.04 141.15,354.74 140.77,360.50 140.57,366.31 140.54,372.17 140.69,378.08 141.03,384.03 141.55,390.02 142.28,396.03 143.21,402.08 144.34,408.14 145.69,414.21 147.25,420.29 149.03,426.36 151.03,432.42 153.25,438.45 155.70,444.46 158.38,450.42 161.28,456.33 164.41,462.17 167.77,467.94 171.35,473.62 175.15,479.20 179.17,484.68 183.41,490.04 187.85,495.26 192.50,500.34 197.34,505.27 202.37,510.04 207.58,514.63 212.96,519.04 218.50,523.26 224.20,527.28 230.03,531.10 235.99,534.70 242.06,538.08 248.25,541.24 254.52,544.18 260.87,546.88 267.29,549.36 273.77,551.60 280.29,553.61 286.84,555.38 293.41,556.92 299.99,558.24 306.57,559.33 313.14,560.19 319.69,560.83 326.21,561.26 332.68,561.47 339.12,561.48 345.50,561.29 351.82,560.90 358.07,560.33 364.25,559.57 370.35,558.63 376.37,557.52 382.30,556.24 388.15,554.81 393.90,553.22 399.56,551.48 405.12,549.61 410.58,547.59 415.95,545.45 421.21,543.18 426.37,540.78 431.43,538.28 436.38,535.66 441.24,532.94 445.99,530.12 450.64,527.20 455.19,524.19 459.65,521.09 464.00,517.90 468.25,514.63 472.41,511.29 476.48,507.86 480.45,504.37 484.33,500.81 488.11,497.18 491.81,493.48 495.42,489.73 498.95,485.91 502.39,482.04 505.75,478.11 509.02,474.13 512.22,470.10 515.34,466.02 518.38,461.89 521.35,457.71 524.24,453.49 527.06,449.23 529.82,444.92 532.50,440.57"/>
</svg>