<svg width="630.0" height="630.0" viewBox="0 0 630.0 630.0" fill="none" stroke="black" stroke-width="6" stroke-linecap="round" stroke-linejoin="round" xmlns="http://www.w3.org/2000/svg">
  <circle cx="315.0" cy="315.0" r="290.0" fill="white"/>
  <polyline points="183.59,87.38 188.11,85.77 192.67,84.24 197.27,82.78 201.91,81.39 206.59,80.09 211.30,78.86 216.06,77.72 220.84,76.67 225.66,75.71 230.52,74.84 235.41,74.06 240.33,73.38 245.28,72.80 250.26,72.33 255.26,71.95 260.30,71.69 265.36,71.54 270.45,71.51 275.56,71.60 280.69,71.81 285.84,72.14 291.00,72.60 296.18,73.20 301.37,73.93 306.57,74.81 311.78,75.82 316.99,76.99 322.20,78.30 327.40,79.78 332.60,81.41 337.78,83.20 342.95,85.16 348.10,87.29 353.21,89.60 358.30,92.08 363.34,94.74 368.34,97.58 373.29,100.61 378.18,103.82 383.00,107.23 387.74,110.82 392.41,114.60 396.99,118.58 401.46,122.75 405.84,127.11 410.09,131.66 414.22,136.39 418.22,141.32 422.07,146.42 425.77,151.70 429.31,157.16 432.68,162.78 435.87,168.57 438.88,174.50 441.69,180.59 444.29,186.81 446.69,193.15 448.88,199.62 450.84,206.19 452.57,212.85 454.08,219.60 455.35,226.42 456.38,233.29 457.18,240.21 457.73,247.17 458.04,254.14 458.12,261.11 457.95,268.08 457.55,275.03 456.92,281.95 456.05,288.82 454.96,295.63 453.66,302.38 452.13,309.05 450.40,315.63 448.47,322.12 446.34,328.50 444.03,334.76 441.53,340.91 438.87,346.92 436.04,352.81 433.05,358.56 429.91,364.17 426.64,369.63 423.23,374.95 419.69,380.11 416.04,385.12 412.28,389.98 408.41,394.69 404.45,399.25 400.40,403.65 396.27,407.90 392.06,411.99 387.78,415.94 383.44,419.74 379.04,423.40 374.58,426.91 370.08,430.27 365.53,433.51 360.94,436.60 356.31,439.56 351.66,442.40 346.98,445.10 342.27,447.68 337.54,450.15 332.79,452.49 328.03,454.73 323.26,456.85 318.48,458.87 313.69,460.78 308.90,462.59 304.11,464.31 299.31,465.94 294.52,467.47 289.74,468.93 284.96,470.29 280.18,471.58 275.42,472.79 270.67,473.93 265.93,475.00 261.21,476.01 256.50,476.95 251.81,477.83 247.14,478.65 242.50,479.42 237.87,480.14 233.27,480.81 228.69,481.43 224.14,482.01 219.62,482.56 215.13,483.06 210.68,483.54 206.25,483.98 201.87,484.39 197.52,484.78 193.21,485.14 188.95,485.49 184.72,485.82 180.55,486.13 176.43,486.43 172.36,486.72 168.34,487.00 164.38,487.28 160.49,487.55 156.65,487.83 152.89,488.10 149.20,488.38 145.58,488.67 142.04,488.97 138.59,489.27 135.23,489.59 131.95,489.93 128.78,490.28 125.71,490.65 122.74,491.04 119.90,491.45 117.17,491.88 114.56,492.34 112.09,492.83 109.75,493.34 107.56,493.88 105.52,494.45 103.64,495.05 101.92,495.68 100.37,496.35 99.00,497.04 97.81,497.76 96.82,498.52 96.02,499.30 95.42,500.12 95.04,500.97 94.87,501.84 94.92,502.74 95.19,503.67 95.70,504.63 96.44,505.61"/>
  <polyline points="56.76,183.05 58.30,180.18 59.99,177.30 61.83,174.40 63.80,171.50 65.91,168.60 68.15,165.69 70.51,162.79 72.98,159.89 75.57,157.00 78.27,154.13 81.06,151.27 83.96,148.42 86.95,145.60 90.02,142.80 93.19,140.02 96.44,137.26 99.76,134.54 103.16,131.85 106.63,129.19 110.18,126.56 113.79,123.97 117.46,121.42 121.20,118.91 125.00,116.44 128.86,114.02 132.77,111.64 136.74,109.32 140.76,107.04 144.83,104.81 148.95,102.63 153.12,100.52 157.34,98.45 161.60,96.45 165.91,94.51 170.27,92.63 174.66,90.81 179.10,89.06 183.59,87.38 188.11,85.77 192.67,84.24 197.27,82.78 201.91,81.39 206.59,80.09 211.30,78.86 216.06,77.72 220.84,76.67 225.66,75.71 230.52,74.84 235.41,74.06 240.33,73.38 245.28,72.80 250.26,72.33 255.26,71.95 260.30,71.69 265.36,71.54 270.45,71.51 275.56,71.60 280.69,71.81 285.84,72.14 291.00,72.60 296.18,73.20 301.37,73.93 306.57,74.81 311.78,75.82 316.99,76.99 322.20,78.30 327.40,79.78 332.60,81.41 337.78,83.20 342.95,85.16 348.10,87.29 353.21,89.60 358.30,92.08 363.34,94.74 368.34,97.58 373.29,100.61 378.18,103.82 383.00,107.23 387.74,110.82 392.41,114.60 396.99,118.58 401.46,122.75 405.84,127.11 410.09,131.66 414.22,136.39 418.22,141.32 422.07,146.42 425.77,151.70 429.31,157.16 432.68,162.78 435.87,168.57 438.88,174.50 441.69,180.59 444.29,186.81 446.69,193.15 448.88,199.62 450.84,206.19 452.57,212.85 454.08,219.60 455.35,226.42 456.38,233.29 457.18,240.21 457.73,247.17 458.04,254.14 458.12,261.11 457.95,268.08 457.55,275.03 456.92,281.95 456.05,288.82 454.96,295.63 453.66,302.38 452.13,309.05 450.40,315.63 448.47,322.12 446.34,328.50 444.03,334.76 441.53,340.91 438.87,346.92 436.04,352.81 433.05,358.56 429.91,364.17 426.64,369.63 423.23,374.95 419.69,380.11 416.04,385.12 412.28,389.98 408.41,394.69 404.45,399.25 400.40,403.65 396.27,407.90 392.06,411.99 387.78,415.94 383.44,419.74 379.04,423.40 374.58,426.91 370.08,430.27 365.53,433.51 360.94,436.60 356.31,439.56 351.66,442.40 346.98,445.10 342.27,447.68 337.54,450.15 332.79,452.49 328.03,454.73 323.26,456.85 318.48,458.87 313.69,460.78 308.90,462.59 304.11,464.31 299.31,465.94 294.52,467.47 289.74,468.93 284.96,470.29 280.18,471.58 275.42,472.79 270.67,473.93 265.93,475.00 261.21,476.01 256.50,476.95 251.81,477.83 247.14,478.65 242.50,479.42 237.87,480.14 233.27,480.81 228.69,481.43 224.14,482.01 219.62,482.56 215.13,483.06 210.68,483.54 206.25,483.98 201.87,484.39 197.52,484.78 193.21,485.14 188.95,485.49 184.72,485.82 180.55,486.13 176.43,486.43 172.36,486.72 168.34,487.00 164.38,487.28 160.49,487.55 156.65,487.83 152.89,488.10 149.20,488.38 145.58,488.67 142.04,488.97 138.59,489.27 135.23,489.59 131.95,489.93 128.78,490.28 125.71,490.65 122.74,491.04 119.90,491.45 117.17,491.88 114.56,492.34 112.09,492.83 109.75,493.34 107.56,493.88 105.52,494.45 103.64,495.05 101.92,495.68 100.37,496.35 99.00,497.04 97.81,497.76 96.82,498.52 96.02,499.30 95.42,500.12 95.04,500.97 94.87,501.84 94.92,502.74 95.19,503.67 95.70,504.63 96.44,505.61"/>
  <polyline points="56.76,183.05 58.30,180.18 59.99,177.30 61.83,174.40 63.80,171.50 65.91,168.60 68.15,165.69 70.51,162.79 72.98,159.89 75.57,157.00 78.27,154.13 81.06,151.27 83.96,148.42 86.95,145.60 90.02,142.80 93.19,140.02 96.44,137.26 99.76,134.54 103.16,131.85 106.63,129.19 110.18,126.56 113.79,123.97 117.46,121.42 121.20,118.91 125.00,116.44 128.86,114.02 132.77,111.64 136.74,109.32 140.76,107.04 144.83,104.81 148.95,102.63 153.12,100.52 157.34,98.45 161.60,96.45 165.91,94.51 170.27,92.63 174.66,90.81 179.10,89.06 183.59,87.38"/>
</svg>