<svg width="630.0" height="630.0" viewBox="0 0 630.0 630.0" fill="none" stroke="black" stroke-width="6" stroke-linecap="round" stroke-linejoin="round" xmlns="http://www.w3.org/2000/svg">
  <circle cx="315.0" cy="315.0" r="290.0" fill="white"/>
  <polyline points="398.17,433.78 402.99,432.44 407.80,431.07 412.57,429.66 417.32,428.23 422.04,426.78 426.74,425.31 431.42,423.82 436.07,422.31 440.69,420.80 445.29,419.28 449.86,417.75 454.41,416.22 458.93,414.70 463.43,413.18 467.89,411.67 472.33,410.18 476.73,408.70 481.11,407.24 485.45,405.81 489.76,404.40 494.04,403.02 498.27,401.67 502.47,400.37 506.63,399.10 510.74,397.88 514.80,396.71 518.81,395.59 522.77,394.53 526.67,393.52 530.51,392.59 534.29,391.71 538.00,390.91 541.63,390.19 545.18,389.55 548.65,388.98 552.02,388.51 555.30,388.12 558.48,387.83 561.55,387.64 564.51,387.54 567.34,387.55 570.04,387.67 572.61,387.90 575.04,388.23 577.31,388.68 579.43,389.25 581.39,389.94 583.17,390.74 584.78,391.67 586.20,392.71 587.43,393.88 588.46,395.17 589.29,396.58 589.91,398.10 590.32,399.75 590.52,401.52 590.50,403.40 590.26,405.39 589.79,407.49"/>
  <polyline points="509.62,100.04 506.93,97.80 504.07,95.61 501.05,93.46 497.87,91.35 494.56,89.29 491.11,87.28 487.54,85.32 483.84,83.41 480.04,81.56 476.12,79.75 472.11,77.99 468.01,76.29 463.82,74.65 459.56,73.05 455.22,71.51 450.81,70.03 446.34,68.60 441.81,67.23 437.22,65.92 432.59,64.66 427.91,63.46 423.19,62.32 418.43,61.23 413.64,60.21 408.82,59.25 403.96,58.34 399.09,57.50 394.19,56.71 389.26,55.99 384.32,55.34 379.36,54.74 374.39,54.21 369.40,53.75 364.41,53.35 359.40,53.02 354.38,52.76 349.35,52.57 344.32,52.45 339.29,52.40 334.25,52.42 329.21,52.51 324.16,52.69 319.11,52.93 314.07,53.26 309.02,53.67 303.98,54.15 298.94,54.72 293.90,55.38 288.87,56.12 283.85,56.95 278.83,57.86 273.82,58.87 268.81,59.98 263.82,61.17 258.84,62.47 253.87,63.86 248.91,65.36 243.97,66.96 239.05,68.67 234.15,70.48 229.27,72.40 224.41,74.44 219.57,76.59 214.77,78.86 209.99,81.25 205.25,83.76 200.54,86.40 195.87,89.16 191.24,92.05 186.66,95.07 182.13,98.22 177.65,101.51 173.23,104.94 168.87,108.50 164.58,112.21 160.36,116.06 156.22,120.05 152.17,124.18 148.20,128.46 144.33,132.89 140.57,137.46 136.91,142.17 133.37,147.04 129.95,152.04 126.67,157.19 123.52,162.48 120.53,167.90 117.68,173.47 115.00,179.16 112.49,184.98 110.16,190.92 108.01,196.98 106.06,203.15 104.31,209.42 102.77,215.79 101.44,222.25 100.34,228.78 99.46,235.39 98.81,242.05 98.41,248.76 98.24,255.51 98.32,262.28 98.64,269.07 99.21,275.86 100.04,282.64 101.11,289.39 102.43,296.11 103.99,302.77 105.79,309.38 107.84,315.91 110.12,322.35 112.63,328.70 115.36,334.93 118.30,341.05 121.45,347.04 124.81,352.89 128.35,358.59 132.08,364.14 135.98,369.52 140.04,374.73 144.26,379.77 148.62,384.64 153.12,389.31 157.74,393.81 162.47,398.11 167.31,402.22 172.25,406.15 177.27,409.88 182.37,413.42 187.55,416.76 192.78,419.92 198.07,422.90 203.40,425.68 208.77,428.29 214.18,430.71 219.61,432.96 225.07,435.03 230.54,436.93 236.02,438.67 241.51,440.25 247.00,441.67 252.49,442.93 257.98,444.05 263.46,445.03 268.93,445.86 274.38,446.56 279.82,447.12 285.24,447.56 290.64,447.88 296.02,448.08 301.38,448.17 306.71,448.15 312.02,448.03 317.31,447.80 322.56,447.48 327.80,447.06 333.00,446.56 338.18,445.98 343.33,445.31 348.45,444.57 353.54,443.76 358.61,442.87 363.65,441.92 368.66,440.92 373.65,439.85 378.60,438.73 383.53,437.56 388.44,436.34 393.32,435.08 398.17,433.78 402.99,432.44 407.80,431.07 412.57,429.66 417.32,428.23 422.04,426.78 426.74,425.31 431.42,423.82 436.07,422.31 440.69,420.80 445.29,419.28 449.86,417.75 454.41,416.22 458.93,414.70 463.43,413.18 467.89,411.67 472.33,410.18 476.73,408.70 481.11,407.24 485.45,405.81 489.76,404.40 494.04,403.02 498.27,401.67 502.47,400.37 506.63,399.10 510.74,397.88 514.80,396.71 518.81,395.59 522.77,394.53 526.67,393.52 530.51,392.59 534.29,391.71 538.00,390.91 541.63,390.19 545.18,389.55 548.65,388.98 552.02,388.51 555.30,388.12 558.48,387.83 561.55,387.64 564.51,387.54 567.34,387.55 570.04,387.67 572.61,387.90 575.04,388.23 577.31,388.68 579.43,389.25 581.39,389.94 583.17,390.74 584.78,391.67 586.20,392.71 587.43,393.88 588.46,395.17 589.29,396.58 589.91,398.10 590.32,399.75 590.52,401.52 590.50,403.40 590.26,405.39 589.79,407.49"/>
  <polyline points="509.62,100.04 506.93,97.80 504.07,95.61 501.05,93.46 497.87,91.35 494.56,89.29 491.11,87.28 487.54,85.32 483.84,83.41 480.04,81.56 476.12,79.75 472.11,77.99 468.01,76.29 463.82,74.65 459.56,73.05 455.22,71.51 450.81,70.03 446.34,68.60 441.81,67.23 437.22,65.92 432.59,64.66 427.91,63.46 423.19,62.32 418.43,61.23 413.64,60.21 408.82,59.25 403.96,58.34 399.09,57.50 394.19,56.71 389.26,55.99 384.32,55.34 379.36,54.74 374.39,54.21 369.40,53.75 364.41,53.35 359.40,53.02 354.38,52.76 349.35,52.57 344.32,52.45 339.29,52.40 334.25,52.42 329.21,52.51 324.16,52.69 319.11,52.93 314.07,53.26 309.02,53.67 303.98,54.15 298.94,54.72 293.90,55.38 288.87,56.12 283.85,56.95 278.83,57.86 273.82,58.87 268.81,59.98 263.82,61.17 258.84,62.47 253.87,63.86 248.91,65.36 243.97,66.96 239.05,68.67 234.15,70.48 229.27,72.40 224.41,74.44 219.57,76.59 214.77,78.86 209.99,81.25 205.25,83.76 200.54,86.40 195.87,89.16 191.24,92.05 186.66,95.07 182.13,98.22 177.65,101.51 173.23,104.94 168.87,108.50 164.58,112.21 160.36,116.06 156.22,120.05 152.17,124.18 148.20,128.46 144.33,132.89 140.57,137.46 136.91,142.17 133.37,147.04 129.95,152.04 126.67,157.19 123.52,162.48 120.53,167.90 117.68,173.47 115.00,179.16 112.49,184.98 110.16,190.92 108.01,196.98 106.06,203.15 104.31,209.42 102.77,215.79 101.44,222.25 100.34,228.78 99.46,235.39 98.81,242.05 98.41,248.76 98.24,255.51 98.32,262.28 98.64,269.07 99.21,275.86 100.04,282.64 101.11,289.39 102.43,296.11 103.99,302.77 105.79,309.38 107.84,315.91 110.12,322.35 112.63,328.70 115.36,334.93 118.30,341.05 121.45,347.04 124.81,352.89 128.35,358.59 132.08,364.14 135.98,369.52 140.04,374.73 144.26,379.77 148.62,384.64 153.12,389.31 157.74,393.81 162.47,398.11 167.31,402.22 172.25,406.15 177.27,409.88 182.37,413.42 187.55,416.76 192.78,419.92 198.07,422.90 203.40,425.68 208.77,428.29 214.18,430.71 219.61,432.96 225.07,435.03 230.54,436.93 236.02,438.67 241.51,440.25 247.00,441.67 252.49,442.93 257.98,444.05 263.46,445.03 268.93,445.86 274.38,446.56 279.82,447.12 285.24,447.56 290.64,447.88 296.02,448.08 301.38,448.17 306.71,448.15 312.02,448.03 317.31,447.80 322.56,447.48 327.80,447.06 333.00,446.56 338.18,445.98 343.33,445.31 348.45,444.57 353.54,443.76 358.61,442.87 363.65,441.92 368.66,440.92 373.65,439.85 378.60,438.73 383.53,437.56 388.44,436.34 393.32,435.08 398.17,433.78"/>
</svg>