<svg width="630.0" height="630.0" viewBox="0 0 630.0 630.0" xmlns="http://www.w3.org/2000/svg">
<circle cx="315.0" cy="315.0" r="290.0" fill="#fff" stroke="#000" stroke-width="6"/>
<polyline points="590.81,404.57 591.40,402.42 591.90,400.08 592.31,397.56 592.64,394.85 592.88,391.94 593.03,388.85 593.07,385.56 593.02,382.07 592.87,378.40 592.61,374.53 592.25,370.47 591.77,366.23 591.19,361.80 590.49,357.19 589.68,352.40 588.76,347.45 587.72,342.33 586.57,337.05 585.30,331.63 583.92,326.07 582.42,320.38 580.82,314.56 579.10,308.64 577.28,302.61 575.36,296.50 573.34,290.31 571.23,284.06 569.02,277.75 566.73,271.40 564.36,265.02 561.91,258.63 559.39,252.22 556.81,245.83 554.17,239.45 551.48,233.09 548.74,226.78 545.96,220.50 543.14,214.29 540.30,208.14 537.43,202.06 534.54,196.07 531.64,190.16 528.73,184.34 525.81,178.62 522.89,173.00 519.98,167.50 517.07,162.10 514.18,156.82 511.29,151.66 508.43,146.61 505.58,141.69 502.75,136.90 499.94,132.23 497.15,127.68 494.39,123.26 491.65,118.97 488.94,114.80 486.25,110.76 483.59,106.84 480.95,103.05 478.34,99.38 475.75,95.84 473.19,92.41 470.65,89.10 468.12,85.92 465.62,82.84 463.14,79.89 460.67,77.05 458.22,74.32 455.78,71.70 453.35,69.18 450.93,66.78 448.52,64.48 446.11,62.28 443.71,60.19 441.31,58.20 438.90,56.30 436.49,54.51 434.07,52.81 431.65,51.20 429.21,49.69 426.76,48.26 424.29,46.93 421.80,45.69 419.29,44.54 416.75,43.47 414.19,42.49" fill="none" stroke="#000" stroke-width="6" stroke-linecap="round"/>
<polyline points="45.38,208.26 44.80,210.11 44.38,211.87 44.13,213.55 44.04,215.14 44.10,216.65 44.32,218.09 44.68,219.44 45.19,220.72 45.83,221.93 46.60,223.07 47.51,224.14 48.54,225.15 49.70,226.10 50.97,226.99 52.36,227.82 53.86,228.60 55.46,229.34 57.17,230.03 58.99,230.67 60.90,231.28 62.90,231.86 65.00,232.40 67.20,232.91 69.47,233.40 71.84,233.86 74.29,234.31 76.82,234.74 79.43,235.16 82.12,235.58 84.89,235.99 87.73,236.40 90.64,236.81 93.62,237.22 96.68,237.65 99.80,238.09 102.99,238.54 106.24,239.02 109.57,239.52 112.95,240.04 116.40,240.60 119.91,241.19 123.47,241.82 127.10,242.49 130.79,243.21 134.53,243.98 138.33,244.79 142.19,245.67 146.10,246.60 150.06,247.60 154.07,248.67 158.14,249.80 162.25,251.02 166.41,252.31 170.62,253.68 174.88,255.14 179.18,256.70 183.52,258.34 187.90,260.09 192.32,261.93 196.78,263.89 201.27,265.95 205.80,268.12 210.36,270.41 214.94,272.82 219.55,275.36 224.18,278.02 228.83,280.81 233.49,283.73 238.17,286.78 242.85,289.98 247.54,293.31 252.22,296.78 256.90,300.40 261.57,304.16 266.22,308.06 270.85,312.11 275.45,316.30 280.02,320.64 284.54,325.12 289.02,329.74 293.44,334.50 297.80,339.39 302.09,344.42 306.30,349.57 310.42,354.85 314.46,360.24 318.38,365.74 322.20,371.35 325.90,377.05 329.48,382.85 332.92,388.72 336.22,394.66 339.36,400.66 342.36,406.71 345.18,412.79 347.84,418.91 350.32,425.04 352.62,431.18 354.73,437.31 356.65,443.42 358.38,449.50 359.91,455.55 361.24,461.53 362.37,467.46 363.30,473.31 364.02,479.08 364.55,484.76 364.87,490.33 364.99,495.80 364.92,501.15 364.66,506.37 364.20,511.46 363.56,516.42 362.74,521.24 361.74,525.91 360.57,530.43 359.24,534.79 357.74,539.01 356.09,543.07 354.29,546.96 352.35,550.71 350.28,554.29 348.07,557.71 345.74,560.98 343.29,564.08 340.74,567.04 338.07,569.83 335.31,572.48 332.46,574.97 329.51,577.31 326.49,579.51 323.39,581.56 320.22,583.47 316.98,585.24 313.68,586.87 310.33,588.37 306.92,589.73 303.46,590.97 299.97,592.08 296.43,593.06 292.86,593.92 289.26,594.66 285.63,595.29 281.98,595.79 278.31,596.19 274.62,596.48 270.92,596.65 267.21,596.73 263.50,596.69 259.77,596.56 256.05,596.32 252.33,595.98 248.61,595.55 244.90,595.02 241.21,594.40 237.52,593.68 233.85,592.88 230.20,591.98 226.56,590.99 222.95,589.92 219.37,588.76 215.81,587.51" fill="none" stroke="#000" stroke-width="6" stroke-linecap="round"/>
<polyline points="590.81,404.57 591.40,402.42 591.90,400.08 592.31,397.56 592.64,394.85 592.88,391.94 593.03,388.85 593.07,385.56 593.02,382.07 592.87,378.40 592.61,374.53 592.25,370.47 591.77,366.23 591.19,361.80 590.49,357.19 589.68,352.40 588.76,347.45 587.72,342.33 586.57,337.05 585.30,331.63 583.92,326.07 582.42,320.38 580.82,314.56 579.10,308.64 577.28,302.61 575.36,296.50 573.34,290.31 571.23,284.06 569.02,277.75 566.73,271.40 564.36,265.02 561.91,258.63 559.39,252.22 556.81,245.83 554.17,239.45 551.48,233.09 548.74,226.78 545.96,220.50 543.14,214.29 540.30,208.14 537.43,202.06 534.54,196.07 531.64,190.16 528.73,184.34 525.81,178.62 522.89,173.00 519.98,167.50 517.07,162.10 514.18,156.82 511.29,151.66 508.43,146.61 505.58,141.69 502.75,136.90 499.94,132.23 497.15,127.68 494.39,123.26 491.65,118.97 488.94,114.80 486.25,110.76 483.59,106.84 480.95,103.05 478.34,99.38 475.75,95.84 473.19,92.41 470.65,89.10 468.12,85.92 465.62,82.84 463.14,79.89 460.67,77.05 458.22,74.32 455.78,71.70 453.35,69.18 450.93,66.78 448.52,64.48 446.11,62.28 443.71,60.19 441.31,58.20 438.90,56.30 436.49,54.51 434.07,52.81 431.65,51.20 429.21,49.69 426.76,48.26 424.29,46.93 421.80,45.69 419.29,44.54 416.75,43.47 414.19,42.49" fill="none" stroke="#000" stroke-width="6" stroke-linecap="round"/>
<polyline points="45.38,208.26 44.80,210.11 44.38,211.87 44.13,213.55 44.04,215.14 44.10,216.65 44.32,218.09 44.68,219.44 45.19,220.72 45.83,221.93 46.60,223.07 47.51,224.14 48.54,225.15 49.70,226.10 50.97,226.99 52.36,227.82 53.86,228.60 55.46,229.34 57.17,230.03 58.99,230.67 60.90,231.28 62.90,231.86 65.00,232.40 67.20,232.91 69.47,233.40 71.84,233.86 74.29,234.31 76.82,234.74 79.43,235.16 82.12,235.58 84.89,235.99 87.73,236.40 90.64,236.81 93.62,237.22 96.68,237.65 99.80,238.09 102.99,238.54 106.24,239.02 109.57,239.52 112.95,240.04 116.40,240.60 119.91,241.19 123.47,241.82 127.10,242.49 130.79,243.21 134.53,243.98 138.33,244.79 142.19,245.67 146.10,246.60 150.06,247.60 154.07,248.67 158.14,249.80 162.25,251.02 166.41,252.31 170.62,253.68 174.88,255.14 179.18,256.70 183.52,258.34 187.90,260.09 192.32,261.93 196.78,263.89 201.27,265.95 205.80,268.12 210.36,270.41 214.94,272.82 219.55,275.36 224.18,278.02 228.83,280.81 233.49,283.73 238.17,286.78 242.85,289.98 247.54,293.31 252.22,296.78 256.90,300.40 261.57,304.16 266.22,308.06 270.85,312.11 275.45,316.30 280.02,320.64 284.54,325.12 289.02,329.74 293.44,334.50 297.80,339.39 302.09,344.42 306.30,349.57 310.42,354.85 314.46,360.24 318.38,365.74 322.20,371.35 325.90,377.05 329.48,382.85 332.92,388.72 336.22,394.66 339.36,400.66 342.36,406.71 345.18,412.79 347.84,418.91 350.32,425.04 352.62,431.18 354.73,437.31 356.65,443.42 358.38,449.50 359.91,455.55 361.24,461.53 362.37,467.46 363.30,473.31 364.02,479.08 364.55,484.76 364.87,490.33 364.99,495.80 364.92,501.15 364.66,506.37 364.20,511.46 363.56,516.42 362.74,521.24 361.74,525.91 360.57,530.43 359.24,534.79 357.74,539.01 356.09,543.07 354.29,546.96 352.35,550.71 350.28,554.29 348.07,557.71 345.74,560.98 343.29,564.08 340.74,567.04 338.07,569.83 335.31,572.48 332.46,574.97 329.51,577.31 326.49,579.51 323.39,581.56 320.22,583.47 316.98,585.24 313.68,586.87 310.33,588.37 306.92,589.73 303.46,590.97 299.97,592.08 296.43,593.06 292.86,593.92 289.26,594.66 285.63,595.29 281.98,595.79 278.31,596.19 274.62,596.48 270.92,596.65 267.21,596.73 263.50,596.69 259.77,596.56 256.05,596.32 252.33,595.98 248.61,595.55 244.90,595.02 241.21,594.40 237.52,593.68 233.85,592.88 230.20,591.98 226.56,590.99 222.95,589.92 219.37,588.76 215.81,587.51" fill="none" stroke="#000" stroke-width="6" stroke-linecap="round"/>
</svg>