<svg width="630.0" height="630.0" viewBox="0 0 630.0 630.0" fill="none" stroke="black" stroke-width="6" stroke-linecap="round" stroke-linejoin="round" xmlns="http://www.w3.org/2000/svg">
  <circle cx="315.0" cy="315.0" r="290.0" fill="white"/>
  <polyline points="246.56,33.24 247.67,33.14 248.70,33.19 249.64,33.39 250.50,33.75 251.26,34.27 251.92,34.95 252.49,35.80 252.95,36.83 253.30,38.03 253.54,39.41 253.66,40.97 253.67,42.71 253.55,44.65 253.32,46.77 252.95,49.08 252.46,51.59 251.85,54.29 251.10,57.18 250.22,60.26 249.21,63.53 248.07,66.99 246.80,70.63 245.39,74.45 243.86,78.45 242.21,82.62 240.43,86.95 238.52,91.44 236.50,96.08 234.36,100.87 232.12,105.78 229.76,110.82 227.30,115.98 224.75,121.23 222.10,126.59 219.37,132.02 216.55,137.53 213.66,143.10 210.69,148.72 207.66,154.38 204.58,160.07 201.44,165.77 198.25,171.49 195.02,177.20 191.75,182.91 188.46,188.59 185.14,194.25 181.80,199.87 178.44,205.45 175.07,210.98 171.70,216.45 168.33,221.87 164.96,227.21 161.59,232.49 158.24,237.68 154.90,242.81 151.57,247.85 148.27,252.80 144.99,257.67 141.74,262.46 138.52,267.15 135.32,271.76 132.16,276.27 129.04,280.70 125.96,285.04 122.91,289.29 119.91,293.45 116.95,297.53 114.04,301.52 111.17,305.43 108.35,309.26 105.59,313.01 102.87,316.68 100.20,320.28 97.59,323.80 95.04,327.25 92.54,330.64 90.10,333.95 87.72,337.21 85.40,340.41 83.14,343.55 80.94,346.63 78.80,349.66 76.73,352.65 74.73,355.58 72.80,358.48 70.93,361.33 69.13,364.15 67.41,366.93 65.76,369.69 64.18,372.41 62.68,375.11 61.25,377.79 59.90,380.44 58.64,383.08 57.45,385.71 56.35,388.33 55.34,390.93 54.41,393.54 53.58,396.14 52.83,398.74 52.18,401.34 51.62,403.95 51.16,406.57 50.80,409.20 50.55,411.84 50.39,414.50 50.35,417.18 50.42,419.88 50.59,422.60 50.89,425.35 51.30,428.12 51.83,430.92 52.49,433.76 53.28,436.63 54.19,439.53 55.24,442.47 56.42,445.45 57.75,448.47 59.22,451.53 60.83,454.63"/>
  <polyline points="385.04,596.41 388.53,595.48 391.87,594.47 395.07,593.37 398.13,592.20 401.05,590.95 403.83,589.63 406.49,588.23 409.01,586.77 411.42,585.23 413.70,583.63 415.86,581.97 417.91,580.23 419.84,578.44 421.68,576.58 423.40,574.65 425.03,572.67 426.57,570.62 428.01,568.52 429.36,566.35 430.63,564.12 431.82,561.83 432.93,559.47 433.97,557.06 434.93,554.58 435.83,552.05 436.67,549.45 437.45,546.78 438.17,544.06 438.84,541.27 439.47,538.41 440.04,535.49 440.57,532.50 441.07,529.44 441.53,526.32 441.95,523.13 442.35,519.86 442.72,516.52 443.07,513.12 443.40,509.63 443.71,506.08 444.01,502.44 444.30,498.73 444.58,494.95 444.86,491.08 445.13,487.13 445.41,483.10 445.70,478.99 445.99,474.80 446.30,470.52 446.61,466.15 446.95,461.70 447.31,457.16 447.68,452.54 448.09,447.83 448.52,443.03 448.98,438.14 449.48,433.16 450.02,428.09 450.59,422.94 451.21,417.70 451.87,412.37 452.57,406.96 453.33,401.46 454.13,395.88 454.99,390.22 455.90,384.48 456.87,378.67 457.89,372.78 458.98,366.83 460.12,360.81 461.32,354.74 462.59,348.60 463.92,342.43 465.30,336.20 466.76,329.95 468.27,323.66 469.84,317.35 471.47,311.04 473.16,304.71 474.91,298.40 476.72,292.10 478.57,285.82 480.48,279.59 482.44,273.40 484.44,267.27 486.48,261.20 488.56,255.22 490.68,249.34 492.83,243.56 495.00,237.89 497.20,232.36 499.42,226.96 501.65,221.72 503.89,216.63 506.14,211.71 508.39,206.98 510.64,202.43 512.88,198.08 515.11,193.93 517.33,189.99 519.53,186.26 521.70,182.76 523.86,179.47 525.98,176.42 528.08,173.59 530.14,170.99 532.17,168.62 534.16,166.48 536.11,164.57 538.02,162.89 539.89,161.43 541.71,160.20 543.49,159.18 545.22,158.37 546.90,157.78 548.53,157.39 550.12,157.20 551.66,157.20 553.14,157.40 554.58,157.77 555.96,158.33 557.30,159.06 558.58,159.95 559.81,161.00 560.99,162.21 562.11,163.57 563.19,165.07"/>
  <polyline points="246.56,33.24 247.67,33.14 248.70,33.19 249.64,33.39 250.50,33.75 251.26,34.27 251.92,34.95 252.49,35.80 252.95,36.83 253.30,38.03 253.54,39.41 253.66,40.97 253.67,42.71 253.55,44.65 253.32,46.77 252.95,49.08 252.46,51.59 251.85,54.29 251.10,57.18 250.22,60.26 249.21,63.53 248.07,66.99 246.80,70.63 245.39,74.45 243.86,78.45 242.21,82.62 240.43,86.95 238.52,91.44 236.50,96.08 234.36,100.87 232.12,105.78 229.76,110.82 227.30,115.98 224.75,121.23 222.10,126.59 219.37,132.02 216.55,137.53 213.66,143.10 210.69,148.72 207.66,154.38 204.58,160.07 201.44,165.77 198.25,171.49 195.02,177.20 191.75,182.91 188.46,188.59 185.14,194.25 181.80,199.87 178.44,205.45 175.07,210.98 171.70,216.45 168.33,221.87 164.96,227.21 161.59,232.49 158.24,237.68 154.90,242.81 151.57,247.85 148.27,252.80 144.99,257.67 141.74,262.46 138.52,267.15 135.32,271.76 132.16,276.27 129.04,280.70 125.96,285.04 122.91,289.29 119.91,293.45 116.95,297.53 114.04,301.52 111.17,305.43 108.35,309.26 105.59,313.01 102.87,316.68 100.20,320.28 97.59,323.80 95.04,327.25 92.54,330.64 90.10,333.95 87.72,337.21 85.40,340.41 83.14,343.55 80.94,346.63 78.80,349.66 76.73,352.65 74.73,355.58 72.80,358.48 70.93,361.33 69.13,364.15 67.41,366.93 65.76,369.69 64.18,372.41 62.68,375.11 61.25,377.79 59.90,380.44 58.64,383.08 57.45,385.71 56.35,388.33 55.34,390.93 54.41,393.54 53.58,396.14 52.83,398.74 52.18,401.34 51.62,403.95 51.16,406.57 50.80,409.20 50.55,411.84 50.39,414.50 50.35,417.18 50.42,419.88 50.59,422.60 50.89,425.35 51.30,428.12 51.83,430.92 52.49,433.76 53.28,436.63 54.19,439.53 55.24,442.47 56.42,445.45 57.75,448.47 59.22,451.53 60.83,454.63"/>
  <polyline points="385.04,596.41 388.53,595.48 391.87,594.47 395.07,593.37 398.13,592.20 401.05,590.95 403.83,589.63 406.49,588.23 409.01,586.77 411.42,585.23 413.70,583.63 415.86,581.97 417.91,580.23 419.84,578.44 421.68,576.58 423.40,574.65 425.03,572.67 426.57,570.62 428.01,568.52 429.36,566.35 430.63,564.12 431.82,561.83 432.93,559.47 433.97,557.06 434.93,554.58 435.83,552.05 436.67,549.45 437.45,546.78 438.17,544.06 438.84,541.27 439.47,538.41 440.04,535.49 440.57,532.50 441.07,529.44 441.53,526.32 441.95,523.13 442.35,519.86 442.72,516.52 443.07,513.12 443.40,509.63 443.71,506.08 444.01,502.44 444.30,498.73 444.58,494.95 444.86,491.08 445.13,487.13 445.41,483.10 445.70,478.99 445.99,474.80 446.30,470.52 446.61,466.15 446.95,461.70 447.31,457.16 447.68,452.54 448.09,447.83 448.52,443.03 448.98,438.14 449.48,433.16 450.02,428.09 450.59,422.94 451.21,417.70 451.87,412.37 452.57,406.96 453.33,401.46 454.13,395.88 454.99,390.22 455.90,384.48 456.87,378.67 457.89,372.78 458.98,366.83 460.12,360.81 461.32,354.74 462.59,348.60 463.92,342.43 465.30,336.20 466.76,329.95 468.27,323.66 469.84,317.35 471.47,311.04 473.16,304.71 474.91,298.40 476.72,292.10 478.57,285.82 480.48,279.59 482.44,273.40 484.44,267.27 486.48,261.20 488.56,255.22 490.68,249.34 492.83,243.56 495.00,237.89 497.20,232.36 499.42,226.96 501.65,221.72 503.89,216.63 506.14,211.71 508.39,206.98 510.64,202.43 512.88,198.08 515.11,193.93 517.33,189.99 519.53,186.26 521.70,182.76 523.86,179.47 525.98,176.42 528.08,173.59 530.14,170.99 532.17,168.62 534.16,166.48 536.11,164.57 538.02,162.89 539.89,161.43 541.71,160.20 543.49,159.18 545.22,158.37 546.90,157.78 548.53,157.39 550.12,157.20 551.66,157.20 553.14,157.40 554.58,157.77 555.96,158.33 557.30,159.06 558.58,159.95 559.81,161.00 560.99,162.21 562.11,163.57 563.19,165.07"/>
</svg>