<svg width="630.0" height="630.0" viewBox="0 0 630.0 630.0" fill="none" stroke="black" stroke-width="6" stroke-linecap="round" stroke-linejoin="round" xmlns="http://www.w3.org/2000/svg">
  <circle cx="315.0" cy="315.0" r="290.0" fill="white"/>
  <polyline points="315.92,25.01 319.63,25.11 323.27,25.33 326.83,25.69 330.31,26.18 333.71,26.80 337.00,27.56 340.20,28.47 343.28,29.51 346.26,30.71 349.10,32.06 351.82,33.55 354.41,35.21 356.84,37.02 359.13,38.98 361.26,41.10 363.23,43.39 365.03,45.82 366.65,48.42 368.09,51.17 369.35,54.08 370.41,57.14 371.28,60.34 371.95,63.70 372.42,67.19 372.68,70.81 372.74,74.57 372.59,78.45 372.23,82.45 371.66,86.55 370.89,90.76 369.91,95.06 368.73,99.45 367.36,103.91 365.78,108.44 364.02,113.03 362.07,117.67 359.94,122.35 357.64,127.05 355.16,131.79 352.53,136.53 349.74,141.28 346.80,146.02 343.73,150.76 340.52,155.47 337.18,160.17 333.73,164.82 330.17,169.44 326.50,174.02 322.74,178.55 318.90,183.02 314.97,187.43 310.97,191.79 306.90,196.08 302.77,200.30 298.58,204.45 294.35,208.54 290.07,212.55 285.76,216.48 281.41,220.34 277.04,224.13 272.65,227.84 268.24,231.48 263.81,235.05 259.38,238.54 254.94,241.96 250.50,245.31 246.06,248.60 241.63,251.81 237.20,254.97 232.79,258.05 228.38,261.08 224.00,264.05 219.63,266.97 215.29,269.83 210.96,272.64 206.67,275.41 202.40,278.12 198.16,280.80 193.95,283.44 189.77,286.04 185.63,288.61 181.52,291.14 177.46,293.65 173.43,296.14 169.44,298.60 165.50,301.05 161.60,303.48 157.75,305.90 153.94,308.31 150.18,310.71 146.48,313.11 142.82,315.51 139.22,317.92 135.68,320.33 132.19,322.75 128.77,325.19 125.40,327.64 122.10,330.11 118.86,332.61 115.69,335.13 112.59,337.67 109.56,340.25 106.60,342.87 103.73,345.52 100.93,348.21 98.21,350.95 95.58,353.73 93.03,356.56 90.58,359.45 88.22,362.38 85.96,365.38 83.80,368.43 81.74,371.55 79.80,374.73 77.96,377.97 76.24,381.29 74.65,384.67 73.18,388.12 71.84,391.65 70.63,395.25 69.57,398.93 68.65,402.68 67.88,406.51 67.26,410.41 66.80,414.39 66.51,418.45 66.39,422.57 66.45,426.77 66.68,431.05 67.11,435.39 67.72,439.79 68.53,444.26 69.54,448.79 70.75,453.37 72.17,458.00 73.81,462.68 75.66,467.40 77.73,472.15 80.01,476.93 82.52,481.73 85.25,486.54 88.21,491.35 91.38,496.16 94.78,500.95 98.39,505.73 102.22,510.47 106.27,515.18 110.52,519.84 114.97,524.43 119.61,528.96 124.45,533.42 129.46,537.79 134.64,542.06 139.99,546.23"/>
  <polyline points="305.31,604.84 310.95,604.96 316.50,604.96 321.96,604.83 327.32,604.59 332.59,604.23 337.77,603.76 342.85,603.19 347.83,602.50 352.72,601.71 357.51,600.83 362.21,599.84 366.82,598.76 371.33,597.58 375.75,596.32 380.09,594.96 384.34,593.51 388.50,591.98 392.58,590.37 396.57,588.67 400.49,586.89 404.33,585.03 408.09,583.09 411.79,581.08 415.41,578.98 418.96,576.81 422.45,574.56 425.87,572.24 429.23,569.84 432.54,567.37 435.78,564.83 438.98,562.21 442.12,559.52 445.21,556.75 448.25,553.91 451.26,551.00 454.21,548.02 457.13,544.96 460.01,541.83 462.86,538.62 465.67,535.34 468.45,531.99 471.20,528.56 473.92,525.05 476.62,521.48 479.30,517.82 481.95,514.09 484.58,510.29 487.20,506.41 489.80,502.45 492.38,498.42 494.95,494.31 497.51,490.12 500.06,485.85 502.60,481.51 505.13,477.09 507.65,472.60 510.17,468.03 512.68,463.38 515.18,458.66 517.68,453.86 520.17,448.99 522.66,444.04 525.14,439.03 527.62,433.94 530.09,428.78 532.55,423.56 535.00,418.28 537.45,412.93 539.88,407.53 542.30,402.07 544.70,396.56 547.09,391.00 549.45,385.40 551.79,379.76 554.11,374.09 556.39,368.40 558.65,362.68 560.86,356.95 563.04,351.21 565.17,345.47 567.25,339.74 569.27,334.03 571.24,328.34 573.14,322.69 574.97,317.08 576.74,311.53 578.42,306.04 580.02,300.63 581.53,295.31 582.95,290.07 584.28,284.95 585.50,279.94 586.63,275.06 587.64,270.31 588.55,265.72 589.34,261.27 590.02,256.99 590.59,252.89 591.04,248.96 591.37,245.22 591.59,241.68 591.69,238.34 591.67,235.20 591.54,232.26 591.29,229.54 590.94,227.04 590.48,224.75 589.91,222.68"/>
  <polyline points="315.92,25.01 319.63,25.11 323.27,25.33 326.83,25.69 330.31,26.18 333.71,26.80 337.00,27.56 340.20,28.47 343.28,29.51 346.26,30.71 349.10,32.06 351.82,33.55 354.41,35.21 356.84,37.02 359.13,38.98 361.26,41.10 363.23,43.39 365.03,45.82 366.65,48.42 368.09,51.17 369.35,54.08 370.41,57.14 371.28,60.34 371.95,63.70 372.42,67.19 372.68,70.81 372.74,74.57 372.59,78.45 372.23,82.45 371.66,86.55 370.89,90.76 369.91,95.06 368.73,99.45 367.36,103.91 365.78,108.44 364.02,113.03 362.07,117.67 359.94,122.35 357.64,127.05 355.16,131.79 352.53,136.53 349.74,141.28 346.80,146.02 343.73,150.76 340.52,155.47 337.18,160.17 333.73,164.82 330.17,169.44 326.50,174.02 322.74,178.55 318.90,183.02 314.97,187.43 310.97,191.79 306.90,196.08 302.77,200.30 298.58,204.45 294.35,208.54 290.07,212.55 285.76,216.48 281.41,220.34 277.04,224.13 272.65,227.84 268.24,231.48 263.81,235.05 259.38,238.54 254.94,241.96 250.50,245.31 246.06,248.60 241.63,251.81 237.20,254.97 232.79,258.05 228.38,261.08 224.00,264.05 219.63,266.97 215.29,269.83 210.96,272.64 206.67,275.41 202.40,278.12 198.16,280.80 193.95,283.44 189.77,286.04 185.63,288.61 181.52,291.14 177.46,293.65 173.43,296.14 169.44,298.60 165.50,301.05 161.60,303.48 157.75,305.90 153.94,308.31 150.18,310.71 146.48,313.11 142.82,315.51 139.22,317.92 135.68,320.33 132.19,322.75 128.77,325.19 125.40,327.64 122.10,330.11 118.86,332.61 115.69,335.13 112.59,337.67 109.56,340.25 106.60,342.87 103.73,345.52 100.93,348.21 98.21,350.95 95.58,353.73 93.03,356.56 90.58,359.45 88.22,362.38 85.96,365.38 83.80,368.43 81.74,371.55 79.80,374.73 77.96,377.97 76.24,381.29 74.65,384.67 73.18,388.12 71.84,391.65 70.63,395.25 69.57,398.93 68.65,402.68 67.88,406.51 67.26,410.41 66.80,414.39 66.51,418.45 66.39,422.57 66.45,426.77 66.68,431.05 67.11,435.39 67.72,439.79 68.53,444.26 69.54,448.79 70.75,453.37 72.17,458.00 73.81,462.68 75.66,467.40 77.73,472.15 80.01,476.93 82.52,481.73 85.25,486.54 88.21,491.35 91.38,496.16 94.78,500.95 98.39,505.73 102.22,510.47 106.27,515.18 110.52,519.84 114.97,524.43 119.61,528.96 124.45,533.42 129.46,537.79 134.64,542.06 139.99,546.23"/>
  <polyline points="305.31,604.84 310.95,604.96 316.50,604.96 321.96,604.83 327.32,604.59 332.59,604.23 337.77,603.76 342.85,603.19 347.83,602.50 352.72,601.71 357.51,600.83 362.21,599.84 366.82,598.76 371.33,597.58 375.75,596.32 380.09,594.96 384.34,593.51 388.50,591.98 392.58,590.37 396.57,588.67 400.49,586.89 404.33,585.03 408.09,583.09 411.79,581.08 415.41,578.98 418.96,576.81 422.45,574.56 425.87,572.24 429.23,569.84 432.54,567.37 435.78,564.83 438.98,562.21 442.12,559.52 445.21,556.75 448.25,553.91 451.26,551.00 454.21,548.02 457.13,544.96 460.01,541.83 462.86,538.62 465.67,535.34 468.45,531.99 471.20,528.56 473.92,525.05 476.62,521.48 479.30,517.82 481.95,514.09 484.58,510.29 487.20,506.41 489.80,502.45 492.38,498.42 494.95,494.31 497.51,490.12 500.06,485.85 502.60,481.51 505.13,477.09 507.65,472.60 510.17,468.03 512.68,463.38 515.18,458.66 517.68,453.86 520.17,448.99 522.66,444.04 525.14,439.03 527.62,433.94 530.09,428.78 532.55,423.56 535.00,418.28 537.45,412.93 539.88,407.53 542.30,402.07 544.70,396.56 547.09,391.00 549.45,385.40 551.79,379.76 554.11,374.09 556.39,368.40 558.65,362.68 560.86,356.95 563.04,351.21 565.17,345.47 567.25,339.74 569.27,334.03 571.24,328.34 573.14,322.69 574.97,317.08 576.74,311.53 578.42,306.04 580.02,300.63 581.53,295.31 582.95,290.07 584.28,284.95 585.50,279.94 586.63,275.06 587.64,270.31 588.55,265.72 589.34,261.27 590.02,256.99 590.59,252.89 591.04,248.96 591.37,245.22 591.59,241.68 591.69,238.34 591.67,235.20 591.54,232.26 591.29,229.54 590.94,227.04 590.48,224.75 589.91,222.68"/>
</svg>