<svg width="630.0" height="630.0" viewBox="0 0 630.0 630.0" fill="none" stroke="black" stroke-width="6" stroke-linecap="round" stroke-linejoin="round" xmlns="http://www.w3.org/2000/svg">
  <circle cx="315.0" cy="315.0" r="290.0" fill="white"/>
  <polyline points="225.80,39.07 230.26,37.69 234.74,36.41 239.24,35.22 243.76,34.13 248.29,33.14 252.84,32.25 257.39,31.46 261.96,30.78 266.52,30.20 271.09,29.74 275.66,29.39 280.22,29.16 284.77,29.04 289.31,29.05 293.84,29.18 298.34,29.44 302.82,29.83 307.27,30.36 311.69,31.02 316.07,31.82 320.40,32.77 324.69,33.87 328.91,35.11 333.08,36.51 337.18,38.06 341.20,39.78 345.14,41.65 348.99,43.69 352.74,45.90 356.39,48.27 359.93,50.81 363.35,53.53 366.65,56.41 369.81,59.47 372.82,62.70 375.69,66.09 378.40,69.66 380.95,73.40 383.32,77.29 385.52,81.35 387.53,85.57 389.35,89.93 390.97,94.45 392.39,99.10 393.61,103.89 394.61,108.80 395.40,113.83 395.98,118.96 396.33,124.20 396.47,129.53 396.39,134.93 396.09,140.41 395.58,145.95 394.85,151.53 393.91,157.15 392.75,162.80 391.40,168.47 389.84,174.14 388.09,179.80 386.15,185.45 384.02,191.08 381.72,196.67 379.25,202.22 376.61,207.72 373.82,213.16 370.88,218.53 367.80,223.83 364.59,229.06 361.25,234.20 357.79,239.25 354.22,244.21 350.55,249.07 346.79,253.83 342.93,258.49 338.99,263.05 334.98,267.50 330.90,271.85 326.76,276.09 322.55,280.21 318.30,284.24 314.01,288.15 309.67,291.96 305.29,295.67 300.89,299.27 296.46,302.77 292.01,306.16 287.54,309.46 283.05,312.67 278.56,315.78 274.06,318.80 269.55,321.74 265.05,324.59 260.54,327.35 256.05,330.04 251.55,332.65 247.07,335.19 242.61,337.66 238.15,340.06 233.72,342.39 229.30,344.67 224.91,346.89 220.53,349.06 216.19,351.18 211.87,353.25 207.58,355.28 203.31,357.27 199.09,359.22 194.89,361.14 190.73,363.03 186.61,364.89 182.52,366.73 178.48,368.54 174.48,370.35 170.53,372.13 166.61,373.91 162.75,375.68 158.94,377.45 155.18,379.22 151.47,380.99 147.82,382.77 144.23,384.55 140.69,386.35 137.22,388.17 133.82,390.00 130.48,391.86 127.21,393.74 124.01,395.64 120.89,397.58 117.85,399.56 114.90,401.57 112.03,403.62 109.24,405.71 106.55,407.84 103.96,410.03 101.47,412.26 99.08,414.55 96.80,416.89 94.63,419.28 92.59,421.74 90.66,424.26 88.87,426.83 87.20,429.47 85.68,432.18 84.30,434.95 83.07,437.79 81.99,440.69 81.07,443.66 80.32,446.70 79.75,449.81 79.35,452.98 79.13,456.21 79.10,459.51 79.27,462.86 79.64,466.28 80.21,469.75 80.99,473.28 81.99,476.85 83.20,480.47 84.64,484.12 86.30,487.82 88.19,491.54 90.31,495.29 92.66,499.06 95.24,502.84 98.05,506.62 101.09,510.41 104.37,514.18 107.86,517.94"/>
  <polyline points="430.84,580.86 434.61,579.16 438.32,577.39 441.97,575.54 445.57,573.63 449.11,571.63 452.61,569.56 456.05,567.41 459.45,565.19 462.80,562.89 466.11,560.51 469.38,558.05 472.61,555.51 475.80,552.89 478.96,550.19 482.08,547.41 485.17,544.54 488.23,541.58 491.26,538.54 494.26,535.41 497.23,532.20 500.18,528.89 503.10,525.49 506.00,522.00 508.88,518.42 511.73,514.75 514.56,510.98 517.38,507.11 520.17,503.15 522.95,499.09 525.70,494.93 528.43,490.67 531.15,486.31 533.84,481.85 536.52,477.30 539.17,472.64 541.80,467.88 544.41,463.02 546.99,458.07 549.55,453.01 552.08,447.86 554.58,442.61 557.05,437.26 559.48,431.83 561.87,426.30 564.23,420.69 566.54,415.00 568.80,409.22 571.01,403.37 573.17,397.45 575.26,391.46 577.30,385.41 579.26,379.31 581.15,373.16 582.97,366.97 584.70,360.75 586.35,354.51 587.90,348.25 589.36,341.99 590.71,335.74 591.96,329.50 593.10,323.29 594.12,317.11 595.02,310.98 595.80,304.92 596.46,298.92 596.99,293.01 597.39,287.19 597.65,281.48 597.78,275.89 597.78,270.42 597.64,265.09 597.36,259.91 596.96,254.89 596.42,250.04 595.74,245.36 594.95,240.87 594.02,236.56 592.97,232.45"/>
  <polyline points="225.80,39.07 230.26,37.69 234.74,36.41 239.24,35.22 243.76,34.13 248.29,33.14 252.84,32.25 257.39,31.46 261.96,30.78 266.52,30.20 271.09,29.74 275.66,29.39 280.22,29.16 284.77,29.04 289.31,29.05 293.84,29.18 298.34,29.44 302.82,29.83 307.27,30.36 311.69,31.02 316.07,31.82 320.40,32.77 324.69,33.87 328.91,35.11 333.08,36.51 337.18,38.06 341.20,39.78 345.14,41.65 348.99,43.69 352.74,45.90 356.39,48.27 359.93,50.81 363.35,53.53 366.65,56.41 369.81,59.47 372.82,62.70 375.69,66.09 378.40,69.66 380.95,73.40 383.32,77.29 385.52,81.35 387.53,85.57 389.35,89.93 390.97,94.45 392.39,99.10 393.61,103.89 394.61,108.80 395.40,113.83 395.98,118.96 396.33,124.20 396.47,129.53 396.39,134.93 396.09,140.41 395.58,145.95 394.85,151.53 393.91,157.15 392.75,162.80 391.40,168.47 389.84,174.14 388.09,179.80 386.15,185.45 384.02,191.08 381.72,196.67 379.25,202.22 376.61,207.72 373.82,213.16 370.88,218.53 367.80,223.83 364.59,229.06 361.25,234.20 357.79,239.25 354.22,244.21 350.55,249.07 346.79,253.83 342.93,258.49 338.99,263.05 334.98,267.50 330.90,271.85 326.76,276.09 322.55,280.21 318.30,284.24 314.01,288.15 309.67,291.96 305.29,295.67 300.89,299.27 296.46,302.77 292.01,306.16 287.54,309.46 283.05,312.67 278.56,315.78 274.06,318.80 269.55,321.74 265.05,324.59 260.54,327.35 256.05,330.04 251.55,332.65 247.07,335.19 242.61,337.66 238.15,340.06 233.72,342.39 229.30,344.67 224.91,346.89 220.53,349.06 216.19,351.18 211.87,353.25 207.58,355.28 203.31,357.27 199.09,359.22 194.89,361.14 190.73,363.03 186.61,364.89 182.52,366.73 178.48,368.54 174.48,370.35 170.53,372.13 166.61,373.91 162.75,375.68 158.94,377.45 155.18,379.22 151.47,380.99 147.82,382.77 144.23,384.55 140.69,386.35 137.22,388.17 133.82,390.00 130.48,391.86 127.21,393.74 124.01,395.64 120.89,397.58 117.85,399.56 114.90,401.57 112.03,403.62 109.24,405.71 106.55,407.84 103.96,410.03 101.47,412.26 99.08,414.55 96.80,416.89 94.63,419.28 92.59,421.74 90.66,424.26 88.87,426.83 87.20,429.47 85.68,432.18 84.30,434.95 83.07,437.79 81.99,440.69 81.07,443.66 80.32,446.70 79.75,449.81 79.35,452.98 79.13,456.21 79.10,459.51 79.27,462.86 79.64,466.28 80.21,469.75 80.99,473.28 81.99,476.85 83.20,480.47 84.64,484.12 86.30,487.82 88.19,491.54 90.31,495.29 92.66,499.06 95.24,502.84 98.05,506.62 101.09,510.41 104.37,514.18 107.86,517.94"/>
  <polyline points="430.84,580.86 434.61,579.16 438.32,577.39 441.97,575.54 445.57,573.63 449.11,571.63 452.61,569.56 456.05,567.41 459.45,565.19 462.80,562.89 466.11,560.51 469.38,558.05 472.61,555.51 475.80,552.89 478.96,550.19 482.08,547.41 485.17,544.54 488.23,541.58 491.26,538.54 494.26,535.41 497.23,532.20 500.18,528.89 503.10,525.49 506.00,522.00 508.88,518.42 511.73,514.75 514.56,510.98 517.38,507.11 520.17,503.15 522.95,499.09 525.70,494.93 528.43,490.67 531.15,486.31 533.84,481.85 536.52,477.30 539.17,472.64 541.80,467.88 544.41,463.02 546.99,458.07 549.55,453.01 552.08,447.86 554.58,442.61 557.05,437.26 559.48,431.83 561.87,426.30 564.23,420.69 566.54,415.00 568.80,409.22 571.01,403.37 573.17,397.45 575.26,391.46 577.30,385.41 579.26,379.31 581.15,373.16 582.97,366.97 584.70,360.75 586.35,354.51 587.90,348.25 589.36,341.99 590.71,335.74 591.96,329.50 593.10,323.29 594.12,317.11 595.02,310.98 595.80,304.92 596.46,298.92 596.99,293.01 597.39,287.19 597.65,281.48 597.78,275.89 597.78,270.42 597.64,265.09 597.36,259.91 596.96,254.89 596.42,250.04 595.74,245.36 594.95,240.87 594.02,236.56 592.97,232.45"/>
</svg>