<svg width="630.0" height="630.0" viewBox="0 0 630.0 630.0" fill="none" stroke="black" stroke-width="6" stroke-linecap="round" stroke-linejoin="round" xmlns="http://www.w3.org/2000/svg">
  <circle cx="315.0" cy="315.0" r="290.0" fill="white"/>
  <polyline points="426.08,507.39 430.78,506.09 435.44,504.73 440.07,503.32 444.67,501.85 449.22,500.34 453.74,498.78 458.22,497.17 462.67,495.53 467.07,493.84 471.44,492.12 475.76,490.37 480.04,488.58 484.28,486.76 488.47,484.92 492.61,483.05 496.71,481.17 500.76,479.26 504.75,477.34 508.69,475.40 512.58,473.46 516.41,471.50 520.17,469.54 523.87,467.57 527.51,465.61 531.07,463.65 534.56,461.69 537.97,459.74 541.30,457.81 544.55,455.88 547.70,453.98 550.76,452.10 553.72,450.23 556.58,448.40 559.32,446.59 561.95,444.82 564.46,443.09 566.84,441.39 569.09,439.74 571.19,438.14 573.15,436.58 574.96,435.08 576.60,433.63 578.08,432.25 579.39,430.92 580.52,429.67 581.46,428.48 582.22,427.37 582.77,426.34"/>
  <polyline points="533.34,124.24 532.51,123.62 531.48,123.00 530.24,122.36 528.79,121.71 527.16,121.06 525.35,120.39 523.35,119.72 521.19,119.04 518.87,118.36 516.38,117.67 513.76,116.97 510.98,116.28 508.08,115.59 505.05,114.89 501.89,114.20 498.63,113.51 495.25,112.82 491.77,112.14 488.19,111.47 484.52,110.80 480.77,110.15 476.93,109.51 473.02,108.88 469.03,108.26 464.98,107.66 460.86,107.08 456.69,106.52 452.45,105.98 448.16,105.46 443.82,104.97 439.44,104.51 435.01,104.07 430.54,103.67 426.02,103.30 421.48,102.96 416.89,102.66 412.28,102.40 407.63,102.18 402.96,102.00 398.25,101.87 393.53,101.78 388.78,101.75 384.00,101.76 379.21,101.83 374.40,101.96 369.57,102.14 364.72,102.39 359.86,102.69 354.98,103.07 350.09,103.51 345.19,104.02 340.28,104.61 335.36,105.28 330.43,106.02 325.50,106.84 320.56,107.75 315.62,108.75 310.68,109.84 305.74,111.02 300.80,112.30 295.86,113.67 290.93,115.15 286.00,116.73 281.09,118.43 276.19,120.23 271.30,122.15 266.42,124.19 261.57,126.35 256.74,128.63 251.93,131.05 247.15,133.59 242.41,136.27 237.70,139.08 233.03,142.03 228.40,145.13 223.82,148.37 219.30,151.76 214.83,155.30 210.43,159.00 206.09,162.85 201.83,166.86 197.65,171.02 193.56,175.35 189.56,179.84 185.66,184.48 181.87,189.29 178.19,194.26 174.64,199.39 171.21,204.68 167.93,210.13 164.79,215.73 161.80,221.48 158.98,227.38 156.33,233.42 153.85,239.60 151.56,245.91 149.47,252.35 147.57,258.90 145.89,265.56 144.42,272.32 143.17,279.17 142.15,286.10 141.36,293.10 140.80,300.16 140.49,307.26 140.42,314.39 140.60,321.54 141.02,328.70 141.69,335.85 142.60,342.99 143.76,350.08 145.17,357.13 146.81,364.13 148.69,371.04 150.81,377.87 153.15,384.61 155.71,391.23 158.48,397.74 161.46,404.11 164.63,410.34 168.00,416.43 171.54,422.36 175.26,428.12 179.14,433.72 183.18,439.14 187.36,444.38 191.67,449.43 196.11,454.30 200.66,458.98 205.32,463.46 210.08,467.75 214.93,471.85 219.86,475.76 224.86,479.47 229.93,483.00 235.05,486.33 240.22,489.47 245.44,492.44 250.70,495.21 255.99,497.81 261.30,500.23 266.63,502.48 271.98,504.56 277.34,506.48 282.71,508.23 288.08,509.83 293.45,511.27 298.81,512.56 304.17,513.70 309.52,514.71 314.85,515.57 320.17,516.31 325.48,516.91 330.76,517.39 336.03,517.74 341.27,517.98 346.49,518.10 351.68,518.12 356.85,518.02 361.99,517.83 367.11,517.53 372.19,517.14 377.25,516.65 382.27,516.08 387.27,515.42 392.23,514.67 397.17,513.85 402.07,512.95 406.94,511.97 411.77,510.93 416.57,509.81 421.34,508.63 426.08,507.39 430.78,506.09 435.44,504.73 440.07,503.32 444.67,501.85 449.22,500.34 453.74,498.78 458.22,497.17 462.67,495.53 467.07,493.84 471.44,492.12 475.76,490.37 480.04,488.58 484.28,486.76 488.47,484.92 492.61,483.05 496.71,481.17 500.76,479.26 504.75,477.34 508.69,475.40 512.58,473.46 516.41,471.50 520.17,469.54 523.87,467.57 527.51,465.61 531.07,463.65 534.56,461.69 537.97,459.74 541.30,457.81 544.55,455.88 547.70,453.98 550.76,452.10 553.72,450.23 556.58,448.40 559.32,446.59 561.95,444.82 564.46,443.09 566.84,441.39 569.09,439.74 571.19,438.14 573.15,436.58 574.96,435.08 576.60,433.63 578.08,432.25 579.39,430.92 580.52,429.67 581.46,428.48 582.22,427.37 582.77,426.34"/>
  <polyline points="533.34,124.24 532.51,123.62 531.48,123.00 530.24,122.36 528.79,121.71 527.16,121.06 525.35,120.39 523.35,119.72 521.19,119.04 518.87,118.36 516.38,117.67 513.76,116.97 510.98,116.28 508.08,115.59 505.05,114.89 501.89,114.20 498.63,113.51 495.25,112.82 491.77,112.14 488.19,111.47 484.52,110.80 480.77,110.15 476.93,109.51 473.02,108.88 469.03,108.26 464.98,107.66 460.86,107.08 456.69,106.52 452.45,105.98 448.16,105.46 443.82,104.97 439.44,104.51 435.01,104.07 430.54,103.67 426.02,103.30 421.48,102.96 416.89,102.66 412.28,102.40 407.63,102.18 402.96,102.00 398.25,101.87 393.53,101.78 388.78,101.75 384.00,101.76 379.21,101.83 374.40,101.96 369.57,102.14 364.72,102.39 359.86,102.69 354.98,103.07 350.09,103.51 345.19,104.02 340.28,104.61 335.36,105.28 330.43,106.02 325.50,106.84 320.56,107.75 315.62,108.75 310.68,109.84 305.74,111.02 300.80,112.30 295.86,113.67 290.93,115.15 286.00,116.73 281.09,118.43 276.19,120.23 271.30,122.15 266.42,124.19 261.57,126.35 256.74,128.63 251.93,131.05 247.15,133.59 242.41,136.27 237.70,139.08 233.03,142.03 228.40,145.13 223.82,148.37 219.30,151.76 214.83,155.30 210.43,159.00 206.09,162.85 201.83,166.86 197.65,171.02 193.56,175.35 189.56,179.84 185.66,184.48 181.87,189.29 178.19,194.26 174.64,199.39 171.21,204.68 167.93,210.13 164.79,215.73 161.80,221.48 158.98,227.38 156.33,233.42 153.85,239.60 151.56,245.91 149.47,252.35 147.57,258.90 145.89,265.56 144.42,272.32 143.17,279.17 142.15,286.10 141.36,293.10 140.80,300.16 140.49,307.26 140.42,314.39 140.60,321.54 141.02,328.70 141.69,335.85 142.60,342.99 143.76,350.08 145.17,357.13 146.81,364.13 148.69,371.04 150.81,377.87 153.15,384.61 155.71,391.23 158.48,397.74 161.46,404.11 164.63,410.34 168.00,416.43 171.54,422.36 175.26,428.12 179.14,433.72 183.18,439.14 187.36,444.38 191.67,449.43 196.11,454.30 200.66,458.98 205.32,463.46 210.08,467.75 214.93,471.85 219.86,475.76 224.86,479.47 229.93,483.00 235.05,486.33 240.22,489.47 245.44,492.44 250.70,495.21 255.99,497.81 261.30,500.23 266.63,502.48 271.98,504.56 277.34,506.48 282.71,508.23 288.08,509.83 293.45,511.27 298.81,512.56 304.17,513.70 309.52,514.71 314.85,515.57 320.17,516.31 325.48,516.91 330.76,517.39 336.03,517.74 341.27,517.98 346.49,518.10 351.68,518.12 356.85,518.02 361.99,517.83 367.11,517.53 372.19,517.14 377.25,516.65 382.27,516.08 387.27,515.42 392.23,514.67 397.17,513.85 402.07,512.95 406.94,511.97 411.77,510.93 416.57,509.81 421.34,508.63 426.08,507.39"/>
</svg>