<svg width="630.0" height="630.0" viewBox="0 0 630.0 630.0" fill="none" stroke="black" stroke-width="6" stroke-linecap="round" stroke-linejoin="round" xmlns="http://www.w3.org/2000/svg">
  <circle cx="315.0" cy="315.0" r="290.0" fill="white"/>
  <polyline points="398.17,170.95 401.44,174.72 404.69,178.54 407.90,182.40 411.08,186.31 414.23,190.28 417.33,194.30 420.39,198.37 423.40,202.49 426.36,206.68 429.27,210.92 432.12,215.22 434.91,219.59 437.64,224.02 440.30,228.51 442.89,233.07 445.41,237.69 447.85,242.39 450.20,247.15 452.47,251.98 454.65,256.89 456.73,261.86 458.71,266.91 460.59,272.03 462.36,277.23 464.01,282.50 465.55,287.84 466.96,293.25 468.24,298.74 469.39,304.30 470.40,309.92 471.26,315.62 471.97,321.38 472.52,327.20 472.91,333.08 473.13,339.02 473.18,345.02 473.05,351.06 472.73,357.15 472.23,363.28 471.52,369.44 470.62,375.63 469.52,381.84 468.21,388.06 466.68,394.29 464.94,400.52 462.98,406.74 460.80,412.93 458.39,419.09 455.77,425.22 452.91,431.29 449.83,437.29 446.53,443.23 443.01,449.08 439.26,454.83 435.30,460.47 431.13,465.99 426.75,471.39 422.17,476.64 417.40,481.73 412.44,486.66 407.30,491.42 402.00,495.99 396.53,500.37 390.92,504.55 385.17,508.52 379.29,512.27 373.29,515.81 367.19,519.12 361.00,522.19 354.74,525.04 348.40,527.64 342.01,530.02 335.57,532.15 329.10,534.05 322.61,535.70 316.11,537.13 309.62,538.32 303.13,539.28 296.66,540.02 290.22,540.54 283.82,540.84 277.46,540.93 271.16,540.81 264.91,540.49 258.73,539.97 252.62,539.27 246.59,538.38 240.63,537.32 234.76,536.08 228.98,534.68 223.29,533.12 217.69,531.41 212.19,529.56 206.78,527.56 201.48,525.43 196.27,523.17 191.16,520.79 186.15,518.29 181.25,515.68 176.44,512.95 171.74,510.13 167.14,507.20 162.64,504.18 158.23,501.08 153.93,497.88 149.72,494.60 145.61,491.25 141.59,487.81 137.67,484.31 133.84,480.74 130.10,477.10 126.45,473.40 122.89,469.64 119.42,465.82 116.03,461.94 112.73,458.02 109.51,454.04 106.37,450.02 103.31,445.95 100.33,441.83 97.43,437.67 94.60,433.48 91.85,429.24 89.17,424.97 86.56,420.67 84.03,416.33 81.56,411.96 79.16,407.56 76.83,403.13 74.57,398.68 72.37,394.20 70.24,389.70 68.17,385.18 66.17,380.64 64.23,376.09 62.35,371.52 60.53,366.93 58.78,362.33 57.08,357.73 55.45,353.12 53.87,348.50 52.36,343.88 50.91,339.27 49.52,334.65 48.19,330.04 46.92,325.44 45.72,320.85 44.57,316.28 43.50,311.72 42.48,307.19 41.53,302.69 40.65,298.21 39.84,293.77 39.10,289.37 38.42,285.01 37.82,280.70 37.30,276.45 36.85,272.26 36.48,268.13 36.19,264.07 35.98,260.10 35.86,256.20 35.83,252.40 35.88,248.70 36.03,245.10 36.27,241.61 36.61,238.25 37.05,235.01 37.58,231.91 38.23,228.95 38.97,226.14"/>
  <polyline points="277.69,27.48 276.48,27.88 275.46,28.43 274.64,29.12 274.01,29.96 273.57,30.92 273.33,32.02 273.27,33.25 273.40,34.60 273.71,36.06 274.19,37.64 274.85,39.32 275.67,41.11 276.66,42.99 277.80,44.96 279.09,47.02 280.53,49.16 282.11,51.38 283.82,53.66 285.66,56.02 287.62,58.44 289.70,60.92 291.88,63.45 294.18,66.04 296.57,68.67 299.06,71.36 301.63,74.08 304.29,76.85 307.02,79.65 309.83,82.49 312.71,85.37 315.65,88.28 318.65,91.22 321.70,94.19 324.80,97.20 327.95,100.23 331.14,103.29 334.36,106.38 337.62,109.50 340.91,112.64 344.22,115.82 347.56,119.02 350.92,122.25 354.29,125.51 357.68,128.80 361.07,132.12 364.47,135.47 367.88,138.86 371.28,142.28 374.68,145.73 378.08,149.21 381.47,152.74 384.84,156.30 388.20,159.90 391.54,163.54 394.87,167.22 398.17,170.95 401.44,174.72 404.69,178.54 407.90,182.40 411.08,186.31 414.23,190.28 417.33,194.30 420.39,198.37 423.40,202.49 426.36,206.68 429.27,210.92 432.12,215.22 434.91,219.59 437.64,224.02 440.30,228.51 442.89,233.07 445.41,237.69 447.85,242.39 450.20,247.15 452.47,251.98 454.65,256.89 456.73,261.86 458.71,266.91 460.59,272.03 462.36,277.23 464.01,282.50 465.55,287.84 466.96,293.25 468.24,298.74 469.39,304.30 470.40,309.92 471.26,315.62 471.97,321.38 472.52,327.20 472.91,333.08 473.13,339.02 473.18,345.02 473.05,351.06 472.73,357.15 472.23,363.28 471.52,369.44 470.62,375.63 469.52,381.84 468.21,388.06 466.68,394.29 464.94,400.52 462.98,406.74 460.80,412.93 458.39,419.09 455.77,425.22 452.91,431.29 449.83,437.29 446.53,443.23 443.01,449.08 439.26,454.83 435.30,460.47 431.13,465.99 426.75,471.39 422.17,476.64 417.40,481.73 412.44,486.66 407.30,491.42 402.00,495.99 396.53,500.37 390.92,504.55 385.17,508.52 379.29,512.27 373.29,515.81 367.19,519.12 361.00,522.19 354.74,525.04 348.40,527.64 342.01,530.02 335.57,532.15 329.10,534.05 322.61,535.70 316.11,537.13 309.62,538.32 303.13,539.28 296.66,540.02 290.22,540.54 283.82,540.84 277.46,540.93 271.16,540.81 264.91,540.49 258.73,539.97 252.62,539.27 246.59,538.38 240.63,537.32 234.76,536.08 228.98,534.68 223.29,533.12 217.69,531.41 212.19,529.56 206.78,527.56 201.48,525.43 196.27,523.17 191.16,520.79 186.15,518.29 181.25,515.68 176.44,512.95 171.74,510.13 167.14,507.20 162.64,504.18 158.23,501.08 153.93,497.88 149.72,494.60 145.61,491.25 141.59,487.81 137.67,484.31 133.84,480.74 130.10,477.10 126.45,473.40 122.89,469.64 119.42,465.82 116.03,461.94 112.73,458.02 109.51,454.04 106.37,450.02 103.31,445.95 100.33,441.83 97.43,437.67 94.60,433.48 91.85,429.24 89.17,424.97 86.56,420.67 84.03,416.33 81.56,411.96 79.16,407.56 76.83,403.13 74.57,398.68 72.37,394.20 70.24,389.70 68.17,385.18 66.17,380.64 64.23,376.09 62.35,371.52 60.53,366.93 58.78,362.33 57.08,357.73 55.45,353.12 53.87,348.50 52.36,343.88 50.91,339.27 49.52,334.65 48.19,330.04 46.92,325.44 45.72,320.85 44.57,316.28 43.50,311.72 42.48,307.19 41.53,302.69 40.65,298.21 39.84,293.77 39.10,289.37 38.42,285.01 37.82,280.70 37.30,276.45 36.85,272.26 36.48,268.13 36.19,264.07 35.98,260.10 35.86,256.20 35.83,252.40 35.88,248.70 36.03,245.10 36.27,241.61 36.61,238.25 37.05,235.01 37.58,231.91 38.23,228.95 38.97,226.14"/>
  <polyline points="277.69,27.48 276.48,27.88 275.46,28.43 274.64,29.12 274.01,29.96 273.57,30.92 273.33,32.02 273.27,33.25 273.40,34.60 273.71,36.06 274.19,37.64 274.85,39.32 275.67,41.11 276.66,42.99 277.80,44.96 279.09,47.02 280.53,49.16 282.11,51.38 283.82,53.66 285.66,56.02 287.62,58.44 289.70,60.92 291.88,63.45 294.18,66.04 296.57,68.67 299.06,71.36 301.63,74.08 304.29,76.85 307.02,79.65 309.83,82.49 312.71,85.37 315.65,88.28 318.65,91.22 321.70,94.19 324.80,97.20 327.95,100.23 331.14,103.29 334.36,106.38 337.62,109.50 340.91,112.64 344.22,115.82 347.56,119.02 350.92,122.25 354.29,125.51 357.68,128.80 361.07,132.12 364.47,135.47 367.88,138.86 371.28,142.28 374.68,145.73 378.08,149.21 381.47,152.74 384.84,156.30 388.20,159.90 391.54,163.54 394.87,167.22 398.17,170.95"/>
</svg>