<svg width="630.0" height="630.0" viewBox="0 0 630.0 630.0" fill="none" stroke="black" stroke-width="6" stroke-linecap="round" stroke-linejoin="round" xmlns="http://www.w3.org/2000/svg">
  <circle cx="315.0" cy="315.0" r="290.0" fill="white"/>
  <polyline points="408.20,476.43 413.03,475.35 417.82,474.21 422.59,473.03 427.32,471.81 432.03,470.55 436.70,469.26 441.34,467.93 445.96,466.58 450.54,465.20 455.08,463.79 459.60,462.37 464.08,460.93 468.52,459.47 472.93,458.00 477.30,456.52 481.63,455.04 485.92,453.55 490.16,452.07 494.37,450.58 498.52,449.11 502.63,447.64 506.69,446.18 510.69,444.74 514.64,443.32 518.53,441.92 522.35,440.55 526.11,439.20 529.80,437.88 533.42,436.60 536.95,435.36 540.41,434.16 543.77,433.00 547.05,431.89 550.22,430.83 553.29,429.82 556.25,428.87 559.10,427.98 561.82,427.16 564.42,426.40 566.88,425.72 569.20,425.10 571.37,424.56 573.38,424.10 575.23,423.72 576.92,423.43 578.42,423.22 579.75,423.09 580.88,423.06 581.82,423.12 582.56,423.27 583.09,423.52 583.41,423.86 583.52,424.29 583.40,424.83"/>
  <polyline points="531.84,122.46 530.24,120.86 528.45,119.26 526.47,117.68 524.30,116.10 521.96,114.53 519.46,112.97 516.80,111.43 513.98,109.90 511.03,108.39 507.93,106.89 504.71,105.41 501.37,103.96 497.91,102.52 494.34,101.11 490.67,99.72 486.90,98.36 483.04,97.02 479.10,95.71 475.07,94.44 470.98,93.19 466.81,91.97 462.58,90.78 458.28,89.63 453.93,88.52 449.52,87.44 445.07,86.40 440.57,85.40 436.02,84.44 431.44,83.52 426.81,82.64 422.15,81.81 417.46,81.03 412.74,80.29 407.99,79.60 403.21,78.96 398.41,78.38 393.58,77.85 388.74,77.37 383.87,76.96 378.99,76.60 374.08,76.30 369.17,76.06 364.23,75.89 359.29,75.78 354.33,75.75 349.36,75.78 344.38,75.89 339.39,76.06 334.39,76.32 329.39,76.65 324.38,77.07 319.36,77.57 314.34,78.15 309.32,78.82 304.30,79.58 299.28,80.44 294.26,81.39 289.24,82.44 284.22,83.58 279.21,84.83 274.21,86.19 269.22,87.66 264.24,89.24 259.27,90.93 254.31,92.74 249.38,94.67 244.46,96.72 239.57,98.90 234.70,101.20 229.87,103.64 225.06,106.22 220.29,108.93 215.56,111.78 210.88,114.78 206.24,117.92 201.66,121.20 197.13,124.64 192.67,128.23 188.27,131.98 183.95,135.88 179.71,139.94 175.55,144.16 171.49,148.54 167.53,153.08 163.68,157.78 159.94,162.64 156.32,167.66 152.83,172.84 149.48,178.17 146.27,183.66 143.22,189.30 140.33,195.09 137.61,201.02 135.07,207.08 132.72,213.28 130.56,219.60 128.60,226.05 126.86,232.60 125.32,239.25 124.01,246.00 122.93,252.82 122.08,259.72 121.47,266.68 121.11,273.68 120.98,280.72 121.11,287.79 121.48,294.86 122.10,301.93 122.97,308.99 124.09,316.01 125.46,322.99 127.07,329.92 128.91,336.78 130.99,343.56 133.30,350.24 135.84,356.82 138.59,363.28 141.54,369.62 144.70,375.82 148.05,381.88 151.59,387.79 155.29,393.53 159.17,399.12 163.20,404.53 167.37,409.76 171.68,414.81 176.12,419.68 180.68,424.36 185.34,428.85 190.11,433.16 194.96,437.27 199.90,441.19 204.92,444.93 210.00,448.48 215.13,451.83 220.33,455.01 225.56,458.00 230.84,460.81 236.14,463.45 241.48,465.91 246.84,468.20 252.21,470.32 257.60,472.28 262.99,474.09 268.39,475.73 273.79,477.23 279.19,478.58 284.59,479.79 289.97,480.86 295.35,481.79 300.71,482.60 306.06,483.27 311.39,483.83 316.70,484.27 322.00,484.60 327.27,484.82 332.52,484.93 337.75,484.94 342.95,484.85 348.13,484.67 353.29,484.39 358.42,484.03 363.52,483.59 368.59,483.07 373.64,482.47 378.66,481.80 383.66,481.06 388.62,480.25 393.56,479.39 398.47,478.46 403.35,477.47 408.20,476.43 413.03,475.35 417.82,474.21 422.59,473.03 427.32,471.81 432.03,470.55 436.70,469.26 441.34,467.93 445.96,466.58 450.54,465.20 455.08,463.79 459.60,462.37 464.08,460.93 468.52,459.47 472.93,458.00 477.30,456.52 481.63,455.04 485.92,453.55 490.16,452.07 494.37,450.58 498.52,449.11 502.63,447.64 506.69,446.18 510.69,444.74 514.64,443.32 518.53,441.92 522.35,440.55 526.11,439.20 529.80,437.88 533.42,436.60 536.95,435.36 540.41,434.16 543.77,433.00 547.05,431.89 550.22,430.83 553.29,429.82 556.25,428.87 559.10,427.98 561.82,427.16 564.42,426.40 566.88,425.72 569.20,425.10 571.37,424.56 573.38,424.10 575.23,423.72 576.92,423.43 578.42,423.22 579.75,423.09 580.88,423.06 581.82,423.12 582.56,423.27 583.09,423.52 583.41,423.86 583.52,424.29 583.40,424.83"/>
  <polyline points="531.84,122.46 530.24,120.86 528.45,119.26 526.47,117.68 524.30,116.10 521.96,114.53 519.46,112.97 516.80,111.43 513.98,109.90 511.03,108.39 507.93,106.89 504.71,105.41 501.37,103.96 497.91,102.52 494.34,101.11 490.67,99.72 486.90,98.36 483.04,97.02 479.10,95.71 475.07,94.44 470.98,93.19 466.81,91.97 462.58,90.78 458.28,89.63 453.93,88.52 449.52,87.44 445.07,86.40 440.57,85.40 436.02,84.44 431.44,83.52 426.81,82.64 422.15,81.81 417.46,81.03 412.74,80.29 407.99,79.60 403.21,78.96 398.41,78.38 393.58,77.85 388.74,77.37 383.87,76.96 378.99,76.60 374.08,76.30 369.17,76.06 364.23,75.89 359.29,75.78 354.33,75.75 349.36,75.78 344.38,75.89 339.39,76.06 334.39,76.32 329.39,76.65 324.38,77.07 319.36,77.57 314.34,78.15 309.32,78.82 304.30,79.58 299.28,80.44 294.26,81.39 289.24,82.44 284.22,83.58 279.21,84.83 274.21,86.19 269.22,87.66 264.24,89.24 259.27,90.93 254.31,92.74 249.38,94.67 244.46,96.72 239.57,98.90 234.70,101.20 229.87,103.64 225.06,106.22 220.29,108.93 215.56,111.78 210.88,114.78 206.24,117.92 201.66,121.20 197.13,124.64 192.67,128.23 188.27,131.98 183.95,135.88 179.71,139.94 175.55,144.16 171.49,148.54 167.53,153.08 163.68,157.78 159.94,162.64 156.32,167.66 152.83,172.84 149.48,178.17 146.27,183.66 143.22,189.30 140.33,195.09 137.61,201.02 135.07,207.08 132.72,213.28 130.56,219.60 128.60,226.05 126.86,232.60 125.32,239.25 124.01,246.00 122.93,252.82 122.08,259.72 121.47,266.68 121.11,273.68 120.98,280.72 121.11,287.79 121.48,294.86 122.10,301.93 122.97,308.99 124.09,316.01 125.46,322.99 127.07,329.92 128.91,336.78 130.99,343.56 133.30,350.24 135.84,356.82 138.59,363.28 141.54,369.62 144.70,375.82 148.05,381.88 151.59,387.79 155.29,393.53 159.17,399.12 163.20,404.53 167.37,409.76 171.68,414.81 176.12,419.68 180.68,424.36 185.34,428.85 190.11,433.16 194.96,437.27 199.90,441.19 204.92,444.93 210.00,448.48 215.13,451.83 220.33,455.01 225.56,458.00 230.84,460.81 236.14,463.45 241.48,465.91 246.84,468.20 252.21,470.32 257.60,472.28 262.99,474.09 268.39,475.73 273.79,477.23 279.19,478.58 284.59,479.79 289.97,480.86 295.35,481.79 300.71,482.60 306.06,483.27 311.39,483.83 316.70,484.27 322.00,484.60 327.27,484.82 332.52,484.93 337.75,484.94 342.95,484.85 348.13,484.67 353.29,484.39 358.42,484.03 363.52,483.59 368.59,483.07 373.64,482.47 378.66,481.80 383.66,481.06 388.62,480.25 393.56,479.39 398.47,478.46 403.35,477.47 408.20,476.43"/>
</svg>