<svg width="630.0" height="630.0" viewBox="0 0 630.0 630.0" xmlns="http://www.w3.org/2000/svg">
<circle cx="315.0" cy="315.0" r="290.0" fill="#fff" stroke="#000" stroke-width="6"/>
<polyline points="26.01,338.78 25.95,336.07 26.01,333.25 26.19,330.32 26.49,327.29 26.90,324.17 27.43,320.97 28.06,317.68 28.79,314.32 29.63,310.89 30.56,307.39 31.59,303.84 32.71,300.23 33.92,296.57 35.21,292.87 36.59,289.13 38.06,285.36 39.60,281.55 41.22,277.72 42.91,273.86 44.68,269.98 46.53,266.09 48.44,262.19 50.42,258.27 52.48,254.35 54.60,250.43 56.79,246.51 59.05,242.59 61.37,238.68 63.76,234.77 66.21,230.87 68.73,226.99 71.31,223.13 73.96,219.28 76.68,215.45 79.45,211.65 82.30,207.87 85.20,204.11 88.18,200.39 91.22,196.70 94.33,193.05 97.50,189.43 100.74,185.85 104.05,182.31 107.43,178.81 110.88,175.36 114.39,171.96 117.98,168.61 121.64,165.32 125.38,162.08 129.18,158.90 133.06,155.78 137.02,152.73 141.05,149.74 145.15,146.83 149.33,143.99 153.59,141.23 157.93,138.54 162.35,135.95 166.85,133.44 171.42,131.02 176.08,128.70 180.81,126.48 185.63,124.36 190.52,122.35 195.50,120.45 200.55,118.67 205.69,117.02 210.90,115.49 216.19,114.09 221.55,112.84 226.99,111.72 232.50,110.76 238.08,109.94 243.73,109.29 249.44,108.80 255.21,108.48 261.05,108.34 266.93,108.38 272.87,108.61 278.85,109.03 284.86,109.64 290.91,110.46 296.99,111.49 303.09,112.73 309.19,114.19 315.30,115.86 321.41,117.76 327.50,119.88 333.57,122.23 339.61,124.81 345.60,127.62 351.55,130.66 357.42,133.93 363.22,137.43 368.94,141.15 374.56,145.09 380.06,149.26 385.45,153.64 390.71,158.22 395.83,163.01 400.79,167.98 405.60,173.15 410.23,178.49 414.68,183.99 418.94,189.66 423.00,195.46 426.87,201.40 430.52,207.47 433.95,213.64 437.17,219.91 440.16,226.26 442.93,232.69 445.47,239.18 447.78,245.72 449.86,252.29 451.71,258.89 453.33,265.50 454.73,272.12 455.90,278.73 456.85,285.32 457.58,291.89 458.10,298.42 458.42,304.90 458.52,311.34 458.43,317.72 458.15,324.03 457.68,330.27 457.02,336.44 456.19,342.53 455.19,348.54 454.03,354.46 452.71,360.28 451.24,366.02 449.62,371.66 447.87,377.20 445.98,382.65 443.96,388.00 441.82,393.25 439.57,398.40 437.20,403.44 434.73,408.39 432.16,413.24 429.49,417.99 426.73,422.65 423.89,427.20 420.96,431.66 417.96,436.03 414.89,440.31 411.74,444.49 408.53,448.58 405.27,452.59 401.94,456.51 398.56,460.34 395.13,464.09 391.66,467.77 388.14,471.36 384.58,474.87 380.99,478.31 377.36,481.68 373.70,484.98 370.01,488.20 366.30,491.36 362.56,494.46 358.81,497.49 355.04,500.45 351.25,503.36 347.45,506.21 343.65,509.00 339.84,511.74 336.02,514.42 332.21,517.05 328.40,519.63 324.59,522.17 320.79,524.65 317.00,527.09 313.23,529.48 309.47,531.83 305.73,534.14 302.02,536.40 298.33,538.62 294.67,540.81 291.04,542.95 287.45,545.06 283.90,547.13 280.40,549.16 276.94,551.15 273.53,553.11 270.18,555.03 266.89,556.91 263.66,558.76 260.50,560.56 257.42,562.33 254.42,564.06 251.49,565.75 248.66,567.40 245.93,569.01 243.29,570.57 240.76,572.09 238.34,573.57 236.04,574.99 233.86,576.37 231.82,577.69 229.90,578.96 228.14,580.16 226.52,581.31 225.05,582.40 223.75,583.42 222.61,584.36 221.65,585.24 220.87,586.04 220.27,586.76 219.86,587.40 219.65,587.96 219.64,588.42 219.83,588.79 220.24,589.07" fill="none" stroke="#000" stroke-width="6" stroke-linecap="round"/>
<polyline points="26.01,338.78 25.95,336.07 26.01,333.25 26.19,330.32 26.49,327.29 26.90,324.17 27.43,320.97 28.06,317.68 28.79,314.32 29.63,310.89 30.56,307.39 31.59,303.84 32.71,300.23 33.92,296.57 35.21,292.87 36.59,289.13 38.06,285.36 39.60,281.55 41.22,277.72 42.91,273.86 44.68,269.98 46.53,266.09 48.44,262.19 50.42,258.27 52.48,254.35 54.60,250.43 56.79,246.51 59.05,242.59 61.37,238.68 63.76,234.77 66.21,230.87 68.73,226.99 71.31,223.13 73.96,219.28 76.68,215.45 79.45,211.65 82.30,207.87 85.20,204.11 88.18,200.39 91.22,196.70 94.33,193.05 97.50,189.43 100.74,185.85 104.05,182.31 107.43,178.81 110.88,175.36 114.39,171.96 117.98,168.61 121.64,165.32 125.38,162.08 129.18,158.90 133.06,155.78 137.02,152.73 141.05,149.74 145.15,146.83 149.33,143.99 153.59,141.23 157.93,138.54 162.35,135.95 166.85,133.44 171.42,131.02 176.08,128.70 180.81,126.48 185.63,124.36 190.52,122.35 195.50,120.45 200.55,118.67 205.69,117.02 210.90,115.49 216.19,114.09 221.55,112.84 226.99,111.72 232.50,110.76 238.08,109.94 243.73,109.29 249.44,108.80 255.21,108.48 261.05,108.34 266.93,108.38 272.87,108.61 278.85,109.03 284.86,109.64 290.91,110.46 296.99,111.49 303.09,112.73 309.19,114.19 315.30,115.86 321.41,117.76 327.50,119.88 333.57,122.23 339.61,124.81 345.60,127.62 351.55,130.66 357.42,133.93 363.22,137.43 368.94,141.15 374.56,145.09 380.06,149.26 385.45,153.64 390.71,158.22 395.83,163.01 400.79,167.98 405.60,173.15 410.23,178.49 414.68,183.99 418.94,189.66 423.00,195.46 426.87,201.40 430.52,207.47 433.95,213.64 437.17,219.91 440.16,226.26 442.93,232.69 445.47,239.18 447.78,245.72 449.86,252.29 451.71,258.89 453.33,265.50 454.73,272.12 455.90,278.73 456.85,285.32 457.58,291.89 458.10,298.42 458.42,304.90 458.52,311.34 458.43,317.72 458.15,324.03 457.68,330.27 457.02,336.44 456.19,342.53 455.19,348.54 454.03,354.46 452.71,360.28 451.24,366.02 449.62,371.66 447.87,377.20 445.98,382.65 443.96,388.00 441.82,393.25 439.57,398.40 437.20,403.44 434.73,408.39 432.16,413.24 429.49,417.99 426.73,422.65 423.89,427.20 420.96,431.66 417.96,436.03 414.89,440.31 411.74,444.49 408.53,448.58 405.27,452.59 401.94,456.51 398.56,460.34 395.13,464.09 391.66,467.77 388.14,471.36 384.58,474.87 380.99,478.31 377.36,481.68 373.70,484.98 370.01,488.20 366.30,491.36 362.56,494.46 358.81,497.49 355.04,500.45 351.25,503.36 347.45,506.21 343.65,509.00 339.84,511.74 336.02,514.42 332.21,517.05 328.40,519.63 324.59,522.17 320.79,524.65 317.00,527.09 313.23,529.48 309.47,531.83 305.73,534.14 302.02,536.40 298.33,538.62 294.67,540.81 291.04,542.95 287.45,545.06 283.90,547.13 280.40,549.16 276.94,551.15 273.53,553.11 270.18,555.03 266.89,556.91 263.66,558.76 260.50,560.56 257.42,562.33 254.42,564.06 251.49,565.75 248.66,567.40 245.93,569.01 243.29,570.57 240.76,572.09 238.34,573.57 236.04,574.99 233.86,576.37 231.82,577.69 229.90,578.96 228.14,580.16 226.52,581.31 225.05,582.40 223.75,583.42 222.61,584.36 221.65,585.24 220.87,586.04 220.27,586.76 219.86,587.40 219.65,587.96 219.64,588.42 219.83,588.79 220.24,589.07" fill="none" stroke="#000" stroke-width="6" stroke-linecap="round"/>
</svg>