<svg width="630.0" height="630.0" viewBox="0 0 630.0 630.0" fill="none" stroke="black" stroke-width="6" stroke-linecap="round" stroke-linejoin="round" xmlns="http://www.w3.org/2000/svg">
  <circle cx="315.0" cy="315.0" r="290.0" fill="white"/>
  <polyline points="341.37,26.20 343.84,26.53 346.18,26.99 348.37,27.58 350.43,28.32 352.33,29.20 354.07,30.22 355.66,31.39 357.07,32.71 358.31,34.18 359.37,35.81 360.25,37.58 360.93,39.50 361.43,41.58 361.73,43.80 361.84,46.18 361.74,48.69 361.44,51.35 360.94,54.14 360.24,57.07 359.34,60.13 358.24,63.31 356.94,66.60 355.45,70.01 353.76,73.52 351.89,77.12 349.83,80.82 347.60,84.59 345.20,88.44 342.63,92.36 339.90,96.33 337.01,100.35 333.98,104.41 330.82,108.50 327.52,112.62 324.10,116.76 320.56,120.91 316.91,125.06 313.17,129.21 309.33,133.35 305.41,137.48 301.40,141.59 297.33,145.67 293.19,149.72 289.00,153.74 284.75,157.73 280.46,161.68 276.14,165.58 271.77,169.44 267.38,173.25 262.97,177.02 258.54,180.73 254.10,184.40 249.65,188.01 245.20,191.57 240.74,195.09 236.29,198.55 231.85,201.96 227.41,205.32 222.99,208.64 218.59,211.91 214.20,215.13 209.84,218.31 205.50,221.44 201.18,224.54 196.90,227.60 192.65,230.62 188.42,233.60 184.24,236.56 180.09,239.48 175.97,242.38 171.90,245.25 167.87,248.10 163.88,250.93 159.93,253.74 156.03,256.54 152.18,259.33 148.37,262.11 144.62,264.88 140.91,267.65 137.26,270.42 133.67,273.19 130.12,275.96 126.64,278.75 123.21,281.55 119.85,284.36 116.54,287.19 113.30,290.03 110.13,292.90 107.02,295.80 103.98,298.73 101.01,301.68 98.11,304.67 95.28,307.70 92.54,310.77 89.87,313.89 87.28,317.04 84.78,320.25 82.37,323.51 80.04,326.82 77.80,330.19 75.67,333.62 73.62,337.10 71.68,340.66 69.85,344.27 68.12,347.96 66.51,351.72 65.01,355.54 63.63,359.44 62.38,363.42 61.25,367.47 60.26,371.60 59.40,375.80 58.69,380.09 58.12,384.45 57.70,388.89 57.44,393.40 57.34,398.00 57.40,402.67 57.64,407.41 58.05,412.23 58.64,417.11 59.42,422.06 60.38,427.08 61.54,432.15 62.89,437.28 64.45,442.46 66.21,447.68 68.18,452.94 70.36,458.23 72.76,463.54 75.36,468.87 78.18,474.21 81.22,479.55 84.47,484.88 87.94,490.19 91.61,495.47 95.50,500.72 99.59,505.91 103.88,511.05 108.37,516.12 113.05,521.11 117.91,526.01 122.94,530.82 128.14,535.51 133.50,540.09 139.01,544.54 144.65,548.85 150.42,553.03 156.31,557.05 162.29,560.92 168.37,564.62 174.53,568.16 180.76,571.52 187.04,574.71 193.37,577.72 199.73,580.55 206.10,583.19 212.49,585.66 218.88,587.93 225.25,590.03 231.60,591.94 237.93,593.67 244.21,595.22 250.44,596.59 256.62,597.79 262.74,598.81 268.79,599.67 274.76,600.36 280.66,600.89 286.47,601.27 292.20,601.49 297.83,601.56 303.38,601.49 308.82,601.27 314.17,600.92 319.42,600.43 324.57,599.82 329.62,599.08 334.56,598.21 339.41,597.23 344.16,596.14 348.80,594.93 353.35,593.62 357.80,592.20 362.15,590.68 366.41,589.06 370.58,587.35 374.65,585.54 378.64,583.64 382.54,581.66 386.35,579.58 390.08,577.42 393.73,575.18 397.30,572.86 400.80,570.45 404.22,567.97 407.58,565.41 410.86,562.78 414.08,560.07 417.24,557.29 420.34,554.44 423.38,551.51 426.37,548.52 429.30,545.45 432.19,542.32 435.03,539.11 437.82,535.84 440.57,532.50 443.29,529.09 445.97,525.62 448.61,522.07 451.22,518.47 453.80,514.79 456.36,511.05 458.89,507.24 461.40,503.37 463.89,499.43 466.37,495.43 468.82,491.36 471.27,487.22 473.70,483.03 476.12,478.76 478.54,474.44 480.95,470.04 483.35,465.59 485.75,461.07 488.16,456.50 490.56,451.86 492.96,447.16 495.37,442.40 497.78,437.58 500.20,432.70 502.62,427.77 505.05,422.79 507.48,417.75 509.92,412.66 512.37,407.53 514.82,402.35 517.29,397.12 519.75,391.86 522.22,386.56 524.70,381.23 527.17,375.87 529.65,370.49 532.12,365.09 534.60,359.68 537.06,354.25 539.52,348.83 541.97,343.40 544.40,337.99 546.81,332.60 549.20,327.23 551.56,321.90 553.89,316.60 556.19,311.36 558.44,306.18 560.66,301.06 562.82,296.03 564.93,291.08 566.97,286.22 568.96,281.48 570.87,276.85 572.71,272.34 574.48,267.97 576.16,263.75 577.75,259.68 579.25,255.77 580.65,252.04 581.96,248.48 583.16,245.11 584.26,241.93 585.26,238.95 586.15,236.17 586.93,233.61 587.60,231.25 588.16,229.11 588.61,227.19 588.95,225.48 589.18,224.00 589.31,222.73 589.33,221.68 589.25,220.85"/>
  <polyline points="341.37,26.20 343.84,26.53 346.18,26.99 348.37,27.58 350.43,28.32 352.33,29.20 354.07,30.22 355.66,31.39 357.07,32.71 358.31,34.18 359.37,35.81 360.25,37.58 360.93,39.50 361.43,41.58 361.73,43.80 361.84,46.18 361.74,48.69 361.44,51.35 360.94,54.14 360.24,57.07 359.34,60.13 358.24,63.31 356.94,66.60 355.45,70.01 353.76,73.52 351.89,77.12 349.83,80.82 347.60,84.59 345.20,88.44 342.63,92.36 339.90,96.33 337.01,100.35 333.98,104.41 330.82,108.50 327.52,112.62 324.10,116.76 320.56,120.91 316.91,125.06 313.17,129.21 309.33,133.35 305.41,137.48 301.40,141.59 297.33,145.67 293.19,149.72 289.00,153.74 284.75,157.73 280.46,161.68 276.14,165.58 271.77,169.44 267.38,173.25 262.97,177.02 258.54,180.73 254.10,184.40 249.65,188.01 245.20,191.57 240.74,195.09 236.29,198.55 231.85,201.96 227.41,205.32 222.99,208.64 218.59,211.91 214.20,215.13 209.84,218.31 205.50,221.44 201.18,224.54 196.90,227.60 192.65,230.62 188.42,233.60 184.24,236.56 180.09,239.48 175.97,242.38 171.90,245.25 167.87,248.10 163.88,250.93 159.93,253.74 156.03,256.54 152.18,259.33 148.37,262.11 144.62,264.88 140.91,267.65 137.26,270.42 133.67,273.19 130.12,275.96 126.64,278.75 123.21,281.55 119.85,284.36 116.54,287.19 113.30,290.03 110.13,292.90 107.02,295.80 103.98,298.73 101.01,301.68 98.11,304.67 95.28,307.70 92.54,310.77 89.87,313.89 87.28,317.04 84.78,320.25 82.37,323.51 80.04,326.82 77.80,330.19 75.67,333.62 73.62,337.10 71.68,340.66 69.85,344.27 68.12,347.96 66.51,351.72 65.01,355.54 63.63,359.44 62.38,363.42 61.25,367.47 60.26,371.60 59.40,375.80 58.69,380.09 58.12,384.45 57.70,388.89 57.44,393.40 57.34,398.00 57.40,402.67 57.64,407.41 58.05,412.23 58.64,417.11 59.42,422.06 60.38,427.08 61.54,432.15 62.89,437.28 64.45,442.46 66.21,447.68 68.18,452.94 70.36,458.23 72.76,463.54 75.36,468.87 78.18,474.21 81.22,479.55 84.47,484.88 87.94,490.19 91.61,495.47 95.50,500.72 99.59,505.91 103.88,511.05 108.37,516.12 113.05,521.11 117.91,526.01 122.94,530.82 128.14,535.51 133.50,540.09 139.01,544.54 144.65,548.85 150.42,553.03 156.31,557.05 162.29,560.92 168.37,564.62 174.53,568.16 180.76,571.52 187.04,574.71 193.37,577.72 199.73,580.55 206.10,583.19 212.49,585.66 218.88,587.93 225.25,590.03 231.60,591.94 237.93,593.67 244.21,595.22 250.44,596.59 256.62,597.79 262.74,598.81 268.79,599.67 274.76,600.36 280.66,600.89 286.47,601.27 292.20,601.49 297.83,601.56 303.38,601.49 308.82,601.27 314.17,600.92 319.42,600.43 324.57,599.82 329.62,599.08 334.56,598.21 339.41,597.23 344.16,596.14 348.80,594.93 353.35,593.62 357.80,592.20 362.15,590.68 366.41,589.06 370.58,587.35 374.65,585.54 378.64,583.64 382.54,581.66 386.35,579.58 390.08,577.42 393.73,575.18 397.30,572.86 400.80,570.45 404.22,567.97 407.58,565.41 410.86,562.78 414.08,560.07 417.24,557.29 420.34,554.44 423.38,551.51 426.37,548.52 429.30,545.45 432.19,542.32 435.03,539.11 437.82,535.84 440.57,532.50 443.29,529.09 445.97,525.62 448.61,522.07 451.22,518.47 453.80,514.79 456.36,511.05 458.89,507.24 461.40,503.37 463.89,499.43 466.37,495.43 468.82,491.36 471.27,487.22 473.70,483.03 476.12,478.76 478.54,474.44 480.95,470.04 483.35,465.59 485.75,461.07 488.16,456.50 490.56,451.86 492.96,447.16 495.37,442.40 497.78,437.58 500.20,432.70 502.62,427.77 505.05,422.79 507.48,417.75 509.92,412.66 512.37,407.53 514.82,402.35 517.29,397.12 519.75,391.86 522.22,386.56 524.70,381.23 527.17,375.87 529.65,370.49 532.12,365.09 534.60,359.68 537.06,354.25 539.52,348.83 541.97,343.40 544.40,337.99 546.81,332.60 549.20,327.23 551.56,321.90 553.89,316.60 556.19,311.36 558.44,306.18 560.66,301.06 562.82,296.03 564.93,291.08 566.97,286.22 568.96,281.48 570.87,276.85 572.71,272.34 574.48,267.97 576.16,263.75 577.75,259.68 579.25,255.77 580.65,252.04 581.96,248.48 583.16,245.11 584.26,241.93 585.26,238.95 586.15,236.17 586.93,233.61 587.60,231.25 588.16,229.11 588.61,227.19 588.95,225.48 589.18,224.00 589.31,222.73 589.33,221.68 589.25,220.85"/>
</svg>