<svg width="630.0" height="630.0" viewBox="0 0 630.0 630.0" xmlns="http://www.w3.org/2000/svg">
<circle cx="315.0" cy="315.0" r="290.0" fill="#fff" stroke="#000" stroke-width="6"/>
<polyline points="603.60,343.25 603.92,338.41 604.09,333.41 604.09,328.26 603.93,322.98 603.61,317.56 603.12,312.02 602.47,306.37 601.66,300.62 600.69,294.78 599.56,288.87 598.27,282.88 596.84,276.85 595.26,270.76 593.53,264.65 591.67,258.52 589.68,252.37 587.56,246.23 585.33,240.09 582.97,233.98 580.52,227.89 577.96,221.85 575.30,215.85 572.56,209.90 569.74,204.02 566.84,198.21 563.87,192.47 560.83,186.81 557.74,181.24 554.60,175.76 551.41,170.37 548.18,165.08 544.91,159.89 541.60,154.81 538.27,149.83 534.91,144.95 531.52,140.19 528.12,135.54 524.70,131.00 521.27,126.57 517.82,122.25 514.36,118.04 510.90,113.95 507.42,109.97 503.94,106.10 500.45,102.33 496.96,98.68 493.47,95.14 489.97,91.71 486.46,88.38 482.95,85.16 479.43,82.04 475.91,79.02 472.39,76.11 468.85,73.30 465.31,70.59 461.76,67.98 458.20,65.46 454.63,63.05 451.04,60.72 447.45,58.49 443.83,56.36 440.20,54.31 436.56,52.36 432.89,50.50 429.20,48.72 425.48,47.03 421.75,45.43 417.98,43.92 414.19,42.49" fill="none" stroke="#000" stroke-width="6" stroke-linecap="round"/>
<polyline points="73.12,155.03 70.71,158.89 68.53,162.72 66.57,166.49 64.85,170.22 63.35,173.90 62.08,177.51 61.03,181.05 60.20,184.52 59.58,187.92 59.18,191.24 58.99,194.47 58.99,197.62 59.20,200.69 59.59,203.67 60.18,206.55 60.94,209.35 61.87,212.05 62.98,214.66 64.24,217.19 65.67,219.62 67.24,221.96 68.96,224.21 70.81,226.37 72.81,228.45 74.92,230.45 77.17,232.36 79.53,234.20 82.00,235.95 84.58,237.63 87.26,239.24 90.05,240.78 92.93,242.26 95.90,243.67 98.96,245.02 102.11,246.32 105.33,247.56 108.64,248.75 112.02,249.89 115.47,250.99 118.99,252.05 122.58,253.07 126.23,254.05 129.95,255.01 133.72,255.94 137.56,256.85 141.45,257.74 145.39,258.61 149.39,259.47 153.44,260.31 157.54,261.16 161.69,262.00 165.89,262.84 170.13,263.69 174.41,264.54 178.74,265.41 183.12,266.29 187.53,267.19 191.98,268.11 196.48,269.06 201.01,270.04 205.57,271.06 210.18,272.11 214.81,273.20 219.48,274.33 224.19,275.51 228.92,276.75 233.68,278.04 238.48,279.39 243.29,280.80 248.14,282.28 253.00,283.83 257.89,285.45 262.80,287.15 267.73,288.93 272.67,290.79 277.63,292.75 282.60,294.79 287.58,296.93 292.56,299.17 297.54,301.51 302.53,303.96 307.51,306.52 312.48,309.18 317.45,311.96 322.39,314.86 327.32,317.88 332.22,321.02 337.09,324.28 341.93,327.67 346.73,331.18 351.47,334.82 356.17,338.59 360.80,342.49 365.37,346.51 369.86,350.67 374.28,354.95 378.60,359.35 382.82,363.88 386.94,368.53 390.95,373.30 394.84,378.18 398.59,383.16 402.20,388.25 405.67,393.44 408.98,398.72 412.13,404.08 415.10,409.52 417.89,415.02 420.49,420.59 422.90,426.21 425.11,431.86 427.10,437.55 428.89,443.26 430.45,448.98 431.79,454.69 432.90,460.40 433.78,466.08 434.43,471.73 434.85,477.34 435.03,482.89 434.98,488.38 434.70,493.79 434.19,499.12 433.45,504.35 432.49,509.49 431.30,514.52 429.91,519.43 428.30,524.22 426.49,528.88 424.48,533.40 422.28,537.79 419.90,542.04 417.35,546.14 414.62,550.10 411.74,553.90 408.70,557.56 405.52,561.06 402.20,564.40 398.75,567.59 395.18,570.63 391.49,573.52 387.71,576.25 383.82,578.83 379.84,581.27 375.77,583.55 371.63,585.69 367.41,587.69 363.13,589.55 358.78,591.26 354.39,592.84 349.94,594.29 345.45,595.60 340.92,596.78 336.35,597.84 331.75,598.77 327.13,599.58 322.49,600.27 317.82,600.84 313.14,601.30 308.45,601.64 303.75,601.88 299.04,602.00 294.33,602.02 289.61,601.93 284.90,601.74 280.20,601.45 275.50,601.06 270.80,600.57 266.12,599.98 261.45,599.30 256.80,598.53 252.16,597.66 247.53,596.70 242.93,595.65 238.35,594.51 233.79,593.29 229.26,591.97 224.75,590.57 220.27,589.08 215.81,587.51" fill="none" stroke="#000" stroke-width="6" stroke-linecap="round"/>
<polyline points="603.60,343.25 603.92,338.41 604.09,333.41 604.09,328.26 603.93,322.98 603.61,317.56 603.12,312.02 602.47,306.37 601.66,300.62 600.69,294.78 599.56,288.87 598.27,282.88 596.84,276.85 595.26,270.76 593.53,264.65 591.67,258.52 589.68,252.37 587.56,246.23 585.33,240.09 582.97,233.98 580.52,227.89 577.96,221.85 575.30,215.85 572.56,209.90 569.74,204.02 566.84,198.21 563.87,192.47 560.83,186.81 557.74,181.24 554.60,175.76 551.41,170.37 548.18,165.08 544.91,159.89 541.60,154.81 538.27,149.83 534.91,144.95 531.52,140.19 528.12,135.54 524.70,131.00 521.27,126.57 517.82,122.25 514.36,118.04 510.90,113.95 507.42,109.97 503.94,106.10 500.45,102.33 496.96,98.68 493.47,95.14 489.97,91.71 486.46,88.38 482.95,85.16 479.43,82.04 475.91,79.02 472.39,76.11 468.85,73.30 465.31,70.59 461.76,67.98 458.20,65.46 454.63,63.05 451.04,60.72 447.45,58.49 443.83,56.36 440.20,54.31 436.56,52.36 432.89,50.50 429.20,48.72 425.48,47.03 421.75,45.43 417.98,43.92 414.19,42.49" fill="none" stroke="#000" stroke-width="6" stroke-linecap="round"/>
<polyline points="73.12,155.03 70.71,158.89 68.53,162.72 66.57,166.49 64.85,170.22 63.35,173.90 62.08,177.51 61.03,181.05 60.20,184.52 59.58,187.92 59.18,191.24 58.99,194.47 58.99,197.62 59.20,200.69 59.59,203.67 60.18,206.55 60.94,209.35 61.87,212.05 62.98,214.66 64.24,217.19 65.67,219.62 67.24,221.96 68.96,224.21 70.81,226.37 72.81,228.45 74.92,230.45 77.17,232.36 79.53,234.20 82.00,235.95 84.58,237.63 87.26,239.24 90.05,240.78 92.93,242.26 95.90,243.67 98.96,245.02 102.11,246.32 105.33,247.56 108.64,248.75 112.02,249.89 115.47,250.99 118.99,252.05 122.58,253.07 126.23,254.05 129.95,255.01 133.72,255.94 137.56,256.85 141.45,257.74 145.39,258.61 149.39,259.47 153.44,260.31 157.54,261.16 161.69,262.00 165.89,262.84 170.13,263.69 174.41,264.54 178.74,265.41 183.12,266.29 187.53,267.19 191.98,268.11 196.48,269.06 201.01,270.04 205.57,271.06 210.18,272.11 214.81,273.20 219.48,274.33 224.19,275.51 228.92,276.75 233.68,278.04 238.48,279.39 243.29,280.80 248.14,282.28 253.00,283.83 257.89,285.45 262.80,287.15 267.73,288.93 272.67,290.79 277.63,292.75 282.60,294.79 287.58,296.93 292.56,299.17 297.54,301.51 302.53,303.96 307.51,306.52 312.48,309.18 317.45,311.96 322.39,314.86 327.32,317.88 332.22,321.02 337.09,324.28 341.93,327.67 346.73,331.18 351.47,334.82 356.17,338.59 360.80,342.49 365.37,346.51 369.86,350.67 374.28,354.95 378.60,359.35 382.82,363.88 386.94,368.53 390.95,373.30 394.84,378.18 398.59,383.16 402.20,388.25 405.67,393.44 408.98,398.72 412.13,404.08 415.10,409.52 417.89,415.02 420.49,420.59 422.90,426.21 425.11,431.86 427.10,437.55 428.89,443.26 430.45,448.98 431.79,454.69 432.90,460.40 433.78,466.08 434.43,471.73 434.85,477.34 435.03,482.89 434.98,488.38 434.70,493.79 434.19,499.12 433.45,504.35 432.49,509.49 431.30,514.52 429.91,519.43 428.30,524.22 426.49,528.88 424.48,533.40 422.28,537.79 419.90,542.04 417.35,546.14 414.62,550.10 411.74,553.90 408.70,557.56 405.52,561.06 402.20,564.40 398.75,567.59 395.18,570.63 391.49,573.52 387.71,576.25 383.82,578.83 379.84,581.27 375.77,583.55 371.63,585.69 367.41,587.69 363.13,589.55 358.78,591.26 354.39,592.84 349.94,594.29 345.45,595.60 340.92,596.78 336.35,597.84 331.75,598.77 327.13,599.58 322.49,600.27 317.82,600.84 313.14,601.30 308.45,601.64 303.75,601.88 299.04,602.00 294.33,602.02 289.61,601.93 284.90,601.74 280.20,601.45 275.50,601.06 270.80,600.57 266.12,599.98 261.45,599.30 256.80,598.53 252.16,597.66 247.53,596.70 242.93,595.65 238.35,594.51 233.79,593.29 229.26,591.97 224.75,590.57 220.27,589.08 215.81,587.51" fill="none" stroke="#000" stroke-width="6" stroke-linecap="round"/>
</svg>