<svg width="630.0" height="630.0" viewBox="0 0 630.0 630.0" fill="none" stroke="black" stroke-width="6" stroke-linecap="round" stroke-linejoin="round" xmlns="http://www.w3.org/2000/svg">
  <circle cx="315.0" cy="315.0" r="290.0" fill="white"/>
  <polyline points="408.20,153.57 411.53,157.25 414.82,160.98 418.08,164.77 421.30,168.61 424.48,172.51 427.62,176.47 430.71,180.48 433.76,184.55 436.75,188.69 439.68,192.88 442.56,197.15 445.37,201.47 448.12,205.87 450.79,210.33 453.40,214.86 455.93,219.47 458.38,224.14 460.74,228.89 463.02,233.71 465.20,238.61 467.29,243.58 469.27,248.62 471.15,253.75 472.92,258.94 474.57,264.22 476.10,269.57 477.50,275.00 478.78,280.50 479.91,286.07 480.91,291.72 481.75,297.43 482.45,303.22 482.99,309.07 483.36,314.98 483.56,320.96 483.59,326.99 483.43,333.07 483.09,339.20 482.56,345.37 481.84,351.58 480.91,357.82 479.77,364.08 478.43,370.36 476.87,376.65 475.09,382.93 473.10,389.21 470.88,395.47 468.43,401.70 465.76,407.90 462.87,414.04 459.74,420.13 456.40,426.14 452.82,432.07 449.03,437.91 445.02,443.64 440.80,449.25 436.37,454.73 431.73,460.08 426.90,465.27 421.89,470.30 416.69,475.15 411.33,479.83 405.81,484.31 400.13,488.59 394.32,492.66 388.38,496.52 382.32,500.16 376.16,503.58 369.91,506.76 363.58,509.71 357.19,512.42 350.73,514.90 344.24,517.14 337.71,519.14 331.16,520.90 324.60,522.43 318.05,523.72 311.50,524.78 304.98,525.61 298.49,526.22 292.03,526.61 285.62,526.79 279.27,526.76 272.97,526.52 266.74,526.09 260.59,525.47 254.51,524.66 248.51,523.67 242.60,522.51 236.77,521.18 231.04,519.69 225.41,518.05 219.87,516.26 214.42,514.33 209.08,512.26 203.84,510.06 198.70,507.73 193.66,505.29 188.73,502.73 183.89,500.06 179.16,497.28 174.53,494.41 170.00,491.44 165.56,488.38 161.23,485.23 157.00,482.00 152.86,478.69 148.81,475.30 144.86,471.85 141.01,468.32 137.24,464.73 133.57,461.08 129.98,457.36 126.48,453.59 123.06,449.77 119.73,445.90 116.47,441.97 113.30,438.01 110.21,433.99 107.20,429.94 104.26,425.84 101.39,421.71 98.60,417.55 95.88,413.35 93.23,409.11 90.65,404.85 88.14,400.57 85.69,396.25 83.31,391.92 80.99,387.56 78.74,383.18 76.54,378.79 74.41,374.38 72.34,369.95 70.33,365.52 68.38,361.08 66.48,356.62 64.64,352.17 62.87,347.71 61.14,343.25 59.48,338.80 57.87,334.35 56.31,329.90 54.82,325.47 53.38,321.06 51.99,316.66 50.67,312.28 49.40,307.92 48.19,303.60 47.04,299.30 45.95,295.05 44.92,290.83 43.95,286.65 43.04,282.53 42.21,278.46 41.43,274.45 40.73,270.51 40.10,266.63 39.54,262.84 39.05,259.12 38.64,255.50 38.31,251.97 38.05,248.54 37.89,245.23 37.80,242.02 37.81,238.95 37.91,236.00 38.10,233.19 38.38,230.53 38.76,228.02 39.25,225.67 39.83,223.48"/>
  <polyline points="275.91,27.65 275.39,27.81 275.07,28.12 274.93,28.57 274.99,29.15 275.22,29.87 275.64,30.71 276.24,31.68 277.01,32.76 277.94,33.96 279.04,35.27 280.29,36.69 281.70,38.20 283.25,39.81 284.94,41.51 286.77,43.30 288.72,45.17 290.80,47.11 292.99,49.13 295.29,51.22 297.70,53.38 300.20,55.60 302.80,57.88 305.49,60.21 308.26,62.60 311.10,65.05 314.02,67.54 317.00,70.07 320.05,72.65 323.15,75.28 326.31,77.95 329.52,80.65 332.76,83.40 336.05,86.19 339.38,89.01 342.74,91.87 346.12,94.77 349.53,97.71 352.97,100.68 356.42,103.69 359.88,106.73 363.36,109.81 366.84,112.93 370.33,116.09 373.82,119.29 377.31,122.52 380.79,125.80 384.27,129.12 387.74,132.47 391.20,135.88 394.64,139.32 398.07,142.81 401.47,146.35 404.85,149.93 408.20,153.57 411.53,157.25 414.82,160.98 418.08,164.77 421.30,168.61 424.48,172.51 427.62,176.47 430.71,180.48 433.76,184.55 436.75,188.69 439.68,192.88 442.56,197.15 445.37,201.47 448.12,205.87 450.79,210.33 453.40,214.86 455.93,219.47 458.38,224.14 460.74,228.89 463.02,233.71 465.20,238.61 467.29,243.58 469.27,248.62 471.15,253.75 472.92,258.94 474.57,264.22 476.10,269.57 477.50,275.00 478.78,280.50 479.91,286.07 480.91,291.72 481.75,297.43 482.45,303.22 482.99,309.07 483.36,314.98 483.56,320.96 483.59,326.99 483.43,333.07 483.09,339.20 482.56,345.37 481.84,351.58 480.91,357.82 479.77,364.08 478.43,370.36 476.87,376.65 475.09,382.93 473.10,389.21 470.88,395.47 468.43,401.70 465.76,407.90 462.87,414.04 459.74,420.13 456.40,426.14 452.82,432.07 449.03,437.91 445.02,443.64 440.80,449.25 436.37,454.73 431.73,460.08 426.90,465.27 421.89,470.30 416.69,475.15 411.33,479.83 405.81,484.31 400.13,488.59 394.32,492.66 388.38,496.52 382.32,500.16 376.16,503.58 369.91,506.76 363.58,509.71 357.19,512.42 350.73,514.90 344.24,517.14 337.71,519.14 331.16,520.90 324.60,522.43 318.05,523.72 311.50,524.78 304.98,525.61 298.49,526.22 292.03,526.61 285.62,526.79 279.27,526.76 272.97,526.52 266.74,526.09 260.59,525.47 254.51,524.66 248.51,523.67 242.60,522.51 236.77,521.18 231.04,519.69 225.41,518.05 219.87,516.26 214.42,514.33 209.08,512.26 203.84,510.06 198.70,507.73 193.66,505.29 188.73,502.73 183.89,500.06 179.16,497.28 174.53,494.41 170.00,491.44 165.56,488.38 161.23,485.23 157.00,482.00 152.86,478.69 148.81,475.30 144.86,471.85 141.01,468.32 137.24,464.73 133.57,461.08 129.98,457.36 126.48,453.59 123.06,449.77 119.73,445.90 116.47,441.97 113.30,438.01 110.21,433.99 107.20,429.94 104.26,425.84 101.39,421.71 98.60,417.55 95.88,413.35 93.23,409.11 90.65,404.85 88.14,400.57 85.69,396.25 83.31,391.92 80.99,387.56 78.74,383.18 76.54,378.79 74.41,374.38 72.34,369.95 70.33,365.52 68.38,361.08 66.48,356.62 64.64,352.17 62.87,347.71 61.14,343.25 59.48,338.80 57.87,334.35 56.31,329.90 54.82,325.47 53.38,321.06 51.99,316.66 50.67,312.28 49.40,307.92 48.19,303.60 47.04,299.30 45.95,295.05 44.92,290.83 43.95,286.65 43.04,282.53 42.21,278.46 41.43,274.45 40.73,270.51 40.10,266.63 39.54,262.84 39.05,259.12 38.64,255.50 38.31,251.97 38.05,248.54 37.89,245.23 37.80,242.02 37.81,238.95 37.91,236.00 38.10,233.19 38.38,230.53 38.76,228.02 39.25,225.67 39.83,223.48"/>
  <polyline points="275.91,27.65 275.39,27.81 275.07,28.12 274.93,28.57 274.99,29.15 275.22,29.87 275.64,30.71 276.24,31.68 277.01,32.76 277.94,33.96 279.04,35.27 280.29,36.69 281.70,38.20 283.25,39.81 284.94,41.51 286.77,43.30 288.72,45.17 290.80,47.11 292.99,49.13 295.29,51.22 297.70,53.38 300.20,55.60 302.80,57.88 305.49,60.21 308.26,62.60 311.10,65.05 314.02,67.54 317.00,70.07 320.05,72.65 323.15,75.28 326.31,77.95 329.52,80.65 332.76,83.40 336.05,86.19 339.38,89.01 342.74,91.87 346.12,94.77 349.53,97.71 352.97,100.68 356.42,103.69 359.88,106.73 363.36,109.81 366.84,112.93 370.33,116.09 373.82,119.29 377.31,122.52 380.79,125.80 384.27,129.12 387.74,132.47 391.20,135.88 394.64,139.32 398.07,142.81 401.47,146.35 404.85,149.93 408.20,153.57"/>
</svg>