<svg width="630.0" height="630.0" viewBox="0 0 630.0 630.0" xmlns="http://www.w3.org/2000/svg">
<circle cx="315.0" cy="315.0" r="290.0" fill="#fff" stroke="#000" stroke-width="6"/>
<polyline points="583.06,204.38 580.40,198.22 577.57,192.09 574.57,186.01 571.41,179.98 568.10,174.02 564.64,168.13 561.05,162.33 557.33,156.62 553.49,151.01 549.54,145.50 545.49,140.11 541.35,134.84 537.12,129.69 532.82,124.67 528.46,119.79 524.03,115.04 519.55,110.43 515.03,105.95 510.46,101.62 505.87,97.44 501.25,93.40 496.61,89.50 491.96,85.75 487.30,82.15 482.63,78.69 477.96,75.37 473.29,72.19 468.63,69.15 463.98,66.26 459.34,63.50 454.71,60.88" fill="none" stroke="#000" stroke-width="6" stroke-linecap="round"/>
<polyline points="38.32,228.14 37.52,231.05 36.94,233.85 36.56,236.54 36.40,239.10 36.44,241.54 36.68,243.85 37.11,246.04 37.74,248.10 38.55,250.03 39.54,251.84 40.71,253.51 42.04,255.06 43.53,256.48 45.18,257.77 46.98,258.94 48.92,259.99 51.00,260.92 53.21,261.73 55.55,262.43 58.00,263.02 60.57,263.50 63.24,263.88 66.02,264.16 68.89,264.34 71.86,264.42 74.92,264.42 78.06,264.33 81.28,264.15 84.58,263.90 87.95,263.58 91.38,263.18 94.89,262.72 98.46,262.19 102.09,261.61 105.78,260.97 109.52,260.28 113.32,259.55 117.17,258.77 121.07,257.95 125.01,257.09 129.01,256.21 133.05,255.29 137.14,254.35 141.27,253.39 145.44,252.42 149.66,251.42 153.92,250.42 158.22,249.42 162.56,248.41 166.94,247.40 171.35,246.40 175.81,245.40 180.31,244.42 184.85,243.45 189.43,242.50 194.04,241.57 198.70,240.67 203.39,239.80 208.12,238.96 212.89,238.16 217.70,237.40 222.55,236.69 227.44,236.02 232.37,235.41 237.33,234.85 242.33,234.35 247.37,233.92 252.45,233.55 257.57,233.25 262.72,233.04 267.91,232.90 273.13,232.84 278.39,232.88 283.69,233.00 289.01,233.23 294.37,233.55 299.76,233.99 305.17,234.53 310.62,235.18 316.08,235.96 321.57,236.86 327.08,237.88 332.61,239.04 338.15,240.34 343.70,241.77 349.25,243.35 354.81,245.08 360.37,246.96 365.91,248.99 371.45,251.19 376.97,253.55 382.46,256.07 387.93,258.76 393.35,261.63 398.73,264.66 404.06,267.87 409.33,271.26 414.53,274.82 419.66,278.55 424.69,282.46 429.64,286.54 434.47,290.80 439.19,295.22 443.79,299.81 448.25,304.57 452.57,309.48 456.74,314.54 460.74,319.75 464.56,325.09 468.21,330.57 471.66,336.17 474.91,341.89 477.96,347.71 480.79,353.63 483.39,359.63 485.77,365.70 487.92,371.84 489.82,378.03 491.49,384.25 492.91,390.51 494.09,396.78 495.02,403.05 495.70,409.32 496.14,415.57 496.33,421.79 496.28,427.97 495.99,434.09 495.46,440.16 494.71,446.16 493.73,452.08 492.53,457.92 491.12,463.66 489.50,469.31 487.68,474.84 485.67,480.27 483.48,485.58 481.10,490.77 478.56,495.83 475.86,500.77 473.00,505.58 469.99,510.25 466.85,514.80 463.57,519.20 460.18,523.47 456.66,527.60 453.03,531.60 449.30,535.46 445.47,539.19 441.55,542.78 437.55,546.23 433.47,549.55 429.31,552.74 425.08,555.80 420.79,558.73 416.45,561.53 412.04,564.21 407.59,566.76 403.09,569.19 398.55,571.50 393.96,573.69 389.35,575.77 384.70,577.73 380.02,579.57 375.31,581.31 370.58,582.93 365.83,584.45 361.06,585.86 356.27,587.17 351.47,588.38 346.65,589.48 341.82,590.49 336.99,591.39 332.14,592.20 327.30,592.92 322.44,593.54 317.59,594.07 312.73,594.51 307.88,594.86 303.03,595.12 298.18,595.29 293.33,595.37 288.50,595.37 283.67,595.28 278.85,595.11 274.04,594.85 269.25,594.51 264.47,594.09 259.70,593.59 254.95,593.01 250.23,592.34 245.52,591.59 240.84,590.77 236.19,589.86 231.56,588.88 226.96,587.81 222.40,586.67 217.87,585.45 213.38,584.15 208.93,582.77 204.52,581.31 200.16,579.78 195.86,578.16 191.61,576.47 187.41,574.69 183.28,572.84 179.22,570.92 175.22,568.91 171.31,566.82 167.47,564.66" fill="none" stroke="#000" stroke-width="6" stroke-linecap="round"/>
<polyline points="583.06,204.38 580.40,198.22 577.57,192.09 574.57,186.01 571.41,179.98 568.10,174.02 564.64,168.13 561.05,162.33 557.33,156.62 553.49,151.01 549.54,145.50 545.49,140.11 541.35,134.84 537.12,129.69 532.82,124.67 528.46,119.79 524.03,115.04 519.55,110.43 515.03,105.95 510.46,101.62 505.87,97.44 501.25,93.40 496.61,89.50 491.96,85.75 487.30,82.15 482.63,78.69 477.96,75.37 473.29,72.19 468.63,69.15 463.98,66.26 459.34,63.50 454.71,60.88" fill="none" stroke="#000" stroke-width="6" stroke-linecap="round"/>
<polyline points="38.32,228.14 37.52,231.05 36.94,233.85 36.56,236.54 36.40,239.10 36.44,241.54 36.68,243.85 37.11,246.04 37.74,248.10 38.55,250.03 39.54,251.84 40.71,253.51 42.04,255.06 43.53,256.48 45.18,257.77 46.98,258.94 48.92,259.99 51.00,260.92 53.21,261.73 55.55,262.43 58.00,263.02 60.57,263.50 63.24,263.88 66.02,264.16 68.89,264.34 71.86,264.42 74.92,264.42 78.06,264.33 81.28,264.15 84.58,263.90 87.95,263.58 91.38,263.18 94.89,262.72 98.46,262.19 102.09,261.61 105.78,260.97 109.52,260.28 113.32,259.55 117.17,258.77 121.07,257.95 125.01,257.09 129.01,256.21 133.05,255.29 137.14,254.35 141.27,253.39 145.44,252.42 149.66,251.42 153.92,250.42 158.22,249.42 162.56,248.41 166.94,247.40 171.35,246.40 175.81,245.40 180.31,244.42 184.85,243.45 189.43,242.50 194.04,241.57 198.70,240.67 203.39,239.80 208.12,238.96 212.89,238.16 217.70,237.40 222.55,236.69 227.44,236.02 232.37,235.41 237.33,234.85 242.33,234.35 247.37,233.92 252.45,233.55 257.57,233.25 262.72,233.04 267.91,232.90 273.13,232.84 278.39,232.88 283.69,233.00 289.01,233.23 294.37,233.55 299.76,233.99 305.17,234.53 310.62,235.18 316.08,235.96 321.57,236.86 327.08,237.88 332.61,239.04 338.15,240.34 343.70,241.77 349.25,243.35 354.81,245.08 360.37,246.96 365.91,248.99 371.45,251.19 376.97,253.55 382.46,256.07 387.93,258.76 393.35,261.63 398.73,264.66 404.06,267.87 409.33,271.26 414.53,274.82 419.66,278.55 424.69,282.46 429.64,286.54 434.47,290.80 439.19,295.22 443.79,299.81 448.25,304.57 452.57,309.48 456.74,314.54 460.74,319.75 464.56,325.09 468.21,330.57 471.66,336.17 474.91,341.89 477.96,347.71 480.79,353.63 483.39,359.63 485.77,365.70 487.92,371.84 489.82,378.03 491.49,384.25 492.91,390.51 494.09,396.78 495.02,403.05 495.70,409.32 496.14,415.57 496.33,421.79 496.28,427.97 495.99,434.09 495.46,440.16 494.71,446.16 493.73,452.08 492.53,457.92 491.12,463.66 489.50,469.31 487.68,474.84 485.67,480.27 483.48,485.58 481.10,490.77 478.56,495.83 475.86,500.77 473.00,505.58 469.99,510.25 466.85,514.80 463.57,519.20 460.18,523.47 456.66,527.60 453.03,531.60 449.30,535.46 445.47,539.19 441.55,542.78 437.55,546.23 433.47,549.55 429.31,552.74 425.08,555.80 420.79,558.73 416.45,561.53 412.04,564.21 407.59,566.76 403.09,569.19 398.55,571.50 393.96,573.69 389.35,575.77 384.70,577.73 380.02,579.57 375.31,581.31 370.58,582.93 365.83,584.45 361.06,585.86 356.27,587.17 351.47,588.38 346.65,589.48 341.82,590.49 336.99,591.39 332.14,592.20 327.30,592.92 322.44,593.54 317.59,594.07 312.73,594.51 307.88,594.86 303.03,595.12 298.18,595.29 293.33,595.37 288.50,595.37 283.67,595.28 278.85,595.11 274.04,594.85 269.25,594.51 264.47,594.09 259.70,593.59 254.95,593.01 250.23,592.34 245.52,591.59 240.84,590.77 236.19,589.86 231.56,588.88 226.96,587.81 222.40,586.67 217.87,585.45 213.38,584.15 208.93,582.77 204.52,581.31 200.16,579.78 195.86,578.16 191.61,576.47 187.41,574.69 183.28,572.84 179.22,570.92 175.22,568.91 171.31,566.82 167.47,564.66" fill="none" stroke="#000" stroke-width="6" stroke-linecap="round"/>
</svg>