<svg width="630.0" height="630.0" viewBox="0 0 630.0 630.0" xmlns="http://www.w3.org/2000/svg">
<circle cx="315.0" cy="315.0" r="290.0" fill="#fff" stroke="#000" stroke-width="6"/>
<polyline points="604.81,304.83 604.63,302.61 604.30,300.25 603.83,297.73 603.21,295.07 602.44,292.26 601.52,289.30 600.44,286.20 599.20,282.94 597.79,279.54 596.23,275.99 594.50,272.30 592.60,268.47 590.54,264.51 588.31,260.42 585.91,256.20 583.35,251.86 580.62,247.40 577.73,242.84 574.69,238.18 571.48,233.43 568.13,228.59 564.64,223.67 561.00,218.69 557.23,213.66 553.33,208.57 549.32,203.44 545.19,198.29 540.96,193.12 536.64,187.94 532.23,182.75 527.74,177.58 523.18,172.42 518.57,167.30 513.91,162.20 509.20,157.15 504.47,152.15 499.71,147.21 494.94,142.33 490.16,137.53 485.39,132.80 480.62,128.15 475.87,123.59 471.15,119.12 466.45,114.74 461.79,110.46 457.17,106.28 452.59,102.21 448.06,98.24 443.59,94.37 439.17,90.61 434.81,86.97 430.51,83.43 426.27,80.00 422.10,76.68 417.99,73.47 413.95,70.37 409.98,67.38 406.07,64.51 402.23,61.74 398.46,59.07 394.75,56.52 391.10,54.07 387.52,51.73 384.00,49.49 380.54,47.36 377.14,45.33 373.79,43.40 370.50,41.57 367.26,39.85 364.07,38.22 360.93,36.69 357.84,35.26 354.79,33.92 351.77,32.68 348.80,31.54 345.86,30.48 342.95,29.53 340.07,28.66 337.22,27.89 334.39,27.21 331.58,26.62 328.79,26.13 326.01,25.72 323.25,25.41 320.50,25.18 317.75,25.05 315.00,25.00" fill="none" stroke="#000" stroke-width="6" stroke-linecap="round"/>
<polyline points="25.14,306.91 25.22,308.85 25.43,310.65 25.77,312.31 26.23,313.84 26.80,315.24 27.50,316.51 28.30,317.66 29.21,318.69 30.23,319.61 31.35,320.41 32.57,321.11 33.88,321.70 35.29,322.20 36.79,322.60 38.38,322.91 40.06,323.13 41.82,323.27 43.66,323.33 45.58,323.32 47.59,323.24 49.67,323.09 51.83,322.88 54.06,322.61 56.37,322.29 58.75,321.92 61.21,321.50 63.74,321.05 66.33,320.55 69.00,320.02 71.74,319.46 74.55,318.87 77.42,318.26 80.37,317.63 83.39,316.98 86.47,316.33 89.62,315.67 92.85,315.00 96.14,314.33 99.50,313.67 102.93,313.02 106.43,312.37 110.00,311.74 113.64,311.13 117.34,310.54 121.12,309.98 124.97,309.45 128.90,308.95 132.89,308.50 136.95,308.08 141.09,307.71 145.30,307.39 149.58,307.12 153.93,306.91 158.36,306.76 162.86,306.68 167.43,306.67 172.07,306.73 176.79,306.87 181.57,307.09 186.43,307.40 191.36,307.80 196.35,308.30 201.42,308.89 206.55,309.59 211.75,310.39 217.01,311.31 222.33,312.34 227.71,313.49 233.15,314.76 238.65,316.16 244.19,317.69 249.78,319.35 255.41,321.15 261.08,323.09 266.79,325.17 272.52,327.39 278.28,329.75 284.06,332.27 289.84,334.93 295.63,337.74 301.41,340.70 307.18,343.80 312.93,347.06 318.65,350.46 324.33,354.01 329.96,357.70 335.54,361.53 341.04,365.49 346.47,369.58 351.81,373.80 357.05,378.14 362.18,382.60 367.19,387.16 372.07,391.82 376.81,396.57 381.40,401.41 385.83,406.33 390.09,411.31 394.17,416.34 398.06,421.43 401.77,426.56 405.27,431.71 408.57,436.88 411.66,442.06 414.53,447.25 417.19,452.42 419.62,457.58 421.83,462.70 423.82,467.80 425.58,472.85 427.11,477.85 428.43,482.79 429.52,487.67 430.40,492.47 431.06,497.20 431.50,501.85 431.74,506.41 431.78,510.88 431.61,515.26 431.26,519.54 430.71,523.72 429.99,527.79 429.09,531.76 428.02,535.63 426.78,539.39 425.39,543.03 423.84,546.57 422.15,550.00 420.32,553.32 418.35,556.53 416.26,559.63 414.05,562.62 411.72,565.49 409.29,568.26 406.74,570.93 404.10,573.48 401.37,575.93 398.55,578.27 395.64,580.51 392.65,582.64 389.59,584.67 386.46,586.60 383.27,588.43 380.01,590.15 376.70,591.78 373.33,593.31 369.91,594.74 366.45,596.08 362.95,597.32 359.40,598.46 355.82,599.52 352.21,600.47 348.57,601.34 344.90,602.11 341.22,602.79 337.51,603.38 333.78,603.87 330.04,604.28 326.29,604.59 322.53,604.82 318.77,604.95 315.00,605.00" fill="none" stroke="#000" stroke-width="6" stroke-linecap="round"/>
<polyline points="604.81,304.83 604.63,302.61 604.30,300.25 603.83,297.73 603.21,295.07 602.44,292.26 601.52,289.30 600.44,286.20 599.20,282.94 597.79,279.54 596.23,275.99 594.50,272.30 592.60,268.47 590.54,264.51 588.31,260.42 585.91,256.20 583.35,251.86 580.62,247.40 577.73,242.84 574.69,238.18 571.48,233.43 568.13,228.59 564.64,223.67 561.00,218.69 557.23,213.66 553.33,208.57 549.32,203.44 545.19,198.29 540.96,193.12 536.64,187.94 532.23,182.75 527.74,177.58 523.18,172.42 518.57,167.30 513.91,162.20 509.20,157.15 504.47,152.15 499.71,147.21 494.94,142.33 490.16,137.53 485.39,132.80 480.62,128.15 475.87,123.59 471.15,119.12 466.45,114.74 461.79,110.46 457.17,106.28 452.59,102.21 448.06,98.24 443.59,94.37 439.17,90.61 434.81,86.97 430.51,83.43 426.27,80.00 422.10,76.68 417.99,73.47 413.95,70.37 409.98,67.38 406.07,64.51 402.23,61.74 398.46,59.07 394.75,56.52 391.10,54.07 387.52,51.73 384.00,49.49 380.54,47.36 377.14,45.33 373.79,43.40 370.50,41.57 367.26,39.85 364.07,38.22 360.93,36.69 357.84,35.26 354.79,33.92 351.77,32.68 348.80,31.54 345.86,30.48 342.95,29.53 340.07,28.66 337.22,27.89 334.39,27.21 331.58,26.62 328.79,26.13 326.01,25.72 323.25,25.41 320.50,25.18 317.75,25.05 315.00,25.00" fill="none" stroke="#000" stroke-width="6" stroke-linecap="round"/>
<polyline points="25.14,306.91 25.22,308.85 25.43,310.65 25.77,312.31 26.23,313.84 26.80,315.24 27.50,316.51 28.30,317.66 29.21,318.69 30.23,319.61 31.35,320.41 32.57,321.11 33.88,321.70 35.29,322.20 36.79,322.60 38.38,322.91 40.06,323.13 41.82,323.27 43.66,323.33 45.58,323.32 47.59,323.24 49.67,323.09 51.83,322.88 54.06,322.61 56.37,322.29 58.75,321.92 61.21,321.50 63.74,321.05 66.33,320.55 69.00,320.02 71.74,319.46 74.55,318.87 77.42,318.26 80.37,317.63 83.39,316.98 86.47,316.33 89.62,315.67 92.85,315.00 96.14,314.33 99.50,313.67 102.93,313.02 106.43,312.37 110.00,311.74 113.64,311.13 117.34,310.54 121.12,309.98 124.97,309.45 128.90,308.95 132.89,308.50 136.95,308.08 141.09,307.71 145.30,307.39 149.58,307.12 153.93,306.91 158.36,306.76 162.86,306.68 167.43,306.67 172.07,306.73 176.79,306.87 181.57,307.09 186.43,307.40 191.36,307.80 196.35,308.30 201.42,308.89 206.55,309.59 211.75,310.39 217.01,311.31 222.33,312.34 227.71,313.49 233.15,314.76 238.65,316.16 244.19,317.69 249.78,319.35 255.41,321.15 261.08,323.09 266.79,325.17 272.52,327.39 278.28,329.75 284.06,332.27 289.84,334.93 295.63,337.74 301.41,340.70 307.18,343.80 312.93,347.06 318.65,350.46 324.33,354.01 329.96,357.70 335.54,361.53 341.04,365.49 346.47,369.58 351.81,373.80 357.05,378.14 362.18,382.60 367.19,387.16 372.07,391.82 376.81,396.57 381.40,401.41 385.83,406.33 390.09,411.31 394.17,416.34 398.06,421.43 401.77,426.56 405.27,431.71 408.57,436.88 411.66,442.06 414.53,447.25 417.19,452.42 419.62,457.58 421.83,462.70 423.82,467.80 425.58,472.85 427.11,477.85 428.43,482.79 429.52,487.67 430.40,492.47 431.06,497.20 431.50,501.85 431.74,506.41 431.78,510.88 431.61,515.26 431.26,519.54 430.71,523.72 429.99,527.79 429.09,531.76 428.02,535.63 426.78,539.39 425.39,543.03 423.84,546.57 422.15,550.00 420.32,553.32 418.35,556.53 416.26,559.63 414.05,562.62 411.72,565.49 409.29,568.26 406.74,570.93 404.10,573.48 401.37,575.93 398.55,578.27 395.64,580.51 392.65,582.64 389.59,584.67 386.46,586.60 383.27,588.43 380.01,590.15 376.70,591.78 373.33,593.31 369.91,594.74 366.45,596.08 362.95,597.32 359.40,598.46 355.82,599.52 352.21,600.47 348.57,601.34 344.90,602.11 341.22,602.79 337.51,603.38 333.78,603.87 330.04,604.28 326.29,604.59 322.53,604.82 318.77,604.95 315.00,605.00" fill="none" stroke="#000" stroke-width="6" stroke-linecap="round"/>
</svg>