<svg width="630.0" height="630.0" viewBox="0 0 630.0 630.0" fill="none" stroke="black" stroke-width="6" stroke-linecap="round" stroke-linejoin="round" xmlns="http://www.w3.org/2000/svg">
  <circle cx="315.0" cy="315.0" r="290.0" fill="white"/>
  <polyline points="417.53,492.59 422.29,491.40 427.03,490.16 431.73,488.86 436.39,487.52 441.03,486.14 445.63,484.72 450.19,483.26 454.72,481.76 459.21,480.23 463.67,478.67 468.09,477.08 472.47,475.47 476.81,473.84 481.11,472.18 485.37,470.51 489.59,468.83 493.76,467.14 497.88,465.43 501.95,463.73 505.97,462.02 509.94,460.31 513.86,458.60 517.71,456.90 521.50,455.21 525.23,453.53 528.89,451.86 532.47,450.22 535.98,448.59 539.41,446.99 542.76,445.42 546.02,443.87 549.18,442.36 552.25,440.89 555.21,439.46 558.06,438.07 560.79,436.73 563.40,435.44 565.89,434.20 568.24,433.02 570.45,431.90 572.51,430.84 574.42,429.85 576.17,428.93 577.75,428.08 579.15,427.30 580.38,426.61 581.42,425.99 582.26,425.45 582.91,425.00 583.35,424.64 583.58,424.37"/>
  <polyline points="533.18,123.96 532.07,122.85 530.75,121.73 529.23,120.61 527.51,119.49 525.61,118.36 523.53,117.24 521.28,116.12 518.86,115.00 516.28,113.89 513.56,112.78 510.70,111.67 507.69,110.58 504.56,109.50 501.31,108.42 497.95,107.36 494.47,106.31 490.90,105.28 487.22,104.26 483.46,103.26 479.61,102.28 475.67,101.32 471.67,100.38 467.59,99.47 463.44,98.57 459.23,97.71 454.97,96.87 450.65,96.06 446.27,95.28 441.85,94.53 437.38,93.82 432.87,93.14 428.32,92.49 423.73,91.89 419.11,91.33 414.46,90.81 409.77,90.33 405.06,89.90 400.32,89.51 395.55,89.18 390.76,88.89 385.95,88.66 381.12,88.48 376.27,88.37 371.40,88.31 366.52,88.31 361.62,88.37 356.71,88.51 351.78,88.70 346.84,88.97 341.90,89.32 336.94,89.73 331.97,90.23 327.00,90.80 322.03,91.46 317.05,92.20 312.06,93.03 307.08,93.95 302.09,94.96 297.11,96.07 292.13,97.28 287.15,98.59 282.18,100.00 277.22,101.52 272.27,103.16 267.33,104.90 262.41,106.76 257.51,108.74 252.62,110.85 247.76,113.08 242.92,115.44 238.11,117.93 233.34,120.55 228.60,123.31 223.90,126.22 219.24,129.26 214.64,132.46 210.08,135.80 205.59,139.29 201.15,142.94 196.79,146.74 192.50,150.70 188.30,154.82 184.17,159.10 180.15,163.53 176.22,168.13 172.40,172.90 168.70,177.82 165.12,182.90 161.67,188.15 158.35,193.55 155.19,199.10 152.18,204.81 149.33,210.66 146.65,216.66 144.15,222.80 141.84,229.07 139.72,235.46 137.80,241.97 136.09,248.60 134.60,255.32 133.33,262.13 132.29,269.03 131.48,276.00 130.91,283.02 130.58,290.09 130.50,297.20 130.66,304.33 131.07,311.47 131.73,318.60 132.63,325.72 133.79,332.80 135.18,339.84 136.82,346.82 138.70,353.73 140.81,360.56 143.15,367.29 145.71,373.91 148.48,380.42 151.46,386.80 154.64,393.04 158.01,399.14 161.57,405.08 165.29,410.86 169.18,416.47 173.23,421.90 177.42,427.16 181.74,432.24 186.19,437.12 190.76,441.82 195.44,446.33 200.21,450.65 205.07,454.78 210.02,458.71 215.04,462.46 220.12,466.01 225.26,469.37 230.45,472.55 235.69,475.54 240.97,478.36 246.27,480.99 251.61,483.45 256.96,485.73 262.33,487.85 267.71,489.80 273.10,491.59 278.49,493.23 283.89,494.71 289.28,496.04 294.66,497.23 300.03,498.28 305.39,499.19 310.74,499.97 316.07,500.62 321.39,501.15 326.68,501.56 331.96,501.85 337.21,502.03 342.44,502.10 347.64,502.07 352.82,501.93 357.97,501.70 363.09,501.38 368.19,500.96 373.26,500.46 378.30,499.87 383.31,499.21 388.29,498.47 393.24,497.65 398.16,496.77 403.05,495.82 407.91,494.80 412.73,493.72 417.53,492.59 422.29,491.40 427.03,490.16 431.73,488.86 436.39,487.52 441.03,486.14 445.63,484.72 450.19,483.26 454.72,481.76 459.21,480.23 463.67,478.67 468.09,477.08 472.47,475.47 476.81,473.84 481.11,472.18 485.37,470.51 489.59,468.83 493.76,467.14 497.88,465.43 501.95,463.73 505.97,462.02 509.94,460.31 513.86,458.60 517.71,456.90 521.50,455.21 525.23,453.53 528.89,451.86 532.47,450.22 535.98,448.59 539.41,446.99 542.76,445.42 546.02,443.87 549.18,442.36 552.25,440.89 555.21,439.46 558.06,438.07 560.79,436.73 563.40,435.44 565.89,434.20 568.24,433.02 570.45,431.90 572.51,430.84 574.42,429.85 576.17,428.93 577.75,428.08 579.15,427.30 580.38,426.61 581.42,425.99 582.26,425.45 582.91,425.00 583.35,424.64 583.58,424.37"/>
  <polyline points="533.18,123.96 532.07,122.85 530.75,121.73 529.23,120.61 527.51,119.49 525.61,118.36 523.53,117.24 521.28,116.12 518.86,115.00 516.28,113.89 513.56,112.78 510.70,111.67 507.69,110.58 504.56,109.50 501.31,108.42 497.95,107.36 494.47,106.31 490.90,105.28 487.22,104.26 483.46,103.26 479.61,102.28 475.67,101.32 471.67,100.38 467.59,99.47 463.44,98.57 459.23,97.71 454.97,96.87 450.65,96.06 446.27,95.28 441.85,94.53 437.38,93.82 432.87,93.14 428.32,92.49 423.73,91.89 419.11,91.33 414.46,90.81 409.77,90.33 405.06,89.90 400.32,89.51 395.55,89.18 390.76,88.89 385.95,88.66 381.12,88.48 376.27,88.37 371.40,88.31 366.52,88.31 361.62,88.37 356.71,88.51 351.78,88.70 346.84,88.97 341.90,89.32 336.94,89.73 331.97,90.23 327.00,90.80 322.03,91.46 317.05,92.20 312.06,93.03 307.08,93.95 302.09,94.96 297.11,96.07 292.13,97.28 287.15,98.59 282.18,100.00 277.22,101.52 272.27,103.16 267.33,104.90 262.41,106.76 257.51,108.74 252.62,110.85 247.76,113.08 242.92,115.44 238.11,117.93 233.34,120.55 228.60,123.31 223.90,126.22 219.24,129.26 214.64,132.46 210.08,135.80 205.59,139.29 201.15,142.94 196.79,146.74 192.50,150.70 188.30,154.82 184.17,159.10 180.15,163.53 176.22,168.13 172.40,172.90 168.70,177.82 165.12,182.90 161.67,188.15 158.35,193.55 155.19,199.10 152.18,204.81 149.33,210.66 146.65,216.66 144.15,222.80 141.84,229.07 139.72,235.46 137.80,241.97 136.09,248.60 134.60,255.32 133.33,262.13 132.29,269.03 131.48,276.00 130.91,283.02 130.58,290.09 130.50,297.20 130.66,304.33 131.07,311.47 131.73,318.60 132.63,325.72 133.79,332.80 135.18,339.84 136.82,346.82 138.70,353.73 140.81,360.56 143.15,367.29 145.71,373.91 148.48,380.42 151.46,386.80 154.64,393.04 158.01,399.14 161.57,405.08 165.29,410.86 169.18,416.47 173.23,421.90 177.42,427.16 181.74,432.24 186.19,437.12 190.76,441.82 195.44,446.33 200.21,450.65 205.07,454.78 210.02,458.71 215.04,462.46 220.12,466.01 225.26,469.37 230.45,472.55 235.69,475.54 240.97,478.36 246.27,480.99 251.61,483.45 256.96,485.73 262.33,487.85 267.71,489.80 273.10,491.59 278.49,493.23 283.89,494.71 289.28,496.04 294.66,497.23 300.03,498.28 305.39,499.19 310.74,499.97 316.07,500.62 321.39,501.15 326.68,501.56 331.96,501.85 337.21,502.03 342.44,502.10 347.64,502.07 352.82,501.93 357.97,501.70 363.09,501.38 368.19,500.96 373.26,500.46 378.30,499.87 383.31,499.21 388.29,498.47 393.24,497.65 398.16,496.77 403.05,495.82 407.91,494.80 412.73,493.72 417.53,492.59"/>
</svg>