<svg width="630.0" height="630.0" viewBox="0 0 630.0 630.0" xmlns="http://www.w3.org/2000/svg">
<circle cx="315.0" cy="315.0" r="290.0" fill="#fff" stroke="#000" stroke-width="6"/>
<polyline points="597.26,381.40 598.02,377.62 598.69,373.68 599.27,369.59 599.75,365.35 600.13,360.95 600.41,356.40 600.58,351.70 600.65,346.84 600.60,341.83 600.44,336.67 600.16,331.37 599.76,325.93 599.24,320.34 598.59,314.63 597.81,308.78 596.90,302.81 595.86,296.73 594.68,290.55 593.38,284.26 591.93,277.89 590.35,271.43 588.64,264.91 586.79,258.33 584.81,251.70 582.70,245.04 580.46,238.35 578.10,231.66 575.62,224.96 573.02,218.28 570.30,211.63 567.48,205.02 564.56,198.45 561.54,191.96 558.43,185.54 555.24,179.20 551.98,172.96 548.64,166.84 545.24,160.82 541.79,154.94 538.28,149.19 534.74,143.58 531.17,138.12 527.56,132.82 523.94,127.67 520.30,122.69 516.66,117.88 513.01,113.24 509.37,108.77 505.73,104.47 502.11,100.36 498.51,96.42 494.93,92.66 491.38,89.07 487.85,85.66 484.36,82.43 480.90,79.37 477.47,76.48 474.09,73.75 470.74,71.20 467.43,68.81 464.17,66.58 460.95,64.51 457.77,62.59" fill="none" stroke="#000" stroke-width="6" stroke-linecap="round"/>
<polyline points="33.48,245.37 33.86,244.11 34.38,242.78 35.03,241.39 35.81,239.93 36.71,238.42 37.73,236.86 38.87,235.24 40.12,233.58 41.48,231.88 42.94,230.14 44.51,228.37 46.19,226.57 47.95,224.74 49.82,222.89 51.78,221.01 53.83,219.13 55.96,217.23 58.19,215.32 60.49,213.40 62.89,211.48 65.36,209.56 67.91,207.65 70.54,205.74 73.24,203.85 76.02,201.96 78.88,200.10 81.80,198.25 84.80,196.43 87.87,194.63 91.01,192.86 94.22,191.13 97.50,189.43 100.84,187.77 104.26,186.15 107.73,184.57 111.28,183.05 114.89,181.58 118.56,180.16 122.30,178.80 126.10,177.51 129.96,176.28 133.88,175.12 137.87,174.04 141.92,173.03 146.03,172.10 150.19,171.26 154.42,170.51 158.71,169.85 163.05,169.29 167.45,168.82 171.91,168.47 176.42,168.22 180.98,168.09 185.60,168.07 190.26,168.18 194.98,168.42 199.74,168.79 204.55,169.29 209.40,169.94 214.30,170.73 219.23,171.68 224.19,172.78 229.19,174.03 234.22,175.46 239.28,177.05 244.35,178.81 249.45,180.75 254.55,182.87 259.67,185.18 264.79,187.67 269.90,190.35 275.01,193.23 280.10,196.30 285.17,199.57 290.21,203.04 295.21,206.70 300.17,210.57 305.08,214.63 309.93,218.89 314.71,223.35 319.41,228.00 324.03,232.85 328.55,237.87 332.97,243.08 337.27,248.46 341.45,254.02 345.51,259.73 349.42,265.60 353.18,271.61 356.78,277.75 360.22,284.02 363.49,290.40 366.58,296.89 369.49,303.46 372.20,310.12 374.72,316.83 377.03,323.61 379.15,330.42 381.05,337.25 382.75,344.11 384.23,350.96 385.51,357.80 386.57,364.63 387.42,371.41 388.06,378.15 388.49,384.84 388.72,391.46 388.75,398.00 388.58,404.46 388.21,410.83 387.66,417.10 386.92,423.26 386.00,429.30 384.91,435.23 383.66,441.04 382.24,446.72 380.66,452.27 378.94,457.68 377.07,462.96 375.06,468.10 372.93,473.10 370.67,477.96 368.29,482.68 365.80,487.25 363.20,491.69 360.51,495.98 357.71,500.14 354.83,504.15 351.87,508.03 348.82,511.77 345.71,515.38 342.52,518.85 339.27,522.19 335.96,525.41 332.60,528.49 329.19,531.46 325.73,534.29 322.22,537.01 318.68,539.61 315.11,542.10 311.50,544.47 307.87,546.73 304.21,548.88 300.53,550.92 296.84,552.86 293.13,554.70 289.41,556.43 285.68,558.07 281.94,559.61 278.21,561.06 274.47,562.42 270.74,563.69 267.01,564.87 263.29,565.96 259.58,566.97 255.89,567.90 252.21,568.75 248.56,569.52 244.92,570.21 241.31,570.83 237.73,571.37 234.18,571.84 230.66,572.24 227.18,572.57 223.74,572.82 220.34,573.02 216.98,573.14 213.67,573.21 210.42,573.20 207.22,573.14 204.08,573.01 201.00,572.83 197.99,572.58 195.04,572.27 192.17,571.91 189.38,571.48 186.67,571.00 184.04,570.47 181.51,569.88 179.07,569.23 176.73,568.53 174.49,567.77 172.37,566.96 170.36,566.10 168.47,565.18 166.70,564.21" fill="none" stroke="#000" stroke-width="6" stroke-linecap="round"/>
<polyline points="597.26,381.40 598.02,377.62 598.69,373.68 599.27,369.59 599.75,365.35 600.13,360.95 600.41,356.40 600.58,351.70 600.65,346.84 600.60,341.83 600.44,336.67 600.16,331.37 599.76,325.93 599.24,320.34 598.59,314.63 597.81,308.78 596.90,302.81 595.86,296.73 594.68,290.55 593.38,284.26 591.93,277.89 590.35,271.43 588.64,264.91 586.79,258.33 584.81,251.70 582.70,245.04 580.46,238.35 578.10,231.66 575.62,224.96 573.02,218.28 570.30,211.63 567.48,205.02 564.56,198.45 561.54,191.96 558.43,185.54 555.24,179.20 551.98,172.96 548.64,166.84 545.24,160.82 541.79,154.94 538.28,149.19 534.74,143.58 531.17,138.12 527.56,132.82 523.94,127.67 520.30,122.69 516.66,117.88 513.01,113.24 509.37,108.77 505.73,104.47 502.11,100.36 498.51,96.42 494.93,92.66 491.38,89.07 487.85,85.66 484.36,82.43 480.90,79.37 477.47,76.48 474.09,73.75 470.74,71.20 467.43,68.81 464.17,66.58 460.95,64.51 457.77,62.59" fill="none" stroke="#000" stroke-width="6" stroke-linecap="round"/>
<polyline points="33.48,245.37 33.86,244.11 34.38,242.78 35.03,241.39 35.81,239.93 36.71,238.42 37.73,236.86 38.87,235.24 40.12,233.58 41.48,231.88 42.94,230.14 44.51,228.37 46.19,226.57 47.95,224.74 49.82,222.89 51.78,221.01 53.83,219.13 55.96,217.23 58.19,215.32 60.49,213.40 62.89,211.48 65.36,209.56 67.91,207.65 70.54,205.74 73.24,203.85 76.02,201.96 78.88,200.10 81.80,198.25 84.80,196.43 87.87,194.63 91.01,192.86 94.22,191.13 97.50,189.43 100.84,187.77 104.26,186.15 107.73,184.57 111.28,183.05 114.89,181.58 118.56,180.16 122.30,178.80 126.10,177.51 129.96,176.28 133.88,175.12 137.87,174.04 141.92,173.03 146.03,172.10 150.19,171.26 154.42,170.51 158.71,169.85 163.05,169.29 167.45,168.82 171.91,168.47 176.42,168.22 180.98,168.09 185.60,168.07 190.26,168.18 194.98,168.42 199.74,168.79 204.55,169.29 209.40,169.94 214.30,170.73 219.23,171.68 224.19,172.78 229.19,174.03 234.22,175.46 239.28,177.05 244.35,178.81 249.45,180.75 254.55,182.87 259.67,185.18 264.79,187.67 269.90,190.35 275.01,193.23 280.10,196.30 285.17,199.57 290.21,203.04 295.21,206.70 300.17,210.57 305.08,214.63 309.93,218.89 314.71,223.35 319.41,228.00 324.03,232.85 328.55,237.87 332.97,243.08 337.27,248.46 341.45,254.02 345.51,259.73 349.42,265.60 353.18,271.61 356.78,277.75 360.22,284.02 363.49,290.40 366.58,296.89 369.49,303.46 372.20,310.12 374.72,316.83 377.03,323.61 379.15,330.42 381.05,337.25 382.75,344.11 384.23,350.96 385.51,357.80 386.57,364.63 387.42,371.41 388.06,378.15 388.49,384.84 388.72,391.46 388.75,398.00 388.58,404.46 388.21,410.83 387.66,417.10 386.92,423.26 386.00,429.30 384.91,435.23 383.66,441.04 382.24,446.72 380.66,452.27 378.94,457.68 377.07,462.96 375.06,468.10 372.93,473.10 370.67,477.96 368.29,482.68 365.80,487.25 363.20,491.69 360.51,495.98 357.71,500.14 354.83,504.15 351.87,508.03 348.82,511.77 345.71,515.38 342.52,518.85 339.27,522.19 335.96,525.41 332.60,528.49 329.19,531.46 325.73,534.29 322.22,537.01 318.68,539.61 315.11,542.10 311.50,544.47 307.87,546.73 304.21,548.88 300.53,550.92 296.84,552.86 293.13,554.70 289.41,556.43 285.68,558.07 281.94,559.61 278.21,561.06 274.47,562.42 270.74,563.69 267.01,564.87 263.29,565.96 259.58,566.97 255.89,567.90 252.21,568.75 248.56,569.52 244.92,570.21 241.31,570.83 237.73,571.37 234.18,571.84 230.66,572.24 227.18,572.57 223.74,572.82 220.34,573.02 216.98,573.14 213.67,573.21 210.42,573.20 207.22,573.14 204.08,573.01 201.00,572.83 197.99,572.58 195.04,572.27 192.17,571.91 189.38,571.48 186.67,571.00 184.04,570.47 181.51,569.88 179.07,569.23 176.73,568.53 174.49,567.77 172.37,566.96 170.36,566.10 168.47,565.18 166.70,564.21" fill="none" stroke="#000" stroke-width="6" stroke-linecap="round"/>
</svg>