<svg width="630.0" height="630.0" viewBox="0 0 630.0 630.0" fill="none" stroke="black" stroke-width="6" stroke-linecap="round" stroke-linejoin="round" xmlns="http://www.w3.org/2000/svg">
  <circle cx="315.0" cy="315.0" r="290.0" fill="white"/>
  <polyline points="527.51,512.26 527.87,511.68 528.17,511.03 528.41,510.31 528.59,509.52 528.72,508.65 528.80,507.70 528.83,506.68 528.81,505.57 528.75,504.37 528.64,503.08 528.49,501.70 528.30,500.22 528.08,498.64 527.82,496.96 527.53,495.17 527.21,493.27 526.85,491.27 526.48,489.14 526.07,486.89 525.64,484.53 525.19,482.03 524.72,479.41 524.23,476.65 523.72,473.76 523.20,470.74 522.66,467.57 522.11,464.25 521.55,460.79 520.98,457.18 520.41,453.42 519.82,449.51 519.23,445.44 518.63,441.21 518.03,436.82 517.43,432.28 516.83,427.58 516.23,422.71 515.63,417.69 515.03,412.51 514.43,407.18 513.83,401.69 513.24,396.04 512.66,390.25 512.08,384.32 511.51,378.24 510.94,372.03 510.39,365.70 509.84,359.24 509.30,352.67 508.77,345.99 508.25,339.22 507.74,332.36 507.24,325.43 506.75,318.43 506.28,311.38 505.82,304.29 505.37,297.17 504.94,290.03 504.52,282.89 504.12,275.77 503.73,268.67 503.36,261.61 503.01,254.60 502.68,247.65 502.36,240.78 502.07,234.00 501.79,227.33 501.54,220.76 501.31,214.32 501.10,208.02 500.91,201.85 500.75,195.84 500.61,189.99 500.49,184.30 500.40,178.79 500.33,173.45 500.29,168.30 500.27,163.33 500.28,158.55 500.31,153.96 500.36,149.57 500.43,145.37 500.53,141.36 500.65,137.55 500.79,133.93 500.95,130.50 501.13,127.26 501.33,124.21 501.54,121.34 501.77,118.66 502.01,116.16 502.27,113.83 502.54,111.68 502.82,109.69 503.10,107.88 503.39,106.22 503.69,104.72 503.99,103.37 504.29,102.18 504.60,101.13 504.89,100.22 505.19,99.45 505.48,98.82 505.75,98.31 506.02,97.94 506.28,97.68 506.52,97.54 506.74,97.52 506.94,97.61"/>
  <polyline points="104.27,115.82 105.70,114.49 107.19,113.22 108.74,112.02 110.35,110.89 112.01,109.84 113.72,108.87 115.48,107.97 117.29,107.17 119.15,106.44 121.05,105.81 122.98,105.27 124.96,104.83 126.97,104.49 129.02,104.25 131.10,104.12 133.21,104.11 135.35,104.20 137.51,104.41 139.70,104.75 141.91,105.21 144.13,105.80 146.37,106.52 148.63,107.39 150.89,108.39 153.17,109.54 155.45,110.84 157.73,112.29 160.02,113.91 162.30,115.68 164.58,117.62 166.84,119.73 169.10,122.01 171.35,124.47 173.57,127.11 175.78,129.93 177.96,132.94 180.12,136.14 182.24,139.53 184.34,143.11 186.39,146.88 188.40,150.85 190.37,155.02 192.29,159.38 194.15,163.93 195.96,168.68 197.72,173.62 199.40,178.74 201.02,184.05 202.57,189.54 204.05,195.20 205.45,201.03 206.77,207.02 208.00,213.17 209.15,219.46 210.20,225.88 211.17,232.44 212.04,239.10 212.81,245.87 213.48,252.74 214.06,259.68 214.53,266.68 214.90,273.75 215.16,280.85 215.33,287.98 215.38,295.12 215.34,302.26 215.19,309.39 214.94,316.50 214.59,323.56 214.14,330.58 213.59,337.53 212.94,344.41 212.21,351.20 211.38,357.90 210.46,364.50 209.45,370.99 208.37,377.35 207.20,383.59 205.96,389.70 204.64,395.67 203.26,401.49 201.80,407.17 200.29,412.70 198.71,418.07 197.08,423.29 195.40,428.35 193.67,433.26 191.89,438.00 190.07,442.59 188.21,447.02 186.32,451.29 184.40,455.40 182.44,459.36 180.47,463.17 178.47,466.82 176.45,470.33 174.42,473.69 172.37,476.90 170.32,479.98 168.26,482.91 166.20,485.71 164.13,488.38 162.07,490.92 160.02,493.33 157.97,495.62 155.93,497.79 153.90,499.84 151.89,501.77 149.90,503.60 147.93,505.32 145.98,506.94 144.06,508.45 142.17,509.87 140.31,511.20 138.48,512.43 136.69,513.57 134.94,514.63 133.23,515.60 131.56,516.50 129.94,517.31 128.36,518.06 126.84,518.73 125.37,519.33 123.96,519.87 122.61,520.34 121.32,520.75 120.09,521.10 118.93,521.40 117.85,521.64 116.83,521.84 115.90,521.98 115.04,522.08 114.26,522.13 113.57,522.14 112.97,522.11 112.47,522.04 112.05,521.94 111.74,521.80"/>
  <polyline points="527.51,512.26 527.87,511.68 528.17,511.03 528.41,510.31 528.59,509.52 528.72,508.65 528.80,507.70 528.83,506.68 528.81,505.57 528.75,504.37 528.64,503.08 528.49,501.70 528.30,500.22 528.08,498.64 527.82,496.96 527.53,495.17 527.21,493.27 526.85,491.27 526.48,489.14 526.07,486.89 525.64,484.53 525.19,482.03 524.72,479.41 524.23,476.65 523.72,473.76 523.20,470.74 522.66,467.57 522.11,464.25 521.55,460.79 520.98,457.18 520.41,453.42 519.82,449.51 519.23,445.44 518.63,441.21 518.03,436.82 517.43,432.28 516.83,427.58 516.23,422.71 515.63,417.69 515.03,412.51 514.43,407.18 513.83,401.69 513.24,396.04 512.66,390.25 512.08,384.32 511.51,378.24 510.94,372.03 510.39,365.70 509.84,359.24 509.30,352.67 508.77,345.99 508.25,339.22 507.74,332.36 507.24,325.43 506.75,318.43 506.28,311.38 505.82,304.29 505.37,297.17 504.94,290.03 504.52,282.89 504.12,275.77 503.73,268.67 503.36,261.61 503.01,254.60 502.68,247.65 502.36,240.78 502.07,234.00 501.79,227.33 501.54,220.76 501.31,214.32 501.10,208.02 500.91,201.85 500.75,195.84 500.61,189.99 500.49,184.30 500.40,178.79 500.33,173.45 500.29,168.30 500.27,163.33 500.28,158.55 500.31,153.96 500.36,149.57 500.43,145.37 500.53,141.36 500.65,137.55 500.79,133.93 500.95,130.50 501.13,127.26 501.33,124.21 501.54,121.34 501.77,118.66 502.01,116.16 502.27,113.83 502.54,111.68 502.82,109.69 503.10,107.88 503.39,106.22 503.69,104.72 503.99,103.37 504.29,102.18 504.60,101.13 504.89,100.22 505.19,99.45 505.48,98.82 505.75,98.31 506.02,97.94 506.28,97.68 506.52,97.54 506.74,97.52 506.94,97.61"/>
  <polyline points="104.27,115.82 105.70,114.49 107.19,113.22 108.74,112.02 110.35,110.89 112.01,109.84 113.72,108.87 115.48,107.97 117.29,107.17 119.15,106.44 121.05,105.81 122.98,105.27 124.96,104.83 126.97,104.49 129.02,104.25 131.10,104.12 133.21,104.11 135.35,104.20 137.51,104.41 139.70,104.75 141.91,105.21 144.13,105.80 146.37,106.52 148.63,107.39 150.89,108.39 153.17,109.54 155.45,110.84 157.73,112.29 160.02,113.91 162.30,115.68 164.58,117.62 166.84,119.73 169.10,122.01 171.35,124.47 173.57,127.11 175.78,129.93 177.96,132.94 180.12,136.14 182.24,139.53 184.34,143.11 186.39,146.88 188.40,150.85 190.37,155.02 192.29,159.38 194.15,163.93 195.96,168.68 197.72,173.62 199.40,178.74 201.02,184.05 202.57,189.54 204.05,195.20 205.45,201.03 206.77,207.02 208.00,213.17 209.15,219.46 210.20,225.88 211.17,232.44 212.04,239.10 212.81,245.87 213.48,252.74 214.06,259.68 214.53,266.68 214.90,273.75 215.16,280.85 215.33,287.98 215.38,295.12 215.34,302.26 215.19,309.39 214.94,316.50 214.59,323.56 214.14,330.58 213.59,337.53 212.94,344.41 212.21,351.20 211.38,357.90 210.46,364.50 209.45,370.99 208.37,377.35 207.20,383.59 205.96,389.70 204.64,395.67 203.26,401.49 201.80,407.17 200.29,412.70 198.71,418.07 197.08,423.29 195.40,428.35 193.67,433.26 191.89,438.00 190.07,442.59 188.21,447.02 186.32,451.29 184.40,455.40 182.44,459.36 180.47,463.17 178.47,466.82 176.45,470.33 174.42,473.69 172.37,476.90 170.32,479.98 168.26,482.91 166.20,485.71 164.13,488.38 162.07,490.92 160.02,493.33 157.97,495.62 155.93,497.79 153.90,499.84 151.89,501.77 149.90,503.60 147.93,505.32 145.98,506.94 144.06,508.45 142.17,509.87 140.31,511.20 138.48,512.43 136.69,513.57 134.94,514.63 133.23,515.60 131.56,516.50 129.94,517.31 128.36,518.06 126.84,518.73 125.37,519.33 123.96,519.87 122.61,520.34 121.32,520.75 120.09,521.10 118.93,521.40 117.85,521.64 116.83,521.84 115.90,521.98 115.04,522.08 114.26,522.13 113.57,522.14 112.97,522.11 112.47,522.04 112.05,521.94 111.74,521.80"/>
</svg>