<svg width="630.0" height="630.0" viewBox="0 0 630.0 630.0" fill="none" stroke="black" stroke-width="6" stroke-linecap="round" stroke-linejoin="round" xmlns="http://www.w3.org/2000/svg">
  <circle cx="315.0" cy="315.0" r="290.0" fill="white"/>
  <polyline points="170.55,64.81 174.75,62.63 178.99,60.54 183.27,58.52 187.59,56.59 191.96,54.74 196.36,52.97 200.79,51.29 205.27,49.69 209.77,48.19 214.32,46.77 218.89,45.45 223.49,44.22 228.12,43.09 232.78,42.05 237.46,41.12 242.17,40.28 246.89,39.56 251.64,38.94 256.41,38.42 261.18,38.03 265.98,37.74 270.78,37.58 275.59,37.53 280.40,37.61 285.22,37.82 290.03,38.16 294.84,38.63 299.64,39.24 304.43,39.99 309.20,40.88 313.95,41.92 318.67,43.11 323.36,44.45 328.01,45.95 332.62,47.61 337.18,49.43 341.69,51.42 346.13,53.58 350.51,55.91 354.81,58.41 359.03,61.09 363.16,63.95 367.20,66.98 371.12,70.20 374.94,73.59 378.63,77.17 382.19,80.92 385.62,84.86 388.90,88.97 392.02,93.25 394.98,97.70 397.77,102.32 400.39,107.11 402.82,112.05 405.05,117.14 407.09,122.37 408.93,127.74 410.55,133.24 411.96,138.85 413.16,144.58 414.13,150.41 414.88,156.32 415.40,162.31 415.70,168.37 415.77,174.48 415.61,180.64 415.23,186.83 414.63,193.04 413.80,199.26 412.76,205.47 411.51,211.67 410.05,217.84 408.39,223.98 406.54,230.07 404.49,236.11 402.26,242.08 399.86,247.98 397.28,253.79 394.55,259.52 391.66,265.16 388.62,270.69 385.45,276.12 382.15,281.43 378.72,286.64 375.18,291.72 371.53,296.68 367.77,301.52 363.93,306.24 360.00,310.83 355.98,315.29 351.90,319.63 347.74,323.84 343.53,327.93 339.26,331.89 334.93,335.73 330.57,339.44 326.16,343.03 321.72,346.51 317.24,349.87 312.74,353.12 308.21,356.25 303.67,359.28 299.11,362.20 294.54,365.02 289.96,367.74 285.38,370.36 280.79,372.90 276.20,375.34 271.62,377.69 267.03,379.97 262.46,382.16 257.90,384.28 253.35,386.32 248.81,388.30 244.29,390.21 239.79,392.06 235.30,393.85 230.84,395.58 226.41,397.26 221.99,398.90 217.61,400.49 213.25,402.03 208.93,403.54 204.63,405.01 200.37,406.46 196.15,407.87 191.96,409.26 187.81,410.62 183.70,411.97 179.64,413.30 175.62,414.62 171.65,415.94 167.72,417.24 163.85,418.54 160.03,419.85 156.27,421.15 152.56,422.47 148.91,423.79 145.33,425.13 141.82,426.48 138.37,427.85 134.99,429.24 131.69,430.65 128.47,432.10 125.33,433.57 122.27,435.07 119.31,436.61 116.43,438.19 113.66,439.80 110.99,441.46 108.42,443.16 105.96,444.91 103.62,446.71 101.41,448.56 99.31,450.45 97.35,452.41 95.53,454.41 93.85,456.47 92.32,458.59 90.95,460.77 89.73,463.00 88.68,465.29 87.81,467.63 87.11,470.04 86.60,472.50 86.28,475.01 86.16,477.58 86.24,480.19 86.52,482.86 87.02,485.57 87.74,488.33 88.68,491.13 89.85,493.96 91.24,496.83 92.87,499.72 94.73,502.64 96.82,505.58 99.15,508.53 101.72,511.49"/>
  <polyline points="490.64,545.75 493.92,543.16 497.18,540.47 500.40,537.69 503.60,534.82 506.77,531.84 509.91,528.77 513.02,525.60 516.11,522.33 519.17,518.95 522.20,515.47 525.21,511.88 528.19,508.18 531.15,504.37 534.08,500.45 536.98,496.42 539.86,492.27 542.70,488.01 545.52,483.63 548.30,479.14 551.05,474.53 553.77,469.81 556.45,464.96 559.09,460.00 561.69,454.93 564.25,449.74 566.75,444.43 569.21,439.02 571.61,433.49 573.96,427.85 576.24,422.11 578.46,416.27 580.60,410.33 582.68,404.30 584.67,398.18 586.57,391.97 588.39,385.69 590.11,379.34 591.74,372.93 593.25,366.47 594.66,359.96 595.95,353.42 597.12,346.84 598.17,340.26 599.09,333.67 599.88,327.08 600.52,320.51 601.03,313.97 601.40,307.48 601.62,301.03 601.69,294.65 601.62,288.36 601.40,282.15 601.02,276.04 600.50,270.05 599.83,264.18 599.01,258.45 598.05,252.87 596.94,247.44 595.70,242.18"/>
  <polyline points="124.12,96.67 127.68,93.63 131.30,90.66 134.98,87.75 138.72,84.91 142.51,82.14 146.37,79.45 150.27,76.82 154.23,74.27 158.24,71.79 162.30,69.39 166.40,67.06 170.55,64.81 174.75,62.63 178.99,60.54 183.27,58.52 187.59,56.59 191.96,54.74 196.36,52.97 200.79,51.29 205.27,49.69 209.77,48.19 214.32,46.77 218.89,45.45 223.49,44.22 228.12,43.09 232.78,42.05 237.46,41.12 242.17,40.28 246.89,39.56 251.64,38.94 256.41,38.42 261.18,38.03 265.98,37.74 270.78,37.58 275.59,37.53 280.40,37.61 285.22,37.82 290.03,38.16 294.84,38.63 299.64,39.24 304.43,39.99 309.20,40.88 313.95,41.92 318.67,43.11 323.36,44.45 328.01,45.95 332.62,47.61 337.18,49.43 341.69,51.42 346.13,53.58 350.51,55.91 354.81,58.41 359.03,61.09 363.16,63.95 367.20,66.98 371.12,70.20 374.94,73.59 378.63,77.17 382.19,80.92 385.62,84.86 388.90,88.97 392.02,93.25 394.98,97.70 397.77,102.32 400.39,107.11 402.82,112.05 405.05,117.14 407.09,122.37 408.93,127.74 410.55,133.24 411.96,138.85 413.16,144.58 414.13,150.41 414.88,156.32 415.40,162.31 415.70,168.37 415.77,174.48 415.61,180.64 415.23,186.83 414.63,193.04 413.80,199.26 412.76,205.47 411.51,211.67 410.05,217.84 408.39,223.98 406.54,230.07 404.49,236.11 402.26,242.08 399.86,247.98 397.28,253.79 394.55,259.52 391.66,265.16 388.62,270.69 385.45,276.12 382.15,281.43 378.72,286.64 375.18,291.72 371.53,296.68 367.77,301.52 363.93,306.24 360.00,310.83 355.98,315.29 351.90,319.63 347.74,323.84 343.53,327.93 339.26,331.89 334.93,335.73 330.57,339.44 326.16,343.03 321.72,346.51 317.24,349.87 312.74,353.12 308.21,356.25 303.67,359.28 299.11,362.20 294.54,365.02 289.96,367.74 285.38,370.36 280.79,372.90 276.20,375.34 271.62,377.69 267.03,379.97 262.46,382.16 257.90,384.28 253.35,386.32 248.81,388.30 244.29,390.21 239.79,392.06 235.30,393.85 230.84,395.58 226.41,397.26 221.99,398.90 217.61,400.49 213.25,402.03 208.93,403.54 204.63,405.01 200.37,406.46 196.15,407.87 191.96,409.26 187.81,410.62 183.70,411.97 179.64,413.30 175.62,414.62 171.65,415.94 167.72,417.24 163.85,418.54 160.03,419.85 156.27,421.15 152.56,422.47 148.91,423.79 145.33,425.13 141.82,426.48 138.37,427.85 134.99,429.24 131.69,430.65 128.47,432.10 125.33,433.57 122.27,435.07 119.31,436.61 116.43,438.19 113.66,439.80 110.99,441.46 108.42,443.16 105.96,444.91 103.62,446.71 101.41,448.56 99.31,450.45 97.35,452.41 95.53,454.41 93.85,456.47 92.32,458.59 90.95,460.77 89.73,463.00 88.68,465.29 87.81,467.63 87.11,470.04 86.60,472.50 86.28,475.01 86.16,477.58 86.24,480.19 86.52,482.86 87.02,485.57 87.74,488.33 88.68,491.13 89.85,493.96 91.24,496.83 92.87,499.72 94.73,502.64 96.82,505.58 99.15,508.53 101.72,511.49"/>
  <polyline points="490.64,545.75 493.92,543.16 497.18,540.47 500.40,537.69 503.60,534.82 506.77,531.84 509.91,528.77 513.02,525.60 516.11,522.33 519.17,518.95 522.20,515.47 525.21,511.88 528.19,508.18 531.15,504.37 534.08,500.45 536.98,496.42 539.86,492.27 542.70,488.01 545.52,483.63 548.30,479.14 551.05,474.53 553.77,469.81 556.45,464.96 559.09,460.00 561.69,454.93 564.25,449.74 566.75,444.43 569.21,439.02 571.61,433.49 573.96,427.85 576.24,422.11 578.46,416.27 580.60,410.33 582.68,404.30 584.67,398.18 586.57,391.97 588.39,385.69 590.11,379.34 591.74,372.93 593.25,366.47 594.66,359.96 595.95,353.42 597.12,346.84 598.17,340.26 599.09,333.67 599.88,327.08 600.52,320.51 601.03,313.97 601.40,307.48 601.62,301.03 601.69,294.65 601.62,288.36 601.40,282.15 601.02,276.04 600.50,270.05 599.83,264.18 599.01,258.45 598.05,252.87 596.94,247.44 595.70,242.18"/>
  <polyline points="124.12,96.67 127.68,93.63 131.30,90.66 134.98,87.75 138.72,84.91 142.51,82.14 146.37,79.45 150.27,76.82 154.23,74.27 158.24,71.79 162.30,69.39 166.40,67.06 170.55,64.81"/>
</svg>