<svg width="630.0" height="630.0" viewBox="0 0 630.0 630.0" fill="none" stroke="black" stroke-width="6" stroke-linecap="round" stroke-linejoin="round" xmlns="http://www.w3.org/2000/svg">
  <circle cx="315.0" cy="315.0" r="290.0" fill="white"/>
  <polyline points="417.53,137.41 420.91,141.00 424.26,144.64 427.57,148.34 430.84,152.10 434.06,155.92 437.24,159.80 440.38,163.74 443.46,167.75 446.48,171.82 449.45,175.96 452.36,180.16 455.20,184.44 457.98,188.78 460.69,193.20 463.32,197.69 465.87,202.25 468.34,206.89 470.72,211.60 473.02,216.39 475.22,221.26 477.32,226.20 479.32,231.22 481.21,236.32 482.99,241.50 484.65,246.76 486.19,252.09 487.60,257.50 488.88,262.99 490.03,268.55 491.03,274.19 491.88,279.90 492.58,285.68 493.11,291.52 493.49,297.44 493.69,303.41 493.72,309.44 493.56,315.53 493.22,321.66 492.68,327.84 491.95,334.06 491.02,340.31 489.87,346.58 488.52,352.88 486.95,359.18 485.17,365.49 483.16,371.79 480.93,378.07 478.47,384.33 475.78,390.55 472.87,396.72 469.73,402.84 466.36,408.89 462.76,414.85 458.95,420.73 454.92,426.50 450.67,432.15 446.21,437.68 441.55,443.07 436.69,448.32 431.65,453.40 426.42,458.31 421.02,463.04 415.46,467.58 409.76,471.92 403.91,476.06 397.93,479.98 391.84,483.68 385.64,487.16 379.35,490.42 372.98,493.43 366.54,496.22 360.05,498.76 353.51,501.07 346.95,503.14 340.36,504.97 333.76,506.57 327.16,507.93 320.58,509.06 314.01,509.97 307.48,510.65 300.98,511.11 294.54,511.35 288.14,511.39 281.81,511.22 275.54,510.85 269.35,510.29 263.23,509.55 257.20,508.62 251.25,507.52 245.40,506.25 239.63,504.82 233.96,503.24 228.39,501.50 222.91,499.62 217.54,497.61 212.27,495.46 207.10,493.19 202.03,490.80 197.06,488.29 192.20,485.67 187.43,482.95 182.77,480.12 178.21,477.20 173.75,474.19 169.39,471.10 165.12,467.92 160.96,464.66 156.88,461.33 152.90,457.92 149.01,454.45 145.22,450.92 141.51,447.32 137.88,443.67 134.35,439.96 130.90,436.20 127.53,432.38 124.24,428.53 121.03,424.63 117.89,420.68 114.84,416.70 111.85,412.69 108.94,408.63 106.10,404.55 103.33,400.44 100.63,396.30 98.00,392.13 95.43,387.94 92.92,383.73 90.48,379.50 88.09,375.26 85.77,371.00 83.51,366.72 81.30,362.44 79.15,358.15 77.06,353.86 75.03,349.56 73.04,345.26 71.11,340.96 69.24,336.67 67.41,332.39 65.64,328.11 63.93,323.85 62.26,319.61 60.64,315.38 59.08,311.18 57.57,307.00 56.11,302.85 54.70,298.74 53.35,294.66 52.05,290.62 50.80,286.63 49.61,282.69 48.48,278.81 47.40,274.98 46.39,271.22 45.43,267.53 44.54,263.91 43.71,260.38 42.94,256.94 42.25,253.58 41.62,250.33 41.07,247.19 40.59,244.15 40.19,241.24 39.87,238.45 39.63,235.80 39.47,233.29 39.40,230.93 39.43,228.72 39.54,226.67 39.75,224.79 40.06,223.09 40.47,221.57"/>
  <polyline points="275.42,27.72 275.78,27.78 276.31,27.98 277.02,28.32 277.91,28.78 278.96,29.37 280.18,30.08 281.56,30.91 283.08,31.86 284.76,32.91 286.57,34.07 288.52,35.32 290.59,36.68 292.79,38.12 295.10,39.66 297.53,41.27 300.06,42.97 302.68,44.75 305.40,46.59 308.21,48.51 311.10,50.50 314.06,52.55 317.10,54.66 320.20,56.83 323.36,59.06 326.58,61.34 329.85,63.67 333.17,66.06 336.53,68.50 339.93,70.99 343.37,73.52 346.83,76.10 350.32,78.73 353.84,81.40 357.37,84.12 360.93,86.89 364.49,89.70 368.07,92.55 371.65,95.45 375.24,98.39 378.82,101.38 382.41,104.41 385.99,107.49 389.56,110.62 393.12,113.79 396.67,117.02 400.20,120.29 403.71,123.61 407.21,126.98 410.68,130.40 414.12,133.88 417.53,137.41 420.91,141.00 424.26,144.64 427.57,148.34 430.84,152.10 434.06,155.92 437.24,159.80 440.38,163.74 443.46,167.75 446.48,171.82 449.45,175.96 452.36,180.16 455.20,184.44 457.98,188.78 460.69,193.20 463.32,197.69 465.87,202.25 468.34,206.89 470.72,211.60 473.02,216.39 475.22,221.26 477.32,226.20 479.32,231.22 481.21,236.32 482.99,241.50 484.65,246.76 486.19,252.09 487.60,257.50 488.88,262.99 490.03,268.55 491.03,274.19 491.88,279.90 492.58,285.68 493.11,291.52 493.49,297.44 493.69,303.41 493.72,309.44 493.56,315.53 493.22,321.66 492.68,327.84 491.95,334.06 491.02,340.31 489.87,346.58 488.52,352.88 486.95,359.18 485.17,365.49 483.16,371.79 480.93,378.07 478.47,384.33 475.78,390.55 472.87,396.72 469.73,402.84 466.36,408.89 462.76,414.85 458.95,420.73 454.92,426.50 450.67,432.15 446.21,437.68 441.55,443.07 436.69,448.32 431.65,453.40 426.42,458.31 421.02,463.04 415.46,467.58 409.76,471.92 403.91,476.06 397.93,479.98 391.84,483.68 385.64,487.16 379.35,490.42 372.98,493.43 366.54,496.22 360.05,498.76 353.51,501.07 346.95,503.14 340.36,504.97 333.76,506.57 327.16,507.93 320.58,509.06 314.01,509.97 307.48,510.65 300.98,511.11 294.54,511.35 288.14,511.39 281.81,511.22 275.54,510.85 269.35,510.29 263.23,509.55 257.20,508.62 251.25,507.52 245.40,506.25 239.63,504.82 233.96,503.24 228.39,501.50 222.91,499.62 217.54,497.61 212.27,495.46 207.10,493.19 202.03,490.80 197.06,488.29 192.20,485.67 187.43,482.95 182.77,480.12 178.21,477.20 173.75,474.19 169.39,471.10 165.12,467.92 160.96,464.66 156.88,461.33 152.90,457.92 149.01,454.45 145.22,450.92 141.51,447.32 137.88,443.67 134.35,439.96 130.90,436.20 127.53,432.38 124.24,428.53 121.03,424.63 117.89,420.68 114.84,416.70 111.85,412.69 108.94,408.63 106.10,404.55 103.33,400.44 100.63,396.30 98.00,392.13 95.43,387.94 92.92,383.73 90.48,379.50 88.09,375.26 85.77,371.00 83.51,366.72 81.30,362.44 79.15,358.15 77.06,353.86 75.03,349.56 73.04,345.26 71.11,340.96 69.24,336.67 67.41,332.39 65.64,328.11 63.93,323.85 62.26,319.61 60.64,315.38 59.08,311.18 57.57,307.00 56.11,302.85 54.70,298.74 53.35,294.66 52.05,290.62 50.80,286.63 49.61,282.69 48.48,278.81 47.40,274.98 46.39,271.22 45.43,267.53 44.54,263.91 43.71,260.38 42.94,256.94 42.25,253.58 41.62,250.33 41.07,247.19 40.59,244.15 40.19,241.24 39.87,238.45 39.63,235.80 39.47,233.29 39.40,230.93 39.43,228.72 39.54,226.67 39.75,224.79 40.06,223.09 40.47,221.57"/>
  <polyline points="275.42,27.72 275.78,27.78 276.31,27.98 277.02,28.32 277.91,28.78 278.96,29.37 280.18,30.08 281.56,30.91 283.08,31.86 284.76,32.91 286.57,34.07 288.52,35.32 290.59,36.68 292.79,38.12 295.10,39.66 297.53,41.27 300.06,42.97 302.68,44.75 305.40,46.59 308.21,48.51 311.10,50.50 314.06,52.55 317.10,54.66 320.20,56.83 323.36,59.06 326.58,61.34 329.85,63.67 333.17,66.06 336.53,68.50 339.93,70.99 343.37,73.52 346.83,76.10 350.32,78.73 353.84,81.40 357.37,84.12 360.93,86.89 364.49,89.70 368.07,92.55 371.65,95.45 375.24,98.39 378.82,101.38 382.41,104.41 385.99,107.49 389.56,110.62 393.12,113.79 396.67,117.02 400.20,120.29 403.71,123.61 407.21,126.98 410.68,130.40 414.12,133.88 417.53,137.41"/>
</svg>