<svg width="630.0" height="630.0" viewBox="0 0 630.0 630.0" fill="none" stroke="black" stroke-width="6" stroke-linecap="round" stroke-linejoin="round" xmlns="http://www.w3.org/2000/svg">
  <circle cx="315.0" cy="315.0" r="290.0" fill="white"/>
  <polyline points="532.50,440.57 535.57,436.72 538.57,432.82 541.51,428.90 544.38,424.94 547.18,420.95 549.92,416.93 552.60,412.88 555.21,408.81 557.77,404.72 560.25,400.60 562.68,396.47 565.04,392.33 567.34,388.17 569.58,383.99 571.75,379.82 573.86,375.63 575.91,371.44 577.89,367.25 579.81,363.07 581.66,358.88 583.44,354.71 585.15,350.55 586.80,346.40 588.38,342.28 589.88,338.17 591.31,334.09 592.66,330.05 593.94,326.03 595.13,322.06 596.24,318.13 597.27,314.25 598.21,310.42 599.06,306.65 599.82,302.95 600.49,299.32 601.05,295.76 601.51,292.29 601.87,288.91 602.12,285.62 602.25,282.43 602.28,279.36 602.18,276.39 601.96,273.56 601.62,270.85"/>
  <polyline points="395.49,36.41 396.29,36.80 396.87,37.30 397.24,37.91 397.41,38.62 397.38,39.43 397.14,40.34 396.72,41.34 396.10,42.43 395.30,43.60 394.32,44.85 393.17,46.19 391.86,47.59 390.38,49.07 388.75,50.61 386.97,52.21 385.05,53.87 382.99,55.59 380.81,57.36 378.50,59.18 376.07,61.04 373.54,62.95 370.90,64.91 368.16,66.90 365.32,68.94 362.40,71.01 359.40,73.12 356.32,75.26 353.16,77.44 349.94,79.65 346.65,81.90 343.31,84.17 339.91,86.48 336.46,88.82 332.97,91.19 329.43,93.59 325.86,96.03 322.25,98.50 318.61,101.00 314.94,103.53 311.25,106.10 307.54,108.71 303.81,111.35 300.07,114.03 296.31,116.74 292.55,119.50 288.78,122.30 285.01,125.14 281.24,128.02 277.47,130.95 273.70,133.93 269.95,136.95 266.20,140.03 262.47,143.15 258.76,146.33 255.06,149.57 251.39,152.86 247.74,156.21 244.11,159.62 240.52,163.09 236.96,166.63 233.44,170.23 229.96,173.90 226.51,177.65 223.12,181.46 219.77,185.35 216.47,189.31 213.23,193.35 210.05,197.46 206.93,201.66 203.87,205.94 200.89,210.31 197.98,214.76 195.15,219.30 192.40,223.92 189.73,228.63 187.16,233.44 184.69,238.33 182.31,243.32 180.05,248.40 177.89,253.57 175.85,258.83 173.93,264.19 172.14,269.63 170.48,275.17 168.96,280.80 167.59,286.51 166.37,292.31 165.30,298.19 164.40,304.16 163.66,310.20 163.11,316.31 162.73,322.50 162.53,328.74 162.53,335.05 162.73,341.41 163.13,347.81 163.74,354.25 164.56,360.73 165.59,367.22 166.85,373.73 168.33,380.24 170.04,386.75 171.97,393.24 174.14,399.70 176.53,406.13 179.15,412.50 182.01,418.81 185.09,425.05 188.39,431.20 191.92,437.25 195.66,443.20 199.62,449.02 203.78,454.70 208.14,460.24 212.69,465.63 217.43,470.84 222.34,475.88 227.41,480.74 232.64,485.39 238.02,489.85 243.53,494.10 249.16,498.14 254.90,501.95 260.74,505.54 266.68,508.90 272.68,512.04 278.76,514.94 284.88,517.61 291.05,520.04 297.26,522.25 303.48,524.22 309.72,525.97 315.97,527.49 322.20,528.79 328.43,529.87 334.63,530.74 340.80,531.40 346.94,531.85 353.03,532.10 359.08,532.16 365.07,532.03 371.00,531.72 376.87,531.23 382.68,530.57 388.42,529.74 394.08,528.75 399.67,527.60 405.18,526.31 410.61,524.88 415.96,523.30 421.23,521.59 426.41,519.76 431.51,517.80 436.53,515.72 441.46,513.53 446.31,511.23 451.07,508.83 455.74,506.33 460.33,503.73 464.84,501.04 469.26,498.26 473.61,495.39 477.86,492.45 482.04,489.43 486.14,486.33 490.16,483.16 494.09,479.92 497.96,476.62 501.74,473.26 505.45,469.83 509.08,466.35 512.64,462.81 516.13,459.23 519.54,455.59 522.89,451.90 526.16,448.17 529.36,444.39 532.50,440.57 535.57,436.72 538.57,432.82 541.51,428.90 544.38,424.94 547.18,420.95 549.92,416.93 552.60,412.88 555.21,408.81 557.77,404.72 560.25,400.60 562.68,396.47 565.04,392.33 567.34,388.17 569.58,383.99 571.75,379.82 573.86,375.63 575.91,371.44 577.89,367.25 579.81,363.07 581.66,358.88 583.44,354.71 585.15,350.55 586.80,346.40 588.38,342.28 589.88,338.17 591.31,334.09 592.66,330.05 593.94,326.03 595.13,322.06 596.24,318.13 597.27,314.25 598.21,310.42 599.06,306.65 599.82,302.95 600.49,299.32 601.05,295.76 601.51,292.29 601.87,288.91 602.12,285.62 602.25,282.43 602.28,279.36 602.18,276.39 601.96,273.56 601.62,270.85"/>
  <polyline points="395.49,36.41 396.29,36.80 396.87,37.30 397.24,37.91 397.41,38.62 397.38,39.43 397.14,40.34 396.72,41.34 396.10,42.43 395.30,43.60 394.32,44.85 393.17,46.19 391.86,47.59 390.38,49.07 388.75,50.61 386.97,52.21 385.05,53.87 382.99,55.59 380.81,57.36 378.50,59.18 376.07,61.04 373.54,62.95 370.90,64.91 368.16,66.90 365.32,68.94 362.40,71.01 359.40,73.12 356.32,75.26 353.16,77.44 349.94,79.65 346.65,81.90 343.31,84.17 339.91,86.48 336.46,88.82 332.97,91.19 329.43,93.59 325.86,96.03 322.25,98.50 318.61,101.00 314.94,103.53 311.25,106.10 307.54,108.71 303.81,111.35 300.07,114.03 296.31,116.74 292.55,119.50 288.78,122.30 285.01,125.14 281.24,128.02 277.47,130.95 273.70,133.93 269.95,136.95 266.20,140.03 262.47,143.15 258.76,146.33 255.06,149.57 251.39,152.86 247.74,156.21 244.11,159.62 240.52,163.09 236.96,166.63 233.44,170.23 229.96,173.90 226.51,177.65 223.12,181.46 219.77,185.35 216.47,189.31 213.23,193.35 210.05,197.46 206.93,201.66 203.87,205.94 200.89,210.31 197.98,214.76 195.15,219.30 192.40,223.92 189.73,228.63 187.16,233.44 184.69,238.33 182.31,243.32 180.05,248.40 177.89,253.57 175.85,258.83 173.93,264.19 172.14,269.63 170.48,275.17 168.96,280.80 167.59,286.51 166.37,292.31 165.30,298.19 164.40,304.16 163.66,310.20 163.11,316.31 162.73,322.50 162.53,328.74 162.53,335.05 162.73,341.41 163.13,347.81 163.74,354.25 164.56,360.73 165.59,367.22 166.85,373.73 168.33,380.24 170.04,386.75 171.97,393.24 174.14,399.70 176.53,406.13 179.15,412.50 182.01,418.81 185.09,425.05 188.39,431.20 191.92,437.25 195.66,443.20 199.62,449.02 203.78,454.70 208.14,460.24 212.69,465.63 217.43,470.84 222.34,475.88 227.41,480.74 232.64,485.39 238.02,489.85 243.53,494.10 249.16,498.14 254.90,501.95 260.74,505.54 266.68,508.90 272.68,512.04 278.76,514.94 284.88,517.61 291.05,520.04 297.26,522.25 303.48,524.22 309.72,525.97 315.97,527.49 322.20,528.79 328.43,529.87 334.63,530.74 340.80,531.40 346.94,531.85 353.03,532.10 359.08,532.16 365.07,532.03 371.00,531.72 376.87,531.23 382.68,530.57 388.42,529.74 394.08,528.75 399.67,527.60 405.18,526.31 410.61,524.88 415.96,523.30 421.23,521.59 426.41,519.76 431.51,517.80 436.53,515.72 441.46,513.53 446.31,511.23 451.07,508.83 455.74,506.33 460.33,503.73 464.84,501.04 469.26,498.26 473.61,495.39 477.86,492.45 482.04,489.43 486.14,486.33 490.16,483.16 494.09,479.92 497.96,476.62 501.74,473.26 505.45,469.83 509.08,466.35 512.64,462.81 516.13,459.23 519.54,455.59 522.89,451.90 526.16,448.17 529.36,444.39 532.50,440.57"/>
</svg>