<svg width="630.0" height="630.0" viewBox="0 0 630.0 630.0" fill="none" stroke="black" stroke-width="6" stroke-linecap="round" stroke-linejoin="round" xmlns="http://www.w3.org/2000/svg">
  <circle cx="315.0" cy="315.0" r="290.0" fill="white"/>
  <polyline points="265.93,29.19 270.37,28.49 274.80,27.91 279.22,27.43 283.63,27.07 288.03,26.82 292.40,26.69 296.75,26.68 301.07,26.80 305.36,27.04 309.60,27.41 313.81,27.91 317.97,28.55 322.07,29.33 326.11,30.25 330.09,31.32 333.99,32.54 337.81,33.91 341.55,35.43 345.19,37.12 348.74,38.96 352.17,40.96 355.50,43.13 358.69,45.46 361.77,47.96 364.70,50.62 367.49,53.45 370.12,56.45 372.60,59.61 374.91,62.94 377.05,66.43 379.01,70.08 380.78,73.89 382.37,77.84 383.75,81.95 384.94,86.19 385.92,90.57 386.69,95.08 387.25,99.72 387.60,104.46 387.74,109.31 387.66,114.26 387.36,119.29 386.85,124.41 386.13,129.58 385.20,134.82 384.06,140.10 382.72,145.42 381.18,150.77 379.45,156.13 377.52,161.50 375.42,166.87 373.14,172.22 370.68,177.56 368.07,182.86 365.30,188.12 362.38,193.34 359.32,198.51 356.13,203.61 352.81,208.65 349.37,213.62 345.82,218.51 342.17,223.33 338.42,228.05 334.58,232.69 330.66,237.24 326.67,241.70 322.60,246.07 318.48,250.33 314.30,254.50 310.06,258.58 305.78,262.56 301.47,266.44 297.11,270.22 292.73,273.91 288.32,277.50 283.90,281.01 279.45,284.42 274.99,287.74 270.53,290.97 266.05,294.12 261.58,297.19 257.11,300.18 252.64,303.09 248.17,305.93 243.72,308.69 239.28,311.39 234.85,314.02 230.44,316.58 226.05,319.09 221.68,321.54 217.33,323.94 213.01,326.29 208.71,328.59 204.45,330.84 200.21,333.06 196.00,335.24 191.83,337.38 187.70,339.50 183.60,341.59 179.54,343.65 175.53,345.69 171.55,347.72 167.62,349.73 163.74,351.73 159.90,353.73 156.11,355.72 152.37,357.70 148.69,359.69 145.06,361.69 141.49,363.69 137.97,365.71 134.52,367.74 131.13,369.79 127.81,371.86 124.55,373.96 121.37,376.08 118.26,378.24 115.23,380.42 112.27,382.65 109.40,384.91 106.61,387.22 103.91,389.57 101.31,391.97 98.80,394.41 96.39,396.92 94.08,399.47 91.88,402.09 89.80,404.76 87.83,407.50 85.98,410.30 84.26,413.16 82.66,416.09 81.21,419.09 79.89,422.16 78.72,425.30 77.71,428.51 76.85,431.79 76.15,435.14 75.62,438.56 75.26,442.04 75.09,445.60 75.10,449.23 75.30,452.92 75.69,456.67 76.29,460.48 77.09,464.35 78.10,468.27 79.32,472.24 80.77,476.25 82.43,480.30 84.32,484.39 86.43,488.50 88.77,492.63 91.34,496.78 94.14,500.94 97.17,505.10 100.42,509.25 103.90,513.38 107.60,517.49 111.52,521.57 115.65,525.62"/>
  <polyline points="398.85,592.61 403.03,591.28 407.13,589.88 411.16,588.40 415.12,586.84 419.00,585.21 422.83,583.51 426.58,581.72 430.27,579.87 433.91,577.94 437.48,575.94 441.00,573.86 444.46,571.70 447.87,569.47 451.22,567.17 454.53,564.79 457.80,562.33 461.02,559.80 464.19,557.19 467.33,554.50 470.43,551.73 473.49,548.88 476.52,545.96 479.51,542.95 482.47,539.86 485.40,536.69 488.31,533.44 491.19,530.10 494.04,526.67 496.87,523.16 499.68,519.57 502.47,515.89 505.24,512.12 507.98,508.26 510.71,504.31 513.43,500.27 516.12,496.14 518.81,491.92 521.47,487.60 524.12,483.20 526.76,478.70 529.37,474.11 531.98,469.43 534.56,464.66 537.13,459.80 539.69,454.84 542.22,449.80 544.73,444.67 547.22,439.45 549.69,434.15 552.13,428.76 554.55,423.29 556.93,417.75 559.28,412.13 561.60,406.44 563.87,400.69 566.10,394.87 568.29,389.00 570.42,383.07 572.50,377.10 574.52,371.09 576.47,365.05 578.36,358.99 580.17,352.91 581.91,346.83 583.56,340.74 585.13,334.67 586.60,328.62 587.98,322.60 589.25,316.63 590.42,310.71 591.48,304.85 592.43,299.07 593.26,293.37 593.97,287.77 594.55,282.29 595.02,276.92 595.35,271.68 595.56,266.58 595.64,261.63 595.59,256.85 595.42,252.23 595.11,247.79 594.69,243.53 594.13,239.46 593.46,235.59 592.67,231.92 591.76,228.46"/>
  <polyline points="265.93,29.19 270.37,28.49 274.80,27.91 279.22,27.43 283.63,27.07 288.03,26.82 292.40,26.69 296.75,26.68 301.07,26.80 305.36,27.04 309.60,27.41 313.81,27.91 317.97,28.55 322.07,29.33 326.11,30.25 330.09,31.32 333.99,32.54 337.81,33.91 341.55,35.43 345.19,37.12 348.74,38.96 352.17,40.96 355.50,43.13 358.69,45.46 361.77,47.96 364.70,50.62 367.49,53.45 370.12,56.45 372.60,59.61 374.91,62.94 377.05,66.43 379.01,70.08 380.78,73.89 382.37,77.84 383.75,81.95 384.94,86.19 385.92,90.57 386.69,95.08 387.25,99.72 387.60,104.46 387.74,109.31 387.66,114.26 387.36,119.29 386.85,124.41 386.13,129.58 385.20,134.82 384.06,140.10 382.72,145.42 381.18,150.77 379.45,156.13 377.52,161.50 375.42,166.87 373.14,172.22 370.68,177.56 368.07,182.86 365.30,188.12 362.38,193.34 359.32,198.51 356.13,203.61 352.81,208.65 349.37,213.62 345.82,218.51 342.17,223.33 338.42,228.05 334.58,232.69 330.66,237.24 326.67,241.70 322.60,246.07 318.48,250.33 314.30,254.50 310.06,258.58 305.78,262.56 301.47,266.44 297.11,270.22 292.73,273.91 288.32,277.50 283.90,281.01 279.45,284.42 274.99,287.74 270.53,290.97 266.05,294.12 261.58,297.19 257.11,300.18 252.64,303.09 248.17,305.93 243.72,308.69 239.28,311.39 234.85,314.02 230.44,316.58 226.05,319.09 221.68,321.54 217.33,323.94 213.01,326.29 208.71,328.59 204.45,330.84 200.21,333.06 196.00,335.24 191.83,337.38 187.70,339.50 183.60,341.59 179.54,343.65 175.53,345.69 171.55,347.72 167.62,349.73 163.74,351.73 159.90,353.73 156.11,355.72 152.37,357.70 148.69,359.69 145.06,361.69 141.49,363.69 137.97,365.71 134.52,367.74 131.13,369.79 127.81,371.86 124.55,373.96 121.37,376.08 118.26,378.24 115.23,380.42 112.27,382.65 109.40,384.91 106.61,387.22 103.91,389.57 101.31,391.97 98.80,394.41 96.39,396.92 94.08,399.47 91.88,402.09 89.80,404.76 87.83,407.50 85.98,410.30 84.26,413.16 82.66,416.09 81.21,419.09 79.89,422.16 78.72,425.30 77.71,428.51 76.85,431.79 76.15,435.14 75.62,438.56 75.26,442.04 75.09,445.60 75.10,449.23 75.30,452.92 75.69,456.67 76.29,460.48 77.09,464.35 78.10,468.27 79.32,472.24 80.77,476.25 82.43,480.30 84.32,484.39 86.43,488.50 88.77,492.63 91.34,496.78 94.14,500.94 97.17,505.10 100.42,509.25 103.90,513.38 107.60,517.49 111.52,521.57 115.65,525.62"/>
  <polyline points="398.85,592.61 403.03,591.28 407.13,589.88 411.16,588.40 415.12,586.84 419.00,585.21 422.83,583.51 426.58,581.72 430.27,579.87 433.91,577.94 437.48,575.94 441.00,573.86 444.46,571.70 447.87,569.47 451.22,567.17 454.53,564.79 457.80,562.33 461.02,559.80 464.19,557.19 467.33,554.50 470.43,551.73 473.49,548.88 476.52,545.96 479.51,542.95 482.47,539.86 485.40,536.69 488.31,533.44 491.19,530.10 494.04,526.67 496.87,523.16 499.68,519.57 502.47,515.89 505.24,512.12 507.98,508.26 510.71,504.31 513.43,500.27 516.12,496.14 518.81,491.92 521.47,487.60 524.12,483.20 526.76,478.70 529.37,474.11 531.98,469.43 534.56,464.66 537.13,459.80 539.69,454.84 542.22,449.80 544.73,444.67 547.22,439.45 549.69,434.15 552.13,428.76 554.55,423.29 556.93,417.75 559.28,412.13 561.60,406.44 563.87,400.69 566.10,394.87 568.29,389.00 570.42,383.07 572.50,377.10 574.52,371.09 576.47,365.05 578.36,358.99 580.17,352.91 581.91,346.83 583.56,340.74 585.13,334.67 586.60,328.62 587.98,322.60 589.25,316.63 590.42,310.71 591.48,304.85 592.43,299.07 593.26,293.37 593.97,287.77 594.55,282.29 595.02,276.92 595.35,271.68 595.56,266.58 595.64,261.63 595.59,256.85 595.42,252.23 595.11,247.79 594.69,243.53 594.13,239.46 593.46,235.59 592.67,231.92 591.76,228.46"/>
</svg>