<svg width="630.0" height="630.0" viewBox="0 0 630.0 630.0" fill="none" stroke="black" stroke-width="6" stroke-linecap="round" stroke-linejoin="round" xmlns="http://www.w3.org/2000/svg">
  <circle cx="315.0" cy="315.0" r="290.0" fill="white"/>
  <polyline points="333.02,25.61 336.08,25.96 339.04,26.45 341.88,27.08 344.60,27.85 347.20,28.76 349.66,29.81 351.98,31.01 354.16,32.36 356.18,33.87 358.04,35.52 359.74,37.33 361.26,39.29 362.61,41.41 363.77,43.68 364.75,46.11 365.53,48.68 366.12,51.41 366.51,54.28 366.70,57.29 366.69,60.44 366.47,63.72 366.05,67.14 365.43,70.67 364.60,74.32 363.57,78.08 362.34,81.95 360.91,85.90 359.29,89.95 357.49,94.07 355.49,98.26 353.32,102.51 350.97,106.82 348.46,111.16 345.79,115.55 342.96,119.96 339.99,124.39 336.87,128.83 333.63,133.27 330.26,137.71 326.77,142.14 323.18,146.55 319.48,150.94 315.69,155.29 311.82,159.62 307.86,163.90 303.83,168.14 299.73,172.33 295.58,176.48 291.37,180.57 287.12,184.60 282.82,188.57 278.49,192.49 274.13,196.34 269.75,200.13 265.34,203.86 260.92,207.53 256.49,211.14 252.05,214.68 247.61,218.16 243.17,221.58 238.73,224.94 234.31,228.24 229.89,231.48 225.48,234.67 221.09,237.81 216.73,240.89 212.38,243.92 208.05,246.91 203.75,249.85 199.48,252.75 195.24,255.61 191.03,258.44 186.85,261.22 182.71,263.98 178.61,266.71 174.54,269.41 170.52,272.08 166.54,274.74 162.60,277.37 158.70,280.00 154.85,282.61 151.05,285.21 147.30,287.80 143.60,290.39 139.95,292.99 136.36,295.58 132.82,298.18 129.34,300.79 125.91,303.41 122.55,306.05 119.25,308.71 116.01,311.38 112.84,314.08 109.74,316.81 106.71,319.57 103.75,322.36 100.86,325.19 98.05,328.06 95.32,330.97 92.67,333.92 90.11,336.92 87.63,339.97 85.25,343.08 82.95,346.24 80.76,349.46 78.66,352.74 76.66,356.08 74.78,359.48 73.00,362.96 71.34,366.50 69.80,370.12 68.38,373.81 67.08,377.57 65.92,381.40 64.90,385.32 64.01,389.31 63.27,393.37 62.68,397.52 62.25,401.74 61.98,406.04 61.87,410.41 61.94,414.86 62.18,419.38 62.60,423.97 63.21,428.63 64.01,433.36 65.00,438.15 66.19,442.99 67.58,447.89 69.19,452.83 71.00,457.82 73.02,462.84 75.26,467.89 77.72,472.96 80.40,478.05 83.29,483.14 86.41,488.23 89.74,493.31 93.29,498.37 97.05,503.40 101.02,508.39 105.20,513.34 109.58,518.22 114.16,523.03 118.92,527.77 123.87,532.42 128.99,536.97 134.27,541.42 139.71,545.75 145.29,549.96 151.01,554.04 156.85,557.99 162.80,561.79 168.84,565.44 174.98,568.93 181.19,572.27 187.46,575.44 193.79,578.44 200.15,581.28 206.54,583.94 212.94,586.44 219.35,588.76 225.76,590.91 232.15,592.89 238.52,594.69 244.85,596.33 251.14,597.80 257.38,599.11 263.57,600.25 269.69,601.23 275.74,602.06 281.72,602.73 287.62,603.26 293.44,603.64 299.17,603.87 304.81,603.97 310.36,603.93 315.81,603.76 321.17,603.46 326.43,603.04 331.60,602.50 336.66,601.84 341.63,601.07 346.49,600.19 351.26,599.19 355.94,598.10 360.51,596.90 365.00,595.60 369.38,594.21 373.68,592.72 377.89,591.14 382.00,589.47 386.03,587.72 389.98,585.87 393.84,583.94 397.63,581.93 401.33,579.84 404.96,577.67 408.52,575.42 412.01,573.09 415.43,570.69 418.78,568.21 422.07,565.66 425.30,563.03 428.47,560.33 431.59,557.56 434.65,554.71 437.66,551.80 440.62,548.81 443.54,545.75 446.41,542.62 449.25,539.42 452.04,536.14 454.80,532.80 457.53,529.39 460.22,525.91 462.89,522.35 465.52,518.73 468.14,515.04 470.73,511.27 473.30,507.44 475.85,503.53 478.38,499.55 480.90,495.51 483.41,491.39 485.91,487.20 488.39,482.94 490.87,478.61 493.34,474.21 495.80,469.74 498.27,465.21 500.72,460.60 503.18,455.92 505.64,451.18 508.09,446.37 510.54,441.50 513.00,436.56 515.45,431.56 517.91,426.50 520.36,421.38 522.82,416.20 525.28,410.96 527.73,405.68 530.18,400.35 532.63,394.97 535.07,389.55 537.50,384.09 539.92,378.60 542.34,373.08 544.73,367.54 547.11,361.98 549.47,356.40 551.81,350.83 554.11,345.25 556.39,339.69 558.63,334.14 560.82,328.62 562.98,323.13 565.08,317.68 567.13,312.28 569.12,306.95 571.05,301.69 572.91,296.51 574.70,291.42 576.40,286.43 578.03,281.55 579.57,276.79 581.01,272.16 582.36,267.68 583.62,263.34 584.77,259.16 585.81,255.15 586.75,251.32 587.58,247.67 588.29,244.20 588.90,240.94 589.39,237.87 589.77,235.02 590.04,232.37 590.19,229.94 590.24,227.72 590.18,225.72 590.00,223.93 589.73,222.37"/>
  <polyline points="333.02,25.61 336.08,25.96 339.04,26.45 341.88,27.08 344.60,27.85 347.20,28.76 349.66,29.81 351.98,31.01 354.16,32.36 356.18,33.87 358.04,35.52 359.74,37.33 361.26,39.29 362.61,41.41 363.77,43.68 364.75,46.11 365.53,48.68 366.12,51.41 366.51,54.28 366.70,57.29 366.69,60.44 366.47,63.72 366.05,67.14 365.43,70.67 364.60,74.32 363.57,78.08 362.34,81.95 360.91,85.90 359.29,89.95 357.49,94.07 355.49,98.26 353.32,102.51 350.97,106.82 348.46,111.16 345.79,115.55 342.96,119.96 339.99,124.39 336.87,128.83 333.63,133.27 330.26,137.71 326.77,142.14 323.18,146.55 319.48,150.94 315.69,155.29 311.82,159.62 307.86,163.90 303.83,168.14 299.73,172.33 295.58,176.48 291.37,180.57 287.12,184.60 282.82,188.57 278.49,192.49 274.13,196.34 269.75,200.13 265.34,203.86 260.92,207.53 256.49,211.14 252.05,214.68 247.61,218.16 243.17,221.58 238.73,224.94 234.31,228.24 229.89,231.48 225.48,234.67 221.09,237.81 216.73,240.89 212.38,243.92 208.05,246.91 203.75,249.85 199.48,252.75 195.24,255.61 191.03,258.44 186.85,261.22 182.71,263.98 178.61,266.71 174.54,269.41 170.52,272.08 166.54,274.74 162.60,277.37 158.70,280.00 154.85,282.61 151.05,285.21 147.30,287.80 143.60,290.39 139.95,292.99 136.36,295.58 132.82,298.18 129.34,300.79 125.91,303.41 122.55,306.05 119.25,308.71 116.01,311.38 112.84,314.08 109.74,316.81 106.71,319.57 103.75,322.36 100.86,325.19 98.05,328.06 95.32,330.97 92.67,333.92 90.11,336.92 87.63,339.97 85.25,343.08 82.95,346.24 80.76,349.46 78.66,352.74 76.66,356.08 74.78,359.48 73.00,362.96 71.34,366.50 69.80,370.12 68.38,373.81 67.08,377.57 65.92,381.40 64.90,385.32 64.01,389.31 63.27,393.37 62.68,397.52 62.25,401.74 61.98,406.04 61.87,410.41 61.94,414.86 62.18,419.38 62.60,423.97 63.21,428.63 64.01,433.36 65.00,438.15 66.19,442.99 67.58,447.89 69.19,452.83 71.00,457.82 73.02,462.84 75.26,467.89 77.72,472.96 80.40,478.05 83.29,483.14 86.41,488.23 89.74,493.31 93.29,498.37 97.05,503.40 101.02,508.39 105.20,513.34 109.58,518.22 114.16,523.03 118.92,527.77 123.87,532.42 128.99,536.97 134.27,541.42 139.71,545.75 145.29,549.96 151.01,554.04 156.85,557.99 162.80,561.79 168.84,565.44 174.98,568.93 181.19,572.27 187.46,575.44 193.79,578.44 200.15,581.28 206.54,583.94 212.94,586.44 219.35,588.76 225.76,590.91 232.15,592.89 238.52,594.69 244.85,596.33 251.14,597.80 257.38,599.11 263.57,600.25 269.69,601.23 275.74,602.06 281.72,602.73 287.62,603.26 293.44,603.64 299.17,603.87 304.81,603.97 310.36,603.93 315.81,603.76 321.17,603.46 326.43,603.04 331.60,602.50 336.66,601.84 341.63,601.07 346.49,600.19 351.26,599.19 355.94,598.10 360.51,596.90 365.00,595.60 369.38,594.21 373.68,592.72 377.89,591.14 382.00,589.47 386.03,587.72 389.98,585.87 393.84,583.94 397.63,581.93 401.33,579.84 404.96,577.67 408.52,575.42 412.01,573.09 415.43,570.69 418.78,568.21 422.07,565.66 425.30,563.03 428.47,560.33 431.59,557.56 434.65,554.71 437.66,551.80 440.62,548.81 443.54,545.75 446.41,542.62 449.25,539.42 452.04,536.14 454.80,532.80 457.53,529.39 460.22,525.91 462.89,522.35 465.52,518.73 468.14,515.04 470.73,511.27 473.30,507.44 475.85,503.53 478.38,499.55 480.90,495.51 483.41,491.39 485.91,487.20 488.39,482.94 490.87,478.61 493.34,474.21 495.80,469.74 498.27,465.21 500.72,460.60 503.18,455.92 505.64,451.18 508.09,446.37 510.54,441.50 513.00,436.56 515.45,431.56 517.91,426.50 520.36,421.38 522.82,416.20 525.28,410.96 527.73,405.68 530.18,400.35 532.63,394.97 535.07,389.55 537.50,384.09 539.92,378.60 542.34,373.08 544.73,367.54 547.11,361.98 549.47,356.40 551.81,350.83 554.11,345.25 556.39,339.69 558.63,334.14 560.82,328.62 562.98,323.13 565.08,317.68 567.13,312.28 569.12,306.95 571.05,301.69 572.91,296.51 574.70,291.42 576.40,286.43 578.03,281.55 579.57,276.79 581.01,272.16 582.36,267.68 583.62,263.34 584.77,259.16 585.81,255.15 586.75,251.32 587.58,247.67 588.29,244.20 588.90,240.94 589.39,237.87 589.77,235.02 590.04,232.37 590.19,229.94 590.24,227.72 590.18,225.72 590.00,223.93 589.73,222.37"/>
</svg>