<svg width="630.0" height="630.0" viewBox="0 0 630.0 630.0" fill="none" stroke="black" stroke-width="6" stroke-linecap="round" stroke-linejoin="round" xmlns="http://www.w3.org/2000/svg">
  <circle cx="315.0" cy="315.0" r="290.0" fill="white"/>
  <polyline points="426.08,408.20 430.39,405.66 434.67,403.09 438.92,400.50 443.14,397.89 447.33,395.27 451.49,392.63 455.62,389.98 459.72,387.32 463.79,384.66 467.84,382.00 471.86,379.34 475.86,376.69 479.83,374.05 483.78,371.42 487.70,368.81 491.60,366.22 495.47,363.65 499.32,361.11 503.15,358.59 506.95,356.12 510.72,353.68 514.46,351.29 518.18,348.94 521.86,346.64 525.52,344.40 529.14,342.21 532.73,340.09 536.27,338.04 539.78,336.06 543.25,334.16 546.67,332.34 550.05,330.61 553.37,328.97 556.63,327.43 559.83,325.99 562.97,324.66 566.04,323.44 569.04,322.33 571.95,321.35 574.78,320.50 577.52,319.77 580.16,319.18 582.70,318.74 585.13,318.43 587.45,318.28 589.64,318.28 591.71,318.44 593.64,318.75 595.43,319.23 597.07,319.87 598.56,320.68 599.89,321.66 601.06,322.80 602.05,324.12 602.88,325.61 603.52,327.26 603.99,329.08 604.27,331.07 604.37,333.22"/>
  <polyline points="447.36,57.00 444.17,55.53 440.84,54.15 437.37,52.85 433.76,51.64 430.03,50.51 426.17,49.46 422.21,48.49 418.15,47.61 413.99,46.80 409.75,46.06 405.42,45.41 401.01,44.82 396.54,44.32 392.01,43.88 387.42,43.52 382.78,43.23 378.09,43.01 373.36,42.85 368.59,42.77 363.79,42.76 358.96,42.81 354.11,42.93 349.23,43.11 344.34,43.36 339.43,43.68 334.51,44.06 329.58,44.51 324.64,45.02 319.70,45.60 314.75,46.24 309.81,46.95 304.87,47.73 299.93,48.57 295.00,49.48 290.08,50.46 285.17,51.50 280.26,52.62 275.37,53.80 270.49,55.06 265.63,56.38 260.78,57.78 255.96,59.25 251.15,60.80 246.36,62.42 241.59,64.12 236.84,65.89 232.12,67.75 227.43,69.68 222.76,71.70 218.12,73.80 213.51,75.99 208.93,78.26 204.38,80.62 199.87,83.07 195.39,85.61 190.95,88.24 186.55,90.97 182.20,93.79 177.88,96.72 173.62,99.74 169.40,102.86 165.23,106.09 161.12,109.41 157.06,112.85 153.07,116.39 149.14,120.05 145.27,123.81 141.47,127.69 137.75,131.68 134.11,135.78 130.55,140.00 127.07,144.34 123.69,148.79 120.40,153.36 117.22,158.05 114.14,162.86 111.18,167.78 108.33,172.83 105.61,177.99 103.01,183.26 100.56,188.65 98.25,194.16 96.09,199.77 94.08,205.49 92.24,211.31 90.57,217.23 89.08,223.25 87.77,229.36 86.66,235.55 85.74,241.82 85.02,248.17 84.52,254.57 84.23,261.04 84.16,267.55 84.32,274.10 84.71,280.68 85.34,287.28 86.20,293.89 87.30,300.49 88.64,307.08 90.23,313.64 92.06,320.16 94.13,326.63 96.44,333.04 98.99,339.38 101.77,345.62 104.78,351.77 108.01,357.80 111.47,363.71 115.13,369.49 119.00,375.13 123.07,380.61 127.32,385.93 131.75,391.07 136.34,396.04 141.09,400.82 145.99,405.41 151.03,409.80 156.19,413.99 161.47,417.98 166.84,421.76 172.31,425.32 177.87,428.68 183.49,431.82 189.18,434.75 194.92,437.48 200.70,439.99 206.52,442.29 212.37,444.39 218.23,446.28 224.10,447.98 229.98,449.48 235.85,450.80 241.71,451.92 247.56,452.86 253.39,453.63 259.20,454.22 264.98,454.64 270.72,454.90 276.43,455.00 282.11,454.95 287.74,454.75 293.32,454.41 298.87,453.93 304.36,453.32 309.81,452.59 315.21,451.73 320.56,450.75 325.86,449.66 331.11,448.46 336.31,447.16 341.46,445.76 346.55,444.26 351.60,442.68 356.59,441.01 361.54,439.25 366.44,437.42 371.29,435.52 376.09,433.54 380.84,431.50 385.55,429.39 390.22,427.23 394.84,425.01 399.42,422.74 403.96,420.42 408.46,418.05 412.92,415.64 417.34,413.20 421.73,410.72 426.08,408.20 430.39,405.66 434.67,403.09 438.92,400.50 443.14,397.89 447.33,395.27 451.49,392.63 455.62,389.98 459.72,387.32 463.79,384.66 467.84,382.00 471.86,379.34 475.86,376.69 479.83,374.05 483.78,371.42 487.70,368.81 491.60,366.22 495.47,363.65 499.32,361.11 503.15,358.59 506.95,356.12 510.72,353.68 514.46,351.29 518.18,348.94 521.86,346.64 525.52,344.40 529.14,342.21 532.73,340.09 536.27,338.04 539.78,336.06 543.25,334.16 546.67,332.34 550.05,330.61 553.37,328.97 556.63,327.43 559.83,325.99 562.97,324.66 566.04,323.44 569.04,322.33 571.95,321.35 574.78,320.50 577.52,319.77 580.16,319.18 582.70,318.74 585.13,318.43 587.45,318.28 589.64,318.28 591.71,318.44 593.64,318.75 595.43,319.23 597.07,319.87 598.56,320.68 599.89,321.66 601.06,322.80 602.05,324.12 602.88,325.61 603.52,327.26 603.99,329.08 604.27,331.07 604.37,333.22"/>
  <polyline points="447.36,57.00 444.17,55.53 440.84,54.15 437.37,52.85 433.76,51.64 430.03,50.51 426.17,49.46 422.21,48.49 418.15,47.61 413.99,46.80 409.75,46.06 405.42,45.41 401.01,44.82 396.54,44.32 392.01,43.88 387.42,43.52 382.78,43.23 378.09,43.01 373.36,42.85 368.59,42.77 363.79,42.76 358.96,42.81 354.11,42.93 349.23,43.11 344.34,43.36 339.43,43.68 334.51,44.06 329.58,44.51 324.64,45.02 319.70,45.60 314.75,46.24 309.81,46.95 304.87,47.73 299.93,48.57 295.00,49.48 290.08,50.46 285.17,51.50 280.26,52.62 275.37,53.80 270.49,55.06 265.63,56.38 260.78,57.78 255.96,59.25 251.15,60.80 246.36,62.42 241.59,64.12 236.84,65.89 232.12,67.75 227.43,69.68 222.76,71.70 218.12,73.80 213.51,75.99 208.93,78.26 204.38,80.62 199.87,83.07 195.39,85.61 190.95,88.24 186.55,90.97 182.20,93.79 177.88,96.72 173.62,99.74 169.40,102.86 165.23,106.09 161.12,109.41 157.06,112.85 153.07,116.39 149.14,120.05 145.27,123.81 141.47,127.69 137.75,131.68 134.11,135.78 130.55,140.00 127.07,144.34 123.69,148.79 120.40,153.36 117.22,158.05 114.14,162.86 111.18,167.78 108.33,172.83 105.61,177.99 103.01,183.26 100.56,188.65 98.25,194.16 96.09,199.77 94.08,205.49 92.24,211.31 90.57,217.23 89.08,223.25 87.77,229.36 86.66,235.55 85.74,241.82 85.02,248.17 84.52,254.57 84.23,261.04 84.16,267.55 84.32,274.10 84.71,280.68 85.34,287.28 86.20,293.89 87.30,300.49 88.64,307.08 90.23,313.64 92.06,320.16 94.13,326.63 96.44,333.04 98.99,339.38 101.77,345.62 104.78,351.77 108.01,357.80 111.47,363.71 115.13,369.49 119.00,375.13 123.07,380.61 127.32,385.93 131.75,391.07 136.34,396.04 141.09,400.82 145.99,405.41 151.03,409.80 156.19,413.99 161.47,417.98 166.84,421.76 172.31,425.32 177.87,428.68 183.49,431.82 189.18,434.75 194.92,437.48 200.70,439.99 206.52,442.29 212.37,444.39 218.23,446.28 224.10,447.98 229.98,449.48 235.85,450.80 241.71,451.92 247.56,452.86 253.39,453.63 259.20,454.22 264.98,454.64 270.72,454.90 276.43,455.00 282.11,454.95 287.74,454.75 293.32,454.41 298.87,453.93 304.36,453.32 309.81,452.59 315.21,451.73 320.56,450.75 325.86,449.66 331.11,448.46 336.31,447.16 341.46,445.76 346.55,444.26 351.60,442.68 356.59,441.01 361.54,439.25 366.44,437.42 371.29,435.52 376.09,433.54 380.84,431.50 385.55,429.39 390.22,427.23 394.84,425.01 399.42,422.74 403.96,420.42 408.46,418.05 412.92,415.64 417.34,413.20 421.73,410.72 426.08,408.20"/>
</svg>