<svg width="630.0" height="630.0" viewBox="0 0 630.0 630.0" xmlns="http://www.w3.org/2000/svg">
<circle cx="315.0" cy="315.0" r="290.0" fill="#fff" stroke="#000" stroke-width="6"/>
<polyline points="594.31,392.94 595.47,388.23 596.50,383.33 597.40,378.26 598.16,373.03 598.78,367.63 599.26,362.10 599.60,356.42 599.80,350.62 599.86,344.70 599.77,338.68 599.55,332.56 599.18,326.37 598.68,320.10 598.05,313.78 597.28,307.42 596.38,301.02 595.37,294.60 594.23,288.17 592.97,281.74 591.61,275.32 590.14,268.92 588.57,262.56 586.90,256.23 585.14,249.94 583.29,243.71 581.36,237.55 579.36,231.45 577.28,225.42 575.14,219.48 572.93,213.62 570.67,207.85 568.35,202.17 565.98,196.59 563.56,191.11 561.09,185.72 558.59,180.45 556.05,175.27 553.47,170.21 550.85,165.25 548.21,160.40 545.53,155.66 542.83,151.02 540.10,146.50 537.35,142.08 534.57,137.77 531.76,133.57 528.93,129.47 526.08,125.48 523.21,121.59 520.31,117.81 517.39,114.13 514.45,110.55 511.48,107.07 508.49,103.69 505.47,100.41 502.43,97.22 499.36,94.12 496.26,91.12 493.13,88.21 489.98,85.39 486.79,82.66 483.57,80.02 480.32,77.46 477.03,74.99 473.70,72.60 470.34,70.29 466.93,68.06 463.49,65.92 460.00,63.85" fill="none" stroke="#000" stroke-width="6" stroke-linecap="round"/>
<polyline points="104.57,115.46 101.53,118.84 98.71,122.23 96.13,125.61 93.79,128.98 91.68,132.34 89.80,135.68 88.15,138.98 86.73,142.26 85.53,145.50 84.56,148.69 83.81,151.85 83.27,154.95 82.94,158.01 82.81,161.01 82.88,163.95 83.14,166.84 83.60,169.66 84.23,172.43 85.04,175.13 86.02,177.77 87.16,180.35 88.46,182.86 89.91,185.32 91.51,187.71 93.25,190.04 95.13,192.32 97.13,194.53 99.26,196.69 101.51,198.80 103.88,200.85 106.35,202.85 108.93,204.80 111.62,206.71 114.40,208.57 117.27,210.39 120.23,212.17 123.28,213.92 126.41,215.63 129.62,217.31 132.90,218.96 136.26,220.59 139.68,222.20 143.17,223.79 146.73,225.36 150.35,226.92 154.03,228.47 157.76,230.01 161.55,231.55 165.39,233.09 169.28,234.63 173.22,236.18 177.21,237.74 181.24,239.31 185.31,240.89 189.43,242.50 193.58,244.13 197.77,245.78 201.99,247.46 206.25,249.18 210.55,250.93 214.87,252.72 219.22,254.55 223.60,256.43 228.00,258.36 232.42,260.34 236.87,262.38 241.34,264.48 245.82,266.64 250.32,268.87 254.84,271.16 259.36,273.53 263.89,275.98 268.43,278.51 272.98,281.11 277.52,283.81 282.06,286.60 286.60,289.47 291.13,292.45 295.65,295.52 300.15,298.69 304.64,301.96 309.10,305.34 313.53,308.83 317.94,312.44 322.31,316.15 326.63,319.97 330.92,323.92 335.15,327.97 339.32,332.15 343.43,336.44 347.48,340.85 351.45,345.38 355.33,350.02 359.13,354.78 362.84,359.65 366.44,364.64 369.93,369.72 373.31,374.92 376.56,380.21 379.67,385.60 382.65,391.08 385.48,396.64 388.16,402.28 390.67,407.99 393.02,413.77 395.18,419.59 397.17,425.46 398.96,431.37 400.56,437.31 401.95,443.25 403.14,449.21 404.12,455.16 404.88,461.09 405.43,466.99 405.76,472.85 405.86,478.66 405.74,484.41 405.40,490.09 404.84,495.68 404.06,501.18 403.05,506.58 401.84,511.86 400.41,517.02 398.77,522.04 396.93,526.93 394.89,531.68 392.66,536.27 390.25,540.71 387.66,544.99 384.89,549.10 381.97,553.04 378.88,556.81 375.65,560.41 372.28,563.83 368.78,567.07 365.16,570.14 361.41,573.03 357.56,575.75 353.61,578.30 349.57,580.67 345.44,582.87 341.23,584.91 336.96,586.78 332.61,588.48 328.21,590.03 323.76,591.41 319.26,592.65 314.72,593.73 310.15,594.67 305.54,595.46 300.91,596.11 296.26,596.62 291.59,597.00 286.91,597.25 282.22,597.37 277.53,597.36 272.83,597.24 268.14,596.99 263.45,596.63 258.77,596.15 254.10,595.57 249.44,594.87 244.80,594.07 240.17,593.17 235.57,592.16 230.98,591.06 226.42,589.85 221.89,588.56 217.38,587.17 212.90,585.69 208.45,584.11 204.03,582.45 199.64,580.71 195.29,578.87 190.98,576.96 186.70,574.96 182.46,572.87 178.27,570.71 174.11,568.47 170.00,566.15" fill="none" stroke="#000" stroke-width="6" stroke-linecap="round"/>
<polyline points="594.31,392.94 595.47,388.23 596.50,383.33 597.40,378.26 598.16,373.03 598.78,367.63 599.26,362.10 599.60,356.42 599.80,350.62 599.86,344.70 599.77,338.68 599.55,332.56 599.18,326.37 598.68,320.10 598.05,313.78 597.28,307.42 596.38,301.02 595.37,294.60 594.23,288.17 592.97,281.74 591.61,275.32 590.14,268.92 588.57,262.56 586.90,256.23 585.14,249.94 583.29,243.71 581.36,237.55 579.36,231.45 577.28,225.42 575.14,219.48 572.93,213.62 570.67,207.85 568.35,202.17 565.98,196.59 563.56,191.11 561.09,185.72 558.59,180.45 556.05,175.27 553.47,170.21 550.85,165.25 548.21,160.40 545.53,155.66 542.83,151.02 540.10,146.50 537.35,142.08 534.57,137.77 531.76,133.57 528.93,129.47 526.08,125.48 523.21,121.59 520.31,117.81 517.39,114.13 514.45,110.55 511.48,107.07 508.49,103.69 505.47,100.41 502.43,97.22 499.36,94.12 496.26,91.12 493.13,88.21 489.98,85.39 486.79,82.66 483.57,80.02 480.32,77.46 477.03,74.99 473.70,72.60 470.34,70.29 466.93,68.06 463.49,65.92 460.00,63.85" fill="none" stroke="#000" stroke-width="6" stroke-linecap="round"/>
<polyline points="104.57,115.46 101.53,118.84 98.71,122.23 96.13,125.61 93.79,128.98 91.68,132.34 89.80,135.68 88.15,138.98 86.73,142.26 85.53,145.50 84.56,148.69 83.81,151.85 83.27,154.95 82.94,158.01 82.81,161.01 82.88,163.95 83.14,166.84 83.60,169.66 84.23,172.43 85.04,175.13 86.02,177.77 87.16,180.35 88.46,182.86 89.91,185.32 91.51,187.71 93.25,190.04 95.13,192.32 97.13,194.53 99.26,196.69 101.51,198.80 103.88,200.85 106.35,202.85 108.93,204.80 111.62,206.71 114.40,208.57 117.27,210.39 120.23,212.17 123.28,213.92 126.41,215.63 129.62,217.31 132.90,218.96 136.26,220.59 139.68,222.20 143.17,223.79 146.73,225.36 150.35,226.92 154.03,228.47 157.76,230.01 161.55,231.55 165.39,233.09 169.28,234.63 173.22,236.18 177.21,237.74 181.24,239.31 185.31,240.89 189.43,242.50 193.58,244.13 197.77,245.78 201.99,247.46 206.25,249.18 210.55,250.93 214.87,252.72 219.22,254.55 223.60,256.43 228.00,258.36 232.42,260.34 236.87,262.38 241.34,264.48 245.82,266.64 250.32,268.87 254.84,271.16 259.36,273.53 263.89,275.98 268.43,278.51 272.98,281.11 277.52,283.81 282.06,286.60 286.60,289.47 291.13,292.45 295.65,295.52 300.15,298.69 304.64,301.96 309.10,305.34 313.53,308.83 317.94,312.44 322.31,316.15 326.63,319.97 330.92,323.92 335.15,327.97 339.32,332.15 343.43,336.44 347.48,340.85 351.45,345.38 355.33,350.02 359.13,354.78 362.84,359.65 366.44,364.64 369.93,369.72 373.31,374.92 376.56,380.21 379.67,385.60 382.65,391.08 385.48,396.64 388.16,402.28 390.67,407.99 393.02,413.77 395.18,419.59 397.17,425.46 398.96,431.37 400.56,437.31 401.95,443.25 403.14,449.21 404.12,455.16 404.88,461.09 405.43,466.99 405.76,472.85 405.86,478.66 405.74,484.41 405.40,490.09 404.84,495.68 404.06,501.18 403.05,506.58 401.84,511.86 400.41,517.02 398.77,522.04 396.93,526.93 394.89,531.68 392.66,536.27 390.25,540.71 387.66,544.99 384.89,549.10 381.97,553.04 378.88,556.81 375.65,560.41 372.28,563.83 368.78,567.07 365.16,570.14 361.41,573.03 357.56,575.75 353.61,578.30 349.57,580.67 345.44,582.87 341.23,584.91 336.96,586.78 332.61,588.48 328.21,590.03 323.76,591.41 319.26,592.65 314.72,593.73 310.15,594.67 305.54,595.46 300.91,596.11 296.26,596.62 291.59,597.00 286.91,597.25 282.22,597.37 277.53,597.36 272.83,597.24 268.14,596.99 263.45,596.63 258.77,596.15 254.10,595.57 249.44,594.87 244.80,594.07 240.17,593.17 235.57,592.16 230.98,591.06 226.42,589.85 221.89,588.56 217.38,587.17 212.90,585.69 208.45,584.11 204.03,582.45 199.64,580.71 195.29,578.87 190.98,576.96 186.70,574.96 182.46,572.87 178.27,570.71 174.11,568.47 170.00,566.15" fill="none" stroke="#000" stroke-width="6" stroke-linecap="round"/>
</svg>