<svg width="630.0" height="630.0" viewBox="0 0 630.0 630.0" fill="none" stroke="black" stroke-width="6" stroke-linecap="round" stroke-linejoin="round" xmlns="http://www.w3.org/2000/svg">
  <circle cx="315.0" cy="315.0" r="290.0" fill="white"/>
  <polyline points="387.50,189.43 390.73,193.27 393.94,197.16 397.11,201.09 400.26,205.07 403.37,209.08 406.44,213.15 409.47,217.27 412.46,221.43 415.40,225.65 418.29,229.93 421.13,234.26 423.91,238.64 426.63,243.09 429.28,247.59 431.87,252.16 434.38,256.79 436.82,261.48 439.18,266.24 441.45,271.07 443.64,275.96 445.73,280.92 447.72,285.95 449.61,291.05 451.40,296.22 453.07,301.45 454.63,306.76 456.06,312.14 457.36,317.58 458.54,323.09 459.57,328.67 460.46,334.31 461.20,340.02 461.79,345.78 462.22,351.60 462.48,357.47 462.57,363.40 462.48,369.37 462.21,375.38 461.75,381.43 461.09,387.50 460.25,393.61 459.19,399.73 457.94,405.86 456.47,411.99 454.78,418.11 452.88,424.22 450.77,430.31 448.42,436.36 445.86,442.37 443.08,448.32 440.07,454.21 436.84,460.02 433.39,465.74 429.72,471.36 425.83,476.87 421.74,482.26 417.44,487.51 412.94,492.62 408.25,497.58 403.37,502.37 398.32,506.98 393.09,511.41 387.71,515.64 382.18,519.68 376.52,523.50 370.72,527.11 364.81,530.50 358.80,533.66 352.69,536.59 346.50,539.29 340.25,541.76 333.94,543.99 327.58,545.99 321.19,547.75 314.78,549.28 308.36,550.57 301.93,551.63 295.51,552.47 289.12,553.09 282.75,553.49 276.41,553.67 270.12,553.65 263.87,553.42 257.69,553.00 251.57,552.38 245.51,551.58 239.53,550.60 233.63,549.44 227.81,548.12 222.08,546.64 216.43,545.01 210.88,543.22 205.41,541.29 200.05,539.23 194.78,537.03 189.61,534.71 184.53,532.27 179.56,529.71 174.69,527.04 169.91,524.26 165.24,521.39 160.67,518.42 156.19,515.35 151.81,512.20 147.53,508.96 143.35,505.64 139.26,502.24 135.27,498.77 131.37,495.23 127.56,491.61 123.84,487.94 120.22,484.20 116.68,480.40 113.23,476.54 109.86,472.62 106.58,468.66 103.39,464.64 100.28,460.57 97.24,456.45 94.29,452.29 91.41,448.09 88.62,443.84 85.90,439.55 83.25,435.23 80.68,430.86 78.18,426.46 75.75,422.02 73.39,417.56 71.10,413.06 68.88,408.53 66.73,403.97 64.65,399.38 62.64,394.77 60.69,390.14 58.81,385.48 56.99,380.80 55.24,376.10 53.55,371.39 51.93,366.66 50.37,361.91 48.88,357.16 47.45,352.39 46.09,347.62 44.79,342.84 43.56,338.06 42.39,333.28 41.30,328.50 40.27,323.73 39.31,318.97 38.42,314.23 37.60,309.50 36.86,304.79 36.18,300.10 35.59,295.45 35.07,290.82 34.63,286.24 34.27,281.70 33.99,277.21 33.80,272.77 33.70,268.39 33.68,264.09 33.76,259.85 33.93,255.69 34.19,251.62 34.56,247.65 35.02,243.78 35.59,240.01 36.26,236.37 37.04,232.85 37.93,229.46"/>
  <polyline points="282.69,26.87 280.59,27.33 278.68,27.96 276.97,28.73 275.45,29.65 274.14,30.72 273.01,31.93 272.09,33.28 271.36,34.76 270.82,36.37 270.47,38.10 270.31,39.95 270.34,41.90 270.54,43.96 270.92,46.12 271.47,48.38 272.19,50.72 273.08,53.14 274.11,55.64 275.30,58.21 276.64,60.85 278.11,63.55 279.72,66.31 281.45,69.12 283.31,71.98 285.28,74.88 287.37,77.83 289.56,80.81 291.85,83.84 294.24,86.89 296.71,89.97 299.27,93.09 301.90,96.22 304.61,99.39 307.39,102.58 310.24,105.79 313.14,109.02 316.10,112.27 319.11,115.54 322.16,118.83 325.26,122.14 328.40,125.47 331.57,128.82 334.77,132.19 338.00,135.58 341.26,138.99 344.53,142.42 347.82,145.87 351.13,149.35 354.44,152.85 357.77,156.37 361.09,159.92 364.42,163.50 367.75,167.11 371.07,170.74 374.38,174.41 377.69,178.11 380.97,181.85 384.25,185.62 387.50,189.43 390.73,193.27 393.94,197.16 397.11,201.09 400.26,205.07 403.37,209.08 406.44,213.15 409.47,217.27 412.46,221.43 415.40,225.65 418.29,229.93 421.13,234.26 423.91,238.64 426.63,243.09 429.28,247.59 431.87,252.16 434.38,256.79 436.82,261.48 439.18,266.24 441.45,271.07 443.64,275.96 445.73,280.92 447.72,285.95 449.61,291.05 451.40,296.22 453.07,301.45 454.63,306.76 456.06,312.14 457.36,317.58 458.54,323.09 459.57,328.67 460.46,334.31 461.20,340.02 461.79,345.78 462.22,351.60 462.48,357.47 462.57,363.40 462.48,369.37 462.21,375.38 461.75,381.43 461.09,387.50 460.25,393.61 459.19,399.73 457.94,405.86 456.47,411.99 454.78,418.11 452.88,424.22 450.77,430.31 448.42,436.36 445.86,442.37 443.08,448.32 440.07,454.21 436.84,460.02 433.39,465.74 429.72,471.36 425.83,476.87 421.74,482.26 417.44,487.51 412.94,492.62 408.25,497.58 403.37,502.37 398.32,506.98 393.09,511.41 387.71,515.64 382.18,519.68 376.52,523.50 370.72,527.11 364.81,530.50 358.80,533.66 352.69,536.59 346.50,539.29 340.25,541.76 333.94,543.99 327.58,545.99 321.19,547.75 314.78,549.28 308.36,550.57 301.93,551.63 295.51,552.47 289.12,553.09 282.75,553.49 276.41,553.67 270.12,553.65 263.87,553.42 257.69,553.00 251.57,552.38 245.51,551.58 239.53,550.60 233.63,549.44 227.81,548.12 222.08,546.64 216.43,545.01 210.88,543.22 205.41,541.29 200.05,539.23 194.78,537.03 189.61,534.71 184.53,532.27 179.56,529.71 174.69,527.04 169.91,524.26 165.24,521.39 160.67,518.42 156.19,515.35 151.81,512.20 147.53,508.96 143.35,505.64 139.26,502.24 135.27,498.77 131.37,495.23 127.56,491.61 123.84,487.94 120.22,484.20 116.68,480.40 113.23,476.54 109.86,472.62 106.58,468.66 103.39,464.64 100.28,460.57 97.24,456.45 94.29,452.29 91.41,448.09 88.62,443.84 85.90,439.55 83.25,435.23 80.68,430.86 78.18,426.46 75.75,422.02 73.39,417.56 71.10,413.06 68.88,408.53 66.73,403.97 64.65,399.38 62.64,394.77 60.69,390.14 58.81,385.48 56.99,380.80 55.24,376.10 53.55,371.39 51.93,366.66 50.37,361.91 48.88,357.16 47.45,352.39 46.09,347.62 44.79,342.84 43.56,338.06 42.39,333.28 41.30,328.50 40.27,323.73 39.31,318.97 38.42,314.23 37.60,309.50 36.86,304.79 36.18,300.10 35.59,295.45 35.07,290.82 34.63,286.24 34.27,281.70 33.99,277.21 33.80,272.77 33.70,268.39 33.68,264.09 33.76,259.85 33.93,255.69 34.19,251.62 34.56,247.65 35.02,243.78 35.59,240.01 36.26,236.37 37.04,232.85 37.93,229.46"/>
  <polyline points="282.69,26.87 280.59,27.33 278.68,27.96 276.97,28.73 275.45,29.65 274.14,30.72 273.01,31.93 272.09,33.28 271.36,34.76 270.82,36.37 270.47,38.10 270.31,39.95 270.34,41.90 270.54,43.96 270.92,46.12 271.47,48.38 272.19,50.72 273.08,53.14 274.11,55.64 275.30,58.21 276.64,60.85 278.11,63.55 279.72,66.31 281.45,69.12 283.31,71.98 285.28,74.88 287.37,77.83 289.56,80.81 291.85,83.84 294.24,86.89 296.71,89.97 299.27,93.09 301.90,96.22 304.61,99.39 307.39,102.58 310.24,105.79 313.14,109.02 316.10,112.27 319.11,115.54 322.16,118.83 325.26,122.14 328.40,125.47 331.57,128.82 334.77,132.19 338.00,135.58 341.26,138.99 344.53,142.42 347.82,145.87 351.13,149.35 354.44,152.85 357.77,156.37 361.09,159.92 364.42,163.50 367.75,167.11 371.07,170.74 374.38,174.41 377.69,178.11 380.97,181.85 384.25,185.62 387.50,189.43"/>
</svg>