<svg width="630.0" height="630.0" viewBox="0 0 630.0 630.0" fill="none" stroke="black" stroke-width="6" stroke-linecap="round" stroke-linejoin="round" xmlns="http://www.w3.org/2000/svg">
  <circle cx="315.0" cy="315.0" r="290.0" fill="white"/>
  <polyline points="532.50,440.57 534.92,436.08 537.28,431.54 539.57,426.97 541.80,422.36 543.97,417.72 546.07,413.05 548.12,408.34 550.11,403.60 552.04,398.83 553.92,394.03 555.74,389.20 557.51,384.34 559.22,379.46 560.88,374.56 562.49,369.63 564.05,364.68 565.56,359.72 567.02,354.73 568.43,349.73 569.78,344.72 571.09,339.69 572.35,334.66 573.55,329.62 574.71,324.58 575.82,319.53 576.87,314.49 577.87,309.46 578.82,304.43 579.71,299.43 580.55,294.44 581.34,289.47 582.06,284.53 582.73,279.62 583.34,274.76 583.88,269.93 584.36,265.16 584.77,260.44 585.12,255.79 585.39,251.21 585.59,246.71 585.72,242.29 585.77,237.96 585.74,233.74 585.63,229.63 585.44,225.63 585.16,221.76 584.79,218.03 584.34,214.44 583.79,211.01 583.15,207.73 582.42,204.62 581.59,201.70 580.66,198.96 579.64,196.41"/>
  <polyline points="325.62,25.20 327.82,25.41 329.84,25.79 331.68,26.34 333.34,27.06 334.82,27.95 336.11,29.01 337.21,30.23 338.13,31.62 338.85,33.16 339.39,34.85 339.74,36.68 339.91,38.66 339.89,40.77 339.68,43.01 339.31,45.38 338.75,47.86 338.03,50.45 337.14,53.14 336.09,55.93 334.88,58.81 333.52,61.77 332.02,64.81 330.38,67.92 328.60,71.10 326.69,74.33 324.67,77.62 322.52,80.96 320.27,84.34 317.90,87.75 315.44,91.21 312.89,94.69 310.25,98.20 307.52,101.74 304.72,105.30 301.85,108.87 298.90,112.46 295.90,116.07 292.84,119.68 289.72,123.31 286.56,126.95 283.35,130.59 280.11,134.24 276.83,137.90 273.51,141.57 270.17,145.24 266.81,148.91 263.42,152.60 260.02,156.29 256.60,159.98 253.17,163.69 249.74,167.40 246.30,171.12 242.86,174.85 239.42,178.59 235.99,182.35 232.57,186.12 229.15,189.90 225.75,193.70 222.36,197.52 219.00,201.36 215.65,205.22 212.33,209.10 209.04,213.00 205.77,216.93 202.54,220.89 199.34,224.87 196.18,228.89 193.07,232.94 189.99,237.03 186.96,241.15 183.98,245.31 181.05,249.51 178.18,253.75 175.36,258.03 172.60,262.36 169.91,266.74 167.29,271.16 164.74,275.64 162.26,280.17 159.86,284.75 157.55,289.38 155.32,294.07 153.18,298.81 151.13,303.62 149.18,308.48 147.34,313.40 145.60,318.39 143.97,323.43 142.46,328.53 141.07,333.70 139.81,338.92 138.67,344.21 137.68,349.55 136.82,354.95 136.11,360.41 135.55,365.93 135.15,371.49 134.92,377.11 134.85,382.78 134.95,388.49 135.24,394.24 135.71,400.03 136.36,405.84 137.22,411.69 138.27,417.55 139.52,423.43 140.99,429.32 142.66,435.21 144.56,441.09 146.67,446.95 149.00,452.79 151.55,458.60 154.33,464.36 157.33,470.07 160.56,475.72 164.02,481.29 167.69,486.78 171.59,492.17 175.70,497.45 180.03,502.61 184.57,507.65 189.30,512.55 194.24,517.29 199.36,521.88 204.66,526.30 210.14,530.53 215.78,534.58 221.56,538.43 227.49,542.08 233.55,545.53 239.72,548.75 246.00,551.76 252.37,554.54 258.82,557.09 265.34,559.42 271.92,561.51 278.54,563.37 285.19,565.00 291.86,566.40 298.53,567.58 305.21,568.53 311.87,569.25 318.51,569.76 325.11,570.05 331.68,570.13 338.19,570.01 344.64,569.69 351.03,569.17 357.35,568.46 363.60,567.58 369.76,566.51 375.83,565.28 381.81,563.88 387.69,562.32 393.48,560.62 399.17,558.76 404.75,556.77 410.23,554.64 415.60,552.39 420.87,550.01 426.03,547.51 431.08,544.90 436.02,542.18 440.85,539.36 445.58,536.44 450.19,533.42 454.71,530.32 459.11,527.12 463.42,523.85 467.62,520.49 471.71,517.06 475.71,513.56 479.61,509.98 483.41,506.34 487.12,502.63 490.73,498.86 494.26,495.03 497.69,491.14 501.03,487.20 504.29,483.20 507.46,479.15 510.55,475.05 513.56,470.89 516.49,466.69 519.34,462.45 522.12,458.16 524.82,453.83 527.45,449.45 530.01,445.03 532.50,440.57 534.92,436.08 537.28,431.54 539.57,426.97 541.80,422.36 543.97,417.72 546.07,413.05 548.12,408.34 550.11,403.60 552.04,398.83 553.92,394.03 555.74,389.20 557.51,384.34 559.22,379.46 560.88,374.56 562.49,369.63 564.05,364.68 565.56,359.72 567.02,354.73 568.43,349.73 569.78,344.72 571.09,339.69 572.35,334.66 573.55,329.62 574.71,324.58 575.82,319.53 576.87,314.49 577.87,309.46 578.82,304.43 579.71,299.43 580.55,294.44 581.34,289.47 582.06,284.53 582.73,279.62 583.34,274.76 583.88,269.93 584.36,265.16 584.77,260.44 585.12,255.79 585.39,251.21 585.59,246.71 585.72,242.29 585.77,237.96 585.74,233.74 585.63,229.63 585.44,225.63 585.16,221.76 584.79,218.03 584.34,214.44 583.79,211.01 583.15,207.73 582.42,204.62 581.59,201.70 580.66,198.96 579.64,196.41"/>
  <polyline points="325.62,25.20 327.82,25.41 329.84,25.79 331.68,26.34 333.34,27.06 334.82,27.95 336.11,29.01 337.21,30.23 338.13,31.62 338.85,33.16 339.39,34.85 339.74,36.68 339.91,38.66 339.89,40.77 339.68,43.01 339.31,45.38 338.75,47.86 338.03,50.45 337.14,53.14 336.09,55.93 334.88,58.81 333.52,61.77 332.02,64.81 330.38,67.92 328.60,71.10 326.69,74.33 324.67,77.62 322.52,80.96 320.27,84.34 317.90,87.75 315.44,91.21 312.89,94.69 310.25,98.20 307.52,101.74 304.72,105.30 301.85,108.87 298.90,112.46 295.90,116.07 292.84,119.68 289.72,123.31 286.56,126.95 283.35,130.59 280.11,134.24 276.83,137.90 273.51,141.57 270.17,145.24 266.81,148.91 263.42,152.60 260.02,156.29 256.60,159.98 253.17,163.69 249.74,167.40 246.30,171.12 242.86,174.85 239.42,178.59 235.99,182.35 232.57,186.12 229.15,189.90 225.75,193.70 222.36,197.52 219.00,201.36 215.65,205.22 212.33,209.10 209.04,213.00 205.77,216.93 202.54,220.89 199.34,224.87 196.18,228.89 193.07,232.94 189.99,237.03 186.96,241.15 183.98,245.31 181.05,249.51 178.18,253.75 175.36,258.03 172.60,262.36 169.91,266.74 167.29,271.16 164.74,275.64 162.26,280.17 159.86,284.75 157.55,289.38 155.32,294.07 153.18,298.81 151.13,303.62 149.18,308.48 147.34,313.40 145.60,318.39 143.97,323.43 142.46,328.53 141.07,333.70 139.81,338.92 138.67,344.21 137.68,349.55 136.82,354.95 136.11,360.41 135.55,365.93 135.15,371.49 134.92,377.11 134.85,382.78 134.95,388.49 135.24,394.24 135.71,400.03 136.36,405.84 137.22,411.69 138.27,417.55 139.52,423.43 140.99,429.32 142.66,435.21 144.56,441.09 146.67,446.95 149.00,452.79 151.55,458.60 154.33,464.36 157.33,470.07 160.56,475.72 164.02,481.29 167.69,486.78 171.59,492.17 175.70,497.45 180.03,502.61 184.57,507.65 189.30,512.55 194.24,517.29 199.36,521.88 204.66,526.30 210.14,530.53 215.78,534.58 221.56,538.43 227.49,542.08 233.55,545.53 239.72,548.75 246.00,551.76 252.37,554.54 258.82,557.09 265.34,559.42 271.92,561.51 278.54,563.37 285.19,565.00 291.86,566.40 298.53,567.58 305.21,568.53 311.87,569.25 318.51,569.76 325.11,570.05 331.68,570.13 338.19,570.01 344.64,569.69 351.03,569.17 357.35,568.46 363.60,567.58 369.76,566.51 375.83,565.28 381.81,563.88 387.69,562.32 393.48,560.62 399.17,558.76 404.75,556.77 410.23,554.64 415.60,552.39 420.87,550.01 426.03,547.51 431.08,544.90 436.02,542.18 440.85,539.36 445.58,536.44 450.19,533.42 454.71,530.32 459.11,527.12 463.42,523.85 467.62,520.49 471.71,517.06 475.71,513.56 479.61,509.98 483.41,506.34 487.12,502.63 490.73,498.86 494.26,495.03 497.69,491.14 501.03,487.20 504.29,483.20 507.46,479.15 510.55,475.05 513.56,470.89 516.49,466.69 519.34,462.45 522.12,458.16 524.82,453.83 527.45,449.45 530.01,445.03 532.50,440.57"/>
</svg>