<svg width="630.0" height="630.0" viewBox="0 0 630.0 630.0" fill="none" stroke="black" stroke-width="6" stroke-linecap="round" stroke-linejoin="round" xmlns="http://www.w3.org/2000/svg">
  <circle cx="315.0" cy="315.0" r="290.0" fill="white"/>
  <polyline points="532.50,440.57 535.44,436.51 538.31,432.41 541.12,428.27 543.86,424.10 546.54,419.90 549.16,415.67 551.71,411.41 554.20,407.13 556.63,402.82 559.00,398.49 561.31,394.14 563.55,389.77 565.74,385.38 567.87,380.98 569.93,376.57 571.94,372.15 573.89,367.72 575.77,363.29 577.60,358.85 579.36,354.42 581.06,349.99 582.69,345.57 584.27,341.16 585.77,336.76 587.21,332.38 588.58,328.03 589.88,323.69 591.11,319.39 592.27,315.12 593.35,310.89 594.35,306.70 595.28,302.56 596.12,298.48 596.88,294.45 597.55,290.49 598.13,286.60 598.61,282.79 599.00,279.06 599.29,275.43 599.48,271.89 599.57,268.45 599.54,265.13 599.41,261.93 599.16,258.85 598.79,255.91 598.31,253.11"/>
  <polyline points="379.84,32.36 381.03,32.80 382.00,33.37 382.77,34.06 383.33,34.87 383.68,35.80 383.83,36.84 383.79,37.99 383.54,39.25 383.11,40.60 382.49,42.05 381.69,43.59 380.71,45.22 379.56,46.93 378.25,48.72 376.77,50.58 375.15,52.50 373.38,54.49 371.47,56.55 369.42,58.65 367.24,60.81 364.95,63.02 362.54,65.28 360.02,67.58 357.39,69.92 354.67,72.30 351.85,74.72 348.95,77.17 345.96,79.65 342.90,82.16 339.77,84.70 336.57,87.28 333.31,89.88 330.00,92.50 326.63,95.15 323.21,97.83 319.75,100.54 316.24,103.27 312.71,106.03 309.13,108.81 305.53,111.62 301.91,114.46 298.26,117.32 294.60,120.22 290.91,123.14 287.22,126.10 283.52,129.08 279.81,132.10 276.09,135.16 272.38,138.24 268.67,141.37 264.96,144.53 261.26,147.74 257.57,150.98 253.89,154.27 250.23,157.60 246.59,160.97 242.97,164.40 239.38,167.87 235.81,171.40 232.27,174.98 228.76,178.61 225.29,182.31 221.85,186.06 218.46,189.87 215.11,193.74 211.81,197.68 208.55,201.68 205.35,205.75 202.21,209.89 199.13,214.10 196.11,218.39 193.16,222.75 190.29,227.18 187.48,231.69 184.76,236.29 182.12,240.96 179.57,245.71 177.11,250.55 174.74,255.47 172.48,260.47 170.33,265.56 168.28,270.73 166.36,275.98 164.55,281.32 162.88,286.75 161.33,292.26 159.92,297.85 158.66,303.52 157.55,309.26 156.59,315.09 155.80,320.99 155.17,326.96 154.72,332.99 154.45,339.09 154.36,345.25 154.46,351.46 154.76,357.72 155.26,364.01 155.96,370.35 156.88,376.71 158.01,383.08 159.36,389.47 160.93,395.86 162.73,402.24 164.75,408.60 167.01,414.93 169.49,421.22 172.20,427.46 175.14,433.63 178.31,439.74 181.71,445.75 185.33,451.67 189.16,457.47 193.21,463.15 197.47,468.70 201.93,474.10 206.58,479.35 211.41,484.43 216.43,489.34 221.61,494.05 226.95,498.58 232.44,502.90 238.06,507.01 243.81,510.91 249.67,514.59 255.63,518.04 261.68,521.27 267.81,524.26 274.01,527.02 280.26,529.55 286.56,531.84 292.89,533.90 299.24,535.73 305.60,537.33 311.96,538.71 318.32,539.86 324.66,540.79 330.98,541.50 337.26,542.00 343.51,542.30 349.70,542.40 355.85,542.30 361.94,542.01 367.97,541.53 373.93,540.88 379.81,540.06 385.63,539.07 391.36,537.92 397.02,536.61 402.59,535.15 408.07,533.55 413.47,531.82 418.78,529.94 424.01,527.95 429.14,525.82 434.18,523.59 439.13,521.23 443.99,518.77 448.77,516.21 453.45,513.55 458.04,510.79 462.54,507.94 466.96,505.00 471.28,501.98 475.53,498.88 479.68,495.70 483.75,492.44 487.74,489.11 491.64,485.72 495.47,482.26 499.21,478.74 502.87,475.16 506.46,471.51 509.97,467.82 513.41,464.07 516.77,460.27 520.05,456.42 523.27,452.52 526.42,448.58 529.49,444.60 532.50,440.57 535.44,436.51 538.31,432.41 541.12,428.27 543.86,424.10 546.54,419.90 549.16,415.67 551.71,411.41 554.20,407.13 556.63,402.82 559.00,398.49 561.31,394.14 563.55,389.77 565.74,385.38 567.87,380.98 569.93,376.57 571.94,372.15 573.89,367.72 575.77,363.29 577.60,358.85 579.36,354.42 581.06,349.99 582.69,345.57 584.27,341.16 585.77,336.76 587.21,332.38 588.58,328.03 589.88,323.69 591.11,319.39 592.27,315.12 593.35,310.89 594.35,306.70 595.28,302.56 596.12,298.48 596.88,294.45 597.55,290.49 598.13,286.60 598.61,282.79 599.00,279.06 599.29,275.43 599.48,271.89 599.57,268.45 599.54,265.13 599.41,261.93 599.16,258.85 598.79,255.91 598.31,253.11"/>
  <polyline points="379.84,32.36 381.03,32.80 382.00,33.37 382.77,34.06 383.33,34.87 383.68,35.80 383.83,36.84 383.79,37.99 383.54,39.25 383.11,40.60 382.49,42.05 381.69,43.59 380.71,45.22 379.56,46.93 378.25,48.72 376.77,50.58 375.15,52.50 373.38,54.49 371.47,56.55 369.42,58.65 367.24,60.81 364.95,63.02 362.54,65.28 360.02,67.58 357.39,69.92 354.67,72.30 351.85,74.72 348.95,77.17 345.96,79.65 342.90,82.16 339.77,84.70 336.57,87.28 333.31,89.88 330.00,92.50 326.63,95.15 323.21,97.83 319.75,100.54 316.24,103.27 312.71,106.03 309.13,108.81 305.53,111.62 301.91,114.46 298.26,117.32 294.60,120.22 290.91,123.14 287.22,126.10 283.52,129.08 279.81,132.10 276.09,135.16 272.38,138.24 268.67,141.37 264.96,144.53 261.26,147.74 257.57,150.98 253.89,154.27 250.23,157.60 246.59,160.97 242.97,164.40 239.38,167.87 235.81,171.40 232.27,174.98 228.76,178.61 225.29,182.31 221.85,186.06 218.46,189.87 215.11,193.74 211.81,197.68 208.55,201.68 205.35,205.75 202.21,209.89 199.13,214.10 196.11,218.39 193.16,222.75 190.29,227.18 187.48,231.69 184.76,236.29 182.12,240.96 179.57,245.71 177.11,250.55 174.74,255.47 172.48,260.47 170.33,265.56 168.28,270.73 166.36,275.98 164.55,281.32 162.88,286.75 161.33,292.26 159.92,297.85 158.66,303.52 157.55,309.26 156.59,315.09 155.80,320.99 155.17,326.96 154.72,332.99 154.45,339.09 154.36,345.25 154.46,351.46 154.76,357.72 155.26,364.01 155.96,370.35 156.88,376.71 158.01,383.08 159.36,389.47 160.93,395.86 162.73,402.24 164.75,408.60 167.01,414.93 169.49,421.22 172.20,427.46 175.14,433.63 178.31,439.74 181.71,445.75 185.33,451.67 189.16,457.47 193.21,463.15 197.47,468.70 201.93,474.10 206.58,479.35 211.41,484.43 216.43,489.34 221.61,494.05 226.95,498.58 232.44,502.90 238.06,507.01 243.81,510.91 249.67,514.59 255.63,518.04 261.68,521.27 267.81,524.26 274.01,527.02 280.26,529.55 286.56,531.84 292.89,533.90 299.24,535.73 305.60,537.33 311.96,538.71 318.32,539.86 324.66,540.79 330.98,541.50 337.26,542.00 343.51,542.30 349.70,542.40 355.85,542.30 361.94,542.01 367.97,541.53 373.93,540.88 379.81,540.06 385.63,539.07 391.36,537.92 397.02,536.61 402.59,535.15 408.07,533.55 413.47,531.82 418.78,529.94 424.01,527.95 429.14,525.82 434.18,523.59 439.13,521.23 443.99,518.77 448.77,516.21 453.45,513.55 458.04,510.79 462.54,507.94 466.96,505.00 471.28,501.98 475.53,498.88 479.68,495.70 483.75,492.44 487.74,489.11 491.64,485.72 495.47,482.26 499.21,478.74 502.87,475.16 506.46,471.51 509.97,467.82 513.41,464.07 516.77,460.27 520.05,456.42 523.27,452.52 526.42,448.58 529.49,444.60 532.50,440.57"/>
</svg>