<svg width="630.0" height="630.0" viewBox="0 0 630.0 630.0" fill="none" stroke="black" stroke-width="6" stroke-linecap="round" stroke-linejoin="round" xmlns="http://www.w3.org/2000/svg">
  <circle cx="315.0" cy="315.0" r="290.0" fill="white"/>
  <polyline points="532.50,440.57 534.71,436.00 536.86,431.39 538.94,426.74 540.95,422.05 542.91,417.33 544.81,412.57 546.65,407.78 548.43,402.95 550.16,398.10 551.83,393.21 553.45,388.29 555.02,383.33 556.53,378.35 558.00,373.35 559.41,368.31 560.78,363.25 562.10,358.17 563.37,353.06 564.60,347.94 565.78,342.79 566.91,337.63 568.00,332.45 569.04,327.26 570.03,322.07 570.98,316.86 571.89,311.65 572.74,306.44 573.55,301.24 574.31,296.04 575.02,290.85 575.69,285.67 576.30,280.52 576.86,275.39 577.37,270.29 577.82,265.23 578.22,260.21 578.56,255.24 578.84,250.32 579.06,245.47 579.22,240.68 579.31,235.97 579.34,231.35 579.30,226.82 579.19,222.39 579.00,218.07 578.75,213.87 578.41,209.80 578.00,205.87 577.51,202.08 576.94,198.45 576.29,194.98 575.56,191.68 574.74,188.57 573.84,185.64 572.86,182.92 571.79,180.40"/>
  <polyline points="305.75,25.15 308.17,25.17 310.45,25.37 312.56,25.75 314.51,26.32 316.29,27.07 317.91,28.00 319.35,29.11 320.61,30.40 321.69,31.86 322.59,33.49 323.32,35.29 323.86,37.25 324.22,39.37 324.41,41.63 324.42,44.04 324.25,46.59 323.91,49.27 323.41,52.07 322.74,54.98 321.90,58.01 320.91,61.13 319.77,64.35 318.49,67.66 317.06,71.05 315.49,74.51 313.79,78.03 311.97,81.62 310.03,85.26 307.97,88.95 305.81,92.68 303.54,96.45 301.17,100.26 298.72,104.09 296.17,107.94 293.55,111.82 290.85,115.71 288.08,119.62 285.24,123.54 282.34,127.47 279.39,131.40 276.38,135.34 273.33,139.28 270.23,143.22 267.10,147.17 263.93,151.11 260.73,155.05 257.51,159.00 254.26,162.94 250.99,166.88 247.71,170.81 244.41,174.75 241.11,178.69 237.80,182.63 234.48,186.57 231.17,190.51 227.86,194.45 224.56,198.40 221.26,202.35 217.98,206.31 214.71,210.28 211.46,214.26 208.23,218.25 205.03,222.25 201.84,226.27 198.69,230.30 195.57,234.34 192.48,238.41 189.43,242.50 186.41,246.61 183.44,250.75 180.51,254.91 177.63,259.09 174.80,263.31 172.03,267.56 169.31,271.85 166.64,276.16 164.04,280.52 161.51,284.91 159.04,289.34 156.65,293.82 154.33,298.33 152.09,302.89 149.94,307.50 147.87,312.16 145.89,316.86 144.00,321.61 142.22,326.41 140.53,331.26 138.95,336.17 137.49,341.13 136.13,346.14 134.90,351.20 133.80,356.31 132.82,361.48 131.98,366.70 131.28,371.97 130.73,377.29 130.32,382.65 130.07,388.07 129.98,393.52 130.06,399.02 130.31,404.55 130.73,410.12 131.34,415.73 132.14,421.35 133.12,427.00 134.30,432.67 135.69,438.34 137.27,444.02 139.07,449.70 141.08,455.36 143.30,461.01 145.75,466.63 148.41,472.22 151.30,477.77 154.40,483.26 157.73,488.69 161.28,494.04 165.06,499.31 169.05,504.49 173.26,509.56 177.68,514.51 182.30,519.34 187.13,524.04 192.15,528.58 197.37,532.97 202.76,537.20 208.32,541.25 214.04,545.11 219.92,548.79 225.94,552.26 232.08,555.53 238.35,558.58 244.72,561.43 251.18,564.05 257.73,566.44 264.34,568.61 271.00,570.56 277.71,572.27 284.45,573.76 291.21,575.02 297.98,576.05 304.74,576.86 311.49,577.45 318.20,577.83 324.89,577.99 331.53,577.94 338.11,577.70 344.63,577.25 351.09,576.61 357.47,575.79 363.76,574.78 369.97,573.60 376.08,572.26 382.10,570.75 388.02,569.09 393.83,567.27 399.54,565.32 405.14,563.23 410.62,561.00 415.99,558.65 421.25,556.18 426.40,553.59 431.43,550.90 436.34,548.10 441.15,545.20 445.83,542.20 450.41,539.11 454.87,535.93 459.22,532.67 463.46,529.33 467.59,525.91 471.62,522.42 475.54,518.86 479.36,515.23 483.07,511.53 486.69,507.77 490.20,503.95 493.62,500.07 496.95,496.14 500.18,492.15 503.32,488.11 506.38,484.02 509.35,479.88 512.23,475.69 515.03,471.45 517.75,467.17 520.40,462.84 522.96,458.47 525.46,454.06 527.87,449.60 530.22,445.11 532.50,440.57 534.71,436.00 536.86,431.39 538.94,426.74 540.95,422.05 542.91,417.33 544.81,412.57 546.65,407.78 548.43,402.95 550.16,398.10 551.83,393.21 553.45,388.29 555.02,383.33 556.53,378.35 558.00,373.35 559.41,368.31 560.78,363.25 562.10,358.17 563.37,353.06 564.60,347.94 565.78,342.79 566.91,337.63 568.00,332.45 569.04,327.26 570.03,322.07 570.98,316.86 571.89,311.65 572.74,306.44 573.55,301.24 574.31,296.04 575.02,290.85 575.69,285.67 576.30,280.52 576.86,275.39 577.37,270.29 577.82,265.23 578.22,260.21 578.56,255.24 578.84,250.32 579.06,245.47 579.22,240.68 579.31,235.97 579.34,231.35 579.30,226.82 579.19,222.39 579.00,218.07 578.75,213.87 578.41,209.80 578.00,205.87 577.51,202.08 576.94,198.45 576.29,194.98 575.56,191.68 574.74,188.57 573.84,185.64 572.86,182.92 571.79,180.40"/>
  <polyline points="305.75,25.15 308.17,25.17 310.45,25.37 312.56,25.75 314.51,26.32 316.29,27.07 317.91,28.00 319.35,29.11 320.61,30.40 321.69,31.86 322.59,33.49 323.32,35.29 323.86,37.25 324.22,39.37 324.41,41.63 324.42,44.04 324.25,46.59 323.91,49.27 323.41,52.07 322.74,54.98 321.90,58.01 320.91,61.13 319.77,64.35 318.49,67.66 317.06,71.05 315.49,74.51 313.79,78.03 311.97,81.62 310.03,85.26 307.97,88.95 305.81,92.68 303.54,96.45 301.17,100.26 298.72,104.09 296.17,107.94 293.55,111.82 290.85,115.71 288.08,119.62 285.24,123.54 282.34,127.47 279.39,131.40 276.38,135.34 273.33,139.28 270.23,143.22 267.10,147.17 263.93,151.11 260.73,155.05 257.51,159.00 254.26,162.94 250.99,166.88 247.71,170.81 244.41,174.75 241.11,178.69 237.80,182.63 234.48,186.57 231.17,190.51 227.86,194.45 224.56,198.40 221.26,202.35 217.98,206.31 214.71,210.28 211.46,214.26 208.23,218.25 205.03,222.25 201.84,226.27 198.69,230.30 195.57,234.34 192.48,238.41 189.43,242.50 186.41,246.61 183.44,250.75 180.51,254.91 177.63,259.09 174.80,263.31 172.03,267.56 169.31,271.85 166.64,276.16 164.04,280.52 161.51,284.91 159.04,289.34 156.65,293.82 154.33,298.33 152.09,302.89 149.94,307.50 147.87,312.16 145.89,316.86 144.00,321.61 142.22,326.41 140.53,331.26 138.95,336.17 137.49,341.13 136.13,346.14 134.90,351.20 133.80,356.31 132.82,361.48 131.98,366.70 131.28,371.97 130.73,377.29 130.32,382.65 130.07,388.07 129.98,393.52 130.06,399.02 130.31,404.55 130.73,410.12 131.34,415.73 132.14,421.35 133.12,427.00 134.30,432.67 135.69,438.34 137.27,444.02 139.07,449.70 141.08,455.36 143.30,461.01 145.75,466.63 148.41,472.22 151.30,477.77 154.40,483.26 157.73,488.69 161.28,494.04 165.06,499.31 169.05,504.49 173.26,509.56 177.68,514.51 182.30,519.34 187.13,524.04 192.15,528.58 197.37,532.97 202.76,537.20 208.32,541.25 214.04,545.11 219.92,548.79 225.94,552.26 232.08,555.53 238.35,558.58 244.72,561.43 251.18,564.05 257.73,566.44 264.34,568.61 271.00,570.56 277.71,572.27 284.45,573.76 291.21,575.02 297.98,576.05 304.74,576.86 311.49,577.45 318.20,577.83 324.89,577.99 331.53,577.94 338.11,577.70 344.63,577.25 351.09,576.61 357.47,575.79 363.76,574.78 369.97,573.60 376.08,572.26 382.10,570.75 388.02,569.09 393.83,567.27 399.54,565.32 405.14,563.23 410.62,561.00 415.99,558.65 421.25,556.18 426.40,553.59 431.43,550.90 436.34,548.10 441.15,545.20 445.83,542.20 450.41,539.11 454.87,535.93 459.22,532.67 463.46,529.33 467.59,525.91 471.62,522.42 475.54,518.86 479.36,515.23 483.07,511.53 486.69,507.77 490.20,503.95 493.62,500.07 496.95,496.14 500.18,492.15 503.32,488.11 506.38,484.02 509.35,479.88 512.23,475.69 515.03,471.45 517.75,467.17 520.40,462.84 522.96,458.47 525.46,454.06 527.87,449.60 530.22,445.11 532.50,440.57"/>
</svg>