<svg width="630.0" height="630.0" viewBox="0 0 630.0 630.0" fill="none" stroke="black" stroke-width="6" stroke-linecap="round" stroke-linejoin="round" xmlns="http://www.w3.org/2000/svg">
  <circle cx="315.0" cy="315.0" r="290.0" fill="white"/>
  <polyline points="440.57,97.50 444.15,100.74 447.69,104.05 451.19,107.43 454.64,110.88 458.04,114.39 461.39,117.98 464.68,121.64 467.92,125.38 471.10,129.18 474.22,133.06 477.27,137.02 480.26,141.05 483.17,145.15 486.01,149.33 488.77,153.59 491.46,157.93 494.05,162.35 496.56,166.85 498.98,171.42 501.30,176.08 503.52,180.81 505.64,185.63 507.65,190.52 509.55,195.50 511.33,200.55 512.98,205.69 514.51,210.90 515.91,216.19 517.16,221.55 518.28,226.99 519.24,232.50 520.06,238.08 520.71,243.73 521.20,249.44 521.52,255.21 521.66,261.05 521.62,266.93 521.39,272.87 520.97,278.85 520.36,284.86 519.54,290.91 518.51,296.99 517.27,303.09 515.81,309.19 514.14,315.30 512.24,321.41 510.12,327.50 507.77,333.57 505.19,339.61 502.38,345.60 499.34,351.55 496.07,357.42 492.57,363.22 488.85,368.94 484.91,374.56 480.74,380.06 476.36,385.45 471.78,390.71 466.99,395.83 462.02,400.79 456.85,405.60 451.51,410.23 446.01,414.68 440.34,418.94 434.54,423.00 428.60,426.87 422.53,430.52 416.36,433.95 410.09,437.17 403.74,440.16 397.31,442.93 390.82,445.47 384.28,447.78 377.71,449.86 371.11,451.71 364.50,453.33 357.88,454.73 351.27,455.90 344.68,456.85 338.11,457.58 331.58,458.10 325.10,458.42 318.66,458.52 312.28,458.43 305.97,458.15 299.73,457.68 293.56,457.02 287.47,456.19 281.46,455.19 275.54,454.03 269.72,452.71 263.98,451.24 258.34,449.62 252.80,447.87 247.35,445.98 242.00,443.96 236.75,441.82 231.60,439.57 226.56,437.20 221.61,434.73 216.76,432.16 212.01,429.49 207.35,426.73 202.80,423.89 198.34,420.96 193.97,417.96 189.69,414.89 185.51,411.74 181.42,408.53 177.41,405.27 173.49,401.94 169.66,398.56 165.91,395.13 162.23,391.66 158.64,388.14 155.13,384.58 151.69,380.99 148.32,377.36 145.02,373.70 141.80,370.01 138.64,366.30 135.54,362.56 132.51,358.81 129.55,355.04 126.64,351.25 123.79,347.45 121.00,343.65 118.26,339.84 115.58,336.02 112.95,332.21 110.37,328.40 107.83,324.59 105.35,320.79 102.91,317.00 100.52,313.23 98.17,309.47 95.86,305.73 93.60,302.02 91.38,298.33 89.19,294.67 87.05,291.04 84.94,287.45 82.87,283.90 80.84,280.40 78.85,276.94 76.89,273.53 74.97,270.18 73.09,266.89 71.24,263.66 69.44,260.50 67.67,257.42 65.94,254.42 64.25,251.49 62.60,248.66 60.99,245.93 59.43,243.29 57.91,240.76 56.43,238.34 55.01,236.04 53.63,233.86 52.31,231.82 51.04,229.90 49.84,228.14 48.69,226.52 47.60,225.05 46.58,223.75 45.64,222.61 44.76,221.65 43.96,220.87 43.24,220.27 42.60,219.86 42.04,219.65 41.58,219.64 41.21,219.83 40.93,220.24"/>
  <polyline points="291.22,26.01 293.93,25.95 296.75,26.01 299.68,26.19 302.71,26.49 305.83,26.90 309.03,27.43 312.32,28.06 315.68,28.79 319.11,29.63 322.61,30.56 326.16,31.59 329.77,32.71 333.43,33.92 337.13,35.21 340.87,36.59 344.64,38.06 348.45,39.60 352.28,41.22 356.14,42.91 360.02,44.68 363.91,46.53 367.81,48.44 371.73,50.42 375.65,52.48 379.57,54.60 383.49,56.79 387.41,59.05 391.32,61.37 395.23,63.76 399.13,66.21 403.01,68.73 406.87,71.31 410.72,73.96 414.55,76.68 418.35,79.45 422.13,82.30 425.89,85.20 429.61,88.18 433.30,91.22 436.95,94.33 440.57,97.50 444.15,100.74 447.69,104.05 451.19,107.43 454.64,110.88 458.04,114.39 461.39,117.98 464.68,121.64 467.92,125.38 471.10,129.18 474.22,133.06 477.27,137.02 480.26,141.05 483.17,145.15 486.01,149.33 488.77,153.59 491.46,157.93 494.05,162.35 496.56,166.85 498.98,171.42 501.30,176.08 503.52,180.81 505.64,185.63 507.65,190.52 509.55,195.50 511.33,200.55 512.98,205.69 514.51,210.90 515.91,216.19 517.16,221.55 518.28,226.99 519.24,232.50 520.06,238.08 520.71,243.73 521.20,249.44 521.52,255.21 521.66,261.05 521.62,266.93 521.39,272.87 520.97,278.85 520.36,284.86 519.54,290.91 518.51,296.99 517.27,303.09 515.81,309.19 514.14,315.30 512.24,321.41 510.12,327.50 507.77,333.57 505.19,339.61 502.38,345.60 499.34,351.55 496.07,357.42 492.57,363.22 488.85,368.94 484.91,374.56 480.74,380.06 476.36,385.45 471.78,390.71 466.99,395.83 462.02,400.79 456.85,405.60 451.51,410.23 446.01,414.68 440.34,418.94 434.54,423.00 428.60,426.87 422.53,430.52 416.36,433.95 410.09,437.17 403.74,440.16 397.31,442.93 390.82,445.47 384.28,447.78 377.71,449.86 371.11,451.71 364.50,453.33 357.88,454.73 351.27,455.90 344.68,456.85 338.11,457.58 331.58,458.10 325.10,458.42 318.66,458.52 312.28,458.43 305.97,458.15 299.73,457.68 293.56,457.02 287.47,456.19 281.46,455.19 275.54,454.03 269.72,452.71 263.98,451.24 258.34,449.62 252.80,447.87 247.35,445.98 242.00,443.96 236.75,441.82 231.60,439.57 226.56,437.20 221.61,434.73 216.76,432.16 212.01,429.49 207.35,426.73 202.80,423.89 198.34,420.96 193.97,417.96 189.69,414.89 185.51,411.74 181.42,408.53 177.41,405.27 173.49,401.94 169.66,398.56 165.91,395.13 162.23,391.66 158.64,388.14 155.13,384.58 151.69,380.99 148.32,377.36 145.02,373.70 141.80,370.01 138.64,366.30 135.54,362.56 132.51,358.81 129.55,355.04 126.64,351.25 123.79,347.45 121.00,343.65 118.26,339.84 115.58,336.02 112.95,332.21 110.37,328.40 107.83,324.59 105.35,320.79 102.91,317.00 100.52,313.23 98.17,309.47 95.86,305.73 93.60,302.02 91.38,298.33 89.19,294.67 87.05,291.04 84.94,287.45 82.87,283.90 80.84,280.40 78.85,276.94 76.89,273.53 74.97,270.18 73.09,266.89 71.24,263.66 69.44,260.50 67.67,257.42 65.94,254.42 64.25,251.49 62.60,248.66 60.99,245.93 59.43,243.29 57.91,240.76 56.43,238.34 55.01,236.04 53.63,233.86 52.31,231.82 51.04,229.90 49.84,228.14 48.69,226.52 47.60,225.05 46.58,223.75 45.64,222.61 44.76,221.65 43.96,220.87 43.24,220.27 42.60,219.86 42.04,219.65 41.58,219.64 41.21,219.83 40.93,220.24"/>
  <polyline points="291.22,26.01 293.93,25.95 296.75,26.01 299.68,26.19 302.71,26.49 305.83,26.90 309.03,27.43 312.32,28.06 315.68,28.79 319.11,29.63 322.61,30.56 326.16,31.59 329.77,32.71 333.43,33.92 337.13,35.21 340.87,36.59 344.64,38.06 348.45,39.60 352.28,41.22 356.14,42.91 360.02,44.68 363.91,46.53 367.81,48.44 371.73,50.42 375.65,52.48 379.57,54.60 383.49,56.79 387.41,59.05 391.32,61.37 395.23,63.76 399.13,66.21 403.01,68.73 406.87,71.31 410.72,73.96 414.55,76.68 418.35,79.45 422.13,82.30 425.89,85.20 429.61,88.18 433.30,91.22 436.95,94.33 440.57,97.50"/>
</svg>