<svg width="630.0" height="630.0" viewBox="0 0 630.0 630.0" fill="none" stroke="black" stroke-width="6" stroke-linecap="round" stroke-linejoin="round" xmlns="http://www.w3.org/2000/svg">
  <circle cx="315.0" cy="315.0" r="290.0" fill="white"/>
  <polyline points="408.20,426.08 412.90,424.32 417.56,422.54 422.19,420.72 426.80,418.89 431.38,417.03 435.93,415.15 440.46,413.26 444.96,411.35 449.43,409.44 453.88,407.52 458.31,405.60 462.70,403.69 467.07,401.78 471.42,399.87 475.73,397.98 480.02,396.11 484.28,394.25 488.52,392.41 492.72,390.60 496.89,388.82 501.03,387.08 505.13,385.37 509.20,383.70 513.23,382.08 517.21,380.51 521.16,378.98 525.06,377.52 528.91,376.12 532.71,374.78 536.46,373.51 540.14,372.31 543.76,371.19 547.32,370.15 550.80,369.20 554.20,368.34 557.53,367.57 560.76,366.90 563.90,366.33 566.94,365.87 569.88,365.52 572.70,365.29 575.41,365.17 577.99,365.17 580.43,365.29 582.74,365.54 584.90,365.92 586.90,366.43 588.75,367.08 590.43,367.86 591.94,368.78 593.26,369.83 594.40,371.03 595.35,372.36 596.11,373.83 596.66,375.43 597.01,377.17 597.15,379.05 597.09,381.05 596.81,383.19"/>
  <polyline points="490.15,83.90 487.27,81.90 484.22,79.97 481.03,78.09 477.69,76.26 474.21,74.50 470.60,72.80 466.86,71.16 463.02,69.58 459.06,68.06 455.01,66.60 450.86,65.20 446.62,63.87 442.31,62.59 437.92,61.37 433.46,60.22 428.94,59.13 424.36,58.09 419.73,57.12 415.05,56.21 410.32,55.36 405.56,54.58 400.76,53.85 395.92,53.19 391.06,52.58 386.17,52.04 381.26,51.56 376.32,51.15 371.37,50.80 366.41,50.51 361.43,50.28 356.44,50.12 351.44,50.03 346.43,50.00 341.41,50.04 336.40,50.15 331.37,50.33 326.35,50.57 321.33,50.89 316.31,51.28 311.29,51.74 306.27,52.27 301.26,52.89 296.26,53.57 291.26,54.34 286.27,55.18 281.29,56.11 276.32,57.11 271.36,58.20 266.41,59.38 261.47,60.64 256.55,61.99 251.65,63.44 246.76,64.97 241.89,66.60 237.04,68.32 232.21,70.15 227.41,72.07 222.63,74.09 217.87,76.22 213.15,78.46 208.45,80.80 203.79,83.25 199.16,85.82 194.57,88.50 190.02,91.29 185.51,94.21 181.05,97.24 176.64,100.40 172.28,103.68 167.98,107.09 163.74,110.63 159.56,114.30 155.46,118.09 151.43,122.02 147.48,126.09 143.61,130.29 139.84,134.63 136.16,139.10 132.58,143.71 129.11,148.45 125.76,153.34 122.53,158.35 119.42,163.50 116.46,168.79 113.63,174.20 110.96,179.75 108.45,185.41 106.10,191.20 103.92,197.11 101.93,203.12 100.12,209.25 98.51,215.47 97.11,221.79 95.91,228.19 94.93,234.67 94.17,241.21 93.64,247.82 93.34,254.47 93.28,261.17 93.46,267.89 93.88,274.63 94.55,281.37 95.46,288.10 96.62,294.81 98.03,301.49 99.69,308.13 101.59,314.70 103.73,321.21 106.10,327.63 108.71,333.96 111.54,340.18 114.59,346.28 117.85,352.26 121.32,358.10 124.98,363.79 128.83,369.32 132.86,374.69 137.06,379.89 141.41,384.91 145.92,389.75 150.56,394.41 155.32,398.87 160.21,403.14 165.21,407.21 170.30,411.09 175.48,414.76 180.74,418.24 186.07,421.52 191.46,424.60 196.90,427.49 202.39,430.18 207.91,432.68 213.47,434.99 219.05,437.11 224.65,439.06 230.26,440.82 235.87,442.41 241.49,443.83 247.10,445.09 252.71,446.18 258.30,447.11 263.88,447.90 269.45,448.53 274.99,449.02 280.51,449.38 286.00,449.60 291.47,449.69 296.91,449.65 302.31,449.50 307.69,449.23 313.04,448.85 318.35,448.37 323.63,447.78 328.87,447.09 334.08,446.31 339.26,445.45 344.40,444.49 349.50,443.46 354.58,442.35 359.61,441.16 364.62,439.91 369.59,438.58 374.53,437.20 379.43,435.76 384.30,434.26 389.15,432.72 393.96,431.12 398.73,429.48 403.48,427.80 408.20,426.08 412.90,424.32 417.56,422.54 422.19,420.72 426.80,418.89 431.38,417.03 435.93,415.15 440.46,413.26 444.96,411.35 449.43,409.44 453.88,407.52 458.31,405.60 462.70,403.69 467.07,401.78 471.42,399.87 475.73,397.98 480.02,396.11 484.28,394.25 488.52,392.41 492.72,390.60 496.89,388.82 501.03,387.08 505.13,385.37 509.20,383.70 513.23,382.08 517.21,380.51 521.16,378.98 525.06,377.52 528.91,376.12 532.71,374.78 536.46,373.51 540.14,372.31 543.76,371.19 547.32,370.15 550.80,369.20 554.20,368.34 557.53,367.57 560.76,366.90 563.90,366.33 566.94,365.87 569.88,365.52 572.70,365.29 575.41,365.17 577.99,365.17 580.43,365.29 582.74,365.54 584.90,365.92 586.90,366.43 588.75,367.08 590.43,367.86 591.94,368.78 593.26,369.83 594.40,371.03 595.35,372.36 596.11,373.83 596.66,375.43 597.01,377.17 597.15,379.05 597.09,381.05 596.81,383.19"/>
  <polyline points="490.15,83.90 487.27,81.90 484.22,79.97 481.03,78.09 477.69,76.26 474.21,74.50 470.60,72.80 466.86,71.16 463.02,69.58 459.06,68.06 455.01,66.60 450.86,65.20 446.62,63.87 442.31,62.59 437.92,61.37 433.46,60.22 428.94,59.13 424.36,58.09 419.73,57.12 415.05,56.21 410.32,55.36 405.56,54.58 400.76,53.85 395.92,53.19 391.06,52.58 386.17,52.04 381.26,51.56 376.32,51.15 371.37,50.80 366.41,50.51 361.43,50.28 356.44,50.12 351.44,50.03 346.43,50.00 341.41,50.04 336.40,50.15 331.37,50.33 326.35,50.57 321.33,50.89 316.31,51.28 311.29,51.74 306.27,52.27 301.26,52.89 296.26,53.57 291.26,54.34 286.27,55.18 281.29,56.11 276.32,57.11 271.36,58.20 266.41,59.38 261.47,60.64 256.55,61.99 251.65,63.44 246.76,64.97 241.89,66.60 237.04,68.32 232.21,70.15 227.41,72.07 222.63,74.09 217.87,76.22 213.15,78.46 208.45,80.80 203.79,83.25 199.16,85.82 194.57,88.50 190.02,91.29 185.51,94.21 181.05,97.24 176.64,100.40 172.28,103.68 167.98,107.09 163.74,110.63 159.56,114.30 155.46,118.09 151.43,122.02 147.48,126.09 143.61,130.29 139.84,134.63 136.16,139.10 132.58,143.71 129.11,148.45 125.76,153.34 122.53,158.35 119.42,163.50 116.46,168.79 113.63,174.20 110.96,179.75 108.45,185.41 106.10,191.20 103.92,197.11 101.93,203.12 100.12,209.25 98.51,215.47 97.11,221.79 95.91,228.19 94.93,234.67 94.17,241.21 93.64,247.82 93.34,254.47 93.28,261.17 93.46,267.89 93.88,274.63 94.55,281.37 95.46,288.10 96.62,294.81 98.03,301.49 99.69,308.13 101.59,314.70 103.73,321.21 106.10,327.63 108.71,333.96 111.54,340.18 114.59,346.28 117.85,352.26 121.32,358.10 124.98,363.79 128.83,369.32 132.86,374.69 137.06,379.89 141.41,384.91 145.92,389.75 150.56,394.41 155.32,398.87 160.21,403.14 165.21,407.21 170.30,411.09 175.48,414.76 180.74,418.24 186.07,421.52 191.46,424.60 196.90,427.49 202.39,430.18 207.91,432.68 213.47,434.99 219.05,437.11 224.65,439.06 230.26,440.82 235.87,442.41 241.49,443.83 247.10,445.09 252.71,446.18 258.30,447.11 263.88,447.90 269.45,448.53 274.99,449.02 280.51,449.38 286.00,449.60 291.47,449.69 296.91,449.65 302.31,449.50 307.69,449.23 313.04,448.85 318.35,448.37 323.63,447.78 328.87,447.09 334.08,446.31 339.26,445.45 344.40,444.49 349.50,443.46 354.58,442.35 359.61,441.16 364.62,439.91 369.59,438.58 374.53,437.20 379.43,435.76 384.30,434.26 389.15,432.72 393.96,431.12 398.73,429.48 403.48,427.80 408.20,426.08"/>
</svg>