<svg width="630.0" height="630.0" viewBox="0 0 630.0 630.0" xmlns="http://www.w3.org/2000/svg">
<circle cx="315.0" cy="315.0" r="290.0" fill="#fff" stroke="#000" stroke-width="6"/>
<polyline points="532.50,440.57 533.15,436.27 533.73,431.92 534.25,427.53 534.70,423.10 535.10,418.62 535.45,414.10 535.74,409.54 535.97,404.93 536.16,400.28 536.30,395.57 536.39,390.82 536.44,386.02 536.45,381.17 536.42,376.26 536.34,371.31 536.24,366.30 536.09,361.24 535.91,356.13 535.71,350.96 535.47,345.74 535.20,340.47 534.90,335.14 534.58,329.76 534.24,324.33 533.87,318.85 533.48,313.32 533.07,307.74 532.64,302.12 532.19,296.45 531.73,290.73 531.25,284.98 530.75,279.19 530.24,273.37 529.72,267.51 529.18,261.63 528.64,255.73 528.08,249.82 527.51,243.89 526.94,237.96 526.35,232.03 525.76,226.12 525.16,220.21 524.55,214.34 523.94,208.49 523.31,202.69 522.69,196.94 522.05,191.26 521.42,185.64 520.78,180.10 520.13,174.66 519.48,169.32 518.83,164.09 518.17,158.99 517.52,154.02 516.86,149.20 516.20,144.54 515.54,140.04 514.89,135.72 514.23,131.59 513.58,127.65 512.93,123.91 512.29,120.39 511.66,117.09 511.03,114.01 510.41,111.16 509.80,108.55 509.20,106.17 508.61,104.04 508.04,102.15 507.49,100.50 506.95,99.10 506.42,97.94 505.92,97.02 505.44,96.34" fill="none" stroke="#000" stroke-width="6" stroke-linecap="round"/>
<polyline points="193.44,51.71 195.74,50.76 197.99,49.98 200.19,49.40 202.34,49.01 204.43,48.82 206.45,48.84 208.41,49.06 210.29,49.50 212.10,50.15 213.83,51.03 215.47,52.12 217.03,53.45 218.50,55.00 219.87,56.77 221.15,58.77 222.32,61.00 223.39,63.45 224.36,66.12 225.22,69.01 225.96,72.10 226.60,75.41 227.12,78.91 227.53,82.61 227.83,86.49 228.01,90.55 228.08,94.77 228.03,99.16 227.87,103.70 227.60,108.37 227.22,113.18 226.74,118.10 226.14,123.13 225.45,128.26 224.65,133.48 223.76,138.77 222.77,144.13 221.69,149.55 220.52,155.02 219.27,160.52 217.93,166.06 216.52,171.62 215.03,177.19 213.48,182.77 211.86,188.35 210.17,193.92 208.43,199.49 206.63,205.03 204.78,210.55 202.89,216.05 200.95,221.52 198.97,226.95 196.96,232.34 194.91,237.70 192.84,243.01 190.73,248.28 188.61,253.51 186.47,258.68 184.31,263.81 182.14,268.89 179.96,273.93 177.77,278.91 175.58,283.84 173.39,288.73 171.20,293.57 169.02,298.36 166.85,303.10 164.68,307.80 162.53,312.45 160.40,317.05 158.29,321.62 156.20,326.14 154.13,330.63 152.09,335.07 150.08,339.48 148.10,343.86 146.16,348.20 144.25,352.51 142.38,356.78 140.56,361.03 138.78,365.26 137.05,369.46 135.38,373.63 133.75,377.79 132.18,381.92 130.67,386.04 129.22,390.14 127.84,394.23 126.53,398.30 125.28,402.36 124.11,406.42 123.02,410.46 122.00,414.50 121.07,418.54 120.23,422.57 119.47,426.60 118.81,430.63 118.25,434.66 117.79,438.69 117.43,442.72 117.18,446.75 117.04,450.79 117.01,454.83 117.11,458.88 117.33,462.93 117.68,466.98 118.16,471.04 118.78,475.11 119.53,479.17 120.43,483.24 121.48,487.31 122.69,491.38 124.05,495.46 125.57,499.52 127.26,503.58 129.12,507.64 131.15,511.68 133.36,515.71 135.75,519.72 138.32,523.71 141.09,527.68 144.04,531.61 147.19,535.51 150.53,539.37 154.07,543.19 157.81,546.95 161.75,550.66 165.88,554.30 170.22,557.87 174.75,561.36 179.48,564.76 184.40,568.08 189.52,571.29 194.82,574.39 200.30,577.38 205.95,580.25 211.78,582.99 217.77,585.59 223.91,588.04 230.19,590.34 236.61,592.49 243.16,594.47 249.82,596.29 256.58,597.93 263.43,599.40 270.36,600.68 277.36,601.78 284.40,602.70 291.48,603.43 298.59,603.97 305.71,604.32 312.83,604.49 319.93,604.47 327.01,604.27 334.04,603.89 341.02,603.34 347.94,602.61 354.79,601.71 361.55,600.65 368.22,599.43 374.79,598.06 381.25,596.53 387.59,594.87 393.80,593.07 399.89,591.14 405.84,589.09 411.65,586.92 417.32,584.64 422.84,582.25 428.21,579.76 433.43,577.18 438.50,574.51 443.41,571.75 448.18,568.92 452.78,566.01 457.24,563.03 461.54,559.98 465.69,556.87 469.70,553.71 473.55,550.49 477.26,547.22 480.82,543.89 484.24,540.53 487.52,537.12 490.67,533.66 493.68,530.17 496.56,526.64 499.31,523.07 501.93,519.47 504.43,515.83 506.82,512.16 509.08,508.46 511.23,504.72 513.27,500.96 515.20,497.16 517.03,493.33 518.75,489.47 520.38,485.58 521.91,481.65 523.34,477.70 524.69,473.71 525.95,469.69 527.12,465.64 528.21,461.55 529.21,457.43 530.15,453.27 531.00,449.07 531.79,444.84 532.50,440.57 533.15,436.27 533.73,431.92 534.25,427.53 534.70,423.10 535.10,418.62 535.45,414.10 535.74,409.54 535.97,404.93 536.16,400.28 536.30,395.57 536.39,390.82 536.44,386.02 536.45,381.17 536.42,376.26 536.34,371.31 536.24,366.30 536.09,361.24 535.91,356.13 535.71,350.96 535.47,345.74 535.20,340.47 534.90,335.14 534.58,329.76 534.24,324.33 533.87,318.85 533.48,313.32 533.07,307.74 532.64,302.12 532.19,296.45 531.73,290.73 531.25,284.98 530.75,279.19 530.24,273.37 529.72,267.51 529.18,261.63 528.64,255.73 528.08,249.82 527.51,243.89 526.94,237.96 526.35,232.03 525.76,226.12 525.16,220.21 524.55,214.34 523.94,208.49 523.31,202.69 522.69,196.94 522.05,191.26 521.42,185.64 520.78,180.10 520.13,174.66 519.48,169.32 518.83,164.09 518.17,158.99 517.52,154.02 516.86,149.20 516.20,144.54 515.54,140.04 514.89,135.72 514.23,131.59 513.58,127.65 512.93,123.91 512.29,120.39 511.66,117.09 511.03,114.01 510.41,111.16 509.80,108.55 509.20,106.17 508.61,104.04 508.04,102.15 507.49,100.50 506.95,99.10 506.42,97.94 505.92,97.02 505.44,96.34" fill="none" stroke="#000" stroke-width="6" stroke-linecap="round"/>
<polyline points="193.44,51.71 195.74,50.76 197.99,49.98 200.19,49.40 202.34,49.01 204.43,48.82 206.45,48.84 208.41,49.06 210.29,49.50 212.10,50.15 213.83,51.03 215.47,52.12 217.03,53.45 218.50,55.00 219.87,56.77 221.15,58.77 222.32,61.00 223.39,63.45 224.36,66.12 225.22,69.01 225.96,72.10 226.60,75.41 227.12,78.91 227.53,82.61 227.83,86.49 228.01,90.55 228.08,94.77 228.03,99.16 227.87,103.70 227.60,108.37 227.22,113.18 226.74,118.10 226.14,123.13 225.45,128.26 224.65,133.48 223.76,138.77 222.77,144.13 221.69,149.55 220.52,155.02 219.27,160.52 217.93,166.06 216.52,171.62 215.03,177.19 213.48,182.77 211.86,188.35 210.17,193.92 208.43,199.49 206.63,205.03 204.78,210.55 202.89,216.05 200.95,221.52 198.97,226.95 196.96,232.34 194.91,237.70 192.84,243.01 190.73,248.28 188.61,253.51 186.47,258.68 184.31,263.81 182.14,268.89 179.96,273.93 177.77,278.91 175.58,283.84 173.39,288.73 171.20,293.57 169.02,298.36 166.85,303.10 164.68,307.80 162.53,312.45 160.40,317.05 158.29,321.62 156.20,326.14 154.13,330.63 152.09,335.07 150.08,339.48 148.10,343.86 146.16,348.20 144.25,352.51 142.38,356.78 140.56,361.03 138.78,365.26 137.05,369.46 135.38,373.63 133.75,377.79 132.18,381.92 130.67,386.04 129.22,390.14 127.84,394.23 126.53,398.30 125.28,402.36 124.11,406.42 123.02,410.46 122.00,414.50 121.07,418.54 120.23,422.57 119.47,426.60 118.81,430.63 118.25,434.66 117.79,438.69 117.43,442.72 117.18,446.75 117.04,450.79 117.01,454.83 117.11,458.88 117.33,462.93 117.68,466.98 118.16,471.04 118.78,475.11 119.53,479.17 120.43,483.24 121.48,487.31 122.69,491.38 124.05,495.46 125.57,499.52 127.26,503.58 129.12,507.64 131.15,511.68 133.36,515.71 135.75,519.72 138.32,523.71 141.09,527.68 144.04,531.61 147.19,535.51 150.53,539.37 154.07,543.19 157.81,546.95 161.75,550.66 165.88,554.30 170.22,557.87 174.75,561.36 179.48,564.76 184.40,568.08 189.52,571.29 194.82,574.39 200.30,577.38 205.95,580.25 211.78,582.99 217.77,585.59 223.91,588.04 230.19,590.34 236.61,592.49 243.16,594.47 249.82,596.29 256.58,597.93 263.43,599.40 270.36,600.68 277.36,601.78 284.40,602.70 291.48,603.43 298.59,603.97 305.71,604.32 312.83,604.49 319.93,604.47 327.01,604.27 334.04,603.89 341.02,603.34 347.94,602.61 354.79,601.71 361.55,600.65 368.22,599.43 374.79,598.06 381.25,596.53 387.59,594.87 393.80,593.07 399.89,591.14 405.84,589.09 411.65,586.92 417.32,584.64 422.84,582.25 428.21,579.76 433.43,577.18 438.50,574.51 443.41,571.75 448.18,568.92 452.78,566.01 457.24,563.03 461.54,559.98 465.69,556.87 469.70,553.71 473.55,550.49 477.26,547.22 480.82,543.89 484.24,540.53 487.52,537.12 490.67,533.66 493.68,530.17 496.56,526.64 499.31,523.07 501.93,519.47 504.43,515.83 506.82,512.16 509.08,508.46 511.23,504.72 513.27,500.96 515.20,497.16 517.03,493.33 518.75,489.47 520.38,485.58 521.91,481.65 523.34,477.70 524.69,473.71 525.95,469.69 527.12,465.64 528.21,461.55 529.21,457.43 530.15,453.27 531.00,449.07 531.79,444.84 532.50,440.57" fill="none" stroke="#000" stroke-width="6" stroke-linecap="round"/>
</svg>