<svg width="630.0" height="630.0" viewBox="0 0 630.0 630.0" fill="none" stroke="black" stroke-width="6" stroke-linecap="round" stroke-linejoin="round" xmlns="http://www.w3.org/2000/svg">
  <circle cx="315.0" cy="315.0" r="290.0" fill="white"/>
  <polyline points="352.53,250.00 355.67,254.01 358.79,258.03 361.90,262.09 364.98,266.17 368.04,270.27 371.07,274.41 374.08,278.58 377.04,282.78 379.97,287.02 382.86,291.29 385.71,295.61 388.51,299.96 391.25,304.36 393.94,308.80 396.58,313.29 399.15,317.82 401.65,322.40 404.08,327.03 406.44,331.72 408.71,336.45 410.90,341.24 413.01,346.08 415.02,350.97 416.93,355.92 418.74,360.92 420.44,365.97 422.03,371.08 423.50,376.24 424.84,381.46 426.06,386.72 427.14,392.03 428.08,397.39 428.87,402.79 429.52,408.24 430.00,413.72 430.33,419.23 430.48,424.78 430.47,430.35 430.27,435.95 429.89,441.56 429.32,447.17 428.56,452.79 427.59,458.41 426.43,464.01 425.06,469.59 423.48,475.14 421.69,480.66 419.69,486.13 417.47,491.54 415.04,496.88 412.39,502.15 409.52,507.33 406.44,512.41 403.14,517.39 399.64,522.24 395.93,526.97 392.02,531.55 387.91,535.99 383.61,540.26 379.12,544.37 374.46,548.30 369.63,552.05 364.64,555.60 359.51,558.95 354.23,562.10 348.82,565.04 343.29,567.77 337.66,570.27 331.93,572.56 326.11,574.62 320.21,576.46 314.26,578.08 308.25,579.47 302.20,580.64 296.12,581.60 290.02,582.33 283.90,582.86 277.79,583.17 271.69,583.28 265.60,583.19 259.53,582.90 253.50,582.42 247.51,581.76 241.57,580.92 235.68,579.90 229.84,578.72 224.07,577.38 218.36,575.88 212.73,574.24 207.17,572.45 201.70,570.52 196.30,568.47 190.99,566.28 185.76,563.98 180.62,561.56 175.57,559.03 170.61,556.39 165.74,553.65 160.96,550.81 156.28,547.88 151.69,544.86 147.19,541.76 142.78,538.57 138.47,535.30 134.25,531.96 130.12,528.55 126.08,525.06 122.13,521.51 118.28,517.90 114.51,514.22 110.83,510.48 107.24,506.68 103.73,502.82 100.31,498.91 96.98,494.94 93.73,490.92 90.56,486.86 87.48,482.74 84.47,478.57 81.55,474.35 78.71,470.09 75.95,465.78 73.27,461.43 70.66,457.03 68.13,452.59 65.68,448.10 63.30,443.58 61.00,439.01 58.78,434.40 56.63,429.76 54.55,425.07 52.55,420.34 50.63,415.58 48.77,410.78 46.99,405.94 45.29,401.06 43.66,396.16 42.10,391.21 40.62,386.24 39.22,381.23 37.89,376.19 36.63,371.12 35.46,366.02 34.36,360.90 33.34,355.75 32.41,350.58 31.55,345.39 30.77,340.18 30.08,334.95 29.48,329.71 28.96,324.46 28.54,319.20 28.20,313.93 27.96,308.67 27.81,303.40 27.75,298.15 27.80,292.90 27.95,287.67 28.20,282.47 28.56,277.29 29.03,272.14 29.61,267.03 30.30,261.97 31.11,256.96 32.04,252.01 33.08,247.13 34.25,242.33"/>
  <polyline points="321.39,25.08 316.75,25.09 312.22,25.29 307.82,25.67 303.54,26.22 299.41,26.96 295.42,27.87 291.59,28.97 287.91,30.24 284.41,31.69 281.09,33.31 277.94,35.10 274.98,37.05 272.21,39.16 269.64,41.43 267.26,43.84 265.09,46.40 263.11,49.09 261.33,51.91 259.76,54.85 258.39,57.90 257.22,61.06 256.24,64.31 255.46,67.66 254.88,71.09 254.48,74.60 254.27,78.18 254.24,81.82 254.38,85.52 254.70,89.26 255.19,93.05 255.83,96.88 256.64,100.74 257.59,104.63 258.69,108.54 259.93,112.47 261.30,116.42 262.81,120.37 264.43,124.34 266.18,128.31 268.03,132.28 269.99,136.25 272.05,140.22 274.21,144.19 276.46,148.15 278.79,152.11 281.21,156.06 283.70,160.01 286.26,163.94 288.89,167.87 291.58,171.80 294.33,175.71 297.14,179.62 299.99,183.52 302.89,187.42 305.83,191.31 308.80,195.20 311.82,199.08 314.86,202.97 317.93,206.85 321.02,210.73 324.14,214.62 327.27,218.51 330.41,222.41 333.56,226.31 336.73,230.23 339.89,234.15 343.06,238.09 346.22,242.04 349.38,246.01 352.53,250.00 355.67,254.01 358.79,258.03 361.90,262.09 364.98,266.17 368.04,270.27 371.07,274.41 374.08,278.58 377.04,282.78 379.97,287.02 382.86,291.29 385.71,295.61 388.51,299.96 391.25,304.36 393.94,308.80 396.58,313.29 399.15,317.82 401.65,322.40 404.08,327.03 406.44,331.72 408.71,336.45 410.90,341.24 413.01,346.08 415.02,350.97 416.93,355.92 418.74,360.92 420.44,365.97 422.03,371.08 423.50,376.24 424.84,381.46 426.06,386.72 427.14,392.03 428.08,397.39 428.87,402.79 429.52,408.24 430.00,413.72 430.33,419.23 430.48,424.78 430.47,430.35 430.27,435.95 429.89,441.56 429.32,447.17 428.56,452.79 427.59,458.41 426.43,464.01 425.06,469.59 423.48,475.14 421.69,480.66 419.69,486.13 417.47,491.54 415.04,496.88 412.39,502.15 409.52,507.33 406.44,512.41 403.14,517.39 399.64,522.24 395.93,526.97 392.02,531.55 387.91,535.99 383.61,540.26 379.12,544.37 374.46,548.30 369.63,552.05 364.64,555.60 359.51,558.95 354.23,562.10 348.82,565.04 343.29,567.77 337.66,570.27 331.93,572.56 326.11,574.62 320.21,576.46 314.26,578.08 308.25,579.47 302.20,580.64 296.12,581.60 290.02,582.33 283.90,582.86 277.79,583.17 271.69,583.28 265.60,583.19 259.53,582.90 253.50,582.42 247.51,581.76 241.57,580.92 235.68,579.90 229.84,578.72 224.07,577.38 218.36,575.88 212.73,574.24 207.17,572.45 201.70,570.52 196.30,568.47 190.99,566.28 185.76,563.98 180.62,561.56 175.57,559.03 170.61,556.39 165.74,553.65 160.96,550.81 156.28,547.88 151.69,544.86 147.19,541.76 142.78,538.57 138.47,535.30 134.25,531.96 130.12,528.55 126.08,525.06 122.13,521.51 118.28,517.90 114.51,514.22 110.83,510.48 107.24,506.68 103.73,502.82 100.31,498.91 96.98,494.94 93.73,490.92 90.56,486.86 87.48,482.74 84.47,478.57 81.55,474.35 78.71,470.09 75.95,465.78 73.27,461.43 70.66,457.03 68.13,452.59 65.68,448.10 63.30,443.58 61.00,439.01 58.78,434.40 56.63,429.76 54.55,425.07 52.55,420.34 50.63,415.58 48.77,410.78 46.99,405.94 45.29,401.06 43.66,396.16 42.10,391.21 40.62,386.24 39.22,381.23 37.89,376.19 36.63,371.12 35.46,366.02 34.36,360.90 33.34,355.75 32.41,350.58 31.55,345.39 30.77,340.18 30.08,334.95 29.48,329.71 28.96,324.46 28.54,319.20 28.20,313.93 27.96,308.67 27.81,303.40 27.75,298.15 27.80,292.90 27.95,287.67 28.20,282.47 28.56,277.29 29.03,272.14 29.61,267.03 30.30,261.97 31.11,256.96 32.04,252.01 33.08,247.13 34.25,242.33"/>
  <polyline points="321.39,25.08 316.75,25.09 312.22,25.29 307.82,25.67 303.54,26.22 299.41,26.96 295.42,27.87 291.59,28.97 287.91,30.24 284.41,31.69 281.09,33.31 277.94,35.10 274.98,37.05 272.21,39.16 269.64,41.43 267.26,43.84 265.09,46.40 263.11,49.09 261.33,51.91 259.76,54.85 258.39,57.90 257.22,61.06 256.24,64.31 255.46,67.66 254.88,71.09 254.48,74.60 254.27,78.18 254.24,81.82 254.38,85.52 254.70,89.26 255.19,93.05 255.83,96.88 256.64,100.74 257.59,104.63 258.69,108.54 259.93,112.47 261.30,116.42 262.81,120.37 264.43,124.34 266.18,128.31 268.03,132.28 269.99,136.25 272.05,140.22 274.21,144.19 276.46,148.15 278.79,152.11 281.21,156.06 283.70,160.01 286.26,163.94 288.89,167.87 291.58,171.80 294.33,175.71 297.14,179.62 299.99,183.52 302.89,187.42 305.83,191.31 308.80,195.20 311.82,199.08 314.86,202.97 317.93,206.85 321.02,210.73 324.14,214.62 327.27,218.51 330.41,222.41 333.56,226.31 336.73,230.23 339.89,234.15 343.06,238.09 346.22,242.04 349.38,246.01 352.53,250.00"/>
</svg>