<svg width="630.0" height="630.0" viewBox="0 0 630.0 630.0" fill="none" stroke="black" stroke-width="6" stroke-linecap="round" stroke-linejoin="round" xmlns="http://www.w3.org/2000/svg">
  <circle cx="315.0" cy="315.0" r="290.0" fill="white"/>
  <polyline points="440.57,387.50 444.38,384.25 448.15,380.97 451.89,377.69 455.59,374.38 459.26,371.07 462.89,367.75 466.50,364.42 470.08,361.09 473.63,357.77 477.15,354.44 480.65,351.13 484.13,347.82 487.58,344.53 491.01,341.26 494.42,338.00 497.81,334.77 501.18,331.57 504.53,328.40 507.86,325.26 511.17,322.16 514.46,319.11 517.73,316.10 520.98,313.14 524.21,310.24 527.42,307.39 530.61,304.61 533.78,301.90 536.91,299.27 540.03,296.71 543.11,294.24 546.16,291.85 549.19,289.56 552.17,287.37 555.12,285.28 558.02,283.31 560.88,281.45 563.69,279.72 566.45,278.11 569.15,276.64 571.79,275.30 574.36,274.11 576.86,273.08 579.28,272.19 581.62,271.47 583.88,270.92 586.04,270.54 588.10,270.34 590.05,270.31 591.90,270.47 593.63,270.82 595.24,271.36 596.72,272.09 598.07,273.01 599.28,274.14 600.35,275.45 601.27,276.97 602.04,278.68 602.67,280.59 603.13,282.69"/>
  <polyline points="400.54,37.93 397.15,37.04 393.63,36.26 389.99,35.59 386.22,35.02 382.35,34.56 378.38,34.19 374.31,33.93 370.15,33.76 365.91,33.68 361.61,33.70 357.23,33.80 352.79,33.99 348.30,34.27 343.76,34.63 339.18,35.07 334.55,35.59 329.90,36.18 325.21,36.86 320.50,37.60 315.77,38.42 311.03,39.31 306.27,40.27 301.50,41.30 296.72,42.39 291.94,43.56 287.16,44.79 282.38,46.09 277.61,47.45 272.84,48.88 268.09,50.37 263.34,51.93 258.61,53.55 253.90,55.24 249.20,56.99 244.52,58.81 239.86,60.69 235.23,62.64 230.62,64.65 226.03,66.73 221.47,68.88 216.94,71.10 212.44,73.39 207.98,75.75 203.54,78.18 199.14,80.68 194.77,83.25 190.45,85.90 186.16,88.62 181.91,91.41 177.71,94.29 173.55,97.24 169.43,100.28 165.36,103.39 161.34,106.58 157.38,109.86 153.46,113.23 149.60,116.68 145.80,120.22 142.06,123.84 138.39,127.56 134.77,131.37 131.23,135.27 127.76,139.26 124.36,143.35 121.04,147.53 117.80,151.81 114.65,156.19 111.58,160.67 108.61,165.24 105.74,169.91 102.96,174.69 100.29,179.56 97.73,184.53 95.29,189.61 92.97,194.78 90.77,200.05 88.71,205.41 86.78,210.88 84.99,216.43 83.36,222.08 81.88,227.81 80.56,233.63 79.40,239.53 78.42,245.51 77.62,251.57 77.00,257.69 76.58,263.87 76.35,270.12 76.33,276.41 76.51,282.75 76.91,289.12 77.53,295.51 78.37,301.93 79.43,308.36 80.72,314.78 82.25,321.19 84.01,327.58 86.01,333.94 88.24,340.25 90.71,346.50 93.41,352.69 96.34,358.80 99.50,364.81 102.89,370.72 106.50,376.52 110.32,382.18 114.36,387.71 118.59,393.09 123.02,398.32 127.63,403.37 132.42,408.25 137.38,412.94 142.49,417.44 147.74,421.74 153.13,425.83 158.64,429.72 164.26,433.39 169.98,436.84 175.79,440.07 181.68,443.08 187.63,445.86 193.64,448.42 199.69,450.77 205.78,452.88 211.89,454.78 218.01,456.47 224.14,457.94 230.27,459.19 236.39,460.25 242.50,461.09 248.57,461.75 254.62,462.21 260.63,462.48 266.60,462.57 272.53,462.48 278.40,462.22 284.22,461.79 289.98,461.20 295.69,460.46 301.33,459.57 306.91,458.54 312.42,457.36 317.86,456.06 323.24,454.63 328.55,453.07 333.78,451.40 338.95,449.61 344.05,447.72 349.08,445.73 354.04,443.64 358.93,441.45 363.76,439.18 368.52,436.82 373.21,434.38 377.84,431.87 382.41,429.28 386.91,426.63 391.36,423.91 395.74,421.13 400.07,418.29 404.35,415.40 408.57,412.46 412.73,409.47 416.85,406.44 420.92,403.37 424.93,400.26 428.91,397.11 432.84,393.94 436.73,390.73 440.57,387.50 444.38,384.25 448.15,380.97 451.89,377.69 455.59,374.38 459.26,371.07 462.89,367.75 466.50,364.42 470.08,361.09 473.63,357.77 477.15,354.44 480.65,351.13 484.13,347.82 487.58,344.53 491.01,341.26 494.42,338.00 497.81,334.77 501.18,331.57 504.53,328.40 507.86,325.26 511.17,322.16 514.46,319.11 517.73,316.10 520.98,313.14 524.21,310.24 527.42,307.39 530.61,304.61 533.78,301.90 536.91,299.27 540.03,296.71 543.11,294.24 546.16,291.85 549.19,289.56 552.17,287.37 555.12,285.28 558.02,283.31 560.88,281.45 563.69,279.72 566.45,278.11 569.15,276.64 571.79,275.30 574.36,274.11 576.86,273.08 579.28,272.19 581.62,271.47 583.88,270.92 586.04,270.54 588.10,270.34 590.05,270.31 591.90,270.47 593.63,270.82 595.24,271.36 596.72,272.09 598.07,273.01 599.28,274.14 600.35,275.45 601.27,276.97 602.04,278.68 602.67,280.59 603.13,282.69"/>
  <polyline points="400.54,37.93 397.15,37.04 393.63,36.26 389.99,35.59 386.22,35.02 382.35,34.56 378.38,34.19 374.31,33.93 370.15,33.76 365.91,33.68 361.61,33.70 357.23,33.80 352.79,33.99 348.30,34.27 343.76,34.63 339.18,35.07 334.55,35.59 329.90,36.18 325.21,36.86 320.50,37.60 315.77,38.42 311.03,39.31 306.27,40.27 301.50,41.30 296.72,42.39 291.94,43.56 287.16,44.79 282.38,46.09 277.61,47.45 272.84,48.88 268.09,50.37 263.34,51.93 258.61,53.55 253.90,55.24 249.20,56.99 244.52,58.81 239.86,60.69 235.23,62.64 230.62,64.65 226.03,66.73 221.47,68.88 216.94,71.10 212.44,73.39 207.98,75.75 203.54,78.18 199.14,80.68 194.77,83.25 190.45,85.90 186.16,88.62 181.91,91.41 177.71,94.29 173.55,97.24 169.43,100.28 165.36,103.39 161.34,106.58 157.38,109.86 153.46,113.23 149.60,116.68 145.80,120.22 142.06,123.84 138.39,127.56 134.77,131.37 131.23,135.27 127.76,139.26 124.36,143.35 121.04,147.53 117.80,151.81 114.65,156.19 111.58,160.67 108.61,165.24 105.74,169.91 102.96,174.69 100.29,179.56 97.73,184.53 95.29,189.61 92.97,194.78 90.77,200.05 88.71,205.41 86.78,210.88 84.99,216.43 83.36,222.08 81.88,227.81 80.56,233.63 79.40,239.53 78.42,245.51 77.62,251.57 77.00,257.69 76.58,263.87 76.35,270.12 76.33,276.41 76.51,282.75 76.91,289.12 77.53,295.51 78.37,301.93 79.43,308.36 80.72,314.78 82.25,321.19 84.01,327.58 86.01,333.94 88.24,340.25 90.71,346.50 93.41,352.69 96.34,358.80 99.50,364.81 102.89,370.72 106.50,376.52 110.32,382.18 114.36,387.71 118.59,393.09 123.02,398.32 127.63,403.37 132.42,408.25 137.38,412.94 142.49,417.44 147.74,421.74 153.13,425.83 158.64,429.72 164.26,433.39 169.98,436.84 175.79,440.07 181.68,443.08 187.63,445.86 193.64,448.42 199.69,450.77 205.78,452.88 211.89,454.78 218.01,456.47 224.14,457.94 230.27,459.19 236.39,460.25 242.50,461.09 248.57,461.75 254.62,462.21 260.63,462.48 266.60,462.57 272.53,462.48 278.40,462.22 284.22,461.79 289.98,461.20 295.69,460.46 301.33,459.57 306.91,458.54 312.42,457.36 317.86,456.06 323.24,454.63 328.55,453.07 333.78,451.40 338.95,449.61 344.05,447.72 349.08,445.73 354.04,443.64 358.93,441.45 363.76,439.18 368.52,436.82 373.21,434.38 377.84,431.87 382.41,429.28 386.91,426.63 391.36,423.91 395.74,421.13 400.07,418.29 404.35,415.40 408.57,412.46 412.73,409.47 416.85,406.44 420.92,403.37 424.93,400.26 428.91,397.11 432.84,393.94 436.73,390.73 440.57,387.50"/>
</svg>