<svg width="630.0" height="630.0" viewBox="0 0 630.0 630.0" fill="none" stroke="black" stroke-width="6" stroke-linecap="round" stroke-linejoin="round" xmlns="http://www.w3.org/2000/svg">
  <circle cx="315.0" cy="315.0" r="290.0" fill="white"/>
  <polyline points="364.59,229.10 367.75,233.07 370.90,237.06 374.02,241.09 377.12,245.14 380.19,249.23 383.23,253.36 386.23,257.53 389.20,261.73 392.12,265.98 395.00,270.27 397.84,274.60 400.62,278.98 403.35,283.41 406.02,287.89 408.62,292.42 411.16,297.00 413.63,301.64 416.03,306.33 418.35,311.08 420.58,315.89 422.73,320.76 424.78,325.68 426.74,330.67 428.60,335.71 430.35,340.81 431.98,345.98 433.51,351.20 434.91,356.48 436.18,361.82 437.32,367.21 438.32,372.66 439.18,378.17 439.89,383.72 440.44,389.32 440.83,394.96 441.06,400.65 441.11,406.37 440.99,412.12 440.69,417.90 440.20,423.70 439.51,429.52 438.63,435.34 437.55,441.16 436.26,446.98 434.77,452.78 433.06,458.56 431.14,464.30 429.00,470.01 426.64,475.66 424.07,481.24 421.27,486.76 418.26,492.19 415.03,497.53 411.59,502.76 407.93,507.87 404.07,512.86 400.01,517.71 395.74,522.41 391.29,526.96 386.65,531.33 381.83,535.53 376.85,539.54 371.71,543.36 366.42,546.98 360.99,550.40 355.43,553.59 349.75,556.58 343.97,559.34 338.10,561.87 332.13,564.18 326.10,566.26 320.01,568.12 313.87,569.74 307.69,571.14 301.48,572.31 295.26,573.26 289.03,573.99 282.80,574.50 276.58,574.80 270.39,574.89 264.22,574.78 258.09,574.47 252.01,573.97 245.97,573.29 239.99,572.42 234.08,571.38 228.23,570.17 222.45,568.80 216.75,567.28 211.13,565.60 205.59,563.78 200.14,561.82 194.77,559.72 189.50,557.50 184.31,555.16 179.22,552.70 174.22,550.13 169.32,547.45 164.51,544.67 159.79,541.79 155.17,538.82 150.65,535.76 146.22,532.61 141.89,529.38 137.65,526.06 133.51,522.68 129.46,519.21 125.50,515.68 121.63,512.08 117.86,508.42 114.17,504.69 110.57,500.90 107.06,497.05 103.64,493.15 100.30,489.19 97.05,485.17 93.88,481.11 90.79,476.99 87.79,472.83 84.87,468.62 82.02,464.36 79.26,460.05 76.57,455.71 73.96,451.32 71.43,446.88 68.97,442.41 66.58,437.90 64.28,433.34 62.04,428.75 59.88,424.13 57.79,419.46 55.77,414.76 53.83,410.03 51.96,405.26 50.16,400.46 48.43,395.63 46.77,390.77 45.18,385.88 43.67,380.96 42.22,376.02 40.85,371.05 39.56,366.06 38.33,361.05 37.18,356.02 36.11,350.96 35.11,345.90 34.19,340.82 33.34,335.73 32.58,330.63 31.89,325.53 31.29,320.42 30.77,315.32 30.34,310.22 30.00,305.13 29.74,300.05 29.57,294.99 29.50,289.96 29.53,284.94 29.65,279.97 29.87,275.03 30.19,270.13 30.62,265.29 31.15,260.50 31.80,255.77 32.55,251.12 33.42,246.55 34.41,242.06 35.51,237.67"/>
  <polyline points="304.12,25.22 300.25,25.50 296.52,25.97 292.95,26.60 289.55,27.41 286.32,28.38 283.27,29.53 280.40,30.84 277.72,32.31 275.23,33.95 272.93,35.73 270.83,37.66 268.93,39.74 267.23,41.96 265.73,44.30 264.42,46.77 263.32,49.36 262.41,52.06 261.70,54.86 261.18,57.76 260.85,60.75 260.70,63.83 260.73,66.98 260.94,70.21 261.32,73.50 261.87,76.84 262.58,80.24 263.45,83.69 264.47,87.18 265.63,90.71 266.93,94.26 268.37,97.85 269.94,101.47 271.62,105.10 273.43,108.75 275.35,112.42 277.37,116.10 279.50,119.79 281.72,123.49 284.03,127.19 286.42,130.90 288.90,134.61 291.45,138.33 294.07,142.05 296.76,145.77 299.51,149.49 302.31,153.21 305.17,156.94 308.08,160.67 311.03,164.39 314.02,168.13 317.05,171.86 320.12,175.60 323.21,179.34 326.33,183.10 329.47,186.85 332.63,190.62 335.81,194.40 339.00,198.19 342.20,201.99 345.41,205.81 348.61,209.64 351.82,213.49 355.03,217.36 358.23,221.25 361.42,225.16 364.59,229.10 367.75,233.07 370.90,237.06 374.02,241.09 377.12,245.14 380.19,249.23 383.23,253.36 386.23,257.53 389.20,261.73 392.12,265.98 395.00,270.27 397.84,274.60 400.62,278.98 403.35,283.41 406.02,287.89 408.62,292.42 411.16,297.00 413.63,301.64 416.03,306.33 418.35,311.08 420.58,315.89 422.73,320.76 424.78,325.68 426.74,330.67 428.60,335.71 430.35,340.81 431.98,345.98 433.51,351.20 434.91,356.48 436.18,361.82 437.32,367.21 438.32,372.66 439.18,378.17 439.89,383.72 440.44,389.32 440.83,394.96 441.06,400.65 441.11,406.37 440.99,412.12 440.69,417.90 440.20,423.70 439.51,429.52 438.63,435.34 437.55,441.16 436.26,446.98 434.77,452.78 433.06,458.56 431.14,464.30 429.00,470.01 426.64,475.66 424.07,481.24 421.27,486.76 418.26,492.19 415.03,497.53 411.59,502.76 407.93,507.87 404.07,512.86 400.01,517.71 395.74,522.41 391.29,526.96 386.65,531.33 381.83,535.53 376.85,539.54 371.71,543.36 366.42,546.98 360.99,550.40 355.43,553.59 349.75,556.58 343.97,559.34 338.10,561.87 332.13,564.18 326.10,566.26 320.01,568.12 313.87,569.74 307.69,571.14 301.48,572.31 295.26,573.26 289.03,573.99 282.80,574.50 276.58,574.80 270.39,574.89 264.22,574.78 258.09,574.47 252.01,573.97 245.97,573.29 239.99,572.42 234.08,571.38 228.23,570.17 222.45,568.80 216.75,567.28 211.13,565.60 205.59,563.78 200.14,561.82 194.77,559.72 189.50,557.50 184.31,555.16 179.22,552.70 174.22,550.13 169.32,547.45 164.51,544.67 159.79,541.79 155.17,538.82 150.65,535.76 146.22,532.61 141.89,529.38 137.65,526.06 133.51,522.68 129.46,519.21 125.50,515.68 121.63,512.08 117.86,508.42 114.17,504.69 110.57,500.90 107.06,497.05 103.64,493.15 100.30,489.19 97.05,485.17 93.88,481.11 90.79,476.99 87.79,472.83 84.87,468.62 82.02,464.36 79.26,460.05 76.57,455.71 73.96,451.32 71.43,446.88 68.97,442.41 66.58,437.90 64.28,433.34 62.04,428.75 59.88,424.13 57.79,419.46 55.77,414.76 53.83,410.03 51.96,405.26 50.16,400.46 48.43,395.63 46.77,390.77 45.18,385.88 43.67,380.96 42.22,376.02 40.85,371.05 39.56,366.06 38.33,361.05 37.18,356.02 36.11,350.96 35.11,345.90 34.19,340.82 33.34,335.73 32.58,330.63 31.89,325.53 31.29,320.42 30.77,315.32 30.34,310.22 30.00,305.13 29.74,300.05 29.57,294.99 29.50,289.96 29.53,284.94 29.65,279.97 29.87,275.03 30.19,270.13 30.62,265.29 31.15,260.50 31.80,255.77 32.55,251.12 33.42,246.55 34.41,242.06 35.51,237.67"/>
  <polyline points="304.12,25.22 300.25,25.50 296.52,25.97 292.95,26.60 289.55,27.41 286.32,28.38 283.27,29.53 280.40,30.84 277.72,32.31 275.23,33.95 272.93,35.73 270.83,37.66 268.93,39.74 267.23,41.96 265.73,44.30 264.42,46.77 263.32,49.36 262.41,52.06 261.70,54.86 261.18,57.76 260.85,60.75 260.70,63.83 260.73,66.98 260.94,70.21 261.32,73.50 261.87,76.84 262.58,80.24 263.45,83.69 264.47,87.18 265.63,90.71 266.93,94.26 268.37,97.85 269.94,101.47 271.62,105.10 273.43,108.75 275.35,112.42 277.37,116.10 279.50,119.79 281.72,123.49 284.03,127.19 286.42,130.90 288.90,134.61 291.45,138.33 294.07,142.05 296.76,145.77 299.51,149.49 302.31,153.21 305.17,156.94 308.08,160.67 311.03,164.39 314.02,168.13 317.05,171.86 320.12,175.60 323.21,179.34 326.33,183.10 329.47,186.85 332.63,190.62 335.81,194.40 339.00,198.19 342.20,201.99 345.41,205.81 348.61,209.64 351.82,213.49 355.03,217.36 358.23,221.25 361.42,225.16 364.59,229.10"/>
</svg>