<svg width="630.0" height="630.0" viewBox="0 0 630.0 630.0" fill="none" stroke="black" stroke-width="6" stroke-linecap="round" stroke-linejoin="round" xmlns="http://www.w3.org/2000/svg">
  <circle cx="315.0" cy="315.0" r="290.0" fill="white"/>
  <polyline points="426.08,122.61 429.52,126.09 432.92,129.63 436.29,133.23 439.61,136.90 442.89,140.62 446.12,144.42 449.30,148.28 452.43,152.21 455.50,156.20 458.51,160.27 461.46,164.40 464.34,168.61 467.16,172.89 469.90,177.24 472.56,181.67 475.15,186.18 477.65,190.76 480.07,195.42 482.39,200.16 484.62,204.97 486.75,209.87 488.78,214.84 490.69,219.90 492.50,225.03 494.18,230.24 495.75,235.53 497.19,240.90 498.49,246.35 499.65,251.88 500.68,257.47 501.55,263.15 502.27,268.89 502.83,274.70 503.22,280.58 503.44,286.52 503.49,292.52 503.35,298.57 503.03,304.68 502.51,310.83 501.79,317.02 500.87,323.24 499.75,329.48 498.41,335.75 496.85,342.03 495.08,348.31 493.09,354.59 490.86,360.85 488.42,367.09 485.74,373.30 482.84,379.45 479.70,385.56 476.34,391.59 472.75,397.55 468.94,403.42 464.91,409.18 460.67,414.84 456.21,420.37 451.55,425.76 446.69,431.00 441.64,436.09 436.41,441.01 431.00,445.75 425.44,450.31 419.72,454.67 413.86,458.82 407.87,462.77 401.76,466.50 395.55,470.00 389.24,473.28 382.86,476.33 376.40,479.14 369.89,481.72 363.33,484.07 356.74,486.17 350.13,488.05 343.51,489.68 336.89,491.08 330.28,492.26 323.69,493.20 317.13,493.93 310.61,494.43 304.14,494.72 297.72,494.80 291.36,494.68 285.06,494.36 278.84,493.85 272.70,493.15 266.64,492.27 260.66,491.22 254.78,490.00 248.99,488.62 243.29,487.08 237.69,485.39 232.19,483.56 226.78,481.60 221.48,479.50 216.28,477.27 211.19,474.93 206.19,472.47 201.30,469.91 196.51,467.23 191.82,464.46 187.22,461.60 182.73,458.64 178.34,455.60 174.04,452.47 169.84,449.27 165.73,446.00 161.72,442.65 157.79,439.24 153.96,435.77 150.21,432.24 146.55,428.65 142.98,425.01 139.48,421.32 136.07,417.58 132.74,413.80 129.48,409.98 126.30,406.12 123.19,402.23 120.16,398.30 117.19,394.34 114.30,390.35 111.47,386.34 108.71,382.31 106.01,378.25 103.37,374.17 100.80,370.08 98.28,365.98 95.83,361.86 93.43,357.73 91.08,353.60 88.80,349.47 86.56,345.33 84.38,341.19 82.24,337.06 80.16,332.93 78.13,328.81 76.15,324.70 74.22,320.61 72.33,316.53 70.49,312.48 68.70,308.45 66.96,304.45 65.26,300.47 63.61,296.54 62.00,292.64 60.45,288.78 58.94,284.97 57.48,281.21 56.07,277.51 54.71,273.86 53.40,270.29 52.14,266.78 50.93,263.34 49.78,259.99 48.69,256.72 47.65,253.55 46.68,250.47 45.76,247.49 44.91,244.63 44.13,241.89 43.41,239.26 42.77,236.77 42.20,234.41 41.70,232.20 41.29,230.14 40.96,228.23 40.71,226.49 40.55,224.92 40.48,223.53 40.51,222.32 40.62,221.29"/>
  <polyline points="277.53,27.44 278.71,27.40 280.05,27.49 281.55,27.72 283.20,28.07 285.00,28.54 286.94,29.13 289.01,29.83 291.22,30.65 293.54,31.56 295.99,32.59 298.54,33.70 301.20,34.92 303.95,36.22 306.80,37.61 309.74,39.09 312.75,40.64 315.85,42.27 319.01,43.98 322.24,45.76 325.52,47.61 328.87,49.53 332.26,51.51 335.70,53.55 339.18,55.66 342.70,57.82 346.25,60.05 349.83,62.33 353.44,64.66 357.07,67.05 360.71,69.50 364.38,72.00 368.05,74.55 371.73,77.16 375.42,79.81 379.11,82.52 382.80,85.28 386.49,88.10 390.17,90.96 393.85,93.88 397.51,96.85 401.15,99.88 404.78,102.96 408.40,106.09 411.99,109.28 415.55,112.53 419.09,115.83 422.60,119.19 426.08,122.61 429.52,126.09 432.92,129.63 436.29,133.23 439.61,136.90 442.89,140.62 446.12,144.42 449.30,148.28 452.43,152.21 455.50,156.20 458.51,160.27 461.46,164.40 464.34,168.61 467.16,172.89 469.90,177.24 472.56,181.67 475.15,186.18 477.65,190.76 480.07,195.42 482.39,200.16 484.62,204.97 486.75,209.87 488.78,214.84 490.69,219.90 492.50,225.03 494.18,230.24 495.75,235.53 497.19,240.90 498.49,246.35 499.65,251.88 500.68,257.47 501.55,263.15 502.27,268.89 502.83,274.70 503.22,280.58 503.44,286.52 503.49,292.52 503.35,298.57 503.03,304.68 502.51,310.83 501.79,317.02 500.87,323.24 499.75,329.48 498.41,335.75 496.85,342.03 495.08,348.31 493.09,354.59 490.86,360.85 488.42,367.09 485.74,373.30 482.84,379.45 479.70,385.56 476.34,391.59 472.75,397.55 468.94,403.42 464.91,409.18 460.67,414.84 456.21,420.37 451.55,425.76 446.69,431.00 441.64,436.09 436.41,441.01 431.00,445.75 425.44,450.31 419.72,454.67 413.86,458.82 407.87,462.77 401.76,466.50 395.55,470.00 389.24,473.28 382.86,476.33 376.40,479.14 369.89,481.72 363.33,484.07 356.74,486.17 350.13,488.05 343.51,489.68 336.89,491.08 330.28,492.26 323.69,493.20 317.13,493.93 310.61,494.43 304.14,494.72 297.72,494.80 291.36,494.68 285.06,494.36 278.84,493.85 272.70,493.15 266.64,492.27 260.66,491.22 254.78,490.00 248.99,488.62 243.29,487.08 237.69,485.39 232.19,483.56 226.78,481.60 221.48,479.50 216.28,477.27 211.19,474.93 206.19,472.47 201.30,469.91 196.51,467.23 191.82,464.46 187.22,461.60 182.73,458.64 178.34,455.60 174.04,452.47 169.84,449.27 165.73,446.00 161.72,442.65 157.79,439.24 153.96,435.77 150.21,432.24 146.55,428.65 142.98,425.01 139.48,421.32 136.07,417.58 132.74,413.80 129.48,409.98 126.30,406.12 123.19,402.23 120.16,398.30 117.19,394.34 114.30,390.35 111.47,386.34 108.71,382.31 106.01,378.25 103.37,374.17 100.80,370.08 98.28,365.98 95.83,361.86 93.43,357.73 91.08,353.60 88.80,349.47 86.56,345.33 84.38,341.19 82.24,337.06 80.16,332.93 78.13,328.81 76.15,324.70 74.22,320.61 72.33,316.53 70.49,312.48 68.70,308.45 66.96,304.45 65.26,300.47 63.61,296.54 62.00,292.64 60.45,288.78 58.94,284.97 57.48,281.21 56.07,277.51 54.71,273.86 53.40,270.29 52.14,266.78 50.93,263.34 49.78,259.99 48.69,256.72 47.65,253.55 46.68,250.47 45.76,247.49 44.91,244.63 44.13,241.89 43.41,239.26 42.77,236.77 42.20,234.41 41.70,232.20 41.29,230.14 40.96,228.23 40.71,226.49 40.55,224.92 40.48,223.53 40.51,222.32 40.62,221.29"/>
  <polyline points="277.53,27.44 278.71,27.40 280.05,27.49 281.55,27.72 283.20,28.07 285.00,28.54 286.94,29.13 289.01,29.83 291.22,30.65 293.54,31.56 295.99,32.59 298.54,33.70 301.20,34.92 303.95,36.22 306.80,37.61 309.74,39.09 312.75,40.64 315.85,42.27 319.01,43.98 322.24,45.76 325.52,47.61 328.87,49.53 332.26,51.51 335.70,53.55 339.18,55.66 342.70,57.82 346.25,60.05 349.83,62.33 353.44,64.66 357.07,67.05 360.71,69.50 364.38,72.00 368.05,74.55 371.73,77.16 375.42,79.81 379.11,82.52 382.80,85.28 386.49,88.10 390.17,90.96 393.85,93.88 397.51,96.85 401.15,99.88 404.78,102.96 408.40,106.09 411.99,109.28 415.55,112.53 419.09,115.83 422.60,119.19 426.08,122.61"/>
</svg>