<svg width="630.0" height="630.0" viewBox="0 0 630.0 630.0" xmlns="http://www.w3.org/2000/svg">
<circle cx="315.0" cy="315.0" r="290.0" fill="#fff" stroke="#000" stroke-width="6"/>
<polyline points="592.65,231.38 591.41,227.72 590.03,223.97 588.48,220.14 586.78,216.23 584.91,212.23 582.87,208.15 580.67,203.99 578.30,199.75 575.75,195.43 573.03,191.05 570.14,186.60 567.07,182.08 563.83,177.51 560.41,172.88 556.81,168.21 553.04,163.50 549.10,158.75 544.99,153.98 540.71,149.19 536.27,144.39 531.68,139.59 526.93,134.80 522.04,130.03 517.02,125.28 511.86,120.56 506.58,115.89 501.18,111.27 495.68,106.72 490.09,102.23 484.41,97.83 478.66,93.51 472.85,89.29 466.99,85.17 461.09,81.16 455.16,77.27 449.21,73.51 443.25,69.87 437.31,66.36 431.37,62.99 425.46,59.76 419.59,56.68 413.77,53.74 407.99,50.94 402.28,48.30 396.64,45.80 391.08,43.46 385.60,41.26 380.21,39.21 374.92,37.31 369.72,35.56 364.64,33.95 359.65,32.48 354.78,31.15 350.02,29.96 345.38,28.91 340.85,27.99 336.44,27.19 332.15,26.53 327.97,25.99 323.92,25.57 319.97,25.28 316.15,25.09 312.44,25.03" fill="none" stroke="#000" stroke-width="6" stroke-linecap="round"/>
<polyline points="36.39,395.46 36.09,394.18 35.87,392.77 35.73,391.23 35.68,389.59 35.70,387.83 35.80,385.96 35.98,383.99 36.23,381.93 36.56,379.78 36.96,377.54 37.44,375.22 37.98,372.82 38.60,370.35 39.29,367.82 40.05,365.22 40.88,362.56 41.78,359.84 42.75,357.08 43.79,354.26 44.90,351.41 46.09,348.51 47.34,345.58 48.66,342.61 50.06,339.62 51.52,336.60 53.06,333.55 54.67,330.49 56.36,327.41 58.12,324.32 59.95,321.22 61.86,318.11 63.85,315.00 65.92,311.89 68.06,308.78 70.29,305.68 72.60,302.59 74.99,299.51 77.46,296.45 80.02,293.40 82.66,290.38 85.39,287.39 88.21,284.42 91.12,281.49 94.12,278.59 97.22,275.74 100.41,272.92 103.69,270.16 107.07,267.44 110.55,264.78 114.13,262.18 117.81,259.65 121.59,257.18 125.48,254.78 129.47,252.46 133.57,250.22 137.77,248.07 142.08,246.01 146.50,244.04 151.02,242.17 155.66,240.41 160.40,238.77 165.25,237.23 170.21,235.82 175.27,234.54 180.45,233.39 185.72,232.38 191.11,231.51 196.59,230.80 202.17,230.24 207.85,229.84 213.62,229.60 219.48,229.54 225.42,229.65 231.45,229.95 237.55,230.43 243.71,231.11 249.94,231.97 256.23,233.04 262.56,234.31 268.92,235.78 275.32,237.45 281.74,239.34 288.17,241.43 294.60,243.73 301.02,246.24 307.42,248.96 313.78,251.88 320.10,255.01 326.37,258.33 332.56,261.85 338.68,265.56 344.70,269.45 350.62,273.52 356.42,277.77 362.10,282.17 367.63,286.73 373.03,291.44 378.26,296.28 383.33,301.25 388.23,306.33 392.94,311.53 397.46,316.82 401.79,322.19 405.92,327.64 409.85,333.16 413.57,338.74 417.07,344.35 420.37,350.01 423.45,355.69 426.32,361.38 428.97,367.09 431.41,372.79 433.64,378.49 435.66,384.17 437.48,389.83 439.09,395.45 440.50,401.05 441.71,406.60 442.73,412.10 443.57,417.56 444.22,422.95 444.69,428.29 444.99,433.57 445.12,438.78 445.09,443.92 444.90,448.98 444.56,453.98 444.07,458.89 443.44,463.74 442.68,468.50 441.78,473.18 440.76,477.78 439.62,482.30 438.36,486.74 436.99,491.09 435.51,495.36 433.94,499.55 432.26,503.66 430.50,507.68 428.64,511.62 426.70,515.47 424.69,519.25 422.59,522.94 420.43,526.55 418.20,530.07 415.91,533.52 413.55,536.88 411.14,540.17 408.68,543.37 406.17,546.49 403.61,549.54 401.01,552.50 398.37,555.39 395.70,558.20 392.99,560.92 390.26,563.58 387.50,566.15 384.72,568.64 381.92,571.06 379.10,573.40 376.27,575.66 373.43,577.84 370.58,579.94 367.73,581.97 364.88,583.91 362.03,585.78 359.19,587.57 356.35,589.28 353.53,590.90 350.73,592.45 347.95,593.91 345.19,595.28 342.45,596.58 339.75,597.78 337.08,598.90 334.45,599.93 331.86,600.87 329.32,601.72 326.83,602.47 324.40,603.13 322.02,603.70 319.70,604.16 317.46,604.52 315.28,604.78 313.19,604.93 311.17,604.97" fill="none" stroke="#000" stroke-width="6" stroke-linecap="round"/>
<polyline points="592.65,231.38 591.41,227.72 590.03,223.97 588.48,220.14 586.78,216.23 584.91,212.23 582.87,208.15 580.67,203.99 578.30,199.75 575.75,195.43 573.03,191.05 570.14,186.60 567.07,182.08 563.83,177.51 560.41,172.88 556.81,168.21 553.04,163.50 549.10,158.75 544.99,153.98 540.71,149.19 536.27,144.39 531.68,139.59 526.93,134.80 522.04,130.03 517.02,125.28 511.86,120.56 506.58,115.89 501.18,111.27 495.68,106.72 490.09,102.23 484.41,97.83 478.66,93.51 472.85,89.29 466.99,85.17 461.09,81.16 455.16,77.27 449.21,73.51 443.25,69.87 437.31,66.36 431.37,62.99 425.46,59.76 419.59,56.68 413.77,53.74 407.99,50.94 402.28,48.30 396.64,45.80 391.08,43.46 385.60,41.26 380.21,39.21 374.92,37.31 369.72,35.56 364.64,33.95 359.65,32.48 354.78,31.15 350.02,29.96 345.38,28.91 340.85,27.99 336.44,27.19 332.15,26.53 327.97,25.99 323.92,25.57 319.97,25.28 316.15,25.09 312.44,25.03" fill="none" stroke="#000" stroke-width="6" stroke-linecap="round"/>
<polyline points="36.39,395.46 36.09,394.18 35.87,392.77 35.73,391.23 35.68,389.59 35.70,387.83 35.80,385.96 35.98,383.99 36.23,381.93 36.56,379.78 36.96,377.54 37.44,375.22 37.98,372.82 38.60,370.35 39.29,367.82 40.05,365.22 40.88,362.56 41.78,359.84 42.75,357.08 43.79,354.26 44.90,351.41 46.09,348.51 47.34,345.58 48.66,342.61 50.06,339.62 51.52,336.60 53.06,333.55 54.67,330.49 56.36,327.41 58.12,324.32 59.95,321.22 61.86,318.11 63.85,315.00 65.92,311.89 68.06,308.78 70.29,305.68 72.60,302.59 74.99,299.51 77.46,296.45 80.02,293.40 82.66,290.38 85.39,287.39 88.21,284.42 91.12,281.49 94.12,278.59 97.22,275.74 100.41,272.92 103.69,270.16 107.07,267.44 110.55,264.78 114.13,262.18 117.81,259.65 121.59,257.18 125.48,254.78 129.47,252.46 133.57,250.22 137.77,248.07 142.08,246.01 146.50,244.04 151.02,242.17 155.66,240.41 160.40,238.77 165.25,237.23 170.21,235.82 175.27,234.54 180.45,233.39 185.72,232.38 191.11,231.51 196.59,230.80 202.17,230.24 207.85,229.84 213.62,229.60 219.48,229.54 225.42,229.65 231.45,229.95 237.55,230.43 243.71,231.11 249.94,231.97 256.23,233.04 262.56,234.31 268.92,235.78 275.32,237.45 281.74,239.34 288.17,241.43 294.60,243.73 301.02,246.24 307.42,248.96 313.78,251.88 320.10,255.01 326.37,258.33 332.56,261.85 338.68,265.56 344.70,269.45 350.62,273.52 356.42,277.77 362.10,282.17 367.63,286.73 373.03,291.44 378.26,296.28 383.33,301.25 388.23,306.33 392.94,311.53 397.46,316.82 401.79,322.19 405.92,327.64 409.85,333.16 413.57,338.74 417.07,344.35 420.37,350.01 423.45,355.69 426.32,361.38 428.97,367.09 431.41,372.79 433.64,378.49 435.66,384.17 437.48,389.83 439.09,395.45 440.50,401.05 441.71,406.60 442.73,412.10 443.57,417.56 444.22,422.95 444.69,428.29 444.99,433.57 445.12,438.78 445.09,443.92 444.90,448.98 444.56,453.98 444.07,458.89 443.44,463.74 442.68,468.50 441.78,473.18 440.76,477.78 439.62,482.30 438.36,486.74 436.99,491.09 435.51,495.36 433.94,499.55 432.26,503.66 430.50,507.68 428.64,511.62 426.70,515.47 424.69,519.25 422.59,522.94 420.43,526.55 418.20,530.07 415.91,533.52 413.55,536.88 411.14,540.17 408.68,543.37 406.17,546.49 403.61,549.54 401.01,552.50 398.37,555.39 395.70,558.20 392.99,560.92 390.26,563.58 387.50,566.15 384.72,568.64 381.92,571.06 379.10,573.40 376.27,575.66 373.43,577.84 370.58,579.94 367.73,581.97 364.88,583.91 362.03,585.78 359.19,587.57 356.35,589.28 353.53,590.90 350.73,592.45 347.95,593.91 345.19,595.28 342.45,596.58 339.75,597.78 337.08,598.90 334.45,599.93 331.86,600.87 329.32,601.72 326.83,602.47 324.40,603.13 322.02,603.70 319.70,604.16 317.46,604.52 315.28,604.78 313.19,604.93 311.17,604.97" fill="none" stroke="#000" stroke-width="6" stroke-linecap="round"/>
</svg>