<svg width="630.0" height="630.0" viewBox="0 0 630.0 630.0" fill="none" stroke="black" stroke-width="6" stroke-linecap="round" stroke-linejoin="round" xmlns="http://www.w3.org/2000/svg">
  <circle cx="315.0" cy="315.0" r="290.0" fill="white"/>
  <polyline points="433.78,520.73 438.41,519.31 443.00,517.82 447.56,516.28 452.07,514.69 456.55,513.03 460.99,511.33 465.39,509.58 469.74,507.78 474.05,505.93 478.32,504.04 482.54,502.12 486.72,500.15 490.85,498.15 494.93,496.12 498.96,494.05 502.94,491.96 506.86,489.84 510.73,487.69 514.54,485.53 518.29,483.34 521.97,481.14 525.59,478.92 529.14,476.69 532.61,474.45 536.01,472.21 539.34,469.96 542.57,467.71 545.72,465.46 548.78,463.22 551.75,460.98 554.61,458.76 557.37,456.54 560.01,454.35 562.54,452.17 564.95,450.02 567.23,447.89 569.38,445.79 571.39,443.73 573.25,441.70 574.96,439.71 576.51,437.77 577.90,435.87 579.11,434.03 580.15,432.24 581.00,430.51"/>
  <polyline points="534.03,124.97 533.71,124.88 533.18,124.77 532.43,124.64 531.47,124.50 530.31,124.34 528.95,124.16 527.41,123.96 525.68,123.75 523.78,123.52 521.71,123.28 519.47,123.02 517.09,122.75 514.56,122.47 511.88,122.18 509.08,121.87 506.15,121.56 503.09,121.25 499.93,120.92 496.65,120.59 493.27,120.26 489.79,119.93 486.23,119.60 482.57,119.27 478.83,118.94 475.02,118.62 471.13,118.30 467.17,118.00 463.14,117.70 459.06,117.42 454.91,117.16 450.71,116.90 446.46,116.67 442.16,116.46 437.81,116.27 433.42,116.11 428.99,115.98 424.52,115.87 420.01,115.80 415.47,115.76 410.90,115.75 406.29,115.79 401.66,115.86 397.00,115.98 392.31,116.15 387.60,116.36 382.87,116.62 378.11,116.94 373.34,117.32 368.55,117.75 363.74,118.24 358.92,118.80 354.08,119.42 349.23,120.11 344.37,120.88 339.50,121.72 334.62,122.64 329.74,123.64 324.85,124.73 319.95,125.90 315.06,127.16 310.16,128.51 305.27,129.97 300.38,131.52 295.50,133.17 290.62,134.93 285.75,136.80 280.90,138.79 276.06,140.89 271.24,143.10 266.44,145.45 261.67,147.91 256.92,150.51 252.21,153.24 247.53,156.10 242.89,159.11 238.29,162.25 233.73,165.54 229.24,168.97 224.79,172.56 220.41,176.30 216.10,180.19 211.86,184.23 207.71,188.44 203.63,192.80 199.65,197.32 195.77,202.00 192.00,206.84 188.34,211.85 184.81,217.01 181.40,222.32 178.13,227.80 175.00,233.42 172.03,239.19 169.22,245.11 166.57,251.17 164.11,257.37 161.83,263.69 159.74,270.14 157.85,276.70 156.17,283.37 154.70,290.13 153.45,296.98 152.43,303.91 151.63,310.90 151.08,317.95 150.76,325.04 150.68,332.16 150.84,339.29 151.25,346.43 151.91,353.56 152.81,360.66 153.95,367.73 155.34,374.75 156.96,381.70 158.82,388.58 160.91,395.37 163.22,402.06 165.76,408.64 168.50,415.09 171.45,421.42 174.59,427.60 177.93,433.63 181.44,439.50 185.13,445.21 188.97,450.74 192.97,456.10 197.11,461.27 201.39,466.27 205.79,471.07 210.31,475.68 214.93,480.10 219.65,484.33 224.46,488.36 229.35,492.20 234.31,495.85 239.34,499.30 244.43,502.57 249.56,505.65 254.74,508.54 259.96,511.25 265.21,513.78 270.48,516.14 275.78,518.32 281.09,520.34 286.41,522.18 291.74,523.87 297.07,525.40 302.40,526.77 307.73,528.00 313.04,529.08 318.35,530.01 323.65,530.81 328.93,531.47 334.19,532.01 339.44,532.42 344.66,532.70 349.86,532.86 355.04,532.91 360.19,532.85 365.31,532.68 370.41,532.41 375.48,532.03 380.52,531.56 385.52,530.99 390.50,530.33 395.44,529.58 400.36,528.74 405.23,527.82 410.08,526.82 414.89,525.75 419.66,524.60 424.40,523.38 429.11,522.08 433.78,520.73 438.41,519.31 443.00,517.82 447.56,516.28 452.07,514.69 456.55,513.03 460.99,511.33 465.39,509.58 469.74,507.78 474.05,505.93 478.32,504.04 482.54,502.12 486.72,500.15 490.85,498.15 494.93,496.12 498.96,494.05 502.94,491.96 506.86,489.84 510.73,487.69 514.54,485.53 518.29,483.34 521.97,481.14 525.59,478.92 529.14,476.69 532.61,474.45 536.01,472.21 539.34,469.96 542.57,467.71 545.72,465.46 548.78,463.22 551.75,460.98 554.61,458.76 557.37,456.54 560.01,454.35 562.54,452.17 564.95,450.02 567.23,447.89 569.38,445.79 571.39,443.73 573.25,441.70 574.96,439.71 576.51,437.77 577.90,435.87 579.11,434.03 580.15,432.24 581.00,430.51"/>
  <polyline points="534.03,124.97 533.71,124.88 533.18,124.77 532.43,124.64 531.47,124.50 530.31,124.34 528.95,124.16 527.41,123.96 525.68,123.75 523.78,123.52 521.71,123.28 519.47,123.02 517.09,122.75 514.56,122.47 511.88,122.18 509.08,121.87 506.15,121.56 503.09,121.25 499.93,120.92 496.65,120.59 493.27,120.26 489.79,119.93 486.23,119.60 482.57,119.27 478.83,118.94 475.02,118.62 471.13,118.30 467.17,118.00 463.14,117.70 459.06,117.42 454.91,117.16 450.71,116.90 446.46,116.67 442.16,116.46 437.81,116.27 433.42,116.11 428.99,115.98 424.52,115.87 420.01,115.80 415.47,115.76 410.90,115.75 406.29,115.79 401.66,115.86 397.00,115.98 392.31,116.15 387.60,116.36 382.87,116.62 378.11,116.94 373.34,117.32 368.55,117.75 363.74,118.24 358.92,118.80 354.08,119.42 349.23,120.11 344.37,120.88 339.50,121.72 334.62,122.64 329.74,123.64 324.85,124.73 319.95,125.90 315.06,127.16 310.16,128.51 305.27,129.97 300.38,131.52 295.50,133.17 290.62,134.93 285.75,136.80 280.90,138.79 276.06,140.89 271.24,143.10 266.44,145.45 261.67,147.91 256.92,150.51 252.21,153.24 247.53,156.10 242.89,159.11 238.29,162.25 233.73,165.54 229.24,168.97 224.79,172.56 220.41,176.30 216.10,180.19 211.86,184.23 207.71,188.44 203.63,192.80 199.65,197.32 195.77,202.00 192.00,206.84 188.34,211.85 184.81,217.01 181.40,222.32 178.13,227.80 175.00,233.42 172.03,239.19 169.22,245.11 166.57,251.17 164.11,257.37 161.83,263.69 159.74,270.14 157.85,276.70 156.17,283.37 154.70,290.13 153.45,296.98 152.43,303.91 151.63,310.90 151.08,317.95 150.76,325.04 150.68,332.16 150.84,339.29 151.25,346.43 151.91,353.56 152.81,360.66 153.95,367.73 155.34,374.75 156.96,381.70 158.82,388.58 160.91,395.37 163.22,402.06 165.76,408.64 168.50,415.09 171.45,421.42 174.59,427.60 177.93,433.63 181.44,439.50 185.13,445.21 188.97,450.74 192.97,456.10 197.11,461.27 201.39,466.27 205.79,471.07 210.31,475.68 214.93,480.10 219.65,484.33 224.46,488.36 229.35,492.20 234.31,495.85 239.34,499.30 244.43,502.57 249.56,505.65 254.74,508.54 259.96,511.25 265.21,513.78 270.48,516.14 275.78,518.32 281.09,520.34 286.41,522.18 291.74,523.87 297.07,525.40 302.40,526.77 307.73,528.00 313.04,529.08 318.35,530.01 323.65,530.81 328.93,531.47 334.19,532.01 339.44,532.42 344.66,532.70 349.86,532.86 355.04,532.91 360.19,532.85 365.31,532.68 370.41,532.41 375.48,532.03 380.52,531.56 385.52,530.99 390.50,530.33 395.44,529.58 400.36,528.74 405.23,527.82 410.08,526.82 414.89,525.75 419.66,524.60 424.40,523.38 429.11,522.08 433.78,520.73"/>
</svg>