<svg width="630.0" height="630.0" viewBox="0 0 630.0 630.0" fill="none" stroke="black" stroke-width="6" stroke-linecap="round" stroke-linejoin="round" xmlns="http://www.w3.org/2000/svg">
  <circle cx="315.0" cy="315.0" r="290.0" fill="white"/>
  <polyline points="340.18,271.39 343.30,275.42 346.41,279.48 349.51,283.54 352.59,287.63 355.65,291.74 358.68,295.87 361.69,300.03 364.67,304.22 367.61,308.43 370.52,312.68 373.38,316.96 376.21,321.27 378.98,325.62 381.70,330.00 384.37,334.43 386.98,338.90 389.52,343.40 392.00,347.96 394.40,352.55 396.73,357.19 398.98,361.88 401.15,366.62 403.22,371.40 405.20,376.23 407.08,381.10 408.86,386.03 410.53,391.00 412.08,396.01 413.51,401.07 414.82,406.18 416.00,411.33 417.04,416.51 417.94,421.74 418.69,427.00 419.28,432.29 419.72,437.61 420.00,442.95 420.10,448.31 420.03,453.68 419.78,459.07 419.34,464.45 418.72,469.83 417.90,475.20 416.88,480.56 415.66,485.88 414.23,491.17 412.59,496.42 410.75,501.62 408.69,506.75 406.42,511.81 403.93,516.80 401.23,521.69 398.32,526.47 395.20,531.15 391.87,535.70 388.33,540.13 384.59,544.41 380.66,548.54 376.54,552.51 372.23,556.31 367.74,559.94 363.09,563.38 358.28,566.63 353.31,569.68 348.21,572.53 342.97,575.17 337.61,577.61 332.14,579.83 326.57,581.83 320.91,583.62 315.18,585.18 309.37,586.54 303.52,587.67 297.61,588.59 291.67,589.30 285.71,589.80 279.73,590.09 273.74,590.19 267.76,590.08 261.79,589.79 255.84,589.30 249.91,588.64 244.03,587.80 238.18,586.79 232.38,585.61 226.63,584.28 220.94,582.79 215.32,581.16 209.76,579.39 204.27,577.48 198.86,575.44 193.52,573.28 188.26,571.00 183.09,568.60 177.99,566.10 172.99,563.50 168.07,560.79 163.23,557.99 158.49,555.10 153.83,552.12 149.27,549.05 144.79,545.91 140.41,542.69 136.11,539.39 131.90,536.03 127.78,532.59 123.76,529.09 119.82,525.53 115.96,521.90 112.20,518.22 108.52,514.48 104.93,510.68 101.42,506.82 98.00,502.91 94.66,498.95 91.41,494.94 88.24,490.88 85.15,486.77 82.14,482.62 79.21,478.41 76.36,474.16 73.59,469.86 70.90,465.52 68.29,461.13 65.76,456.70 63.30,452.22 60.93,447.70 58.62,443.14 56.40,438.53 54.25,433.88 52.17,429.19 50.18,424.46 48.26,419.68 46.41,414.87 44.64,410.01 42.95,405.12 41.33,400.18 39.79,395.21 38.33,390.20 36.95,385.15 35.65,380.06 34.43,374.94 33.29,369.79 32.23,364.60 31.25,359.38 30.36,354.13 29.55,348.85 28.83,343.55 28.20,338.22 27.66,332.87 27.21,327.49 26.86,322.11 26.60,316.70 26.44,311.29 26.38,305.87 26.42,300.45 26.57,295.03 26.83,289.61 27.20,284.21 27.68,278.82 28.27,273.45 28.98,268.11 29.82,262.81 30.77,257.55 31.85,252.33"/>
  <polyline points="346.41,26.71 341.16,26.22 335.96,25.91 330.84,25.78 325.79,25.82 320.82,26.05 315.96,26.47 311.20,27.07 306.55,27.86 302.03,28.84 297.65,30.00 293.41,31.35 289.32,32.89 285.39,34.61 281.63,36.51 278.04,38.59 274.63,40.83 271.41,43.24 268.37,45.82 265.53,48.54 262.89,51.41 260.45,54.43 258.21,57.57 256.18,60.84 254.35,64.23 252.72,67.72 251.29,71.32 250.07,75.00 249.04,78.78 248.22,82.63 247.58,86.55 247.14,90.53 246.88,94.56 246.80,98.65 246.90,102.77 247.17,106.93 247.61,111.12 248.21,115.33 248.97,119.57 249.88,123.81 250.93,128.06 252.12,132.32 253.45,136.58 254.90,140.84 256.48,145.10 258.18,149.35 259.98,153.59 261.90,157.81 263.91,162.03 266.02,166.23 268.22,170.42 270.51,174.59 272.88,178.75 275.33,182.89 277.84,187.01 280.43,191.12 283.07,195.21 285.78,199.29 288.54,203.35 291.35,207.40 294.21,211.43 297.11,215.46 300.04,219.47 303.02,223.47 306.02,227.47 309.05,231.46 312.11,235.45 315.19,239.43 318.29,243.41 321.40,247.39 324.52,251.38 327.65,255.36 330.78,259.36 333.92,263.36 337.05,267.37 340.18,271.39 343.30,275.42 346.41,279.48 349.51,283.54 352.59,287.63 355.65,291.74 358.68,295.87 361.69,300.03 364.67,304.22 367.61,308.43 370.52,312.68 373.38,316.96 376.21,321.27 378.98,325.62 381.70,330.00 384.37,334.43 386.98,338.90 389.52,343.40 392.00,347.96 394.40,352.55 396.73,357.19 398.98,361.88 401.15,366.62 403.22,371.40 405.20,376.23 407.08,381.10 408.86,386.03 410.53,391.00 412.08,396.01 413.51,401.07 414.82,406.18 416.00,411.33 417.04,416.51 417.94,421.74 418.69,427.00 419.28,432.29 419.72,437.61 420.00,442.95 420.10,448.31 420.03,453.68 419.78,459.07 419.34,464.45 418.72,469.83 417.90,475.20 416.88,480.56 415.66,485.88 414.23,491.17 412.59,496.42 410.75,501.62 408.69,506.75 406.42,511.81 403.93,516.80 401.23,521.69 398.32,526.47 395.20,531.15 391.87,535.70 388.33,540.13 384.59,544.41 380.66,548.54 376.54,552.51 372.23,556.31 367.74,559.94 363.09,563.38 358.28,566.63 353.31,569.68 348.21,572.53 342.97,575.17 337.61,577.61 332.14,579.83 326.57,581.83 320.91,583.62 315.18,585.18 309.37,586.54 303.52,587.67 297.61,588.59 291.67,589.30 285.71,589.80 279.73,590.09 273.74,590.19 267.76,590.08 261.79,589.79 255.84,589.30 249.91,588.64 244.03,587.80 238.18,586.79 232.38,585.61 226.63,584.28 220.94,582.79 215.32,581.16 209.76,579.39 204.27,577.48 198.86,575.44 193.52,573.28 188.26,571.00 183.09,568.60 177.99,566.10 172.99,563.50 168.07,560.79 163.23,557.99 158.49,555.10 153.83,552.12 149.27,549.05 144.79,545.91 140.41,542.69 136.11,539.39 131.90,536.03 127.78,532.59 123.76,529.09 119.82,525.53 115.96,521.90 112.20,518.22 108.52,514.48 104.93,510.68 101.42,506.82 98.00,502.91 94.66,498.95 91.41,494.94 88.24,490.88 85.15,486.77 82.14,482.62 79.21,478.41 76.36,474.16 73.59,469.86 70.90,465.52 68.29,461.13 65.76,456.70 63.30,452.22 60.93,447.70 58.62,443.14 56.40,438.53 54.25,433.88 52.17,429.19 50.18,424.46 48.26,419.68 46.41,414.87 44.64,410.01 42.95,405.12 41.33,400.18 39.79,395.21 38.33,390.20 36.95,385.15 35.65,380.06 34.43,374.94 33.29,369.79 32.23,364.60 31.25,359.38 30.36,354.13 29.55,348.85 28.83,343.55 28.20,338.22 27.66,332.87 27.21,327.49 26.86,322.11 26.60,316.70 26.44,311.29 26.38,305.87 26.42,300.45 26.57,295.03 26.83,289.61 27.20,284.21 27.68,278.82 28.27,273.45 28.98,268.11 29.82,262.81 30.77,257.55 31.85,252.33"/>
  <polyline points="346.41,26.71 341.16,26.22 335.96,25.91 330.84,25.78 325.79,25.82 320.82,26.05 315.96,26.47 311.20,27.07 306.55,27.86 302.03,28.84 297.65,30.00 293.41,31.35 289.32,32.89 285.39,34.61 281.63,36.51 278.04,38.59 274.63,40.83 271.41,43.24 268.37,45.82 265.53,48.54 262.89,51.41 260.45,54.43 258.21,57.57 256.18,60.84 254.35,64.23 252.72,67.72 251.29,71.32 250.07,75.00 249.04,78.78 248.22,82.63 247.58,86.55 247.14,90.53 246.88,94.56 246.80,98.65 246.90,102.77 247.17,106.93 247.61,111.12 248.21,115.33 248.97,119.57 249.88,123.81 250.93,128.06 252.12,132.32 253.45,136.58 254.90,140.84 256.48,145.10 258.18,149.35 259.98,153.59 261.90,157.81 263.91,162.03 266.02,166.23 268.22,170.42 270.51,174.59 272.88,178.75 275.33,182.89 277.84,187.01 280.43,191.12 283.07,195.21 285.78,199.29 288.54,203.35 291.35,207.40 294.21,211.43 297.11,215.46 300.04,219.47 303.02,223.47 306.02,227.47 309.05,231.46 312.11,235.45 315.19,239.43 318.29,243.41 321.40,247.39 324.52,251.38 327.65,255.36 330.78,259.36 333.92,263.36 337.05,267.37 340.18,271.39"/>
</svg>