<svg width="630.0" height="630.0" viewBox="0 0 630.0 630.0" fill="none" stroke="black" stroke-width="6" stroke-linecap="round" stroke-linejoin="round" xmlns="http://www.w3.org/2000/svg">
  <circle cx="315.0" cy="315.0" r="290.0" fill="white"/>
  <polyline points="178.74,79.00 183.19,77.25 187.67,75.58 192.20,73.99 196.77,72.48 201.37,71.05 206.01,69.70 210.69,68.43 215.41,67.26 220.16,66.17 224.94,65.18 229.76,64.28 234.61,63.48 239.49,62.78 244.40,62.18 249.34,61.69 254.30,61.31 259.29,61.03 264.31,60.88 269.34,60.84 274.40,60.92 279.47,61.12 284.56,61.46 289.67,61.92 294.78,62.52 299.90,63.26 305.03,64.13 310.16,65.16 315.29,66.33 320.41,67.66 325.52,69.14 330.62,70.79 335.69,72.59 340.75,74.57 345.77,76.71 350.76,79.03 355.71,81.53 360.61,84.20 365.46,87.06 370.25,90.10 374.97,93.32 379.62,96.74 384.18,100.34 388.65,104.14 393.02,108.12 397.28,112.30 401.43,116.66 405.45,121.21 409.34,125.94 413.08,130.85 416.67,135.95 420.10,141.21 423.36,146.64 426.44,152.24 429.34,157.99 432.04,163.89 434.55,169.92 436.84,176.09 438.92,182.37 440.78,188.77 442.42,195.26 443.82,201.84 445.00,208.49 445.94,215.21 446.64,221.97 447.11,228.77 447.34,235.60 447.33,242.43 447.09,249.27 446.61,256.09 445.91,262.88 444.98,269.64 443.83,276.34 442.46,282.99 440.88,289.56 439.10,296.05 437.12,302.45 434.94,308.75 432.59,314.95 430.06,321.03 427.35,326.98 424.49,332.82 421.48,338.52 418.32,344.09 415.02,349.51 411.60,354.80 408.05,359.94 404.38,364.93 400.61,369.78 396.74,374.48 392.78,379.03 388.73,383.43 384.61,387.69 380.40,391.80 376.13,395.76 371.80,399.58 367.41,403.26 362.98,406.80 358.49,410.20 353.96,413.47 349.40,416.61 344.80,419.62 340.17,422.50 335.52,425.26 330.85,427.91 326.16,430.43 321.45,432.85 316.73,435.15 312.00,437.35 307.27,439.45 302.53,441.44 297.79,443.35 293.05,445.16 288.31,446.88 283.58,448.52 278.85,450.07 274.14,451.55 269.43,452.96 264.74,454.29 260.06,455.55 255.40,456.75 250.75,457.89 246.12,458.97 241.52,459.99 236.93,460.97 232.38,461.89 227.84,462.77 223.34,463.60 218.86,464.40 214.41,465.16 210.00,465.89 205.62,466.58 201.27,467.25 196.97,467.89 192.70,468.51 188.48,469.12 184.30,469.70 180.16,470.28 176.08,470.84 172.04,471.39 168.07,471.94 164.14,472.49 160.28,473.04 156.48,473.59 152.74,474.14 149.08,474.71 145.49,475.28 141.97,475.86 138.53,476.46 135.18,477.08 131.92,477.72 128.75,478.37 125.68,479.06 122.71,479.76 119.85,480.50 117.10,481.26 114.47,482.05 111.97,482.88 109.59,483.74 107.36,484.63 105.26,485.56 103.31,486.53 101.52,487.53 99.90,488.57 98.44,489.65 97.15,490.77 96.05,491.92 95.13,493.12 94.41,494.35 93.89,495.62 93.57,496.92 93.47,498.26 93.59,499.63 93.93,501.03 94.49,502.46 95.29,503.92 96.32,505.41"/>
  <polyline points="573.50,446.44 576.08,441.22 578.58,435.85 581.00,430.35 583.34,424.72 585.58,418.95 587.74,413.06 589.79,407.04 591.73,400.91 593.56,394.65 595.28,388.29 596.87,381.83 598.33,375.27 599.66,368.63 600.85,361.91 601.90,355.11 602.79,348.26 603.53,341.36 604.12,334.43 604.54,327.47 604.80,320.49 604.89,313.51 604.80,306.55 604.55,299.60 604.13,292.70 603.53,285.84"/>
  <polyline points="65.30,167.54 67.34,164.30 69.51,161.06 71.80,157.84 74.21,154.64 76.72,151.46 79.35,148.30 82.08,145.16 84.90,142.06 87.83,138.99 90.84,135.94 93.94,132.94 97.12,129.96 100.38,127.03 103.72,124.14 107.13,121.29 110.62,118.48 114.17,115.72 117.79,113.00 121.47,110.33 125.22,107.72 129.02,105.15 132.88,102.64 136.80,100.19 140.77,97.79 144.80,95.45 148.88,93.16 153.00,90.94 157.18,88.78 161.40,86.69 165.67,84.66 169.98,82.71 174.34,80.82 178.74,79.00 183.19,77.25 187.67,75.58 192.20,73.99 196.77,72.48 201.37,71.05 206.01,69.70 210.69,68.43 215.41,67.26 220.16,66.17 224.94,65.18 229.76,64.28 234.61,63.48 239.49,62.78 244.40,62.18 249.34,61.69 254.30,61.31 259.29,61.03 264.31,60.88 269.34,60.84 274.40,60.92 279.47,61.12 284.56,61.46 289.67,61.92 294.78,62.52 299.90,63.26 305.03,64.13 310.16,65.16 315.29,66.33 320.41,67.66 325.52,69.14 330.62,70.79 335.69,72.59 340.75,74.57 345.77,76.71 350.76,79.03 355.71,81.53 360.61,84.20 365.46,87.06 370.25,90.10 374.97,93.32 379.62,96.74 384.18,100.34 388.65,104.14 393.02,108.12 397.28,112.30 401.43,116.66 405.45,121.21 409.34,125.94 413.08,130.85 416.67,135.95 420.10,141.21 423.36,146.64 426.44,152.24 429.34,157.99 432.04,163.89 434.55,169.92 436.84,176.09 438.92,182.37 440.78,188.77 442.42,195.26 443.82,201.84 445.00,208.49 445.94,215.21 446.64,221.97 447.11,228.77 447.34,235.60 447.33,242.43 447.09,249.27 446.61,256.09 445.91,262.88 444.98,269.64 443.83,276.34 442.46,282.99 440.88,289.56 439.10,296.05 437.12,302.45 434.94,308.75 432.59,314.95 430.06,321.03 427.35,326.98 424.49,332.82 421.48,338.52 418.32,344.09 415.02,349.51 411.60,354.80 408.05,359.94 404.38,364.93 400.61,369.78 396.74,374.48 392.78,379.03 388.73,383.43 384.61,387.69 380.40,391.80 376.13,395.76 371.80,399.58 367.41,403.26 362.98,406.80 358.49,410.20 353.96,413.47 349.40,416.61 344.80,419.62 340.17,422.50 335.52,425.26 330.85,427.91 326.16,430.43 321.45,432.85 316.73,435.15 312.00,437.35 307.27,439.45 302.53,441.44 297.79,443.35 293.05,445.16 288.31,446.88 283.58,448.52 278.85,450.07 274.14,451.55 269.43,452.96 264.74,454.29 260.06,455.55 255.40,456.75 250.75,457.89 246.12,458.97 241.52,459.99 236.93,460.97 232.38,461.89 227.84,462.77 223.34,463.60 218.86,464.40 214.41,465.16 210.00,465.89 205.62,466.58 201.27,467.25 196.97,467.89 192.70,468.51 188.48,469.12 184.30,469.70 180.16,470.28 176.08,470.84 172.04,471.39 168.07,471.94 164.14,472.49 160.28,473.04 156.48,473.59 152.74,474.14 149.08,474.71 145.49,475.28 141.97,475.86 138.53,476.46 135.18,477.08 131.92,477.72 128.75,478.37 125.68,479.06 122.71,479.76 119.85,480.50 117.10,481.26 114.47,482.05 111.97,482.88 109.59,483.74 107.36,484.63 105.26,485.56 103.31,486.53 101.52,487.53 99.90,488.57 98.44,489.65 97.15,490.77 96.05,491.92 95.13,493.12 94.41,494.35 93.89,495.62 93.57,496.92 93.47,498.26 93.59,499.63 93.93,501.03 94.49,502.46 95.29,503.92 96.32,505.41"/>
  <polyline points="573.50,446.44 576.08,441.22 578.58,435.85 581.00,430.35 583.34,424.72 585.58,418.95 587.74,413.06 589.79,407.04 591.73,400.91 593.56,394.65 595.28,388.29 596.87,381.83 598.33,375.27 599.66,368.63 600.85,361.91 601.90,355.11 602.79,348.26 603.53,341.36 604.12,334.43 604.54,327.47 604.80,320.49 604.89,313.51 604.80,306.55 604.55,299.60 604.13,292.70 603.53,285.84"/>
  <polyline points="65.30,167.54 67.34,164.30 69.51,161.06 71.80,157.84 74.21,154.64 76.72,151.46 79.35,148.30 82.08,145.16 84.90,142.06 87.83,138.99 90.84,135.94 93.94,132.94 97.12,129.96 100.38,127.03 103.72,124.14 107.13,121.29 110.62,118.48 114.17,115.72 117.79,113.00 121.47,110.33 125.22,107.72 129.02,105.15 132.88,102.64 136.80,100.19 140.77,97.79 144.80,95.45 148.88,93.16 153.00,90.94 157.18,88.78 161.40,86.69 165.67,84.66 169.98,82.71 174.34,80.82 178.74,79.00"/>
</svg>