<svg width="630.0" height="630.0" viewBox="0 0 630.0 630.0" fill="none" stroke="black" stroke-width="6" stroke-linecap="round" stroke-linejoin="round" xmlns="http://www.w3.org/2000/svg">
  <circle cx="315.0" cy="315.0" r="290.0" fill="white"/>
  <polyline points="433.78,398.17 437.85,395.26 441.90,392.33 445.90,389.38 449.88,386.41 453.82,383.43 457.73,380.44 461.62,377.44 465.47,374.43 469.30,371.43 473.10,368.43 476.87,365.43 480.62,362.44 484.35,359.46 488.05,356.50 491.73,353.55 495.39,350.63 499.03,347.73 502.64,344.87 506.23,342.03 509.80,339.23 513.34,336.48 516.86,333.76 520.36,331.10 523.83,328.49 527.28,325.94 530.70,323.45 534.08,321.02 537.44,318.67 540.76,316.39 544.05,314.20 547.30,312.09 550.51,310.07 553.68,308.15 556.79,306.32 559.86,304.61 562.87,303.01 565.82,301.53 568.71,300.16 571.53,298.93 574.27,297.83 576.94,296.87 579.52,296.06 582.01,295.39 584.40,294.88 586.70,294.52 588.88,294.33 590.95,294.31 592.90,294.45 594.73,294.77 596.42,295.27 597.97,295.95 599.38,296.80 600.65,297.84 601.76,299.07 602.71,300.47 603.49,302.07 604.12,303.84 604.57,305.79 604.85,307.93"/>
  <polyline points="424.36,46.44 421.07,45.26 417.63,44.18 414.05,43.19 410.35,42.29 406.54,41.49 402.61,40.78 398.58,40.16 394.45,39.63 390.24,39.19 385.95,38.83 381.58,38.55 377.14,38.36 372.64,38.24 368.09,38.20 363.48,38.24 358.83,38.36 354.14,38.54 349.42,38.80 344.66,39.14 339.88,39.54 335.07,40.01 330.24,40.55 325.40,41.16 320.55,41.84 315.69,42.58 310.82,43.39 305.94,44.27 301.07,45.21 296.20,46.22 291.33,47.29 286.47,48.43 281.61,49.63 276.77,50.90 271.94,52.24 267.12,53.64 262.31,55.11 257.53,56.65 252.76,58.25 248.01,59.93 243.28,61.67 238.57,63.49 233.89,65.37 229.23,67.33 224.60,69.36 220.00,71.47 215.43,73.65 210.89,75.91 206.38,78.25 201.91,80.67 197.47,83.16 193.06,85.74 188.70,88.41 184.37,91.15 180.09,93.99 175.85,96.91 171.66,99.92 167.52,103.02 163.42,106.21 159.38,109.50 155.39,112.88 151.46,116.36 147.60,119.93 143.79,123.61 140.05,127.39 136.38,131.26 132.78,135.25 129.25,139.33 125.81,143.52 122.45,147.82 119.18,152.23 116.00,156.74 112.91,161.36 109.93,166.10 107.06,170.94 104.29,175.89 101.64,180.94 99.12,186.11 96.72,191.38 94.46,196.76 92.34,202.24 90.36,207.82 88.54,213.51 86.88,219.29 85.38,225.16 84.05,231.12 82.91,237.16 81.94,243.29 81.17,249.49 80.60,255.75 80.23,262.08 80.07,268.46 80.13,274.89 80.41,281.36 80.91,287.85 81.64,294.36 82.60,300.88 83.79,307.40 85.23,313.91 86.90,320.39 88.81,326.83 90.96,333.23 93.35,339.57 95.98,345.84 98.84,352.02 101.93,358.11 105.25,364.09 108.78,369.95 112.53,375.68 116.49,381.27 120.64,386.71 124.99,391.98 129.52,397.09 134.21,402.01 139.07,406.76 144.09,411.30 149.24,415.65 154.52,419.80 159.92,423.73 165.42,427.46 171.02,430.97 176.71,434.26 182.47,437.34 188.30,440.20 194.18,442.84 200.10,445.26 206.05,447.47 212.03,449.47 218.03,451.26 224.03,452.84 230.04,454.22 236.04,455.40 242.02,456.38 247.99,457.18 253.92,457.79 259.83,458.21 265.71,458.47 271.54,458.55 277.34,458.47 283.08,458.23 288.78,457.83 294.43,457.29 300.02,456.60 305.56,455.77 311.04,454.81 316.46,453.73 321.82,452.52 327.13,451.19 332.37,449.75 337.56,448.20 342.68,446.55 347.75,444.80 352.75,442.96 357.70,441.02 362.59,439.00 367.42,436.90 372.19,434.72 376.91,432.47 381.58,430.15 386.19,427.76 390.75,425.31 395.26,422.81 399.72,420.25 404.13,417.63 408.49,414.97 412.81,412.26 417.09,409.51 421.32,406.73 425.51,403.91 429.66,401.05 433.78,398.17 437.85,395.26 441.90,392.33 445.90,389.38 449.88,386.41 453.82,383.43 457.73,380.44 461.62,377.44 465.47,374.43 469.30,371.43 473.10,368.43 476.87,365.43 480.62,362.44 484.35,359.46 488.05,356.50 491.73,353.55 495.39,350.63 499.03,347.73 502.64,344.87 506.23,342.03 509.80,339.23 513.34,336.48 516.86,333.76 520.36,331.10 523.83,328.49 527.28,325.94 530.70,323.45 534.08,321.02 537.44,318.67 540.76,316.39 544.05,314.20 547.30,312.09 550.51,310.07 553.68,308.15 556.79,306.32 559.86,304.61 562.87,303.01 565.82,301.53 568.71,300.16 571.53,298.93 574.27,297.83 576.94,296.87 579.52,296.06 582.01,295.39 584.40,294.88 586.70,294.52 588.88,294.33 590.95,294.31 592.90,294.45 594.73,294.77 596.42,295.27 597.97,295.95 599.38,296.80 600.65,297.84 601.76,299.07 602.71,300.47 603.49,302.07 604.12,303.84 604.57,305.79 604.85,307.93"/>
  <polyline points="424.36,46.44 421.07,45.26 417.63,44.18 414.05,43.19 410.35,42.29 406.54,41.49 402.61,40.78 398.58,40.16 394.45,39.63 390.24,39.19 385.95,38.83 381.58,38.55 377.14,38.36 372.64,38.24 368.09,38.20 363.48,38.24 358.83,38.36 354.14,38.54 349.42,38.80 344.66,39.14 339.88,39.54 335.07,40.01 330.24,40.55 325.40,41.16 320.55,41.84 315.69,42.58 310.82,43.39 305.94,44.27 301.07,45.21 296.20,46.22 291.33,47.29 286.47,48.43 281.61,49.63 276.77,50.90 271.94,52.24 267.12,53.64 262.31,55.11 257.53,56.65 252.76,58.25 248.01,59.93 243.28,61.67 238.57,63.49 233.89,65.37 229.23,67.33 224.60,69.36 220.00,71.47 215.43,73.65 210.89,75.91 206.38,78.25 201.91,80.67 197.47,83.16 193.06,85.74 188.70,88.41 184.37,91.15 180.09,93.99 175.85,96.91 171.66,99.92 167.52,103.02 163.42,106.21 159.38,109.50 155.39,112.88 151.46,116.36 147.60,119.93 143.79,123.61 140.05,127.39 136.38,131.26 132.78,135.25 129.25,139.33 125.81,143.52 122.45,147.82 119.18,152.23 116.00,156.74 112.91,161.36 109.93,166.10 107.06,170.94 104.29,175.89 101.64,180.94 99.12,186.11 96.72,191.38 94.46,196.76 92.34,202.24 90.36,207.82 88.54,213.51 86.88,219.29 85.38,225.16 84.05,231.12 82.91,237.16 81.94,243.29 81.17,249.49 80.60,255.75 80.23,262.08 80.07,268.46 80.13,274.89 80.41,281.36 80.91,287.85 81.64,294.36 82.60,300.88 83.79,307.40 85.23,313.91 86.90,320.39 88.81,326.83 90.96,333.23 93.35,339.57 95.98,345.84 98.84,352.02 101.93,358.11 105.25,364.09 108.78,369.95 112.53,375.68 116.49,381.27 120.64,386.71 124.99,391.98 129.52,397.09 134.21,402.01 139.07,406.76 144.09,411.30 149.24,415.65 154.52,419.80 159.92,423.73 165.42,427.46 171.02,430.97 176.71,434.26 182.47,437.34 188.30,440.20 194.18,442.84 200.10,445.26 206.05,447.47 212.03,449.47 218.03,451.26 224.03,452.84 230.04,454.22 236.04,455.40 242.02,456.38 247.99,457.18 253.92,457.79 259.83,458.21 265.71,458.47 271.54,458.55 277.34,458.47 283.08,458.23 288.78,457.83 294.43,457.29 300.02,456.60 305.56,455.77 311.04,454.81 316.46,453.73 321.82,452.52 327.13,451.19 332.37,449.75 337.56,448.20 342.68,446.55 347.75,444.80 352.75,442.96 357.70,441.02 362.59,439.00 367.42,436.90 372.19,434.72 376.91,432.47 381.58,430.15 386.19,427.76 390.75,425.31 395.26,422.81 399.72,420.25 404.13,417.63 408.49,414.97 412.81,412.26 417.09,409.51 421.32,406.73 425.51,403.91 429.66,401.05 433.78,398.17"/>
</svg>