<svg width="630.0" height="630.0" viewBox="0 0 630.0 630.0" xmlns="http://www.w3.org/2000/svg">
<circle cx="315.0" cy="315.0" r="290.0" fill="#FDFDF5" stroke="#ccc" stroke-width="0.5"/>
<line x1="454.26" y1="568.68" x2="480.56" y2="552.60" stroke="#D32F2F" stroke-width="4.86" stroke-linecap="round"/>
<line x1="467.05" y1="557.39" x2="492.35" y2="540.84" stroke="#D32F2F" stroke-width="5.75" stroke-linecap="round"/>
<line x1="507.39" y1="531.46" x2="492.35" y2="540.84" stroke="#D32F2F" stroke-width="8.00" stroke-linecap="round"/>
<line x1="479.74" y1="542.46" x2="503.98" y2="525.95" stroke="#D32F2F" stroke-width="6.60" stroke-linecap="round"/>
<line x1="517.69" y1="519.36" x2="503.98" y2="525.95" stroke="#D32F2F" stroke-width="8.00" stroke-linecap="round"/>
<line x1="492.03" y1="524.72" x2="515.15" y2="508.63" stroke="#D32F2F" stroke-width="7.39" stroke-linecap="round"/>
<line x1="527.69" y1="504.91" x2="515.15" y2="508.63" stroke="#D32F2F" stroke-width="8.00" stroke-linecap="round"/>
<line x1="503.63" y1="504.92" x2="525.67" y2="489.50" stroke="#D32F2F" stroke-width="8.00" stroke-linecap="round"/>
<line x1="537.24" y1="488.61" x2="525.67" y2="489.50" stroke="#D32F2F" stroke-width="8.00" stroke-linecap="round"/>
<line x1="514.33" y1="483.67" x2="535.33" y2="469.04" stroke="#D32F2F" stroke-width="8.00" stroke-linecap="round"/>
<line x1="546.19" y1="470.83" x2="535.33" y2="469.04" stroke="#D32F2F" stroke-width="8.00" stroke-linecap="round"/>
<line x1="523.95" y1="461.49" x2="544.00" y2="447.63" stroke="#D32F2F" stroke-width="8.00" stroke-linecap="round"/>
<line x1="554.43" y1="451.83" x2="544.00" y2="447.63" stroke="#D32F2F" stroke-width="8.00" stroke-linecap="round"/>
<line x1="532.34" y1="438.74" x2="551.51" y2="425.53" stroke="#D32F2F" stroke-width="8.00" stroke-linecap="round"/>
<line x1="561.82" y1="431.78" x2="551.51" y2="425.53" stroke="#D32F2F" stroke-width="8.00" stroke-linecap="round"/>
<line x1="539.37" y1="415.70" x2="557.73" y2="402.92" stroke="#D32F2F" stroke-width="8.00" stroke-linecap="round"/>
<line x1="568.22" y1="410.79" x2="557.73" y2="402.92" stroke="#D32F2F" stroke-width="8.00" stroke-linecap="round"/>
<line x1="544.92" y1="392.55" x2="562.50" y2="379.93" stroke="#D32F2F" stroke-width="8.00" stroke-linecap="round"/>
<line x1="573.46" y1="388.92" x2="562.50" y2="379.93" stroke="#D32F2F" stroke-width="8.00" stroke-linecap="round"/>
<line x1="548.87" y1="369.41" x2="565.68" y2="356.65" stroke="#D32F2F" stroke-width="8.00" stroke-linecap="round"/>
<line x1="577.33" y1="366.21" x2="565.68" y2="356.65" stroke="#D32F2F" stroke-width="8.00" stroke-linecap="round"/>
<line x1="551.11" y1="346.36" x2="567.08" y2="333.15" stroke="#D32F2F" stroke-width="8.00" stroke-linecap="round"/>
<line x1="579.61" y1="342.72" x2="567.08" y2="333.15" stroke="#D32F2F" stroke-width="8.00" stroke-linecap="round"/>
<line x1="551.51" y1="323.46" x2="566.54" y2="309.47" stroke="#D32F2F" stroke-width="8.00" stroke-linecap="round"/>
<line x1="580.03" y1="318.47" x2="566.54" y2="309.47" stroke="#D32F2F" stroke-width="8.00" stroke-linecap="round"/>
<line x1="549.93" y1="300.76" x2="563.82" y2="285.69" stroke="#D32F2F" stroke-width="8.00" stroke-linecap="round"/>
<line x1="578.28" y1="293.56" x2="563.82" y2="285.69" stroke="#D32F2F" stroke-width="8.00" stroke-linecap="round"/>
<line x1="546.18" y1="278.34" x2="558.68" y2="261.91" stroke="#D32F2F" stroke-width="8.00" stroke-linecap="round"/>
<line x1="574.02" y1="268.13" x2="558.68" y2="261.91" stroke="#D32F2F" stroke-width="8.00" stroke-linecap="round"/>
<line x1="540.07" y1="256.29" x2="550.86" y2="238.32" stroke="#D32F2F" stroke-width="8.00" stroke-linecap="round"/>
<line x1="566.88" y1="242.38" x2="550.86" y2="238.32" stroke="#D32F2F" stroke-width="8.00" stroke-linecap="round"/>
<line x1="531.38" y1="234.75" x2="540.08" y2="215.15" stroke="#D32F2F" stroke-width="8.00" stroke-linecap="round"/>
<line x1="556.50" y1="216.64" x2="540.08" y2="215.15" stroke="#D32F2F" stroke-width="8.00" stroke-linecap="round"/>
<line x1="519.88" y1="213.97" x2="526.06" y2="192.77" stroke="#D32F2F" stroke-width="8.00" stroke-linecap="round"/>
<line x1="542.51" y1="191.38" x2="526.06" y2="192.77" stroke="#D32F2F" stroke-width="8.00" stroke-linecap="round"/>
<line x1="505.33" y1="194.30" x2="508.59" y2="171.69" stroke="#D32F2F" stroke-width="8.00" stroke-linecap="round"/>
<line x1="524.64" y1="167.23" x2="508.59" y2="171.69" stroke="#D32F2F" stroke-width="8.00" stroke-linecap="round"/>
<line x1="487.57" y1="176.22" x2="487.54" y2="152.55" stroke="#D32F2F" stroke-width="8.00" stroke-linecap="round"/>
<line x1="502.74" y1="144.94" x2="487.54" y2="152.55" stroke="#D32F2F" stroke-width="8.00" stroke-linecap="round"/>
<line x1="466.58" y1="160.38" x2="462.98" y2="136.14" stroke="#D32F2F" stroke-width="8.00" stroke-linecap="round"/>
<line x1="476.88" y1="125.42" x2="462.98" y2="136.14" stroke="#D32F2F" stroke-width="8.00" stroke-linecap="round"/>
<line x1="442.57" y1="147.53" x2="435.27" y2="123.31" stroke="#D32F2F" stroke-width="8.00" stroke-linecap="round"/>
<line x1="447.38" y1="109.62" x2="435.27" y2="123.31" stroke="#D32F2F" stroke-width="8.00" stroke-linecap="round"/>
<line x1="416.05" y1="138.42" x2="405.05" y2="114.86" stroke="#D32F2F" stroke-width="8.00" stroke-linecap="round"/>
<line x1="414.93" y1="98.47" x2="405.05" y2="114.86" stroke="#D32F2F" stroke-width="8.00" stroke-linecap="round"/>
<line x1="387.85" y1="133.68" x2="373.31" y2="111.41" stroke="#D32F2F" stroke-width="8.00" stroke-linecap="round"/>
<line x1="380.52" y1="92.69" x2="373.31" y2="111.41" stroke="#D32F2F" stroke-width="8.00" stroke-linecap="round"/>
<line x1="359.05" y1="133.68" x2="341.24" y2="113.27" stroke="#D32F2F" stroke-width="8.00" stroke-linecap="round"/>
<line x1="345.41" y1="92.69" x2="341.24" y2="113.27" stroke="#D32F2F" stroke-width="8.00" stroke-linecap="round"/>
<line x1="330.81" y1="138.42" x2="310.12" y2="120.36" stroke="#D32F2F" stroke-width="8.00" stroke-linecap="round"/>
<line x1="310.97" y1="98.47" x2="310.12" y2="120.36" stroke="#D32F2F" stroke-width="8.00" stroke-linecap="round"/>
<line x1="304.24" y1="147.53" x2="281.10" y2="132.22" stroke="#D32F2F" stroke-width="8.00" stroke-linecap="round"/>
<line x1="278.45" y1="109.62" x2="281.10" y2="132.22" stroke="#D32F2F" stroke-width="8.00" stroke-linecap="round"/>
<line x1="280.19" y1="160.38" x2="255.06" y2="148.11" stroke="#D32F2F" stroke-width="8.00" stroke-linecap="round"/>
<line x1="248.90" y1="125.42" x2="255.06" y2="148.11" stroke="#D32F2F" stroke-width="8.00" stroke-linecap="round"/>
<line x1="259.17" y1="176.22" x2="232.54" y2="167.17" stroke="#D32F2F" stroke-width="8.00" stroke-linecap="round"/>
<line x1="223.00" y1="144.94" x2="232.54" y2="167.17" stroke="#D32F2F" stroke-width="8.00" stroke-linecap="round"/>
<line x1="241.42" y1="194.30" x2="213.78" y2="188.54" stroke="#D32F2F" stroke-width="8.00" stroke-linecap="round"/>
<line x1="201.11" y1="167.23" x2="213.78" y2="188.54" stroke="#D32F2F" stroke-width="8.00" stroke-linecap="round"/>
<line x1="226.90" y1="213.97" x2="198.71" y2="211.45" stroke="#D32F2F" stroke-width="8.00" stroke-linecap="round"/>
<line x1="183.28" y1="191.38" x2="198.71" y2="211.45" stroke="#D32F2F" stroke-width="8.00" stroke-linecap="round"/>
<line x1="215.41" y1="234.75" x2="187.11" y2="235.29" stroke="#D32F2F" stroke-width="8.00" stroke-linecap="round"/>
<line x1="169.31" y1="216.64" x2="187.11" y2="235.29" stroke="#D32F2F" stroke-width="8.00" stroke-linecap="round"/>
<line x1="206.68" y1="256.29" x2="178.62" y2="259.59" stroke="#D32F2F" stroke-width="8.00" stroke-linecap="round"/>
<line x1="158.87" y1="242.38" x2="178.62" y2="259.59" stroke="#D32F2F" stroke-width="8.00" stroke-linecap="round"/>
<line x1="200.40" y1="278.34" x2="172.84" y2="284.02" stroke="#D32F2F" stroke-width="8.00" stroke-linecap="round"/>
<line x1="151.53" y1="268.13" x2="172.84" y2="284.02" stroke="#D32F2F" stroke-width="8.00" stroke-linecap="round"/>
<line x1="196.26" y1="300.76" x2="169.37" y2="308.34" stroke="#D32F2F" stroke-width="8.00" stroke-linecap="round"/>
<line x1="146.83" y1="293.56" x2="169.37" y2="308.34" stroke="#D32F2F" stroke-width="8.00" stroke-linecap="round"/>
<line x1="193.97" y1="323.46" x2="167.79" y2="332.41" stroke="#D32F2F" stroke-width="8.00" stroke-linecap="round"/>
<line x1="144.31" y1="318.47" x2="167.79" y2="332.41" stroke="#D32F2F" stroke-width="8.00" stroke-linecap="round"/>
<line x1="193.23" y1="346.36" x2="167.74" y2="356.12" stroke="#D32F2F" stroke-width="8.00" stroke-linecap="round"/>
<line x1="143.53" y1="342.72" x2="167.74" y2="356.12" stroke="#D32F2F" stroke-width="8.00" stroke-linecap="round"/>
<line x1="193.77" y1="369.41" x2="168.84" y2="379.41" stroke="#D32F2F" stroke-width="8.00" stroke-linecap="round"/>
<line x1="144.07" y1="366.21" x2="168.84" y2="379.41" stroke="#D32F2F" stroke-width="8.00" stroke-linecap="round"/>
<line x1="195.30" y1="392.55" x2="170.76" y2="402.22" stroke="#D32F2F" stroke-width="8.00" stroke-linecap="round"/>
<line x1="145.57" y1="388.92" x2="170.76" y2="402.22" stroke="#D32F2F" stroke-width="8.00" stroke-linecap="round"/>
<line x1="197.53" y1="415.70" x2="173.18" y2="424.49" stroke="#D32F2F" stroke-width="8.00" stroke-linecap="round"/>
<line x1="147.68" y1="410.79" x2="173.18" y2="424.49" stroke="#D32F2F" stroke-width="8.00" stroke-linecap="round"/>
<line x1="200.18" y1="438.74" x2="175.79" y2="446.14" stroke="#D32F2F" stroke-width="8.00" stroke-linecap="round"/>
<line x1="150.09" y1="431.78" x2="175.79" y2="446.14" stroke="#D32F2F" stroke-width="7.91" stroke-linecap="round"/>
<line x1="202.93" y1="461.49" x2="178.31" y2="467.04" stroke="#D32F2F" stroke-width="8.00" stroke-linecap="round"/>
<line x1="152.51" y1="451.83" x2="178.31" y2="467.04" stroke="#D32F2F" stroke-width="7.31" stroke-linecap="round"/>
<line x1="205.46" y1="483.67" x2="180.46" y2="487.00" stroke="#D32F2F" stroke-width="8.00" stroke-linecap="round"/>
<line x1="154.68" y1="470.83" x2="180.46" y2="487.00" stroke="#D32F2F" stroke-width="6.60" stroke-linecap="round"/>
<line x1="207.44" y1="504.92" x2="181.96" y2="505.73" stroke="#D32F2F" stroke-width="8.00" stroke-linecap="round"/>
<line x1="156.33" y1="488.61" x2="181.96" y2="505.73" stroke="#D32F2F" stroke-width="5.79" stroke-linecap="round"/>
<line x1="208.54" y1="524.72" x2="182.54" y2="522.84" stroke="#D32F2F" stroke-width="8.00" stroke-linecap="round"/>
<line x1="157.24" y1="504.91" x2="182.54" y2="522.84" stroke="#D32F2F" stroke-width="5.53" stroke-linecap="round"/>
<line x1="208.45" y1="542.46" x2="181.98" y2="537.82" stroke="#D32F2F" stroke-width="8.00" stroke-linecap="round"/>
<line x1="157.17" y1="519.36" x2="181.98" y2="537.82" stroke="#D32F2F" stroke-width="5.87" stroke-linecap="round"/>
<line x1="206.93" y1="557.39" x2="180.07" y2="550.03" stroke="#D32F2F" stroke-width="8.00" stroke-linecap="round"/>
<line x1="155.94" y1="531.46" x2="180.07" y2="550.03" stroke="#D32F2F" stroke-width="6.34" stroke-linecap="round"/>
<line x1="203.80" y1="568.68" x2="176.68" y2="558.78" stroke="#D32F2F" stroke-width="7.37" stroke-linecap="round"/>
<line x1="153.40" y1="540.63" x2="176.68" y2="558.78" stroke="#D32F2F" stroke-width="6.92" stroke-linecap="round"/>
<line x1="198.98" y1="575.53" x2="171.77" y2="563.35" stroke="#D32F2F" stroke-width="6.47" stroke-linecap="round"/>
<line x1="149.47" y1="546.20" x2="171.77" y2="563.35" stroke="#D32F2F" stroke-width="7.60" stroke-linecap="round"/>
<line x1="192.52" y1="577.27" x2="165.41" y2="563.15" stroke="#D32F2F" stroke-width="5.54" stroke-linecap="round"/>
<line x1="144.19" y1="547.62" x2="165.41" y2="563.15" stroke="#D32F2F" stroke-width="8.00" stroke-linecap="round"/>
<line x1="454.26" y1="568.68" x2="480.56" y2="552.60" stroke="#D32F2F" stroke-width="4.86" stroke-linecap="round"/>
<line x1="467.05" y1="557.39" x2="492.35" y2="540.84" stroke="#D32F2F" stroke-width="5.75" stroke-linecap="round"/>
<line x1="507.39" y1="531.46" x2="492.35" y2="540.84" stroke="#D32F2F" stroke-width="8.00" stroke-linecap="round"/>
<line x1="479.74" y1="542.46" x2="503.98" y2="525.95" stroke="#D32F2F" stroke-width="6.60" stroke-linecap="round"/>
<line x1="517.69" y1="519.36" x2="503.98" y2="525.95" stroke="#D32F2F" stroke-width="8.00" stroke-linecap="round"/>
<line x1="492.03" y1="524.72" x2="515.15" y2="508.63" stroke="#D32F2F" stroke-width="7.39" stroke-linecap="round"/>
<line x1="527.69" y1="504.91" x2="515.15" y2="508.63" stroke="#D32F2F" stroke-width="8.00" stroke-linecap="round"/>
<line x1="503.63" y1="504.92" x2="525.67" y2="489.50" stroke="#D32F2F" stroke-width="8.00" stroke-linecap="round"/>
<line x1="537.24" y1="488.61" x2="525.67" y2="489.50" stroke="#D32F2F" stroke-width="8.00" stroke-linecap="round"/>
<line x1="514.33" y1="483.67" x2="535.33" y2="469.04" stroke="#D32F2F" stroke-width="8.00" stroke-linecap="round"/>
<line x1="546.19" y1="470.83" x2="535.33" y2="469.04" stroke="#D32F2F" stroke-width="8.00" stroke-linecap="round"/>
<line x1="523.95" y1="461.49" x2="544.00" y2="447.63" stroke="#D32F2F" stroke-width="8.00" stroke-linecap="round"/>
<line x1="554.43" y1="451.83" x2="544.00" y2="447.63" stroke="#D32F2F" stroke-width="8.00" stroke-linecap="round"/>
<line x1="532.34" y1="438.74" x2="551.51" y2="425.53" stroke="#D32F2F" stroke-width="8.00" stroke-linecap="round"/>
<line x1="561.82" y1="431.78" x2="551.51" y2="425.53" stroke="#D32F2F" stroke-width="8.00" stroke-linecap="round"/>
<line x1="539.37" y1="415.70" x2="557.73" y2="402.92" stroke="#D32F2F" stroke-width="8.00" stroke-linecap="round"/>
<line x1="568.22" y1="410.79" x2="557.73" y2="402.92" stroke="#D32F2F" stroke-width="8.00" stroke-linecap="round"/>
<line x1="544.92" y1="392.55" x2="562.50" y2="379.93" stroke="#D32F2F" stroke-width="8.00" stroke-linecap="round"/>
<line x1="573.46" y1="388.92" x2="562.50" y2="379.93" stroke="#D32F2F" stroke-width="8.00" stroke-linecap="round"/>
<line x1="548.87" y1="369.41" x2="565.68" y2="356.65" stroke="#D32F2F" stroke-width="8.00" stroke-linecap="round"/>
<line x1="577.33" y1="366.21" x2="565.68" y2="356.65" stroke="#D32F2F" stroke-width="8.00" stroke-linecap="round"/>
<line x1="551.11" y1="346.36" x2="567.08" y2="333.15" stroke="#D32F2F" stroke-width="8.00" stroke-linecap="round"/>
<line x1="579.61" y1="342.72" x2="567.08" y2="333.15" stroke="#D32F2F" stroke-width="8.00" stroke-linecap="round"/>
<line x1="551.51" y1="323.46" x2="566.54" y2="309.47" stroke="#D32F2F" stroke-width="8.00" stroke-linecap="round"/>
<line x1="580.03" y1="318.47" x2="566.54" y2="309.47" stroke="#D32F2F" stroke-width="8.00" stroke-linecap="round"/>
<line x1="549.93" y1="300.76" x2="563.82" y2="285.69" stroke="#D32F2F" stroke-width="8.00" stroke-linecap="round"/>
<line x1="578.28" y1="293.56" x2="563.82" y2="285.69" stroke="#D32F2F" stroke-width="8.00" stroke-linecap="round"/>
<line x1="546.18" y1="278.34" x2="558.68" y2="261.91" stroke="#D32F2F" stroke-width="8.00" stroke-linecap="round"/>
<line x1="574.02" y1="268.13" x2="558.68" y2="261.91" stroke="#D32F2F" stroke-width="8.00" stroke-linecap="round"/>
<line x1="540.07" y1="256.29" x2="550.86" y2="238.32" stroke="#D32F2F" stroke-width="8.00" stroke-linecap="round"/>
<line x1="566.88" y1="242.38" x2="550.86" y2="238.32" stroke="#D32F2F" stroke-width="8.00" stroke-linecap="round"/>
<line x1="531.38" y1="234.75" x2="540.08" y2="215.15" stroke="#D32F2F" stroke-width="8.00" stroke-linecap="round"/>
<line x1="556.50" y1="216.64" x2="540.08" y2="215.15" stroke="#D32F2F" stroke-width="8.00" stroke-linecap="round"/>
<line x1="519.88" y1="213.97" x2="526.06" y2="192.77" stroke="#D32F2F" stroke-width="8.00" stroke-linecap="round"/>
<line x1="542.51" y1="191.38" x2="526.06" y2="192.77" stroke="#D32F2F" stroke-width="8.00" stroke-linecap="round"/>
<line x1="505.33" y1="194.30" x2="508.59" y2="171.69" stroke="#D32F2F" stroke-width="8.00" stroke-linecap="round"/>
<line x1="524.64" y1="167.23" x2="508.59" y2="171.69" stroke="#D32F2F" stroke-width="8.00" stroke-linecap="round"/>
<line x1="487.57" y1="176.22" x2="487.54" y2="152.55" stroke="#D32F2F" stroke-width="8.00" stroke-linecap="round"/>
<line x1="502.74" y1="144.94" x2="487.54" y2="152.55" stroke="#D32F2F" stroke-width="8.00" stroke-linecap="round"/>
<line x1="466.58" y1="160.38" x2="462.98" y2="136.14" stroke="#D32F2F" stroke-width="8.00" stroke-linecap="round"/>
<line x1="476.88" y1="125.42" x2="462.98" y2="136.14" stroke="#D32F2F" stroke-width="8.00" stroke-linecap="round"/>
<line x1="442.57" y1="147.53" x2="435.27" y2="123.31" stroke="#D32F2F" stroke-width="8.00" stroke-linecap="round"/>
<line x1="447.38" y1="109.62" x2="435.27" y2="123.31" stroke="#D32F2F" stroke-width="8.00" stroke-linecap="round"/>
<line x1="416.05" y1="138.42" x2="405.05" y2="114.86" stroke="#D32F2F" stroke-width="8.00" stroke-linecap="round"/>
<line x1="414.93" y1="98.47" x2="405.05" y2="114.86" stroke="#D32F2F" stroke-width="8.00" stroke-linecap="round"/>
<line x1="387.85" y1="133.68" x2="373.31" y2="111.41" stroke="#D32F2F" stroke-width="8.00" stroke-linecap="round"/>
<line x1="380.52" y1="92.69" x2="373.31" y2="111.41" stroke="#D32F2F" stroke-width="8.00" stroke-linecap="round"/>
<line x1="359.05" y1="133.68" x2="341.24" y2="113.27" stroke="#D32F2F" stroke-width="8.00" stroke-linecap="round"/>
<line x1="345.41" y1="92.69" x2="341.24" y2="113.27" stroke="#D32F2F" stroke-width="8.00" stroke-linecap="round"/>
<line x1="330.81" y1="138.42" x2="310.12" y2="120.36" stroke="#D32F2F" stroke-width="8.00" stroke-linecap="round"/>
<line x1="310.97" y1="98.47" x2="310.12" y2="120.36" stroke="#D32F2F" stroke-width="8.00" stroke-linecap="round"/>
<line x1="304.24" y1="147.53" x2="281.10" y2="132.22" stroke="#D32F2F" stroke-width="8.00" stroke-linecap="round"/>
<line x1="278.45" y1="109.62" x2="281.10" y2="132.22" stroke="#D32F2F" stroke-width="8.00" stroke-linecap="round"/>
<line x1="280.19" y1="160.38" x2="255.06" y2="148.11" stroke="#D32F2F" stroke-width="8.00" stroke-linecap="round"/>
<line x1="248.90" y1="125.42" x2="255.06" y2="148.11" stroke="#D32F2F" stroke-width="8.00" stroke-linecap="round"/>
<line x1="259.17" y1="176.22" x2="232.54" y2="167.17" stroke="#D32F2F" stroke-width="8.00" stroke-linecap="round"/>
<line x1="223.00" y1="144.94" x2="232.54" y2="167.17" stroke="#D32F2F" stroke-width="8.00" stroke-linecap="round"/>
<line x1="241.42" y1="194.30" x2="213.78" y2="188.54" stroke="#D32F2F" stroke-width="8.00" stroke-linecap="round"/>
<line x1="201.11" y1="167.23" x2="213.78" y2="188.54" stroke="#D32F2F" stroke-width="8.00" stroke-linecap="round"/>
<line x1="226.90" y1="213.97" x2="198.71" y2="211.45" stroke="#D32F2F" stroke-width="8.00" stroke-linecap="round"/>
<line x1="183.28" y1="191.38" x2="198.71" y2="211.45" stroke="#D32F2F" stroke-width="8.00" stroke-linecap="round"/>
<line x1="215.41" y1="234.75" x2="187.11" y2="235.29" stroke="#D32F2F" stroke-width="8.00" stroke-linecap="round"/>
<line x1="169.31" y1="216.64" x2="187.11" y2="235.29" stroke="#D32F2F" stroke-width="8.00" stroke-linecap="round"/>
<line x1="206.68" y1="256.29" x2="178.62" y2="259.59" stroke="#D32F2F" stroke-width="8.00" stroke-linecap="round"/>
<line x1="158.87" y1="242.38" x2="178.62" y2="259.59" stroke="#D32F2F" stroke-width="8.00" stroke-linecap="round"/>
<line x1="200.40" y1="278.34" x2="172.84" y2="284.02" stroke="#D32F2F" stroke-width="8.00" stroke-linecap="round"/>
<line x1="151.53" y1="268.13" x2="172.84" y2="284.02" stroke="#D32F2F" stroke-width="8.00" stroke-linecap="round"/>
<line x1="196.26" y1="300.76" x2="169.37" y2="308.34" stroke="#D32F2F" stroke-width="8.00" stroke-linecap="round"/>
<line x1="146.83" y1="293.56" x2="169.37" y2="308.34" stroke="#D32F2F" stroke-width="8.00" stroke-linecap="round"/>
<line x1="193.97" y1="323.46" x2="167.79" y2="332.41" stroke="#D32F2F" stroke-width="8.00" stroke-linecap="round"/>
<line x1="144.31" y1="318.47" x2="167.79" y2="332.41" stroke="#D32F2F" stroke-width="8.00" stroke-linecap="round"/>
<line x1="193.23" y1="346.36" x2="167.74" y2="356.12" stroke="#D32F2F" stroke-width="8.00" stroke-linecap="round"/>
<line x1="143.53" y1="342.72" x2="167.74" y2="356.12" stroke="#D32F2F" stroke-width="8.00" stroke-linecap="round"/>
<line x1="193.77" y1="369.41" x2="168.84" y2="379.41" stroke="#D32F2F" stroke-width="8.00" stroke-linecap="round"/>
<line x1="144.07" y1="366.21" x2="168.84" y2="379.41" stroke="#D32F2F" stroke-width="8.00" stroke-linecap="round"/>
<line x1="195.30" y1="392.55" x2="170.76" y2="402.22" stroke="#D32F2F" stroke-width="8.00" stroke-linecap="round"/>
<line x1="145.57" y1="388.92" x2="170.76" y2="402.22" stroke="#D32F2F" stroke-width="8.00" stroke-linecap="round"/>
<line x1="197.53" y1="415.70" x2="173.18" y2="424.49" stroke="#D32F2F" stroke-width="8.00" stroke-linecap="round"/>
<line x1="147.68" y1="410.79" x2="173.18" y2="424.49" stroke="#D32F2F" stroke-width="8.00" stroke-linecap="round"/>
<line x1="200.18" y1="438.74" x2="175.79" y2="446.14" stroke="#D32F2F" stroke-width="8.00" stroke-linecap="round"/>
<line x1="150.09" y1="431.78" x2="175.79" y2="446.14" stroke="#D32F2F" stroke-width="7.91" stroke-linecap="round"/>
<line x1="202.93" y1="461.49" x2="178.31" y2="467.04" stroke="#D32F2F" stroke-width="8.00" stroke-linecap="round"/>
<line x1="152.51" y1="451.83" x2="178.31" y2="467.04" stroke="#D32F2F" stroke-width="7.31" stroke-linecap="round"/>
<line x1="205.46" y1="483.67" x2="180.46" y2="487.00" stroke="#D32F2F" stroke-width="8.00" stroke-linecap="round"/>
<line x1="154.68" y1="470.83" x2="180.46" y2="487.00" stroke="#D32F2F" stroke-width="6.60" stroke-linecap="round"/>
<line x1="207.44" y1="504.92" x2="181.96" y2="505.73" stroke="#D32F2F" stroke-width="8.00" stroke-linecap="round"/>
<line x1="156.33" y1="488.61" x2="181.96" y2="505.73" stroke="#D32F2F" stroke-width="5.79" stroke-linecap="round"/>
<line x1="208.54" y1="524.72" x2="182.54" y2="522.84" stroke="#D32F2F" stroke-width="8.00" stroke-linecap="round"/>
<line x1="157.24" y1="504.91" x2="182.54" y2="522.84" stroke="#D32F2F" stroke-width="5.53" stroke-linecap="round"/>
<line x1="208.45" y1="542.46" x2="181.98" y2="537.82" stroke="#D32F2F" stroke-width="8.00" stroke-linecap="round"/>
<line x1="157.17" y1="519.36" x2="181.98" y2="537.82" stroke="#D32F2F" stroke-width="5.87" stroke-linecap="round"/>
<line x1="206.93" y1="557.39" x2="180.07" y2="550.03" stroke="#D32F2F" stroke-width="8.00" stroke-linecap="round"/>
<line x1="155.94" y1="531.46" x2="180.07" y2="550.03" stroke="#D32F2F" stroke-width="6.34" stroke-linecap="round"/>
<line x1="203.80" y1="568.68" x2="176.68" y2="558.78" stroke="#D32F2F" stroke-width="7.37" stroke-linecap="round"/>
<line x1="153.40" y1="540.63" x2="176.68" y2="558.78" stroke="#D32F2F" stroke-width="6.92" stroke-linecap="round"/>
<line x1="198.98" y1="575.53" x2="171.77" y2="563.35" stroke="#D32F2F" stroke-width="6.47" stroke-linecap="round"/>
<line x1="149.47" y1="546.20" x2="171.77" y2="563.35" stroke="#D32F2F" stroke-width="7.60" stroke-linecap="round"/>
<line x1="192.52" y1="577.27" x2="165.41" y2="563.15" stroke="#D32F2F" stroke-width="5.54" stroke-linecap="round"/>
<line x1="144.19" y1="547.62" x2="165.41" y2="563.15" stroke="#D32F2F" stroke-width="8.00" stroke-linecap="round"/>
</svg>