<svg width="630.0" height="630.0" viewBox="0 0 630.0 630.0" xmlns="http://www.w3.org/2000/svg">
<circle cx="315.0" cy="315.0" r="290.0" fill="#FDFDF5" stroke="#ccc" stroke-width="0.5"/>
<line x1="579.21" y1="434.50" x2="565.19" y2="461.19" stroke="#D32F2F" stroke-width="5.98" stroke-linecap="round"/>
<line x1="548.23" y1="486.20" x2="562.07" y2="462.78" stroke="#D32F2F" stroke-width="7.85" stroke-linecap="round"/>
<line x1="576.89" y1="436.61" x2="562.07" y2="462.78" stroke="#D32F2F" stroke-width="6.04" stroke-linecap="round"/>
<line x1="544.29" y1="487.06" x2="557.55" y2="462.90" stroke="#D32F2F" stroke-width="7.65" stroke-linecap="round"/>
<line x1="573.17" y1="437.43" x2="557.55" y2="462.90" stroke="#D32F2F" stroke-width="6.21" stroke-linecap="round"/>
<line x1="538.88" y1="486.22" x2="551.80" y2="461.23" stroke="#D32F2F" stroke-width="7.35" stroke-linecap="round"/>
<line x1="568.25" y1="436.67" x2="551.80" y2="461.23" stroke="#D32F2F" stroke-width="6.47" stroke-linecap="round"/>
<line x1="532.11" y1="483.23" x2="544.95" y2="457.41" stroke="#D32F2F" stroke-width="6.96" stroke-linecap="round"/>
<line x1="562.28" y1="434.04" x2="544.95" y2="457.41" stroke="#D32F2F" stroke-width="6.81" stroke-linecap="round"/>
<line x1="524.10" y1="477.63" x2="537.13" y2="451.07" stroke="#D32F2F" stroke-width="6.55" stroke-linecap="round"/>
<line x1="555.42" y1="429.24" x2="537.13" y2="451.07" stroke="#D32F2F" stroke-width="7.22" stroke-linecap="round"/>
<line x1="514.97" y1="468.91" x2="528.46" y2="441.84" stroke="#D32F2F" stroke-width="6.16" stroke-linecap="round"/>
<line x1="547.79" y1="421.96" x2="528.46" y2="441.84" stroke="#D32F2F" stroke-width="7.68" stroke-linecap="round"/>
<line x1="504.87" y1="456.63" x2="519.05" y2="429.35" stroke="#D32F2F" stroke-width="5.85" stroke-linecap="round"/>
<line x1="539.48" y1="411.86" x2="519.05" y2="429.35" stroke="#D32F2F" stroke-width="8.00" stroke-linecap="round"/>
<line x1="493.99" y1="440.42" x2="509.05" y2="413.32" stroke="#D32F2F" stroke-width="6.28" stroke-linecap="round"/>
<line x1="530.62" y1="398.65" x2="509.05" y2="413.32" stroke="#D32F2F" stroke-width="8.00" stroke-linecap="round"/>
<line x1="482.53" y1="420.02" x2="498.63" y2="393.54" stroke="#D32F2F" stroke-width="7.34" stroke-linecap="round"/>
<line x1="521.33" y1="382.11" x2="498.63" y2="393.54" stroke="#D32F2F" stroke-width="8.00" stroke-linecap="round"/>
<line x1="470.77" y1="395.43" x2="488.02" y2="370.05" stroke="#D32F2F" stroke-width="8.00" stroke-linecap="round"/>
<line x1="511.78" y1="362.16" x2="488.02" y2="370.05" stroke="#D32F2F" stroke-width="8.00" stroke-linecap="round"/>
<line x1="459.02" y1="366.94" x2="477.48" y2="343.14" stroke="#D32F2F" stroke-width="8.00" stroke-linecap="round"/>
<line x1="502.22" y1="338.96" x2="477.48" y2="343.14" stroke="#D32F2F" stroke-width="8.00" stroke-linecap="round"/>
<line x1="447.64" y1="335.17" x2="467.36" y2="313.44" stroke="#D32F2F" stroke-width="8.00" stroke-linecap="round"/>
<line x1="492.92" y1="313.01" x2="467.36" y2="313.44" stroke="#D32F2F" stroke-width="8.00" stroke-linecap="round"/>
<line x1="437.05" y1="301.11" x2="458.04" y2="281.90" stroke="#D32F2F" stroke-width="8.00" stroke-linecap="round"/>
<line x1="484.23" y1="285.09" x2="458.04" y2="281.90" stroke="#D32F2F" stroke-width="8.00" stroke-linecap="round"/>
<line x1="427.64" y1="266.00" x2="449.89" y2="249.72" stroke="#D32F2F" stroke-width="8.00" stroke-linecap="round"/>
<line x1="476.52" y1="256.29" x2="449.89" y2="249.72" stroke="#D32F2F" stroke-width="8.00" stroke-linecap="round"/>
<line x1="419.79" y1="231.21" x2="443.24" y2="218.17" stroke="#D32F2F" stroke-width="8.00" stroke-linecap="round"/>
<line x1="470.08" y1="227.77" x2="443.24" y2="218.17" stroke="#D32F2F" stroke-width="8.00" stroke-linecap="round"/>
<line x1="413.76" y1="198.01" x2="438.33" y2="188.41" stroke="#D32F2F" stroke-width="8.00" stroke-linecap="round"/>
<line x1="465.15" y1="200.64" x2="438.33" y2="188.41" stroke="#D32F2F" stroke-width="8.00" stroke-linecap="round"/>
<line x1="409.69" y1="167.46" x2="435.25" y2="161.35" stroke="#D32F2F" stroke-width="8.00" stroke-linecap="round"/>
<line x1="461.84" y1="175.77" x2="435.25" y2="161.35" stroke="#D32F2F" stroke-width="7.85" stroke-linecap="round"/>
<line x1="407.58" y1="140.28" x2="433.96" y2="137.58" stroke="#D32F2F" stroke-width="8.00" stroke-linecap="round"/>
<line x1="460.13" y1="153.72" x2="433.96" y2="137.58" stroke="#D32F2F" stroke-width="6.95" stroke-linecap="round"/>
<line x1="407.30" y1="116.89" x2="434.31" y2="117.36" stroke="#D32F2F" stroke-width="8.00" stroke-linecap="round"/>
<line x1="459.90" y1="134.75" x2="434.31" y2="117.36" stroke="#D32F2F" stroke-width="5.94" stroke-linecap="round"/>
<line x1="408.62" y1="97.40" x2="436.06" y2="100.72" stroke="#D32F2F" stroke-width="8.00" stroke-linecap="round"/>
<line x1="460.98" y1="118.88" x2="436.06" y2="100.72" stroke="#D32F2F" stroke-width="5.59" stroke-linecap="round"/>
<line x1="411.22" y1="81.72" x2="438.91" y2="87.52" stroke="#D32F2F" stroke-width="7.62" stroke-linecap="round"/>
<line x1="463.12" y1="105.98" x2="438.91" y2="87.52" stroke="#D32F2F" stroke-width="5.99" stroke-linecap="round"/>
<line x1="414.77" y1="69.61" x2="442.56" y2="77.49" stroke="#D32F2F" stroke-width="7.15" stroke-linecap="round"/>
<line x1="466.09" y1="95.85" x2="442.56" y2="77.49" stroke="#D32F2F" stroke-width="6.44" stroke-linecap="round"/>
<line x1="418.91" y1="60.75" x2="446.66" y2="70.34" stroke="#D32F2F" stroke-width="6.74" stroke-linecap="round"/>
<line x1="469.63" y1="88.27" x2="446.66" y2="70.34" stroke="#D32F2F" stroke-width="6.90" stroke-linecap="round"/>
<line x1="423.28" y1="54.78" x2="450.90" y2="65.78" stroke="#D32F2F" stroke-width="6.40" stroke-linecap="round"/>
<line x1="473.48" y1="83.01" x2="450.90" y2="65.78" stroke="#D32F2F" stroke-width="7.31" stroke-linecap="round"/>
<line x1="427.54" y1="51.34" x2="454.94" y2="63.51" stroke="#D32F2F" stroke-width="6.16" stroke-linecap="round"/>
<line x1="477.37" y1="79.89" x2="454.94" y2="63.51" stroke="#D32F2F" stroke-width="7.63" stroke-linecap="round"/>
<line x1="431.38" y1="50.12" x2="458.48" y2="63.27" stroke="#D32F2F" stroke-width="6.02" stroke-linecap="round"/>
<line x1="481.00" y1="78.73" x2="458.48" y2="63.27" stroke="#D32F2F" stroke-width="7.84" stroke-linecap="round"/>
<line x1="50.79" y1="195.50" x2="64.81" y2="168.81" stroke="#D32F2F" stroke-width="5.98" stroke-linecap="round"/>
<line x1="81.77" y1="143.80" x2="67.93" y2="167.22" stroke="#D32F2F" stroke-width="7.85" stroke-linecap="round"/>
<line x1="53.11" y1="193.39" x2="67.93" y2="167.22" stroke="#D32F2F" stroke-width="6.04" stroke-linecap="round"/>
<line x1="85.71" y1="142.94" x2="72.45" y2="167.10" stroke="#D32F2F" stroke-width="7.65" stroke-linecap="round"/>
<line x1="56.83" y1="192.57" x2="72.45" y2="167.10" stroke="#D32F2F" stroke-width="6.21" stroke-linecap="round"/>
<line x1="91.12" y1="143.78" x2="78.20" y2="168.77" stroke="#D32F2F" stroke-width="7.35" stroke-linecap="round"/>
<line x1="61.75" y1="193.33" x2="78.20" y2="168.77" stroke="#D32F2F" stroke-width="6.47" stroke-linecap="round"/>
<line x1="97.89" y1="146.77" x2="85.05" y2="172.59" stroke="#D32F2F" stroke-width="6.96" stroke-linecap="round"/>
<line x1="67.72" y1="195.96" x2="85.05" y2="172.59" stroke="#D32F2F" stroke-width="6.81" stroke-linecap="round"/>
<line x1="105.90" y1="152.37" x2="92.87" y2="178.93" stroke="#D32F2F" stroke-width="6.55" stroke-linecap="round"/>
<line x1="74.58" y1="200.76" x2="92.87" y2="178.93" stroke="#D32F2F" stroke-width="7.22" stroke-linecap="round"/>
<line x1="115.03" y1="161.09" x2="101.54" y2="188.16" stroke="#D32F2F" stroke-width="6.16" stroke-linecap="round"/>
<line x1="82.21" y1="208.04" x2="101.54" y2="188.16" stroke="#D32F2F" stroke-width="7.68" stroke-linecap="round"/>
<line x1="125.13" y1="173.37" x2="110.95" y2="200.65" stroke="#D32F2F" stroke-width="5.85" stroke-linecap="round"/>
<line x1="90.52" y1="218.14" x2="110.95" y2="200.65" stroke="#D32F2F" stroke-width="8.00" stroke-linecap="round"/>
<line x1="136.01" y1="189.58" x2="120.95" y2="216.68" stroke="#D32F2F" stroke-width="6.28" stroke-linecap="round"/>
<line x1="99.38" y1="231.35" x2="120.95" y2="216.68" stroke="#D32F2F" stroke-width="8.00" stroke-linecap="round"/>
<line x1="147.47" y1="209.98" x2="131.37" y2="236.46" stroke="#D32F2F" stroke-width="7.34" stroke-linecap="round"/>
<line x1="108.67" y1="247.89" x2="131.37" y2="236.46" stroke="#D32F2F" stroke-width="8.00" stroke-linecap="round"/>
<line x1="159.23" y1="234.57" x2="141.98" y2="259.95" stroke="#D32F2F" stroke-width="8.00" stroke-linecap="round"/>
<line x1="118.22" y1="267.84" x2="141.98" y2="259.95" stroke="#D32F2F" stroke-width="8.00" stroke-linecap="round"/>
<line x1="170.98" y1="263.06" x2="152.52" y2="286.86" stroke="#D32F2F" stroke-width="8.00" stroke-linecap="round"/>
<line x1="127.78" y1="291.04" x2="152.52" y2="286.86" stroke="#D32F2F" stroke-width="8.00" stroke-linecap="round"/>
<line x1="182.36" y1="294.83" x2="162.64" y2="316.56" stroke="#D32F2F" stroke-width="8.00" stroke-linecap="round"/>
<line x1="137.08" y1="316.99" x2="162.64" y2="316.56" stroke="#D32F2F" stroke-width="8.00" stroke-linecap="round"/>
<line x1="192.95" y1="328.89" x2="171.96" y2="348.10" stroke="#D32F2F" stroke-width="8.00" stroke-linecap="round"/>
<line x1="145.77" y1="344.91" x2="171.96" y2="348.10" stroke="#D32F2F" stroke-width="8.00" stroke-linecap="round"/>
<line x1="202.36" y1="364.00" x2="180.11" y2="380.28" stroke="#D32F2F" stroke-width="8.00" stroke-linecap="round"/>
<line x1="153.48" y1="373.71" x2="180.11" y2="380.28" stroke="#D32F2F" stroke-width="8.00" stroke-linecap="round"/>
<line x1="210.21" y1="398.79" x2="186.76" y2="411.83" stroke="#D32F2F" stroke-width="8.00" stroke-linecap="round"/>
<line x1="159.92" y1="402.23" x2="186.76" y2="411.83" stroke="#D32F2F" stroke-width="8.00" stroke-linecap="round"/>
<line x1="216.24" y1="431.99" x2="191.67" y2="441.59" stroke="#D32F2F" stroke-width="8.00" stroke-linecap="round"/>
<line x1="164.85" y1="429.36" x2="191.67" y2="441.59" stroke="#D32F2F" stroke-width="8.00" stroke-linecap="round"/>
<line x1="220.31" y1="462.54" x2="194.75" y2="468.65" stroke="#D32F2F" stroke-width="8.00" stroke-linecap="round"/>
<line x1="168.16" y1="454.23" x2="194.75" y2="468.65" stroke="#D32F2F" stroke-width="7.85" stroke-linecap="round"/>
<line x1="222.42" y1="489.72" x2="196.04" y2="492.42" stroke="#D32F2F" stroke-width="8.00" stroke-linecap="round"/>
<line x1="169.87" y1="476.28" x2="196.04" y2="492.42" stroke="#D32F2F" stroke-width="6.95" stroke-linecap="round"/>
<line x1="222.70" y1="513.11" x2="195.69" y2="512.64" stroke="#D32F2F" stroke-width="8.00" stroke-linecap="round"/>
<line x1="170.10" y1="495.25" x2="195.69" y2="512.64" stroke="#D32F2F" stroke-width="5.94" stroke-linecap="round"/>
<line x1="221.38" y1="532.60" x2="193.94" y2="529.28" stroke="#D32F2F" stroke-width="8.00" stroke-linecap="round"/>
<line x1="169.02" y1="511.12" x2="193.94" y2="529.28" stroke="#D32F2F" stroke-width="5.59" stroke-linecap="round"/>
<line x1="218.78" y1="548.28" x2="191.09" y2="542.48" stroke="#D32F2F" stroke-width="7.62" stroke-linecap="round"/>
<line x1="166.88" y1="524.02" x2="191.09" y2="542.48" stroke="#D32F2F" stroke-width="5.99" stroke-linecap="round"/>
<line x1="215.23" y1="560.39" x2="187.44" y2="552.51" stroke="#D32F2F" stroke-width="7.15" stroke-linecap="round"/>
<line x1="163.91" y1="534.15" x2="187.44" y2="552.51" stroke="#D32F2F" stroke-width="6.44" stroke-linecap="round"/>
<line x1="211.09" y1="569.25" x2="183.34" y2="559.66" stroke="#D32F2F" stroke-width="6.74" stroke-linecap="round"/>
<line x1="160.37" y1="541.73" x2="183.34" y2="559.66" stroke="#D32F2F" stroke-width="6.90" stroke-linecap="round"/>
<line x1="206.72" y1="575.22" x2="179.10" y2="564.22" stroke="#D32F2F" stroke-width="6.40" stroke-linecap="round"/>
<line x1="156.52" y1="546.99" x2="179.10" y2="564.22" stroke="#D32F2F" stroke-width="7.31" stroke-linecap="round"/>
<line x1="202.46" y1="578.66" x2="175.06" y2="566.49" stroke="#D32F2F" stroke-width="6.16" stroke-linecap="round"/>
<line x1="152.63" y1="550.11" x2="175.06" y2="566.49" stroke="#D32F2F" stroke-width="7.63" stroke-linecap="round"/>
<line x1="198.62" y1="579.88" x2="171.52" y2="566.73" stroke="#D32F2F" stroke-width="6.02" stroke-linecap="round"/>
<line x1="149.00" y1="551.27" x2="171.52" y2="566.73" stroke="#D32F2F" stroke-width="7.84" stroke-linecap="round"/>
<line x1="579.21" y1="434.50" x2="565.19" y2="461.19" stroke="#D32F2F" stroke-width="5.98" stroke-linecap="round"/>
<line x1="548.23" y1="486.20" x2="562.07" y2="462.78" stroke="#D32F2F" stroke-width="7.85" stroke-linecap="round"/>
<line x1="576.89" y1="436.61" x2="562.07" y2="462.78" stroke="#D32F2F" stroke-width="6.04" stroke-linecap="round"/>
<line x1="544.29" y1="487.06" x2="557.55" y2="462.90" stroke="#D32F2F" stroke-width="7.65" stroke-linecap="round"/>
<line x1="573.17" y1="437.43" x2="557.55" y2="462.90" stroke="#D32F2F" stroke-width="6.21" stroke-linecap="round"/>
<line x1="538.88" y1="486.22" x2="551.80" y2="461.23" stroke="#D32F2F" stroke-width="7.35" stroke-linecap="round"/>
<line x1="568.25" y1="436.67" x2="551.80" y2="461.23" stroke="#D32F2F" stroke-width="6.47" stroke-linecap="round"/>
<line x1="532.11" y1="483.23" x2="544.95" y2="457.41" stroke="#D32F2F" stroke-width="6.96" stroke-linecap="round"/>
<line x1="562.28" y1="434.04" x2="544.95" y2="457.41" stroke="#D32F2F" stroke-width="6.81" stroke-linecap="round"/>
<line x1="524.10" y1="477.63" x2="537.13" y2="451.07" stroke="#D32F2F" stroke-width="6.55" stroke-linecap="round"/>
<line x1="555.42" y1="429.24" x2="537.13" y2="451.07" stroke="#D32F2F" stroke-width="7.22" stroke-linecap="round"/>
<line x1="514.97" y1="468.91" x2="528.46" y2="441.84" stroke="#D32F2F" stroke-width="6.16" stroke-linecap="round"/>
<line x1="547.79" y1="421.96" x2="528.46" y2="441.84" stroke="#D32F2F" stroke-width="7.68" stroke-linecap="round"/>
<line x1="504.87" y1="456.63" x2="519.05" y2="429.35" stroke="#D32F2F" stroke-width="5.85" stroke-linecap="round"/>
<line x1="539.48" y1="411.86" x2="519.05" y2="429.35" stroke="#D32F2F" stroke-width="8.00" stroke-linecap="round"/>
<line x1="493.99" y1="440.42" x2="509.05" y2="413.32" stroke="#D32F2F" stroke-width="6.28" stroke-linecap="round"/>
<line x1="530.62" y1="398.65" x2="509.05" y2="413.32" stroke="#D32F2F" stroke-width="8.00" stroke-linecap="round"/>
<line x1="482.53" y1="420.02" x2="498.63" y2="393.54" stroke="#D32F2F" stroke-width="7.34" stroke-linecap="round"/>
<line x1="521.33" y1="382.11" x2="498.63" y2="393.54" stroke="#D32F2F" stroke-width="8.00" stroke-linecap="round"/>
<line x1="470.77" y1="395.43" x2="488.02" y2="370.05" stroke="#D32F2F" stroke-width="8.00" stroke-linecap="round"/>
<line x1="511.78" y1="362.16" x2="488.02" y2="370.05" stroke="#D32F2F" stroke-width="8.00" stroke-linecap="round"/>
<line x1="459.02" y1="366.94" x2="477.48" y2="343.14" stroke="#D32F2F" stroke-width="8.00" stroke-linecap="round"/>
<line x1="502.22" y1="338.96" x2="477.48" y2="343.14" stroke="#D32F2F" stroke-width="8.00" stroke-linecap="round"/>
<line x1="447.64" y1="335.17" x2="467.36" y2="313.44" stroke="#D32F2F" stroke-width="8.00" stroke-linecap="round"/>
<line x1="492.92" y1="313.01" x2="467.36" y2="313.44" stroke="#D32F2F" stroke-width="8.00" stroke-linecap="round"/>
<line x1="437.05" y1="301.11" x2="458.04" y2="281.90" stroke="#D32F2F" stroke-width="8.00" stroke-linecap="round"/>
<line x1="484.23" y1="285.09" x2="458.04" y2="281.90" stroke="#D32F2F" stroke-width="8.00" stroke-linecap="round"/>
<line x1="427.64" y1="266.00" x2="449.89" y2="249.72" stroke="#D32F2F" stroke-width="8.00" stroke-linecap="round"/>
<line x1="476.52" y1="256.29" x2="449.89" y2="249.72" stroke="#D32F2F" stroke-width="8.00" stroke-linecap="round"/>
<line x1="419.79" y1="231.21" x2="443.24" y2="218.17" stroke="#D32F2F" stroke-width="8.00" stroke-linecap="round"/>
<line x1="470.08" y1="227.77" x2="443.24" y2="218.17" stroke="#D32F2F" stroke-width="8.00" stroke-linecap="round"/>
<line x1="413.76" y1="198.01" x2="438.33" y2="188.41" stroke="#D32F2F" stroke-width="8.00" stroke-linecap="round"/>
<line x1="465.15" y1="200.64" x2="438.33" y2="188.41" stroke="#D32F2F" stroke-width="8.00" stroke-linecap="round"/>
<line x1="409.69" y1="167.46" x2="435.25" y2="161.35" stroke="#D32F2F" stroke-width="8.00" stroke-linecap="round"/>
<line x1="461.84" y1="175.77" x2="435.25" y2="161.35" stroke="#D32F2F" stroke-width="7.85" stroke-linecap="round"/>
<line x1="407.58" y1="140.28" x2="433.96" y2="137.58" stroke="#D32F2F" stroke-width="8.00" stroke-linecap="round"/>
<line x1="460.13" y1="153.72" x2="433.96" y2="137.58" stroke="#D32F2F" stroke-width="6.95" stroke-linecap="round"/>
<line x1="407.30" y1="116.89" x2="434.31" y2="117.36" stroke="#D32F2F" stroke-width="8.00" stroke-linecap="round"/>
<line x1="459.90" y1="134.75" x2="434.31" y2="117.36" stroke="#D32F2F" stroke-width="5.94" stroke-linecap="round"/>
<line x1="408.62" y1="97.40" x2="436.06" y2="100.72" stroke="#D32F2F" stroke-width="8.00" stroke-linecap="round"/>
<line x1="460.98" y1="118.88" x2="436.06" y2="100.72" stroke="#D32F2F" stroke-width="5.59" stroke-linecap="round"/>
<line x1="411.22" y1="81.72" x2="438.91" y2="87.52" stroke="#D32F2F" stroke-width="7.62" stroke-linecap="round"/>
<line x1="463.12" y1="105.98" x2="438.91" y2="87.52" stroke="#D32F2F" stroke-width="5.99" stroke-linecap="round"/>
<line x1="414.77" y1="69.61" x2="442.56" y2="77.49" stroke="#D32F2F" stroke-width="7.15" stroke-linecap="round"/>
<line x1="466.09" y1="95.85" x2="442.56" y2="77.49" stroke="#D32F2F" stroke-width="6.44" stroke-linecap="round"/>
<line x1="418.91" y1="60.75" x2="446.66" y2="70.34" stroke="#D32F2F" stroke-width="6.74" stroke-linecap="round"/>
<line x1="469.63" y1="88.27" x2="446.66" y2="70.34" stroke="#D32F2F" stroke-width="6.90" stroke-linecap="round"/>
<line x1="423.28" y1="54.78" x2="450.90" y2="65.78" stroke="#D32F2F" stroke-width="6.40" stroke-linecap="round"/>
<line x1="473.48" y1="83.01" x2="450.90" y2="65.78" stroke="#D32F2F" stroke-width="7.31" stroke-linecap="round"/>
<line x1="427.54" y1="51.34" x2="454.94" y2="63.51" stroke="#D32F2F" stroke-width="6.16" stroke-linecap="round"/>
<line x1="477.37" y1="79.89" x2="454.94" y2="63.51" stroke="#D32F2F" stroke-width="7.63" stroke-linecap="round"/>
<line x1="431.38" y1="50.12" x2="458.48" y2="63.27" stroke="#D32F2F" stroke-width="6.02" stroke-linecap="round"/>
<line x1="481.00" y1="78.73" x2="458.48" y2="63.27" stroke="#D32F2F" stroke-width="7.84" stroke-linecap="round"/>
<line x1="50.79" y1="195.50" x2="64.81" y2="168.81" stroke="#D32F2F" stroke-width="5.98" stroke-linecap="round"/>
<line x1="81.77" y1="143.80" x2="67.93" y2="167.22" stroke="#D32F2F" stroke-width="7.85" stroke-linecap="round"/>
<line x1="53.11" y1="193.39" x2="67.93" y2="167.22" stroke="#D32F2F" stroke-width="6.04" stroke-linecap="round"/>
<line x1="85.71" y1="142.94" x2="72.45" y2="167.10" stroke="#D32F2F" stroke-width="7.65" stroke-linecap="round"/>
<line x1="56.83" y1="192.57" x2="72.45" y2="167.10" stroke="#D32F2F" stroke-width="6.21" stroke-linecap="round"/>
<line x1="91.12" y1="143.78" x2="78.20" y2="168.77" stroke="#D32F2F" stroke-width="7.35" stroke-linecap="round"/>
<line x1="61.75" y1="193.33" x2="78.20" y2="168.77" stroke="#D32F2F" stroke-width="6.47" stroke-linecap="round"/>
<line x1="97.89" y1="146.77" x2="85.05" y2="172.59" stroke="#D32F2F" stroke-width="6.96" stroke-linecap="round"/>
<line x1="67.72" y1="195.96" x2="85.05" y2="172.59" stroke="#D32F2F" stroke-width="6.81" stroke-linecap="round"/>
<line x1="105.90" y1="152.37" x2="92.87" y2="178.93" stroke="#D32F2F" stroke-width="6.55" stroke-linecap="round"/>
<line x1="74.58" y1="200.76" x2="92.87" y2="178.93" stroke="#D32F2F" stroke-width="7.22" stroke-linecap="round"/>
<line x1="115.03" y1="161.09" x2="101.54" y2="188.16" stroke="#D32F2F" stroke-width="6.16" stroke-linecap="round"/>
<line x1="82.21" y1="208.04" x2="101.54" y2="188.16" stroke="#D32F2F" stroke-width="7.68" stroke-linecap="round"/>
<line x1="125.13" y1="173.37" x2="110.95" y2="200.65" stroke="#D32F2F" stroke-width="5.85" stroke-linecap="round"/>
<line x1="90.52" y1="218.14" x2="110.95" y2="200.65" stroke="#D32F2F" stroke-width="8.00" stroke-linecap="round"/>
<line x1="136.01" y1="189.58" x2="120.95" y2="216.68" stroke="#D32F2F" stroke-width="6.28" stroke-linecap="round"/>
<line x1="99.38" y1="231.35" x2="120.95" y2="216.68" stroke="#D32F2F" stroke-width="8.00" stroke-linecap="round"/>
<line x1="147.47" y1="209.98" x2="131.37" y2="236.46" stroke="#D32F2F" stroke-width="7.34" stroke-linecap="round"/>
<line x1="108.67" y1="247.89" x2="131.37" y2="236.46" stroke="#D32F2F" stroke-width="8.00" stroke-linecap="round"/>
<line x1="159.23" y1="234.57" x2="141.98" y2="259.95" stroke="#D32F2F" stroke-width="8.00" stroke-linecap="round"/>
<line x1="118.22" y1="267.84" x2="141.98" y2="259.95" stroke="#D32F2F" stroke-width="8.00" stroke-linecap="round"/>
<line x1="170.98" y1="263.06" x2="152.52" y2="286.86" stroke="#D32F2F" stroke-width="8.00" stroke-linecap="round"/>
<line x1="127.78" y1="291.04" x2="152.52" y2="286.86" stroke="#D32F2F" stroke-width="8.00" stroke-linecap="round"/>
<line x1="182.36" y1="294.83" x2="162.64" y2="316.56" stroke="#D32F2F" stroke-width="8.00" stroke-linecap="round"/>
<line x1="137.08" y1="316.99" x2="162.64" y2="316.56" stroke="#D32F2F" stroke-width="8.00" stroke-linecap="round"/>
<line x1="192.95" y1="328.89" x2="171.96" y2="348.10" stroke="#D32F2F" stroke-width="8.00" stroke-linecap="round"/>
<line x1="145.77" y1="344.91" x2="171.96" y2="348.10" stroke="#D32F2F" stroke-width="8.00" stroke-linecap="round"/>
<line x1="202.36" y1="364.00" x2="180.11" y2="380.28" stroke="#D32F2F" stroke-width="8.00" stroke-linecap="round"/>
<line x1="153.48" y1="373.71" x2="180.11" y2="380.28" stroke="#D32F2F" stroke-width="8.00" stroke-linecap="round"/>
<line x1="210.21" y1="398.79" x2="186.76" y2="411.83" stroke="#D32F2F" stroke-width="8.00" stroke-linecap="round"/>
<line x1="159.92" y1="402.23" x2="186.76" y2="411.83" stroke="#D32F2F" stroke-width="8.00" stroke-linecap="round"/>
<line x1="216.24" y1="431.99" x2="191.67" y2="441.59" stroke="#D32F2F" stroke-width="8.00" stroke-linecap="round"/>
<line x1="164.85" y1="429.36" x2="191.67" y2="441.59" stroke="#D32F2F" stroke-width="8.00" stroke-linecap="round"/>
<line x1="220.31" y1="462.54" x2="194.75" y2="468.65" stroke="#D32F2F" stroke-width="8.00" stroke-linecap="round"/>
<line x1="168.16" y1="454.23" x2="194.75" y2="468.65" stroke="#D32F2F" stroke-width="7.85" stroke-linecap="round"/>
<line x1="222.42" y1="489.72" x2="196.04" y2="492.42" stroke="#D32F2F" stroke-width="8.00" stroke-linecap="round"/>
<line x1="169.87" y1="476.28" x2="196.04" y2="492.42" stroke="#D32F2F" stroke-width="6.95" stroke-linecap="round"/>
<line x1="222.70" y1="513.11" x2="195.69" y2="512.64" stroke="#D32F2F" stroke-width="8.00" stroke-linecap="round"/>
<line x1="170.10" y1="495.25" x2="195.69" y2="512.64" stroke="#D32F2F" stroke-width="5.94" stroke-linecap="round"/>
<line x1="221.38" y1="532.60" x2="193.94" y2="529.28" stroke="#D32F2F" stroke-width="8.00" stroke-linecap="round"/>
<line x1="169.02" y1="511.12" x2="193.94" y2="529.28" stroke="#D32F2F" stroke-width="5.59" stroke-linecap="round"/>
<line x1="218.78" y1="548.28" x2="191.09" y2="542.48" stroke="#D32F2F" stroke-width="7.62" stroke-linecap="round"/>
<line x1="166.88" y1="524.02" x2="191.09" y2="542.48" stroke="#D32F2F" stroke-width="5.99" stroke-linecap="round"/>
<line x1="215.23" y1="560.39" x2="187.44" y2="552.51" stroke="#D32F2F" stroke-width="7.15" stroke-linecap="round"/>
<line x1="163.91" y1="534.15" x2="187.44" y2="552.51" stroke="#D32F2F" stroke-width="6.44" stroke-linecap="round"/>
<line x1="211.09" y1="569.25" x2="183.34" y2="559.66" stroke="#D32F2F" stroke-width="6.74" stroke-linecap="round"/>
<line x1="160.37" y1="541.73" x2="183.34" y2="559.66" stroke="#D32F2F" stroke-width="6.90" stroke-linecap="round"/>
<line x1="206.72" y1="575.22" x2="179.10" y2="564.22" stroke="#D32F2F" stroke-width="6.40" stroke-linecap="round"/>
<line x1="156.52" y1="546.99" x2="179.10" y2="564.22" stroke="#D32F2F" stroke-width="7.31" stroke-linecap="round"/>
<line x1="202.46" y1="578.66" x2="175.06" y2="566.49" stroke="#D32F2F" stroke-width="6.16" stroke-linecap="round"/>
<line x1="152.63" y1="550.11" x2="175.06" y2="566.49" stroke="#D32F2F" stroke-width="7.63" stroke-linecap="round"/>
<line x1="198.62" y1="579.88" x2="171.52" y2="566.73" stroke="#D32F2F" stroke-width="6.02" stroke-linecap="round"/>
<line x1="149.00" y1="551.27" x2="171.52" y2="566.73" stroke="#D32F2F" stroke-width="7.84" stroke-linecap="round"/>
</svg>