<svg width="630.0" height="630.0" viewBox="0 0 630.0 630.0" xmlns="http://www.w3.org/2000/svg">
<circle cx="315.0" cy="315.0" r="290.0" fill="#FDFDF5" stroke="#ccc" stroke-width="0.5"/>
<line x1="484.06" y1="550.60" x2="458.57" y2="566.70" stroke="#D32F2F" stroke-width="5.98" stroke-linecap="round"/>
<line x1="431.38" y1="579.88" x2="455.08" y2="566.51" stroke="#D32F2F" stroke-width="7.85" stroke-linecap="round"/>
<line x1="481.00" y1="551.27" x2="455.08" y2="566.51" stroke="#D32F2F" stroke-width="6.04" stroke-linecap="round"/>
<line x1="427.54" y1="578.66" x2="451.11" y2="564.36" stroke="#D32F2F" stroke-width="7.65" stroke-linecap="round"/>
<line x1="477.37" y1="550.11" x2="451.11" y2="564.36" stroke="#D32F2F" stroke-width="6.21" stroke-linecap="round"/>
<line x1="423.28" y1="575.22" x2="446.96" y2="560.04" stroke="#D32F2F" stroke-width="7.35" stroke-linecap="round"/>
<line x1="473.48" y1="546.99" x2="446.96" y2="560.04" stroke="#D32F2F" stroke-width="6.47" stroke-linecap="round"/>
<line x1="418.91" y1="569.25" x2="442.94" y2="553.31" stroke="#D32F2F" stroke-width="6.96" stroke-linecap="round"/>
<line x1="469.63" y1="541.73" x2="442.94" y2="553.31" stroke="#D32F2F" stroke-width="6.81" stroke-linecap="round"/>
<line x1="414.77" y1="560.39" x2="439.34" y2="543.91" stroke="#D32F2F" stroke-width="6.55" stroke-linecap="round"/>
<line x1="466.09" y1="534.15" x2="439.34" y2="543.91" stroke="#D32F2F" stroke-width="7.22" stroke-linecap="round"/>
<line x1="411.22" y1="548.28" x2="436.44" y2="531.57" stroke="#D32F2F" stroke-width="6.16" stroke-linecap="round"/>
<line x1="463.12" y1="524.02" x2="436.44" y2="531.57" stroke="#D32F2F" stroke-width="7.68" stroke-linecap="round"/>
<line x1="408.62" y1="532.60" x2="434.54" y2="516.06" stroke="#D32F2F" stroke-width="5.85" stroke-linecap="round"/>
<line x1="460.98" y1="511.12" x2="434.54" y2="516.06" stroke="#D32F2F" stroke-width="8.00" stroke-linecap="round"/>
<line x1="407.30" y1="513.11" x2="433.90" y2="497.17" stroke="#D32F2F" stroke-width="6.28" stroke-linecap="round"/>
<line x1="459.90" y1="495.25" x2="433.90" y2="497.17" stroke="#D32F2F" stroke-width="8.00" stroke-linecap="round"/>
<line x1="407.58" y1="489.72" x2="434.76" y2="474.84" stroke="#D32F2F" stroke-width="7.34" stroke-linecap="round"/>
<line x1="460.13" y1="476.28" x2="434.76" y2="474.84" stroke="#D32F2F" stroke-width="8.00" stroke-linecap="round"/>
<line x1="409.69" y1="462.54" x2="437.31" y2="449.18" stroke="#D32F2F" stroke-width="8.00" stroke-linecap="round"/>
<line x1="461.84" y1="454.23" x2="437.31" y2="449.18" stroke="#D32F2F" stroke-width="8.00" stroke-linecap="round"/>
<line x1="413.76" y1="431.99" x2="441.64" y2="420.61" stroke="#D32F2F" stroke-width="8.00" stroke-linecap="round"/>
<line x1="465.15" y1="429.36" x2="441.64" y2="420.61" stroke="#D32F2F" stroke-width="8.00" stroke-linecap="round"/>
<line x1="419.79" y1="398.79" x2="447.73" y2="389.83" stroke="#D32F2F" stroke-width="8.00" stroke-linecap="round"/>
<line x1="470.08" y1="402.23" x2="447.73" y2="389.83" stroke="#D32F2F" stroke-width="8.00" stroke-linecap="round"/>
<line x1="427.64" y1="364.00" x2="455.42" y2="357.85" stroke="#D32F2F" stroke-width="8.00" stroke-linecap="round"/>
<line x1="476.52" y1="373.71" x2="455.42" y2="357.85" stroke="#D32F2F" stroke-width="8.00" stroke-linecap="round"/>
<line x1="437.05" y1="328.89" x2="464.46" y2="325.91" stroke="#D32F2F" stroke-width="8.00" stroke-linecap="round"/>
<line x1="484.23" y1="344.91" x2="464.46" y2="325.91" stroke="#D32F2F" stroke-width="8.00" stroke-linecap="round"/>
<line x1="447.64" y1="294.83" x2="474.48" y2="295.26" stroke="#D32F2F" stroke-width="8.00" stroke-linecap="round"/>
<line x1="492.92" y1="316.99" x2="474.48" y2="295.26" stroke="#D32F2F" stroke-width="8.00" stroke-linecap="round"/>
<line x1="459.02" y1="263.06" x2="485.10" y2="267.03" stroke="#D32F2F" stroke-width="8.00" stroke-linecap="round"/>
<line x1="502.22" y1="291.04" x2="485.10" y2="267.03" stroke="#D32F2F" stroke-width="8.00" stroke-linecap="round"/>
<line x1="470.77" y1="234.57" x2="495.96" y2="242.06" stroke="#D32F2F" stroke-width="8.00" stroke-linecap="round"/>
<line x1="511.78" y1="267.84" x2="495.96" y2="242.06" stroke="#D32F2F" stroke-width="7.85" stroke-linecap="round"/>
<line x1="482.53" y1="209.98" x2="506.73" y2="220.82" stroke="#D32F2F" stroke-width="8.00" stroke-linecap="round"/>
<line x1="521.33" y1="247.89" x2="506.73" y2="220.82" stroke="#D32F2F" stroke-width="6.95" stroke-linecap="round"/>
<line x1="493.99" y1="189.58" x2="517.14" y2="203.49" stroke="#D32F2F" stroke-width="8.00" stroke-linecap="round"/>
<line x1="530.62" y1="231.35" x2="517.14" y2="203.49" stroke="#D32F2F" stroke-width="5.94" stroke-linecap="round"/>
<line x1="504.87" y1="173.37" x2="526.98" y2="189.96" stroke="#D32F2F" stroke-width="8.00" stroke-linecap="round"/>
<line x1="539.48" y1="218.14" x2="526.98" y2="189.96" stroke="#D32F2F" stroke-width="5.59" stroke-linecap="round"/>
<line x1="514.97" y1="161.09" x2="536.05" y2="179.95" stroke="#D32F2F" stroke-width="7.62" stroke-linecap="round"/>
<line x1="547.79" y1="208.04" x2="536.05" y2="179.95" stroke="#D32F2F" stroke-width="5.99" stroke-linecap="round"/>
<line x1="524.10" y1="152.37" x2="544.22" y2="173.09" stroke="#D32F2F" stroke-width="7.15" stroke-linecap="round"/>
<line x1="555.42" y1="200.76" x2="544.22" y2="173.09" stroke="#D32F2F" stroke-width="6.44" stroke-linecap="round"/>
<line x1="532.11" y1="146.77" x2="551.35" y2="168.95" stroke="#D32F2F" stroke-width="6.74" stroke-linecap="round"/>
<line x1="562.28" y1="195.96" x2="551.35" y2="168.95" stroke="#D32F2F" stroke-width="6.90" stroke-linecap="round"/>
<line x1="538.88" y1="143.78" x2="557.30" y2="167.12" stroke="#D32F2F" stroke-width="6.40" stroke-linecap="round"/>
<line x1="568.25" y1="193.33" x2="557.30" y2="167.12" stroke="#D32F2F" stroke-width="7.31" stroke-linecap="round"/>
<line x1="544.29" y1="142.94" x2="561.94" y2="167.17" stroke="#D32F2F" stroke-width="6.16" stroke-linecap="round"/>
<line x1="573.17" y1="192.57" x2="561.94" y2="167.17" stroke="#D32F2F" stroke-width="7.63" stroke-linecap="round"/>
<line x1="548.23" y1="143.80" x2="565.12" y2="168.73" stroke="#D32F2F" stroke-width="6.02" stroke-linecap="round"/>
<line x1="576.89" y1="193.39" x2="565.12" y2="168.73" stroke="#D32F2F" stroke-width="7.84" stroke-linecap="round"/>
<line x1="145.94" y1="79.40" x2="171.43" y2="63.30" stroke="#D32F2F" stroke-width="5.98" stroke-linecap="round"/>
<line x1="198.62" y1="50.12" x2="174.92" y2="63.49" stroke="#D32F2F" stroke-width="7.85" stroke-linecap="round"/>
<line x1="149.00" y1="78.73" x2="174.92" y2="63.49" stroke="#D32F2F" stroke-width="6.04" stroke-linecap="round"/>
<line x1="202.46" y1="51.34" x2="178.89" y2="65.64" stroke="#D32F2F" stroke-width="7.65" stroke-linecap="round"/>
<line x1="152.63" y1="79.89" x2="178.89" y2="65.64" stroke="#D32F2F" stroke-width="6.21" stroke-linecap="round"/>
<line x1="206.72" y1="54.78" x2="183.04" y2="69.96" stroke="#D32F2F" stroke-width="7.35" stroke-linecap="round"/>
<line x1="156.52" y1="83.01" x2="183.04" y2="69.96" stroke="#D32F2F" stroke-width="6.47" stroke-linecap="round"/>
<line x1="211.09" y1="60.75" x2="187.06" y2="76.69" stroke="#D32F2F" stroke-width="6.96" stroke-linecap="round"/>
<line x1="160.37" y1="88.27" x2="187.06" y2="76.69" stroke="#D32F2F" stroke-width="6.81" stroke-linecap="round"/>
<line x1="215.23" y1="69.61" x2="190.66" y2="86.09" stroke="#D32F2F" stroke-width="6.55" stroke-linecap="round"/>
<line x1="163.91" y1="95.85" x2="190.66" y2="86.09" stroke="#D32F2F" stroke-width="7.22" stroke-linecap="round"/>
<line x1="218.78" y1="81.72" x2="193.56" y2="98.43" stroke="#D32F2F" stroke-width="6.16" stroke-linecap="round"/>
<line x1="166.88" y1="105.98" x2="193.56" y2="98.43" stroke="#D32F2F" stroke-width="7.68" stroke-linecap="round"/>
<line x1="221.38" y1="97.40" x2="195.46" y2="113.94" stroke="#D32F2F" stroke-width="5.85" stroke-linecap="round"/>
<line x1="169.02" y1="118.88" x2="195.46" y2="113.94" stroke="#D32F2F" stroke-width="8.00" stroke-linecap="round"/>
<line x1="222.70" y1="116.89" x2="196.10" y2="132.83" stroke="#D32F2F" stroke-width="6.28" stroke-linecap="round"/>
<line x1="170.10" y1="134.75" x2="196.10" y2="132.83" stroke="#D32F2F" stroke-width="8.00" stroke-linecap="round"/>
<line x1="222.42" y1="140.28" x2="195.24" y2="155.16" stroke="#D32F2F" stroke-width="7.34" stroke-linecap="round"/>
<line x1="169.87" y1="153.72" x2="195.24" y2="155.16" stroke="#D32F2F" stroke-width="8.00" stroke-linecap="round"/>
<line x1="220.31" y1="167.46" x2="192.69" y2="180.82" stroke="#D32F2F" stroke-width="8.00" stroke-linecap="round"/>
<line x1="168.16" y1="175.77" x2="192.69" y2="180.82" stroke="#D32F2F" stroke-width="8.00" stroke-linecap="round"/>
<line x1="216.24" y1="198.01" x2="188.36" y2="209.39" stroke="#D32F2F" stroke-width="8.00" stroke-linecap="round"/>
<line x1="164.85" y1="200.64" x2="188.36" y2="209.39" stroke="#D32F2F" stroke-width="8.00" stroke-linecap="round"/>
<line x1="210.21" y1="231.21" x2="182.27" y2="240.17" stroke="#D32F2F" stroke-width="8.00" stroke-linecap="round"/>
<line x1="159.92" y1="227.77" x2="182.27" y2="240.17" stroke="#D32F2F" stroke-width="8.00" stroke-linecap="round"/>
<line x1="202.36" y1="266.00" x2="174.58" y2="272.15" stroke="#D32F2F" stroke-width="8.00" stroke-linecap="round"/>
<line x1="153.48" y1="256.29" x2="174.58" y2="272.15" stroke="#D32F2F" stroke-width="8.00" stroke-linecap="round"/>
<line x1="192.95" y1="301.11" x2="165.54" y2="304.09" stroke="#D32F2F" stroke-width="8.00" stroke-linecap="round"/>
<line x1="145.77" y1="285.09" x2="165.54" y2="304.09" stroke="#D32F2F" stroke-width="8.00" stroke-linecap="round"/>
<line x1="182.36" y1="335.17" x2="155.52" y2="334.74" stroke="#D32F2F" stroke-width="8.00" stroke-linecap="round"/>
<line x1="137.08" y1="313.01" x2="155.52" y2="334.74" stroke="#D32F2F" stroke-width="8.00" stroke-linecap="round"/>
<line x1="170.98" y1="366.94" x2="144.90" y2="362.97" stroke="#D32F2F" stroke-width="8.00" stroke-linecap="round"/>
<line x1="127.78" y1="338.96" x2="144.90" y2="362.97" stroke="#D32F2F" stroke-width="8.00" stroke-linecap="round"/>
<line x1="159.23" y1="395.43" x2="134.04" y2="387.94" stroke="#D32F2F" stroke-width="8.00" stroke-linecap="round"/>
<line x1="118.22" y1="362.16" x2="134.04" y2="387.94" stroke="#D32F2F" stroke-width="7.85" stroke-linecap="round"/>
<line x1="147.47" y1="420.02" x2="123.27" y2="409.18" stroke="#D32F2F" stroke-width="8.00" stroke-linecap="round"/>
<line x1="108.67" y1="382.11" x2="123.27" y2="409.18" stroke="#D32F2F" stroke-width="6.95" stroke-linecap="round"/>
<line x1="136.01" y1="440.42" x2="112.86" y2="426.51" stroke="#D32F2F" stroke-width="8.00" stroke-linecap="round"/>
<line x1="99.38" y1="398.65" x2="112.86" y2="426.51" stroke="#D32F2F" stroke-width="5.94" stroke-linecap="round"/>
<line x1="125.13" y1="456.63" x2="103.02" y2="440.04" stroke="#D32F2F" stroke-width="8.00" stroke-linecap="round"/>
<line x1="90.52" y1="411.86" x2="103.02" y2="440.04" stroke="#D32F2F" stroke-width="5.59" stroke-linecap="round"/>
<line x1="115.03" y1="468.91" x2="93.95" y2="450.05" stroke="#D32F2F" stroke-width="7.62" stroke-linecap="round"/>
<line x1="82.21" y1="421.96" x2="93.95" y2="450.05" stroke="#D32F2F" stroke-width="5.99" stroke-linecap="round"/>
<line x1="105.90" y1="477.63" x2="85.78" y2="456.91" stroke="#D32F2F" stroke-width="7.15" stroke-linecap="round"/>
<line x1="74.58" y1="429.24" x2="85.78" y2="456.91" stroke="#D32F2F" stroke-width="6.44" stroke-linecap="round"/>
<line x1="97.89" y1="483.23" x2="78.65" y2="461.05" stroke="#D32F2F" stroke-width="6.74" stroke-linecap="round"/>
<line x1="67.72" y1="434.04" x2="78.65" y2="461.05" stroke="#D32F2F" stroke-width="6.90" stroke-linecap="round"/>
<line x1="91.12" y1="486.22" x2="72.70" y2="462.88" stroke="#D32F2F" stroke-width="6.40" stroke-linecap="round"/>
<line x1="61.75" y1="436.67" x2="72.70" y2="462.88" stroke="#D32F2F" stroke-width="7.31" stroke-linecap="round"/>
<line x1="85.71" y1="487.06" x2="68.06" y2="462.83" stroke="#D32F2F" stroke-width="6.16" stroke-linecap="round"/>
<line x1="56.83" y1="437.43" x2="68.06" y2="462.83" stroke="#D32F2F" stroke-width="7.63" stroke-linecap="round"/>
<line x1="81.77" y1="486.20" x2="64.88" y2="461.27" stroke="#D32F2F" stroke-width="6.02" stroke-linecap="round"/>
<line x1="53.11" y1="436.61" x2="64.88" y2="461.27" stroke="#D32F2F" stroke-width="7.84" stroke-linecap="round"/>
<line x1="484.06" y1="550.60" x2="458.57" y2="566.70" stroke="#D32F2F" stroke-width="5.98" stroke-linecap="round"/>
<line x1="431.38" y1="579.88" x2="455.08" y2="566.51" stroke="#D32F2F" stroke-width="7.85" stroke-linecap="round"/>
<line x1="481.00" y1="551.27" x2="455.08" y2="566.51" stroke="#D32F2F" stroke-width="6.04" stroke-linecap="round"/>
<line x1="427.54" y1="578.66" x2="451.11" y2="564.36" stroke="#D32F2F" stroke-width="7.65" stroke-linecap="round"/>
<line x1="477.37" y1="550.11" x2="451.11" y2="564.36" stroke="#D32F2F" stroke-width="6.21" stroke-linecap="round"/>
<line x1="423.28" y1="575.22" x2="446.96" y2="560.04" stroke="#D32F2F" stroke-width="7.35" stroke-linecap="round"/>
<line x1="473.48" y1="546.99" x2="446.96" y2="560.04" stroke="#D32F2F" stroke-width="6.47" stroke-linecap="round"/>
<line x1="418.91" y1="569.25" x2="442.94" y2="553.31" stroke="#D32F2F" stroke-width="6.96" stroke-linecap="round"/>
<line x1="469.63" y1="541.73" x2="442.94" y2="553.31" stroke="#D32F2F" stroke-width="6.81" stroke-linecap="round"/>
<line x1="414.77" y1="560.39" x2="439.34" y2="543.91" stroke="#D32F2F" stroke-width="6.55" stroke-linecap="round"/>
<line x1="466.09" y1="534.15" x2="439.34" y2="543.91" stroke="#D32F2F" stroke-width="7.22" stroke-linecap="round"/>
<line x1="411.22" y1="548.28" x2="436.44" y2="531.57" stroke="#D32F2F" stroke-width="6.16" stroke-linecap="round"/>
<line x1="463.12" y1="524.02" x2="436.44" y2="531.57" stroke="#D32F2F" stroke-width="7.68" stroke-linecap="round"/>
<line x1="408.62" y1="532.60" x2="434.54" y2="516.06" stroke="#D32F2F" stroke-width="5.85" stroke-linecap="round"/>
<line x1="460.98" y1="511.12" x2="434.54" y2="516.06" stroke="#D32F2F" stroke-width="8.00" stroke-linecap="round"/>
<line x1="407.30" y1="513.11" x2="433.90" y2="497.17" stroke="#D32F2F" stroke-width="6.28" stroke-linecap="round"/>
<line x1="459.90" y1="495.25" x2="433.90" y2="497.17" stroke="#D32F2F" stroke-width="8.00" stroke-linecap="round"/>
<line x1="407.58" y1="489.72" x2="434.76" y2="474.84" stroke="#D32F2F" stroke-width="7.34" stroke-linecap="round"/>
<line x1="460.13" y1="476.28" x2="434.76" y2="474.84" stroke="#D32F2F" stroke-width="8.00" stroke-linecap="round"/>
<line x1="409.69" y1="462.54" x2="437.31" y2="449.18" stroke="#D32F2F" stroke-width="8.00" stroke-linecap="round"/>
<line x1="461.84" y1="454.23" x2="437.31" y2="449.18" stroke="#D32F2F" stroke-width="8.00" stroke-linecap="round"/>
<line x1="413.76" y1="431.99" x2="441.64" y2="420.61" stroke="#D32F2F" stroke-width="8.00" stroke-linecap="round"/>
<line x1="465.15" y1="429.36" x2="441.64" y2="420.61" stroke="#D32F2F" stroke-width="8.00" stroke-linecap="round"/>
<line x1="419.79" y1="398.79" x2="447.73" y2="389.83" stroke="#D32F2F" stroke-width="8.00" stroke-linecap="round"/>
<line x1="470.08" y1="402.23" x2="447.73" y2="389.83" stroke="#D32F2F" stroke-width="8.00" stroke-linecap="round"/>
<line x1="427.64" y1="364.00" x2="455.42" y2="357.85" stroke="#D32F2F" stroke-width="8.00" stroke-linecap="round"/>
<line x1="476.52" y1="373.71" x2="455.42" y2="357.85" stroke="#D32F2F" stroke-width="8.00" stroke-linecap="round"/>
<line x1="437.05" y1="328.89" x2="464.46" y2="325.91" stroke="#D32F2F" stroke-width="8.00" stroke-linecap="round"/>
<line x1="484.23" y1="344.91" x2="464.46" y2="325.91" stroke="#D32F2F" stroke-width="8.00" stroke-linecap="round"/>
<line x1="447.64" y1="294.83" x2="474.48" y2="295.26" stroke="#D32F2F" stroke-width="8.00" stroke-linecap="round"/>
<line x1="492.92" y1="316.99" x2="474.48" y2="295.26" stroke="#D32F2F" stroke-width="8.00" stroke-linecap="round"/>
<line x1="459.02" y1="263.06" x2="485.10" y2="267.03" stroke="#D32F2F" stroke-width="8.00" stroke-linecap="round"/>
<line x1="502.22" y1="291.04" x2="485.10" y2="267.03" stroke="#D32F2F" stroke-width="8.00" stroke-linecap="round"/>
<line x1="470.77" y1="234.57" x2="495.96" y2="242.06" stroke="#D32F2F" stroke-width="8.00" stroke-linecap="round"/>
<line x1="511.78" y1="267.84" x2="495.96" y2="242.06" stroke="#D32F2F" stroke-width="7.85" stroke-linecap="round"/>
<line x1="482.53" y1="209.98" x2="506.73" y2="220.82" stroke="#D32F2F" stroke-width="8.00" stroke-linecap="round"/>
<line x1="521.33" y1="247.89" x2="506.73" y2="220.82" stroke="#D32F2F" stroke-width="6.95" stroke-linecap="round"/>
<line x1="493.99" y1="189.58" x2="517.14" y2="203.49" stroke="#D32F2F" stroke-width="8.00" stroke-linecap="round"/>
<line x1="530.62" y1="231.35" x2="517.14" y2="203.49" stroke="#D32F2F" stroke-width="5.94" stroke-linecap="round"/>
<line x1="504.87" y1="173.37" x2="526.98" y2="189.96" stroke="#D32F2F" stroke-width="8.00" stroke-linecap="round"/>
<line x1="539.48" y1="218.14" x2="526.98" y2="189.96" stroke="#D32F2F" stroke-width="5.59" stroke-linecap="round"/>
<line x1="514.97" y1="161.09" x2="536.05" y2="179.95" stroke="#D32F2F" stroke-width="7.62" stroke-linecap="round"/>
<line x1="547.79" y1="208.04" x2="536.05" y2="179.95" stroke="#D32F2F" stroke-width="5.99" stroke-linecap="round"/>
<line x1="524.10" y1="152.37" x2="544.22" y2="173.09" stroke="#D32F2F" stroke-width="7.15" stroke-linecap="round"/>
<line x1="555.42" y1="200.76" x2="544.22" y2="173.09" stroke="#D32F2F" stroke-width="6.44" stroke-linecap="round"/>
<line x1="532.11" y1="146.77" x2="551.35" y2="168.95" stroke="#D32F2F" stroke-width="6.74" stroke-linecap="round"/>
<line x1="562.28" y1="195.96" x2="551.35" y2="168.95" stroke="#D32F2F" stroke-width="6.90" stroke-linecap="round"/>
<line x1="538.88" y1="143.78" x2="557.30" y2="167.12" stroke="#D32F2F" stroke-width="6.40" stroke-linecap="round"/>
<line x1="568.25" y1="193.33" x2="557.30" y2="167.12" stroke="#D32F2F" stroke-width="7.31" stroke-linecap="round"/>
<line x1="544.29" y1="142.94" x2="561.94" y2="167.17" stroke="#D32F2F" stroke-width="6.16" stroke-linecap="round"/>
<line x1="573.17" y1="192.57" x2="561.94" y2="167.17" stroke="#D32F2F" stroke-width="7.63" stroke-linecap="round"/>
<line x1="548.23" y1="143.80" x2="565.12" y2="168.73" stroke="#D32F2F" stroke-width="6.02" stroke-linecap="round"/>
<line x1="576.89" y1="193.39" x2="565.12" y2="168.73" stroke="#D32F2F" stroke-width="7.84" stroke-linecap="round"/>
<line x1="145.94" y1="79.40" x2="171.43" y2="63.30" stroke="#D32F2F" stroke-width="5.98" stroke-linecap="round"/>
<line x1="198.62" y1="50.12" x2="174.92" y2="63.49" stroke="#D32F2F" stroke-width="7.85" stroke-linecap="round"/>
<line x1="149.00" y1="78.73" x2="174.92" y2="63.49" stroke="#D32F2F" stroke-width="6.04" stroke-linecap="round"/>
<line x1="202.46" y1="51.34" x2="178.89" y2="65.64" stroke="#D32F2F" stroke-width="7.65" stroke-linecap="round"/>
<line x1="152.63" y1="79.89" x2="178.89" y2="65.64" stroke="#D32F2F" stroke-width="6.21" stroke-linecap="round"/>
<line x1="206.72" y1="54.78" x2="183.04" y2="69.96" stroke="#D32F2F" stroke-width="7.35" stroke-linecap="round"/>
<line x1="156.52" y1="83.01" x2="183.04" y2="69.96" stroke="#D32F2F" stroke-width="6.47" stroke-linecap="round"/>
<line x1="211.09" y1="60.75" x2="187.06" y2="76.69" stroke="#D32F2F" stroke-width="6.96" stroke-linecap="round"/>
<line x1="160.37" y1="88.27" x2="187.06" y2="76.69" stroke="#D32F2F" stroke-width="6.81" stroke-linecap="round"/>
<line x1="215.23" y1="69.61" x2="190.66" y2="86.09" stroke="#D32F2F" stroke-width="6.55" stroke-linecap="round"/>
<line x1="163.91" y1="95.85" x2="190.66" y2="86.09" stroke="#D32F2F" stroke-width="7.22" stroke-linecap="round"/>
<line x1="218.78" y1="81.72" x2="193.56" y2="98.43" stroke="#D32F2F" stroke-width="6.16" stroke-linecap="round"/>
<line x1="166.88" y1="105.98" x2="193.56" y2="98.43" stroke="#D32F2F" stroke-width="7.68" stroke-linecap="round"/>
<line x1="221.38" y1="97.40" x2="195.46" y2="113.94" stroke="#D32F2F" stroke-width="5.85" stroke-linecap="round"/>
<line x1="169.02" y1="118.88" x2="195.46" y2="113.94" stroke="#D32F2F" stroke-width="8.00" stroke-linecap="round"/>
<line x1="222.70" y1="116.89" x2="196.10" y2="132.83" stroke="#D32F2F" stroke-width="6.28" stroke-linecap="round"/>
<line x1="170.10" y1="134.75" x2="196.10" y2="132.83" stroke="#D32F2F" stroke-width="8.00" stroke-linecap="round"/>
<line x1="222.42" y1="140.28" x2="195.24" y2="155.16" stroke="#D32F2F" stroke-width="7.34" stroke-linecap="round"/>
<line x1="169.87" y1="153.72" x2="195.24" y2="155.16" stroke="#D32F2F" stroke-width="8.00" stroke-linecap="round"/>
<line x1="220.31" y1="167.46" x2="192.69" y2="180.82" stroke="#D32F2F" stroke-width="8.00" stroke-linecap="round"/>
<line x1="168.16" y1="175.77" x2="192.69" y2="180.82" stroke="#D32F2F" stroke-width="8.00" stroke-linecap="round"/>
<line x1="216.24" y1="198.01" x2="188.36" y2="209.39" stroke="#D32F2F" stroke-width="8.00" stroke-linecap="round"/>
<line x1="164.85" y1="200.64" x2="188.36" y2="209.39" stroke="#D32F2F" stroke-width="8.00" stroke-linecap="round"/>
<line x1="210.21" y1="231.21" x2="182.27" y2="240.17" stroke="#D32F2F" stroke-width="8.00" stroke-linecap="round"/>
<line x1="159.92" y1="227.77" x2="182.27" y2="240.17" stroke="#D32F2F" stroke-width="8.00" stroke-linecap="round"/>
<line x1="202.36" y1="266.00" x2="174.58" y2="272.15" stroke="#D32F2F" stroke-width="8.00" stroke-linecap="round"/>
<line x1="153.48" y1="256.29" x2="174.58" y2="272.15" stroke="#D32F2F" stroke-width="8.00" stroke-linecap="round"/>
<line x1="192.95" y1="301.11" x2="165.54" y2="304.09" stroke="#D32F2F" stroke-width="8.00" stroke-linecap="round"/>
<line x1="145.77" y1="285.09" x2="165.54" y2="304.09" stroke="#D32F2F" stroke-width="8.00" stroke-linecap="round"/>
<line x1="182.36" y1="335.17" x2="155.52" y2="334.74" stroke="#D32F2F" stroke-width="8.00" stroke-linecap="round"/>
<line x1="137.08" y1="313.01" x2="155.52" y2="334.74" stroke="#D32F2F" stroke-width="8.00" stroke-linecap="round"/>
<line x1="170.98" y1="366.94" x2="144.90" y2="362.97" stroke="#D32F2F" stroke-width="8.00" stroke-linecap="round"/>
<line x1="127.78" y1="338.96" x2="144.90" y2="362.97" stroke="#D32F2F" stroke-width="8.00" stroke-linecap="round"/>
<line x1="159.23" y1="395.43" x2="134.04" y2="387.94" stroke="#D32F2F" stroke-width="8.00" stroke-linecap="round"/>
<line x1="118.22" y1="362.16" x2="134.04" y2="387.94" stroke="#D32F2F" stroke-width="7.85" stroke-linecap="round"/>
<line x1="147.47" y1="420.02" x2="123.27" y2="409.18" stroke="#D32F2F" stroke-width="8.00" stroke-linecap="round"/>
<line x1="108.67" y1="382.11" x2="123.27" y2="409.18" stroke="#D32F2F" stroke-width="6.95" stroke-linecap="round"/>
<line x1="136.01" y1="440.42" x2="112.86" y2="426.51" stroke="#D32F2F" stroke-width="8.00" stroke-linecap="round"/>
<line x1="99.38" y1="398.65" x2="112.86" y2="426.51" stroke="#D32F2F" stroke-width="5.94" stroke-linecap="round"/>
<line x1="125.13" y1="456.63" x2="103.02" y2="440.04" stroke="#D32F2F" stroke-width="8.00" stroke-linecap="round"/>
<line x1="90.52" y1="411.86" x2="103.02" y2="440.04" stroke="#D32F2F" stroke-width="5.59" stroke-linecap="round"/>
<line x1="115.03" y1="468.91" x2="93.95" y2="450.05" stroke="#D32F2F" stroke-width="7.62" stroke-linecap="round"/>
<line x1="82.21" y1="421.96" x2="93.95" y2="450.05" stroke="#D32F2F" stroke-width="5.99" stroke-linecap="round"/>
<line x1="105.90" y1="477.63" x2="85.78" y2="456.91" stroke="#D32F2F" stroke-width="7.15" stroke-linecap="round"/>
<line x1="74.58" y1="429.24" x2="85.78" y2="456.91" stroke="#D32F2F" stroke-width="6.44" stroke-linecap="round"/>
<line x1="97.89" y1="483.23" x2="78.65" y2="461.05" stroke="#D32F2F" stroke-width="6.74" stroke-linecap="round"/>
<line x1="67.72" y1="434.04" x2="78.65" y2="461.05" stroke="#D32F2F" stroke-width="6.90" stroke-linecap="round"/>
<line x1="91.12" y1="486.22" x2="72.70" y2="462.88" stroke="#D32F2F" stroke-width="6.40" stroke-linecap="round"/>
<line x1="61.75" y1="436.67" x2="72.70" y2="462.88" stroke="#D32F2F" stroke-width="7.31" stroke-linecap="round"/>
<line x1="85.71" y1="487.06" x2="68.06" y2="462.83" stroke="#D32F2F" stroke-width="6.16" stroke-linecap="round"/>
<line x1="56.83" y1="437.43" x2="68.06" y2="462.83" stroke="#D32F2F" stroke-width="7.63" stroke-linecap="round"/>
<line x1="81.77" y1="486.20" x2="64.88" y2="461.27" stroke="#D32F2F" stroke-width="6.02" stroke-linecap="round"/>
<line x1="53.11" y1="436.61" x2="64.88" y2="461.27" stroke="#D32F2F" stroke-width="7.84" stroke-linecap="round"/>
</svg>