<svg width="630.0" height="630.0" viewBox="0 0 630.0 630.0" xmlns="http://www.w3.org/2000/svg">
<circle cx="315.0" cy="315.0" r="290.0" fill="#FDFDF5" stroke="#ccc" stroke-width="0.5"/>
<polyline points="445.43,574.01 445.06,574.09 444.75,574.00 444.50,573.75 444.30,573.33 444.17,572.76 444.08,572.03 444.05,571.16 444.07,570.15 444.13,568.99 444.24,567.71 444.39,566.30 444.57,564.76 444.79,563.10 445.04,561.33 445.32,559.45 445.63,557.45 445.96,555.36 446.31,553.16 446.67,550.87 447.05,548.48 447.44,546.00 447.84,543.43 448.24,540.78 448.64,538.05 449.05,535.23 449.44,532.34 449.83,529.37 450.21,526.32 450.58,523.21 450.92,520.03 451.25,516.78 451.55,513.46 451.83,510.08 452.08,506.64 452.29,503.13 452.47,499.57 452.61,495.95 452.71,492.27 452.76,488.54 452.76,484.76 452.71,480.92 452.60,477.03 452.43,473.10 452.20,469.11 451.90,465.08 451.54,461.00 451.09,456.88 450.58,452.72 449.98,448.51 449.29,444.27 448.52,439.98 447.65,435.66 446.69,431.31 445.63,426.92 444.46,422.50 443.19,418.05 441.80,413.58 440.30,409.07 438.68,404.55 436.94,400.00 435.06,395.44 433.06,390.86 430.92,386.27 428.65,381.67 426.23,377.06 423.66,372.45 420.95,367.85 418.08,363.24 415.06,358.65 411.88,354.07 408.53,349.52 405.03,344.98 401.36,340.48 397.52,336.01 393.51,331.58 389.34,327.20 384.99,322.88 380.48,318.61 375.80,314.41 370.95,310.29 365.93,306.25 360.75,302.29 355.42,298.44 349.92,294.69 344.28,291.05 338.49,287.54 332.56,284.15 326.50,280.90 320.32,277.80 314.02,274.84 307.61,272.05 301.10,269.42 294.51,266.97 287.85,264.69 281.11,262.60 274.33,260.70 267.51,259.00 260.66,257.49 253.79,256.19 246.93,255.09 240.07,254.20 233.24,253.52 226.45,253.05 219.70,252.79 213.02,252.73 206.41,252.89 199.88,253.24 193.45,253.80 187.13,254.56 180.91,255.52 174.82,256.66 168.86,257.99 163.04,259.50 157.36,261.18 151.83,263.03 146.46,265.05 141.24,267.21 136.19,269.53 131.30,271.99 126.58,274.58 122.03,277.31 117.65,280.15 113.44,283.11 109.40,286.18 105.53,289.34 101.82,292.61 98.29,295.96 94.93,299.40 91.72,302.91 88.69,306.49 85.81,310.14 83.09,313.85 80.53,317.61 78.12,321.43 75.86,325.29 73.74,329.18 71.77,333.12 69.95,337.09 68.26,341.08 66.71,345.10 65.28,349.14 63.99,353.20 62.83,357.26 61.79,361.34 60.86,365.43 60.06,369.52 59.37,373.61 58.80,377.70 58.33,381.79 57.97,385.86 57.71,389.93 57.56,393.99 57.51,398.03 57.55,402.06 57.69,406.06 57.92,410.05 58.24,414.01 58.65,417.94 59.14,421.85 59.72,425.73 60.38,429.57 61.13,433.38 61.95,437.16 62.85,440.89 63.82,444.59 64.87,448.23 65.99,451.84 67.18,455.39 68.44,458.90 69.77,462.35 71.16,465.75 72.62,469.08 74.14,472.36 75.73,475.57 77.37,478.71 79.08,481.78 80.84,484.78 82.66,487.70 84.53,490.54 86.46,493.30 88.44,495.97 90.48,498.55" fill="none" stroke="#D6D4C8" stroke-width="6" stroke-linecap="round"/>
<polyline points="205.30,46.58 208.87,45.28 212.63,44.05 216.57,42.90 220.70,41.82 225.02,40.82 229.53,39.91 234.22,39.09 239.10,38.37 244.15,37.74 249.38,37.21 254.78,36.78 260.35,36.46 266.08,36.25 271.96,36.15 277.98,36.17 284.14,36.31 290.43,36.56 296.84,36.94 303.35,37.43 309.95,38.05 316.64,38.79 323.40,39.65 330.22,40.63 337.09,41.73 343.99,42.94 350.91,44.27 357.84,45.70 364.76,47.25 371.66,48.90 378.53,50.64 385.36,52.49 392.14,54.42 398.85,56.43 405.48,58.53 412.03,60.70 418.48,62.94 424.83,65.24 431.07,67.61 437.18,70.02 443.18,72.49 449.04,74.99 454.76,77.54 460.35,80.12 465.78,82.72 471.07,85.36 476.22,88.01 481.20,90.68 486.04,93.36 490.72,96.06 495.24,98.76 499.61,101.46 503.83,104.17 507.89,106.88 511.79,109.59 515.55,112.30 519.15,115.01 522.61,117.71 525.91,120.40 529.08,123.09 532.10,125.77 534.98,128.45 537.72,131.13 540.33,133.79 542.81,136.46 545.15,139.12 547.37,141.77 549.46,144.43 551.44,147.08" fill="none" stroke="#D6D4C8" stroke-width="6" stroke-linecap="round"/>
<polyline points="445.43,574.01 445.06,574.09 444.75,574.00 444.50,573.75 444.30,573.33 444.17,572.76 444.08,572.03 444.05,571.16 444.07,570.15 444.13,568.99 444.24,567.71 444.39,566.30 444.57,564.76 444.79,563.10 445.04,561.33 445.32,559.45 445.63,557.45 445.96,555.36 446.31,553.16 446.67,550.87 447.05,548.48 447.44,546.00 447.84,543.43 448.24,540.78 448.64,538.05 449.05,535.23 449.44,532.34 449.83,529.37 450.21,526.32 450.58,523.21 450.92,520.03 451.25,516.78 451.55,513.46 451.83,510.08 452.08,506.64 452.29,503.13 452.47,499.57 452.61,495.95 452.71,492.27 452.76,488.54 452.76,484.76 452.71,480.92 452.60,477.03 452.43,473.10 452.20,469.11 451.90,465.08 451.54,461.00 451.09,456.88 450.58,452.72 449.98,448.51 449.29,444.27 448.52,439.98 447.65,435.66 446.69,431.31 445.63,426.92 444.46,422.50 443.19,418.05 441.80,413.58 440.30,409.07 438.68,404.55 436.94,400.00 435.06,395.44 433.06,390.86 430.92,386.27 428.65,381.67 426.23,377.06 423.66,372.45 420.95,367.85 418.08,363.24 415.06,358.65 411.88,354.07 408.53,349.52 405.03,344.98 401.36,340.48 397.52,336.01 393.51,331.58 389.34,327.20 384.99,322.88 380.48,318.61 375.80,314.41 370.95,310.29 365.93,306.25 360.75,302.29 355.42,298.44 349.92,294.69 344.28,291.05 338.49,287.54 332.56,284.15 326.50,280.90 320.32,277.80 314.02,274.84 307.61,272.05 301.10,269.42 294.51,266.97 287.85,264.69 281.11,262.60 274.33,260.70 267.51,259.00 260.66,257.49 253.79,256.19 246.93,255.09 240.07,254.20 233.24,253.52 226.45,253.05 219.70,252.79 213.02,252.73 206.41,252.89 199.88,253.24 193.45,253.80 187.13,254.56 180.91,255.52 174.82,256.66 168.86,257.99 163.04,259.50 157.36,261.18 151.83,263.03 146.46,265.05 141.24,267.21 136.19,269.53 131.30,271.99 126.58,274.58 122.03,277.31 117.65,280.15 113.44,283.11 109.40,286.18 105.53,289.34 101.82,292.61 98.29,295.96 94.93,299.40 91.72,302.91 88.69,306.49 85.81,310.14 83.09,313.85 80.53,317.61 78.12,321.43 75.86,325.29 73.74,329.18 71.77,333.12 69.95,337.09 68.26,341.08 66.71,345.10 65.28,349.14 63.99,353.20 62.83,357.26 61.79,361.34 60.86,365.43 60.06,369.52 59.37,373.61 58.80,377.70 58.33,381.79 57.97,385.86 57.71,389.93 57.56,393.99 57.51,398.03 57.55,402.06 57.69,406.06 57.92,410.05 58.24,414.01 58.65,417.94 59.14,421.85 59.72,425.73 60.38,429.57 61.13,433.38 61.95,437.16 62.85,440.89 63.82,444.59 64.87,448.23 65.99,451.84 67.18,455.39 68.44,458.90 69.77,462.35 71.16,465.75 72.62,469.08 74.14,472.36 75.73,475.57 77.37,478.71 79.08,481.78 80.84,484.78 82.66,487.70 84.53,490.54 86.46,493.30 88.44,495.97 90.48,498.55" fill="none" stroke="#D6D4C8" stroke-width="6" stroke-linecap="round"/>
<polyline points="205.30,46.58 208.87,45.28 212.63,44.05 216.57,42.90 220.70,41.82 225.02,40.82 229.53,39.91 234.22,39.09 239.10,38.37 244.15,37.74 249.38,37.21 254.78,36.78 260.35,36.46 266.08,36.25 271.96,36.15 277.98,36.17 284.14,36.31 290.43,36.56 296.84,36.94 303.35,37.43 309.95,38.05 316.64,38.79 323.40,39.65 330.22,40.63 337.09,41.73 343.99,42.94 350.91,44.27 357.84,45.70 364.76,47.25 371.66,48.90 378.53,50.64 385.36,52.49 392.14,54.42 398.85,56.43 405.48,58.53 412.03,60.70 418.48,62.94 424.83,65.24 431.07,67.61 437.18,70.02 443.18,72.49 449.04,74.99 454.76,77.54 460.35,80.12 465.78,82.72 471.07,85.36 476.22,88.01 481.20,90.68 486.04,93.36 490.72,96.06 495.24,98.76 499.61,101.46 503.83,104.17 507.89,106.88 511.79,109.59 515.55,112.30 519.15,115.01 522.61,117.71 525.91,120.40 529.08,123.09 532.10,125.77 534.98,128.45 537.72,131.13 540.33,133.79 542.81,136.46 545.15,139.12 547.37,141.77 549.46,144.43 551.44,147.08" fill="none" stroke="#D6D4C8" stroke-width="6" stroke-linecap="round"/>
<circle cx="418.29" cy="585.96" r="4" fill="#1A1A1A" fill-opacity="0.4"/>
<line x1="418.29" y1="585.96" x2="445.05" y2="574.10" stroke="#D32F2F" stroke-width="6" stroke-linecap="round"/>
<circle cx="417.59" cy="584.20" r="4" fill="#1A1A1A" fill-opacity="0.4"/>
<line x1="417.59" y1="584.20" x2="444.11" y2="572.43" stroke="#D32F2F" stroke-width="6" stroke-linecap="round"/>
<circle cx="469.58" cy="559.10" r="4" fill="#1A1A1A" fill-opacity="0.4"/>
<line x1="469.58" y1="559.10" x2="444.16" y2="572.92" stroke="#D32F2F" stroke-width="6" stroke-linecap="round"/>
<circle cx="417.88" cy="579.02" r="4" fill="#1A1A1A" fill-opacity="0.4"/>
<line x1="417.88" y1="579.02" x2="444.25" y2="567.58" stroke="#D32F2F" stroke-width="6" stroke-linecap="round"/>
<circle cx="469.90" cy="555.30" r="4" fill="#1A1A1A" fill-opacity="0.4"/>
<line x1="469.90" y1="555.30" x2="444.13" y2="568.84" stroke="#D32F2F" stroke-width="6" stroke-linecap="round"/>
<circle cx="419.32" cy="570.81" r="4" fill="#1A1A1A" fill-opacity="0.4"/>
<line x1="419.32" y1="570.81" x2="445.20" y2="560.23" stroke="#D32F2F" stroke-width="6" stroke-linecap="round"/>
<circle cx="469.50" cy="549.81" r="4" fill="#1A1A1A" fill-opacity="0.4"/>
<line x1="469.50" y1="549.81" x2="444.99" y2="561.57" stroke="#D32F2F" stroke-width="6" stroke-linecap="round"/>
<circle cx="420.03" cy="560.63" r="4" fill="#1A1A1A" fill-opacity="0.4"/>
<line x1="420.03" y1="560.63" x2="446.87" y2="549.58" stroke="#D32F2F" stroke-width="6" stroke-linecap="round"/>
<circle cx="470.75" cy="541.35" r="4" fill="#1A1A1A" fill-opacity="0.4"/>
<line x1="470.75" y1="541.35" x2="446.41" y2="552.46" stroke="#D32F2F" stroke-width="6" stroke-linecap="round"/>
<circle cx="421.68" cy="548.21" r="4" fill="#1A1A1A" fill-opacity="0.4"/>
<line x1="421.68" y1="548.21" x2="448.75" y2="537.26" stroke="#D32F2F" stroke-width="6" stroke-linecap="round"/>
<circle cx="473.49" cy="530.21" r="4" fill="#1A1A1A" fill-opacity="0.4"/>
<line x1="473.49" y1="530.21" x2="448.37" y2="539.78" stroke="#D32F2F" stroke-width="6" stroke-linecap="round"/>
<circle cx="424.87" cy="533.73" r="4" fill="#1A1A1A" fill-opacity="0.4"/>
<line x1="424.87" y1="533.73" x2="450.60" y2="522.92" stroke="#D32F2F" stroke-width="6" stroke-linecap="round"/>
<circle cx="474.89" cy="517.95" r="4" fill="#1A1A1A" fill-opacity="0.4"/>
<line x1="474.89" y1="517.95" x2="450.11" y2="527.14" stroke="#D32F2F" stroke-width="6" stroke-linecap="round"/>
<circle cx="426.05" cy="518.42" r="4" fill="#1A1A1A" fill-opacity="0.4"/>
<line x1="426.05" y1="518.42" x2="452.00" y2="507.81" stroke="#D32F2F" stroke-width="6" stroke-linecap="round"/>
<circle cx="475.75" cy="504.08" r="4" fill="#1A1A1A" fill-opacity="0.4"/>
<line x1="475.75" y1="504.08" x2="451.63" y2="512.52" stroke="#D32F2F" stroke-width="6" stroke-linecap="round"/>
<circle cx="426.66" cy="502.03" r="4" fill="#1A1A1A" fill-opacity="0.4"/>
<line x1="426.66" y1="502.03" x2="452.74" y2="490.13" stroke="#D32F2F" stroke-width="6" stroke-linecap="round"/>
<circle cx="477.69" cy="487.83" r="4" fill="#1A1A1A" fill-opacity="0.4"/>
<line x1="477.69" y1="487.83" x2="452.58" y2="496.84" stroke="#D32F2F" stroke-width="6" stroke-linecap="round"/>
<circle cx="426.49" cy="484.73" r="4" fill="#1A1A1A" fill-opacity="0.4"/>
<line x1="426.49" y1="484.73" x2="452.52" y2="475.07" stroke="#D32F2F" stroke-width="6" stroke-linecap="round"/>
<circle cx="477.90" cy="470.45" r="4" fill="#1A1A1A" fill-opacity="0.4"/>
<line x1="477.90" y1="470.45" x2="452.61" y2="477.29" stroke="#D32F2F" stroke-width="6" stroke-linecap="round"/>
<circle cx="425.41" cy="466.64" r="4" fill="#1A1A1A" fill-opacity="0.4"/>
<line x1="425.41" y1="466.64" x2="450.83" y2="454.65" stroke="#D32F2F" stroke-width="6" stroke-linecap="round"/>
<circle cx="476.48" cy="451.82" r="4" fill="#1A1A1A" fill-opacity="0.4"/>
<line x1="476.48" y1="451.82" x2="451.57" y2="461.37" stroke="#D32F2F" stroke-width="6" stroke-linecap="round"/>
<circle cx="421.91" cy="448.32" r="4" fill="#1A1A1A" fill-opacity="0.4"/>
<line x1="421.91" y1="448.32" x2="447.60" y2="435.38" stroke="#D32F2F" stroke-width="6" stroke-linecap="round"/>
<circle cx="473.98" cy="431.59" r="4" fill="#1A1A1A" fill-opacity="0.4"/>
<line x1="473.98" y1="431.59" x2="448.63" y2="440.55" stroke="#D32F2F" stroke-width="6" stroke-linecap="round"/>
<circle cx="418.18" cy="428.98" r="4" fill="#1A1A1A" fill-opacity="0.4"/>
<line x1="418.18" y1="428.98" x2="442.52" y2="415.83" stroke="#D32F2F" stroke-width="6" stroke-linecap="round"/>
<circle cx="468.32" cy="410.77" r="4" fill="#1A1A1A" fill-opacity="0.4"/>
<line x1="468.32" y1="410.77" x2="443.45" y2="418.83" stroke="#D32F2F" stroke-width="6" stroke-linecap="round"/>
<circle cx="410.21" cy="410.32" r="4" fill="#1A1A1A" fill-opacity="0.4"/>
<line x1="410.21" y1="410.32" x2="434.04" y2="393.00" stroke="#D32F2F" stroke-width="6" stroke-linecap="round"/>
<circle cx="461.36" cy="388.33" r="4" fill="#1A1A1A" fill-opacity="0.4"/>
<line x1="461.36" y1="388.33" x2="437.47" y2="401.36" stroke="#D32F2F" stroke-width="6" stroke-linecap="round"/>
<circle cx="400.93" cy="391.10" r="4" fill="#1A1A1A" fill-opacity="0.4"/>
<line x1="400.93" y1="391.10" x2="423.10" y2="371.41" stroke="#D32F2F" stroke-width="6" stroke-linecap="round"/>
<circle cx="450.82" cy="365.56" r="4" fill="#1A1A1A" fill-opacity="0.4"/>
<line x1="450.82" y1="365.56" x2="427.05" y2="378.58" stroke="#D32F2F" stroke-width="6" stroke-linecap="round"/>
<circle cx="389.84" cy="371.35" r="4" fill="#1A1A1A" fill-opacity="0.4"/>
<line x1="389.84" y1="371.35" x2="409.65" y2="350.97" stroke="#D32F2F" stroke-width="6" stroke-linecap="round"/>
<circle cx="437.84" cy="341.75" r="4" fill="#1A1A1A" fill-opacity="0.4"/>
<line x1="437.84" y1="341.75" x2="415.04" y2="358.63" stroke="#D32F2F" stroke-width="6" stroke-linecap="round"/>
<circle cx="374.32" cy="353.07" r="4" fill="#1A1A1A" fill-opacity="0.4"/>
<line x1="374.32" y1="353.07" x2="393.00" y2="331.01" stroke="#D32F2F" stroke-width="6" stroke-linecap="round"/>
<circle cx="419.83" cy="319.18" r="4" fill="#1A1A1A" fill-opacity="0.4"/>
<line x1="419.83" y1="319.18" x2="396.85" y2="335.20" stroke="#D32F2F" stroke-width="6" stroke-linecap="round"/>
<circle cx="356.12" cy="335.30" r="4" fill="#1A1A1A" fill-opacity="0.4"/>
<line x1="356.12" y1="335.30" x2="373.39" y2="312.33" stroke="#D32F2F" stroke-width="6" stroke-linecap="round"/>
<circle cx="398.64" cy="296.72" r="4" fill="#1A1A1A" fill-opacity="0.4"/>
<line x1="398.64" y1="296.72" x2="377.34" y2="315.74" stroke="#D32F2F" stroke-width="6" stroke-linecap="round"/>
<circle cx="334.88" cy="318.77" r="4" fill="#1A1A1A" fill-opacity="0.4"/>
<line x1="334.88" y1="318.77" x2="348.86" y2="293.98" stroke="#D32F2F" stroke-width="6" stroke-linecap="round"/>
<circle cx="373.59" cy="275.62" r="4" fill="#1A1A1A" fill-opacity="0.4"/>
<line x1="373.59" y1="275.62" x2="354.17" y2="297.54" stroke="#D32F2F" stroke-width="6" stroke-linecap="round"/>
<circle cx="310.35" cy="304.91" r="4" fill="#1A1A1A" fill-opacity="0.4"/>
<line x1="310.35" y1="304.91" x2="320.64" y2="277.94" stroke="#D32F2F" stroke-width="6" stroke-linecap="round"/>
<circle cx="343.92" cy="258.52" r="4" fill="#1A1A1A" fill-opacity="0.4"/>
<line x1="343.92" y1="258.52" x2="329.17" y2="282.30" stroke="#D32F2F" stroke-width="6" stroke-linecap="round"/>
<circle cx="283.73" cy="293.45" r="4" fill="#1A1A1A" fill-opacity="0.4"/>
<line x1="283.73" y1="293.45" x2="290.41" y2="265.52" stroke="#D32F2F" stroke-width="6" stroke-linecap="round"/>
<circle cx="312.03" cy="243.57" r="4" fill="#1A1A1A" fill-opacity="0.4"/>
<line x1="312.03" y1="243.57" x2="299.90" y2="268.95" stroke="#D32F2F" stroke-width="6" stroke-linecap="round"/>
<circle cx="255.68" cy="285.17" r="4" fill="#1A1A1A" fill-opacity="0.4"/>
<line x1="255.68" y1="285.17" x2="258.81" y2="257.10" stroke="#D32F2F" stroke-width="6" stroke-linecap="round"/>
<circle cx="278.10" cy="232.81" r="4" fill="#1A1A1A" fill-opacity="0.4"/>
<line x1="278.10" y1="232.81" x2="265.78" y2="258.56" stroke="#D32F2F" stroke-width="6" stroke-linecap="round"/>
<circle cx="227.05" cy="282.25" r="4" fill="#1A1A1A" fill-opacity="0.4"/>
<line x1="227.05" y1="282.25" x2="229.58" y2="253.24" stroke="#D32F2F" stroke-width="6" stroke-linecap="round"/>
<circle cx="243.44" cy="226.64" r="4" fill="#1A1A1A" fill-opacity="0.4"/>
<line x1="243.44" y1="226.64" x2="235.08" y2="253.66" stroke="#D32F2F" stroke-width="6" stroke-linecap="round"/>
<circle cx="199.48" cy="281.29" r="4" fill="#1A1A1A" fill-opacity="0.4"/>
<line x1="199.48" y1="281.29" x2="198.53" y2="253.34" stroke="#D32F2F" stroke-width="6" stroke-linecap="round"/>
<circle cx="209.48" cy="224.39" r="4" fill="#1A1A1A" fill-opacity="0.4"/>
<line x1="209.48" y1="224.39" x2="204.44" y2="252.96" stroke="#D32F2F" stroke-width="6" stroke-linecap="round"/>
<circle cx="173.70" cy="285.48" r="4" fill="#1A1A1A" fill-opacity="0.4"/>
<line x1="173.70" y1="285.48" x2="167.23" y2="258.36" stroke="#D32F2F" stroke-width="6" stroke-linecap="round"/>
<circle cx="177.21" cy="228.07" r="4" fill="#1A1A1A" fill-opacity="0.4"/>
<line x1="177.21" y1="228.07" x2="176.72" y2="256.28" stroke="#D32F2F" stroke-width="6" stroke-linecap="round"/>
<circle cx="150.42" cy="292.25" r="4" fill="#1A1A1A" fill-opacity="0.4"/>
<line x1="150.42" y1="292.25" x2="142.88" y2="266.50" stroke="#D32F2F" stroke-width="6" stroke-linecap="round"/>
<circle cx="147.90" cy="236.48" r="4" fill="#1A1A1A" fill-opacity="0.4"/>
<line x1="147.90" y1="236.48" x2="149.07" y2="264.03" stroke="#D32F2F" stroke-width="6" stroke-linecap="round"/>
<circle cx="130.57" cy="303.28" r="4" fill="#1A1A1A" fill-opacity="0.4"/>
<line x1="130.57" y1="303.28" x2="119.82" y2="278.68" stroke="#D32F2F" stroke-width="6" stroke-linecap="round"/>
<circle cx="122.02" cy="247.46" r="4" fill="#1A1A1A" fill-opacity="0.4"/>
<line x1="122.02" y1="247.46" x2="127.08" y2="274.30" stroke="#D32F2F" stroke-width="6" stroke-linecap="round"/>
<circle cx="113.56" cy="315.39" r="4" fill="#1A1A1A" fill-opacity="0.4"/>
<line x1="113.56" y1="315.39" x2="102.18" y2="292.28" stroke="#D32F2F" stroke-width="6" stroke-linecap="round"/>
<circle cx="100.20" cy="262.41" r="4" fill="#1A1A1A" fill-opacity="0.4"/>
<line x1="100.20" y1="262.41" x2="106.90" y2="288.19" stroke="#D32F2F" stroke-width="6" stroke-linecap="round"/>
<circle cx="99.74" cy="329.47" r="4" fill="#1A1A1A" fill-opacity="0.4"/>
<line x1="99.74" y1="329.47" x2="86.85" y2="308.77" stroke="#D32F2F" stroke-width="6" stroke-linecap="round"/>
<circle cx="82.55" cy="280.01" r="4" fill="#1A1A1A" fill-opacity="0.4"/>
<line x1="82.55" y1="280.01" x2="90.79" y2="303.98" stroke="#D32F2F" stroke-width="6" stroke-linecap="round"/>
<circle cx="89.09" cy="345.21" r="4" fill="#1A1A1A" fill-opacity="0.4"/>
<line x1="89.09" y1="345.21" x2="74.44" y2="327.81" stroke="#D32F2F" stroke-width="6" stroke-linecap="round"/>
<circle cx="68.63" cy="298.67" r="4" fill="#1A1A1A" fill-opacity="0.4"/>
<line x1="68.63" y1="298.67" x2="77.17" y2="322.96" stroke="#D32F2F" stroke-width="6" stroke-linecap="round"/>
<circle cx="81.40" cy="362.13" r="4" fill="#1A1A1A" fill-opacity="0.4"/>
<line x1="81.40" y1="362.13" x2="67.32" y2="343.47" stroke="#D32F2F" stroke-width="6" stroke-linecap="round"/>
<circle cx="58.05" cy="317.76" r="4" fill="#1A1A1A" fill-opacity="0.4"/>
<line x1="58.05" y1="317.76" x2="68.18" y2="341.23" stroke="#D32F2F" stroke-width="6" stroke-linecap="round"/>
<circle cx="76.36" cy="379.76" r="4" fill="#1A1A1A" fill-opacity="0.4"/>
<line x1="76.36" y1="379.76" x2="60.87" y2="365.31" stroke="#D32F2F" stroke-width="6" stroke-linecap="round"/>
<circle cx="51.09" cy="338.00" r="4" fill="#1A1A1A" fill-opacity="0.4"/>
<line x1="51.09" y1="338.00" x2="62.68" y2="357.80" stroke="#D32F2F" stroke-width="6" stroke-linecap="round"/>
<circle cx="72.95" cy="397.03" r="4" fill="#1A1A1A" fill-opacity="0.4"/>
<line x1="72.95" y1="397.03" x2="58.33" y2="381.80" stroke="#D32F2F" stroke-width="6" stroke-linecap="round"/>
<circle cx="47.19" cy="358.46" r="4" fill="#1A1A1A" fill-opacity="0.4"/>
<line x1="47.19" y1="358.46" x2="58.97" y2="376.37" stroke="#D32F2F" stroke-width="6" stroke-linecap="round"/>
<circle cx="71.97" cy="414.83" r="4" fill="#1A1A1A" fill-opacity="0.4"/>
<line x1="71.97" y1="414.83" x2="57.58" y2="403.37" stroke="#D32F2F" stroke-width="6" stroke-linecap="round"/>
<circle cx="45.68" cy="378.24" r="4" fill="#1A1A1A" fill-opacity="0.4"/>
<line x1="45.68" y1="378.24" x2="57.50" y2="397.83" stroke="#D32F2F" stroke-width="6" stroke-linecap="round"/>
<circle cx="73.12" cy="432.74" r="4" fill="#1A1A1A" fill-opacity="0.4"/>
<line x1="73.12" y1="432.74" x2="58.86" y2="419.75" stroke="#D32F2F" stroke-width="6" stroke-linecap="round"/>
<circle cx="45.93" cy="396.69" r="4" fill="#1A1A1A" fill-opacity="0.4"/>
<line x1="45.93" y1="396.69" x2="58.55" y2="417.09" stroke="#D32F2F" stroke-width="6" stroke-linecap="round"/>
<circle cx="76.14" cy="450.42" r="4" fill="#1A1A1A" fill-opacity="0.4"/>
<line x1="76.14" y1="450.42" x2="62.27" y2="438.52" stroke="#D32F2F" stroke-width="6" stroke-linecap="round"/>
<circle cx="48.89" cy="415.48" r="4" fill="#1A1A1A" fill-opacity="0.4"/>
<line x1="48.89" y1="415.48" x2="60.96" y2="432.57" stroke="#D32F2F" stroke-width="6" stroke-linecap="round"/>
<circle cx="81.14" cy="467.84" r="4" fill="#1A1A1A" fill-opacity="0.4"/>
<line x1="81.14" y1="467.84" x2="67.01" y2="454.91" stroke="#D32F2F" stroke-width="6" stroke-linecap="round"/>
<circle cx="52.86" cy="432.19" r="4" fill="#1A1A1A" fill-opacity="0.4"/>
<line x1="52.86" y1="432.19" x2="65.79" y2="451.21" stroke="#D32F2F" stroke-width="6" stroke-linecap="round"/>
<circle cx="86.74" cy="483.56" r="4" fill="#1A1A1A" fill-opacity="0.4"/>
<line x1="86.74" y1="483.56" x2="73.36" y2="470.69" stroke="#D32F2F" stroke-width="6" stroke-linecap="round"/>
<circle cx="58.48" cy="447.98" r="4" fill="#1A1A1A" fill-opacity="0.4"/>
<line x1="58.48" y1="447.98" x2="71.94" y2="467.55" stroke="#D32F2F" stroke-width="6" stroke-linecap="round"/>
<circle cx="94.66" cy="498.90" r="4" fill="#1A1A1A" fill-opacity="0.4"/>
<line x1="94.66" y1="498.90" x2="81.63" y2="486.07" stroke="#D32F2F" stroke-width="6" stroke-linecap="round"/>
<circle cx="65.54" cy="462.63" r="4" fill="#1A1A1A" fill-opacity="0.4"/>
<line x1="65.54" y1="462.63" x2="78.33" y2="480.46" stroke="#D32F2F" stroke-width="6" stroke-linecap="round"/>
<circle cx="104.29" cy="513.03" r="4" fill="#1A1A1A" fill-opacity="0.4"/>
<line x1="104.29" y1="513.03" x2="90.06" y2="498.04" stroke="#D32F2F" stroke-width="6" stroke-linecap="round"/>
<circle cx="238.41" cy="35.30" r="4" fill="#1A1A1A" fill-opacity="0.4"/>
<line x1="238.41" y1="35.30" x2="218.91" y2="42.27" stroke="#D32F2F" stroke-width="6" stroke-linecap="round"/>
<circle cx="192.76" cy="54.10" r="4" fill="#1A1A1A" fill-opacity="0.4"/>
<line x1="192.76" y1="54.10" x2="214.65" y2="43.44" stroke="#D32F2F" stroke-width="6" stroke-linecap="round"/>
<circle cx="256.72" cy="31.68" r="4" fill="#1A1A1A" fill-opacity="0.4"/>
<line x1="256.72" y1="31.68" x2="240.94" y2="38.13" stroke="#D32F2F" stroke-width="6" stroke-linecap="round"/>
<circle cx="214.94" cy="48.81" r="4" fill="#1A1A1A" fill-opacity="0.4"/>
<line x1="214.94" y1="48.81" x2="235.51" y2="38.89" stroke="#D32F2F" stroke-width="6" stroke-linecap="round"/>
<circle cx="278.55" cy="29.91" r="4" fill="#1A1A1A" fill-opacity="0.4"/>
<line x1="278.55" y1="29.91" x2="267.34" y2="36.23" stroke="#D32F2F" stroke-width="6" stroke-linecap="round"/>
<circle cx="240.82" cy="46.04" r="4" fill="#1A1A1A" fill-opacity="0.4"/>
<line x1="240.82" y1="46.04" x2="259.73" y2="36.50" stroke="#D32F2F" stroke-width="6" stroke-linecap="round"/>
<circle cx="304.23" cy="29.96" r="4" fill="#1A1A1A" fill-opacity="0.4"/>
<line x1="304.23" y1="29.96" x2="294.70" y2="36.81" stroke="#D32F2F" stroke-width="6" stroke-linecap="round"/>
<circle cx="270.83" cy="45.55" r="4" fill="#1A1A1A" fill-opacity="0.4"/>
<line x1="270.83" y1="45.55" x2="284.68" y2="36.33" stroke="#D32F2F" stroke-width="6" stroke-linecap="round"/>
<circle cx="331.52" cy="32.53" r="4" fill="#1A1A1A" fill-opacity="0.4"/>
<line x1="331.52" y1="32.53" x2="323.92" y2="39.72" stroke="#D32F2F" stroke-width="6" stroke-linecap="round"/>
<circle cx="303.64" cy="47.90" r="4" fill="#1A1A1A" fill-opacity="0.4"/>
<line x1="303.64" y1="47.90" x2="318.09" y2="38.98" stroke="#D32F2F" stroke-width="6" stroke-linecap="round"/>
<circle cx="360.06" cy="37.34" r="4" fill="#1A1A1A" fill-opacity="0.4"/>
<line x1="360.06" y1="37.34" x2="355.66" y2="45.24" stroke="#D32F2F" stroke-width="6" stroke-linecap="round"/>
<circle cx="338.18" cy="53.08" r="4" fill="#1A1A1A" fill-opacity="0.4"/>
<line x1="338.18" y1="53.08" x2="347.88" y2="43.68" stroke="#D32F2F" stroke-width="6" stroke-linecap="round"/>
<circle cx="388.55" cy="44.36" r="4" fill="#1A1A1A" fill-opacity="0.4"/>
<line x1="388.55" y1="44.36" x2="387.51" y2="53.09" stroke="#D32F2F" stroke-width="6" stroke-linecap="round"/>
<circle cx="373.18" cy="60.79" r="4" fill="#1A1A1A" fill-opacity="0.4"/>
<line x1="373.18" y1="60.79" x2="379.92" y2="51.01" stroke="#D32F2F" stroke-width="6" stroke-linecap="round"/>
<circle cx="416.04" cy="52.77" r="4" fill="#1A1A1A" fill-opacity="0.4"/>
<line x1="416.04" y1="52.77" x2="419.80" y2="63.42" stroke="#D32F2F" stroke-width="6" stroke-linecap="round"/>
<circle cx="407.14" cy="71.32" r="4" fill="#1A1A1A" fill-opacity="0.4"/>
<line x1="407.14" y1="71.32" x2="411.82" y2="60.64" stroke="#D32F2F" stroke-width="6" stroke-linecap="round"/>
<circle cx="441.61" cy="62.89" r="4" fill="#1A1A1A" fill-opacity="0.4"/>
<line x1="441.61" y1="62.89" x2="447.66" y2="74.40" stroke="#D32F2F" stroke-width="6" stroke-linecap="round"/>
<circle cx="439.20" cy="82.49" r="4" fill="#1A1A1A" fill-opacity="0.4"/>
<line x1="439.20" y1="82.49" x2="439.52" y2="70.97" stroke="#D32F2F" stroke-width="6" stroke-linecap="round"/>
<circle cx="464.56" cy="73.47" r="4" fill="#1A1A1A" fill-opacity="0.4"/>
<line x1="464.56" y1="73.47" x2="473.31" y2="86.50" stroke="#D32F2F" stroke-width="6" stroke-linecap="round"/>
<circle cx="468.39" cy="95.85" r="4" fill="#1A1A1A" fill-opacity="0.4"/>
<line x1="468.39" y1="95.85" x2="466.60" y2="83.13" stroke="#D32F2F" stroke-width="6" stroke-linecap="round"/>
<circle cx="484.67" cy="84.52" r="4" fill="#1A1A1A" fill-opacity="0.4"/>
<line x1="484.67" y1="84.52" x2="494.39" y2="98.24" stroke="#D32F2F" stroke-width="6" stroke-linecap="round"/>
<circle cx="494.08" cy="109.25" r="4" fill="#1A1A1A" fill-opacity="0.4"/>
<line x1="494.08" y1="109.25" x2="491.26" y2="96.38" stroke="#D32F2F" stroke-width="6" stroke-linecap="round"/>
<circle cx="501.67" cy="95.50" r="4" fill="#1A1A1A" fill-opacity="0.4"/>
<line x1="501.67" y1="95.50" x2="513.37" y2="110.72" stroke="#D32F2F" stroke-width="6" stroke-linecap="round"/>
<circle cx="515.99" cy="122.66" r="4" fill="#1A1A1A" fill-opacity="0.4"/>
<line x1="515.99" y1="122.66" x2="509.79" y2="108.20" stroke="#D32F2F" stroke-width="6" stroke-linecap="round"/>
<circle cx="516.14" cy="106.83" r="4" fill="#1A1A1A" fill-opacity="0.4"/>
<line x1="516.14" y1="106.83" x2="529.65" y2="123.59" stroke="#D32F2F" stroke-width="6" stroke-linecap="round"/>
<circle cx="534.66" cy="136.98" r="4" fill="#1A1A1A" fill-opacity="0.4"/>
<line x1="534.66" y1="136.98" x2="526.94" y2="121.27" stroke="#D32F2F" stroke-width="6" stroke-linecap="round"/>
<circle cx="527.85" cy="118.04" r="4" fill="#1A1A1A" fill-opacity="0.4"/>
<line x1="527.85" y1="118.04" x2="542.17" y2="135.76" stroke="#D32F2F" stroke-width="6" stroke-linecap="round"/>
<circle cx="549.25" cy="149.87" r="4" fill="#1A1A1A" fill-opacity="0.4"/>
<line x1="549.25" y1="149.87" x2="538.73" y2="132.13" stroke="#D32F2F" stroke-width="6" stroke-linecap="round"/>
<circle cx="561.21" cy="163.73" r="4" fill="#1A1A1A" fill-opacity="0.4"/>
<line x1="561.21" y1="163.73" x2="549.57" y2="144.57" stroke="#D32F2F" stroke-width="6" stroke-linecap="round"/>
<circle cx="419.45" cy="585.52" r="4" fill="#1A1A1A" fill-opacity="0.4"/>
<line x1="419.45" y1="585.52" x2="445.07" y2="574.10" stroke="#D32F2F" stroke-width="6" stroke-linecap="round"/>
<circle cx="417.32" cy="584.30" r="4" fill="#1A1A1A" fill-opacity="0.4"/>
<line x1="417.32" y1="584.30" x2="444.10" y2="572.36" stroke="#D32F2F" stroke-width="6" stroke-linecap="round"/>
<circle cx="469.78" cy="558.97" r="4" fill="#1A1A1A" fill-opacity="0.4"/>
<line x1="469.78" y1="558.97" x2="444.17" y2="572.95" stroke="#D32F2F" stroke-width="6" stroke-linecap="round"/>
<circle cx="418.08" cy="578.94" r="4" fill="#1A1A1A" fill-opacity="0.4"/>
<line x1="418.08" y1="578.94" x2="444.24" y2="567.73" stroke="#D32F2F" stroke-width="6" stroke-linecap="round"/>
<circle cx="468.71" cy="556.03" r="4" fill="#1A1A1A" fill-opacity="0.4"/>
<line x1="468.71" y1="556.03" x2="444.13" y2="568.82" stroke="#D32F2F" stroke-width="6" stroke-linecap="round"/>
<circle cx="418.10" cy="571.23" r="4" fill="#1A1A1A" fill-opacity="0.4"/>
<line x1="418.10" y1="571.23" x2="445.27" y2="559.76" stroke="#D32F2F" stroke-width="6" stroke-linecap="round"/>
<circle cx="470.16" cy="549.42" r="4" fill="#1A1A1A" fill-opacity="0.4"/>
<line x1="470.16" y1="549.42" x2="445.02" y2="561.35" stroke="#D32F2F" stroke-width="6" stroke-linecap="round"/>
<circle cx="420.22" cy="560.57" r="4" fill="#1A1A1A" fill-opacity="0.4"/>
<line x1="420.22" y1="560.57" x2="446.97" y2="548.90" stroke="#D32F2F" stroke-width="6" stroke-linecap="round"/>
<circle cx="471.81" cy="540.76" r="4" fill="#1A1A1A" fill-opacity="0.4"/>
<line x1="471.81" y1="540.76" x2="446.36" y2="552.80" stroke="#D32F2F" stroke-width="6" stroke-linecap="round"/>
<circle cx="422.98" cy="547.82" r="4" fill="#1A1A1A" fill-opacity="0.4"/>
<line x1="422.98" y1="547.82" x2="448.62" y2="538.18" stroke="#D32F2F" stroke-width="6" stroke-linecap="round"/>
<circle cx="472.48" cy="530.74" r="4" fill="#1A1A1A" fill-opacity="0.4"/>
<line x1="472.48" y1="530.74" x2="448.31" y2="540.23" stroke="#D32F2F" stroke-width="6" stroke-linecap="round"/>
<circle cx="424.14" cy="533.94" r="4" fill="#1A1A1A" fill-opacity="0.4"/>
<line x1="424.14" y1="533.94" x2="450.45" y2="524.33" stroke="#D32F2F" stroke-width="6" stroke-linecap="round"/>
<circle cx="474.91" cy="517.94" r="4" fill="#1A1A1A" fill-opacity="0.4"/>
<line x1="474.91" y1="517.94" x2="450.18" y2="526.52" stroke="#D32F2F" stroke-width="6" stroke-linecap="round"/>
<circle cx="426.19" cy="518.39" r="4" fill="#1A1A1A" fill-opacity="0.4"/>
<line x1="426.19" y1="518.39" x2="451.99" y2="507.92" stroke="#D32F2F" stroke-width="6" stroke-linecap="round"/>
<circle cx="476.51" cy="503.73" r="4" fill="#1A1A1A" fill-opacity="0.4"/>
<line x1="476.51" y1="503.73" x2="451.55" y2="513.49" stroke="#D32F2F" stroke-width="6" stroke-linecap="round"/>
<circle cx="426.18" cy="502.16" r="4" fill="#1A1A1A" fill-opacity="0.4"/>
<line x1="426.18" y1="502.16" x2="452.74" y2="490.09" stroke="#D32F2F" stroke-width="6" stroke-linecap="round"/>
<circle cx="476.78" cy="488.25" r="4" fill="#1A1A1A" fill-opacity="0.4"/>
<line x1="476.78" y1="488.25" x2="452.55" y2="497.62" stroke="#D32F2F" stroke-width="6" stroke-linecap="round"/>
<circle cx="426.74" cy="484.66" r="4" fill="#1A1A1A" fill-opacity="0.4"/>
<line x1="426.74" y1="484.66" x2="452.45" y2="473.29" stroke="#D32F2F" stroke-width="6" stroke-linecap="round"/>
<circle cx="477.96" cy="470.43" r="4" fill="#1A1A1A" fill-opacity="0.4"/>
<line x1="477.96" y1="470.43" x2="452.66" y2="478.96" stroke="#D32F2F" stroke-width="6" stroke-linecap="round"/>
<circle cx="424.86" cy="466.82" r="4" fill="#1A1A1A" fill-opacity="0.4"/>
<line x1="424.86" y1="466.82" x2="451.08" y2="456.74" stroke="#D32F2F" stroke-width="6" stroke-linecap="round"/>
<circle cx="476.58" cy="451.77" r="4" fill="#1A1A1A" fill-opacity="0.4"/>
<line x1="476.58" y1="451.77" x2="451.40" y2="459.62" stroke="#D32F2F" stroke-width="6" stroke-linecap="round"/>
<circle cx="422.78" cy="448.00" r="4" fill="#1A1A1A" fill-opacity="0.4"/>
<line x1="422.78" y1="448.00" x2="447.42" y2="434.49" stroke="#D32F2F" stroke-width="6" stroke-linecap="round"/>
<circle cx="474.07" cy="431.55" r="4" fill="#1A1A1A" fill-opacity="0.4"/>
<line x1="474.07" y1="431.55" x2="448.58" y2="440.29" stroke="#D32F2F" stroke-width="6" stroke-linecap="round"/>
<circle cx="418.03" cy="429.04" r="4" fill="#1A1A1A" fill-opacity="0.4"/>
<line x1="418.03" y1="429.04" x2="441.75" y2="413.31" stroke="#D32F2F" stroke-width="6" stroke-linecap="round"/>
<circle cx="469.21" cy="410.28" r="4" fill="#1A1A1A" fill-opacity="0.4"/>
<line x1="469.21" y1="410.28" x2="444.06" y2="421.06" stroke="#D32F2F" stroke-width="6" stroke-linecap="round"/>
<circle cx="410.78" cy="410.03" r="4" fill="#1A1A1A" fill-opacity="0.4"/>
<line x1="410.78" y1="410.03" x2="434.78" y2="394.74" stroke="#D32F2F" stroke-width="6" stroke-linecap="round"/>
<circle cx="461.58" cy="388.19" r="4" fill="#1A1A1A" fill-opacity="0.4"/>
<line x1="461.58" y1="388.19" x2="437.05" y2="400.29" stroke="#D32F2F" stroke-width="6" stroke-linecap="round"/>
<circle cx="400.97" cy="391.08" r="4" fill="#1A1A1A" fill-opacity="0.4"/>
<line x1="400.97" y1="391.08" x2="423.36" y2="371.87" stroke="#D32F2F" stroke-width="6" stroke-linecap="round"/>
<circle cx="450.84" cy="365.55" r="4" fill="#1A1A1A" fill-opacity="0.4"/>
<line x1="450.84" y1="365.55" x2="426.14" y2="376.82" stroke="#D32F2F" stroke-width="6" stroke-linecap="round"/>
<circle cx="389.19" cy="371.84" r="4" fill="#1A1A1A" fill-opacity="0.4"/>
<line x1="389.19" y1="371.84" x2="409.48" y2="350.73" stroke="#D32F2F" stroke-width="6" stroke-linecap="round"/>
<circle cx="437.77" cy="341.80" r="4" fill="#1A1A1A" fill-opacity="0.4"/>
<line x1="437.77" y1="341.80" x2="414.31" y2="357.54" stroke="#D32F2F" stroke-width="6" stroke-linecap="round"/>
<circle cx="374.05" cy="353.33" r="4" fill="#1A1A1A" fill-opacity="0.4"/>
<line x1="374.05" y1="353.33" x2="391.76" y2="329.66" stroke="#D32F2F" stroke-width="6" stroke-linecap="round"/>
<circle cx="419.83" cy="319.17" r="4" fill="#1A1A1A" fill-opacity="0.4"/>
<line x1="419.83" y1="319.17" x2="397.03" y2="335.42" stroke="#D32F2F" stroke-width="6" stroke-linecap="round"/>
<circle cx="356.02" cy="335.42" r="4" fill="#1A1A1A" fill-opacity="0.4"/>
<line x1="356.02" y1="335.42" x2="372.47" y2="311.54" stroke="#D32F2F" stroke-width="6" stroke-linecap="round"/>
<circle cx="398.54" cy="296.83" r="4" fill="#1A1A1A" fill-opacity="0.4"/>
<line x1="398.54" y1="296.83" x2="377.34" y2="315.74" stroke="#D32F2F" stroke-width="6" stroke-linecap="round"/>
<circle cx="334.82" cy="318.85" r="4" fill="#1A1A1A" fill-opacity="0.4"/>
<line x1="334.82" y1="318.85" x2="346.81" y2="292.62" stroke="#D32F2F" stroke-width="6" stroke-linecap="round"/>
<circle cx="373.46" cy="275.81" r="4" fill="#1A1A1A" fill-opacity="0.4"/>
<line x1="373.46" y1="275.81" x2="356.26" y2="299.03" stroke="#D32F2F" stroke-width="6" stroke-linecap="round"/>
<circle cx="310.07" cy="305.48" r="4" fill="#1A1A1A" fill-opacity="0.4"/>
<line x1="310.07" y1="305.48" x2="321.77" y2="278.50" stroke="#D32F2F" stroke-width="6" stroke-linecap="round"/>
<circle cx="344.15" cy="258.10" r="4" fill="#1A1A1A" fill-opacity="0.4"/>
<line x1="344.15" y1="258.10" x2="327.61" y2="281.46" stroke="#D32F2F" stroke-width="6" stroke-linecap="round"/>
<circle cx="283.71" cy="293.50" r="4" fill="#1A1A1A" fill-opacity="0.4"/>
<line x1="283.71" y1="293.50" x2="292.84" y2="266.37" stroke="#D32F2F" stroke-width="6" stroke-linecap="round"/>
<circle cx="312.37" cy="242.77" r="4" fill="#1A1A1A" fill-opacity="0.4"/>
<line x1="312.37" y1="242.77" x2="300.06" y2="269.02" stroke="#D32F2F" stroke-width="6" stroke-linecap="round"/>
<circle cx="255.64" cy="285.37" r="4" fill="#1A1A1A" fill-opacity="0.4"/>
<line x1="255.64" y1="285.37" x2="258.07" y2="256.95" stroke="#D32F2F" stroke-width="6" stroke-linecap="round"/>
<circle cx="278.15" cy="232.66" r="4" fill="#1A1A1A" fill-opacity="0.4"/>
<line x1="278.15" y1="232.66" x2="265.89" y2="258.59" stroke="#D32F2F" stroke-width="6" stroke-linecap="round"/>
<circle cx="227.08" cy="282.02" r="4" fill="#1A1A1A" fill-opacity="0.4"/>
<line x1="227.08" y1="282.02" x2="228.68" y2="253.18" stroke="#D32F2F" stroke-width="6" stroke-linecap="round"/>
<circle cx="243.38" cy="226.95" r="4" fill="#1A1A1A" fill-opacity="0.4"/>
<line x1="243.38" y1="226.95" x2="233.86" y2="253.53" stroke="#D32F2F" stroke-width="6" stroke-linecap="round"/>
<circle cx="199.47" cy="281.11" r="4" fill="#1A1A1A" fill-opacity="0.4"/>
<line x1="199.47" y1="281.11" x2="196.06" y2="253.53" stroke="#D32F2F" stroke-width="6" stroke-linecap="round"/>
<circle cx="209.43" cy="225.00" r="4" fill="#1A1A1A" fill-opacity="0.4"/>
<line x1="209.43" y1="225.00" x2="203.64" y2="252.99" stroke="#D32F2F" stroke-width="6" stroke-linecap="round"/>
<circle cx="173.74" cy="285.79" r="4" fill="#1A1A1A" fill-opacity="0.4"/>
<line x1="173.74" y1="285.79" x2="167.77" y2="258.24" stroke="#D32F2F" stroke-width="6" stroke-linecap="round"/>
<circle cx="177.21" cy="228.49" r="4" fill="#1A1A1A" fill-opacity="0.4"/>
<line x1="177.21" y1="228.49" x2="174.30" y2="256.74" stroke="#D32F2F" stroke-width="6" stroke-linecap="round"/>
<circle cx="150.42" cy="292.24" r="4" fill="#1A1A1A" fill-opacity="0.4"/>
<line x1="150.42" y1="292.24" x2="143.63" y2="266.19" stroke="#D32F2F" stroke-width="6" stroke-linecap="round"/>
<circle cx="147.86" cy="236.13" r="4" fill="#1A1A1A" fill-opacity="0.4"/>
<line x1="147.86" y1="236.13" x2="149.66" y2="263.81" stroke="#D32F2F" stroke-width="6" stroke-linecap="round"/>
<circle cx="130.51" cy="303.09" r="4" fill="#1A1A1A" fill-opacity="0.4"/>
<line x1="130.51" y1="303.09" x2="120.45" y2="278.29" stroke="#D32F2F" stroke-width="6" stroke-linecap="round"/>
<circle cx="122.13" cy="248.04" r="4" fill="#1A1A1A" fill-opacity="0.4"/>
<line x1="122.13" y1="248.04" x2="126.01" y2="274.90" stroke="#D32F2F" stroke-width="6" stroke-linecap="round"/>
<circle cx="113.75" cy="315.80" r="4" fill="#1A1A1A" fill-opacity="0.4"/>
<line x1="113.75" y1="315.80" x2="102.20" y2="292.26" stroke="#D32F2F" stroke-width="6" stroke-linecap="round"/>
<circle cx="100.26" cy="262.60" r="4" fill="#1A1A1A" fill-opacity="0.4"/>
<line x1="100.26" y1="262.60" x2="106.84" y2="288.24" stroke="#D32F2F" stroke-width="6" stroke-linecap="round"/>
<circle cx="99.78" cy="329.54" r="4" fill="#1A1A1A" fill-opacity="0.4"/>
<line x1="99.78" y1="329.54" x2="87.58" y2="307.86" stroke="#D32F2F" stroke-width="6" stroke-linecap="round"/>
<circle cx="82.65" cy="280.27" r="4" fill="#1A1A1A" fill-opacity="0.4"/>
<line x1="82.65" y1="280.27" x2="91.16" y2="303.55" stroke="#D32F2F" stroke-width="6" stroke-linecap="round"/>
<circle cx="89.29" cy="345.51" r="4" fill="#1A1A1A" fill-opacity="0.4"/>
<line x1="89.29" y1="345.51" x2="74.72" y2="327.31" stroke="#D32F2F" stroke-width="6" stroke-linecap="round"/>
<circle cx="68.75" cy="298.94" r="4" fill="#1A1A1A" fill-opacity="0.4"/>
<line x1="68.75" y1="298.94" x2="78.36" y2="321.02" stroke="#D32F2F" stroke-width="6" stroke-linecap="round"/>
<circle cx="81.35" cy="362.07" r="4" fill="#1A1A1A" fill-opacity="0.4"/>
<line x1="81.35" y1="362.07" x2="66.47" y2="345.69" stroke="#D32F2F" stroke-width="6" stroke-linecap="round"/>
<circle cx="58.06" cy="317.78" r="4" fill="#1A1A1A" fill-opacity="0.4"/>
<line x1="58.06" y1="317.78" x2="68.60" y2="340.22" stroke="#D32F2F" stroke-width="6" stroke-linecap="round"/>
<circle cx="75.83" cy="379.17" r="4" fill="#1A1A1A" fill-opacity="0.4"/>
<line x1="75.83" y1="379.17" x2="61.52" y2="362.45" stroke="#D32F2F" stroke-width="6" stroke-linecap="round"/>
<circle cx="51.42" cy="338.60" r="4" fill="#1A1A1A" fill-opacity="0.4"/>
<line x1="51.42" y1="338.60" x2="62.63" y2="358.01" stroke="#D32F2F" stroke-width="6" stroke-linecap="round"/>
<circle cx="72.71" cy="396.79" r="4" fill="#1A1A1A" fill-opacity="0.4"/>
<line x1="72.71" y1="396.79" x2="58.40" y2="381.09" stroke="#D32F2F" stroke-width="6" stroke-linecap="round"/>
<circle cx="47.12" cy="358.34" r="4" fill="#1A1A1A" fill-opacity="0.4"/>
<line x1="47.12" y1="358.34" x2="58.87" y2="377.14" stroke="#D32F2F" stroke-width="6" stroke-linecap="round"/>
<circle cx="72.43" cy="415.28" r="4" fill="#1A1A1A" fill-opacity="0.4"/>
<line x1="72.43" y1="415.28" x2="57.54" y2="401.83" stroke="#D32F2F" stroke-width="6" stroke-linecap="round"/>
<circle cx="45.45" cy="377.88" r="4" fill="#1A1A1A" fill-opacity="0.4"/>
<line x1="45.45" y1="377.88" x2="57.53" y2="395.48" stroke="#D32F2F" stroke-width="6" stroke-linecap="round"/>
<circle cx="73.44" cy="433.04" r="4" fill="#1A1A1A" fill-opacity="0.4"/>
<line x1="73.44" y1="433.04" x2="58.89" y2="419.99" stroke="#D32F2F" stroke-width="6" stroke-linecap="round"/>
<circle cx="45.98" cy="396.76" r="4" fill="#1A1A1A" fill-opacity="0.4"/>
<line x1="45.98" y1="396.76" x2="58.39" y2="415.60" stroke="#D32F2F" stroke-width="6" stroke-linecap="round"/>
<circle cx="76.07" cy="450.36" r="4" fill="#1A1A1A" fill-opacity="0.4"/>
<line x1="76.07" y1="450.36" x2="62.04" y2="437.57" stroke="#D32F2F" stroke-width="6" stroke-linecap="round"/>
<circle cx="48.87" cy="415.45" r="4" fill="#1A1A1A" fill-opacity="0.4"/>
<line x1="48.87" y1="415.45" x2="60.79" y2="431.72" stroke="#D32F2F" stroke-width="6" stroke-linecap="round"/>
<circle cx="81.12" cy="467.82" r="4" fill="#1A1A1A" fill-opacity="0.4"/>
<line x1="81.12" y1="467.82" x2="66.90" y2="454.59" stroke="#D32F2F" stroke-width="6" stroke-linecap="round"/>
<circle cx="52.71" cy="431.96" r="4" fill="#1A1A1A" fill-opacity="0.4"/>
<line x1="52.71" y1="431.96" x2="65.43" y2="450.07" stroke="#D32F2F" stroke-width="6" stroke-linecap="round"/>
<circle cx="86.75" cy="483.57" r="4" fill="#1A1A1A" fill-opacity="0.4"/>
<line x1="86.75" y1="483.57" x2="73.42" y2="470.82" stroke="#D32F2F" stroke-width="6" stroke-linecap="round"/>
<circle cx="58.73" cy="448.36" r="4" fill="#1A1A1A" fill-opacity="0.4"/>
<line x1="58.73" y1="448.36" x2="71.03" y2="465.44" stroke="#D32F2F" stroke-width="6" stroke-linecap="round"/>
<circle cx="94.99" cy="499.20" r="4" fill="#1A1A1A" fill-opacity="0.4"/>
<line x1="94.99" y1="499.20" x2="80.59" y2="484.37" stroke="#D32F2F" stroke-width="6" stroke-linecap="round"/>
<circle cx="65.03" cy="461.81" r="4" fill="#1A1A1A" fill-opacity="0.4"/>
<line x1="65.03" y1="461.81" x2="78.23" y2="480.27" stroke="#D32F2F" stroke-width="6" stroke-linecap="round"/>
<circle cx="104.43" cy="513.16" r="4" fill="#1A1A1A" fill-opacity="0.4"/>
<line x1="104.43" y1="513.16" x2="89.94" y2="497.88" stroke="#D32F2F" stroke-width="6" stroke-linecap="round"/>
<circle cx="238.56" cy="35.26" r="4" fill="#1A1A1A" fill-opacity="0.4"/>
<line x1="238.56" y1="35.26" x2="220.51" y2="41.87" stroke="#D32F2F" stroke-width="6" stroke-linecap="round"/>
<circle cx="193.08" cy="53.92" r="4" fill="#1A1A1A" fill-opacity="0.4"/>
<line x1="193.08" y1="53.92" x2="215.43" y2="43.22" stroke="#D32F2F" stroke-width="6" stroke-linecap="round"/>
<circle cx="256.75" cy="31.68" r="4" fill="#1A1A1A" fill-opacity="0.4"/>
<line x1="256.75" y1="31.68" x2="242.16" y2="37.98" stroke="#D32F2F" stroke-width="6" stroke-linecap="round"/>
<circle cx="214.72" cy="48.95" r="4" fill="#1A1A1A" fill-opacity="0.4"/>
<line x1="214.72" y1="48.95" x2="235.88" y2="38.84" stroke="#D32F2F" stroke-width="6" stroke-linecap="round"/>
<circle cx="278.77" cy="29.83" r="4" fill="#1A1A1A" fill-opacity="0.4"/>
<line x1="278.77" y1="29.83" x2="264.94" y2="36.28" stroke="#D32F2F" stroke-width="6" stroke-linecap="round"/>
<circle cx="240.78" cy="46.07" r="4" fill="#1A1A1A" fill-opacity="0.4"/>
<line x1="240.78" y1="46.07" x2="260.77" y2="36.45" stroke="#D32F2F" stroke-width="6" stroke-linecap="round"/>
<circle cx="304.07" cy="30.03" r="4" fill="#1A1A1A" fill-opacity="0.4"/>
<line x1="304.07" y1="30.03" x2="292.53" y2="36.67" stroke="#D32F2F" stroke-width="6" stroke-linecap="round"/>
<circle cx="270.71" cy="45.64" r="4" fill="#1A1A1A" fill-opacity="0.4"/>
<line x1="270.71" y1="45.64" x2="285.80" y2="36.37" stroke="#D32F2F" stroke-width="6" stroke-linecap="round"/>
<circle cx="331.46" cy="32.56" r="4" fill="#1A1A1A" fill-opacity="0.4"/>
<line x1="331.46" y1="32.56" x2="324.85" y2="39.85" stroke="#D32F2F" stroke-width="6" stroke-linecap="round"/>
<circle cx="303.57" cy="47.97" r="4" fill="#1A1A1A" fill-opacity="0.4"/>
<line x1="303.57" y1="47.97" x2="315.81" y2="38.70" stroke="#D32F2F" stroke-width="6" stroke-linecap="round"/>
<circle cx="359.90" cy="37.50" r="4" fill="#1A1A1A" fill-opacity="0.4"/>
<line x1="359.90" y1="37.50" x2="357.44" y2="45.63" stroke="#D32F2F" stroke-width="6" stroke-linecap="round"/>
<circle cx="338.08" cy="53.23" r="4" fill="#1A1A1A" fill-opacity="0.4"/>
<line x1="338.08" y1="53.23" x2="347.10" y2="43.52" stroke="#D32F2F" stroke-width="6" stroke-linecap="round"/>
<circle cx="388.60" cy="44.23" r="4" fill="#1A1A1A" fill-opacity="0.4"/>
<line x1="388.60" y1="44.23" x2="386.39" y2="52.77" stroke="#D32F2F" stroke-width="6" stroke-linecap="round"/>
<circle cx="373.04" cy="61.15" r="4" fill="#1A1A1A" fill-opacity="0.4"/>
<line x1="373.04" y1="61.15" x2="381.19" y2="51.36" stroke="#D32F2F" stroke-width="6" stroke-linecap="round"/>
<circle cx="416.04" cy="52.82" r="4" fill="#1A1A1A" fill-opacity="0.4"/>
<line x1="416.04" y1="52.82" x2="418.56" y2="62.97" stroke="#D32F2F" stroke-width="6" stroke-linecap="round"/>
<circle cx="407.16" cy="71.17" r="4" fill="#1A1A1A" fill-opacity="0.4"/>
<line x1="407.16" y1="71.17" x2="412.71" y2="60.94" stroke="#D32F2F" stroke-width="6" stroke-linecap="round"/>
<circle cx="441.48" cy="62.58" r="4" fill="#1A1A1A" fill-opacity="0.4"/>
<line x1="441.48" y1="62.58" x2="447.45" y2="74.31" stroke="#D32F2F" stroke-width="6" stroke-linecap="round"/>
<circle cx="439.20" cy="82.52" r="4" fill="#1A1A1A" fill-opacity="0.4"/>
<line x1="439.20" y1="82.52" x2="440.40" y2="71.34" stroke="#D32F2F" stroke-width="6" stroke-linecap="round"/>
<circle cx="464.50" cy="73.39" r="4" fill="#1A1A1A" fill-opacity="0.4"/>
<line x1="464.50" y1="73.39" x2="474.37" y2="87.06" stroke="#D32F2F" stroke-width="6" stroke-linecap="round"/>
<circle cx="468.43" cy="96.02" r="4" fill="#1A1A1A" fill-opacity="0.4"/>
<line x1="468.43" y1="96.02" x2="466.51" y2="83.08" stroke="#D32F2F" stroke-width="6" stroke-linecap="round"/>
<circle cx="484.63" cy="84.47" r="4" fill="#1A1A1A" fill-opacity="0.4"/>
<line x1="484.63" y1="84.47" x2="495.20" y2="98.73" stroke="#D32F2F" stroke-width="6" stroke-linecap="round"/>
<circle cx="494.15" cy="109.45" r="4" fill="#1A1A1A" fill-opacity="0.4"/>
<line x1="494.15" y1="109.45" x2="489.60" y2="95.40" stroke="#D32F2F" stroke-width="6" stroke-linecap="round"/>
<circle cx="501.75" cy="95.59" r="4" fill="#1A1A1A" fill-opacity="0.4"/>
<line x1="501.75" y1="95.59" x2="513.33" y2="110.69" stroke="#D32F2F" stroke-width="6" stroke-linecap="round"/>
<circle cx="516.13" cy="122.99" r="4" fill="#1A1A1A" fill-opacity="0.4"/>
<line x1="516.13" y1="122.99" x2="511.14" y2="109.14" stroke="#D32F2F" stroke-width="6" stroke-linecap="round"/>
<circle cx="516.33" cy="107.05" r="4" fill="#1A1A1A" fill-opacity="0.4"/>
<line x1="516.33" y1="107.05" x2="530.53" y2="124.37" stroke="#D32F2F" stroke-width="6" stroke-linecap="round"/>
<circle cx="534.59" cy="136.83" r="4" fill="#1A1A1A" fill-opacity="0.4"/>
<line x1="534.59" y1="136.83" x2="527.20" y2="121.48" stroke="#D32F2F" stroke-width="6" stroke-linecap="round"/>
<circle cx="527.72" cy="117.90" r="4" fill="#1A1A1A" fill-opacity="0.4"/>
<line x1="527.72" y1="117.90" x2="543.45" y2="137.17" stroke="#D32F2F" stroke-width="6" stroke-linecap="round"/>
<circle cx="549.34" cy="150.05" r="4" fill="#1A1A1A" fill-opacity="0.4"/>
<line x1="549.34" y1="150.05" x2="539.35" y2="132.78" stroke="#D32F2F" stroke-width="6" stroke-linecap="round"/>
<circle cx="561.22" cy="163.76" r="4" fill="#1A1A1A" fill-opacity="0.4"/>
<line x1="561.22" y1="163.76" x2="549.51" y2="144.49" stroke="#D32F2F" stroke-width="6" stroke-linecap="round"/>
</svg>