<svg width="630.0" height="630.0" viewBox="0 0 630.0 630.0" xmlns="http://www.w3.org/2000/svg">
<circle cx="315.0" cy="315.0" r="290.0" fill="#FDFDF5" stroke="#ccc" stroke-width="0.5"/>
<line x1="386.23" y1="594.68" x2="369.14" y2="599.89" stroke="#D32F2F" stroke-width="8.00" stroke-linecap="round"/>
<line x1="362.83" y1="598.83" x2="343.07" y2="603.39" stroke="#D32F2F" stroke-width="8.00" stroke-linecap="round"/>
<line x1="338.99" y1="600.47" x2="316.63" y2="604.02" stroke="#D32F2F" stroke-width="8.00" stroke-linecap="round"/>
<line x1="285.53" y1="603.38" x2="290.50" y2="601.34" stroke="#D32F2F" stroke-width="8.00" stroke-linecap="round"/>
<line x1="315.21" y1="599.23" x2="290.50" y2="601.34" stroke="#D32F2F" stroke-width="8.00" stroke-linecap="round"/>
<line x1="257.24" y1="597.90" x2="265.51" y2="595.03" stroke="#D32F2F" stroke-width="8.00" stroke-linecap="round"/>
<line x1="292.18" y1="594.77" x2="265.51" y2="595.03" stroke="#D32F2F" stroke-width="8.00" stroke-linecap="round"/>
<line x1="231.05" y1="588.25" x2="242.65" y2="584.91" stroke="#D32F2F" stroke-width="8.00" stroke-linecap="round"/>
<line x1="270.78" y1="586.88" x2="242.65" y2="584.91" stroke="#D32F2F" stroke-width="7.73" stroke-linecap="round"/>
<line x1="208.06" y1="574.48" x2="222.93" y2="571.10" stroke="#D32F2F" stroke-width="8.00" stroke-linecap="round"/>
<line x1="251.94" y1="575.59" x2="222.93" y2="571.10" stroke="#D32F2F" stroke-width="7.16" stroke-linecap="round"/>
<line x1="189.26" y1="556.95" x2="207.23" y2="553.99" stroke="#D32F2F" stroke-width="8.00" stroke-linecap="round"/>
<line x1="236.52" y1="561.21" x2="207.23" y2="553.99" stroke="#D32F2F" stroke-width="6.66" stroke-linecap="round"/>
<line x1="175.39" y1="536.35" x2="196.18" y2="534.28" stroke="#D32F2F" stroke-width="8.00" stroke-linecap="round"/>
<line x1="225.15" y1="544.33" x2="196.18" y2="534.28" stroke="#D32F2F" stroke-width="6.30" stroke-linecap="round"/>
<line x1="166.80" y1="513.56" x2="190.01" y2="512.83" stroke="#D32F2F" stroke-width="8.00" stroke-linecap="round"/>
<line x1="218.12" y1="525.71" x2="190.01" y2="512.83" stroke="#D32F2F" stroke-width="6.10" stroke-linecap="round"/>
<line x1="163.47" y1="489.56" x2="188.65" y2="490.54" stroke="#D32F2F" stroke-width="8.00" stroke-linecap="round"/>
<line x1="215.42" y1="506.17" x2="188.65" y2="490.54" stroke="#D32F2F" stroke-width="6.07" stroke-linecap="round"/>
<line x1="165.07" y1="465.25" x2="191.70" y2="468.20" stroke="#D32F2F" stroke-width="8.00" stroke-linecap="round"/>
<line x1="216.71" y1="486.45" x2="191.70" y2="468.20" stroke="#D32F2F" stroke-width="6.90" stroke-linecap="round"/>
<line x1="171.02" y1="441.37" x2="198.60" y2="446.43" stroke="#D32F2F" stroke-width="8.00" stroke-linecap="round"/>
<line x1="221.54" y1="467.08" x2="198.60" y2="446.43" stroke="#D32F2F" stroke-width="7.68" stroke-linecap="round"/>
<line x1="180.63" y1="418.45" x2="208.70" y2="425.62" stroke="#D32F2F" stroke-width="8.00" stroke-linecap="round"/>
<line x1="229.37" y1="448.41" x2="208.70" y2="425.62" stroke="#D32F2F" stroke-width="8.00" stroke-linecap="round"/>
<line x1="193.18" y1="396.80" x2="221.38" y2="405.96" stroke="#D32F2F" stroke-width="8.00" stroke-linecap="round"/>
<line x1="239.69" y1="430.61" x2="221.38" y2="405.96" stroke="#D32F2F" stroke-width="8.00" stroke-linecap="round"/>
<line x1="207.97" y1="376.57" x2="236.07" y2="387.49" stroke="#D32F2F" stroke-width="8.00" stroke-linecap="round"/>
<line x1="252.07" y1="413.68" x2="236.07" y2="387.49" stroke="#D32F2F" stroke-width="8.00" stroke-linecap="round"/>
<line x1="224.38" y1="357.73" x2="252.24" y2="370.12" stroke="#D32F2F" stroke-width="8.00" stroke-linecap="round"/>
<line x1="266.12" y1="397.54" x2="252.24" y2="370.12" stroke="#D32F2F" stroke-width="8.00" stroke-linecap="round"/>
<line x1="241.87" y1="340.14" x2="269.46" y2="353.68" stroke="#D32F2F" stroke-width="8.00" stroke-linecap="round"/>
<line x1="281.54" y1="382.04" x2="269.46" y2="353.68" stroke="#D32F2F" stroke-width="8.00" stroke-linecap="round"/>
<line x1="259.98" y1="323.61" x2="287.37" y2="337.96" stroke="#D32F2F" stroke-width="8.00" stroke-linecap="round"/>
<line x1="298.05" y1="366.98" x2="287.37" y2="337.96" stroke="#D32F2F" stroke-width="8.00" stroke-linecap="round"/>
<line x1="278.35" y1="307.89" x2="305.62" y2="322.69" stroke="#D32F2F" stroke-width="8.00" stroke-linecap="round"/>
<line x1="315.40" y1="352.14" x2="305.62" y2="322.69" stroke="#D32F2F" stroke-width="8.00" stroke-linecap="round"/>
<line x1="296.65" y1="292.73" x2="323.94" y2="307.63" stroke="#D32F2F" stroke-width="8.00" stroke-linecap="round"/>
<line x1="333.35" y1="337.27" x2="323.94" y2="307.63" stroke="#D32F2F" stroke-width="8.00" stroke-linecap="round"/>
<line x1="314.60" y1="277.86" x2="342.06" y2="292.50" stroke="#D32F2F" stroke-width="8.00" stroke-linecap="round"/>
<line x1="351.65" y1="322.11" x2="342.06" y2="292.50" stroke="#D32F2F" stroke-width="8.00" stroke-linecap="round"/>
<line x1="331.95" y1="263.02" x2="359.71" y2="277.04" stroke="#D32F2F" stroke-width="8.00" stroke-linecap="round"/>
<line x1="370.02" y1="306.39" x2="359.71" y2="277.04" stroke="#D32F2F" stroke-width="8.00" stroke-linecap="round"/>
<line x1="348.46" y1="247.96" x2="376.60" y2="261.02" stroke="#D32F2F" stroke-width="8.00" stroke-linecap="round"/>
<line x1="388.13" y1="289.86" x2="376.60" y2="261.02" stroke="#D32F2F" stroke-width="8.00" stroke-linecap="round"/>
<line x1="363.88" y1="232.46" x2="392.44" y2="244.20" stroke="#D32F2F" stroke-width="8.00" stroke-linecap="round"/>
<line x1="405.62" y1="272.27" x2="392.44" y2="244.20" stroke="#D32F2F" stroke-width="8.00" stroke-linecap="round"/>
<line x1="377.93" y1="216.32" x2="406.87" y2="226.41" stroke="#D32F2F" stroke-width="8.00" stroke-linecap="round"/>
<line x1="422.03" y1="253.43" x2="406.87" y2="226.41" stroke="#D32F2F" stroke-width="8.00" stroke-linecap="round"/>
<line x1="390.31" y1="199.39" x2="419.46" y2="207.55" stroke="#D32F2F" stroke-width="8.00" stroke-linecap="round"/>
<line x1="436.82" y1="233.20" x2="419.46" y2="207.55" stroke="#D32F2F" stroke-width="8.00" stroke-linecap="round"/>
<line x1="400.63" y1="181.59" x2="429.72" y2="187.59" stroke="#D32F2F" stroke-width="8.00" stroke-linecap="round"/>
<line x1="449.37" y1="211.55" x2="429.72" y2="187.59" stroke="#D32F2F" stroke-width="8.00" stroke-linecap="round"/>
<line x1="408.46" y1="162.92" x2="437.10" y2="166.64" stroke="#D32F2F" stroke-width="8.00" stroke-linecap="round"/>
<line x1="458.98" y1="188.63" x2="437.10" y2="166.64" stroke="#D32F2F" stroke-width="7.32" stroke-linecap="round"/>
<line x1="413.29" y1="143.55" x2="440.99" y2="144.99" stroke="#D32F2F" stroke-width="8.00" stroke-linecap="round"/>
<line x1="464.93" y1="164.75" x2="440.99" y2="144.99" stroke="#D32F2F" stroke-width="6.52" stroke-linecap="round"/>
<line x1="414.58" y1="123.83" x2="440.82" y2="123.14" stroke="#D32F2F" stroke-width="8.00" stroke-linecap="round"/>
<line x1="466.53" y1="140.44" x2="440.82" y2="123.14" stroke="#D32F2F" stroke-width="5.67" stroke-linecap="round"/>
<line x1="411.88" y1="104.29" x2="436.10" y2="101.75" stroke="#D32F2F" stroke-width="8.00" stroke-linecap="round"/>
<line x1="463.20" y1="116.44" x2="436.10" y2="101.75" stroke="#D32F2F" stroke-width="5.75" stroke-linecap="round"/>
<line x1="404.85" y1="85.67" x2="426.58" y2="81.66" stroke="#D32F2F" stroke-width="8.00" stroke-linecap="round"/>
<line x1="454.61" y1="93.65" x2="426.58" y2="81.66" stroke="#D32F2F" stroke-width="6.02" stroke-linecap="round"/>
<line x1="393.48" y1="68.79" x2="412.29" y2="63.77" stroke="#D32F2F" stroke-width="8.00" stroke-linecap="round"/>
<line x1="440.74" y1="73.05" x2="412.29" y2="63.77" stroke="#D32F2F" stroke-width="6.44" stroke-linecap="round"/>
<line x1="378.06" y1="54.41" x2="393.66" y2="48.87" stroke="#D32F2F" stroke-width="8.00" stroke-linecap="round"/>
<line x1="421.94" y1="55.52" x2="393.66" y2="48.87" stroke="#D32F2F" stroke-width="7.00" stroke-linecap="round"/>
<line x1="359.22" y1="43.12" x2="371.41" y2="37.52" stroke="#D32F2F" stroke-width="8.00" stroke-linecap="round"/>
<line x1="398.95" y1="41.75" x2="371.41" y2="37.52" stroke="#D32F2F" stroke-width="7.63" stroke-linecap="round"/>
<line x1="337.82" y1="35.23" x2="346.53" y2="30.02" stroke="#D32F2F" stroke-width="8.00" stroke-linecap="round"/>
<line x1="372.76" y1="32.10" x2="346.53" y2="30.02" stroke="#D32F2F" stroke-width="8.00" stroke-linecap="round"/>
<line x1="314.79" y1="30.77" x2="320.03" y2="26.33" stroke="#D32F2F" stroke-width="8.00" stroke-linecap="round"/>
<line x1="344.47" y1="26.62" x2="320.03" y2="26.33" stroke="#D32F2F" stroke-width="8.00" stroke-linecap="round"/>
<line x1="291.01" y1="29.53" x2="292.89" y2="26.20" stroke="#D32F2F" stroke-width="8.00" stroke-linecap="round"/>
<line x1="267.17" y1="31.17" x2="265.89" y2="29.22" stroke="#D32F2F" stroke-width="8.00" stroke-linecap="round"/>
<line x1="106.53" y1="115.45" x2="95.24" y2="125.78" stroke="#D32F2F" stroke-width="8.00" stroke-linecap="round"/>
<line x1="91.17" y1="133.35" x2="80.66" y2="144.22" stroke="#D32F2F" stroke-width="8.00" stroke-linecap="round"/>
<line x1="76.97" y1="152.95" x2="67.56" y2="163.91" stroke="#D32F2F" stroke-width="8.00" stroke-linecap="round"/>
<line x1="64.03" y1="174.31" x2="55.96" y2="184.88" stroke="#D32F2F" stroke-width="8.00" stroke-linecap="round"/>
<line x1="52.50" y1="197.45" x2="45.94" y2="207.12" stroke="#D32F2F" stroke-width="8.00" stroke-linecap="round"/>
<line x1="42.60" y1="222.36" x2="37.63" y2="230.61" stroke="#D32F2F" stroke-width="8.00" stroke-linecap="round"/>
<line x1="34.60" y1="248.93" x2="31.24" y2="255.25" stroke="#D32F2F" stroke-width="8.00" stroke-linecap="round"/>
<line x1="601.15" y1="353.09" x2="599.60" y2="370.65" stroke="#D32F2F" stroke-width="8.00" stroke-linecap="round"/>
<line x1="595.40" y1="381.07" x2="593.31" y2="396.27" stroke="#D32F2F" stroke-width="8.00" stroke-linecap="round"/>
<line x1="587.40" y1="407.64" x2="584.95" y2="420.63" stroke="#D32F2F" stroke-width="8.00" stroke-linecap="round"/>
<line x1="577.50" y1="432.55" x2="574.79" y2="443.61" stroke="#D32F2F" stroke-width="8.00" stroke-linecap="round"/>
<line x1="565.97" y1="455.69" x2="563.02" y2="465.13" stroke="#D32F2F" stroke-width="8.00" stroke-linecap="round"/>
<line x1="553.03" y1="477.05" x2="549.76" y2="485.19" stroke="#D32F2F" stroke-width="8.00" stroke-linecap="round"/>
<line x1="538.83" y1="496.65" x2="535.11" y2="503.81" stroke="#D32F2F" stroke-width="8.00" stroke-linecap="round"/>
<line x1="386.23" y1="594.68" x2="369.14" y2="599.89" stroke="#D32F2F" stroke-width="8.00" stroke-linecap="round"/>
<line x1="362.83" y1="598.83" x2="343.07" y2="603.39" stroke="#D32F2F" stroke-width="8.00" stroke-linecap="round"/>
<line x1="338.99" y1="600.47" x2="316.63" y2="604.02" stroke="#D32F2F" stroke-width="8.00" stroke-linecap="round"/>
<line x1="285.53" y1="603.38" x2="290.50" y2="601.34" stroke="#D32F2F" stroke-width="8.00" stroke-linecap="round"/>
<line x1="315.21" y1="599.23" x2="290.50" y2="601.34" stroke="#D32F2F" stroke-width="8.00" stroke-linecap="round"/>
<line x1="257.24" y1="597.90" x2="265.51" y2="595.03" stroke="#D32F2F" stroke-width="8.00" stroke-linecap="round"/>
<line x1="292.18" y1="594.77" x2="265.51" y2="595.03" stroke="#D32F2F" stroke-width="8.00" stroke-linecap="round"/>
<line x1="231.05" y1="588.25" x2="242.65" y2="584.91" stroke="#D32F2F" stroke-width="8.00" stroke-linecap="round"/>
<line x1="270.78" y1="586.88" x2="242.65" y2="584.91" stroke="#D32F2F" stroke-width="7.73" stroke-linecap="round"/>
<line x1="208.06" y1="574.48" x2="222.93" y2="571.10" stroke="#D32F2F" stroke-width="8.00" stroke-linecap="round"/>
<line x1="251.94" y1="575.59" x2="222.93" y2="571.10" stroke="#D32F2F" stroke-width="7.16" stroke-linecap="round"/>
<line x1="189.26" y1="556.95" x2="207.23" y2="553.99" stroke="#D32F2F" stroke-width="8.00" stroke-linecap="round"/>
<line x1="236.52" y1="561.21" x2="207.23" y2="553.99" stroke="#D32F2F" stroke-width="6.66" stroke-linecap="round"/>
<line x1="175.39" y1="536.35" x2="196.18" y2="534.28" stroke="#D32F2F" stroke-width="8.00" stroke-linecap="round"/>
<line x1="225.15" y1="544.33" x2="196.18" y2="534.28" stroke="#D32F2F" stroke-width="6.30" stroke-linecap="round"/>
<line x1="166.80" y1="513.56" x2="190.01" y2="512.83" stroke="#D32F2F" stroke-width="8.00" stroke-linecap="round"/>
<line x1="218.12" y1="525.71" x2="190.01" y2="512.83" stroke="#D32F2F" stroke-width="6.10" stroke-linecap="round"/>
<line x1="163.47" y1="489.56" x2="188.65" y2="490.54" stroke="#D32F2F" stroke-width="8.00" stroke-linecap="round"/>
<line x1="215.42" y1="506.17" x2="188.65" y2="490.54" stroke="#D32F2F" stroke-width="6.07" stroke-linecap="round"/>
<line x1="165.07" y1="465.25" x2="191.70" y2="468.20" stroke="#D32F2F" stroke-width="8.00" stroke-linecap="round"/>
<line x1="216.71" y1="486.45" x2="191.70" y2="468.20" stroke="#D32F2F" stroke-width="6.90" stroke-linecap="round"/>
<line x1="171.02" y1="441.37" x2="198.60" y2="446.43" stroke="#D32F2F" stroke-width="8.00" stroke-linecap="round"/>
<line x1="221.54" y1="467.08" x2="198.60" y2="446.43" stroke="#D32F2F" stroke-width="7.68" stroke-linecap="round"/>
<line x1="180.63" y1="418.45" x2="208.70" y2="425.62" stroke="#D32F2F" stroke-width="8.00" stroke-linecap="round"/>
<line x1="229.37" y1="448.41" x2="208.70" y2="425.62" stroke="#D32F2F" stroke-width="8.00" stroke-linecap="round"/>
<line x1="193.18" y1="396.80" x2="221.38" y2="405.96" stroke="#D32F2F" stroke-width="8.00" stroke-linecap="round"/>
<line x1="239.69" y1="430.61" x2="221.38" y2="405.96" stroke="#D32F2F" stroke-width="8.00" stroke-linecap="round"/>
<line x1="207.97" y1="376.57" x2="236.07" y2="387.49" stroke="#D32F2F" stroke-width="8.00" stroke-linecap="round"/>
<line x1="252.07" y1="413.68" x2="236.07" y2="387.49" stroke="#D32F2F" stroke-width="8.00" stroke-linecap="round"/>
<line x1="224.38" y1="357.73" x2="252.24" y2="370.12" stroke="#D32F2F" stroke-width="8.00" stroke-linecap="round"/>
<line x1="266.12" y1="397.54" x2="252.24" y2="370.12" stroke="#D32F2F" stroke-width="8.00" stroke-linecap="round"/>
<line x1="241.87" y1="340.14" x2="269.46" y2="353.68" stroke="#D32F2F" stroke-width="8.00" stroke-linecap="round"/>
<line x1="281.54" y1="382.04" x2="269.46" y2="353.68" stroke="#D32F2F" stroke-width="8.00" stroke-linecap="round"/>
<line x1="259.98" y1="323.61" x2="287.37" y2="337.96" stroke="#D32F2F" stroke-width="8.00" stroke-linecap="round"/>
<line x1="298.05" y1="366.98" x2="287.37" y2="337.96" stroke="#D32F2F" stroke-width="8.00" stroke-linecap="round"/>
<line x1="278.35" y1="307.89" x2="305.62" y2="322.69" stroke="#D32F2F" stroke-width="8.00" stroke-linecap="round"/>
<line x1="315.40" y1="352.14" x2="305.62" y2="322.69" stroke="#D32F2F" stroke-width="8.00" stroke-linecap="round"/>
<line x1="296.65" y1="292.73" x2="323.94" y2="307.63" stroke="#D32F2F" stroke-width="8.00" stroke-linecap="round"/>
<line x1="333.35" y1="337.27" x2="323.94" y2="307.63" stroke="#D32F2F" stroke-width="8.00" stroke-linecap="round"/>
<line x1="314.60" y1="277.86" x2="342.06" y2="292.50" stroke="#D32F2F" stroke-width="8.00" stroke-linecap="round"/>
<line x1="351.65" y1="322.11" x2="342.06" y2="292.50" stroke="#D32F2F" stroke-width="8.00" stroke-linecap="round"/>
<line x1="331.95" y1="263.02" x2="359.71" y2="277.04" stroke="#D32F2F" stroke-width="8.00" stroke-linecap="round"/>
<line x1="370.02" y1="306.39" x2="359.71" y2="277.04" stroke="#D32F2F" stroke-width="8.00" stroke-linecap="round"/>
<line x1="348.46" y1="247.96" x2="376.60" y2="261.02" stroke="#D32F2F" stroke-width="8.00" stroke-linecap="round"/>
<line x1="388.13" y1="289.86" x2="376.60" y2="261.02" stroke="#D32F2F" stroke-width="8.00" stroke-linecap="round"/>
<line x1="363.88" y1="232.46" x2="392.44" y2="244.20" stroke="#D32F2F" stroke-width="8.00" stroke-linecap="round"/>
<line x1="405.62" y1="272.27" x2="392.44" y2="244.20" stroke="#D32F2F" stroke-width="8.00" stroke-linecap="round"/>
<line x1="377.93" y1="216.32" x2="406.87" y2="226.41" stroke="#D32F2F" stroke-width="8.00" stroke-linecap="round"/>
<line x1="422.03" y1="253.43" x2="406.87" y2="226.41" stroke="#D32F2F" stroke-width="8.00" stroke-linecap="round"/>
<line x1="390.31" y1="199.39" x2="419.46" y2="207.55" stroke="#D32F2F" stroke-width="8.00" stroke-linecap="round"/>
<line x1="436.82" y1="233.20" x2="419.46" y2="207.55" stroke="#D32F2F" stroke-width="8.00" stroke-linecap="round"/>
<line x1="400.63" y1="181.59" x2="429.72" y2="187.59" stroke="#D32F2F" stroke-width="8.00" stroke-linecap="round"/>
<line x1="449.37" y1="211.55" x2="429.72" y2="187.59" stroke="#D32F2F" stroke-width="8.00" stroke-linecap="round"/>
<line x1="408.46" y1="162.92" x2="437.10" y2="166.64" stroke="#D32F2F" stroke-width="8.00" stroke-linecap="round"/>
<line x1="458.98" y1="188.63" x2="437.10" y2="166.64" stroke="#D32F2F" stroke-width="7.32" stroke-linecap="round"/>
<line x1="413.29" y1="143.55" x2="440.99" y2="144.99" stroke="#D32F2F" stroke-width="8.00" stroke-linecap="round"/>
<line x1="464.93" y1="164.75" x2="440.99" y2="144.99" stroke="#D32F2F" stroke-width="6.52" stroke-linecap="round"/>
<line x1="414.58" y1="123.83" x2="440.82" y2="123.14" stroke="#D32F2F" stroke-width="8.00" stroke-linecap="round"/>
<line x1="466.53" y1="140.44" x2="440.82" y2="123.14" stroke="#D32F2F" stroke-width="5.67" stroke-linecap="round"/>
<line x1="411.88" y1="104.29" x2="436.10" y2="101.75" stroke="#D32F2F" stroke-width="8.00" stroke-linecap="round"/>
<line x1="463.20" y1="116.44" x2="436.10" y2="101.75" stroke="#D32F2F" stroke-width="5.75" stroke-linecap="round"/>
<line x1="404.85" y1="85.67" x2="426.58" y2="81.66" stroke="#D32F2F" stroke-width="8.00" stroke-linecap="round"/>
<line x1="454.61" y1="93.65" x2="426.58" y2="81.66" stroke="#D32F2F" stroke-width="6.02" stroke-linecap="round"/>
<line x1="393.48" y1="68.79" x2="412.29" y2="63.77" stroke="#D32F2F" stroke-width="8.00" stroke-linecap="round"/>
<line x1="440.74" y1="73.05" x2="412.29" y2="63.77" stroke="#D32F2F" stroke-width="6.44" stroke-linecap="round"/>
<line x1="378.06" y1="54.41" x2="393.66" y2="48.87" stroke="#D32F2F" stroke-width="8.00" stroke-linecap="round"/>
<line x1="421.94" y1="55.52" x2="393.66" y2="48.87" stroke="#D32F2F" stroke-width="7.00" stroke-linecap="round"/>
<line x1="359.22" y1="43.12" x2="371.41" y2="37.52" stroke="#D32F2F" stroke-width="8.00" stroke-linecap="round"/>
<line x1="398.95" y1="41.75" x2="371.41" y2="37.52" stroke="#D32F2F" stroke-width="7.63" stroke-linecap="round"/>
<line x1="337.82" y1="35.23" x2="346.53" y2="30.02" stroke="#D32F2F" stroke-width="8.00" stroke-linecap="round"/>
<line x1="372.76" y1="32.10" x2="346.53" y2="30.02" stroke="#D32F2F" stroke-width="8.00" stroke-linecap="round"/>
<line x1="314.79" y1="30.77" x2="320.03" y2="26.33" stroke="#D32F2F" stroke-width="8.00" stroke-linecap="round"/>
<line x1="344.47" y1="26.62" x2="320.03" y2="26.33" stroke="#D32F2F" stroke-width="8.00" stroke-linecap="round"/>
<line x1="291.01" y1="29.53" x2="292.89" y2="26.20" stroke="#D32F2F" stroke-width="8.00" stroke-linecap="round"/>
<line x1="267.17" y1="31.17" x2="265.89" y2="29.22" stroke="#D32F2F" stroke-width="8.00" stroke-linecap="round"/>
<line x1="106.53" y1="115.45" x2="95.24" y2="125.78" stroke="#D32F2F" stroke-width="8.00" stroke-linecap="round"/>
<line x1="91.17" y1="133.35" x2="80.66" y2="144.22" stroke="#D32F2F" stroke-width="8.00" stroke-linecap="round"/>
<line x1="76.97" y1="152.95" x2="67.56" y2="163.91" stroke="#D32F2F" stroke-width="8.00" stroke-linecap="round"/>
<line x1="64.03" y1="174.31" x2="55.96" y2="184.88" stroke="#D32F2F" stroke-width="8.00" stroke-linecap="round"/>
<line x1="52.50" y1="197.45" x2="45.94" y2="207.12" stroke="#D32F2F" stroke-width="8.00" stroke-linecap="round"/>
<line x1="42.60" y1="222.36" x2="37.63" y2="230.61" stroke="#D32F2F" stroke-width="8.00" stroke-linecap="round"/>
<line x1="34.60" y1="248.93" x2="31.24" y2="255.25" stroke="#D32F2F" stroke-width="8.00" stroke-linecap="round"/>
<line x1="601.15" y1="353.09" x2="599.60" y2="370.65" stroke="#D32F2F" stroke-width="8.00" stroke-linecap="round"/>
<line x1="595.40" y1="381.07" x2="593.31" y2="396.27" stroke="#D32F2F" stroke-width="8.00" stroke-linecap="round"/>
<line x1="587.40" y1="407.64" x2="584.95" y2="420.63" stroke="#D32F2F" stroke-width="8.00" stroke-linecap="round"/>
<line x1="577.50" y1="432.55" x2="574.79" y2="443.61" stroke="#D32F2F" stroke-width="8.00" stroke-linecap="round"/>
<line x1="565.97" y1="455.69" x2="563.02" y2="465.13" stroke="#D32F2F" stroke-width="8.00" stroke-linecap="round"/>
<line x1="553.03" y1="477.05" x2="549.76" y2="485.19" stroke="#D32F2F" stroke-width="8.00" stroke-linecap="round"/>
<line x1="538.83" y1="496.65" x2="535.11" y2="503.81" stroke="#D32F2F" stroke-width="8.00" stroke-linecap="round"/>
</svg>