<svg width="630.0" height="630.0" viewBox="0 0 630.0 630.0" xmlns="http://www.w3.org/2000/svg">
<circle cx="315.0" cy="315.0" r="290.0" fill="#FDFDF5" stroke="#ccc" stroke-width="0.5"/>
<line x1="603.56" y1="286.39" x2="604.77" y2="316.51" stroke="#D32F2F" stroke-width="5.98" stroke-linecap="round"/>
<line x1="602.59" y1="346.65" x2="602.86" y2="319.44" stroke="#D32F2F" stroke-width="7.85" stroke-linecap="round"/>
<line x1="602.61" y1="289.37" x2="602.86" y2="319.44" stroke="#D32F2F" stroke-width="6.04" stroke-linecap="round"/>
<line x1="599.60" y1="349.36" x2="599.01" y2="321.81" stroke="#D32F2F" stroke-width="7.65" stroke-linecap="round"/>
<line x1="599.80" y1="291.94" x2="599.01" y2="321.81" stroke="#D32F2F" stroke-width="6.21" stroke-linecap="round"/>
<line x1="594.50" y1="351.34" x2="593.19" y2="323.24" stroke="#D32F2F" stroke-width="7.35" stroke-linecap="round"/>
<line x1="595.15" y1="293.74" x2="593.19" y2="323.24" stroke="#D32F2F" stroke-width="6.47" stroke-linecap="round"/>
<line x1="587.14" y1="352.14" x2="585.35" y2="323.35" stroke="#D32F2F" stroke-width="6.96" stroke-linecap="round"/>
<line x1="588.67" y1="294.45" x2="585.35" y2="323.35" stroke="#D32F2F" stroke-width="6.81" stroke-linecap="round"/>
<line x1="577.40" y1="351.29" x2="575.41" y2="321.77" stroke="#D32F2F" stroke-width="6.55" stroke-linecap="round"/>
<line x1="580.33" y1="293.73" x2="575.41" y2="321.77" stroke="#D32F2F" stroke-width="7.22" stroke-linecap="round"/>
<line x1="565.13" y1="348.31" x2="563.28" y2="318.12" stroke="#D32F2F" stroke-width="6.16" stroke-linecap="round"/>
<line x1="570.08" y1="291.23" x2="563.28" y2="318.12" stroke="#D32F2F" stroke-width="7.68" stroke-linecap="round"/>
<line x1="550.25" y1="342.72" x2="548.89" y2="312.01" stroke="#D32F2F" stroke-width="5.85" stroke-linecap="round"/>
<line x1="557.83" y1="286.64" x2="548.89" y2="312.01" stroke="#D32F2F" stroke-width="8.00" stroke-linecap="round"/>
<line x1="532.72" y1="334.12" x2="532.21" y2="303.12" stroke="#D32F2F" stroke-width="6.28" stroke-linecap="round"/>
<line x1="543.56" y1="279.64" x2="532.21" y2="303.12" stroke="#D32F2F" stroke-width="8.00" stroke-linecap="round"/>
<line x1="512.60" y1="322.18" x2="513.30" y2="291.20" stroke="#D32F2F" stroke-width="7.34" stroke-linecap="round"/>
<line x1="527.24" y1="269.96" x2="513.30" y2="291.20" stroke="#D32F2F" stroke-width="8.00" stroke-linecap="round"/>
<line x1="490.12" y1="306.77" x2="492.36" y2="276.17" stroke="#D32F2F" stroke-width="8.00" stroke-linecap="round"/>
<line x1="509.00" y1="257.45" x2="492.36" y2="276.17" stroke="#D32F2F" stroke-width="8.00" stroke-linecap="round"/>
<line x1="465.70" y1="287.97" x2="469.78" y2="258.13" stroke="#D32F2F" stroke-width="8.00" stroke-linecap="round"/>
<line x1="489.12" y1="242.15" x2="469.78" y2="258.13" stroke="#D32F2F" stroke-width="8.00" stroke-linecap="round"/>
<line x1="439.96" y1="266.15" x2="446.17" y2="237.47" stroke="#D32F2F" stroke-width="8.00" stroke-linecap="round"/>
<line x1="468.08" y1="224.31" x2="446.17" y2="237.47" stroke="#D32F2F" stroke-width="8.00" stroke-linecap="round"/>
<line x1="413.75" y1="241.95" x2="422.32" y2="214.82" stroke="#D32F2F" stroke-width="8.00" stroke-linecap="round"/>
<line x1="446.61" y1="204.48" x2="422.32" y2="214.82" stroke="#D32F2F" stroke-width="8.00" stroke-linecap="round"/>
<line x1="388.05" y1="216.25" x2="399.18" y2="191.02" stroke="#D32F2F" stroke-width="8.00" stroke-linecap="round"/>
<line x1="425.52" y1="183.39" x2="399.18" y2="191.02" stroke="#D32F2F" stroke-width="8.00" stroke-linecap="round"/>
<line x1="363.85" y1="190.04" x2="377.65" y2="167.02" stroke="#D32F2F" stroke-width="8.00" stroke-linecap="round"/>
<line x1="405.69" y1="161.92" x2="377.65" y2="167.02" stroke="#D32F2F" stroke-width="8.00" stroke-linecap="round"/>
<line x1="342.03" y1="164.30" x2="358.51" y2="143.70" stroke="#D32F2F" stroke-width="8.00" stroke-linecap="round"/>
<line x1="387.85" y1="140.88" x2="358.51" y2="143.70" stroke="#D32F2F" stroke-width="8.00" stroke-linecap="round"/>
<line x1="323.23" y1="139.88" x2="342.31" y2="121.81" stroke="#D32F2F" stroke-width="8.00" stroke-linecap="round"/>
<line x1="372.55" y1="121.00" x2="342.31" y2="121.81" stroke="#D32F2F" stroke-width="7.85" stroke-linecap="round"/>
<line x1="307.82" y1="117.40" x2="329.31" y2="101.87" stroke="#D32F2F" stroke-width="8.00" stroke-linecap="round"/>
<line x1="360.04" y1="102.76" x2="329.31" y2="101.87" stroke="#D32F2F" stroke-width="6.95" stroke-linecap="round"/>
<line x1="295.88" y1="97.28" x2="319.50" y2="84.18" stroke="#D32F2F" stroke-width="8.00" stroke-linecap="round"/>
<line x1="350.36" y1="86.44" x2="319.50" y2="84.18" stroke="#D32F2F" stroke-width="5.94" stroke-linecap="round"/>
<line x1="287.28" y1="79.75" x2="312.70" y2="68.90" stroke="#D32F2F" stroke-width="8.00" stroke-linecap="round"/>
<line x1="343.36" y1="72.17" x2="312.70" y2="68.90" stroke="#D32F2F" stroke-width="5.59" stroke-linecap="round"/>
<line x1="281.69" y1="64.87" x2="308.57" y2="56.04" stroke="#D32F2F" stroke-width="7.62" stroke-linecap="round"/>
<line x1="338.77" y1="59.92" x2="308.57" y2="56.04" stroke="#D32F2F" stroke-width="5.99" stroke-linecap="round"/>
<line x1="278.71" y1="52.60" x2="306.71" y2="45.53" stroke="#D32F2F" stroke-width="7.15" stroke-linecap="round"/>
<line x1="336.27" y1="49.67" x2="306.71" y2="45.53" stroke="#D32F2F" stroke-width="6.44" stroke-linecap="round"/>
<line x1="277.86" y1="42.86" x2="306.69" y2="37.29" stroke="#D32F2F" stroke-width="6.74" stroke-linecap="round"/>
<line x1="335.55" y1="41.33" x2="306.69" y2="37.29" stroke="#D32F2F" stroke-width="6.90" stroke-linecap="round"/>
<line x1="278.66" y1="35.50" x2="308.08" y2="31.22" stroke="#D32F2F" stroke-width="6.40" stroke-linecap="round"/>
<line x1="336.26" y1="34.85" x2="308.08" y2="31.22" stroke="#D32F2F" stroke-width="7.31" stroke-linecap="round"/>
<line x1="280.64" y1="30.40" x2="310.45" y2="27.23" stroke="#D32F2F" stroke-width="6.16" stroke-linecap="round"/>
<line x1="338.06" y1="30.20" x2="310.45" y2="27.23" stroke="#D32F2F" stroke-width="7.63" stroke-linecap="round"/>
<line x1="283.35" y1="27.41" x2="313.39" y2="25.25" stroke="#D32F2F" stroke-width="6.02" stroke-linecap="round"/>
<line x1="340.63" y1="27.39" x2="313.39" y2="25.25" stroke="#D32F2F" stroke-width="7.84" stroke-linecap="round"/>
<line x1="26.44" y1="343.61" x2="25.23" y2="313.49" stroke="#D32F2F" stroke-width="5.98" stroke-linecap="round"/>
<line x1="27.41" y1="283.35" x2="27.14" y2="310.56" stroke="#D32F2F" stroke-width="7.85" stroke-linecap="round"/>
<line x1="27.39" y1="340.63" x2="27.14" y2="310.56" stroke="#D32F2F" stroke-width="6.04" stroke-linecap="round"/>
<line x1="30.40" y1="280.64" x2="30.99" y2="308.19" stroke="#D32F2F" stroke-width="7.65" stroke-linecap="round"/>
<line x1="30.20" y1="338.06" x2="30.99" y2="308.19" stroke="#D32F2F" stroke-width="6.21" stroke-linecap="round"/>
<line x1="35.50" y1="278.66" x2="36.81" y2="306.76" stroke="#D32F2F" stroke-width="7.35" stroke-linecap="round"/>
<line x1="34.85" y1="336.26" x2="36.81" y2="306.76" stroke="#D32F2F" stroke-width="6.47" stroke-linecap="round"/>
<line x1="42.86" y1="277.86" x2="44.65" y2="306.65" stroke="#D32F2F" stroke-width="6.96" stroke-linecap="round"/>
<line x1="41.33" y1="335.55" x2="44.65" y2="306.65" stroke="#D32F2F" stroke-width="6.81" stroke-linecap="round"/>
<line x1="52.60" y1="278.71" x2="54.59" y2="308.23" stroke="#D32F2F" stroke-width="6.55" stroke-linecap="round"/>
<line x1="49.67" y1="336.27" x2="54.59" y2="308.23" stroke="#D32F2F" stroke-width="7.22" stroke-linecap="round"/>
<line x1="64.87" y1="281.69" x2="66.72" y2="311.88" stroke="#D32F2F" stroke-width="6.16" stroke-linecap="round"/>
<line x1="59.92" y1="338.77" x2="66.72" y2="311.88" stroke="#D32F2F" stroke-width="7.68" stroke-linecap="round"/>
<line x1="79.75" y1="287.28" x2="81.11" y2="317.99" stroke="#D32F2F" stroke-width="5.85" stroke-linecap="round"/>
<line x1="72.17" y1="343.36" x2="81.11" y2="317.99" stroke="#D32F2F" stroke-width="8.00" stroke-linecap="round"/>
<line x1="97.28" y1="295.88" x2="97.79" y2="326.88" stroke="#D32F2F" stroke-width="6.28" stroke-linecap="round"/>
<line x1="86.44" y1="350.36" x2="97.79" y2="326.88" stroke="#D32F2F" stroke-width="8.00" stroke-linecap="round"/>
<line x1="117.40" y1="307.82" x2="116.70" y2="338.80" stroke="#D32F2F" stroke-width="7.34" stroke-linecap="round"/>
<line x1="102.76" y1="360.04" x2="116.70" y2="338.80" stroke="#D32F2F" stroke-width="8.00" stroke-linecap="round"/>
<line x1="139.88" y1="323.23" x2="137.64" y2="353.83" stroke="#D32F2F" stroke-width="8.00" stroke-linecap="round"/>
<line x1="121.00" y1="372.55" x2="137.64" y2="353.83" stroke="#D32F2F" stroke-width="8.00" stroke-linecap="round"/>
<line x1="164.30" y1="342.03" x2="160.22" y2="371.87" stroke="#D32F2F" stroke-width="8.00" stroke-linecap="round"/>
<line x1="140.88" y1="387.85" x2="160.22" y2="371.87" stroke="#D32F2F" stroke-width="8.00" stroke-linecap="round"/>
<line x1="190.04" y1="363.85" x2="183.83" y2="392.53" stroke="#D32F2F" stroke-width="8.00" stroke-linecap="round"/>
<line x1="161.92" y1="405.69" x2="183.83" y2="392.53" stroke="#D32F2F" stroke-width="8.00" stroke-linecap="round"/>
<line x1="216.25" y1="388.05" x2="207.68" y2="415.18" stroke="#D32F2F" stroke-width="8.00" stroke-linecap="round"/>
<line x1="183.39" y1="425.52" x2="207.68" y2="415.18" stroke="#D32F2F" stroke-width="8.00" stroke-linecap="round"/>
<line x1="241.95" y1="413.75" x2="230.82" y2="438.98" stroke="#D32F2F" stroke-width="8.00" stroke-linecap="round"/>
<line x1="204.48" y1="446.61" x2="230.82" y2="438.98" stroke="#D32F2F" stroke-width="8.00" stroke-linecap="round"/>
<line x1="266.15" y1="439.96" x2="252.35" y2="462.98" stroke="#D32F2F" stroke-width="8.00" stroke-linecap="round"/>
<line x1="224.31" y1="468.08" x2="252.35" y2="462.98" stroke="#D32F2F" stroke-width="8.00" stroke-linecap="round"/>
<line x1="287.97" y1="465.70" x2="271.49" y2="486.30" stroke="#D32F2F" stroke-width="8.00" stroke-linecap="round"/>
<line x1="242.15" y1="489.12" x2="271.49" y2="486.30" stroke="#D32F2F" stroke-width="8.00" stroke-linecap="round"/>
<line x1="306.77" y1="490.12" x2="287.69" y2="508.19" stroke="#D32F2F" stroke-width="8.00" stroke-linecap="round"/>
<line x1="257.45" y1="509.00" x2="287.69" y2="508.19" stroke="#D32F2F" stroke-width="7.85" stroke-linecap="round"/>
<line x1="322.18" y1="512.60" x2="300.69" y2="528.13" stroke="#D32F2F" stroke-width="8.00" stroke-linecap="round"/>
<line x1="269.96" y1="527.24" x2="300.69" y2="528.13" stroke="#D32F2F" stroke-width="6.95" stroke-linecap="round"/>
<line x1="334.12" y1="532.72" x2="310.50" y2="545.82" stroke="#D32F2F" stroke-width="8.00" stroke-linecap="round"/>
<line x1="279.64" y1="543.56" x2="310.50" y2="545.82" stroke="#D32F2F" stroke-width="5.94" stroke-linecap="round"/>
<line x1="342.72" y1="550.25" x2="317.30" y2="561.10" stroke="#D32F2F" stroke-width="8.00" stroke-linecap="round"/>
<line x1="286.64" y1="557.83" x2="317.30" y2="561.10" stroke="#D32F2F" stroke-width="5.59" stroke-linecap="round"/>
<line x1="348.31" y1="565.13" x2="321.43" y2="573.96" stroke="#D32F2F" stroke-width="7.62" stroke-linecap="round"/>
<line x1="291.23" y1="570.08" x2="321.43" y2="573.96" stroke="#D32F2F" stroke-width="5.99" stroke-linecap="round"/>
<line x1="351.29" y1="577.40" x2="323.29" y2="584.47" stroke="#D32F2F" stroke-width="7.15" stroke-linecap="round"/>
<line x1="293.73" y1="580.33" x2="323.29" y2="584.47" stroke="#D32F2F" stroke-width="6.44" stroke-linecap="round"/>
<line x1="352.14" y1="587.14" x2="323.31" y2="592.71" stroke="#D32F2F" stroke-width="6.74" stroke-linecap="round"/>
<line x1="294.45" y1="588.67" x2="323.31" y2="592.71" stroke="#D32F2F" stroke-width="6.90" stroke-linecap="round"/>
<line x1="351.34" y1="594.50" x2="321.92" y2="598.78" stroke="#D32F2F" stroke-width="6.40" stroke-linecap="round"/>
<line x1="293.74" y1="595.15" x2="321.92" y2="598.78" stroke="#D32F2F" stroke-width="7.31" stroke-linecap="round"/>
<line x1="349.36" y1="599.60" x2="319.55" y2="602.77" stroke="#D32F2F" stroke-width="6.16" stroke-linecap="round"/>
<line x1="291.94" y1="599.80" x2="319.55" y2="602.77" stroke="#D32F2F" stroke-width="7.63" stroke-linecap="round"/>
<line x1="346.65" y1="602.59" x2="316.61" y2="604.75" stroke="#D32F2F" stroke-width="6.02" stroke-linecap="round"/>
<line x1="289.37" y1="602.61" x2="316.61" y2="604.75" stroke="#D32F2F" stroke-width="7.84" stroke-linecap="round"/>
<line x1="603.56" y1="286.39" x2="604.77" y2="316.51" stroke="#D32F2F" stroke-width="5.98" stroke-linecap="round"/>
<line x1="602.59" y1="346.65" x2="602.86" y2="319.44" stroke="#D32F2F" stroke-width="7.85" stroke-linecap="round"/>
<line x1="602.61" y1="289.37" x2="602.86" y2="319.44" stroke="#D32F2F" stroke-width="6.04" stroke-linecap="round"/>
<line x1="599.60" y1="349.36" x2="599.01" y2="321.81" stroke="#D32F2F" stroke-width="7.65" stroke-linecap="round"/>
<line x1="599.80" y1="291.94" x2="599.01" y2="321.81" stroke="#D32F2F" stroke-width="6.21" stroke-linecap="round"/>
<line x1="594.50" y1="351.34" x2="593.19" y2="323.24" stroke="#D32F2F" stroke-width="7.35" stroke-linecap="round"/>
<line x1="595.15" y1="293.74" x2="593.19" y2="323.24" stroke="#D32F2F" stroke-width="6.47" stroke-linecap="round"/>
<line x1="587.14" y1="352.14" x2="585.35" y2="323.35" stroke="#D32F2F" stroke-width="6.96" stroke-linecap="round"/>
<line x1="588.67" y1="294.45" x2="585.35" y2="323.35" stroke="#D32F2F" stroke-width="6.81" stroke-linecap="round"/>
<line x1="577.40" y1="351.29" x2="575.41" y2="321.77" stroke="#D32F2F" stroke-width="6.55" stroke-linecap="round"/>
<line x1="580.33" y1="293.73" x2="575.41" y2="321.77" stroke="#D32F2F" stroke-width="7.22" stroke-linecap="round"/>
<line x1="565.13" y1="348.31" x2="563.28" y2="318.12" stroke="#D32F2F" stroke-width="6.16" stroke-linecap="round"/>
<line x1="570.08" y1="291.23" x2="563.28" y2="318.12" stroke="#D32F2F" stroke-width="7.68" stroke-linecap="round"/>
<line x1="550.25" y1="342.72" x2="548.89" y2="312.01" stroke="#D32F2F" stroke-width="5.85" stroke-linecap="round"/>
<line x1="557.83" y1="286.64" x2="548.89" y2="312.01" stroke="#D32F2F" stroke-width="8.00" stroke-linecap="round"/>
<line x1="532.72" y1="334.12" x2="532.21" y2="303.12" stroke="#D32F2F" stroke-width="6.28" stroke-linecap="round"/>
<line x1="543.56" y1="279.64" x2="532.21" y2="303.12" stroke="#D32F2F" stroke-width="8.00" stroke-linecap="round"/>
<line x1="512.60" y1="322.18" x2="513.30" y2="291.20" stroke="#D32F2F" stroke-width="7.34" stroke-linecap="round"/>
<line x1="527.24" y1="269.96" x2="513.30" y2="291.20" stroke="#D32F2F" stroke-width="8.00" stroke-linecap="round"/>
<line x1="490.12" y1="306.77" x2="492.36" y2="276.17" stroke="#D32F2F" stroke-width="8.00" stroke-linecap="round"/>
<line x1="509.00" y1="257.45" x2="492.36" y2="276.17" stroke="#D32F2F" stroke-width="8.00" stroke-linecap="round"/>
<line x1="465.70" y1="287.97" x2="469.78" y2="258.13" stroke="#D32F2F" stroke-width="8.00" stroke-linecap="round"/>
<line x1="489.12" y1="242.15" x2="469.78" y2="258.13" stroke="#D32F2F" stroke-width="8.00" stroke-linecap="round"/>
<line x1="439.96" y1="266.15" x2="446.17" y2="237.47" stroke="#D32F2F" stroke-width="8.00" stroke-linecap="round"/>
<line x1="468.08" y1="224.31" x2="446.17" y2="237.47" stroke="#D32F2F" stroke-width="8.00" stroke-linecap="round"/>
<line x1="413.75" y1="241.95" x2="422.32" y2="214.82" stroke="#D32F2F" stroke-width="8.00" stroke-linecap="round"/>
<line x1="446.61" y1="204.48" x2="422.32" y2="214.82" stroke="#D32F2F" stroke-width="8.00" stroke-linecap="round"/>
<line x1="388.05" y1="216.25" x2="399.18" y2="191.02" stroke="#D32F2F" stroke-width="8.00" stroke-linecap="round"/>
<line x1="425.52" y1="183.39" x2="399.18" y2="191.02" stroke="#D32F2F" stroke-width="8.00" stroke-linecap="round"/>
<line x1="363.85" y1="190.04" x2="377.65" y2="167.02" stroke="#D32F2F" stroke-width="8.00" stroke-linecap="round"/>
<line x1="405.69" y1="161.92" x2="377.65" y2="167.02" stroke="#D32F2F" stroke-width="8.00" stroke-linecap="round"/>
<line x1="342.03" y1="164.30" x2="358.51" y2="143.70" stroke="#D32F2F" stroke-width="8.00" stroke-linecap="round"/>
<line x1="387.85" y1="140.88" x2="358.51" y2="143.70" stroke="#D32F2F" stroke-width="8.00" stroke-linecap="round"/>
<line x1="323.23" y1="139.88" x2="342.31" y2="121.81" stroke="#D32F2F" stroke-width="8.00" stroke-linecap="round"/>
<line x1="372.55" y1="121.00" x2="342.31" y2="121.81" stroke="#D32F2F" stroke-width="7.85" stroke-linecap="round"/>
<line x1="307.82" y1="117.40" x2="329.31" y2="101.87" stroke="#D32F2F" stroke-width="8.00" stroke-linecap="round"/>
<line x1="360.04" y1="102.76" x2="329.31" y2="101.87" stroke="#D32F2F" stroke-width="6.95" stroke-linecap="round"/>
<line x1="295.88" y1="97.28" x2="319.50" y2="84.18" stroke="#D32F2F" stroke-width="8.00" stroke-linecap="round"/>
<line x1="350.36" y1="86.44" x2="319.50" y2="84.18" stroke="#D32F2F" stroke-width="5.94" stroke-linecap="round"/>
<line x1="287.28" y1="79.75" x2="312.70" y2="68.90" stroke="#D32F2F" stroke-width="8.00" stroke-linecap="round"/>
<line x1="343.36" y1="72.17" x2="312.70" y2="68.90" stroke="#D32F2F" stroke-width="5.59" stroke-linecap="round"/>
<line x1="281.69" y1="64.87" x2="308.57" y2="56.04" stroke="#D32F2F" stroke-width="7.62" stroke-linecap="round"/>
<line x1="338.77" y1="59.92" x2="308.57" y2="56.04" stroke="#D32F2F" stroke-width="5.99" stroke-linecap="round"/>
<line x1="278.71" y1="52.60" x2="306.71" y2="45.53" stroke="#D32F2F" stroke-width="7.15" stroke-linecap="round"/>
<line x1="336.27" y1="49.67" x2="306.71" y2="45.53" stroke="#D32F2F" stroke-width="6.44" stroke-linecap="round"/>
<line x1="277.86" y1="42.86" x2="306.69" y2="37.29" stroke="#D32F2F" stroke-width="6.74" stroke-linecap="round"/>
<line x1="335.55" y1="41.33" x2="306.69" y2="37.29" stroke="#D32F2F" stroke-width="6.90" stroke-linecap="round"/>
<line x1="278.66" y1="35.50" x2="308.08" y2="31.22" stroke="#D32F2F" stroke-width="6.40" stroke-linecap="round"/>
<line x1="336.26" y1="34.85" x2="308.08" y2="31.22" stroke="#D32F2F" stroke-width="7.31" stroke-linecap="round"/>
<line x1="280.64" y1="30.40" x2="310.45" y2="27.23" stroke="#D32F2F" stroke-width="6.16" stroke-linecap="round"/>
<line x1="338.06" y1="30.20" x2="310.45" y2="27.23" stroke="#D32F2F" stroke-width="7.63" stroke-linecap="round"/>
<line x1="283.35" y1="27.41" x2="313.39" y2="25.25" stroke="#D32F2F" stroke-width="6.02" stroke-linecap="round"/>
<line x1="340.63" y1="27.39" x2="313.39" y2="25.25" stroke="#D32F2F" stroke-width="7.84" stroke-linecap="round"/>
<line x1="26.44" y1="343.61" x2="25.23" y2="313.49" stroke="#D32F2F" stroke-width="5.98" stroke-linecap="round"/>
<line x1="27.41" y1="283.35" x2="27.14" y2="310.56" stroke="#D32F2F" stroke-width="7.85" stroke-linecap="round"/>
<line x1="27.39" y1="340.63" x2="27.14" y2="310.56" stroke="#D32F2F" stroke-width="6.04" stroke-linecap="round"/>
<line x1="30.40" y1="280.64" x2="30.99" y2="308.19" stroke="#D32F2F" stroke-width="7.65" stroke-linecap="round"/>
<line x1="30.20" y1="338.06" x2="30.99" y2="308.19" stroke="#D32F2F" stroke-width="6.21" stroke-linecap="round"/>
<line x1="35.50" y1="278.66" x2="36.81" y2="306.76" stroke="#D32F2F" stroke-width="7.35" stroke-linecap="round"/>
<line x1="34.85" y1="336.26" x2="36.81" y2="306.76" stroke="#D32F2F" stroke-width="6.47" stroke-linecap="round"/>
<line x1="42.86" y1="277.86" x2="44.65" y2="306.65" stroke="#D32F2F" stroke-width="6.96" stroke-linecap="round"/>
<line x1="41.33" y1="335.55" x2="44.65" y2="306.65" stroke="#D32F2F" stroke-width="6.81" stroke-linecap="round"/>
<line x1="52.60" y1="278.71" x2="54.59" y2="308.23" stroke="#D32F2F" stroke-width="6.55" stroke-linecap="round"/>
<line x1="49.67" y1="336.27" x2="54.59" y2="308.23" stroke="#D32F2F" stroke-width="7.22" stroke-linecap="round"/>
<line x1="64.87" y1="281.69" x2="66.72" y2="311.88" stroke="#D32F2F" stroke-width="6.16" stroke-linecap="round"/>
<line x1="59.92" y1="338.77" x2="66.72" y2="311.88" stroke="#D32F2F" stroke-width="7.68" stroke-linecap="round"/>
<line x1="79.75" y1="287.28" x2="81.11" y2="317.99" stroke="#D32F2F" stroke-width="5.85" stroke-linecap="round"/>
<line x1="72.17" y1="343.36" x2="81.11" y2="317.99" stroke="#D32F2F" stroke-width="8.00" stroke-linecap="round"/>
<line x1="97.28" y1="295.88" x2="97.79" y2="326.88" stroke="#D32F2F" stroke-width="6.28" stroke-linecap="round"/>
<line x1="86.44" y1="350.36" x2="97.79" y2="326.88" stroke="#D32F2F" stroke-width="8.00" stroke-linecap="round"/>
<line x1="117.40" y1="307.82" x2="116.70" y2="338.80" stroke="#D32F2F" stroke-width="7.34" stroke-linecap="round"/>
<line x1="102.76" y1="360.04" x2="116.70" y2="338.80" stroke="#D32F2F" stroke-width="8.00" stroke-linecap="round"/>
<line x1="139.88" y1="323.23" x2="137.64" y2="353.83" stroke="#D32F2F" stroke-width="8.00" stroke-linecap="round"/>
<line x1="121.00" y1="372.55" x2="137.64" y2="353.83" stroke="#D32F2F" stroke-width="8.00" stroke-linecap="round"/>
<line x1="164.30" y1="342.03" x2="160.22" y2="371.87" stroke="#D32F2F" stroke-width="8.00" stroke-linecap="round"/>
<line x1="140.88" y1="387.85" x2="160.22" y2="371.87" stroke="#D32F2F" stroke-width="8.00" stroke-linecap="round"/>
<line x1="190.04" y1="363.85" x2="183.83" y2="392.53" stroke="#D32F2F" stroke-width="8.00" stroke-linecap="round"/>
<line x1="161.92" y1="405.69" x2="183.83" y2="392.53" stroke="#D32F2F" stroke-width="8.00" stroke-linecap="round"/>
<line x1="216.25" y1="388.05" x2="207.68" y2="415.18" stroke="#D32F2F" stroke-width="8.00" stroke-linecap="round"/>
<line x1="183.39" y1="425.52" x2="207.68" y2="415.18" stroke="#D32F2F" stroke-width="8.00" stroke-linecap="round"/>
<line x1="241.95" y1="413.75" x2="230.82" y2="438.98" stroke="#D32F2F" stroke-width="8.00" stroke-linecap="round"/>
<line x1="204.48" y1="446.61" x2="230.82" y2="438.98" stroke="#D32F2F" stroke-width="8.00" stroke-linecap="round"/>
<line x1="266.15" y1="439.96" x2="252.35" y2="462.98" stroke="#D32F2F" stroke-width="8.00" stroke-linecap="round"/>
<line x1="224.31" y1="468.08" x2="252.35" y2="462.98" stroke="#D32F2F" stroke-width="8.00" stroke-linecap="round"/>
<line x1="287.97" y1="465.70" x2="271.49" y2="486.30" stroke="#D32F2F" stroke-width="8.00" stroke-linecap="round"/>
<line x1="242.15" y1="489.12" x2="271.49" y2="486.30" stroke="#D32F2F" stroke-width="8.00" stroke-linecap="round"/>
<line x1="306.77" y1="490.12" x2="287.69" y2="508.19" stroke="#D32F2F" stroke-width="8.00" stroke-linecap="round"/>
<line x1="257.45" y1="509.00" x2="287.69" y2="508.19" stroke="#D32F2F" stroke-width="7.85" stroke-linecap="round"/>
<line x1="322.18" y1="512.60" x2="300.69" y2="528.13" stroke="#D32F2F" stroke-width="8.00" stroke-linecap="round"/>
<line x1="269.96" y1="527.24" x2="300.69" y2="528.13" stroke="#D32F2F" stroke-width="6.95" stroke-linecap="round"/>
<line x1="334.12" y1="532.72" x2="310.50" y2="545.82" stroke="#D32F2F" stroke-width="8.00" stroke-linecap="round"/>
<line x1="279.64" y1="543.56" x2="310.50" y2="545.82" stroke="#D32F2F" stroke-width="5.94" stroke-linecap="round"/>
<line x1="342.72" y1="550.25" x2="317.30" y2="561.10" stroke="#D32F2F" stroke-width="8.00" stroke-linecap="round"/>
<line x1="286.64" y1="557.83" x2="317.30" y2="561.10" stroke="#D32F2F" stroke-width="5.59" stroke-linecap="round"/>
<line x1="348.31" y1="565.13" x2="321.43" y2="573.96" stroke="#D32F2F" stroke-width="7.62" stroke-linecap="round"/>
<line x1="291.23" y1="570.08" x2="321.43" y2="573.96" stroke="#D32F2F" stroke-width="5.99" stroke-linecap="round"/>
<line x1="351.29" y1="577.40" x2="323.29" y2="584.47" stroke="#D32F2F" stroke-width="7.15" stroke-linecap="round"/>
<line x1="293.73" y1="580.33" x2="323.29" y2="584.47" stroke="#D32F2F" stroke-width="6.44" stroke-linecap="round"/>
<line x1="352.14" y1="587.14" x2="323.31" y2="592.71" stroke="#D32F2F" stroke-width="6.74" stroke-linecap="round"/>
<line x1="294.45" y1="588.67" x2="323.31" y2="592.71" stroke="#D32F2F" stroke-width="6.90" stroke-linecap="round"/>
<line x1="351.34" y1="594.50" x2="321.92" y2="598.78" stroke="#D32F2F" stroke-width="6.40" stroke-linecap="round"/>
<line x1="293.74" y1="595.15" x2="321.92" y2="598.78" stroke="#D32F2F" stroke-width="7.31" stroke-linecap="round"/>
<line x1="349.36" y1="599.60" x2="319.55" y2="602.77" stroke="#D32F2F" stroke-width="6.16" stroke-linecap="round"/>
<line x1="291.94" y1="599.80" x2="319.55" y2="602.77" stroke="#D32F2F" stroke-width="7.63" stroke-linecap="round"/>
<line x1="346.65" y1="602.59" x2="316.61" y2="604.75" stroke="#D32F2F" stroke-width="6.02" stroke-linecap="round"/>
<line x1="289.37" y1="602.61" x2="316.61" y2="604.75" stroke="#D32F2F" stroke-width="7.84" stroke-linecap="round"/>
</svg>