<svg width="630.0" height="630.0" viewBox="0 0 630.0 630.0" xmlns="http://www.w3.org/2000/svg">
<circle cx="315.0" cy="315.0" r="290.0" fill="#FDFDF5" stroke="#ccc" stroke-width="0.5"/>
<line x1="557.83" y1="470.97" x2="548.89" y2="486.43" stroke="#D32F2F" stroke-width="8.00" stroke-linecap="round"/>
<line x1="543.56" y1="489.96" x2="532.21" y2="506.78" stroke="#D32F2F" stroke-width="8.00" stroke-linecap="round"/>
<line x1="527.24" y1="507.42" x2="513.30" y2="525.26" stroke="#D32F2F" stroke-width="8.00" stroke-linecap="round"/>
<line x1="490.12" y1="546.01" x2="492.36" y2="541.13" stroke="#D32F2F" stroke-width="8.00" stroke-linecap="round"/>
<line x1="509.00" y1="522.73" x2="492.36" y2="541.13" stroke="#D32F2F" stroke-width="8.00" stroke-linecap="round"/>
<line x1="465.70" y1="561.29" x2="469.78" y2="553.55" stroke="#D32F2F" stroke-width="8.00" stroke-linecap="round"/>
<line x1="489.12" y1="535.17" x2="469.78" y2="553.55" stroke="#D32F2F" stroke-width="8.00" stroke-linecap="round"/>
<line x1="439.96" y1="572.10" x2="446.17" y2="561.75" stroke="#D32F2F" stroke-width="8.00" stroke-linecap="round"/>
<line x1="468.08" y1="544.00" x2="446.17" y2="561.75" stroke="#D32F2F" stroke-width="7.73" stroke-linecap="round"/>
<line x1="413.75" y1="577.70" x2="422.32" y2="565.09" stroke="#D32F2F" stroke-width="8.00" stroke-linecap="round"/>
<line x1="446.61" y1="548.59" x2="422.32" y2="565.09" stroke="#D32F2F" stroke-width="7.16" stroke-linecap="round"/>
<line x1="388.05" y1="577.70" x2="399.18" y2="563.28" stroke="#D32F2F" stroke-width="8.00" stroke-linecap="round"/>
<line x1="425.52" y1="548.59" x2="399.18" y2="563.28" stroke="#D32F2F" stroke-width="6.66" stroke-linecap="round"/>
<line x1="363.85" y1="572.10" x2="377.65" y2="556.41" stroke="#D32F2F" stroke-width="8.00" stroke-linecap="round"/>
<line x1="405.69" y1="544.00" x2="377.65" y2="556.41" stroke="#D32F2F" stroke-width="6.30" stroke-linecap="round"/>
<line x1="342.03" y1="561.29" x2="358.51" y2="544.92" stroke="#D32F2F" stroke-width="8.00" stroke-linecap="round"/>
<line x1="387.85" y1="535.17" x2="358.51" y2="544.92" stroke="#D32F2F" stroke-width="6.10" stroke-linecap="round"/>
<line x1="323.23" y1="546.01" x2="342.31" y2="529.55" stroke="#D32F2F" stroke-width="8.00" stroke-linecap="round"/>
<line x1="372.55" y1="522.73" x2="342.31" y2="529.55" stroke="#D32F2F" stroke-width="6.07" stroke-linecap="round"/>
<line x1="307.82" y1="527.14" x2="329.31" y2="511.14" stroke="#D32F2F" stroke-width="8.00" stroke-linecap="round"/>
<line x1="360.04" y1="507.42" x2="329.31" y2="511.14" stroke="#D32F2F" stroke-width="6.90" stroke-linecap="round"/>
<line x1="295.88" y1="505.61" x2="319.50" y2="490.51" stroke="#D32F2F" stroke-width="8.00" stroke-linecap="round"/>
<line x1="350.36" y1="489.96" x2="319.50" y2="490.51" stroke="#D32F2F" stroke-width="7.68" stroke-linecap="round"/>
<line x1="287.28" y1="482.30" x2="312.70" y2="468.40" stroke="#D32F2F" stroke-width="8.00" stroke-linecap="round"/>
<line x1="343.36" y1="470.97" x2="312.70" y2="468.40" stroke="#D32F2F" stroke-width="8.00" stroke-linecap="round"/>
<line x1="281.69" y1="457.91" x2="308.57" y2="445.37" stroke="#D32F2F" stroke-width="8.00" stroke-linecap="round"/>
<line x1="338.77" y1="450.91" x2="308.57" y2="445.37" stroke="#D32F2F" stroke-width="8.00" stroke-linecap="round"/>
<line x1="278.71" y1="433.03" x2="306.71" y2="421.85" stroke="#D32F2F" stroke-width="8.00" stroke-linecap="round"/>
<line x1="336.27" y1="430.09" x2="306.71" y2="421.85" stroke="#D32F2F" stroke-width="8.00" stroke-linecap="round"/>
<line x1="277.86" y1="408.05" x2="306.69" y2="398.12" stroke="#D32F2F" stroke-width="8.00" stroke-linecap="round"/>
<line x1="335.55" y1="408.70" x2="306.69" y2="398.12" stroke="#D32F2F" stroke-width="8.00" stroke-linecap="round"/>
<line x1="278.66" y1="383.26" x2="308.08" y2="374.35" stroke="#D32F2F" stroke-width="8.00" stroke-linecap="round"/>
<line x1="336.26" y1="386.85" x2="308.08" y2="374.35" stroke="#D32F2F" stroke-width="8.00" stroke-linecap="round"/>
<line x1="280.64" y1="358.82" x2="310.45" y2="350.64" stroke="#D32F2F" stroke-width="8.00" stroke-linecap="round"/>
<line x1="338.06" y1="364.58" x2="310.45" y2="350.64" stroke="#D32F2F" stroke-width="8.00" stroke-linecap="round"/>
<line x1="283.35" y1="334.80" x2="313.39" y2="327.02" stroke="#D32F2F" stroke-width="8.00" stroke-linecap="round"/>
<line x1="340.63" y1="341.89" x2="313.39" y2="327.02" stroke="#D32F2F" stroke-width="8.00" stroke-linecap="round"/>
<line x1="286.39" y1="311.23" x2="316.51" y2="303.51" stroke="#D32F2F" stroke-width="8.00" stroke-linecap="round"/>
<line x1="343.61" y1="318.77" x2="316.51" y2="303.51" stroke="#D32F2F" stroke-width="8.00" stroke-linecap="round"/>
<line x1="289.37" y1="288.11" x2="319.44" y2="280.09" stroke="#D32F2F" stroke-width="8.00" stroke-linecap="round"/>
<line x1="346.65" y1="295.20" x2="319.44" y2="280.09" stroke="#D32F2F" stroke-width="8.00" stroke-linecap="round"/>
<line x1="291.94" y1="265.42" x2="321.81" y2="256.75" stroke="#D32F2F" stroke-width="8.00" stroke-linecap="round"/>
<line x1="349.36" y1="271.18" x2="321.81" y2="256.75" stroke="#D32F2F" stroke-width="8.00" stroke-linecap="round"/>
<line x1="293.74" y1="243.15" x2="323.24" y2="233.50" stroke="#D32F2F" stroke-width="8.00" stroke-linecap="round"/>
<line x1="351.34" y1="246.74" x2="323.24" y2="233.50" stroke="#D32F2F" stroke-width="8.00" stroke-linecap="round"/>
<line x1="294.45" y1="221.30" x2="323.35" y2="210.40" stroke="#D32F2F" stroke-width="8.00" stroke-linecap="round"/>
<line x1="352.14" y1="221.95" x2="323.35" y2="210.40" stroke="#D32F2F" stroke-width="8.00" stroke-linecap="round"/>
<line x1="293.73" y1="199.91" x2="321.77" y2="187.56" stroke="#D32F2F" stroke-width="8.00" stroke-linecap="round"/>
<line x1="351.29" y1="196.97" x2="321.77" y2="187.56" stroke="#D32F2F" stroke-width="8.00" stroke-linecap="round"/>
<line x1="291.23" y1="179.09" x2="318.12" y2="165.17" stroke="#D32F2F" stroke-width="8.00" stroke-linecap="round"/>
<line x1="348.31" y1="172.09" x2="318.12" y2="165.17" stroke="#D32F2F" stroke-width="8.00" stroke-linecap="round"/>
<line x1="286.64" y1="159.03" x2="312.01" y2="143.57" stroke="#D32F2F" stroke-width="8.00" stroke-linecap="round"/>
<line x1="342.72" y1="147.70" x2="312.01" y2="143.57" stroke="#D32F2F" stroke-width="8.00" stroke-linecap="round"/>
<line x1="279.64" y1="140.04" x2="303.12" y2="123.22" stroke="#D32F2F" stroke-width="8.00" stroke-linecap="round"/>
<line x1="334.12" y1="124.39" x2="303.12" y2="123.22" stroke="#D32F2F" stroke-width="7.32" stroke-linecap="round"/>
<line x1="269.96" y1="122.58" x2="291.20" y2="104.74" stroke="#D32F2F" stroke-width="8.00" stroke-linecap="round"/>
<line x1="322.18" y1="102.86" x2="291.20" y2="104.74" stroke="#D32F2F" stroke-width="6.52" stroke-linecap="round"/>
<line x1="257.45" y1="107.27" x2="276.17" y2="88.87" stroke="#D32F2F" stroke-width="8.00" stroke-linecap="round"/>
<line x1="306.77" y1="83.99" x2="276.17" y2="88.87" stroke="#D32F2F" stroke-width="5.67" stroke-linecap="round"/>
<line x1="242.15" y1="94.83" x2="258.13" y2="76.45" stroke="#D32F2F" stroke-width="8.00" stroke-linecap="round"/>
<line x1="287.97" y1="68.71" x2="258.13" y2="76.45" stroke="#D32F2F" stroke-width="5.75" stroke-linecap="round"/>
<line x1="224.31" y1="86.00" x2="237.47" y2="68.25" stroke="#D32F2F" stroke-width="8.00" stroke-linecap="round"/>
<line x1="266.15" y1="57.90" x2="237.47" y2="68.25" stroke="#D32F2F" stroke-width="6.02" stroke-linecap="round"/>
<line x1="204.48" y1="81.41" x2="214.82" y2="64.91" stroke="#D32F2F" stroke-width="8.00" stroke-linecap="round"/>
<line x1="241.95" y1="52.30" x2="214.82" y2="64.91" stroke="#D32F2F" stroke-width="6.44" stroke-linecap="round"/>
<line x1="183.39" y1="81.41" x2="191.02" y2="66.72" stroke="#D32F2F" stroke-width="8.00" stroke-linecap="round"/>
<line x1="216.25" y1="52.30" x2="191.02" y2="66.72" stroke="#D32F2F" stroke-width="7.00" stroke-linecap="round"/>
<line x1="161.92" y1="86.00" x2="167.02" y2="73.59" stroke="#D32F2F" stroke-width="8.00" stroke-linecap="round"/>
<line x1="190.04" y1="57.90" x2="167.02" y2="73.59" stroke="#D32F2F" stroke-width="7.63" stroke-linecap="round"/>
<line x1="140.88" y1="94.83" x2="143.70" y2="85.08" stroke="#D32F2F" stroke-width="8.00" stroke-linecap="round"/>
<line x1="164.30" y1="68.71" x2="143.70" y2="85.08" stroke="#D32F2F" stroke-width="8.00" stroke-linecap="round"/>
<line x1="121.00" y1="107.27" x2="121.81" y2="100.45" stroke="#D32F2F" stroke-width="8.00" stroke-linecap="round"/>
<line x1="139.88" y1="83.99" x2="121.81" y2="100.45" stroke="#D32F2F" stroke-width="8.00" stroke-linecap="round"/>
<line x1="102.76" y1="122.58" x2="101.87" y2="118.86" stroke="#D32F2F" stroke-width="8.00" stroke-linecap="round"/>
<line x1="86.44" y1="140.04" x2="84.18" y2="139.49" stroke="#D32F2F" stroke-width="8.00" stroke-linecap="round"/>
<line x1="26.44" y1="311.23" x2="25.23" y2="326.49" stroke="#D32F2F" stroke-width="8.00" stroke-linecap="round"/>
<line x1="27.41" y1="334.80" x2="27.14" y2="349.91" stroke="#D32F2F" stroke-width="8.00" stroke-linecap="round"/>
<line x1="30.40" y1="358.82" x2="30.99" y2="373.25" stroke="#D32F2F" stroke-width="8.00" stroke-linecap="round"/>
<line x1="35.50" y1="383.26" x2="36.81" y2="396.50" stroke="#D32F2F" stroke-width="8.00" stroke-linecap="round"/>
<line x1="42.86" y1="408.05" x2="44.65" y2="419.60" stroke="#D32F2F" stroke-width="8.00" stroke-linecap="round"/>
<line x1="52.60" y1="433.03" x2="54.59" y2="442.44" stroke="#D32F2F" stroke-width="8.00" stroke-linecap="round"/>
<line x1="64.87" y1="457.91" x2="66.72" y2="464.83" stroke="#D32F2F" stroke-width="8.00" stroke-linecap="round"/>
<line x1="550.25" y1="147.70" x2="561.10" y2="161.60" stroke="#D32F2F" stroke-width="8.00" stroke-linecap="round"/>
<line x1="565.13" y1="172.09" x2="573.96" y2="184.63" stroke="#D32F2F" stroke-width="8.00" stroke-linecap="round"/>
<line x1="577.40" y1="196.97" x2="584.47" y2="208.15" stroke="#D32F2F" stroke-width="8.00" stroke-linecap="round"/>
<line x1="587.14" y1="221.95" x2="592.71" y2="231.88" stroke="#D32F2F" stroke-width="8.00" stroke-linecap="round"/>
<line x1="594.50" y1="246.74" x2="598.78" y2="255.65" stroke="#D32F2F" stroke-width="8.00" stroke-linecap="round"/>
<line x1="599.60" y1="271.18" x2="602.77" y2="279.36" stroke="#D32F2F" stroke-width="8.00" stroke-linecap="round"/>
<line x1="602.59" y1="295.20" x2="604.75" y2="302.98" stroke="#D32F2F" stroke-width="8.00" stroke-linecap="round"/>
<line x1="557.83" y1="470.97" x2="548.89" y2="486.43" stroke="#D32F2F" stroke-width="8.00" stroke-linecap="round"/>
<line x1="543.56" y1="489.96" x2="532.21" y2="506.78" stroke="#D32F2F" stroke-width="8.00" stroke-linecap="round"/>
<line x1="527.24" y1="507.42" x2="513.30" y2="525.26" stroke="#D32F2F" stroke-width="8.00" stroke-linecap="round"/>
<line x1="490.12" y1="546.01" x2="492.36" y2="541.13" stroke="#D32F2F" stroke-width="8.00" stroke-linecap="round"/>
<line x1="509.00" y1="522.73" x2="492.36" y2="541.13" stroke="#D32F2F" stroke-width="8.00" stroke-linecap="round"/>
<line x1="465.70" y1="561.29" x2="469.78" y2="553.55" stroke="#D32F2F" stroke-width="8.00" stroke-linecap="round"/>
<line x1="489.12" y1="535.17" x2="469.78" y2="553.55" stroke="#D32F2F" stroke-width="8.00" stroke-linecap="round"/>
<line x1="439.96" y1="572.10" x2="446.17" y2="561.75" stroke="#D32F2F" stroke-width="8.00" stroke-linecap="round"/>
<line x1="468.08" y1="544.00" x2="446.17" y2="561.75" stroke="#D32F2F" stroke-width="7.73" stroke-linecap="round"/>
<line x1="413.75" y1="577.70" x2="422.32" y2="565.09" stroke="#D32F2F" stroke-width="8.00" stroke-linecap="round"/>
<line x1="446.61" y1="548.59" x2="422.32" y2="565.09" stroke="#D32F2F" stroke-width="7.16" stroke-linecap="round"/>
<line x1="388.05" y1="577.70" x2="399.18" y2="563.28" stroke="#D32F2F" stroke-width="8.00" stroke-linecap="round"/>
<line x1="425.52" y1="548.59" x2="399.18" y2="563.28" stroke="#D32F2F" stroke-width="6.66" stroke-linecap="round"/>
<line x1="363.85" y1="572.10" x2="377.65" y2="556.41" stroke="#D32F2F" stroke-width="8.00" stroke-linecap="round"/>
<line x1="405.69" y1="544.00" x2="377.65" y2="556.41" stroke="#D32F2F" stroke-width="6.30" stroke-linecap="round"/>
<line x1="342.03" y1="561.29" x2="358.51" y2="544.92" stroke="#D32F2F" stroke-width="8.00" stroke-linecap="round"/>
<line x1="387.85" y1="535.17" x2="358.51" y2="544.92" stroke="#D32F2F" stroke-width="6.10" stroke-linecap="round"/>
<line x1="323.23" y1="546.01" x2="342.31" y2="529.55" stroke="#D32F2F" stroke-width="8.00" stroke-linecap="round"/>
<line x1="372.55" y1="522.73" x2="342.31" y2="529.55" stroke="#D32F2F" stroke-width="6.07" stroke-linecap="round"/>
<line x1="307.82" y1="527.14" x2="329.31" y2="511.14" stroke="#D32F2F" stroke-width="8.00" stroke-linecap="round"/>
<line x1="360.04" y1="507.42" x2="329.31" y2="511.14" stroke="#D32F2F" stroke-width="6.90" stroke-linecap="round"/>
<line x1="295.88" y1="505.61" x2="319.50" y2="490.51" stroke="#D32F2F" stroke-width="8.00" stroke-linecap="round"/>
<line x1="350.36" y1="489.96" x2="319.50" y2="490.51" stroke="#D32F2F" stroke-width="7.68" stroke-linecap="round"/>
<line x1="287.28" y1="482.30" x2="312.70" y2="468.40" stroke="#D32F2F" stroke-width="8.00" stroke-linecap="round"/>
<line x1="343.36" y1="470.97" x2="312.70" y2="468.40" stroke="#D32F2F" stroke-width="8.00" stroke-linecap="round"/>
<line x1="281.69" y1="457.91" x2="308.57" y2="445.37" stroke="#D32F2F" stroke-width="8.00" stroke-linecap="round"/>
<line x1="338.77" y1="450.91" x2="308.57" y2="445.37" stroke="#D32F2F" stroke-width="8.00" stroke-linecap="round"/>
<line x1="278.71" y1="433.03" x2="306.71" y2="421.85" stroke="#D32F2F" stroke-width="8.00" stroke-linecap="round"/>
<line x1="336.27" y1="430.09" x2="306.71" y2="421.85" stroke="#D32F2F" stroke-width="8.00" stroke-linecap="round"/>
<line x1="277.86" y1="408.05" x2="306.69" y2="398.12" stroke="#D32F2F" stroke-width="8.00" stroke-linecap="round"/>
<line x1="335.55" y1="408.70" x2="306.69" y2="398.12" stroke="#D32F2F" stroke-width="8.00" stroke-linecap="round"/>
<line x1="278.66" y1="383.26" x2="308.08" y2="374.35" stroke="#D32F2F" stroke-width="8.00" stroke-linecap="round"/>
<line x1="336.26" y1="386.85" x2="308.08" y2="374.35" stroke="#D32F2F" stroke-width="8.00" stroke-linecap="round"/>
<line x1="280.64" y1="358.82" x2="310.45" y2="350.64" stroke="#D32F2F" stroke-width="8.00" stroke-linecap="round"/>
<line x1="338.06" y1="364.58" x2="310.45" y2="350.64" stroke="#D32F2F" stroke-width="8.00" stroke-linecap="round"/>
<line x1="283.35" y1="334.80" x2="313.39" y2="327.02" stroke="#D32F2F" stroke-width="8.00" stroke-linecap="round"/>
<line x1="340.63" y1="341.89" x2="313.39" y2="327.02" stroke="#D32F2F" stroke-width="8.00" stroke-linecap="round"/>
<line x1="286.39" y1="311.23" x2="316.51" y2="303.51" stroke="#D32F2F" stroke-width="8.00" stroke-linecap="round"/>
<line x1="343.61" y1="318.77" x2="316.51" y2="303.51" stroke="#D32F2F" stroke-width="8.00" stroke-linecap="round"/>
<line x1="289.37" y1="288.11" x2="319.44" y2="280.09" stroke="#D32F2F" stroke-width="8.00" stroke-linecap="round"/>
<line x1="346.65" y1="295.20" x2="319.44" y2="280.09" stroke="#D32F2F" stroke-width="8.00" stroke-linecap="round"/>
<line x1="291.94" y1="265.42" x2="321.81" y2="256.75" stroke="#D32F2F" stroke-width="8.00" stroke-linecap="round"/>
<line x1="349.36" y1="271.18" x2="321.81" y2="256.75" stroke="#D32F2F" stroke-width="8.00" stroke-linecap="round"/>
<line x1="293.74" y1="243.15" x2="323.24" y2="233.50" stroke="#D32F2F" stroke-width="8.00" stroke-linecap="round"/>
<line x1="351.34" y1="246.74" x2="323.24" y2="233.50" stroke="#D32F2F" stroke-width="8.00" stroke-linecap="round"/>
<line x1="294.45" y1="221.30" x2="323.35" y2="210.40" stroke="#D32F2F" stroke-width="8.00" stroke-linecap="round"/>
<line x1="352.14" y1="221.95" x2="323.35" y2="210.40" stroke="#D32F2F" stroke-width="8.00" stroke-linecap="round"/>
<line x1="293.73" y1="199.91" x2="321.77" y2="187.56" stroke="#D32F2F" stroke-width="8.00" stroke-linecap="round"/>
<line x1="351.29" y1="196.97" x2="321.77" y2="187.56" stroke="#D32F2F" stroke-width="8.00" stroke-linecap="round"/>
<line x1="291.23" y1="179.09" x2="318.12" y2="165.17" stroke="#D32F2F" stroke-width="8.00" stroke-linecap="round"/>
<line x1="348.31" y1="172.09" x2="318.12" y2="165.17" stroke="#D32F2F" stroke-width="8.00" stroke-linecap="round"/>
<line x1="286.64" y1="159.03" x2="312.01" y2="143.57" stroke="#D32F2F" stroke-width="8.00" stroke-linecap="round"/>
<line x1="342.72" y1="147.70" x2="312.01" y2="143.57" stroke="#D32F2F" stroke-width="8.00" stroke-linecap="round"/>
<line x1="279.64" y1="140.04" x2="303.12" y2="123.22" stroke="#D32F2F" stroke-width="8.00" stroke-linecap="round"/>
<line x1="334.12" y1="124.39" x2="303.12" y2="123.22" stroke="#D32F2F" stroke-width="7.32" stroke-linecap="round"/>
<line x1="269.96" y1="122.58" x2="291.20" y2="104.74" stroke="#D32F2F" stroke-width="8.00" stroke-linecap="round"/>
<line x1="322.18" y1="102.86" x2="291.20" y2="104.74" stroke="#D32F2F" stroke-width="6.52" stroke-linecap="round"/>
<line x1="257.45" y1="107.27" x2="276.17" y2="88.87" stroke="#D32F2F" stroke-width="8.00" stroke-linecap="round"/>
<line x1="306.77" y1="83.99" x2="276.17" y2="88.87" stroke="#D32F2F" stroke-width="5.67" stroke-linecap="round"/>
<line x1="242.15" y1="94.83" x2="258.13" y2="76.45" stroke="#D32F2F" stroke-width="8.00" stroke-linecap="round"/>
<line x1="287.97" y1="68.71" x2="258.13" y2="76.45" stroke="#D32F2F" stroke-width="5.75" stroke-linecap="round"/>
<line x1="224.31" y1="86.00" x2="237.47" y2="68.25" stroke="#D32F2F" stroke-width="8.00" stroke-linecap="round"/>
<line x1="266.15" y1="57.90" x2="237.47" y2="68.25" stroke="#D32F2F" stroke-width="6.02" stroke-linecap="round"/>
<line x1="204.48" y1="81.41" x2="214.82" y2="64.91" stroke="#D32F2F" stroke-width="8.00" stroke-linecap="round"/>
<line x1="241.95" y1="52.30" x2="214.82" y2="64.91" stroke="#D32F2F" stroke-width="6.44" stroke-linecap="round"/>
<line x1="183.39" y1="81.41" x2="191.02" y2="66.72" stroke="#D32F2F" stroke-width="8.00" stroke-linecap="round"/>
<line x1="216.25" y1="52.30" x2="191.02" y2="66.72" stroke="#D32F2F" stroke-width="7.00" stroke-linecap="round"/>
<line x1="161.92" y1="86.00" x2="167.02" y2="73.59" stroke="#D32F2F" stroke-width="8.00" stroke-linecap="round"/>
<line x1="190.04" y1="57.90" x2="167.02" y2="73.59" stroke="#D32F2F" stroke-width="7.63" stroke-linecap="round"/>
<line x1="140.88" y1="94.83" x2="143.70" y2="85.08" stroke="#D32F2F" stroke-width="8.00" stroke-linecap="round"/>
<line x1="164.30" y1="68.71" x2="143.70" y2="85.08" stroke="#D32F2F" stroke-width="8.00" stroke-linecap="round"/>
<line x1="121.00" y1="107.27" x2="121.81" y2="100.45" stroke="#D32F2F" stroke-width="8.00" stroke-linecap="round"/>
<line x1="139.88" y1="83.99" x2="121.81" y2="100.45" stroke="#D32F2F" stroke-width="8.00" stroke-linecap="round"/>
<line x1="102.76" y1="122.58" x2="101.87" y2="118.86" stroke="#D32F2F" stroke-width="8.00" stroke-linecap="round"/>
<line x1="86.44" y1="140.04" x2="84.18" y2="139.49" stroke="#D32F2F" stroke-width="8.00" stroke-linecap="round"/>
<line x1="26.44" y1="311.23" x2="25.23" y2="326.49" stroke="#D32F2F" stroke-width="8.00" stroke-linecap="round"/>
<line x1="27.41" y1="334.80" x2="27.14" y2="349.91" stroke="#D32F2F" stroke-width="8.00" stroke-linecap="round"/>
<line x1="30.40" y1="358.82" x2="30.99" y2="373.25" stroke="#D32F2F" stroke-width="8.00" stroke-linecap="round"/>
<line x1="35.50" y1="383.26" x2="36.81" y2="396.50" stroke="#D32F2F" stroke-width="8.00" stroke-linecap="round"/>
<line x1="42.86" y1="408.05" x2="44.65" y2="419.60" stroke="#D32F2F" stroke-width="8.00" stroke-linecap="round"/>
<line x1="52.60" y1="433.03" x2="54.59" y2="442.44" stroke="#D32F2F" stroke-width="8.00" stroke-linecap="round"/>
<line x1="64.87" y1="457.91" x2="66.72" y2="464.83" stroke="#D32F2F" stroke-width="8.00" stroke-linecap="round"/>
<line x1="550.25" y1="147.70" x2="561.10" y2="161.60" stroke="#D32F2F" stroke-width="8.00" stroke-linecap="round"/>
<line x1="565.13" y1="172.09" x2="573.96" y2="184.63" stroke="#D32F2F" stroke-width="8.00" stroke-linecap="round"/>
<line x1="577.40" y1="196.97" x2="584.47" y2="208.15" stroke="#D32F2F" stroke-width="8.00" stroke-linecap="round"/>
<line x1="587.14" y1="221.95" x2="592.71" y2="231.88" stroke="#D32F2F" stroke-width="8.00" stroke-linecap="round"/>
<line x1="594.50" y1="246.74" x2="598.78" y2="255.65" stroke="#D32F2F" stroke-width="8.00" stroke-linecap="round"/>
<line x1="599.60" y1="271.18" x2="602.77" y2="279.36" stroke="#D32F2F" stroke-width="8.00" stroke-linecap="round"/>
<line x1="602.59" y1="295.20" x2="604.75" y2="302.98" stroke="#D32F2F" stroke-width="8.00" stroke-linecap="round"/>
</svg>