<svg width="630.0" height="630.0" viewBox="0 0 630.0 630.0" xmlns="http://www.w3.org/2000/svg">
<circle cx="315.0" cy="315.0" r="290.0" fill="#FDFDF5" stroke="#ccc" stroke-width="0.5"/>
<line x1="603.56" y1="343.61" x2="604.77" y2="313.49" stroke="#D32F2F" stroke-width="5.98" stroke-linecap="round"/>
<line x1="602.59" y1="340.45" x2="602.86" y2="310.26" stroke="#D32F2F" stroke-width="5.92" stroke-linecap="round"/>
<line x1="602.61" y1="283.29" x2="602.86" y2="310.26" stroke="#D32F2F" stroke-width="7.96" stroke-linecap="round"/>
<line x1="599.60" y1="336.85" x2="599.01" y2="306.50" stroke="#D32F2F" stroke-width="5.74" stroke-linecap="round"/>
<line x1="599.80" y1="279.90" x2="599.01" y2="306.50" stroke="#D32F2F" stroke-width="8.00" stroke-linecap="round"/>
<line x1="594.50" y1="332.44" x2="593.19" y2="301.86" stroke="#D32F2F" stroke-width="5.45" stroke-linecap="round"/>
<line x1="595.15" y1="275.87" x2="593.19" y2="301.86" stroke="#D32F2F" stroke-width="8.00" stroke-linecap="round"/>
<line x1="587.14" y1="326.79" x2="585.35" y2="296.00" stroke="#D32F2F" stroke-width="5.09" stroke-linecap="round"/>
<line x1="588.67" y1="270.90" x2="585.35" y2="296.00" stroke="#D32F2F" stroke-width="8.00" stroke-linecap="round"/>
<line x1="577.40" y1="319.50" x2="575.41" y2="288.56" stroke="#D32F2F" stroke-width="4.82" stroke-linecap="round"/>
<line x1="580.33" y1="264.66" x2="575.41" y2="288.56" stroke="#D32F2F" stroke-width="8.00" stroke-linecap="round"/>
<line x1="565.13" y1="310.18" x2="563.28" y2="279.23" stroke="#D32F2F" stroke-width="5.80" stroke-linecap="round"/>
<line x1="570.08" y1="256.87" x2="563.28" y2="279.23" stroke="#D32F2F" stroke-width="8.00" stroke-linecap="round"/>
<line x1="550.25" y1="298.48" x2="548.89" y2="267.74" stroke="#D32F2F" stroke-width="6.79" stroke-linecap="round"/>
<line x1="557.83" y1="247.24" x2="548.89" y2="267.74" stroke="#D32F2F" stroke-width="8.00" stroke-linecap="round"/>
<line x1="532.72" y1="284.13" x2="532.21" y2="253.89" stroke="#D32F2F" stroke-width="7.73" stroke-linecap="round"/>
<line x1="543.56" y1="235.56" x2="532.21" y2="253.89" stroke="#D32F2F" stroke-width="8.00" stroke-linecap="round"/>
<line x1="512.60" y1="267.03" x2="513.30" y2="237.59" stroke="#D32F2F" stroke-width="8.00" stroke-linecap="round"/>
<line x1="527.24" y1="221.69" x2="513.30" y2="237.59" stroke="#D32F2F" stroke-width="8.00" stroke-linecap="round"/>
<line x1="490.12" y1="247.26" x2="492.36" y2="218.96" stroke="#D32F2F" stroke-width="8.00" stroke-linecap="round"/>
<line x1="509.00" y1="205.65" x2="492.36" y2="218.96" stroke="#D32F2F" stroke-width="8.00" stroke-linecap="round"/>
<line x1="465.70" y1="225.15" x2="469.78" y2="198.33" stroke="#D32F2F" stroke-width="8.00" stroke-linecap="round"/>
<line x1="489.12" y1="187.64" x2="469.78" y2="198.33" stroke="#D32F2F" stroke-width="8.00" stroke-linecap="round"/>
<line x1="439.96" y1="201.27" x2="446.17" y2="176.25" stroke="#D32F2F" stroke-width="8.00" stroke-linecap="round"/>
<line x1="468.08" y1="168.13" x2="446.17" y2="176.25" stroke="#D32F2F" stroke-width="8.00" stroke-linecap="round"/>
<line x1="413.75" y1="176.45" x2="422.32" y2="153.50" stroke="#D32F2F" stroke-width="8.00" stroke-linecap="round"/>
<line x1="446.61" y1="147.79" x2="422.32" y2="153.50" stroke="#D32F2F" stroke-width="8.00" stroke-linecap="round"/>
<line x1="388.05" y1="151.62" x2="399.18" y2="130.99" stroke="#D32F2F" stroke-width="8.00" stroke-linecap="round"/>
<line x1="425.52" y1="127.42" x2="399.18" y2="130.99" stroke="#D32F2F" stroke-width="8.00" stroke-linecap="round"/>
<line x1="363.85" y1="127.76" x2="377.65" y2="109.58" stroke="#D32F2F" stroke-width="8.00" stroke-linecap="round"/>
<line x1="405.69" y1="107.86" x2="377.65" y2="109.58" stroke="#D32F2F" stroke-width="8.00" stroke-linecap="round"/>
<line x1="342.03" y1="105.69" x2="358.51" y2="90.03" stroke="#D32F2F" stroke-width="8.00" stroke-linecap="round"/>
<line x1="387.85" y1="89.83" x2="358.51" y2="90.03" stroke="#D32F2F" stroke-width="7.73" stroke-linecap="round"/>
<line x1="323.23" y1="86.06" x2="342.31" y2="72.86" stroke="#D32F2F" stroke-width="8.00" stroke-linecap="round"/>
<line x1="372.55" y1="73.85" x2="342.31" y2="72.86" stroke="#D32F2F" stroke-width="6.82" stroke-linecap="round"/>
<line x1="307.82" y1="69.23" x2="329.31" y2="58.37" stroke="#D32F2F" stroke-width="8.00" stroke-linecap="round"/>
<line x1="360.04" y1="60.19" x2="329.31" y2="58.37" stroke="#D32F2F" stroke-width="5.80" stroke-linecap="round"/>
<line x1="295.88" y1="55.37" x2="319.50" y2="46.62" stroke="#D32F2F" stroke-width="8.00" stroke-linecap="round"/>
<line x1="350.36" y1="48.95" x2="319.50" y2="46.62" stroke="#D32F2F" stroke-width="4.73" stroke-linecap="round"/>
<line x1="287.28" y1="44.46" x2="312.70" y2="37.59" stroke="#D32F2F" stroke-width="8.00" stroke-linecap="round"/>
<line x1="343.36" y1="40.07" x2="312.70" y2="37.59" stroke="#D32F2F" stroke-width="5.05" stroke-linecap="round"/>
<line x1="281.69" y1="36.40" x2="308.57" y2="31.12" stroke="#D32F2F" stroke-width="7.73" stroke-linecap="round"/>
<line x1="338.77" y1="33.44" x2="308.57" y2="31.12" stroke="#D32F2F" stroke-width="5.70" stroke-linecap="round"/>
<line x1="278.71" y1="31.00" x2="306.71" y2="27.06" stroke="#D32F2F" stroke-width="7.25" stroke-linecap="round"/>
<line x1="336.27" y1="28.92" x2="306.71" y2="27.06" stroke="#D32F2F" stroke-width="6.33" stroke-linecap="round"/>
<line x1="277.86" y1="28.05" x2="306.69" y2="25.24" stroke="#D32F2F" stroke-width="6.84" stroke-linecap="round"/>
<line x1="335.55" y1="26.40" x2="306.69" y2="25.24" stroke="#D32F2F" stroke-width="6.90" stroke-linecap="round"/>
<line x1="26.44" y1="341.66" x2="25.23" y2="310.56" stroke="#D32F2F" stroke-width="4.10" stroke-linecap="round"/>
<line x1="27.41" y1="279.30" x2="27.14" y2="301.67" stroke="#D32F2F" stroke-width="8.00" stroke-linecap="round"/>
<line x1="27.39" y1="332.79" x2="27.14" y2="301.67" stroke="#D32F2F" stroke-width="4.11" stroke-linecap="round"/>
<line x1="30.40" y1="270.47" x2="30.99" y2="293.35" stroke="#D32F2F" stroke-width="8.00" stroke-linecap="round"/>
<line x1="30.20" y1="324.44" x2="30.99" y2="293.35" stroke="#D32F2F" stroke-width="4.19" stroke-linecap="round"/>
<line x1="35.50" y1="262.23" x2="36.81" y2="285.95" stroke="#D32F2F" stroke-width="8.00" stroke-linecap="round"/>
<line x1="34.85" y1="316.94" x2="36.81" y2="285.95" stroke="#D32F2F" stroke-width="4.49" stroke-linecap="round"/>
<line x1="42.86" y1="255.04" x2="44.65" y2="279.86" stroke="#D32F2F" stroke-width="8.00" stroke-linecap="round"/>
<line x1="41.33" y1="310.60" x2="44.65" y2="279.86" stroke="#D32F2F" stroke-width="4.91" stroke-linecap="round"/>
<line x1="52.60" y1="249.40" x2="54.59" y2="275.47" stroke="#D32F2F" stroke-width="8.00" stroke-linecap="round"/>
<line x1="49.67" y1="305.76" x2="54.59" y2="275.47" stroke="#D32F2F" stroke-width="5.42" stroke-linecap="round"/>
<line x1="64.87" y1="245.84" x2="66.72" y2="273.21" stroke="#D32F2F" stroke-width="7.77" stroke-linecap="round"/>
<line x1="59.92" y1="302.78" x2="66.72" y2="273.21" stroke="#D32F2F" stroke-width="6.00" stroke-linecap="round"/>
<line x1="79.75" y1="244.92" x2="81.11" y2="273.52" stroke="#D32F2F" stroke-width="7.38" stroke-linecap="round"/>
<line x1="72.17" y1="302.02" x2="81.11" y2="273.52" stroke="#D32F2F" stroke-width="6.64" stroke-linecap="round"/>
<line x1="97.28" y1="247.20" x2="97.79" y2="276.84" stroke="#D32F2F" stroke-width="7.10" stroke-linecap="round"/>
<line x1="86.44" y1="303.87" x2="97.79" y2="276.84" stroke="#D32F2F" stroke-width="7.30" stroke-linecap="round"/>
<line x1="117.40" y1="253.16" x2="116.70" y2="283.57" stroke="#D32F2F" stroke-width="6.99" stroke-linecap="round"/>
<line x1="102.76" y1="308.71" x2="116.70" y2="283.57" stroke="#D32F2F" stroke-width="7.94" stroke-linecap="round"/>
<line x1="139.88" y1="263.16" x2="137.64" y2="293.98" stroke="#D32F2F" stroke-width="7.09" stroke-linecap="round"/>
<line x1="121.00" y1="316.82" x2="137.64" y2="293.98" stroke="#D32F2F" stroke-width="8.00" stroke-linecap="round"/>
<line x1="164.30" y1="277.36" x2="160.22" y2="308.19" stroke="#D32F2F" stroke-width="8.00" stroke-linecap="round"/>
<line x1="140.88" y1="328.39" x2="160.22" y2="308.19" stroke="#D32F2F" stroke-width="8.00" stroke-linecap="round"/>
<line x1="190.04" y1="295.65" x2="183.83" y2="326.03" stroke="#D32F2F" stroke-width="8.00" stroke-linecap="round"/>
<line x1="161.92" y1="343.33" x2="183.83" y2="326.03" stroke="#D32F2F" stroke-width="8.00" stroke-linecap="round"/>
<line x1="216.25" y1="317.57" x2="207.68" y2="347.04" stroke="#D32F2F" stroke-width="8.00" stroke-linecap="round"/>
<line x1="183.39" y1="361.30" x2="207.68" y2="347.04" stroke="#D32F2F" stroke-width="8.00" stroke-linecap="round"/>
<line x1="241.95" y1="342.39" x2="230.82" y2="370.49" stroke="#D32F2F" stroke-width="8.00" stroke-linecap="round"/>
<line x1="204.48" y1="381.66" x2="230.82" y2="370.49" stroke="#D32F2F" stroke-width="8.00" stroke-linecap="round"/>
<line x1="266.15" y1="369.16" x2="252.35" y2="395.46" stroke="#D32F2F" stroke-width="8.00" stroke-linecap="round"/>
<line x1="224.31" y1="403.60" x2="252.35" y2="395.46" stroke="#D32F2F" stroke-width="8.00" stroke-linecap="round"/>
<line x1="287.97" y1="396.81" x2="271.49" y2="420.95" stroke="#D32F2F" stroke-width="8.00" stroke-linecap="round"/>
<line x1="242.15" y1="426.20" x2="271.49" y2="420.95" stroke="#D32F2F" stroke-width="8.00" stroke-linecap="round"/>
<line x1="306.77" y1="424.36" x2="287.69" y2="446.08" stroke="#D32F2F" stroke-width="8.00" stroke-linecap="round"/>
<line x1="257.45" y1="448.62" x2="287.69" y2="446.08" stroke="#D32F2F" stroke-width="8.00" stroke-linecap="round"/>
<line x1="322.18" y1="450.96" x2="300.69" y2="470.11" stroke="#D32F2F" stroke-width="8.00" stroke-linecap="round"/>
<line x1="269.96" y1="470.21" x2="300.69" y2="470.11" stroke="#D32F2F" stroke-width="8.00" stroke-linecap="round"/>
<line x1="334.12" y1="475.96" x2="310.50" y2="492.52" stroke="#D32F2F" stroke-width="8.00" stroke-linecap="round"/>
<line x1="279.64" y1="490.48" x2="310.50" y2="492.52" stroke="#D32F2F" stroke-width="7.46" stroke-linecap="round"/>
<line x1="342.72" y1="498.94" x2="317.30" y2="513.01" stroke="#D32F2F" stroke-width="8.00" stroke-linecap="round"/>
<line x1="286.64" y1="509.19" x2="317.30" y2="513.01" stroke="#D32F2F" stroke-width="6.63" stroke-linecap="round"/>
<line x1="348.31" y1="519.62" x2="321.43" y2="531.40" stroke="#D32F2F" stroke-width="7.79" stroke-linecap="round"/>
<line x1="291.23" y1="526.21" x2="321.43" y2="531.40" stroke="#D32F2F" stroke-width="6.70" stroke-linecap="round"/>
<line x1="351.29" y1="537.91" x2="323.29" y2="547.63" stroke="#D32F2F" stroke-width="7.32" stroke-linecap="round"/>
<line x1="293.73" y1="541.51" x2="323.29" y2="547.63" stroke="#D32F2F" stroke-width="6.88" stroke-linecap="round"/>
<line x1="352.14" y1="553.79" x2="323.31" y2="561.73" stroke="#D32F2F" stroke-width="6.90" stroke-linecap="round"/>
<line x1="294.45" y1="555.10" x2="323.31" y2="561.73" stroke="#D32F2F" stroke-width="7.13" stroke-linecap="round"/>
<line x1="351.34" y1="567.31" x2="321.92" y2="573.75" stroke="#D32F2F" stroke-width="6.56" stroke-linecap="round"/>
<line x1="293.74" y1="567.01" x2="321.92" y2="573.75" stroke="#D32F2F" stroke-width="7.40" stroke-linecap="round"/>
<line x1="349.36" y1="578.57" x2="319.55" y2="583.74" stroke="#D32F2F" stroke-width="6.30" stroke-linecap="round"/>
<line x1="291.94" y1="577.26" x2="319.55" y2="583.74" stroke="#D32F2F" stroke-width="7.65" stroke-linecap="round"/>
<line x1="346.65" y1="587.66" x2="316.61" y2="591.76" stroke="#D32F2F" stroke-width="6.14" stroke-linecap="round"/>
<line x1="289.37" y1="585.85" x2="316.61" y2="591.76" stroke="#D32F2F" stroke-width="7.83" stroke-linecap="round"/>
<line x1="343.61" y1="594.70" x2="313.49" y2="597.87" stroke="#D32F2F" stroke-width="6.08" stroke-linecap="round"/>
<line x1="286.39" y1="592.75" x2="313.49" y2="597.87" stroke="#D32F2F" stroke-width="7.91" stroke-linecap="round"/>
<line x1="340.63" y1="599.77" x2="310.56" y2="602.08" stroke="#D32F2F" stroke-width="6.12" stroke-linecap="round"/>
<line x1="283.35" y1="597.91" x2="310.56" y2="602.08" stroke="#D32F2F" stroke-width="7.87" stroke-linecap="round"/>
<line x1="338.06" y1="602.93" x2="308.19" y2="604.41" stroke="#D32F2F" stroke-width="6.26" stroke-linecap="round"/>
<line x1="280.64" y1="601.25" x2="308.19" y2="604.41" stroke="#D32F2F" stroke-width="7.68" stroke-linecap="round"/>
<line x1="603.56" y1="343.61" x2="604.77" y2="313.49" stroke="#D32F2F" stroke-width="5.98" stroke-linecap="round"/>
<line x1="602.59" y1="340.45" x2="602.86" y2="310.26" stroke="#D32F2F" stroke-width="5.92" stroke-linecap="round"/>
<line x1="602.61" y1="283.29" x2="602.86" y2="310.26" stroke="#D32F2F" stroke-width="7.96" stroke-linecap="round"/>
<line x1="599.60" y1="336.85" x2="599.01" y2="306.50" stroke="#D32F2F" stroke-width="5.74" stroke-linecap="round"/>
<line x1="599.80" y1="279.90" x2="599.01" y2="306.50" stroke="#D32F2F" stroke-width="8.00" stroke-linecap="round"/>
<line x1="594.50" y1="332.44" x2="593.19" y2="301.86" stroke="#D32F2F" stroke-width="5.45" stroke-linecap="round"/>
<line x1="595.15" y1="275.87" x2="593.19" y2="301.86" stroke="#D32F2F" stroke-width="8.00" stroke-linecap="round"/>
<line x1="587.14" y1="326.79" x2="585.35" y2="296.00" stroke="#D32F2F" stroke-width="5.09" stroke-linecap="round"/>
<line x1="588.67" y1="270.90" x2="585.35" y2="296.00" stroke="#D32F2F" stroke-width="8.00" stroke-linecap="round"/>
<line x1="577.40" y1="319.50" x2="575.41" y2="288.56" stroke="#D32F2F" stroke-width="4.82" stroke-linecap="round"/>
<line x1="580.33" y1="264.66" x2="575.41" y2="288.56" stroke="#D32F2F" stroke-width="8.00" stroke-linecap="round"/>
<line x1="565.13" y1="310.18" x2="563.28" y2="279.23" stroke="#D32F2F" stroke-width="5.80" stroke-linecap="round"/>
<line x1="570.08" y1="256.87" x2="563.28" y2="279.23" stroke="#D32F2F" stroke-width="8.00" stroke-linecap="round"/>
<line x1="550.25" y1="298.48" x2="548.89" y2="267.74" stroke="#D32F2F" stroke-width="6.79" stroke-linecap="round"/>
<line x1="557.83" y1="247.24" x2="548.89" y2="267.74" stroke="#D32F2F" stroke-width="8.00" stroke-linecap="round"/>
<line x1="532.72" y1="284.13" x2="532.21" y2="253.89" stroke="#D32F2F" stroke-width="7.73" stroke-linecap="round"/>
<line x1="543.56" y1="235.56" x2="532.21" y2="253.89" stroke="#D32F2F" stroke-width="8.00" stroke-linecap="round"/>
<line x1="512.60" y1="267.03" x2="513.30" y2="237.59" stroke="#D32F2F" stroke-width="8.00" stroke-linecap="round"/>
<line x1="527.24" y1="221.69" x2="513.30" y2="237.59" stroke="#D32F2F" stroke-width="8.00" stroke-linecap="round"/>
<line x1="490.12" y1="247.26" x2="492.36" y2="218.96" stroke="#D32F2F" stroke-width="8.00" stroke-linecap="round"/>
<line x1="509.00" y1="205.65" x2="492.36" y2="218.96" stroke="#D32F2F" stroke-width="8.00" stroke-linecap="round"/>
<line x1="465.70" y1="225.15" x2="469.78" y2="198.33" stroke="#D32F2F" stroke-width="8.00" stroke-linecap="round"/>
<line x1="489.12" y1="187.64" x2="469.78" y2="198.33" stroke="#D32F2F" stroke-width="8.00" stroke-linecap="round"/>
<line x1="439.96" y1="201.27" x2="446.17" y2="176.25" stroke="#D32F2F" stroke-width="8.00" stroke-linecap="round"/>
<line x1="468.08" y1="168.13" x2="446.17" y2="176.25" stroke="#D32F2F" stroke-width="8.00" stroke-linecap="round"/>
<line x1="413.75" y1="176.45" x2="422.32" y2="153.50" stroke="#D32F2F" stroke-width="8.00" stroke-linecap="round"/>
<line x1="446.61" y1="147.79" x2="422.32" y2="153.50" stroke="#D32F2F" stroke-width="8.00" stroke-linecap="round"/>
<line x1="388.05" y1="151.62" x2="399.18" y2="130.99" stroke="#D32F2F" stroke-width="8.00" stroke-linecap="round"/>
<line x1="425.52" y1="127.42" x2="399.18" y2="130.99" stroke="#D32F2F" stroke-width="8.00" stroke-linecap="round"/>
<line x1="363.85" y1="127.76" x2="377.65" y2="109.58" stroke="#D32F2F" stroke-width="8.00" stroke-linecap="round"/>
<line x1="405.69" y1="107.86" x2="377.65" y2="109.58" stroke="#D32F2F" stroke-width="8.00" stroke-linecap="round"/>
<line x1="342.03" y1="105.69" x2="358.51" y2="90.03" stroke="#D32F2F" stroke-width="8.00" stroke-linecap="round"/>
<line x1="387.85" y1="89.83" x2="358.51" y2="90.03" stroke="#D32F2F" stroke-width="7.73" stroke-linecap="round"/>
<line x1="323.23" y1="86.06" x2="342.31" y2="72.86" stroke="#D32F2F" stroke-width="8.00" stroke-linecap="round"/>
<line x1="372.55" y1="73.85" x2="342.31" y2="72.86" stroke="#D32F2F" stroke-width="6.82" stroke-linecap="round"/>
<line x1="307.82" y1="69.23" x2="329.31" y2="58.37" stroke="#D32F2F" stroke-width="8.00" stroke-linecap="round"/>
<line x1="360.04" y1="60.19" x2="329.31" y2="58.37" stroke="#D32F2F" stroke-width="5.80" stroke-linecap="round"/>
<line x1="295.88" y1="55.37" x2="319.50" y2="46.62" stroke="#D32F2F" stroke-width="8.00" stroke-linecap="round"/>
<line x1="350.36" y1="48.95" x2="319.50" y2="46.62" stroke="#D32F2F" stroke-width="4.73" stroke-linecap="round"/>
<line x1="287.28" y1="44.46" x2="312.70" y2="37.59" stroke="#D32F2F" stroke-width="8.00" stroke-linecap="round"/>
<line x1="343.36" y1="40.07" x2="312.70" y2="37.59" stroke="#D32F2F" stroke-width="5.05" stroke-linecap="round"/>
<line x1="281.69" y1="36.40" x2="308.57" y2="31.12" stroke="#D32F2F" stroke-width="7.73" stroke-linecap="round"/>
<line x1="338.77" y1="33.44" x2="308.57" y2="31.12" stroke="#D32F2F" stroke-width="5.70" stroke-linecap="round"/>
<line x1="278.71" y1="31.00" x2="306.71" y2="27.06" stroke="#D32F2F" stroke-width="7.25" stroke-linecap="round"/>
<line x1="336.27" y1="28.92" x2="306.71" y2="27.06" stroke="#D32F2F" stroke-width="6.33" stroke-linecap="round"/>
<line x1="277.86" y1="28.05" x2="306.69" y2="25.24" stroke="#D32F2F" stroke-width="6.84" stroke-linecap="round"/>
<line x1="335.55" y1="26.40" x2="306.69" y2="25.24" stroke="#D32F2F" stroke-width="6.90" stroke-linecap="round"/>
<line x1="26.44" y1="341.66" x2="25.23" y2="310.56" stroke="#D32F2F" stroke-width="4.10" stroke-linecap="round"/>
<line x1="27.41" y1="279.30" x2="27.14" y2="301.67" stroke="#D32F2F" stroke-width="8.00" stroke-linecap="round"/>
<line x1="27.39" y1="332.79" x2="27.14" y2="301.67" stroke="#D32F2F" stroke-width="4.11" stroke-linecap="round"/>
<line x1="30.40" y1="270.47" x2="30.99" y2="293.35" stroke="#D32F2F" stroke-width="8.00" stroke-linecap="round"/>
<line x1="30.20" y1="324.44" x2="30.99" y2="293.35" stroke="#D32F2F" stroke-width="4.19" stroke-linecap="round"/>
<line x1="35.50" y1="262.23" x2="36.81" y2="285.95" stroke="#D32F2F" stroke-width="8.00" stroke-linecap="round"/>
<line x1="34.85" y1="316.94" x2="36.81" y2="285.95" stroke="#D32F2F" stroke-width="4.49" stroke-linecap="round"/>
<line x1="42.86" y1="255.04" x2="44.65" y2="279.86" stroke="#D32F2F" stroke-width="8.00" stroke-linecap="round"/>
<line x1="41.33" y1="310.60" x2="44.65" y2="279.86" stroke="#D32F2F" stroke-width="4.91" stroke-linecap="round"/>
<line x1="52.60" y1="249.40" x2="54.59" y2="275.47" stroke="#D32F2F" stroke-width="8.00" stroke-linecap="round"/>
<line x1="49.67" y1="305.76" x2="54.59" y2="275.47" stroke="#D32F2F" stroke-width="5.42" stroke-linecap="round"/>
<line x1="64.87" y1="245.84" x2="66.72" y2="273.21" stroke="#D32F2F" stroke-width="7.77" stroke-linecap="round"/>
<line x1="59.92" y1="302.78" x2="66.72" y2="273.21" stroke="#D32F2F" stroke-width="6.00" stroke-linecap="round"/>
<line x1="79.75" y1="244.92" x2="81.11" y2="273.52" stroke="#D32F2F" stroke-width="7.38" stroke-linecap="round"/>
<line x1="72.17" y1="302.02" x2="81.11" y2="273.52" stroke="#D32F2F" stroke-width="6.64" stroke-linecap="round"/>
<line x1="97.28" y1="247.20" x2="97.79" y2="276.84" stroke="#D32F2F" stroke-width="7.10" stroke-linecap="round"/>
<line x1="86.44" y1="303.87" x2="97.79" y2="276.84" stroke="#D32F2F" stroke-width="7.30" stroke-linecap="round"/>
<line x1="117.40" y1="253.16" x2="116.70" y2="283.57" stroke="#D32F2F" stroke-width="6.99" stroke-linecap="round"/>
<line x1="102.76" y1="308.71" x2="116.70" y2="283.57" stroke="#D32F2F" stroke-width="7.94" stroke-linecap="round"/>
<line x1="139.88" y1="263.16" x2="137.64" y2="293.98" stroke="#D32F2F" stroke-width="7.09" stroke-linecap="round"/>
<line x1="121.00" y1="316.82" x2="137.64" y2="293.98" stroke="#D32F2F" stroke-width="8.00" stroke-linecap="round"/>
<line x1="164.30" y1="277.36" x2="160.22" y2="308.19" stroke="#D32F2F" stroke-width="8.00" stroke-linecap="round"/>
<line x1="140.88" y1="328.39" x2="160.22" y2="308.19" stroke="#D32F2F" stroke-width="8.00" stroke-linecap="round"/>
<line x1="190.04" y1="295.65" x2="183.83" y2="326.03" stroke="#D32F2F" stroke-width="8.00" stroke-linecap="round"/>
<line x1="161.92" y1="343.33" x2="183.83" y2="326.03" stroke="#D32F2F" stroke-width="8.00" stroke-linecap="round"/>
<line x1="216.25" y1="317.57" x2="207.68" y2="347.04" stroke="#D32F2F" stroke-width="8.00" stroke-linecap="round"/>
<line x1="183.39" y1="361.30" x2="207.68" y2="347.04" stroke="#D32F2F" stroke-width="8.00" stroke-linecap="round"/>
<line x1="241.95" y1="342.39" x2="230.82" y2="370.49" stroke="#D32F2F" stroke-width="8.00" stroke-linecap="round"/>
<line x1="204.48" y1="381.66" x2="230.82" y2="370.49" stroke="#D32F2F" stroke-width="8.00" stroke-linecap="round"/>
<line x1="266.15" y1="369.16" x2="252.35" y2="395.46" stroke="#D32F2F" stroke-width="8.00" stroke-linecap="round"/>
<line x1="224.31" y1="403.60" x2="252.35" y2="395.46" stroke="#D32F2F" stroke-width="8.00" stroke-linecap="round"/>
<line x1="287.97" y1="396.81" x2="271.49" y2="420.95" stroke="#D32F2F" stroke-width="8.00" stroke-linecap="round"/>
<line x1="242.15" y1="426.20" x2="271.49" y2="420.95" stroke="#D32F2F" stroke-width="8.00" stroke-linecap="round"/>
<line x1="306.77" y1="424.36" x2="287.69" y2="446.08" stroke="#D32F2F" stroke-width="8.00" stroke-linecap="round"/>
<line x1="257.45" y1="448.62" x2="287.69" y2="446.08" stroke="#D32F2F" stroke-width="8.00" stroke-linecap="round"/>
<line x1="322.18" y1="450.96" x2="300.69" y2="470.11" stroke="#D32F2F" stroke-width="8.00" stroke-linecap="round"/>
<line x1="269.96" y1="470.21" x2="300.69" y2="470.11" stroke="#D32F2F" stroke-width="8.00" stroke-linecap="round"/>
<line x1="334.12" y1="475.96" x2="310.50" y2="492.52" stroke="#D32F2F" stroke-width="8.00" stroke-linecap="round"/>
<line x1="279.64" y1="490.48" x2="310.50" y2="492.52" stroke="#D32F2F" stroke-width="7.46" stroke-linecap="round"/>
<line x1="342.72" y1="498.94" x2="317.30" y2="513.01" stroke="#D32F2F" stroke-width="8.00" stroke-linecap="round"/>
<line x1="286.64" y1="509.19" x2="317.30" y2="513.01" stroke="#D32F2F" stroke-width="6.63" stroke-linecap="round"/>
<line x1="348.31" y1="519.62" x2="321.43" y2="531.40" stroke="#D32F2F" stroke-width="7.79" stroke-linecap="round"/>
<line x1="291.23" y1="526.21" x2="321.43" y2="531.40" stroke="#D32F2F" stroke-width="6.70" stroke-linecap="round"/>
<line x1="351.29" y1="537.91" x2="323.29" y2="547.63" stroke="#D32F2F" stroke-width="7.32" stroke-linecap="round"/>
<line x1="293.73" y1="541.51" x2="323.29" y2="547.63" stroke="#D32F2F" stroke-width="6.88" stroke-linecap="round"/>
<line x1="352.14" y1="553.79" x2="323.31" y2="561.73" stroke="#D32F2F" stroke-width="6.90" stroke-linecap="round"/>
<line x1="294.45" y1="555.10" x2="323.31" y2="561.73" stroke="#D32F2F" stroke-width="7.13" stroke-linecap="round"/>
<line x1="351.34" y1="567.31" x2="321.92" y2="573.75" stroke="#D32F2F" stroke-width="6.56" stroke-linecap="round"/>
<line x1="293.74" y1="567.01" x2="321.92" y2="573.75" stroke="#D32F2F" stroke-width="7.40" stroke-linecap="round"/>
<line x1="349.36" y1="578.57" x2="319.55" y2="583.74" stroke="#D32F2F" stroke-width="6.30" stroke-linecap="round"/>
<line x1="291.94" y1="577.26" x2="319.55" y2="583.74" stroke="#D32F2F" stroke-width="7.65" stroke-linecap="round"/>
<line x1="346.65" y1="587.66" x2="316.61" y2="591.76" stroke="#D32F2F" stroke-width="6.14" stroke-linecap="round"/>
<line x1="289.37" y1="585.85" x2="316.61" y2="591.76" stroke="#D32F2F" stroke-width="7.83" stroke-linecap="round"/>
<line x1="343.61" y1="594.70" x2="313.49" y2="597.87" stroke="#D32F2F" stroke-width="6.08" stroke-linecap="round"/>
<line x1="286.39" y1="592.75" x2="313.49" y2="597.87" stroke="#D32F2F" stroke-width="7.91" stroke-linecap="round"/>
<line x1="340.63" y1="599.77" x2="310.56" y2="602.08" stroke="#D32F2F" stroke-width="6.12" stroke-linecap="round"/>
<line x1="283.35" y1="597.91" x2="310.56" y2="602.08" stroke="#D32F2F" stroke-width="7.87" stroke-linecap="round"/>
<line x1="338.06" y1="602.93" x2="308.19" y2="604.41" stroke="#D32F2F" stroke-width="6.26" stroke-linecap="round"/>
<line x1="280.64" y1="601.25" x2="308.19" y2="604.41" stroke="#D32F2F" stroke-width="7.68" stroke-linecap="round"/>
</svg>