<svg width="630.0" height="630.0" viewBox="0 0 630.0 630.0" xmlns="http://www.w3.org/2000/svg">
<circle cx="315.0" cy="315.0" r="290.0" fill="#FDFDF5" stroke="#ccc" stroke-width="0.5"/>
<line x1="554.44" y1="478.57" x2="536.00" y2="502.42" stroke="#D32F2F" stroke-width="5.98" stroke-linecap="round"/>
<line x1="514.96" y1="524.10" x2="532.65" y2="503.43" stroke="#D32F2F" stroke-width="7.85" stroke-linecap="round"/>
<line x1="551.80" y1="480.24" x2="532.65" y2="503.43" stroke="#D32F2F" stroke-width="6.04" stroke-linecap="round"/>
<line x1="510.93" y1="524.26" x2="528.19" y2="502.77" stroke="#D32F2F" stroke-width="7.65" stroke-linecap="round"/>
<line x1="547.99" y1="480.40" x2="528.19" y2="502.77" stroke="#D32F2F" stroke-width="6.21" stroke-linecap="round"/>
<line x1="505.75" y1="522.50" x2="522.81" y2="500.13" stroke="#D32F2F" stroke-width="7.35" stroke-linecap="round"/>
<line x1="543.27" y1="478.80" x2="522.81" y2="500.13" stroke="#D32F2F" stroke-width="6.47" stroke-linecap="round"/>
<line x1="499.60" y1="518.38" x2="516.73" y2="495.18" stroke="#D32F2F" stroke-width="6.96" stroke-linecap="round"/>
<line x1="537.86" y1="475.17" x2="516.73" y2="495.18" stroke="#D32F2F" stroke-width="6.81" stroke-linecap="round"/>
<line x1="492.68" y1="511.46" x2="510.13" y2="487.58" stroke="#D32F2F" stroke-width="6.55" stroke-linecap="round"/>
<line x1="531.93" y1="469.26" x2="510.13" y2="487.58" stroke="#D32F2F" stroke-width="7.22" stroke-linecap="round"/>
<line x1="485.20" y1="501.30" x2="503.19" y2="476.98" stroke="#D32F2F" stroke-width="6.16" stroke-linecap="round"/>
<line x1="525.68" y1="460.75" x2="503.19" y2="476.98" stroke="#D32F2F" stroke-width="7.68" stroke-linecap="round"/>
<line x1="477.39" y1="487.45" x2="496.09" y2="463.05" stroke="#D32F2F" stroke-width="5.85" stroke-linecap="round"/>
<line x1="519.25" y1="449.37" x2="496.09" y2="463.05" stroke="#D32F2F" stroke-width="8.00" stroke-linecap="round"/>
<line x1="469.49" y1="469.59" x2="489.03" y2="445.52" stroke="#D32F2F" stroke-width="6.28" stroke-linecap="round"/>
<line x1="512.81" y1="434.82" x2="489.03" y2="445.52" stroke="#D32F2F" stroke-width="8.00" stroke-linecap="round"/>
<line x1="461.75" y1="447.52" x2="482.21" y2="424.24" stroke="#D32F2F" stroke-width="7.34" stroke-linecap="round"/>
<line x1="506.54" y1="416.92" x2="482.21" y2="424.24" stroke="#D32F2F" stroke-width="8.00" stroke-linecap="round"/>
<line x1="454.44" y1="421.26" x2="475.83" y2="399.26" stroke="#D32F2F" stroke-width="8.00" stroke-linecap="round"/>
<line x1="500.60" y1="395.61" x2="475.83" y2="399.26" stroke="#D32F2F" stroke-width="8.00" stroke-linecap="round"/>
<line x1="447.81" y1="391.16" x2="470.13" y2="370.93" stroke="#D32F2F" stroke-width="8.00" stroke-linecap="round"/>
<line x1="495.21" y1="371.11" x2="470.13" y2="370.93" stroke="#D32F2F" stroke-width="8.00" stroke-linecap="round"/>
<line x1="442.13" y1="357.90" x2="465.32" y2="339.92" stroke="#D32F2F" stroke-width="8.00" stroke-linecap="round"/>
<line x1="490.56" y1="343.93" x2="465.32" y2="339.92" stroke="#D32F2F" stroke-width="8.00" stroke-linecap="round"/>
<line x1="437.60" y1="322.52" x2="461.61" y2="307.24" stroke="#D32F2F" stroke-width="8.00" stroke-linecap="round"/>
<line x1="486.86" y1="314.93" x2="461.61" y2="307.24" stroke="#D32F2F" stroke-width="8.00" stroke-linecap="round"/>
<line x1="434.44" y1="286.31" x2="459.17" y2="274.14" stroke="#D32F2F" stroke-width="8.00" stroke-linecap="round"/>
<line x1="484.26" y1="285.22" x2="459.17" y2="274.14" stroke="#D32F2F" stroke-width="8.00" stroke-linecap="round"/>
<line x1="432.74" y1="250.68" x2="458.11" y2="241.91" stroke="#D32F2F" stroke-width="8.00" stroke-linecap="round"/>
<line x1="482.87" y1="256.02" x2="458.11" y2="241.91" stroke="#D32F2F" stroke-width="8.00" stroke-linecap="round"/>
<line x1="432.57" y1="216.93" x2="458.44" y2="211.75" stroke="#D32F2F" stroke-width="8.00" stroke-linecap="round"/>
<line x1="482.73" y1="228.45" x2="458.44" y2="211.75" stroke="#D32F2F" stroke-width="8.00" stroke-linecap="round"/>
<line x1="433.87" y1="186.14" x2="460.10" y2="184.56" stroke="#D32F2F" stroke-width="8.00" stroke-linecap="round"/>
<line x1="483.79" y1="203.38" x2="460.10" y2="184.56" stroke="#D32F2F" stroke-width="7.85" stroke-linecap="round"/>
<line x1="436.51" y1="159.01" x2="462.96" y2="160.93" stroke="#D32F2F" stroke-width="8.00" stroke-linecap="round"/>
<line x1="485.93" y1="181.37" x2="462.96" y2="160.93" stroke="#D32F2F" stroke-width="6.95" stroke-linecap="round"/>
<line x1="440.30" y1="135.93" x2="466.81" y2="141.08" stroke="#D32F2F" stroke-width="8.00" stroke-linecap="round"/>
<line x1="489.00" y1="162.65" x2="466.81" y2="141.08" stroke="#D32F2F" stroke-width="5.94" stroke-linecap="round"/>
<line x1="444.98" y1="116.97" x2="471.43" y2="125.00" stroke="#D32F2F" stroke-width="8.00" stroke-linecap="round"/>
<line x1="492.81" y1="147.21" x2="471.43" y2="125.00" stroke="#D32F2F" stroke-width="5.59" stroke-linecap="round"/>
<line x1="450.27" y1="101.98" x2="476.53" y2="112.49" stroke="#D32F2F" stroke-width="7.62" stroke-linecap="round"/>
<line x1="497.17" y1="134.88" x2="476.53" y2="112.49" stroke="#D32F2F" stroke-width="5.99" stroke-linecap="round"/>
<line x1="455.87" y1="90.67" x2="481.86" y2="103.25" stroke="#D32F2F" stroke-width="7.15" stroke-linecap="round"/>
<line x1="501.85" y1="125.42" x2="481.86" y2="103.25" stroke="#D32F2F" stroke-width="6.44" stroke-linecap="round"/>
<line x1="461.48" y1="82.65" x2="487.14" y2="96.92" stroke="#D32F2F" stroke-width="6.74" stroke-linecap="round"/>
<line x1="506.66" y1="118.56" x2="487.14" y2="96.92" stroke="#D32F2F" stroke-width="6.90" stroke-linecap="round"/>
<line x1="466.82" y1="77.53" x2="492.11" y2="93.16" stroke="#D32F2F" stroke-width="6.40" stroke-linecap="round"/>
<line x1="511.36" y1="114.05" x2="492.11" y2="93.16" stroke="#D32F2F" stroke-width="7.31" stroke-linecap="round"/>
<line x1="471.61" y1="74.89" x2="496.48" y2="91.63" stroke="#D32F2F" stroke-width="6.16" stroke-linecap="round"/>
<line x1="515.73" y1="111.65" x2="496.48" y2="91.63" stroke="#D32F2F" stroke-width="7.63" stroke-linecap="round"/>
<line x1="475.61" y1="74.35" x2="500.01" y2="92.01" stroke="#D32F2F" stroke-width="6.02" stroke-linecap="round"/>
<line x1="519.50" y1="111.15" x2="500.01" y2="92.01" stroke="#D32F2F" stroke-width="7.84" stroke-linecap="round"/>
<line x1="75.56" y1="151.43" x2="94.00" y2="127.58" stroke="#D32F2F" stroke-width="5.98" stroke-linecap="round"/>
<line x1="115.04" y1="105.90" x2="97.35" y2="126.57" stroke="#D32F2F" stroke-width="7.85" stroke-linecap="round"/>
<line x1="78.20" y1="149.76" x2="97.35" y2="126.57" stroke="#D32F2F" stroke-width="6.04" stroke-linecap="round"/>
<line x1="119.07" y1="105.74" x2="101.81" y2="127.23" stroke="#D32F2F" stroke-width="7.65" stroke-linecap="round"/>
<line x1="82.01" y1="149.60" x2="101.81" y2="127.23" stroke="#D32F2F" stroke-width="6.21" stroke-linecap="round"/>
<line x1="124.25" y1="107.50" x2="107.19" y2="129.87" stroke="#D32F2F" stroke-width="7.35" stroke-linecap="round"/>
<line x1="86.73" y1="151.20" x2="107.19" y2="129.87" stroke="#D32F2F" stroke-width="6.47" stroke-linecap="round"/>
<line x1="130.40" y1="111.62" x2="113.27" y2="134.82" stroke="#D32F2F" stroke-width="6.96" stroke-linecap="round"/>
<line x1="92.14" y1="154.83" x2="113.27" y2="134.82" stroke="#D32F2F" stroke-width="6.81" stroke-linecap="round"/>
<line x1="137.32" y1="118.54" x2="119.87" y2="142.42" stroke="#D32F2F" stroke-width="6.55" stroke-linecap="round"/>
<line x1="98.07" y1="160.74" x2="119.87" y2="142.42" stroke="#D32F2F" stroke-width="7.22" stroke-linecap="round"/>
<line x1="144.80" y1="128.70" x2="126.81" y2="153.02" stroke="#D32F2F" stroke-width="6.16" stroke-linecap="round"/>
<line x1="104.32" y1="169.25" x2="126.81" y2="153.02" stroke="#D32F2F" stroke-width="7.68" stroke-linecap="round"/>
<line x1="152.61" y1="142.55" x2="133.91" y2="166.95" stroke="#D32F2F" stroke-width="5.85" stroke-linecap="round"/>
<line x1="110.75" y1="180.63" x2="133.91" y2="166.95" stroke="#D32F2F" stroke-width="8.00" stroke-linecap="round"/>
<line x1="160.51" y1="160.41" x2="140.97" y2="184.48" stroke="#D32F2F" stroke-width="6.28" stroke-linecap="round"/>
<line x1="117.19" y1="195.18" x2="140.97" y2="184.48" stroke="#D32F2F" stroke-width="8.00" stroke-linecap="round"/>
<line x1="168.25" y1="182.48" x2="147.79" y2="205.76" stroke="#D32F2F" stroke-width="7.34" stroke-linecap="round"/>
<line x1="123.46" y1="213.08" x2="147.79" y2="205.76" stroke="#D32F2F" stroke-width="8.00" stroke-linecap="round"/>
<line x1="175.56" y1="208.74" x2="154.17" y2="230.74" stroke="#D32F2F" stroke-width="8.00" stroke-linecap="round"/>
<line x1="129.40" y1="234.39" x2="154.17" y2="230.74" stroke="#D32F2F" stroke-width="8.00" stroke-linecap="round"/>
<line x1="182.19" y1="238.84" x2="159.87" y2="259.07" stroke="#D32F2F" stroke-width="8.00" stroke-linecap="round"/>
<line x1="134.79" y1="258.89" x2="159.87" y2="259.07" stroke="#D32F2F" stroke-width="8.00" stroke-linecap="round"/>
<line x1="187.87" y1="272.10" x2="164.68" y2="290.08" stroke="#D32F2F" stroke-width="8.00" stroke-linecap="round"/>
<line x1="139.44" y1="286.07" x2="164.68" y2="290.08" stroke="#D32F2F" stroke-width="8.00" stroke-linecap="round"/>
<line x1="192.40" y1="307.48" x2="168.39" y2="322.76" stroke="#D32F2F" stroke-width="8.00" stroke-linecap="round"/>
<line x1="143.14" y1="315.07" x2="168.39" y2="322.76" stroke="#D32F2F" stroke-width="8.00" stroke-linecap="round"/>
<line x1="195.56" y1="343.69" x2="170.83" y2="355.86" stroke="#D32F2F" stroke-width="8.00" stroke-linecap="round"/>
<line x1="145.74" y1="344.78" x2="170.83" y2="355.86" stroke="#D32F2F" stroke-width="8.00" stroke-linecap="round"/>
<line x1="197.26" y1="379.32" x2="171.89" y2="388.09" stroke="#D32F2F" stroke-width="8.00" stroke-linecap="round"/>
<line x1="147.13" y1="373.98" x2="171.89" y2="388.09" stroke="#D32F2F" stroke-width="8.00" stroke-linecap="round"/>
<line x1="197.43" y1="413.07" x2="171.56" y2="418.25" stroke="#D32F2F" stroke-width="8.00" stroke-linecap="round"/>
<line x1="147.27" y1="401.55" x2="171.56" y2="418.25" stroke="#D32F2F" stroke-width="8.00" stroke-linecap="round"/>
<line x1="196.13" y1="443.86" x2="169.90" y2="445.44" stroke="#D32F2F" stroke-width="8.00" stroke-linecap="round"/>
<line x1="146.21" y1="426.62" x2="169.90" y2="445.44" stroke="#D32F2F" stroke-width="7.85" stroke-linecap="round"/>
<line x1="193.49" y1="470.99" x2="167.04" y2="469.07" stroke="#D32F2F" stroke-width="8.00" stroke-linecap="round"/>
<line x1="144.07" y1="448.63" x2="167.04" y2="469.07" stroke="#D32F2F" stroke-width="6.95" stroke-linecap="round"/>
<line x1="189.70" y1="494.07" x2="163.19" y2="488.92" stroke="#D32F2F" stroke-width="8.00" stroke-linecap="round"/>
<line x1="141.00" y1="467.35" x2="163.19" y2="488.92" stroke="#D32F2F" stroke-width="5.94" stroke-linecap="round"/>
<line x1="185.02" y1="513.03" x2="158.57" y2="505.00" stroke="#D32F2F" stroke-width="8.00" stroke-linecap="round"/>
<line x1="137.19" y1="482.79" x2="158.57" y2="505.00" stroke="#D32F2F" stroke-width="5.59" stroke-linecap="round"/>
<line x1="179.73" y1="528.02" x2="153.47" y2="517.51" stroke="#D32F2F" stroke-width="7.62" stroke-linecap="round"/>
<line x1="132.83" y1="495.12" x2="153.47" y2="517.51" stroke="#D32F2F" stroke-width="5.99" stroke-linecap="round"/>
<line x1="174.13" y1="539.33" x2="148.14" y2="526.75" stroke="#D32F2F" stroke-width="7.15" stroke-linecap="round"/>
<line x1="128.15" y1="504.58" x2="148.14" y2="526.75" stroke="#D32F2F" stroke-width="6.44" stroke-linecap="round"/>
<line x1="168.52" y1="547.35" x2="142.86" y2="533.08" stroke="#D32F2F" stroke-width="6.74" stroke-linecap="round"/>
<line x1="123.34" y1="511.44" x2="142.86" y2="533.08" stroke="#D32F2F" stroke-width="6.90" stroke-linecap="round"/>
<line x1="163.18" y1="552.47" x2="137.89" y2="536.84" stroke="#D32F2F" stroke-width="6.40" stroke-linecap="round"/>
<line x1="118.64" y1="515.95" x2="137.89" y2="536.84" stroke="#D32F2F" stroke-width="7.31" stroke-linecap="round"/>
<line x1="158.39" y1="555.11" x2="133.52" y2="538.37" stroke="#D32F2F" stroke-width="6.16" stroke-linecap="round"/>
<line x1="114.27" y1="518.35" x2="133.52" y2="538.37" stroke="#D32F2F" stroke-width="7.63" stroke-linecap="round"/>
<line x1="154.39" y1="555.65" x2="129.99" y2="537.99" stroke="#D32F2F" stroke-width="6.02" stroke-linecap="round"/>
<line x1="110.50" y1="518.85" x2="129.99" y2="537.99" stroke="#D32F2F" stroke-width="7.84" stroke-linecap="round"/>
<line x1="554.44" y1="478.57" x2="536.00" y2="502.42" stroke="#D32F2F" stroke-width="5.98" stroke-linecap="round"/>
<line x1="514.96" y1="524.10" x2="532.65" y2="503.43" stroke="#D32F2F" stroke-width="7.85" stroke-linecap="round"/>
<line x1="551.80" y1="480.24" x2="532.65" y2="503.43" stroke="#D32F2F" stroke-width="6.04" stroke-linecap="round"/>
<line x1="510.93" y1="524.26" x2="528.19" y2="502.77" stroke="#D32F2F" stroke-width="7.65" stroke-linecap="round"/>
<line x1="547.99" y1="480.40" x2="528.19" y2="502.77" stroke="#D32F2F" stroke-width="6.21" stroke-linecap="round"/>
<line x1="505.75" y1="522.50" x2="522.81" y2="500.13" stroke="#D32F2F" stroke-width="7.35" stroke-linecap="round"/>
<line x1="543.27" y1="478.80" x2="522.81" y2="500.13" stroke="#D32F2F" stroke-width="6.47" stroke-linecap="round"/>
<line x1="499.60" y1="518.38" x2="516.73" y2="495.18" stroke="#D32F2F" stroke-width="6.96" stroke-linecap="round"/>
<line x1="537.86" y1="475.17" x2="516.73" y2="495.18" stroke="#D32F2F" stroke-width="6.81" stroke-linecap="round"/>
<line x1="492.68" y1="511.46" x2="510.13" y2="487.58" stroke="#D32F2F" stroke-width="6.55" stroke-linecap="round"/>
<line x1="531.93" y1="469.26" x2="510.13" y2="487.58" stroke="#D32F2F" stroke-width="7.22" stroke-linecap="round"/>
<line x1="485.20" y1="501.30" x2="503.19" y2="476.98" stroke="#D32F2F" stroke-width="6.16" stroke-linecap="round"/>
<line x1="525.68" y1="460.75" x2="503.19" y2="476.98" stroke="#D32F2F" stroke-width="7.68" stroke-linecap="round"/>
<line x1="477.39" y1="487.45" x2="496.09" y2="463.05" stroke="#D32F2F" stroke-width="5.85" stroke-linecap="round"/>
<line x1="519.25" y1="449.37" x2="496.09" y2="463.05" stroke="#D32F2F" stroke-width="8.00" stroke-linecap="round"/>
<line x1="469.49" y1="469.59" x2="489.03" y2="445.52" stroke="#D32F2F" stroke-width="6.28" stroke-linecap="round"/>
<line x1="512.81" y1="434.82" x2="489.03" y2="445.52" stroke="#D32F2F" stroke-width="8.00" stroke-linecap="round"/>
<line x1="461.75" y1="447.52" x2="482.21" y2="424.24" stroke="#D32F2F" stroke-width="7.34" stroke-linecap="round"/>
<line x1="506.54" y1="416.92" x2="482.21" y2="424.24" stroke="#D32F2F" stroke-width="8.00" stroke-linecap="round"/>
<line x1="454.44" y1="421.26" x2="475.83" y2="399.26" stroke="#D32F2F" stroke-width="8.00" stroke-linecap="round"/>
<line x1="500.60" y1="395.61" x2="475.83" y2="399.26" stroke="#D32F2F" stroke-width="8.00" stroke-linecap="round"/>
<line x1="447.81" y1="391.16" x2="470.13" y2="370.93" stroke="#D32F2F" stroke-width="8.00" stroke-linecap="round"/>
<line x1="495.21" y1="371.11" x2="470.13" y2="370.93" stroke="#D32F2F" stroke-width="8.00" stroke-linecap="round"/>
<line x1="442.13" y1="357.90" x2="465.32" y2="339.92" stroke="#D32F2F" stroke-width="8.00" stroke-linecap="round"/>
<line x1="490.56" y1="343.93" x2="465.32" y2="339.92" stroke="#D32F2F" stroke-width="8.00" stroke-linecap="round"/>
<line x1="437.60" y1="322.52" x2="461.61" y2="307.24" stroke="#D32F2F" stroke-width="8.00" stroke-linecap="round"/>
<line x1="486.86" y1="314.93" x2="461.61" y2="307.24" stroke="#D32F2F" stroke-width="8.00" stroke-linecap="round"/>
<line x1="434.44" y1="286.31" x2="459.17" y2="274.14" stroke="#D32F2F" stroke-width="8.00" stroke-linecap="round"/>
<line x1="484.26" y1="285.22" x2="459.17" y2="274.14" stroke="#D32F2F" stroke-width="8.00" stroke-linecap="round"/>
<line x1="432.74" y1="250.68" x2="458.11" y2="241.91" stroke="#D32F2F" stroke-width="8.00" stroke-linecap="round"/>
<line x1="482.87" y1="256.02" x2="458.11" y2="241.91" stroke="#D32F2F" stroke-width="8.00" stroke-linecap="round"/>
<line x1="432.57" y1="216.93" x2="458.44" y2="211.75" stroke="#D32F2F" stroke-width="8.00" stroke-linecap="round"/>
<line x1="482.73" y1="228.45" x2="458.44" y2="211.75" stroke="#D32F2F" stroke-width="8.00" stroke-linecap="round"/>
<line x1="433.87" y1="186.14" x2="460.10" y2="184.56" stroke="#D32F2F" stroke-width="8.00" stroke-linecap="round"/>
<line x1="483.79" y1="203.38" x2="460.10" y2="184.56" stroke="#D32F2F" stroke-width="7.85" stroke-linecap="round"/>
<line x1="436.51" y1="159.01" x2="462.96" y2="160.93" stroke="#D32F2F" stroke-width="8.00" stroke-linecap="round"/>
<line x1="485.93" y1="181.37" x2="462.96" y2="160.93" stroke="#D32F2F" stroke-width="6.95" stroke-linecap="round"/>
<line x1="440.30" y1="135.93" x2="466.81" y2="141.08" stroke="#D32F2F" stroke-width="8.00" stroke-linecap="round"/>
<line x1="489.00" y1="162.65" x2="466.81" y2="141.08" stroke="#D32F2F" stroke-width="5.94" stroke-linecap="round"/>
<line x1="444.98" y1="116.97" x2="471.43" y2="125.00" stroke="#D32F2F" stroke-width="8.00" stroke-linecap="round"/>
<line x1="492.81" y1="147.21" x2="471.43" y2="125.00" stroke="#D32F2F" stroke-width="5.59" stroke-linecap="round"/>
<line x1="450.27" y1="101.98" x2="476.53" y2="112.49" stroke="#D32F2F" stroke-width="7.62" stroke-linecap="round"/>
<line x1="497.17" y1="134.88" x2="476.53" y2="112.49" stroke="#D32F2F" stroke-width="5.99" stroke-linecap="round"/>
<line x1="455.87" y1="90.67" x2="481.86" y2="103.25" stroke="#D32F2F" stroke-width="7.15" stroke-linecap="round"/>
<line x1="501.85" y1="125.42" x2="481.86" y2="103.25" stroke="#D32F2F" stroke-width="6.44" stroke-linecap="round"/>
<line x1="461.48" y1="82.65" x2="487.14" y2="96.92" stroke="#D32F2F" stroke-width="6.74" stroke-linecap="round"/>
<line x1="506.66" y1="118.56" x2="487.14" y2="96.92" stroke="#D32F2F" stroke-width="6.90" stroke-linecap="round"/>
<line x1="466.82" y1="77.53" x2="492.11" y2="93.16" stroke="#D32F2F" stroke-width="6.40" stroke-linecap="round"/>
<line x1="511.36" y1="114.05" x2="492.11" y2="93.16" stroke="#D32F2F" stroke-width="7.31" stroke-linecap="round"/>
<line x1="471.61" y1="74.89" x2="496.48" y2="91.63" stroke="#D32F2F" stroke-width="6.16" stroke-linecap="round"/>
<line x1="515.73" y1="111.65" x2="496.48" y2="91.63" stroke="#D32F2F" stroke-width="7.63" stroke-linecap="round"/>
<line x1="475.61" y1="74.35" x2="500.01" y2="92.01" stroke="#D32F2F" stroke-width="6.02" stroke-linecap="round"/>
<line x1="519.50" y1="111.15" x2="500.01" y2="92.01" stroke="#D32F2F" stroke-width="7.84" stroke-linecap="round"/>
<line x1="75.56" y1="151.43" x2="94.00" y2="127.58" stroke="#D32F2F" stroke-width="5.98" stroke-linecap="round"/>
<line x1="115.04" y1="105.90" x2="97.35" y2="126.57" stroke="#D32F2F" stroke-width="7.85" stroke-linecap="round"/>
<line x1="78.20" y1="149.76" x2="97.35" y2="126.57" stroke="#D32F2F" stroke-width="6.04" stroke-linecap="round"/>
<line x1="119.07" y1="105.74" x2="101.81" y2="127.23" stroke="#D32F2F" stroke-width="7.65" stroke-linecap="round"/>
<line x1="82.01" y1="149.60" x2="101.81" y2="127.23" stroke="#D32F2F" stroke-width="6.21" stroke-linecap="round"/>
<line x1="124.25" y1="107.50" x2="107.19" y2="129.87" stroke="#D32F2F" stroke-width="7.35" stroke-linecap="round"/>
<line x1="86.73" y1="151.20" x2="107.19" y2="129.87" stroke="#D32F2F" stroke-width="6.47" stroke-linecap="round"/>
<line x1="130.40" y1="111.62" x2="113.27" y2="134.82" stroke="#D32F2F" stroke-width="6.96" stroke-linecap="round"/>
<line x1="92.14" y1="154.83" x2="113.27" y2="134.82" stroke="#D32F2F" stroke-width="6.81" stroke-linecap="round"/>
<line x1="137.32" y1="118.54" x2="119.87" y2="142.42" stroke="#D32F2F" stroke-width="6.55" stroke-linecap="round"/>
<line x1="98.07" y1="160.74" x2="119.87" y2="142.42" stroke="#D32F2F" stroke-width="7.22" stroke-linecap="round"/>
<line x1="144.80" y1="128.70" x2="126.81" y2="153.02" stroke="#D32F2F" stroke-width="6.16" stroke-linecap="round"/>
<line x1="104.32" y1="169.25" x2="126.81" y2="153.02" stroke="#D32F2F" stroke-width="7.68" stroke-linecap="round"/>
<line x1="152.61" y1="142.55" x2="133.91" y2="166.95" stroke="#D32F2F" stroke-width="5.85" stroke-linecap="round"/>
<line x1="110.75" y1="180.63" x2="133.91" y2="166.95" stroke="#D32F2F" stroke-width="8.00" stroke-linecap="round"/>
<line x1="160.51" y1="160.41" x2="140.97" y2="184.48" stroke="#D32F2F" stroke-width="6.28" stroke-linecap="round"/>
<line x1="117.19" y1="195.18" x2="140.97" y2="184.48" stroke="#D32F2F" stroke-width="8.00" stroke-linecap="round"/>
<line x1="168.25" y1="182.48" x2="147.79" y2="205.76" stroke="#D32F2F" stroke-width="7.34" stroke-linecap="round"/>
<line x1="123.46" y1="213.08" x2="147.79" y2="205.76" stroke="#D32F2F" stroke-width="8.00" stroke-linecap="round"/>
<line x1="175.56" y1="208.74" x2="154.17" y2="230.74" stroke="#D32F2F" stroke-width="8.00" stroke-linecap="round"/>
<line x1="129.40" y1="234.39" x2="154.17" y2="230.74" stroke="#D32F2F" stroke-width="8.00" stroke-linecap="round"/>
<line x1="182.19" y1="238.84" x2="159.87" y2="259.07" stroke="#D32F2F" stroke-width="8.00" stroke-linecap="round"/>
<line x1="134.79" y1="258.89" x2="159.87" y2="259.07" stroke="#D32F2F" stroke-width="8.00" stroke-linecap="round"/>
<line x1="187.87" y1="272.10" x2="164.68" y2="290.08" stroke="#D32F2F" stroke-width="8.00" stroke-linecap="round"/>
<line x1="139.44" y1="286.07" x2="164.68" y2="290.08" stroke="#D32F2F" stroke-width="8.00" stroke-linecap="round"/>
<line x1="192.40" y1="307.48" x2="168.39" y2="322.76" stroke="#D32F2F" stroke-width="8.00" stroke-linecap="round"/>
<line x1="143.14" y1="315.07" x2="168.39" y2="322.76" stroke="#D32F2F" stroke-width="8.00" stroke-linecap="round"/>
<line x1="195.56" y1="343.69" x2="170.83" y2="355.86" stroke="#D32F2F" stroke-width="8.00" stroke-linecap="round"/>
<line x1="145.74" y1="344.78" x2="170.83" y2="355.86" stroke="#D32F2F" stroke-width="8.00" stroke-linecap="round"/>
<line x1="197.26" y1="379.32" x2="171.89" y2="388.09" stroke="#D32F2F" stroke-width="8.00" stroke-linecap="round"/>
<line x1="147.13" y1="373.98" x2="171.89" y2="388.09" stroke="#D32F2F" stroke-width="8.00" stroke-linecap="round"/>
<line x1="197.43" y1="413.07" x2="171.56" y2="418.25" stroke="#D32F2F" stroke-width="8.00" stroke-linecap="round"/>
<line x1="147.27" y1="401.55" x2="171.56" y2="418.25" stroke="#D32F2F" stroke-width="8.00" stroke-linecap="round"/>
<line x1="196.13" y1="443.86" x2="169.90" y2="445.44" stroke="#D32F2F" stroke-width="8.00" stroke-linecap="round"/>
<line x1="146.21" y1="426.62" x2="169.90" y2="445.44" stroke="#D32F2F" stroke-width="7.85" stroke-linecap="round"/>
<line x1="193.49" y1="470.99" x2="167.04" y2="469.07" stroke="#D32F2F" stroke-width="8.00" stroke-linecap="round"/>
<line x1="144.07" y1="448.63" x2="167.04" y2="469.07" stroke="#D32F2F" stroke-width="6.95" stroke-linecap="round"/>
<line x1="189.70" y1="494.07" x2="163.19" y2="488.92" stroke="#D32F2F" stroke-width="8.00" stroke-linecap="round"/>
<line x1="141.00" y1="467.35" x2="163.19" y2="488.92" stroke="#D32F2F" stroke-width="5.94" stroke-linecap="round"/>
<line x1="185.02" y1="513.03" x2="158.57" y2="505.00" stroke="#D32F2F" stroke-width="8.00" stroke-linecap="round"/>
<line x1="137.19" y1="482.79" x2="158.57" y2="505.00" stroke="#D32F2F" stroke-width="5.59" stroke-linecap="round"/>
<line x1="179.73" y1="528.02" x2="153.47" y2="517.51" stroke="#D32F2F" stroke-width="7.62" stroke-linecap="round"/>
<line x1="132.83" y1="495.12" x2="153.47" y2="517.51" stroke="#D32F2F" stroke-width="5.99" stroke-linecap="round"/>
<line x1="174.13" y1="539.33" x2="148.14" y2="526.75" stroke="#D32F2F" stroke-width="7.15" stroke-linecap="round"/>
<line x1="128.15" y1="504.58" x2="148.14" y2="526.75" stroke="#D32F2F" stroke-width="6.44" stroke-linecap="round"/>
<line x1="168.52" y1="547.35" x2="142.86" y2="533.08" stroke="#D32F2F" stroke-width="6.74" stroke-linecap="round"/>
<line x1="123.34" y1="511.44" x2="142.86" y2="533.08" stroke="#D32F2F" stroke-width="6.90" stroke-linecap="round"/>
<line x1="163.18" y1="552.47" x2="137.89" y2="536.84" stroke="#D32F2F" stroke-width="6.40" stroke-linecap="round"/>
<line x1="118.64" y1="515.95" x2="137.89" y2="536.84" stroke="#D32F2F" stroke-width="7.31" stroke-linecap="round"/>
<line x1="158.39" y1="555.11" x2="133.52" y2="538.37" stroke="#D32F2F" stroke-width="6.16" stroke-linecap="round"/>
<line x1="114.27" y1="518.35" x2="133.52" y2="538.37" stroke="#D32F2F" stroke-width="7.63" stroke-linecap="round"/>
<line x1="154.39" y1="555.65" x2="129.99" y2="537.99" stroke="#D32F2F" stroke-width="6.02" stroke-linecap="round"/>
<line x1="110.50" y1="518.85" x2="129.99" y2="537.99" stroke="#D32F2F" stroke-width="7.84" stroke-linecap="round"/>
</svg>