<svg width="630.0" height="630.0" viewBox="0 0 630.0 630.0" xmlns="http://www.w3.org/2000/svg">
<circle cx="315.0" cy="315.0" r="290.0" fill="#FDFDF5" stroke="#ccc" stroke-width="0.5"/>
<line x1="601.13" y1="362.05" x2="594.50" y2="391.46" stroke="#D32F2F" stroke-width="5.98" stroke-linecap="round"/>
<line x1="584.60" y1="420.00" x2="591.90" y2="393.80" stroke="#D32F2F" stroke-width="7.85" stroke-linecap="round"/>
<line x1="599.44" y1="364.69" x2="591.90" y2="393.80" stroke="#D32F2F" stroke-width="6.04" stroke-linecap="round"/>
<line x1="581.01" y1="421.85" x2="587.57" y2="395.08" stroke="#D32F2F" stroke-width="7.65" stroke-linecap="round"/>
<line x1="596.06" y1="366.44" x2="587.57" y2="395.08" stroke="#D32F2F" stroke-width="6.21" stroke-linecap="round"/>
<line x1="575.57" y1="422.44" x2="581.58" y2="394.96" stroke="#D32F2F" stroke-width="7.35" stroke-linecap="round"/>
<line x1="591.11" y1="366.98" x2="581.58" y2="394.96" stroke="#D32F2F" stroke-width="6.47" stroke-linecap="round"/>
<line x1="568.26" y1="421.31" x2="573.98" y2="393.04" stroke="#D32F2F" stroke-width="6.96" stroke-linecap="round"/>
<line x1="584.67" y1="365.98" x2="573.98" y2="393.04" stroke="#D32F2F" stroke-width="6.81" stroke-linecap="round"/>
<line x1="559.06" y1="417.97" x2="564.78" y2="388.94" stroke="#D32F2F" stroke-width="6.55" stroke-linecap="round"/>
<line x1="576.80" y1="363.12" x2="564.78" y2="388.94" stroke="#D32F2F" stroke-width="7.22" stroke-linecap="round"/>
<line x1="547.99" y1="411.91" x2="554.01" y2="382.27" stroke="#D32F2F" stroke-width="6.16" stroke-linecap="round"/>
<line x1="567.54" y1="358.06" x2="554.01" y2="382.27" stroke="#D32F2F" stroke-width="7.68" stroke-linecap="round"/>
<line x1="535.06" y1="402.67" x2="541.69" y2="372.65" stroke="#D32F2F" stroke-width="5.85" stroke-linecap="round"/>
<line x1="556.90" y1="350.46" x2="541.69" y2="372.65" stroke="#D32F2F" stroke-width="8.00" stroke-linecap="round"/>
<line x1="520.35" y1="389.82" x2="527.89" y2="359.74" stroke="#D32F2F" stroke-width="6.28" stroke-linecap="round"/>
<line x1="544.92" y1="340.00" x2="527.89" y2="359.74" stroke="#D32F2F" stroke-width="8.00" stroke-linecap="round"/>
<line x1="504.01" y1="373.08" x2="512.70" y2="343.34" stroke="#D32F2F" stroke-width="7.34" stroke-linecap="round"/>
<line x1="531.67" y1="326.42" x2="512.70" y2="343.34" stroke="#D32F2F" stroke-width="8.00" stroke-linecap="round"/>
<line x1="486.28" y1="352.38" x2="496.37" y2="323.40" stroke="#D32F2F" stroke-width="8.00" stroke-linecap="round"/>
<line x1="517.28" y1="309.62" x2="496.37" y2="323.40" stroke="#D32F2F" stroke-width="8.00" stroke-linecap="round"/>
<line x1="467.56" y1="327.89" x2="479.23" y2="300.13" stroke="#D32F2F" stroke-width="8.00" stroke-linecap="round"/>
<line x1="502.04" y1="289.69" x2="479.23" y2="300.13" stroke="#D32F2F" stroke-width="8.00" stroke-linecap="round"/>
<line x1="448.34" y1="300.15" x2="461.77" y2="274.06" stroke="#D32F2F" stroke-width="8.00" stroke-linecap="round"/>
<line x1="486.34" y1="267.02" x2="461.77" y2="274.06" stroke="#D32F2F" stroke-width="8.00" stroke-linecap="round"/>
<line x1="429.29" y1="270.00" x2="444.60" y2="246.01" stroke="#D32F2F" stroke-width="8.00" stroke-linecap="round"/>
<line x1="470.73" y1="242.31" x2="444.60" y2="246.01" stroke="#D32F2F" stroke-width="8.00" stroke-linecap="round"/>
<line x1="411.12" y1="238.52" x2="428.40" y2="217.03" stroke="#D32F2F" stroke-width="8.00" stroke-linecap="round"/>
<line x1="455.82" y1="216.48" x2="428.40" y2="217.03" stroke="#D32F2F" stroke-width="8.00" stroke-linecap="round"/>
<line x1="394.53" y1="206.94" x2="413.81" y2="188.28" stroke="#D32F2F" stroke-width="8.00" stroke-linecap="round"/>
<line x1="442.22" y1="190.60" x2="413.81" y2="188.28" stroke="#D32F2F" stroke-width="8.00" stroke-linecap="round"/>
<line x1="380.11" y1="176.44" x2="401.36" y2="160.80" stroke="#D32F2F" stroke-width="8.00" stroke-linecap="round"/>
<line x1="430.44" y1="165.67" x2="401.36" y2="160.80" stroke="#D32F2F" stroke-width="8.00" stroke-linecap="round"/>
<line x1="368.27" y1="147.98" x2="391.38" y2="135.46" stroke="#D32F2F" stroke-width="8.00" stroke-linecap="round"/>
<line x1="420.80" y1="142.51" x2="391.38" y2="135.46" stroke="#D32F2F" stroke-width="7.85" stroke-linecap="round"/>
<line x1="359.20" y1="122.27" x2="383.98" y2="112.83" stroke="#D32F2F" stroke-width="8.00" stroke-linecap="round"/>
<line x1="413.44" y1="121.65" x2="383.98" y2="112.83" stroke="#D32F2F" stroke-width="6.95" stroke-linecap="round"/>
<line x1="352.88" y1="99.75" x2="379.09" y2="93.21" stroke="#D32F2F" stroke-width="8.00" stroke-linecap="round"/>
<line x1="408.31" y1="103.38" x2="379.09" y2="93.21" stroke="#D32F2F" stroke-width="5.94" stroke-linecap="round"/>
<line x1="349.11" y1="80.59" x2="376.47" y2="76.69" stroke="#D32F2F" stroke-width="8.00" stroke-linecap="round"/>
<line x1="405.24" y1="87.78" x2="376.47" y2="76.69" stroke="#D32F2F" stroke-width="5.59" stroke-linecap="round"/>
<line x1="347.57" y1="64.77" x2="375.81" y2="63.20" stroke="#D32F2F" stroke-width="7.62" stroke-linecap="round"/>
<line x1="403.97" y1="74.77" x2="375.81" y2="63.20" stroke="#D32F2F" stroke-width="5.99" stroke-linecap="round"/>
<line x1="347.86" y1="52.15" x2="376.74" y2="52.57" stroke="#D32F2F" stroke-width="7.15" stroke-linecap="round"/>
<line x1="404.22" y1="64.21" x2="376.74" y2="52.57" stroke="#D32F2F" stroke-width="6.44" stroke-linecap="round"/>
<line x1="349.56" y1="42.52" x2="378.85" y2="44.60" stroke="#D32F2F" stroke-width="6.74" stroke-linecap="round"/>
<line x1="405.68" y1="55.97" x2="378.85" y2="44.60" stroke="#D32F2F" stroke-width="6.90" stroke-linecap="round"/>
<line x1="352.24" y1="35.62" x2="381.76" y2="39.10" stroke="#D32F2F" stroke-width="6.40" stroke-linecap="round"/>
<line x1="408.04" y1="49.89" x2="381.76" y2="39.10" stroke="#D32F2F" stroke-width="7.31" stroke-linecap="round"/>
<line x1="355.47" y1="31.20" x2="385.08" y2="35.86" stroke="#D32F2F" stroke-width="6.16" stroke-linecap="round"/>
<line x1="410.99" y1="45.87" x2="385.08" y2="35.86" stroke="#D32F2F" stroke-width="7.63" stroke-linecap="round"/>
<line x1="358.86" y1="29.02" x2="388.43" y2="34.71" stroke="#D32F2F" stroke-width="6.02" stroke-linecap="round"/>
<line x1="414.19" y1="43.82" x2="388.43" y2="34.71" stroke="#D32F2F" stroke-width="7.84" stroke-linecap="round"/>
<line x1="28.87" y1="267.95" x2="35.50" y2="238.54" stroke="#D32F2F" stroke-width="5.98" stroke-linecap="round"/>
<line x1="45.40" y1="210.00" x2="38.10" y2="236.20" stroke="#D32F2F" stroke-width="7.85" stroke-linecap="round"/>
<line x1="30.56" y1="265.31" x2="38.10" y2="236.20" stroke="#D32F2F" stroke-width="6.04" stroke-linecap="round"/>
<line x1="48.99" y1="208.15" x2="42.43" y2="234.92" stroke="#D32F2F" stroke-width="7.65" stroke-linecap="round"/>
<line x1="33.94" y1="263.56" x2="42.43" y2="234.92" stroke="#D32F2F" stroke-width="6.21" stroke-linecap="round"/>
<line x1="54.43" y1="207.56" x2="48.42" y2="235.04" stroke="#D32F2F" stroke-width="7.35" stroke-linecap="round"/>
<line x1="38.89" y1="263.02" x2="48.42" y2="235.04" stroke="#D32F2F" stroke-width="6.47" stroke-linecap="round"/>
<line x1="61.74" y1="208.69" x2="56.02" y2="236.96" stroke="#D32F2F" stroke-width="6.96" stroke-linecap="round"/>
<line x1="45.33" y1="264.02" x2="56.02" y2="236.96" stroke="#D32F2F" stroke-width="6.81" stroke-linecap="round"/>
<line x1="70.94" y1="212.03" x2="65.22" y2="241.06" stroke="#D32F2F" stroke-width="6.55" stroke-linecap="round"/>
<line x1="53.20" y1="266.88" x2="65.22" y2="241.06" stroke="#D32F2F" stroke-width="7.22" stroke-linecap="round"/>
<line x1="82.01" y1="218.09" x2="75.99" y2="247.73" stroke="#D32F2F" stroke-width="6.16" stroke-linecap="round"/>
<line x1="62.46" y1="271.94" x2="75.99" y2="247.73" stroke="#D32F2F" stroke-width="7.68" stroke-linecap="round"/>
<line x1="94.94" y1="227.33" x2="88.31" y2="257.35" stroke="#D32F2F" stroke-width="5.85" stroke-linecap="round"/>
<line x1="73.10" y1="279.54" x2="88.31" y2="257.35" stroke="#D32F2F" stroke-width="8.00" stroke-linecap="round"/>
<line x1="109.65" y1="240.18" x2="102.11" y2="270.26" stroke="#D32F2F" stroke-width="6.28" stroke-linecap="round"/>
<line x1="85.08" y1="290.00" x2="102.11" y2="270.26" stroke="#D32F2F" stroke-width="8.00" stroke-linecap="round"/>
<line x1="125.99" y1="256.92" x2="117.30" y2="286.66" stroke="#D32F2F" stroke-width="7.34" stroke-linecap="round"/>
<line x1="98.33" y1="303.58" x2="117.30" y2="286.66" stroke="#D32F2F" stroke-width="8.00" stroke-linecap="round"/>
<line x1="143.72" y1="277.62" x2="133.63" y2="306.60" stroke="#D32F2F" stroke-width="8.00" stroke-linecap="round"/>
<line x1="112.72" y1="320.38" x2="133.63" y2="306.60" stroke="#D32F2F" stroke-width="8.00" stroke-linecap="round"/>
<line x1="162.44" y1="302.11" x2="150.77" y2="329.87" stroke="#D32F2F" stroke-width="8.00" stroke-linecap="round"/>
<line x1="127.96" y1="340.31" x2="150.77" y2="329.87" stroke="#D32F2F" stroke-width="8.00" stroke-linecap="round"/>
<line x1="181.66" y1="329.85" x2="168.23" y2="355.94" stroke="#D32F2F" stroke-width="8.00" stroke-linecap="round"/>
<line x1="143.66" y1="362.98" x2="168.23" y2="355.94" stroke="#D32F2F" stroke-width="8.00" stroke-linecap="round"/>
<line x1="200.71" y1="360.00" x2="185.40" y2="383.99" stroke="#D32F2F" stroke-width="8.00" stroke-linecap="round"/>
<line x1="159.27" y1="387.69" x2="185.40" y2="383.99" stroke="#D32F2F" stroke-width="8.00" stroke-linecap="round"/>
<line x1="218.88" y1="391.48" x2="201.60" y2="412.97" stroke="#D32F2F" stroke-width="8.00" stroke-linecap="round"/>
<line x1="174.18" y1="413.52" x2="201.60" y2="412.97" stroke="#D32F2F" stroke-width="8.00" stroke-linecap="round"/>
<line x1="235.47" y1="423.06" x2="216.19" y2="441.72" stroke="#D32F2F" stroke-width="8.00" stroke-linecap="round"/>
<line x1="187.78" y1="439.40" x2="216.19" y2="441.72" stroke="#D32F2F" stroke-width="8.00" stroke-linecap="round"/>
<line x1="249.89" y1="453.56" x2="228.64" y2="469.20" stroke="#D32F2F" stroke-width="8.00" stroke-linecap="round"/>
<line x1="199.56" y1="464.33" x2="228.64" y2="469.20" stroke="#D32F2F" stroke-width="8.00" stroke-linecap="round"/>
<line x1="261.73" y1="482.02" x2="238.62" y2="494.54" stroke="#D32F2F" stroke-width="8.00" stroke-linecap="round"/>
<line x1="209.20" y1="487.49" x2="238.62" y2="494.54" stroke="#D32F2F" stroke-width="7.85" stroke-linecap="round"/>
<line x1="270.80" y1="507.73" x2="246.02" y2="517.17" stroke="#D32F2F" stroke-width="8.00" stroke-linecap="round"/>
<line x1="216.56" y1="508.35" x2="246.02" y2="517.17" stroke="#D32F2F" stroke-width="6.95" stroke-linecap="round"/>
<line x1="277.12" y1="530.25" x2="250.91" y2="536.79" stroke="#D32F2F" stroke-width="8.00" stroke-linecap="round"/>
<line x1="221.69" y1="526.62" x2="250.91" y2="536.79" stroke="#D32F2F" stroke-width="5.94" stroke-linecap="round"/>
<line x1="280.89" y1="549.41" x2="253.53" y2="553.31" stroke="#D32F2F" stroke-width="8.00" stroke-linecap="round"/>
<line x1="224.76" y1="542.22" x2="253.53" y2="553.31" stroke="#D32F2F" stroke-width="5.59" stroke-linecap="round"/>
<line x1="282.43" y1="565.23" x2="254.19" y2="566.80" stroke="#D32F2F" stroke-width="7.62" stroke-linecap="round"/>
<line x1="226.03" y1="555.23" x2="254.19" y2="566.80" stroke="#D32F2F" stroke-width="5.99" stroke-linecap="round"/>
<line x1="282.14" y1="577.85" x2="253.26" y2="577.43" stroke="#D32F2F" stroke-width="7.15" stroke-linecap="round"/>
<line x1="225.78" y1="565.79" x2="253.26" y2="577.43" stroke="#D32F2F" stroke-width="6.44" stroke-linecap="round"/>
<line x1="280.44" y1="587.48" x2="251.15" y2="585.40" stroke="#D32F2F" stroke-width="6.74" stroke-linecap="round"/>
<line x1="224.32" y1="574.03" x2="251.15" y2="585.40" stroke="#D32F2F" stroke-width="6.90" stroke-linecap="round"/>
<line x1="277.76" y1="594.38" x2="248.24" y2="590.90" stroke="#D32F2F" stroke-width="6.40" stroke-linecap="round"/>
<line x1="221.96" y1="580.11" x2="248.24" y2="590.90" stroke="#D32F2F" stroke-width="7.31" stroke-linecap="round"/>
<line x1="274.53" y1="598.80" x2="244.92" y2="594.14" stroke="#D32F2F" stroke-width="6.16" stroke-linecap="round"/>
<line x1="219.01" y1="584.13" x2="244.92" y2="594.14" stroke="#D32F2F" stroke-width="7.63" stroke-linecap="round"/>
<line x1="271.14" y1="600.98" x2="241.57" y2="595.29" stroke="#D32F2F" stroke-width="6.02" stroke-linecap="round"/>
<line x1="215.81" y1="586.18" x2="241.57" y2="595.29" stroke="#D32F2F" stroke-width="7.84" stroke-linecap="round"/>
<line x1="601.13" y1="362.05" x2="594.50" y2="391.46" stroke="#D32F2F" stroke-width="5.98" stroke-linecap="round"/>
<line x1="584.60" y1="420.00" x2="591.90" y2="393.80" stroke="#D32F2F" stroke-width="7.85" stroke-linecap="round"/>
<line x1="599.44" y1="364.69" x2="591.90" y2="393.80" stroke="#D32F2F" stroke-width="6.04" stroke-linecap="round"/>
<line x1="581.01" y1="421.85" x2="587.57" y2="395.08" stroke="#D32F2F" stroke-width="7.65" stroke-linecap="round"/>
<line x1="596.06" y1="366.44" x2="587.57" y2="395.08" stroke="#D32F2F" stroke-width="6.21" stroke-linecap="round"/>
<line x1="575.57" y1="422.44" x2="581.58" y2="394.96" stroke="#D32F2F" stroke-width="7.35" stroke-linecap="round"/>
<line x1="591.11" y1="366.98" x2="581.58" y2="394.96" stroke="#D32F2F" stroke-width="6.47" stroke-linecap="round"/>
<line x1="568.26" y1="421.31" x2="573.98" y2="393.04" stroke="#D32F2F" stroke-width="6.96" stroke-linecap="round"/>
<line x1="584.67" y1="365.98" x2="573.98" y2="393.04" stroke="#D32F2F" stroke-width="6.81" stroke-linecap="round"/>
<line x1="559.06" y1="417.97" x2="564.78" y2="388.94" stroke="#D32F2F" stroke-width="6.55" stroke-linecap="round"/>
<line x1="576.80" y1="363.12" x2="564.78" y2="388.94" stroke="#D32F2F" stroke-width="7.22" stroke-linecap="round"/>
<line x1="547.99" y1="411.91" x2="554.01" y2="382.27" stroke="#D32F2F" stroke-width="6.16" stroke-linecap="round"/>
<line x1="567.54" y1="358.06" x2="554.01" y2="382.27" stroke="#D32F2F" stroke-width="7.68" stroke-linecap="round"/>
<line x1="535.06" y1="402.67" x2="541.69" y2="372.65" stroke="#D32F2F" stroke-width="5.85" stroke-linecap="round"/>
<line x1="556.90" y1="350.46" x2="541.69" y2="372.65" stroke="#D32F2F" stroke-width="8.00" stroke-linecap="round"/>
<line x1="520.35" y1="389.82" x2="527.89" y2="359.74" stroke="#D32F2F" stroke-width="6.28" stroke-linecap="round"/>
<line x1="544.92" y1="340.00" x2="527.89" y2="359.74" stroke="#D32F2F" stroke-width="8.00" stroke-linecap="round"/>
<line x1="504.01" y1="373.08" x2="512.70" y2="343.34" stroke="#D32F2F" stroke-width="7.34" stroke-linecap="round"/>
<line x1="531.67" y1="326.42" x2="512.70" y2="343.34" stroke="#D32F2F" stroke-width="8.00" stroke-linecap="round"/>
<line x1="486.28" y1="352.38" x2="496.37" y2="323.40" stroke="#D32F2F" stroke-width="8.00" stroke-linecap="round"/>
<line x1="517.28" y1="309.62" x2="496.37" y2="323.40" stroke="#D32F2F" stroke-width="8.00" stroke-linecap="round"/>
<line x1="467.56" y1="327.89" x2="479.23" y2="300.13" stroke="#D32F2F" stroke-width="8.00" stroke-linecap="round"/>
<line x1="502.04" y1="289.69" x2="479.23" y2="300.13" stroke="#D32F2F" stroke-width="8.00" stroke-linecap="round"/>
<line x1="448.34" y1="300.15" x2="461.77" y2="274.06" stroke="#D32F2F" stroke-width="8.00" stroke-linecap="round"/>
<line x1="486.34" y1="267.02" x2="461.77" y2="274.06" stroke="#D32F2F" stroke-width="8.00" stroke-linecap="round"/>
<line x1="429.29" y1="270.00" x2="444.60" y2="246.01" stroke="#D32F2F" stroke-width="8.00" stroke-linecap="round"/>
<line x1="470.73" y1="242.31" x2="444.60" y2="246.01" stroke="#D32F2F" stroke-width="8.00" stroke-linecap="round"/>
<line x1="411.12" y1="238.52" x2="428.40" y2="217.03" stroke="#D32F2F" stroke-width="8.00" stroke-linecap="round"/>
<line x1="455.82" y1="216.48" x2="428.40" y2="217.03" stroke="#D32F2F" stroke-width="8.00" stroke-linecap="round"/>
<line x1="394.53" y1="206.94" x2="413.81" y2="188.28" stroke="#D32F2F" stroke-width="8.00" stroke-linecap="round"/>
<line x1="442.22" y1="190.60" x2="413.81" y2="188.28" stroke="#D32F2F" stroke-width="8.00" stroke-linecap="round"/>
<line x1="380.11" y1="176.44" x2="401.36" y2="160.80" stroke="#D32F2F" stroke-width="8.00" stroke-linecap="round"/>
<line x1="430.44" y1="165.67" x2="401.36" y2="160.80" stroke="#D32F2F" stroke-width="8.00" stroke-linecap="round"/>
<line x1="368.27" y1="147.98" x2="391.38" y2="135.46" stroke="#D32F2F" stroke-width="8.00" stroke-linecap="round"/>
<line x1="420.80" y1="142.51" x2="391.38" y2="135.46" stroke="#D32F2F" stroke-width="7.85" stroke-linecap="round"/>
<line x1="359.20" y1="122.27" x2="383.98" y2="112.83" stroke="#D32F2F" stroke-width="8.00" stroke-linecap="round"/>
<line x1="413.44" y1="121.65" x2="383.98" y2="112.83" stroke="#D32F2F" stroke-width="6.95" stroke-linecap="round"/>
<line x1="352.88" y1="99.75" x2="379.09" y2="93.21" stroke="#D32F2F" stroke-width="8.00" stroke-linecap="round"/>
<line x1="408.31" y1="103.38" x2="379.09" y2="93.21" stroke="#D32F2F" stroke-width="5.94" stroke-linecap="round"/>
<line x1="349.11" y1="80.59" x2="376.47" y2="76.69" stroke="#D32F2F" stroke-width="8.00" stroke-linecap="round"/>
<line x1="405.24" y1="87.78" x2="376.47" y2="76.69" stroke="#D32F2F" stroke-width="5.59" stroke-linecap="round"/>
<line x1="347.57" y1="64.77" x2="375.81" y2="63.20" stroke="#D32F2F" stroke-width="7.62" stroke-linecap="round"/>
<line x1="403.97" y1="74.77" x2="375.81" y2="63.20" stroke="#D32F2F" stroke-width="5.99" stroke-linecap="round"/>
<line x1="347.86" y1="52.15" x2="376.74" y2="52.57" stroke="#D32F2F" stroke-width="7.15" stroke-linecap="round"/>
<line x1="404.22" y1="64.21" x2="376.74" y2="52.57" stroke="#D32F2F" stroke-width="6.44" stroke-linecap="round"/>
<line x1="349.56" y1="42.52" x2="378.85" y2="44.60" stroke="#D32F2F" stroke-width="6.74" stroke-linecap="round"/>
<line x1="405.68" y1="55.97" x2="378.85" y2="44.60" stroke="#D32F2F" stroke-width="6.90" stroke-linecap="round"/>
<line x1="352.24" y1="35.62" x2="381.76" y2="39.10" stroke="#D32F2F" stroke-width="6.40" stroke-linecap="round"/>
<line x1="408.04" y1="49.89" x2="381.76" y2="39.10" stroke="#D32F2F" stroke-width="7.31" stroke-linecap="round"/>
<line x1="355.47" y1="31.20" x2="385.08" y2="35.86" stroke="#D32F2F" stroke-width="6.16" stroke-linecap="round"/>
<line x1="410.99" y1="45.87" x2="385.08" y2="35.86" stroke="#D32F2F" stroke-width="7.63" stroke-linecap="round"/>
<line x1="358.86" y1="29.02" x2="388.43" y2="34.71" stroke="#D32F2F" stroke-width="6.02" stroke-linecap="round"/>
<line x1="414.19" y1="43.82" x2="388.43" y2="34.71" stroke="#D32F2F" stroke-width="7.84" stroke-linecap="round"/>
<line x1="28.87" y1="267.95" x2="35.50" y2="238.54" stroke="#D32F2F" stroke-width="5.98" stroke-linecap="round"/>
<line x1="45.40" y1="210.00" x2="38.10" y2="236.20" stroke="#D32F2F" stroke-width="7.85" stroke-linecap="round"/>
<line x1="30.56" y1="265.31" x2="38.10" y2="236.20" stroke="#D32F2F" stroke-width="6.04" stroke-linecap="round"/>
<line x1="48.99" y1="208.15" x2="42.43" y2="234.92" stroke="#D32F2F" stroke-width="7.65" stroke-linecap="round"/>
<line x1="33.94" y1="263.56" x2="42.43" y2="234.92" stroke="#D32F2F" stroke-width="6.21" stroke-linecap="round"/>
<line x1="54.43" y1="207.56" x2="48.42" y2="235.04" stroke="#D32F2F" stroke-width="7.35" stroke-linecap="round"/>
<line x1="38.89" y1="263.02" x2="48.42" y2="235.04" stroke="#D32F2F" stroke-width="6.47" stroke-linecap="round"/>
<line x1="61.74" y1="208.69" x2="56.02" y2="236.96" stroke="#D32F2F" stroke-width="6.96" stroke-linecap="round"/>
<line x1="45.33" y1="264.02" x2="56.02" y2="236.96" stroke="#D32F2F" stroke-width="6.81" stroke-linecap="round"/>
<line x1="70.94" y1="212.03" x2="65.22" y2="241.06" stroke="#D32F2F" stroke-width="6.55" stroke-linecap="round"/>
<line x1="53.20" y1="266.88" x2="65.22" y2="241.06" stroke="#D32F2F" stroke-width="7.22" stroke-linecap="round"/>
<line x1="82.01" y1="218.09" x2="75.99" y2="247.73" stroke="#D32F2F" stroke-width="6.16" stroke-linecap="round"/>
<line x1="62.46" y1="271.94" x2="75.99" y2="247.73" stroke="#D32F2F" stroke-width="7.68" stroke-linecap="round"/>
<line x1="94.94" y1="227.33" x2="88.31" y2="257.35" stroke="#D32F2F" stroke-width="5.85" stroke-linecap="round"/>
<line x1="73.10" y1="279.54" x2="88.31" y2="257.35" stroke="#D32F2F" stroke-width="8.00" stroke-linecap="round"/>
<line x1="109.65" y1="240.18" x2="102.11" y2="270.26" stroke="#D32F2F" stroke-width="6.28" stroke-linecap="round"/>
<line x1="85.08" y1="290.00" x2="102.11" y2="270.26" stroke="#D32F2F" stroke-width="8.00" stroke-linecap="round"/>
<line x1="125.99" y1="256.92" x2="117.30" y2="286.66" stroke="#D32F2F" stroke-width="7.34" stroke-linecap="round"/>
<line x1="98.33" y1="303.58" x2="117.30" y2="286.66" stroke="#D32F2F" stroke-width="8.00" stroke-linecap="round"/>
<line x1="143.72" y1="277.62" x2="133.63" y2="306.60" stroke="#D32F2F" stroke-width="8.00" stroke-linecap="round"/>
<line x1="112.72" y1="320.38" x2="133.63" y2="306.60" stroke="#D32F2F" stroke-width="8.00" stroke-linecap="round"/>
<line x1="162.44" y1="302.11" x2="150.77" y2="329.87" stroke="#D32F2F" stroke-width="8.00" stroke-linecap="round"/>
<line x1="127.96" y1="340.31" x2="150.77" y2="329.87" stroke="#D32F2F" stroke-width="8.00" stroke-linecap="round"/>
<line x1="181.66" y1="329.85" x2="168.23" y2="355.94" stroke="#D32F2F" stroke-width="8.00" stroke-linecap="round"/>
<line x1="143.66" y1="362.98" x2="168.23" y2="355.94" stroke="#D32F2F" stroke-width="8.00" stroke-linecap="round"/>
<line x1="200.71" y1="360.00" x2="185.40" y2="383.99" stroke="#D32F2F" stroke-width="8.00" stroke-linecap="round"/>
<line x1="159.27" y1="387.69" x2="185.40" y2="383.99" stroke="#D32F2F" stroke-width="8.00" stroke-linecap="round"/>
<line x1="218.88" y1="391.48" x2="201.60" y2="412.97" stroke="#D32F2F" stroke-width="8.00" stroke-linecap="round"/>
<line x1="174.18" y1="413.52" x2="201.60" y2="412.97" stroke="#D32F2F" stroke-width="8.00" stroke-linecap="round"/>
<line x1="235.47" y1="423.06" x2="216.19" y2="441.72" stroke="#D32F2F" stroke-width="8.00" stroke-linecap="round"/>
<line x1="187.78" y1="439.40" x2="216.19" y2="441.72" stroke="#D32F2F" stroke-width="8.00" stroke-linecap="round"/>
<line x1="249.89" y1="453.56" x2="228.64" y2="469.20" stroke="#D32F2F" stroke-width="8.00" stroke-linecap="round"/>
<line x1="199.56" y1="464.33" x2="228.64" y2="469.20" stroke="#D32F2F" stroke-width="8.00" stroke-linecap="round"/>
<line x1="261.73" y1="482.02" x2="238.62" y2="494.54" stroke="#D32F2F" stroke-width="8.00" stroke-linecap="round"/>
<line x1="209.20" y1="487.49" x2="238.62" y2="494.54" stroke="#D32F2F" stroke-width="7.85" stroke-linecap="round"/>
<line x1="270.80" y1="507.73" x2="246.02" y2="517.17" stroke="#D32F2F" stroke-width="8.00" stroke-linecap="round"/>
<line x1="216.56" y1="508.35" x2="246.02" y2="517.17" stroke="#D32F2F" stroke-width="6.95" stroke-linecap="round"/>
<line x1="277.12" y1="530.25" x2="250.91" y2="536.79" stroke="#D32F2F" stroke-width="8.00" stroke-linecap="round"/>
<line x1="221.69" y1="526.62" x2="250.91" y2="536.79" stroke="#D32F2F" stroke-width="5.94" stroke-linecap="round"/>
<line x1="280.89" y1="549.41" x2="253.53" y2="553.31" stroke="#D32F2F" stroke-width="8.00" stroke-linecap="round"/>
<line x1="224.76" y1="542.22" x2="253.53" y2="553.31" stroke="#D32F2F" stroke-width="5.59" stroke-linecap="round"/>
<line x1="282.43" y1="565.23" x2="254.19" y2="566.80" stroke="#D32F2F" stroke-width="7.62" stroke-linecap="round"/>
<line x1="226.03" y1="555.23" x2="254.19" y2="566.80" stroke="#D32F2F" stroke-width="5.99" stroke-linecap="round"/>
<line x1="282.14" y1="577.85" x2="253.26" y2="577.43" stroke="#D32F2F" stroke-width="7.15" stroke-linecap="round"/>
<line x1="225.78" y1="565.79" x2="253.26" y2="577.43" stroke="#D32F2F" stroke-width="6.44" stroke-linecap="round"/>
<line x1="280.44" y1="587.48" x2="251.15" y2="585.40" stroke="#D32F2F" stroke-width="6.74" stroke-linecap="round"/>
<line x1="224.32" y1="574.03" x2="251.15" y2="585.40" stroke="#D32F2F" stroke-width="6.90" stroke-linecap="round"/>
<line x1="277.76" y1="594.38" x2="248.24" y2="590.90" stroke="#D32F2F" stroke-width="6.40" stroke-linecap="round"/>
<line x1="221.96" y1="580.11" x2="248.24" y2="590.90" stroke="#D32F2F" stroke-width="7.31" stroke-linecap="round"/>
<line x1="274.53" y1="598.80" x2="244.92" y2="594.14" stroke="#D32F2F" stroke-width="6.16" stroke-linecap="round"/>
<line x1="219.01" y1="584.13" x2="244.92" y2="594.14" stroke="#D32F2F" stroke-width="7.63" stroke-linecap="round"/>
<line x1="271.14" y1="600.98" x2="241.57" y2="595.29" stroke="#D32F2F" stroke-width="6.02" stroke-linecap="round"/>
<line x1="215.81" y1="586.18" x2="241.57" y2="595.29" stroke="#D32F2F" stroke-width="7.84" stroke-linecap="round"/>
</svg>