<svg width="630.0" height="630.0" viewBox="0 0 630.0 630.0" xmlns="http://www.w3.org/2000/svg">
<circle cx="315.0" cy="315.0" r="290.0" fill="#FDFDF5" stroke="#ccc" stroke-width="0.5"/>
<line x1="499.54" y1="537.86" x2="520.09" y2="517.67" stroke="#D32F2F" stroke-width="6.91" stroke-linecap="round"/>
<line x1="540.08" y1="496.80" x2="520.09" y2="517.67" stroke="#D32F2F" stroke-width="6.85" stroke-linecap="round"/>
<line x1="497.96" y1="535.23" x2="518.46" y2="514.00" stroke="#D32F2F" stroke-width="6.37" stroke-linecap="round"/>
<line x1="538.73" y1="494.55" x2="518.46" y2="514.00" stroke="#D32F2F" stroke-width="7.28" stroke-linecap="round"/>
<line x1="496.04" y1="529.36" x2="516.63" y2="507.28" stroke="#D32F2F" stroke-width="5.78" stroke-linecap="round"/>
<line x1="537.13" y1="489.64" x2="516.63" y2="507.28" stroke="#D32F2F" stroke-width="7.76" stroke-linecap="round"/>
<line x1="493.95" y1="519.78" x2="514.72" y2="497.15" stroke="#D32F2F" stroke-width="5.20" stroke-linecap="round"/>
<line x1="535.41" y1="481.76" x2="514.72" y2="497.15" stroke="#D32F2F" stroke-width="8.00" stroke-linecap="round"/>
<line x1="491.84" y1="506.05" x2="512.85" y2="483.25" stroke="#D32F2F" stroke-width="4.96" stroke-linecap="round"/>
<line x1="533.69" y1="470.58" x2="512.85" y2="483.25" stroke="#D32F2F" stroke-width="8.00" stroke-linecap="round"/>
<line x1="489.85" y1="487.87" x2="511.12" y2="465.34" stroke="#D32F2F" stroke-width="6.08" stroke-linecap="round"/>
<line x1="532.07" y1="455.84" x2="511.12" y2="465.34" stroke="#D32F2F" stroke-width="8.00" stroke-linecap="round"/>
<line x1="488.05" y1="465.12" x2="509.58" y2="443.35" stroke="#D32F2F" stroke-width="7.13" stroke-linecap="round"/>
<line x1="530.62" y1="437.38" x2="509.58" y2="443.35" stroke="#D32F2F" stroke-width="8.00" stroke-linecap="round"/>
<line x1="486.51" y1="437.98" x2="508.28" y2="417.48" stroke="#D32F2F" stroke-width="8.00" stroke-linecap="round"/>
<line x1="529.36" y1="415.28" x2="508.28" y2="417.48" stroke="#D32F2F" stroke-width="8.00" stroke-linecap="round"/>
<line x1="485.26" y1="406.97" x2="507.24" y2="388.26" stroke="#D32F2F" stroke-width="8.00" stroke-linecap="round"/>
<line x1="528.34" y1="389.94" x2="507.24" y2="388.26" stroke="#D32F2F" stroke-width="8.00" stroke-linecap="round"/>
<line x1="484.31" y1="373.00" x2="506.48" y2="356.58" stroke="#D32F2F" stroke-width="8.00" stroke-linecap="round"/>
<line x1="527.56" y1="362.10" x2="506.48" y2="356.58" stroke="#D32F2F" stroke-width="8.00" stroke-linecap="round"/>
<line x1="483.68" y1="337.27" x2="506.01" y2="323.61" stroke="#D32F2F" stroke-width="8.00" stroke-linecap="round"/>
<line x1="527.05" y1="332.79" x2="506.01" y2="323.61" stroke="#D32F2F" stroke-width="8.00" stroke-linecap="round"/>
<line x1="483.40" y1="301.17" x2="505.87" y2="290.66" stroke="#D32F2F" stroke-width="8.00" stroke-linecap="round"/>
<line x1="526.81" y1="303.20" x2="505.87" y2="290.66" stroke="#D32F2F" stroke-width="8.00" stroke-linecap="round"/>
<line x1="483.49" y1="266.07" x2="506.08" y2="258.97" stroke="#D32F2F" stroke-width="8.00" stroke-linecap="round"/>
<line x1="526.89" y1="274.52" x2="506.08" y2="258.97" stroke="#D32F2F" stroke-width="8.00" stroke-linecap="round"/>
<line x1="483.97" y1="233.12" x2="506.66" y2="229.57" stroke="#D32F2F" stroke-width="8.00" stroke-linecap="round"/>
<line x1="527.28" y1="247.70" x2="506.66" y2="229.57" stroke="#D32F2F" stroke-width="8.00" stroke-linecap="round"/>
<line x1="484.84" y1="203.20" x2="507.59" y2="203.17" stroke="#D32F2F" stroke-width="8.00" stroke-linecap="round"/>
<line x1="527.99" y1="223.42" x2="507.59" y2="203.17" stroke="#D32F2F" stroke-width="8.00" stroke-linecap="round"/>
<line x1="486.06" y1="176.82" x2="508.82" y2="180.14" stroke="#D32F2F" stroke-width="8.00" stroke-linecap="round"/>
<line x1="528.97" y1="202.02" x2="508.82" y2="180.14" stroke="#D32F2F" stroke-width="7.42" stroke-linecap="round"/>
<line x1="487.52" y1="154.22" x2="510.25" y2="160.58" stroke="#D32F2F" stroke-width="8.00" stroke-linecap="round"/>
<line x1="530.17" y1="183.61" x2="510.25" y2="160.58" stroke="#D32F2F" stroke-width="6.50" stroke-linecap="round"/>
<line x1="489.11" y1="135.35" x2="511.75" y2="144.38" stroke="#D32F2F" stroke-width="8.00" stroke-linecap="round"/>
<line x1="531.48" y1="168.10" x2="511.75" y2="144.38" stroke="#D32F2F" stroke-width="5.54" stroke-linecap="round"/>
<line x1="490.66" y1="120.02" x2="513.15" y2="131.32" stroke="#D32F2F" stroke-width="8.00" stroke-linecap="round"/>
<line x1="532.77" y1="155.28" x2="513.15" y2="131.32" stroke="#D32F2F" stroke-width="4.60" stroke-linecap="round"/>
<line x1="491.98" y1="107.93" x2="514.26" y2="121.09" stroke="#D32F2F" stroke-width="8.00" stroke-linecap="round"/>
<line x1="533.90" y1="144.92" x2="514.26" y2="121.09" stroke="#D32F2F" stroke-width="4.94" stroke-linecap="round"/>
<line x1="492.87" y1="98.70" x2="514.88" y2="113.37" stroke="#D32F2F" stroke-width="8.00" stroke-linecap="round"/>
<line x1="534.68" y1="136.79" x2="514.88" y2="113.37" stroke="#D32F2F" stroke-width="5.35" stroke-linecap="round"/>
<line x1="493.12" y1="91.95" x2="514.78" y2="107.83" stroke="#D32F2F" stroke-width="8.00" stroke-linecap="round"/>
<line x1="534.91" y1="130.65" x2="514.78" y2="107.83" stroke="#D32F2F" stroke-width="5.68" stroke-linecap="round"/>
<line x1="492.52" y1="87.32" x2="513.74" y2="104.15" stroke="#D32F2F" stroke-width="7.95" stroke-linecap="round"/>
<line x1="534.34" y1="126.28" x2="513.74" y2="104.15" stroke="#D32F2F" stroke-width="5.90" stroke-linecap="round"/>
<line x1="117.99" y1="102.22" x2="98.58" y2="122.64" stroke="#D32F2F" stroke-width="7.36" stroke-linecap="round"/>
<line x1="79.85" y1="145.41" x2="98.58" y2="122.64" stroke="#D32F2F" stroke-width="6.52" stroke-linecap="round"/>
<line x1="120.15" y1="101.77" x2="101.86" y2="122.47" stroke="#D32F2F" stroke-width="7.69" stroke-linecap="round"/>
<line x1="82.22" y1="144.91" x2="101.86" y2="122.47" stroke="#D32F2F" stroke-width="6.29" stroke-linecap="round"/>
<line x1="124.21" y1="102.05" x2="106.94" y2="123.18" stroke="#D32F2F" stroke-width="7.89" stroke-linecap="round"/>
<line x1="86.51" y1="145.20" x2="106.94" y2="123.18" stroke="#D32F2F" stroke-width="6.17" stroke-linecap="round"/>
<line x1="129.95" y1="103.32" x2="113.51" y2="125.03" stroke="#D32F2F" stroke-width="7.94" stroke-linecap="round"/>
<line x1="92.35" y1="146.50" x2="113.51" y2="125.03" stroke="#D32F2F" stroke-width="6.16" stroke-linecap="round"/>
<line x1="137.17" y1="105.90" x2="121.29" y2="128.28" stroke="#D32F2F" stroke-width="7.87" stroke-linecap="round"/>
<line x1="99.43" y1="149.02" x2="121.29" y2="128.28" stroke="#D32F2F" stroke-width="6.24" stroke-linecap="round"/>
<line x1="145.68" y1="110.12" x2="130.04" y2="133.21" stroke="#D32F2F" stroke-width="7.71" stroke-linecap="round"/>
<line x1="107.47" y1="153.00" x2="130.04" y2="133.21" stroke="#D32F2F" stroke-width="6.43" stroke-linecap="round"/>
<line x1="155.26" y1="116.35" x2="139.52" y2="140.10" stroke="#D32F2F" stroke-width="7.48" stroke-linecap="round"/>
<line x1="116.19" y1="158.67" x2="139.52" y2="140.10" stroke="#D32F2F" stroke-width="6.70" stroke-linecap="round"/>
<line x1="165.69" y1="124.99" x2="149.51" y2="149.26" stroke="#D32F2F" stroke-width="7.25" stroke-linecap="round"/>
<line x1="125.39" y1="166.28" x2="149.51" y2="149.26" stroke="#D32F2F" stroke-width="7.04" stroke-linecap="round"/>
<line x1="176.72" y1="136.44" x2="159.78" y2="160.99" stroke="#D32F2F" stroke-width="7.05" stroke-linecap="round"/>
<line x1="134.84" y1="176.08" x2="159.78" y2="160.99" stroke="#D32F2F" stroke-width="7.45" stroke-linecap="round"/>
<line x1="188.06" y1="151.09" x2="170.09" y2="175.61" stroke="#D32F2F" stroke-width="6.95" stroke-linecap="round"/>
<line x1="144.32" y1="188.34" x2="170.09" y2="175.61" stroke="#D32F2F" stroke-width="7.89" stroke-linecap="round"/>
<line x1="199.38" y1="169.28" x2="180.18" y2="193.37" stroke="#D32F2F" stroke-width="6.99" stroke-linecap="round"/>
<line x1="153.64" y1="203.30" x2="180.18" y2="193.37" stroke="#D32F2F" stroke-width="8.00" stroke-linecap="round"/>
<line x1="210.32" y1="191.24" x2="189.75" y2="214.45" stroke="#D32F2F" stroke-width="7.90" stroke-linecap="round"/>
<line x1="162.54" y1="221.18" x2="189.75" y2="214.45" stroke="#D32F2F" stroke-width="8.00" stroke-linecap="round"/>
<line x1="220.46" y1="217.02" x2="198.48" y2="238.89" stroke="#D32F2F" stroke-width="8.00" stroke-linecap="round"/>
<line x1="170.77" y1="242.09" x2="198.48" y2="238.89" stroke="#D32F2F" stroke-width="8.00" stroke-linecap="round"/>
<line x1="229.40" y1="246.43" x2="206.02" y2="266.48" stroke="#D32F2F" stroke-width="8.00" stroke-linecap="round"/>
<line x1="178.03" y1="265.96" x2="206.02" y2="266.48" stroke="#D32F2F" stroke-width="8.00" stroke-linecap="round"/>
<line x1="236.73" y1="278.97" x2="212.03" y2="296.74" stroke="#D32F2F" stroke-width="8.00" stroke-linecap="round"/>
<line x1="183.99" y1="292.45" x2="212.03" y2="296.74" stroke="#D32F2F" stroke-width="8.00" stroke-linecap="round"/>
<line x1="242.07" y1="313.79" x2="216.17" y2="328.85" stroke="#D32F2F" stroke-width="8.00" stroke-linecap="round"/>
<line x1="188.35" y1="320.90" x2="216.17" y2="328.85" stroke="#D32F2F" stroke-width="8.00" stroke-linecap="round"/>
<line x1="245.14" y1="349.74" x2="218.20" y2="361.71" stroke="#D32F2F" stroke-width="8.00" stroke-linecap="round"/>
<line x1="190.87" y1="350.36" x2="218.20" y2="361.71" stroke="#D32F2F" stroke-width="8.00" stroke-linecap="round"/>
<line x1="245.77" y1="385.47" x2="217.98" y2="394.04" stroke="#D32F2F" stroke-width="8.00" stroke-linecap="round"/>
<line x1="191.39" y1="379.68" x2="217.98" y2="394.04" stroke="#D32F2F" stroke-width="8.00" stroke-linecap="round"/>
<line x1="243.93" y1="419.59" x2="215.52" y2="424.57" stroke="#D32F2F" stroke-width="8.00" stroke-linecap="round"/>
<line x1="189.88" y1="407.64" x2="215.52" y2="424.57" stroke="#D32F2F" stroke-width="8.00" stroke-linecap="round"/>
<line x1="239.75" y1="450.88" x2="210.96" y2="452.20" stroke="#D32F2F" stroke-width="8.00" stroke-linecap="round"/>
<line x1="186.46" y1="433.21" x2="210.96" y2="452.20" stroke="#D32F2F" stroke-width="7.56" stroke-linecap="round"/>
<line x1="233.48" y1="478.43" x2="204.56" y2="476.17" stroke="#D32F2F" stroke-width="8.00" stroke-linecap="round"/>
<line x1="181.36" y1="455.64" x2="204.56" y2="476.17" stroke="#D32F2F" stroke-width="6.71" stroke-linecap="round"/>
<line x1="225.47" y1="501.69" x2="196.66" y2="496.07" stroke="#D32F2F" stroke-width="7.84" stroke-linecap="round"/>
<line x1="174.86" y1="474.51" x2="196.66" y2="496.07" stroke="#D32F2F" stroke-width="6.74" stroke-linecap="round"/>
<line x1="216.11" y1="520.47" x2="187.63" y2="511.82" stroke="#D32F2F" stroke-width="7.16" stroke-linecap="round"/>
<line x1="167.26" y1="489.74" x2="187.63" y2="511.82" stroke="#D32F2F" stroke-width="6.94" stroke-linecap="round"/>
<line x1="205.81" y1="534.84" x2="177.82" y2="523.58" stroke="#D32F2F" stroke-width="6.48" stroke-linecap="round"/>
<line x1="158.88" y1="501.45" x2="177.82" y2="523.58" stroke="#D32F2F" stroke-width="7.29" stroke-linecap="round"/>
<line x1="194.99" y1="545.10" x2="167.61" y2="531.64" stroke="#D32F2F" stroke-width="5.83" stroke-linecap="round"/>
<line x1="149.98" y1="509.88" x2="167.61" y2="531.64" stroke="#D32F2F" stroke-width="7.72" stroke-linecap="round"/>
<line x1="184.02" y1="551.64" x2="157.30" y2="536.40" stroke="#D32F2F" stroke-width="5.25" stroke-linecap="round"/>
<line x1="140.80" y1="515.35" x2="157.30" y2="536.40" stroke="#D32F2F" stroke-width="8.00" stroke-linecap="round"/>
<line x1="173.25" y1="554.92" x2="147.20" y2="538.25" stroke="#D32F2F" stroke-width="4.76" stroke-linecap="round"/>
<line x1="131.57" y1="518.16" x2="147.20" y2="538.25" stroke="#D32F2F" stroke-width="8.00" stroke-linecap="round"/>
<line x1="162.98" y1="555.40" x2="137.59" y2="537.58" stroke="#D32F2F" stroke-width="4.37" stroke-linecap="round"/>
<line x1="122.52" y1="518.57" x2="137.59" y2="537.58" stroke="#D32F2F" stroke-width="8.00" stroke-linecap="round"/>
<line x1="153.47" y1="553.52" x2="128.71" y2="534.75" stroke="#D32F2F" stroke-width="4.10" stroke-linecap="round"/>
<line x1="113.86" y1="516.85" x2="128.71" y2="534.75" stroke="#D32F2F" stroke-width="8.00" stroke-linecap="round"/>
<line x1="144.97" y1="549.67" x2="120.81" y2="530.09" stroke="#D32F2F" stroke-width="4.07" stroke-linecap="round"/>
<line x1="105.84" y1="513.21" x2="120.81" y2="530.09" stroke="#D32F2F" stroke-width="8.00" stroke-linecap="round"/>
<line x1="499.54" y1="537.86" x2="520.09" y2="517.67" stroke="#D32F2F" stroke-width="6.91" stroke-linecap="round"/>
<line x1="540.08" y1="496.80" x2="520.09" y2="517.67" stroke="#D32F2F" stroke-width="6.85" stroke-linecap="round"/>
<line x1="497.96" y1="535.23" x2="518.46" y2="514.00" stroke="#D32F2F" stroke-width="6.37" stroke-linecap="round"/>
<line x1="538.73" y1="494.55" x2="518.46" y2="514.00" stroke="#D32F2F" stroke-width="7.28" stroke-linecap="round"/>
<line x1="496.04" y1="529.36" x2="516.63" y2="507.28" stroke="#D32F2F" stroke-width="5.78" stroke-linecap="round"/>
<line x1="537.13" y1="489.64" x2="516.63" y2="507.28" stroke="#D32F2F" stroke-width="7.76" stroke-linecap="round"/>
<line x1="493.95" y1="519.78" x2="514.72" y2="497.15" stroke="#D32F2F" stroke-width="5.20" stroke-linecap="round"/>
<line x1="535.41" y1="481.76" x2="514.72" y2="497.15" stroke="#D32F2F" stroke-width="8.00" stroke-linecap="round"/>
<line x1="491.84" y1="506.05" x2="512.85" y2="483.25" stroke="#D32F2F" stroke-width="4.96" stroke-linecap="round"/>
<line x1="533.69" y1="470.58" x2="512.85" y2="483.25" stroke="#D32F2F" stroke-width="8.00" stroke-linecap="round"/>
<line x1="489.85" y1="487.87" x2="511.12" y2="465.34" stroke="#D32F2F" stroke-width="6.08" stroke-linecap="round"/>
<line x1="532.07" y1="455.84" x2="511.12" y2="465.34" stroke="#D32F2F" stroke-width="8.00" stroke-linecap="round"/>
<line x1="488.05" y1="465.12" x2="509.58" y2="443.35" stroke="#D32F2F" stroke-width="7.13" stroke-linecap="round"/>
<line x1="530.62" y1="437.38" x2="509.58" y2="443.35" stroke="#D32F2F" stroke-width="8.00" stroke-linecap="round"/>
<line x1="486.51" y1="437.98" x2="508.28" y2="417.48" stroke="#D32F2F" stroke-width="8.00" stroke-linecap="round"/>
<line x1="529.36" y1="415.28" x2="508.28" y2="417.48" stroke="#D32F2F" stroke-width="8.00" stroke-linecap="round"/>
<line x1="485.26" y1="406.97" x2="507.24" y2="388.26" stroke="#D32F2F" stroke-width="8.00" stroke-linecap="round"/>
<line x1="528.34" y1="389.94" x2="507.24" y2="388.26" stroke="#D32F2F" stroke-width="8.00" stroke-linecap="round"/>
<line x1="484.31" y1="373.00" x2="506.48" y2="356.58" stroke="#D32F2F" stroke-width="8.00" stroke-linecap="round"/>
<line x1="527.56" y1="362.10" x2="506.48" y2="356.58" stroke="#D32F2F" stroke-width="8.00" stroke-linecap="round"/>
<line x1="483.68" y1="337.27" x2="506.01" y2="323.61" stroke="#D32F2F" stroke-width="8.00" stroke-linecap="round"/>
<line x1="527.05" y1="332.79" x2="506.01" y2="323.61" stroke="#D32F2F" stroke-width="8.00" stroke-linecap="round"/>
<line x1="483.40" y1="301.17" x2="505.87" y2="290.66" stroke="#D32F2F" stroke-width="8.00" stroke-linecap="round"/>
<line x1="526.81" y1="303.20" x2="505.87" y2="290.66" stroke="#D32F2F" stroke-width="8.00" stroke-linecap="round"/>
<line x1="483.49" y1="266.07" x2="506.08" y2="258.97" stroke="#D32F2F" stroke-width="8.00" stroke-linecap="round"/>
<line x1="526.89" y1="274.52" x2="506.08" y2="258.97" stroke="#D32F2F" stroke-width="8.00" stroke-linecap="round"/>
<line x1="483.97" y1="233.12" x2="506.66" y2="229.57" stroke="#D32F2F" stroke-width="8.00" stroke-linecap="round"/>
<line x1="527.28" y1="247.70" x2="506.66" y2="229.57" stroke="#D32F2F" stroke-width="8.00" stroke-linecap="round"/>
<line x1="484.84" y1="203.20" x2="507.59" y2="203.17" stroke="#D32F2F" stroke-width="8.00" stroke-linecap="round"/>
<line x1="527.99" y1="223.42" x2="507.59" y2="203.17" stroke="#D32F2F" stroke-width="8.00" stroke-linecap="round"/>
<line x1="486.06" y1="176.82" x2="508.82" y2="180.14" stroke="#D32F2F" stroke-width="8.00" stroke-linecap="round"/>
<line x1="528.97" y1="202.02" x2="508.82" y2="180.14" stroke="#D32F2F" stroke-width="7.42" stroke-linecap="round"/>
<line x1="487.52" y1="154.22" x2="510.25" y2="160.58" stroke="#D32F2F" stroke-width="8.00" stroke-linecap="round"/>
<line x1="530.17" y1="183.61" x2="510.25" y2="160.58" stroke="#D32F2F" stroke-width="6.50" stroke-linecap="round"/>
<line x1="489.11" y1="135.35" x2="511.75" y2="144.38" stroke="#D32F2F" stroke-width="8.00" stroke-linecap="round"/>
<line x1="531.48" y1="168.10" x2="511.75" y2="144.38" stroke="#D32F2F" stroke-width="5.54" stroke-linecap="round"/>
<line x1="490.66" y1="120.02" x2="513.15" y2="131.32" stroke="#D32F2F" stroke-width="8.00" stroke-linecap="round"/>
<line x1="532.77" y1="155.28" x2="513.15" y2="131.32" stroke="#D32F2F" stroke-width="4.60" stroke-linecap="round"/>
<line x1="491.98" y1="107.93" x2="514.26" y2="121.09" stroke="#D32F2F" stroke-width="8.00" stroke-linecap="round"/>
<line x1="533.90" y1="144.92" x2="514.26" y2="121.09" stroke="#D32F2F" stroke-width="4.94" stroke-linecap="round"/>
<line x1="492.87" y1="98.70" x2="514.88" y2="113.37" stroke="#D32F2F" stroke-width="8.00" stroke-linecap="round"/>
<line x1="534.68" y1="136.79" x2="514.88" y2="113.37" stroke="#D32F2F" stroke-width="5.35" stroke-linecap="round"/>
<line x1="493.12" y1="91.95" x2="514.78" y2="107.83" stroke="#D32F2F" stroke-width="8.00" stroke-linecap="round"/>
<line x1="534.91" y1="130.65" x2="514.78" y2="107.83" stroke="#D32F2F" stroke-width="5.68" stroke-linecap="round"/>
<line x1="492.52" y1="87.32" x2="513.74" y2="104.15" stroke="#D32F2F" stroke-width="7.95" stroke-linecap="round"/>
<line x1="534.34" y1="126.28" x2="513.74" y2="104.15" stroke="#D32F2F" stroke-width="5.90" stroke-linecap="round"/>
<line x1="117.99" y1="102.22" x2="98.58" y2="122.64" stroke="#D32F2F" stroke-width="7.36" stroke-linecap="round"/>
<line x1="79.85" y1="145.41" x2="98.58" y2="122.64" stroke="#D32F2F" stroke-width="6.52" stroke-linecap="round"/>
<line x1="120.15" y1="101.77" x2="101.86" y2="122.47" stroke="#D32F2F" stroke-width="7.69" stroke-linecap="round"/>
<line x1="82.22" y1="144.91" x2="101.86" y2="122.47" stroke="#D32F2F" stroke-width="6.29" stroke-linecap="round"/>
<line x1="124.21" y1="102.05" x2="106.94" y2="123.18" stroke="#D32F2F" stroke-width="7.89" stroke-linecap="round"/>
<line x1="86.51" y1="145.20" x2="106.94" y2="123.18" stroke="#D32F2F" stroke-width="6.17" stroke-linecap="round"/>
<line x1="129.95" y1="103.32" x2="113.51" y2="125.03" stroke="#D32F2F" stroke-width="7.94" stroke-linecap="round"/>
<line x1="92.35" y1="146.50" x2="113.51" y2="125.03" stroke="#D32F2F" stroke-width="6.16" stroke-linecap="round"/>
<line x1="137.17" y1="105.90" x2="121.29" y2="128.28" stroke="#D32F2F" stroke-width="7.87" stroke-linecap="round"/>
<line x1="99.43" y1="149.02" x2="121.29" y2="128.28" stroke="#D32F2F" stroke-width="6.24" stroke-linecap="round"/>
<line x1="145.68" y1="110.12" x2="130.04" y2="133.21" stroke="#D32F2F" stroke-width="7.71" stroke-linecap="round"/>
<line x1="107.47" y1="153.00" x2="130.04" y2="133.21" stroke="#D32F2F" stroke-width="6.43" stroke-linecap="round"/>
<line x1="155.26" y1="116.35" x2="139.52" y2="140.10" stroke="#D32F2F" stroke-width="7.48" stroke-linecap="round"/>
<line x1="116.19" y1="158.67" x2="139.52" y2="140.10" stroke="#D32F2F" stroke-width="6.70" stroke-linecap="round"/>
<line x1="165.69" y1="124.99" x2="149.51" y2="149.26" stroke="#D32F2F" stroke-width="7.25" stroke-linecap="round"/>
<line x1="125.39" y1="166.28" x2="149.51" y2="149.26" stroke="#D32F2F" stroke-width="7.04" stroke-linecap="round"/>
<line x1="176.72" y1="136.44" x2="159.78" y2="160.99" stroke="#D32F2F" stroke-width="7.05" stroke-linecap="round"/>
<line x1="134.84" y1="176.08" x2="159.78" y2="160.99" stroke="#D32F2F" stroke-width="7.45" stroke-linecap="round"/>
<line x1="188.06" y1="151.09" x2="170.09" y2="175.61" stroke="#D32F2F" stroke-width="6.95" stroke-linecap="round"/>
<line x1="144.32" y1="188.34" x2="170.09" y2="175.61" stroke="#D32F2F" stroke-width="7.89" stroke-linecap="round"/>
<line x1="199.38" y1="169.28" x2="180.18" y2="193.37" stroke="#D32F2F" stroke-width="6.99" stroke-linecap="round"/>
<line x1="153.64" y1="203.30" x2="180.18" y2="193.37" stroke="#D32F2F" stroke-width="8.00" stroke-linecap="round"/>
<line x1="210.32" y1="191.24" x2="189.75" y2="214.45" stroke="#D32F2F" stroke-width="7.90" stroke-linecap="round"/>
<line x1="162.54" y1="221.18" x2="189.75" y2="214.45" stroke="#D32F2F" stroke-width="8.00" stroke-linecap="round"/>
<line x1="220.46" y1="217.02" x2="198.48" y2="238.89" stroke="#D32F2F" stroke-width="8.00" stroke-linecap="round"/>
<line x1="170.77" y1="242.09" x2="198.48" y2="238.89" stroke="#D32F2F" stroke-width="8.00" stroke-linecap="round"/>
<line x1="229.40" y1="246.43" x2="206.02" y2="266.48" stroke="#D32F2F" stroke-width="8.00" stroke-linecap="round"/>
<line x1="178.03" y1="265.96" x2="206.02" y2="266.48" stroke="#D32F2F" stroke-width="8.00" stroke-linecap="round"/>
<line x1="236.73" y1="278.97" x2="212.03" y2="296.74" stroke="#D32F2F" stroke-width="8.00" stroke-linecap="round"/>
<line x1="183.99" y1="292.45" x2="212.03" y2="296.74" stroke="#D32F2F" stroke-width="8.00" stroke-linecap="round"/>
<line x1="242.07" y1="313.79" x2="216.17" y2="328.85" stroke="#D32F2F" stroke-width="8.00" stroke-linecap="round"/>
<line x1="188.35" y1="320.90" x2="216.17" y2="328.85" stroke="#D32F2F" stroke-width="8.00" stroke-linecap="round"/>
<line x1="245.14" y1="349.74" x2="218.20" y2="361.71" stroke="#D32F2F" stroke-width="8.00" stroke-linecap="round"/>
<line x1="190.87" y1="350.36" x2="218.20" y2="361.71" stroke="#D32F2F" stroke-width="8.00" stroke-linecap="round"/>
<line x1="245.77" y1="385.47" x2="217.98" y2="394.04" stroke="#D32F2F" stroke-width="8.00" stroke-linecap="round"/>
<line x1="191.39" y1="379.68" x2="217.98" y2="394.04" stroke="#D32F2F" stroke-width="8.00" stroke-linecap="round"/>
<line x1="243.93" y1="419.59" x2="215.52" y2="424.57" stroke="#D32F2F" stroke-width="8.00" stroke-linecap="round"/>
<line x1="189.88" y1="407.64" x2="215.52" y2="424.57" stroke="#D32F2F" stroke-width="8.00" stroke-linecap="round"/>
<line x1="239.75" y1="450.88" x2="210.96" y2="452.20" stroke="#D32F2F" stroke-width="8.00" stroke-linecap="round"/>
<line x1="186.46" y1="433.21" x2="210.96" y2="452.20" stroke="#D32F2F" stroke-width="7.56" stroke-linecap="round"/>
<line x1="233.48" y1="478.43" x2="204.56" y2="476.17" stroke="#D32F2F" stroke-width="8.00" stroke-linecap="round"/>
<line x1="181.36" y1="455.64" x2="204.56" y2="476.17" stroke="#D32F2F" stroke-width="6.71" stroke-linecap="round"/>
<line x1="225.47" y1="501.69" x2="196.66" y2="496.07" stroke="#D32F2F" stroke-width="7.84" stroke-linecap="round"/>
<line x1="174.86" y1="474.51" x2="196.66" y2="496.07" stroke="#D32F2F" stroke-width="6.74" stroke-linecap="round"/>
<line x1="216.11" y1="520.47" x2="187.63" y2="511.82" stroke="#D32F2F" stroke-width="7.16" stroke-linecap="round"/>
<line x1="167.26" y1="489.74" x2="187.63" y2="511.82" stroke="#D32F2F" stroke-width="6.94" stroke-linecap="round"/>
<line x1="205.81" y1="534.84" x2="177.82" y2="523.58" stroke="#D32F2F" stroke-width="6.48" stroke-linecap="round"/>
<line x1="158.88" y1="501.45" x2="177.82" y2="523.58" stroke="#D32F2F" stroke-width="7.29" stroke-linecap="round"/>
<line x1="194.99" y1="545.10" x2="167.61" y2="531.64" stroke="#D32F2F" stroke-width="5.83" stroke-linecap="round"/>
<line x1="149.98" y1="509.88" x2="167.61" y2="531.64" stroke="#D32F2F" stroke-width="7.72" stroke-linecap="round"/>
<line x1="184.02" y1="551.64" x2="157.30" y2="536.40" stroke="#D32F2F" stroke-width="5.25" stroke-linecap="round"/>
<line x1="140.80" y1="515.35" x2="157.30" y2="536.40" stroke="#D32F2F" stroke-width="8.00" stroke-linecap="round"/>
<line x1="173.25" y1="554.92" x2="147.20" y2="538.25" stroke="#D32F2F" stroke-width="4.76" stroke-linecap="round"/>
<line x1="131.57" y1="518.16" x2="147.20" y2="538.25" stroke="#D32F2F" stroke-width="8.00" stroke-linecap="round"/>
<line x1="162.98" y1="555.40" x2="137.59" y2="537.58" stroke="#D32F2F" stroke-width="4.37" stroke-linecap="round"/>
<line x1="122.52" y1="518.57" x2="137.59" y2="537.58" stroke="#D32F2F" stroke-width="8.00" stroke-linecap="round"/>
<line x1="153.47" y1="553.52" x2="128.71" y2="534.75" stroke="#D32F2F" stroke-width="4.10" stroke-linecap="round"/>
<line x1="113.86" y1="516.85" x2="128.71" y2="534.75" stroke="#D32F2F" stroke-width="8.00" stroke-linecap="round"/>
<line x1="144.97" y1="549.67" x2="120.81" y2="530.09" stroke="#D32F2F" stroke-width="4.07" stroke-linecap="round"/>
<line x1="105.84" y1="513.21" x2="120.81" y2="530.09" stroke="#D32F2F" stroke-width="8.00" stroke-linecap="round"/>
</svg>