<svg width="630.0" height="630.0" viewBox="0 0 630.0 630.0" xmlns="http://www.w3.org/2000/svg">
<circle cx="315.0" cy="315.0" r="290.0" fill="#FDFDF5" stroke="#ccc" stroke-width="0.5"/>
<line x1="539.27" y1="498.81" x2="518.83" y2="520.97" stroke="#D32F2F" stroke-width="5.98" stroke-linecap="round"/>
<line x1="495.98" y1="540.73" x2="515.40" y2="521.69" stroke="#D32F2F" stroke-width="7.85" stroke-linecap="round"/>
<line x1="536.49" y1="500.25" x2="515.40" y2="521.69" stroke="#D32F2F" stroke-width="6.04" stroke-linecap="round"/>
<line x1="491.95" y1="540.54" x2="511.01" y2="520.64" stroke="#D32F2F" stroke-width="7.65" stroke-linecap="round"/>
<line x1="532.69" y1="500.08" x2="511.01" y2="520.64" stroke="#D32F2F" stroke-width="6.21" stroke-linecap="round"/>
<line x1="486.94" y1="538.33" x2="505.89" y2="517.54" stroke="#D32F2F" stroke-width="7.35" stroke-linecap="round"/>
<line x1="528.13" y1="498.07" x2="505.89" y2="517.54" stroke="#D32F2F" stroke-width="6.47" stroke-linecap="round"/>
<line x1="481.17" y1="533.70" x2="500.26" y2="512.07" stroke="#D32F2F" stroke-width="6.96" stroke-linecap="round"/>
<line x1="523.05" y1="493.99" x2="500.26" y2="512.07" stroke="#D32F2F" stroke-width="6.81" stroke-linecap="round"/>
<line x1="474.88" y1="526.20" x2="494.35" y2="503.93" stroke="#D32F2F" stroke-width="6.55" stroke-linecap="round"/>
<line x1="517.66" y1="487.58" x2="494.35" y2="503.93" stroke="#D32F2F" stroke-width="7.22" stroke-linecap="round"/>
<line x1="468.32" y1="515.42" x2="488.36" y2="492.76" stroke="#D32F2F" stroke-width="6.16" stroke-linecap="round"/>
<line x1="512.17" y1="478.56" x2="488.36" y2="492.76" stroke="#D32F2F" stroke-width="7.68" stroke-linecap="round"/>
<line x1="461.74" y1="500.95" x2="482.50" y2="478.27" stroke="#D32F2F" stroke-width="5.85" stroke-linecap="round"/>
<line x1="506.76" y1="466.66" x2="482.50" y2="478.27" stroke="#D32F2F" stroke-width="8.00" stroke-linecap="round"/>
<line x1="455.43" y1="482.47" x2="476.99" y2="460.19" stroke="#D32F2F" stroke-width="6.28" stroke-linecap="round"/>
<line x1="501.62" y1="451.61" x2="476.99" y2="460.19" stroke="#D32F2F" stroke-width="8.00" stroke-linecap="round"/>
<line x1="449.64" y1="459.80" x2="472.05" y2="438.39" stroke="#D32F2F" stroke-width="7.34" stroke-linecap="round"/>
<line x1="496.93" y1="433.23" x2="472.05" y2="438.39" stroke="#D32F2F" stroke-width="8.00" stroke-linecap="round"/>
<line x1="444.65" y1="433.01" x2="467.87" y2="412.96" stroke="#D32F2F" stroke-width="8.00" stroke-linecap="round"/>
<line x1="492.87" y1="411.48" x2="467.87" y2="412.96" stroke="#D32F2F" stroke-width="8.00" stroke-linecap="round"/>
<line x1="440.67" y1="402.45" x2="464.66" y2="384.23" stroke="#D32F2F" stroke-width="8.00" stroke-linecap="round"/>
<line x1="489.63" y1="386.60" x2="464.66" y2="384.23" stroke="#D32F2F" stroke-width="8.00" stroke-linecap="round"/>
<line x1="437.90" y1="368.82" x2="462.57" y2="352.92" stroke="#D32F2F" stroke-width="8.00" stroke-linecap="round"/>
<line x1="487.37" y1="359.12" x2="462.57" y2="352.92" stroke="#D32F2F" stroke-width="8.00" stroke-linecap="round"/>
<line x1="436.48" y1="333.17" x2="461.73" y2="320.05" stroke="#D32F2F" stroke-width="8.00" stroke-linecap="round"/>
<line x1="486.21" y1="329.91" x2="461.73" y2="320.05" stroke="#D32F2F" stroke-width="8.00" stroke-linecap="round"/>
<line x1="436.48" y1="296.83" x2="462.19" y2="286.86" stroke="#D32F2F" stroke-width="8.00" stroke-linecap="round"/>
<line x1="486.21" y1="300.09" x2="462.19" y2="286.86" stroke="#D32F2F" stroke-width="8.00" stroke-linecap="round"/>
<line x1="437.90" y1="261.18" x2="463.93" y2="254.66" stroke="#D32F2F" stroke-width="8.00" stroke-linecap="round"/>
<line x1="487.37" y1="270.88" x2="463.93" y2="254.66" stroke="#D32F2F" stroke-width="8.00" stroke-linecap="round"/>
<line x1="440.67" y1="227.55" x2="466.89" y2="224.64" stroke="#D32F2F" stroke-width="8.00" stroke-linecap="round"/>
<line x1="489.63" y1="243.40" x2="466.89" y2="224.64" stroke="#D32F2F" stroke-width="8.00" stroke-linecap="round"/>
<line x1="444.65" y1="196.99" x2="470.92" y2="197.71" stroke="#D32F2F" stroke-width="8.00" stroke-linecap="round"/>
<line x1="492.87" y1="218.52" x2="470.92" y2="197.71" stroke="#D32F2F" stroke-width="7.85" stroke-linecap="round"/>
<line x1="449.64" y1="170.20" x2="475.83" y2="174.41" stroke="#D32F2F" stroke-width="8.00" stroke-linecap="round"/>
<line x1="496.93" y1="196.77" x2="475.83" y2="174.41" stroke="#D32F2F" stroke-width="6.95" stroke-linecap="round"/>
<line x1="455.43" y1="147.53" x2="481.40" y2="154.97" stroke="#D32F2F" stroke-width="8.00" stroke-linecap="round"/>
<line x1="501.62" y1="178.39" x2="481.40" y2="154.97" stroke="#D32F2F" stroke-width="5.94" stroke-linecap="round"/>
<line x1="461.74" y1="129.05" x2="487.39" y2="139.36" stroke="#D32F2F" stroke-width="8.00" stroke-linecap="round"/>
<line x1="506.76" y1="163.34" x2="487.39" y2="139.36" stroke="#D32F2F" stroke-width="5.59" stroke-linecap="round"/>
<line x1="468.32" y1="114.58" x2="493.57" y2="127.34" stroke="#D32F2F" stroke-width="7.62" stroke-linecap="round"/>
<line x1="512.17" y1="151.44" x2="493.57" y2="127.34" stroke="#D32F2F" stroke-width="5.99" stroke-linecap="round"/>
<line x1="474.88" y1="103.80" x2="499.68" y2="118.59" stroke="#D32F2F" stroke-width="7.15" stroke-linecap="round"/>
<line x1="517.66" y1="142.42" x2="499.68" y2="118.59" stroke="#D32F2F" stroke-width="6.44" stroke-linecap="round"/>
<line x1="481.17" y1="96.30" x2="505.50" y2="112.76" stroke="#D32F2F" stroke-width="6.74" stroke-linecap="round"/>
<line x1="523.05" y1="136.01" x2="505.50" y2="112.76" stroke="#D32F2F" stroke-width="6.90" stroke-linecap="round"/>
<line x1="486.94" y1="91.67" x2="510.77" y2="109.44" stroke="#D32F2F" stroke-width="6.40" stroke-linecap="round"/>
<line x1="528.13" y1="131.93" x2="510.77" y2="109.44" stroke="#D32F2F" stroke-width="7.31" stroke-linecap="round"/>
<line x1="491.95" y1="89.46" x2="515.26" y2="108.30" stroke="#D32F2F" stroke-width="6.16" stroke-linecap="round"/>
<line x1="532.69" y1="129.92" x2="515.26" y2="108.30" stroke="#D32F2F" stroke-width="7.63" stroke-linecap="round"/>
<line x1="495.98" y1="89.27" x2="518.74" y2="108.98" stroke="#D32F2F" stroke-width="6.02" stroke-linecap="round"/>
<line x1="536.49" y1="129.75" x2="518.74" y2="108.98" stroke="#D32F2F" stroke-width="7.84" stroke-linecap="round"/>
<line x1="90.73" y1="131.19" x2="111.17" y2="109.03" stroke="#D32F2F" stroke-width="5.98" stroke-linecap="round"/>
<line x1="134.02" y1="89.27" x2="114.60" y2="108.31" stroke="#D32F2F" stroke-width="7.85" stroke-linecap="round"/>
<line x1="93.51" y1="129.75" x2="114.60" y2="108.31" stroke="#D32F2F" stroke-width="6.04" stroke-linecap="round"/>
<line x1="138.05" y1="89.46" x2="118.99" y2="109.36" stroke="#D32F2F" stroke-width="7.65" stroke-linecap="round"/>
<line x1="97.31" y1="129.92" x2="118.99" y2="109.36" stroke="#D32F2F" stroke-width="6.21" stroke-linecap="round"/>
<line x1="143.06" y1="91.67" x2="124.11" y2="112.46" stroke="#D32F2F" stroke-width="7.35" stroke-linecap="round"/>
<line x1="101.87" y1="131.93" x2="124.11" y2="112.46" stroke="#D32F2F" stroke-width="6.47" stroke-linecap="round"/>
<line x1="148.83" y1="96.30" x2="129.74" y2="117.93" stroke="#D32F2F" stroke-width="6.96" stroke-linecap="round"/>
<line x1="106.95" y1="136.01" x2="129.74" y2="117.93" stroke="#D32F2F" stroke-width="6.81" stroke-linecap="round"/>
<line x1="155.12" y1="103.80" x2="135.65" y2="126.07" stroke="#D32F2F" stroke-width="6.55" stroke-linecap="round"/>
<line x1="112.34" y1="142.42" x2="135.65" y2="126.07" stroke="#D32F2F" stroke-width="7.22" stroke-linecap="round"/>
<line x1="161.68" y1="114.58" x2="141.64" y2="137.24" stroke="#D32F2F" stroke-width="6.16" stroke-linecap="round"/>
<line x1="117.83" y1="151.44" x2="141.64" y2="137.24" stroke="#D32F2F" stroke-width="7.68" stroke-linecap="round"/>
<line x1="168.26" y1="129.05" x2="147.50" y2="151.73" stroke="#D32F2F" stroke-width="5.85" stroke-linecap="round"/>
<line x1="123.24" y1="163.34" x2="147.50" y2="151.73" stroke="#D32F2F" stroke-width="8.00" stroke-linecap="round"/>
<line x1="174.57" y1="147.53" x2="153.01" y2="169.81" stroke="#D32F2F" stroke-width="6.28" stroke-linecap="round"/>
<line x1="128.38" y1="178.39" x2="153.01" y2="169.81" stroke="#D32F2F" stroke-width="8.00" stroke-linecap="round"/>
<line x1="180.36" y1="170.20" x2="157.95" y2="191.61" stroke="#D32F2F" stroke-width="7.34" stroke-linecap="round"/>
<line x1="133.07" y1="196.77" x2="157.95" y2="191.61" stroke="#D32F2F" stroke-width="8.00" stroke-linecap="round"/>
<line x1="185.35" y1="196.99" x2="162.13" y2="217.04" stroke="#D32F2F" stroke-width="8.00" stroke-linecap="round"/>
<line x1="137.13" y1="218.52" x2="162.13" y2="217.04" stroke="#D32F2F" stroke-width="8.00" stroke-linecap="round"/>
<line x1="189.33" y1="227.55" x2="165.34" y2="245.77" stroke="#D32F2F" stroke-width="8.00" stroke-linecap="round"/>
<line x1="140.37" y1="243.40" x2="165.34" y2="245.77" stroke="#D32F2F" stroke-width="8.00" stroke-linecap="round"/>
<line x1="192.10" y1="261.18" x2="167.43" y2="277.08" stroke="#D32F2F" stroke-width="8.00" stroke-linecap="round"/>
<line x1="142.63" y1="270.88" x2="167.43" y2="277.08" stroke="#D32F2F" stroke-width="8.00" stroke-linecap="round"/>
<line x1="193.52" y1="296.83" x2="168.27" y2="309.95" stroke="#D32F2F" stroke-width="8.00" stroke-linecap="round"/>
<line x1="143.79" y1="300.09" x2="168.27" y2="309.95" stroke="#D32F2F" stroke-width="8.00" stroke-linecap="round"/>
<line x1="193.52" y1="333.17" x2="167.81" y2="343.14" stroke="#D32F2F" stroke-width="8.00" stroke-linecap="round"/>
<line x1="143.79" y1="329.91" x2="167.81" y2="343.14" stroke="#D32F2F" stroke-width="8.00" stroke-linecap="round"/>
<line x1="192.10" y1="368.82" x2="166.07" y2="375.34" stroke="#D32F2F" stroke-width="8.00" stroke-linecap="round"/>
<line x1="142.63" y1="359.12" x2="166.07" y2="375.34" stroke="#D32F2F" stroke-width="8.00" stroke-linecap="round"/>
<line x1="189.33" y1="402.45" x2="163.11" y2="405.36" stroke="#D32F2F" stroke-width="8.00" stroke-linecap="round"/>
<line x1="140.37" y1="386.60" x2="163.11" y2="405.36" stroke="#D32F2F" stroke-width="8.00" stroke-linecap="round"/>
<line x1="185.35" y1="433.01" x2="159.08" y2="432.29" stroke="#D32F2F" stroke-width="8.00" stroke-linecap="round"/>
<line x1="137.13" y1="411.48" x2="159.08" y2="432.29" stroke="#D32F2F" stroke-width="7.85" stroke-linecap="round"/>
<line x1="180.36" y1="459.80" x2="154.17" y2="455.59" stroke="#D32F2F" stroke-width="8.00" stroke-linecap="round"/>
<line x1="133.07" y1="433.23" x2="154.17" y2="455.59" stroke="#D32F2F" stroke-width="6.95" stroke-linecap="round"/>
<line x1="174.57" y1="482.47" x2="148.60" y2="475.03" stroke="#D32F2F" stroke-width="8.00" stroke-linecap="round"/>
<line x1="128.38" y1="451.61" x2="148.60" y2="475.03" stroke="#D32F2F" stroke-width="5.94" stroke-linecap="round"/>
<line x1="168.26" y1="500.95" x2="142.61" y2="490.64" stroke="#D32F2F" stroke-width="8.00" stroke-linecap="round"/>
<line x1="123.24" y1="466.66" x2="142.61" y2="490.64" stroke="#D32F2F" stroke-width="5.59" stroke-linecap="round"/>
<line x1="161.68" y1="515.42" x2="136.43" y2="502.66" stroke="#D32F2F" stroke-width="7.62" stroke-linecap="round"/>
<line x1="117.83" y1="478.56" x2="136.43" y2="502.66" stroke="#D32F2F" stroke-width="5.99" stroke-linecap="round"/>
<line x1="155.12" y1="526.20" x2="130.32" y2="511.41" stroke="#D32F2F" stroke-width="7.15" stroke-linecap="round"/>
<line x1="112.34" y1="487.58" x2="130.32" y2="511.41" stroke="#D32F2F" stroke-width="6.44" stroke-linecap="round"/>
<line x1="148.83" y1="533.70" x2="124.50" y2="517.24" stroke="#D32F2F" stroke-width="6.74" stroke-linecap="round"/>
<line x1="106.95" y1="493.99" x2="124.50" y2="517.24" stroke="#D32F2F" stroke-width="6.90" stroke-linecap="round"/>
<line x1="143.06" y1="538.33" x2="119.23" y2="520.56" stroke="#D32F2F" stroke-width="6.40" stroke-linecap="round"/>
<line x1="101.87" y1="498.07" x2="119.23" y2="520.56" stroke="#D32F2F" stroke-width="7.31" stroke-linecap="round"/>
<line x1="138.05" y1="540.54" x2="114.74" y2="521.70" stroke="#D32F2F" stroke-width="6.16" stroke-linecap="round"/>
<line x1="97.31" y1="500.08" x2="114.74" y2="521.70" stroke="#D32F2F" stroke-width="7.63" stroke-linecap="round"/>
<line x1="134.02" y1="540.73" x2="111.26" y2="521.02" stroke="#D32F2F" stroke-width="6.02" stroke-linecap="round"/>
<line x1="93.51" y1="500.25" x2="111.26" y2="521.02" stroke="#D32F2F" stroke-width="7.84" stroke-linecap="round"/>
<line x1="539.27" y1="498.81" x2="518.83" y2="520.97" stroke="#D32F2F" stroke-width="5.98" stroke-linecap="round"/>
<line x1="495.98" y1="540.73" x2="515.40" y2="521.69" stroke="#D32F2F" stroke-width="7.85" stroke-linecap="round"/>
<line x1="536.49" y1="500.25" x2="515.40" y2="521.69" stroke="#D32F2F" stroke-width="6.04" stroke-linecap="round"/>
<line x1="491.95" y1="540.54" x2="511.01" y2="520.64" stroke="#D32F2F" stroke-width="7.65" stroke-linecap="round"/>
<line x1="532.69" y1="500.08" x2="511.01" y2="520.64" stroke="#D32F2F" stroke-width="6.21" stroke-linecap="round"/>
<line x1="486.94" y1="538.33" x2="505.89" y2="517.54" stroke="#D32F2F" stroke-width="7.35" stroke-linecap="round"/>
<line x1="528.13" y1="498.07" x2="505.89" y2="517.54" stroke="#D32F2F" stroke-width="6.47" stroke-linecap="round"/>
<line x1="481.17" y1="533.70" x2="500.26" y2="512.07" stroke="#D32F2F" stroke-width="6.96" stroke-linecap="round"/>
<line x1="523.05" y1="493.99" x2="500.26" y2="512.07" stroke="#D32F2F" stroke-width="6.81" stroke-linecap="round"/>
<line x1="474.88" y1="526.20" x2="494.35" y2="503.93" stroke="#D32F2F" stroke-width="6.55" stroke-linecap="round"/>
<line x1="517.66" y1="487.58" x2="494.35" y2="503.93" stroke="#D32F2F" stroke-width="7.22" stroke-linecap="round"/>
<line x1="468.32" y1="515.42" x2="488.36" y2="492.76" stroke="#D32F2F" stroke-width="6.16" stroke-linecap="round"/>
<line x1="512.17" y1="478.56" x2="488.36" y2="492.76" stroke="#D32F2F" stroke-width="7.68" stroke-linecap="round"/>
<line x1="461.74" y1="500.95" x2="482.50" y2="478.27" stroke="#D32F2F" stroke-width="5.85" stroke-linecap="round"/>
<line x1="506.76" y1="466.66" x2="482.50" y2="478.27" stroke="#D32F2F" stroke-width="8.00" stroke-linecap="round"/>
<line x1="455.43" y1="482.47" x2="476.99" y2="460.19" stroke="#D32F2F" stroke-width="6.28" stroke-linecap="round"/>
<line x1="501.62" y1="451.61" x2="476.99" y2="460.19" stroke="#D32F2F" stroke-width="8.00" stroke-linecap="round"/>
<line x1="449.64" y1="459.80" x2="472.05" y2="438.39" stroke="#D32F2F" stroke-width="7.34" stroke-linecap="round"/>
<line x1="496.93" y1="433.23" x2="472.05" y2="438.39" stroke="#D32F2F" stroke-width="8.00" stroke-linecap="round"/>
<line x1="444.65" y1="433.01" x2="467.87" y2="412.96" stroke="#D32F2F" stroke-width="8.00" stroke-linecap="round"/>
<line x1="492.87" y1="411.48" x2="467.87" y2="412.96" stroke="#D32F2F" stroke-width="8.00" stroke-linecap="round"/>
<line x1="440.67" y1="402.45" x2="464.66" y2="384.23" stroke="#D32F2F" stroke-width="8.00" stroke-linecap="round"/>
<line x1="489.63" y1="386.60" x2="464.66" y2="384.23" stroke="#D32F2F" stroke-width="8.00" stroke-linecap="round"/>
<line x1="437.90" y1="368.82" x2="462.57" y2="352.92" stroke="#D32F2F" stroke-width="8.00" stroke-linecap="round"/>
<line x1="487.37" y1="359.12" x2="462.57" y2="352.92" stroke="#D32F2F" stroke-width="8.00" stroke-linecap="round"/>
<line x1="436.48" y1="333.17" x2="461.73" y2="320.05" stroke="#D32F2F" stroke-width="8.00" stroke-linecap="round"/>
<line x1="486.21" y1="329.91" x2="461.73" y2="320.05" stroke="#D32F2F" stroke-width="8.00" stroke-linecap="round"/>
<line x1="436.48" y1="296.83" x2="462.19" y2="286.86" stroke="#D32F2F" stroke-width="8.00" stroke-linecap="round"/>
<line x1="486.21" y1="300.09" x2="462.19" y2="286.86" stroke="#D32F2F" stroke-width="8.00" stroke-linecap="round"/>
<line x1="437.90" y1="261.18" x2="463.93" y2="254.66" stroke="#D32F2F" stroke-width="8.00" stroke-linecap="round"/>
<line x1="487.37" y1="270.88" x2="463.93" y2="254.66" stroke="#D32F2F" stroke-width="8.00" stroke-linecap="round"/>
<line x1="440.67" y1="227.55" x2="466.89" y2="224.64" stroke="#D32F2F" stroke-width="8.00" stroke-linecap="round"/>
<line x1="489.63" y1="243.40" x2="466.89" y2="224.64" stroke="#D32F2F" stroke-width="8.00" stroke-linecap="round"/>
<line x1="444.65" y1="196.99" x2="470.92" y2="197.71" stroke="#D32F2F" stroke-width="8.00" stroke-linecap="round"/>
<line x1="492.87" y1="218.52" x2="470.92" y2="197.71" stroke="#D32F2F" stroke-width="7.85" stroke-linecap="round"/>
<line x1="449.64" y1="170.20" x2="475.83" y2="174.41" stroke="#D32F2F" stroke-width="8.00" stroke-linecap="round"/>
<line x1="496.93" y1="196.77" x2="475.83" y2="174.41" stroke="#D32F2F" stroke-width="6.95" stroke-linecap="round"/>
<line x1="455.43" y1="147.53" x2="481.40" y2="154.97" stroke="#D32F2F" stroke-width="8.00" stroke-linecap="round"/>
<line x1="501.62" y1="178.39" x2="481.40" y2="154.97" stroke="#D32F2F" stroke-width="5.94" stroke-linecap="round"/>
<line x1="461.74" y1="129.05" x2="487.39" y2="139.36" stroke="#D32F2F" stroke-width="8.00" stroke-linecap="round"/>
<line x1="506.76" y1="163.34" x2="487.39" y2="139.36" stroke="#D32F2F" stroke-width="5.59" stroke-linecap="round"/>
<line x1="468.32" y1="114.58" x2="493.57" y2="127.34" stroke="#D32F2F" stroke-width="7.62" stroke-linecap="round"/>
<line x1="512.17" y1="151.44" x2="493.57" y2="127.34" stroke="#D32F2F" stroke-width="5.99" stroke-linecap="round"/>
<line x1="474.88" y1="103.80" x2="499.68" y2="118.59" stroke="#D32F2F" stroke-width="7.15" stroke-linecap="round"/>
<line x1="517.66" y1="142.42" x2="499.68" y2="118.59" stroke="#D32F2F" stroke-width="6.44" stroke-linecap="round"/>
<line x1="481.17" y1="96.30" x2="505.50" y2="112.76" stroke="#D32F2F" stroke-width="6.74" stroke-linecap="round"/>
<line x1="523.05" y1="136.01" x2="505.50" y2="112.76" stroke="#D32F2F" stroke-width="6.90" stroke-linecap="round"/>
<line x1="486.94" y1="91.67" x2="510.77" y2="109.44" stroke="#D32F2F" stroke-width="6.40" stroke-linecap="round"/>
<line x1="528.13" y1="131.93" x2="510.77" y2="109.44" stroke="#D32F2F" stroke-width="7.31" stroke-linecap="round"/>
<line x1="491.95" y1="89.46" x2="515.26" y2="108.30" stroke="#D32F2F" stroke-width="6.16" stroke-linecap="round"/>
<line x1="532.69" y1="129.92" x2="515.26" y2="108.30" stroke="#D32F2F" stroke-width="7.63" stroke-linecap="round"/>
<line x1="495.98" y1="89.27" x2="518.74" y2="108.98" stroke="#D32F2F" stroke-width="6.02" stroke-linecap="round"/>
<line x1="536.49" y1="129.75" x2="518.74" y2="108.98" stroke="#D32F2F" stroke-width="7.84" stroke-linecap="round"/>
<line x1="90.73" y1="131.19" x2="111.17" y2="109.03" stroke="#D32F2F" stroke-width="5.98" stroke-linecap="round"/>
<line x1="134.02" y1="89.27" x2="114.60" y2="108.31" stroke="#D32F2F" stroke-width="7.85" stroke-linecap="round"/>
<line x1="93.51" y1="129.75" x2="114.60" y2="108.31" stroke="#D32F2F" stroke-width="6.04" stroke-linecap="round"/>
<line x1="138.05" y1="89.46" x2="118.99" y2="109.36" stroke="#D32F2F" stroke-width="7.65" stroke-linecap="round"/>
<line x1="97.31" y1="129.92" x2="118.99" y2="109.36" stroke="#D32F2F" stroke-width="6.21" stroke-linecap="round"/>
<line x1="143.06" y1="91.67" x2="124.11" y2="112.46" stroke="#D32F2F" stroke-width="7.35" stroke-linecap="round"/>
<line x1="101.87" y1="131.93" x2="124.11" y2="112.46" stroke="#D32F2F" stroke-width="6.47" stroke-linecap="round"/>
<line x1="148.83" y1="96.30" x2="129.74" y2="117.93" stroke="#D32F2F" stroke-width="6.96" stroke-linecap="round"/>
<line x1="106.95" y1="136.01" x2="129.74" y2="117.93" stroke="#D32F2F" stroke-width="6.81" stroke-linecap="round"/>
<line x1="155.12" y1="103.80" x2="135.65" y2="126.07" stroke="#D32F2F" stroke-width="6.55" stroke-linecap="round"/>
<line x1="112.34" y1="142.42" x2="135.65" y2="126.07" stroke="#D32F2F" stroke-width="7.22" stroke-linecap="round"/>
<line x1="161.68" y1="114.58" x2="141.64" y2="137.24" stroke="#D32F2F" stroke-width="6.16" stroke-linecap="round"/>
<line x1="117.83" y1="151.44" x2="141.64" y2="137.24" stroke="#D32F2F" stroke-width="7.68" stroke-linecap="round"/>
<line x1="168.26" y1="129.05" x2="147.50" y2="151.73" stroke="#D32F2F" stroke-width="5.85" stroke-linecap="round"/>
<line x1="123.24" y1="163.34" x2="147.50" y2="151.73" stroke="#D32F2F" stroke-width="8.00" stroke-linecap="round"/>
<line x1="174.57" y1="147.53" x2="153.01" y2="169.81" stroke="#D32F2F" stroke-width="6.28" stroke-linecap="round"/>
<line x1="128.38" y1="178.39" x2="153.01" y2="169.81" stroke="#D32F2F" stroke-width="8.00" stroke-linecap="round"/>
<line x1="180.36" y1="170.20" x2="157.95" y2="191.61" stroke="#D32F2F" stroke-width="7.34" stroke-linecap="round"/>
<line x1="133.07" y1="196.77" x2="157.95" y2="191.61" stroke="#D32F2F" stroke-width="8.00" stroke-linecap="round"/>
<line x1="185.35" y1="196.99" x2="162.13" y2="217.04" stroke="#D32F2F" stroke-width="8.00" stroke-linecap="round"/>
<line x1="137.13" y1="218.52" x2="162.13" y2="217.04" stroke="#D32F2F" stroke-width="8.00" stroke-linecap="round"/>
<line x1="189.33" y1="227.55" x2="165.34" y2="245.77" stroke="#D32F2F" stroke-width="8.00" stroke-linecap="round"/>
<line x1="140.37" y1="243.40" x2="165.34" y2="245.77" stroke="#D32F2F" stroke-width="8.00" stroke-linecap="round"/>
<line x1="192.10" y1="261.18" x2="167.43" y2="277.08" stroke="#D32F2F" stroke-width="8.00" stroke-linecap="round"/>
<line x1="142.63" y1="270.88" x2="167.43" y2="277.08" stroke="#D32F2F" stroke-width="8.00" stroke-linecap="round"/>
<line x1="193.52" y1="296.83" x2="168.27" y2="309.95" stroke="#D32F2F" stroke-width="8.00" stroke-linecap="round"/>
<line x1="143.79" y1="300.09" x2="168.27" y2="309.95" stroke="#D32F2F" stroke-width="8.00" stroke-linecap="round"/>
<line x1="193.52" y1="333.17" x2="167.81" y2="343.14" stroke="#D32F2F" stroke-width="8.00" stroke-linecap="round"/>
<line x1="143.79" y1="329.91" x2="167.81" y2="343.14" stroke="#D32F2F" stroke-width="8.00" stroke-linecap="round"/>
<line x1="192.10" y1="368.82" x2="166.07" y2="375.34" stroke="#D32F2F" stroke-width="8.00" stroke-linecap="round"/>
<line x1="142.63" y1="359.12" x2="166.07" y2="375.34" stroke="#D32F2F" stroke-width="8.00" stroke-linecap="round"/>
<line x1="189.33" y1="402.45" x2="163.11" y2="405.36" stroke="#D32F2F" stroke-width="8.00" stroke-linecap="round"/>
<line x1="140.37" y1="386.60" x2="163.11" y2="405.36" stroke="#D32F2F" stroke-width="8.00" stroke-linecap="round"/>
<line x1="185.35" y1="433.01" x2="159.08" y2="432.29" stroke="#D32F2F" stroke-width="8.00" stroke-linecap="round"/>
<line x1="137.13" y1="411.48" x2="159.08" y2="432.29" stroke="#D32F2F" stroke-width="7.85" stroke-linecap="round"/>
<line x1="180.36" y1="459.80" x2="154.17" y2="455.59" stroke="#D32F2F" stroke-width="8.00" stroke-linecap="round"/>
<line x1="133.07" y1="433.23" x2="154.17" y2="455.59" stroke="#D32F2F" stroke-width="6.95" stroke-linecap="round"/>
<line x1="174.57" y1="482.47" x2="148.60" y2="475.03" stroke="#D32F2F" stroke-width="8.00" stroke-linecap="round"/>
<line x1="128.38" y1="451.61" x2="148.60" y2="475.03" stroke="#D32F2F" stroke-width="5.94" stroke-linecap="round"/>
<line x1="168.26" y1="500.95" x2="142.61" y2="490.64" stroke="#D32F2F" stroke-width="8.00" stroke-linecap="round"/>
<line x1="123.24" y1="466.66" x2="142.61" y2="490.64" stroke="#D32F2F" stroke-width="5.59" stroke-linecap="round"/>
<line x1="161.68" y1="515.42" x2="136.43" y2="502.66" stroke="#D32F2F" stroke-width="7.62" stroke-linecap="round"/>
<line x1="117.83" y1="478.56" x2="136.43" y2="502.66" stroke="#D32F2F" stroke-width="5.99" stroke-linecap="round"/>
<line x1="155.12" y1="526.20" x2="130.32" y2="511.41" stroke="#D32F2F" stroke-width="7.15" stroke-linecap="round"/>
<line x1="112.34" y1="487.58" x2="130.32" y2="511.41" stroke="#D32F2F" stroke-width="6.44" stroke-linecap="round"/>
<line x1="148.83" y1="533.70" x2="124.50" y2="517.24" stroke="#D32F2F" stroke-width="6.74" stroke-linecap="round"/>
<line x1="106.95" y1="493.99" x2="124.50" y2="517.24" stroke="#D32F2F" stroke-width="6.90" stroke-linecap="round"/>
<line x1="143.06" y1="538.33" x2="119.23" y2="520.56" stroke="#D32F2F" stroke-width="6.40" stroke-linecap="round"/>
<line x1="101.87" y1="498.07" x2="119.23" y2="520.56" stroke="#D32F2F" stroke-width="7.31" stroke-linecap="round"/>
<line x1="138.05" y1="540.54" x2="114.74" y2="521.70" stroke="#D32F2F" stroke-width="6.16" stroke-linecap="round"/>
<line x1="97.31" y1="500.08" x2="114.74" y2="521.70" stroke="#D32F2F" stroke-width="7.63" stroke-linecap="round"/>
<line x1="134.02" y1="540.73" x2="111.26" y2="521.02" stroke="#D32F2F" stroke-width="6.02" stroke-linecap="round"/>
<line x1="93.51" y1="500.25" x2="111.26" y2="521.02" stroke="#D32F2F" stroke-width="7.84" stroke-linecap="round"/>
</svg>