<svg width="630.0" height="630.0" viewBox="0 0 630.0 630.0" xmlns="http://www.w3.org/2000/svg">
<circle cx="315.0" cy="315.0" r="290.0" fill="#FDFDF5" stroke="#ccc" stroke-width="0.5"/>
<line x1="502.42" y1="535.38" x2="478.20" y2="554.24" stroke="#D32F2F" stroke-width="5.28" stroke-linecap="round"/>
<line x1="447.54" y1="572.02" x2="464.90" y2="559.30" stroke="#D32F2F" stroke-width="8.00" stroke-linecap="round"/>
<line x1="490.28" y1="541.48" x2="464.90" y2="559.30" stroke="#D32F2F" stroke-width="4.47" stroke-linecap="round"/>
<line x1="433.93" y1="574.06" x2="452.88" y2="559.45" stroke="#D32F2F" stroke-width="8.00" stroke-linecap="round"/>
<line x1="479.20" y1="543.14" x2="452.88" y2="559.45" stroke="#D32F2F" stroke-width="4.73" stroke-linecap="round"/>
<line x1="421.94" y1="571.12" x2="442.44" y2="555.15" stroke="#D32F2F" stroke-width="8.00" stroke-linecap="round"/>
<line x1="469.46" y1="540.75" x2="442.44" y2="555.15" stroke="#D32F2F" stroke-width="5.71" stroke-linecap="round"/>
<line x1="411.75" y1="563.81" x2="433.69" y2="547.01" stroke="#D32F2F" stroke-width="8.00" stroke-linecap="round"/>
<line x1="461.20" y1="534.83" x2="433.69" y2="547.01" stroke="#D32F2F" stroke-width="6.61" stroke-linecap="round"/>
<line x1="403.39" y1="552.86" x2="426.59" y2="535.67" stroke="#D32F2F" stroke-width="7.76" stroke-linecap="round"/>
<line x1="454.39" y1="525.90" x2="426.59" y2="535.67" stroke="#D32F2F" stroke-width="7.39" stroke-linecap="round"/>
<line x1="396.72" y1="538.98" x2="420.98" y2="521.74" stroke="#D32F2F" stroke-width="7.49" stroke-linecap="round"/>
<line x1="448.91" y1="514.48" x2="420.98" y2="521.74" stroke="#D32F2F" stroke-width="8.00" stroke-linecap="round"/>
<line x1="391.52" y1="522.82" x2="416.61" y2="505.74" stroke="#D32F2F" stroke-width="7.35" stroke-linecap="round"/>
<line x1="444.56" y1="500.96" x2="416.61" y2="505.74" stroke="#D32F2F" stroke-width="8.00" stroke-linecap="round"/>
<line x1="387.48" y1="504.93" x2="413.18" y2="488.10" stroke="#D32F2F" stroke-width="7.33" stroke-linecap="round"/>
<line x1="441.10" y1="485.64" x2="413.18" y2="488.10" stroke="#D32F2F" stroke-width="8.00" stroke-linecap="round"/>
<line x1="384.26" y1="485.78" x2="410.37" y2="469.17" stroke="#D32F2F" stroke-width="7.43" stroke-linecap="round"/>
<line x1="438.27" y1="468.76" x2="410.37" y2="469.17" stroke="#D32F2F" stroke-width="8.00" stroke-linecap="round"/>
<line x1="381.53" y1="465.72" x2="407.84" y2="449.21" stroke="#D32F2F" stroke-width="7.64" stroke-linecap="round"/>
<line x1="435.78" y1="450.47" x2="407.84" y2="449.21" stroke="#D32F2F" stroke-width="8.00" stroke-linecap="round"/>
<line x1="378.93" y1="445.01" x2="405.24" y2="428.42" stroke="#D32F2F" stroke-width="8.00" stroke-linecap="round"/>
<line x1="433.32" y1="430.91" x2="405.24" y2="428.42" stroke="#D32F2F" stroke-width="8.00" stroke-linecap="round"/>
<line x1="376.13" y1="423.87" x2="402.24" y2="406.96" stroke="#D32F2F" stroke-width="8.00" stroke-linecap="round"/>
<line x1="430.57" y1="410.17" x2="402.24" y2="406.96" stroke="#D32F2F" stroke-width="8.00" stroke-linecap="round"/>
<line x1="372.80" y1="402.46" x2="398.49" y2="384.97" stroke="#D32F2F" stroke-width="8.00" stroke-linecap="round"/>
<line x1="427.18" y1="388.34" x2="398.49" y2="384.97" stroke="#D32F2F" stroke-width="8.00" stroke-linecap="round"/>
<line x1="368.63" y1="380.91" x2="393.65" y2="362.56" stroke="#D32F2F" stroke-width="8.00" stroke-linecap="round"/>
<line x1="422.75" y1="365.53" x2="393.65" y2="362.56" stroke="#D32F2F" stroke-width="8.00" stroke-linecap="round"/>
<line x1="363.29" y1="359.34" x2="387.37" y2="339.87" stroke="#D32F2F" stroke-width="8.00" stroke-linecap="round"/>
<line x1="416.89" y1="341.85" x2="387.37" y2="339.87" stroke="#D32F2F" stroke-width="8.00" stroke-linecap="round"/>
<line x1="356.49" y1="337.88" x2="379.30" y2="317.05" stroke="#D32F2F" stroke-width="8.00" stroke-linecap="round"/>
<line x1="409.18" y1="317.50" x2="379.30" y2="317.05" stroke="#D32F2F" stroke-width="8.00" stroke-linecap="round"/>
<line x1="347.93" y1="316.66" x2="369.10" y2="294.30" stroke="#D32F2F" stroke-width="8.00" stroke-linecap="round"/>
<line x1="399.17" y1="292.73" x2="369.10" y2="294.30" stroke="#D32F2F" stroke-width="8.00" stroke-linecap="round"/>
<line x1="337.29" y1="295.88" x2="356.43" y2="271.92" stroke="#D32F2F" stroke-width="8.00" stroke-linecap="round"/>
<line x1="386.45" y1="267.89" x2="356.43" y2="271.92" stroke="#D32F2F" stroke-width="8.00" stroke-linecap="round"/>
<line x1="324.31" y1="275.81" x2="341.01" y2="250.29" stroke="#D32F2F" stroke-width="8.00" stroke-linecap="round"/>
<line x1="370.67" y1="243.49" x2="341.01" y2="250.29" stroke="#D32F2F" stroke-width="8.00" stroke-linecap="round"/>
<line x1="308.76" y1="256.79" x2="322.65" y2="229.91" stroke="#D32F2F" stroke-width="8.00" stroke-linecap="round"/>
<line x1="351.57" y1="220.14" x2="322.65" y2="229.91" stroke="#D32F2F" stroke-width="8.00" stroke-linecap="round"/>
<line x1="290.51" y1="239.32" x2="301.29" y2="211.43" stroke="#D32F2F" stroke-width="8.00" stroke-linecap="round"/>
<line x1="329.07" y1="198.61" x2="301.29" y2="211.43" stroke="#D32F2F" stroke-width="8.00" stroke-linecap="round"/>
<line x1="269.60" y1="224.03" x2="277.10" y2="195.60" stroke="#D32F2F" stroke-width="8.00" stroke-linecap="round"/>
<line x1="303.31" y1="179.76" x2="277.10" y2="195.60" stroke="#D32F2F" stroke-width="8.00" stroke-linecap="round"/>
<line x1="246.35" y1="211.64" x2="250.51" y2="183.24" stroke="#D32F2F" stroke-width="8.00" stroke-linecap="round"/>
<line x1="274.74" y1="164.54" x2="250.51" y2="183.24" stroke="#D32F2F" stroke-width="8.00" stroke-linecap="round"/>
<line x1="221.32" y1="202.87" x2="222.26" y2="175.10" stroke="#D32F2F" stroke-width="8.00" stroke-linecap="round"/>
<line x1="244.11" y1="153.80" x2="222.26" y2="175.10" stroke="#D32F2F" stroke-width="7.90" stroke-linecap="round"/>
<line x1="195.38" y1="198.31" x2="193.31" y2="171.78" stroke="#D32F2F" stroke-width="8.00" stroke-linecap="round"/>
<line x1="212.46" y1="148.24" x2="193.31" y2="171.78" stroke="#D32F2F" stroke-width="7.68" stroke-linecap="round"/>
<line x1="169.55" y1="198.31" x2="164.82" y2="173.57" stroke="#D32F2F" stroke-width="8.00" stroke-linecap="round"/>
<line x1="180.98" y1="148.24" x2="164.82" y2="173.57" stroke="#D32F2F" stroke-width="7.59" stroke-linecap="round"/>
<line x1="144.90" y1="202.87" x2="137.90" y2="180.40" stroke="#D32F2F" stroke-width="8.00" stroke-linecap="round"/>
<line x1="150.90" y1="153.80" x2="137.90" y2="180.40" stroke="#D32F2F" stroke-width="7.64" stroke-linecap="round"/>
<line x1="122.33" y1="211.64" x2="113.50" y2="191.83" stroke="#D32F2F" stroke-width="8.00" stroke-linecap="round"/>
<line x1="123.28" y1="164.54" x2="113.50" y2="191.83" stroke="#D32F2F" stroke-width="7.81" stroke-linecap="round"/>
<line x1="102.49" y1="224.03" x2="92.27" y2="207.15" stroke="#D32F2F" stroke-width="8.00" stroke-linecap="round"/>
<line x1="98.91" y1="179.76" x2="92.27" y2="207.15" stroke="#D32F2F" stroke-width="8.00" stroke-linecap="round"/>
<line x1="85.73" y1="239.32" x2="74.57" y2="225.55" stroke="#D32F2F" stroke-width="8.00" stroke-linecap="round"/>
<line x1="78.26" y1="198.61" x2="74.57" y2="225.55" stroke="#D32F2F" stroke-width="8.00" stroke-linecap="round"/>
<line x1="72.15" y1="256.79" x2="60.48" y2="246.20" stroke="#D32F2F" stroke-width="8.00" stroke-linecap="round"/>
<line x1="61.51" y1="220.14" x2="60.48" y2="246.20" stroke="#D32F2F" stroke-width="8.00" stroke-linecap="round"/>
<line x1="61.63" y1="275.81" x2="49.89" y2="268.35" stroke="#D32F2F" stroke-width="8.00" stroke-linecap="round"/>
<line x1="48.60" y1="243.49" x2="49.89" y2="268.35" stroke="#D32F2F" stroke-width="8.00" stroke-linecap="round"/>
<line x1="54.00" y1="295.88" x2="42.57" y2="291.38" stroke="#D32F2F" stroke-width="8.00" stroke-linecap="round"/>
<line x1="39.31" y1="267.89" x2="42.57" y2="291.38" stroke="#D32F2F" stroke-width="8.00" stroke-linecap="round"/>
<line x1="49.02" y1="316.66" x2="38.23" y2="314.81" stroke="#D32F2F" stroke-width="8.00" stroke-linecap="round"/>
<line x1="33.35" y1="292.73" x2="38.23" y2="314.81" stroke="#D32F2F" stroke-width="8.00" stroke-linecap="round"/>
<line x1="46.48" y1="337.88" x2="36.58" y2="338.27" stroke="#D32F2F" stroke-width="8.00" stroke-linecap="round"/>
<line x1="30.39" y1="317.50" x2="36.58" y2="338.27" stroke="#D32F2F" stroke-width="8.00" stroke-linecap="round"/>
<line x1="46.21" y1="359.34" x2="37.38" y2="361.49" stroke="#D32F2F" stroke-width="8.00" stroke-linecap="round"/>
<line x1="30.07" y1="341.85" x2="37.38" y2="361.49" stroke="#D32F2F" stroke-width="8.00" stroke-linecap="round"/>
<line x1="48.06" y1="380.91" x2="40.37" y2="384.27" stroke="#D32F2F" stroke-width="8.00" stroke-linecap="round"/>
<line x1="32.10" y1="365.53" x2="40.37" y2="384.27" stroke="#D32F2F" stroke-width="8.00" stroke-linecap="round"/>
<line x1="51.94" y1="402.46" x2="45.35" y2="406.46" stroke="#D32F2F" stroke-width="8.00" stroke-linecap="round"/>
<line x1="36.19" y1="388.34" x2="45.35" y2="406.46" stroke="#D32F2F" stroke-width="8.00" stroke-linecap="round"/>
<line x1="57.76" y1="423.87" x2="52.17" y2="427.94" stroke="#D32F2F" stroke-width="8.00" stroke-linecap="round"/>
<line x1="42.12" y1="410.17" x2="52.17" y2="427.94" stroke="#D32F2F" stroke-width="8.00" stroke-linecap="round"/>
<line x1="65.47" y1="445.01" x2="60.68" y2="448.58" stroke="#D32F2F" stroke-width="8.00" stroke-linecap="round"/>
<line x1="49.69" y1="430.91" x2="60.68" y2="448.58" stroke="#D32F2F" stroke-width="8.00" stroke-linecap="round"/>
<line x1="75.05" y1="465.72" x2="70.77" y2="468.27" stroke="#D32F2F" stroke-width="8.00" stroke-linecap="round"/>
<line x1="58.73" y1="450.47" x2="70.77" y2="468.27" stroke="#D32F2F" stroke-width="8.00" stroke-linecap="round"/>
<line x1="86.46" y1="485.78" x2="82.36" y2="486.85" stroke="#D32F2F" stroke-width="8.00" stroke-linecap="round"/>
<line x1="99.66" y1="504.93" x2="95.37" y2="504.12" stroke="#D32F2F" stroke-width="8.00" stroke-linecap="round"/>
<line x1="317.67" y1="26.75" x2="341.04" y2="26.39" stroke="#D32F2F" stroke-width="8.00" stroke-linecap="round"/>
<line x1="350.55" y1="30.90" x2="371.39" y2="31.47" stroke="#D32F2F" stroke-width="8.00" stroke-linecap="round"/>
<line x1="397.59" y1="37.01" x2="401.54" y2="39.94" stroke="#D32F2F" stroke-width="8.00" stroke-linecap="round"/>
<line x1="383.57" y1="38.87" x2="401.54" y2="39.94" stroke="#D32F2F" stroke-width="8.00" stroke-linecap="round"/>
<line x1="423.64" y1="46.16" x2="430.46" y2="51.23" stroke="#D32F2F" stroke-width="8.00" stroke-linecap="round"/>
<line x1="415.59" y1="50.12" x2="430.46" y2="51.23" stroke="#D32F2F" stroke-width="8.00" stroke-linecap="round"/>
<line x1="448.06" y1="57.40" x2="457.36" y2="64.73" stroke="#D32F2F" stroke-width="8.00" stroke-linecap="round"/>
<line x1="445.67" y1="63.96" x2="457.36" y2="64.73" stroke="#D32F2F" stroke-width="8.00" stroke-linecap="round"/>
<line x1="470.37" y1="70.17" x2="481.76" y2="79.81" stroke="#D32F2F" stroke-width="8.00" stroke-linecap="round"/>
<line x1="473.19" y1="79.71" x2="481.76" y2="79.81" stroke="#D32F2F" stroke-width="8.00" stroke-linecap="round"/>
<line x1="497.76" y1="96.74" x2="503.41" y2="95.96" stroke="#D32F2F" stroke-width="8.00" stroke-linecap="round"/>
<line x1="519.23" y1="114.57" x2="522.25" y2="112.81" stroke="#D32F2F" stroke-width="8.00" stroke-linecap="round"/>
<line x1="537.63" y1="132.84" x2="538.35" y2="130.12" stroke="#D32F2F" stroke-width="8.00" stroke-linecap="round"/>
<line x1="502.42" y1="535.38" x2="478.20" y2="554.24" stroke="#D32F2F" stroke-width="5.28" stroke-linecap="round"/>
<line x1="447.54" y1="572.02" x2="464.90" y2="559.30" stroke="#D32F2F" stroke-width="8.00" stroke-linecap="round"/>
<line x1="490.28" y1="541.48" x2="464.90" y2="559.30" stroke="#D32F2F" stroke-width="4.47" stroke-linecap="round"/>
<line x1="433.93" y1="574.06" x2="452.88" y2="559.45" stroke="#D32F2F" stroke-width="8.00" stroke-linecap="round"/>
<line x1="479.20" y1="543.14" x2="452.88" y2="559.45" stroke="#D32F2F" stroke-width="4.73" stroke-linecap="round"/>
<line x1="421.94" y1="571.12" x2="442.44" y2="555.15" stroke="#D32F2F" stroke-width="8.00" stroke-linecap="round"/>
<line x1="469.46" y1="540.75" x2="442.44" y2="555.15" stroke="#D32F2F" stroke-width="5.71" stroke-linecap="round"/>
<line x1="411.75" y1="563.81" x2="433.69" y2="547.01" stroke="#D32F2F" stroke-width="8.00" stroke-linecap="round"/>
<line x1="461.20" y1="534.83" x2="433.69" y2="547.01" stroke="#D32F2F" stroke-width="6.61" stroke-linecap="round"/>
<line x1="403.39" y1="552.86" x2="426.59" y2="535.67" stroke="#D32F2F" stroke-width="7.76" stroke-linecap="round"/>
<line x1="454.39" y1="525.90" x2="426.59" y2="535.67" stroke="#D32F2F" stroke-width="7.39" stroke-linecap="round"/>
<line x1="396.72" y1="538.98" x2="420.98" y2="521.74" stroke="#D32F2F" stroke-width="7.49" stroke-linecap="round"/>
<line x1="448.91" y1="514.48" x2="420.98" y2="521.74" stroke="#D32F2F" stroke-width="8.00" stroke-linecap="round"/>
<line x1="391.52" y1="522.82" x2="416.61" y2="505.74" stroke="#D32F2F" stroke-width="7.35" stroke-linecap="round"/>
<line x1="444.56" y1="500.96" x2="416.61" y2="505.74" stroke="#D32F2F" stroke-width="8.00" stroke-linecap="round"/>
<line x1="387.48" y1="504.93" x2="413.18" y2="488.10" stroke="#D32F2F" stroke-width="7.33" stroke-linecap="round"/>
<line x1="441.10" y1="485.64" x2="413.18" y2="488.10" stroke="#D32F2F" stroke-width="8.00" stroke-linecap="round"/>
<line x1="384.26" y1="485.78" x2="410.37" y2="469.17" stroke="#D32F2F" stroke-width="7.43" stroke-linecap="round"/>
<line x1="438.27" y1="468.76" x2="410.37" y2="469.17" stroke="#D32F2F" stroke-width="8.00" stroke-linecap="round"/>
<line x1="381.53" y1="465.72" x2="407.84" y2="449.21" stroke="#D32F2F" stroke-width="7.64" stroke-linecap="round"/>
<line x1="435.78" y1="450.47" x2="407.84" y2="449.21" stroke="#D32F2F" stroke-width="8.00" stroke-linecap="round"/>
<line x1="378.93" y1="445.01" x2="405.24" y2="428.42" stroke="#D32F2F" stroke-width="8.00" stroke-linecap="round"/>
<line x1="433.32" y1="430.91" x2="405.24" y2="428.42" stroke="#D32F2F" stroke-width="8.00" stroke-linecap="round"/>
<line x1="376.13" y1="423.87" x2="402.24" y2="406.96" stroke="#D32F2F" stroke-width="8.00" stroke-linecap="round"/>
<line x1="430.57" y1="410.17" x2="402.24" y2="406.96" stroke="#D32F2F" stroke-width="8.00" stroke-linecap="round"/>
<line x1="372.80" y1="402.46" x2="398.49" y2="384.97" stroke="#D32F2F" stroke-width="8.00" stroke-linecap="round"/>
<line x1="427.18" y1="388.34" x2="398.49" y2="384.97" stroke="#D32F2F" stroke-width="8.00" stroke-linecap="round"/>
<line x1="368.63" y1="380.91" x2="393.65" y2="362.56" stroke="#D32F2F" stroke-width="8.00" stroke-linecap="round"/>
<line x1="422.75" y1="365.53" x2="393.65" y2="362.56" stroke="#D32F2F" stroke-width="8.00" stroke-linecap="round"/>
<line x1="363.29" y1="359.34" x2="387.37" y2="339.87" stroke="#D32F2F" stroke-width="8.00" stroke-linecap="round"/>
<line x1="416.89" y1="341.85" x2="387.37" y2="339.87" stroke="#D32F2F" stroke-width="8.00" stroke-linecap="round"/>
<line x1="356.49" y1="337.88" x2="379.30" y2="317.05" stroke="#D32F2F" stroke-width="8.00" stroke-linecap="round"/>
<line x1="409.18" y1="317.50" x2="379.30" y2="317.05" stroke="#D32F2F" stroke-width="8.00" stroke-linecap="round"/>
<line x1="347.93" y1="316.66" x2="369.10" y2="294.30" stroke="#D32F2F" stroke-width="8.00" stroke-linecap="round"/>
<line x1="399.17" y1="292.73" x2="369.10" y2="294.30" stroke="#D32F2F" stroke-width="8.00" stroke-linecap="round"/>
<line x1="337.29" y1="295.88" x2="356.43" y2="271.92" stroke="#D32F2F" stroke-width="8.00" stroke-linecap="round"/>
<line x1="386.45" y1="267.89" x2="356.43" y2="271.92" stroke="#D32F2F" stroke-width="8.00" stroke-linecap="round"/>
<line x1="324.31" y1="275.81" x2="341.01" y2="250.29" stroke="#D32F2F" stroke-width="8.00" stroke-linecap="round"/>
<line x1="370.67" y1="243.49" x2="341.01" y2="250.29" stroke="#D32F2F" stroke-width="8.00" stroke-linecap="round"/>
<line x1="308.76" y1="256.79" x2="322.65" y2="229.91" stroke="#D32F2F" stroke-width="8.00" stroke-linecap="round"/>
<line x1="351.57" y1="220.14" x2="322.65" y2="229.91" stroke="#D32F2F" stroke-width="8.00" stroke-linecap="round"/>
<line x1="290.51" y1="239.32" x2="301.29" y2="211.43" stroke="#D32F2F" stroke-width="8.00" stroke-linecap="round"/>
<line x1="329.07" y1="198.61" x2="301.29" y2="211.43" stroke="#D32F2F" stroke-width="8.00" stroke-linecap="round"/>
<line x1="269.60" y1="224.03" x2="277.10" y2="195.60" stroke="#D32F2F" stroke-width="8.00" stroke-linecap="round"/>
<line x1="303.31" y1="179.76" x2="277.10" y2="195.60" stroke="#D32F2F" stroke-width="8.00" stroke-linecap="round"/>
<line x1="246.35" y1="211.64" x2="250.51" y2="183.24" stroke="#D32F2F" stroke-width="8.00" stroke-linecap="round"/>
<line x1="274.74" y1="164.54" x2="250.51" y2="183.24" stroke="#D32F2F" stroke-width="8.00" stroke-linecap="round"/>
<line x1="221.32" y1="202.87" x2="222.26" y2="175.10" stroke="#D32F2F" stroke-width="8.00" stroke-linecap="round"/>
<line x1="244.11" y1="153.80" x2="222.26" y2="175.10" stroke="#D32F2F" stroke-width="7.90" stroke-linecap="round"/>
<line x1="195.38" y1="198.31" x2="193.31" y2="171.78" stroke="#D32F2F" stroke-width="8.00" stroke-linecap="round"/>
<line x1="212.46" y1="148.24" x2="193.31" y2="171.78" stroke="#D32F2F" stroke-width="7.68" stroke-linecap="round"/>
<line x1="169.55" y1="198.31" x2="164.82" y2="173.57" stroke="#D32F2F" stroke-width="8.00" stroke-linecap="round"/>
<line x1="180.98" y1="148.24" x2="164.82" y2="173.57" stroke="#D32F2F" stroke-width="7.59" stroke-linecap="round"/>
<line x1="144.90" y1="202.87" x2="137.90" y2="180.40" stroke="#D32F2F" stroke-width="8.00" stroke-linecap="round"/>
<line x1="150.90" y1="153.80" x2="137.90" y2="180.40" stroke="#D32F2F" stroke-width="7.64" stroke-linecap="round"/>
<line x1="122.33" y1="211.64" x2="113.50" y2="191.83" stroke="#D32F2F" stroke-width="8.00" stroke-linecap="round"/>
<line x1="123.28" y1="164.54" x2="113.50" y2="191.83" stroke="#D32F2F" stroke-width="7.81" stroke-linecap="round"/>
<line x1="102.49" y1="224.03" x2="92.27" y2="207.15" stroke="#D32F2F" stroke-width="8.00" stroke-linecap="round"/>
<line x1="98.91" y1="179.76" x2="92.27" y2="207.15" stroke="#D32F2F" stroke-width="8.00" stroke-linecap="round"/>
<line x1="85.73" y1="239.32" x2="74.57" y2="225.55" stroke="#D32F2F" stroke-width="8.00" stroke-linecap="round"/>
<line x1="78.26" y1="198.61" x2="74.57" y2="225.55" stroke="#D32F2F" stroke-width="8.00" stroke-linecap="round"/>
<line x1="72.15" y1="256.79" x2="60.48" y2="246.20" stroke="#D32F2F" stroke-width="8.00" stroke-linecap="round"/>
<line x1="61.51" y1="220.14" x2="60.48" y2="246.20" stroke="#D32F2F" stroke-width="8.00" stroke-linecap="round"/>
<line x1="61.63" y1="275.81" x2="49.89" y2="268.35" stroke="#D32F2F" stroke-width="8.00" stroke-linecap="round"/>
<line x1="48.60" y1="243.49" x2="49.89" y2="268.35" stroke="#D32F2F" stroke-width="8.00" stroke-linecap="round"/>
<line x1="54.00" y1="295.88" x2="42.57" y2="291.38" stroke="#D32F2F" stroke-width="8.00" stroke-linecap="round"/>
<line x1="39.31" y1="267.89" x2="42.57" y2="291.38" stroke="#D32F2F" stroke-width="8.00" stroke-linecap="round"/>
<line x1="49.02" y1="316.66" x2="38.23" y2="314.81" stroke="#D32F2F" stroke-width="8.00" stroke-linecap="round"/>
<line x1="33.35" y1="292.73" x2="38.23" y2="314.81" stroke="#D32F2F" stroke-width="8.00" stroke-linecap="round"/>
<line x1="46.48" y1="337.88" x2="36.58" y2="338.27" stroke="#D32F2F" stroke-width="8.00" stroke-linecap="round"/>
<line x1="30.39" y1="317.50" x2="36.58" y2="338.27" stroke="#D32F2F" stroke-width="8.00" stroke-linecap="round"/>
<line x1="46.21" y1="359.34" x2="37.38" y2="361.49" stroke="#D32F2F" stroke-width="8.00" stroke-linecap="round"/>
<line x1="30.07" y1="341.85" x2="37.38" y2="361.49" stroke="#D32F2F" stroke-width="8.00" stroke-linecap="round"/>
<line x1="48.06" y1="380.91" x2="40.37" y2="384.27" stroke="#D32F2F" stroke-width="8.00" stroke-linecap="round"/>
<line x1="32.10" y1="365.53" x2="40.37" y2="384.27" stroke="#D32F2F" stroke-width="8.00" stroke-linecap="round"/>
<line x1="51.94" y1="402.46" x2="45.35" y2="406.46" stroke="#D32F2F" stroke-width="8.00" stroke-linecap="round"/>
<line x1="36.19" y1="388.34" x2="45.35" y2="406.46" stroke="#D32F2F" stroke-width="8.00" stroke-linecap="round"/>
<line x1="57.76" y1="423.87" x2="52.17" y2="427.94" stroke="#D32F2F" stroke-width="8.00" stroke-linecap="round"/>
<line x1="42.12" y1="410.17" x2="52.17" y2="427.94" stroke="#D32F2F" stroke-width="8.00" stroke-linecap="round"/>
<line x1="65.47" y1="445.01" x2="60.68" y2="448.58" stroke="#D32F2F" stroke-width="8.00" stroke-linecap="round"/>
<line x1="49.69" y1="430.91" x2="60.68" y2="448.58" stroke="#D32F2F" stroke-width="8.00" stroke-linecap="round"/>
<line x1="75.05" y1="465.72" x2="70.77" y2="468.27" stroke="#D32F2F" stroke-width="8.00" stroke-linecap="round"/>
<line x1="58.73" y1="450.47" x2="70.77" y2="468.27" stroke="#D32F2F" stroke-width="8.00" stroke-linecap="round"/>
<line x1="86.46" y1="485.78" x2="82.36" y2="486.85" stroke="#D32F2F" stroke-width="8.00" stroke-linecap="round"/>
<line x1="99.66" y1="504.93" x2="95.37" y2="504.12" stroke="#D32F2F" stroke-width="8.00" stroke-linecap="round"/>
<line x1="317.67" y1="26.75" x2="341.04" y2="26.39" stroke="#D32F2F" stroke-width="8.00" stroke-linecap="round"/>
<line x1="350.55" y1="30.90" x2="371.39" y2="31.47" stroke="#D32F2F" stroke-width="8.00" stroke-linecap="round"/>
<line x1="397.59" y1="37.01" x2="401.54" y2="39.94" stroke="#D32F2F" stroke-width="8.00" stroke-linecap="round"/>
<line x1="383.57" y1="38.87" x2="401.54" y2="39.94" stroke="#D32F2F" stroke-width="8.00" stroke-linecap="round"/>
<line x1="423.64" y1="46.16" x2="430.46" y2="51.23" stroke="#D32F2F" stroke-width="8.00" stroke-linecap="round"/>
<line x1="415.59" y1="50.12" x2="430.46" y2="51.23" stroke="#D32F2F" stroke-width="8.00" stroke-linecap="round"/>
<line x1="448.06" y1="57.40" x2="457.36" y2="64.73" stroke="#D32F2F" stroke-width="8.00" stroke-linecap="round"/>
<line x1="445.67" y1="63.96" x2="457.36" y2="64.73" stroke="#D32F2F" stroke-width="8.00" stroke-linecap="round"/>
<line x1="470.37" y1="70.17" x2="481.76" y2="79.81" stroke="#D32F2F" stroke-width="8.00" stroke-linecap="round"/>
<line x1="473.19" y1="79.71" x2="481.76" y2="79.81" stroke="#D32F2F" stroke-width="8.00" stroke-linecap="round"/>
<line x1="497.76" y1="96.74" x2="503.41" y2="95.96" stroke="#D32F2F" stroke-width="8.00" stroke-linecap="round"/>
<line x1="519.23" y1="114.57" x2="522.25" y2="112.81" stroke="#D32F2F" stroke-width="8.00" stroke-linecap="round"/>
<line x1="537.63" y1="132.84" x2="538.35" y2="130.12" stroke="#D32F2F" stroke-width="8.00" stroke-linecap="round"/>
</svg>