<svg width="630.0" height="630.0" viewBox="0 0 630.0 630.0" xmlns="http://www.w3.org/2000/svg">
<circle cx="315.0" cy="315.0" r="290.0" fill="#FDFDF5" stroke="#ccc" stroke-width="0.5"/>
<line x1="506.53" y1="532.72" x2="527.95" y2="511.52" stroke="#D32F2F" stroke-width="5.98" stroke-linecap="round"/>
<line x1="507.97" y1="529.74" x2="528.76" y2="507.85" stroke="#D32F2F" stroke-width="5.92" stroke-linecap="round"/>
<line x1="546.97" y1="487.96" x2="528.76" y2="507.85" stroke="#D32F2F" stroke-width="7.96" stroke-linecap="round"/>
<line x1="508.24" y1="525.08" x2="528.51" y2="502.48" stroke="#D32F2F" stroke-width="5.74" stroke-linecap="round"/>
<line x1="547.23" y1="483.56" x2="528.51" y2="502.48" stroke="#D32F2F" stroke-width="8.00" stroke-linecap="round"/>
<line x1="507.52" y1="518.37" x2="527.42" y2="495.12" stroke="#D32F2F" stroke-width="5.45" stroke-linecap="round"/>
<line x1="546.58" y1="477.45" x2="527.42" y2="495.12" stroke="#D32F2F" stroke-width="8.00" stroke-linecap="round"/>
<line x1="505.99" y1="509.22" x2="525.68" y2="485.48" stroke="#D32F2F" stroke-width="5.09" stroke-linecap="round"/>
<line x1="545.23" y1="469.39" x2="525.68" y2="485.48" stroke="#D32F2F" stroke-width="8.00" stroke-linecap="round"/>
<line x1="503.83" y1="497.25" x2="523.48" y2="473.26" stroke="#D32F2F" stroke-width="4.82" stroke-linecap="round"/>
<line x1="543.38" y1="459.14" x2="523.48" y2="473.26" stroke="#D32F2F" stroke-width="8.00" stroke-linecap="round"/>
<line x1="501.22" y1="482.07" x2="520.97" y2="458.17" stroke="#D32F2F" stroke-width="5.80" stroke-linecap="round"/>
<line x1="541.20" y1="446.45" x2="520.97" y2="458.17" stroke="#D32F2F" stroke-width="8.00" stroke-linecap="round"/>
<line x1="498.32" y1="463.36" x2="518.29" y2="439.95" stroke="#D32F2F" stroke-width="6.79" stroke-linecap="round"/>
<line x1="538.81" y1="431.06" x2="518.29" y2="439.95" stroke="#D32F2F" stroke-width="8.00" stroke-linecap="round"/>
<line x1="495.28" y1="440.91" x2="515.54" y2="418.44" stroke="#D32F2F" stroke-width="7.73" stroke-linecap="round"/>
<line x1="536.33" y1="412.78" x2="515.54" y2="418.44" stroke="#D32F2F" stroke-width="8.00" stroke-linecap="round"/>
<line x1="492.23" y1="414.68" x2="512.82" y2="393.63" stroke="#D32F2F" stroke-width="8.00" stroke-linecap="round"/>
<line x1="533.86" y1="391.50" x2="512.82" y2="393.63" stroke="#D32F2F" stroke-width="8.00" stroke-linecap="round"/>
<line x1="489.27" y1="384.89" x2="510.21" y2="365.72" stroke="#D32F2F" stroke-width="8.00" stroke-linecap="round"/>
<line x1="531.46" y1="367.33" x2="510.21" y2="365.72" stroke="#D32F2F" stroke-width="8.00" stroke-linecap="round"/>
<line x1="486.49" y1="352.06" x2="507.77" y2="335.23" stroke="#D32F2F" stroke-width="8.00" stroke-linecap="round"/>
<line x1="529.20" y1="340.60" x2="507.77" y2="335.23" stroke="#D32F2F" stroke-width="8.00" stroke-linecap="round"/>
<line x1="483.95" y1="317.05" x2="505.56" y2="302.98" stroke="#D32F2F" stroke-width="8.00" stroke-linecap="round"/>
<line x1="527.12" y1="311.99" x2="505.56" y2="302.98" stroke="#D32F2F" stroke-width="8.00" stroke-linecap="round"/>
<line x1="481.72" y1="281.02" x2="503.63" y2="270.08" stroke="#D32F2F" stroke-width="8.00" stroke-linecap="round"/>
<line x1="525.29" y1="282.46" x2="503.63" y2="270.08" stroke="#D32F2F" stroke-width="8.00" stroke-linecap="round"/>
<line x1="479.85" y1="245.33" x2="502.06" y2="237.83" stroke="#D32F2F" stroke-width="8.00" stroke-linecap="round"/>
<line x1="523.76" y1="253.19" x2="502.06" y2="237.83" stroke="#D32F2F" stroke-width="8.00" stroke-linecap="round"/>
<line x1="478.43" y1="211.38" x2="500.91" y2="207.49" stroke="#D32F2F" stroke-width="8.00" stroke-linecap="round"/>
<line x1="522.59" y1="225.36" x2="500.91" y2="207.49" stroke="#D32F2F" stroke-width="8.00" stroke-linecap="round"/>
<line x1="477.51" y1="180.36" x2="500.25" y2="180.14" stroke="#D32F2F" stroke-width="8.00" stroke-linecap="round"/>
<line x1="521.85" y1="200.01" x2="500.25" y2="180.14" stroke="#D32F2F" stroke-width="7.73" stroke-linecap="round"/>
<line x1="477.16" y1="153.17" x2="500.11" y2="156.54" stroke="#D32F2F" stroke-width="8.00" stroke-linecap="round"/>
<line x1="521.55" y1="177.88" x2="500.11" y2="156.54" stroke="#D32F2F" stroke-width="6.82" stroke-linecap="round"/>
<line x1="477.36" y1="130.35" x2="500.49" y2="137.07" stroke="#D32F2F" stroke-width="8.00" stroke-linecap="round"/>
<line x1="521.72" y1="159.36" x2="500.49" y2="137.07" stroke="#D32F2F" stroke-width="5.80" stroke-linecap="round"/>
<line x1="478.09" y1="112.08" x2="501.33" y2="121.79" stroke="#D32F2F" stroke-width="8.00" stroke-linecap="round"/>
<line x1="522.31" y1="144.54" x2="501.33" y2="121.79" stroke="#D32F2F" stroke-width="4.73" stroke-linecap="round"/>
<line x1="479.23" y1="98.24" x2="502.51" y2="110.54" stroke="#D32F2F" stroke-width="8.00" stroke-linecap="round"/>
<line x1="523.24" y1="133.27" x2="502.51" y2="110.54" stroke="#D32F2F" stroke-width="5.05" stroke-linecap="round"/>
<line x1="480.65" y1="88.53" x2="503.90" y2="103.00" stroke="#D32F2F" stroke-width="7.73" stroke-linecap="round"/>
<line x1="524.41" y1="125.29" x2="503.90" y2="103.00" stroke="#D32F2F" stroke-width="5.70" stroke-linecap="round"/>
<line x1="482.15" y1="82.54" x2="505.32" y2="98.76" stroke="#D32F2F" stroke-width="7.25" stroke-linecap="round"/>
<line x1="525.67" y1="120.28" x2="505.32" y2="98.76" stroke="#D32F2F" stroke-width="6.33" stroke-linecap="round"/>
<line x1="483.54" y1="79.81" x2="506.54" y2="97.42" stroke="#D32F2F" stroke-width="6.84" stroke-linecap="round"/>
<line x1="526.85" y1="117.94" x2="506.54" y2="97.42" stroke="#D32F2F" stroke-width="6.90" stroke-linecap="round"/>
<line x1="85.78" y1="137.70" x2="106.10" y2="114.13" stroke="#D32F2F" stroke-width="4.10" stroke-linecap="round"/>
<line x1="129.02" y1="92.76" x2="113.57" y2="108.93" stroke="#D32F2F" stroke-width="8.00" stroke-linecap="round"/>
<line x1="92.52" y1="131.86" x2="113.57" y2="108.93" stroke="#D32F2F" stroke-width="4.11" stroke-linecap="round"/>
<line x1="137.23" y1="88.33" x2="122.06" y2="105.47" stroke="#D32F2F" stroke-width="8.00" stroke-linecap="round"/>
<line x1="100.27" y1="127.67" x2="122.06" y2="105.47" stroke="#D32F2F" stroke-width="4.19" stroke-linecap="round"/>
<line x1="146.58" y1="85.79" x2="131.35" y2="104.03" stroke="#D32F2F" stroke-width="8.00" stroke-linecap="round"/>
<line x1="108.79" y1="125.35" x2="131.35" y2="104.03" stroke="#D32F2F" stroke-width="4.49" stroke-linecap="round"/>
<line x1="156.86" y1="85.55" x2="141.24" y2="104.92" stroke="#D32F2F" stroke-width="8.00" stroke-linecap="round"/>
<line x1="117.85" y1="125.13" x2="141.24" y2="104.92" stroke="#D32F2F" stroke-width="4.91" stroke-linecap="round"/>
<line x1="167.83" y1="88.07" x2="151.51" y2="108.49" stroke="#D32F2F" stroke-width="8.00" stroke-linecap="round"/>
<line x1="127.25" y1="127.29" x2="151.51" y2="108.49" stroke="#D32F2F" stroke-width="5.42" stroke-linecap="round"/>
<line x1="179.23" y1="93.83" x2="161.92" y2="115.11" stroke="#D32F2F" stroke-width="7.77" stroke-linecap="round"/>
<line x1="136.78" y1="132.10" x2="161.92" y2="115.11" stroke="#D32F2F" stroke-width="6.00" stroke-linecap="round"/>
<line x1="190.74" y1="103.31" x2="172.23" y2="125.15" stroke="#D32F2F" stroke-width="7.38" stroke-linecap="round"/>
<line x1="146.25" y1="139.90" x2="172.23" y2="125.15" stroke="#D32F2F" stroke-width="6.64" stroke-linecap="round"/>
<line x1="202.01" y1="116.93" x2="182.17" y2="138.96" stroke="#D32F2F" stroke-width="7.10" stroke-linecap="round"/>
<line x1="155.43" y1="150.99" x2="182.17" y2="138.96" stroke="#D32F2F" stroke-width="7.30" stroke-linecap="round"/>
<line x1="212.66" y1="135.01" x2="191.41" y2="156.77" stroke="#D32F2F" stroke-width="6.99" stroke-linecap="round"/>
<line x1="164.07" y1="165.65" x2="191.41" y2="156.77" stroke="#D32F2F" stroke-width="7.94" stroke-linecap="round"/>
<line x1="222.28" y1="157.65" x2="199.62" y2="178.67" stroke="#D32F2F" stroke-width="7.09" stroke-linecap="round"/>
<line x1="171.88" y1="184.03" x2="199.62" y2="178.67" stroke="#D32F2F" stroke-width="8.00" stroke-linecap="round"/>
<line x1="230.46" y1="184.70" x2="206.44" y2="204.46" stroke="#D32F2F" stroke-width="8.00" stroke-linecap="round"/>
<line x1="178.53" y1="206.04" x2="206.44" y2="204.46" stroke="#D32F2F" stroke-width="8.00" stroke-linecap="round"/>
<line x1="236.81" y1="215.62" x2="211.55" y2="233.61" stroke="#D32F2F" stroke-width="8.00" stroke-linecap="round"/>
<line x1="183.72" y1="231.31" x2="211.55" y2="233.61" stroke="#D32F2F" stroke-width="8.00" stroke-linecap="round"/>
<line x1="241.02" y1="249.53" x2="214.66" y2="265.24" stroke="#D32F2F" stroke-width="8.00" stroke-linecap="round"/>
<line x1="187.18" y1="259.10" x2="214.66" y2="265.24" stroke="#D32F2F" stroke-width="8.00" stroke-linecap="round"/>
<line x1="242.89" y1="285.21" x2="215.59" y2="298.18" stroke="#D32F2F" stroke-width="8.00" stroke-linecap="round"/>
<line x1="188.71" y1="288.38" x2="215.59" y2="298.18" stroke="#D32F2F" stroke-width="8.00" stroke-linecap="round"/>
<line x1="242.34" y1="321.29" x2="214.31" y2="331.12" stroke="#D32F2F" stroke-width="8.00" stroke-linecap="round"/>
<line x1="188.25" y1="317.95" x2="214.31" y2="331.12" stroke="#D32F2F" stroke-width="8.00" stroke-linecap="round"/>
<line x1="239.43" y1="356.40" x2="210.92" y2="362.81" stroke="#D32F2F" stroke-width="8.00" stroke-linecap="round"/>
<line x1="185.88" y1="346.64" x2="210.92" y2="362.81" stroke="#D32F2F" stroke-width="8.00" stroke-linecap="round"/>
<line x1="234.40" y1="389.37" x2="205.63" y2="392.24" stroke="#D32F2F" stroke-width="8.00" stroke-linecap="round"/>
<line x1="181.78" y1="373.48" x2="205.63" y2="392.24" stroke="#D32F2F" stroke-width="8.00" stroke-linecap="round"/>
<line x1="227.53" y1="419.33" x2="198.75" y2="418.68" stroke="#D32F2F" stroke-width="8.00" stroke-linecap="round"/>
<line x1="176.21" y1="397.79" x2="198.75" y2="418.68" stroke="#D32F2F" stroke-width="8.00" stroke-linecap="round"/>
<line x1="219.21" y1="445.76" x2="190.64" y2="441.76" stroke="#D32F2F" stroke-width="8.00" stroke-linecap="round"/>
<line x1="169.46" y1="419.22" x2="190.64" y2="441.76" stroke="#D32F2F" stroke-width="7.46" stroke-linecap="round"/>
<line x1="209.83" y1="468.43" x2="181.64" y2="461.38" stroke="#D32F2F" stroke-width="8.00" stroke-linecap="round"/>
<line x1="161.82" y1="437.68" x2="181.64" y2="461.38" stroke="#D32F2F" stroke-width="6.63" stroke-linecap="round"/>
<line x1="199.81" y1="487.37" x2="172.12" y2="477.65" stroke="#D32F2F" stroke-width="7.79" stroke-linecap="round"/>
<line x1="153.57" y1="453.26" x2="172.12" y2="477.65" stroke="#D32F2F" stroke-width="6.70" stroke-linecap="round"/>
<line x1="189.52" y1="502.77" x2="162.41" y2="490.79" stroke="#D32F2F" stroke-width="7.32" stroke-linecap="round"/>
<line x1="144.96" y1="466.15" x2="162.41" y2="490.79" stroke="#D32F2F" stroke-width="6.88" stroke-linecap="round"/>
<line x1="179.31" y1="514.97" x2="152.80" y2="501.12" stroke="#D32F2F" stroke-width="6.90" stroke-linecap="round"/>
<line x1="136.23" y1="476.58" x2="152.80" y2="501.12" stroke="#D32F2F" stroke-width="7.13" stroke-linecap="round"/>
<line x1="169.51" y1="524.31" x2="143.60" y2="508.96" stroke="#D32F2F" stroke-width="6.56" stroke-linecap="round"/>
<line x1="127.58" y1="484.81" x2="143.60" y2="508.96" stroke="#D32F2F" stroke-width="7.40" stroke-linecap="round"/>
<line x1="160.38" y1="531.20" x2="135.05" y2="514.65" stroke="#D32F2F" stroke-width="6.30" stroke-linecap="round"/>
<line x1="119.27" y1="491.08" x2="135.05" y2="514.65" stroke="#D32F2F" stroke-width="7.65" stroke-linecap="round"/>
<line x1="152.19" y1="536.00" x2="127.43" y2="518.51" stroke="#D32F2F" stroke-width="6.14" stroke-linecap="round"/>
<line x1="111.54" y1="495.61" x2="127.43" y2="518.51" stroke="#D32F2F" stroke-width="7.83" stroke-linecap="round"/>
<line x1="145.17" y1="539.07" x2="120.98" y2="520.85" stroke="#D32F2F" stroke-width="6.08" stroke-linecap="round"/>
<line x1="104.65" y1="498.62" x2="120.98" y2="520.85" stroke="#D32F2F" stroke-width="7.91" stroke-linecap="round"/>
<line x1="139.53" y1="540.74" x2="115.96" y2="521.93" stroke="#D32F2F" stroke-width="6.12" stroke-linecap="round"/>
<line x1="98.91" y1="500.32" x2="115.96" y2="521.93" stroke="#D32F2F" stroke-width="7.87" stroke-linecap="round"/>
<line x1="135.50" y1="541.30" x2="112.65" y2="522.02" stroke="#D32F2F" stroke-width="6.26" stroke-linecap="round"/>
<line x1="94.65" y1="500.91" x2="112.65" y2="522.02" stroke="#D32F2F" stroke-width="7.68" stroke-linecap="round"/>
<line x1="506.53" y1="532.72" x2="527.95" y2="511.52" stroke="#D32F2F" stroke-width="5.98" stroke-linecap="round"/>
<line x1="507.97" y1="529.74" x2="528.76" y2="507.85" stroke="#D32F2F" stroke-width="5.92" stroke-linecap="round"/>
<line x1="546.97" y1="487.96" x2="528.76" y2="507.85" stroke="#D32F2F" stroke-width="7.96" stroke-linecap="round"/>
<line x1="508.24" y1="525.08" x2="528.51" y2="502.48" stroke="#D32F2F" stroke-width="5.74" stroke-linecap="round"/>
<line x1="547.23" y1="483.56" x2="528.51" y2="502.48" stroke="#D32F2F" stroke-width="8.00" stroke-linecap="round"/>
<line x1="507.52" y1="518.37" x2="527.42" y2="495.12" stroke="#D32F2F" stroke-width="5.45" stroke-linecap="round"/>
<line x1="546.58" y1="477.45" x2="527.42" y2="495.12" stroke="#D32F2F" stroke-width="8.00" stroke-linecap="round"/>
<line x1="505.99" y1="509.22" x2="525.68" y2="485.48" stroke="#D32F2F" stroke-width="5.09" stroke-linecap="round"/>
<line x1="545.23" y1="469.39" x2="525.68" y2="485.48" stroke="#D32F2F" stroke-width="8.00" stroke-linecap="round"/>
<line x1="503.83" y1="497.25" x2="523.48" y2="473.26" stroke="#D32F2F" stroke-width="4.82" stroke-linecap="round"/>
<line x1="543.38" y1="459.14" x2="523.48" y2="473.26" stroke="#D32F2F" stroke-width="8.00" stroke-linecap="round"/>
<line x1="501.22" y1="482.07" x2="520.97" y2="458.17" stroke="#D32F2F" stroke-width="5.80" stroke-linecap="round"/>
<line x1="541.20" y1="446.45" x2="520.97" y2="458.17" stroke="#D32F2F" stroke-width="8.00" stroke-linecap="round"/>
<line x1="498.32" y1="463.36" x2="518.29" y2="439.95" stroke="#D32F2F" stroke-width="6.79" stroke-linecap="round"/>
<line x1="538.81" y1="431.06" x2="518.29" y2="439.95" stroke="#D32F2F" stroke-width="8.00" stroke-linecap="round"/>
<line x1="495.28" y1="440.91" x2="515.54" y2="418.44" stroke="#D32F2F" stroke-width="7.73" stroke-linecap="round"/>
<line x1="536.33" y1="412.78" x2="515.54" y2="418.44" stroke="#D32F2F" stroke-width="8.00" stroke-linecap="round"/>
<line x1="492.23" y1="414.68" x2="512.82" y2="393.63" stroke="#D32F2F" stroke-width="8.00" stroke-linecap="round"/>
<line x1="533.86" y1="391.50" x2="512.82" y2="393.63" stroke="#D32F2F" stroke-width="8.00" stroke-linecap="round"/>
<line x1="489.27" y1="384.89" x2="510.21" y2="365.72" stroke="#D32F2F" stroke-width="8.00" stroke-linecap="round"/>
<line x1="531.46" y1="367.33" x2="510.21" y2="365.72" stroke="#D32F2F" stroke-width="8.00" stroke-linecap="round"/>
<line x1="486.49" y1="352.06" x2="507.77" y2="335.23" stroke="#D32F2F" stroke-width="8.00" stroke-linecap="round"/>
<line x1="529.20" y1="340.60" x2="507.77" y2="335.23" stroke="#D32F2F" stroke-width="8.00" stroke-linecap="round"/>
<line x1="483.95" y1="317.05" x2="505.56" y2="302.98" stroke="#D32F2F" stroke-width="8.00" stroke-linecap="round"/>
<line x1="527.12" y1="311.99" x2="505.56" y2="302.98" stroke="#D32F2F" stroke-width="8.00" stroke-linecap="round"/>
<line x1="481.72" y1="281.02" x2="503.63" y2="270.08" stroke="#D32F2F" stroke-width="8.00" stroke-linecap="round"/>
<line x1="525.29" y1="282.46" x2="503.63" y2="270.08" stroke="#D32F2F" stroke-width="8.00" stroke-linecap="round"/>
<line x1="479.85" y1="245.33" x2="502.06" y2="237.83" stroke="#D32F2F" stroke-width="8.00" stroke-linecap="round"/>
<line x1="523.76" y1="253.19" x2="502.06" y2="237.83" stroke="#D32F2F" stroke-width="8.00" stroke-linecap="round"/>
<line x1="478.43" y1="211.38" x2="500.91" y2="207.49" stroke="#D32F2F" stroke-width="8.00" stroke-linecap="round"/>
<line x1="522.59" y1="225.36" x2="500.91" y2="207.49" stroke="#D32F2F" stroke-width="8.00" stroke-linecap="round"/>
<line x1="477.51" y1="180.36" x2="500.25" y2="180.14" stroke="#D32F2F" stroke-width="8.00" stroke-linecap="round"/>
<line x1="521.85" y1="200.01" x2="500.25" y2="180.14" stroke="#D32F2F" stroke-width="7.73" stroke-linecap="round"/>
<line x1="477.16" y1="153.17" x2="500.11" y2="156.54" stroke="#D32F2F" stroke-width="8.00" stroke-linecap="round"/>
<line x1="521.55" y1="177.88" x2="500.11" y2="156.54" stroke="#D32F2F" stroke-width="6.82" stroke-linecap="round"/>
<line x1="477.36" y1="130.35" x2="500.49" y2="137.07" stroke="#D32F2F" stroke-width="8.00" stroke-linecap="round"/>
<line x1="521.72" y1="159.36" x2="500.49" y2="137.07" stroke="#D32F2F" stroke-width="5.80" stroke-linecap="round"/>
<line x1="478.09" y1="112.08" x2="501.33" y2="121.79" stroke="#D32F2F" stroke-width="8.00" stroke-linecap="round"/>
<line x1="522.31" y1="144.54" x2="501.33" y2="121.79" stroke="#D32F2F" stroke-width="4.73" stroke-linecap="round"/>
<line x1="479.23" y1="98.24" x2="502.51" y2="110.54" stroke="#D32F2F" stroke-width="8.00" stroke-linecap="round"/>
<line x1="523.24" y1="133.27" x2="502.51" y2="110.54" stroke="#D32F2F" stroke-width="5.05" stroke-linecap="round"/>
<line x1="480.65" y1="88.53" x2="503.90" y2="103.00" stroke="#D32F2F" stroke-width="7.73" stroke-linecap="round"/>
<line x1="524.41" y1="125.29" x2="503.90" y2="103.00" stroke="#D32F2F" stroke-width="5.70" stroke-linecap="round"/>
<line x1="482.15" y1="82.54" x2="505.32" y2="98.76" stroke="#D32F2F" stroke-width="7.25" stroke-linecap="round"/>
<line x1="525.67" y1="120.28" x2="505.32" y2="98.76" stroke="#D32F2F" stroke-width="6.33" stroke-linecap="round"/>
<line x1="483.54" y1="79.81" x2="506.54" y2="97.42" stroke="#D32F2F" stroke-width="6.84" stroke-linecap="round"/>
<line x1="526.85" y1="117.94" x2="506.54" y2="97.42" stroke="#D32F2F" stroke-width="6.90" stroke-linecap="round"/>
<line x1="85.78" y1="137.70" x2="106.10" y2="114.13" stroke="#D32F2F" stroke-width="4.10" stroke-linecap="round"/>
<line x1="129.02" y1="92.76" x2="113.57" y2="108.93" stroke="#D32F2F" stroke-width="8.00" stroke-linecap="round"/>
<line x1="92.52" y1="131.86" x2="113.57" y2="108.93" stroke="#D32F2F" stroke-width="4.11" stroke-linecap="round"/>
<line x1="137.23" y1="88.33" x2="122.06" y2="105.47" stroke="#D32F2F" stroke-width="8.00" stroke-linecap="round"/>
<line x1="100.27" y1="127.67" x2="122.06" y2="105.47" stroke="#D32F2F" stroke-width="4.19" stroke-linecap="round"/>
<line x1="146.58" y1="85.79" x2="131.35" y2="104.03" stroke="#D32F2F" stroke-width="8.00" stroke-linecap="round"/>
<line x1="108.79" y1="125.35" x2="131.35" y2="104.03" stroke="#D32F2F" stroke-width="4.49" stroke-linecap="round"/>
<line x1="156.86" y1="85.55" x2="141.24" y2="104.92" stroke="#D32F2F" stroke-width="8.00" stroke-linecap="round"/>
<line x1="117.85" y1="125.13" x2="141.24" y2="104.92" stroke="#D32F2F" stroke-width="4.91" stroke-linecap="round"/>
<line x1="167.83" y1="88.07" x2="151.51" y2="108.49" stroke="#D32F2F" stroke-width="8.00" stroke-linecap="round"/>
<line x1="127.25" y1="127.29" x2="151.51" y2="108.49" stroke="#D32F2F" stroke-width="5.42" stroke-linecap="round"/>
<line x1="179.23" y1="93.83" x2="161.92" y2="115.11" stroke="#D32F2F" stroke-width="7.77" stroke-linecap="round"/>
<line x1="136.78" y1="132.10" x2="161.92" y2="115.11" stroke="#D32F2F" stroke-width="6.00" stroke-linecap="round"/>
<line x1="190.74" y1="103.31" x2="172.23" y2="125.15" stroke="#D32F2F" stroke-width="7.38" stroke-linecap="round"/>
<line x1="146.25" y1="139.90" x2="172.23" y2="125.15" stroke="#D32F2F" stroke-width="6.64" stroke-linecap="round"/>
<line x1="202.01" y1="116.93" x2="182.17" y2="138.96" stroke="#D32F2F" stroke-width="7.10" stroke-linecap="round"/>
<line x1="155.43" y1="150.99" x2="182.17" y2="138.96" stroke="#D32F2F" stroke-width="7.30" stroke-linecap="round"/>
<line x1="212.66" y1="135.01" x2="191.41" y2="156.77" stroke="#D32F2F" stroke-width="6.99" stroke-linecap="round"/>
<line x1="164.07" y1="165.65" x2="191.41" y2="156.77" stroke="#D32F2F" stroke-width="7.94" stroke-linecap="round"/>
<line x1="222.28" y1="157.65" x2="199.62" y2="178.67" stroke="#D32F2F" stroke-width="7.09" stroke-linecap="round"/>
<line x1="171.88" y1="184.03" x2="199.62" y2="178.67" stroke="#D32F2F" stroke-width="8.00" stroke-linecap="round"/>
<line x1="230.46" y1="184.70" x2="206.44" y2="204.46" stroke="#D32F2F" stroke-width="8.00" stroke-linecap="round"/>
<line x1="178.53" y1="206.04" x2="206.44" y2="204.46" stroke="#D32F2F" stroke-width="8.00" stroke-linecap="round"/>
<line x1="236.81" y1="215.62" x2="211.55" y2="233.61" stroke="#D32F2F" stroke-width="8.00" stroke-linecap="round"/>
<line x1="183.72" y1="231.31" x2="211.55" y2="233.61" stroke="#D32F2F" stroke-width="8.00" stroke-linecap="round"/>
<line x1="241.02" y1="249.53" x2="214.66" y2="265.24" stroke="#D32F2F" stroke-width="8.00" stroke-linecap="round"/>
<line x1="187.18" y1="259.10" x2="214.66" y2="265.24" stroke="#D32F2F" stroke-width="8.00" stroke-linecap="round"/>
<line x1="242.89" y1="285.21" x2="215.59" y2="298.18" stroke="#D32F2F" stroke-width="8.00" stroke-linecap="round"/>
<line x1="188.71" y1="288.38" x2="215.59" y2="298.18" stroke="#D32F2F" stroke-width="8.00" stroke-linecap="round"/>
<line x1="242.34" y1="321.29" x2="214.31" y2="331.12" stroke="#D32F2F" stroke-width="8.00" stroke-linecap="round"/>
<line x1="188.25" y1="317.95" x2="214.31" y2="331.12" stroke="#D32F2F" stroke-width="8.00" stroke-linecap="round"/>
<line x1="239.43" y1="356.40" x2="210.92" y2="362.81" stroke="#D32F2F" stroke-width="8.00" stroke-linecap="round"/>
<line x1="185.88" y1="346.64" x2="210.92" y2="362.81" stroke="#D32F2F" stroke-width="8.00" stroke-linecap="round"/>
<line x1="234.40" y1="389.37" x2="205.63" y2="392.24" stroke="#D32F2F" stroke-width="8.00" stroke-linecap="round"/>
<line x1="181.78" y1="373.48" x2="205.63" y2="392.24" stroke="#D32F2F" stroke-width="8.00" stroke-linecap="round"/>
<line x1="227.53" y1="419.33" x2="198.75" y2="418.68" stroke="#D32F2F" stroke-width="8.00" stroke-linecap="round"/>
<line x1="176.21" y1="397.79" x2="198.75" y2="418.68" stroke="#D32F2F" stroke-width="8.00" stroke-linecap="round"/>
<line x1="219.21" y1="445.76" x2="190.64" y2="441.76" stroke="#D32F2F" stroke-width="8.00" stroke-linecap="round"/>
<line x1="169.46" y1="419.22" x2="190.64" y2="441.76" stroke="#D32F2F" stroke-width="7.46" stroke-linecap="round"/>
<line x1="209.83" y1="468.43" x2="181.64" y2="461.38" stroke="#D32F2F" stroke-width="8.00" stroke-linecap="round"/>
<line x1="161.82" y1="437.68" x2="181.64" y2="461.38" stroke="#D32F2F" stroke-width="6.63" stroke-linecap="round"/>
<line x1="199.81" y1="487.37" x2="172.12" y2="477.65" stroke="#D32F2F" stroke-width="7.79" stroke-linecap="round"/>
<line x1="153.57" y1="453.26" x2="172.12" y2="477.65" stroke="#D32F2F" stroke-width="6.70" stroke-linecap="round"/>
<line x1="189.52" y1="502.77" x2="162.41" y2="490.79" stroke="#D32F2F" stroke-width="7.32" stroke-linecap="round"/>
<line x1="144.96" y1="466.15" x2="162.41" y2="490.79" stroke="#D32F2F" stroke-width="6.88" stroke-linecap="round"/>
<line x1="179.31" y1="514.97" x2="152.80" y2="501.12" stroke="#D32F2F" stroke-width="6.90" stroke-linecap="round"/>
<line x1="136.23" y1="476.58" x2="152.80" y2="501.12" stroke="#D32F2F" stroke-width="7.13" stroke-linecap="round"/>
<line x1="169.51" y1="524.31" x2="143.60" y2="508.96" stroke="#D32F2F" stroke-width="6.56" stroke-linecap="round"/>
<line x1="127.58" y1="484.81" x2="143.60" y2="508.96" stroke="#D32F2F" stroke-width="7.40" stroke-linecap="round"/>
<line x1="160.38" y1="531.20" x2="135.05" y2="514.65" stroke="#D32F2F" stroke-width="6.30" stroke-linecap="round"/>
<line x1="119.27" y1="491.08" x2="135.05" y2="514.65" stroke="#D32F2F" stroke-width="7.65" stroke-linecap="round"/>
<line x1="152.19" y1="536.00" x2="127.43" y2="518.51" stroke="#D32F2F" stroke-width="6.14" stroke-linecap="round"/>
<line x1="111.54" y1="495.61" x2="127.43" y2="518.51" stroke="#D32F2F" stroke-width="7.83" stroke-linecap="round"/>
<line x1="145.17" y1="539.07" x2="120.98" y2="520.85" stroke="#D32F2F" stroke-width="6.08" stroke-linecap="round"/>
<line x1="104.65" y1="498.62" x2="120.98" y2="520.85" stroke="#D32F2F" stroke-width="7.91" stroke-linecap="round"/>
<line x1="139.53" y1="540.74" x2="115.96" y2="521.93" stroke="#D32F2F" stroke-width="6.12" stroke-linecap="round"/>
<line x1="98.91" y1="500.32" x2="115.96" y2="521.93" stroke="#D32F2F" stroke-width="7.87" stroke-linecap="round"/>
<line x1="135.50" y1="541.30" x2="112.65" y2="522.02" stroke="#D32F2F" stroke-width="6.26" stroke-linecap="round"/>
<line x1="94.65" y1="500.91" x2="112.65" y2="522.02" stroke="#D32F2F" stroke-width="7.68" stroke-linecap="round"/>
</svg>