<svg width="630.0" height="630.0" viewBox="0 0 630.0 630.0" xmlns="http://www.w3.org/2000/svg">
<circle cx="315.0" cy="315.0" r="290.0" fill="#FDFDF5" stroke="#ccc" stroke-width="0.5"/>
<line x1="507.86" y1="531.30" x2="529.95" y2="509.38" stroke="#D32F2F" stroke-width="4.10" stroke-linecap="round"/>
<line x1="513.39" y1="523.94" x2="534.81" y2="501.37" stroke="#D32F2F" stroke-width="4.24" stroke-linecap="round"/>
<line x1="549.65" y1="485.09" x2="534.81" y2="501.37" stroke="#D32F2F" stroke-width="8.00" stroke-linecap="round"/>
<line x1="517.79" y1="514.84" x2="538.55" y2="491.70" stroke="#D32F2F" stroke-width="4.58" stroke-linecap="round"/>
<line x1="553.81" y1="476.50" x2="538.55" y2="491.70" stroke="#D32F2F" stroke-width="8.00" stroke-linecap="round"/>
<line x1="521.23" y1="503.67" x2="541.38" y2="480.14" stroke="#D32F2F" stroke-width="5.12" stroke-linecap="round"/>
<line x1="556.95" y1="466.33" x2="541.38" y2="480.14" stroke="#D32F2F" stroke-width="8.00" stroke-linecap="round"/>
<line x1="523.83" y1="490.10" x2="543.46" y2="466.42" stroke="#D32F2F" stroke-width="5.81" stroke-linecap="round"/>
<line x1="559.24" y1="454.37" x2="543.46" y2="466.42" stroke="#D32F2F" stroke-width="8.00" stroke-linecap="round"/>
<line x1="525.72" y1="473.78" x2="544.91" y2="450.29" stroke="#D32F2F" stroke-width="6.60" stroke-linecap="round"/>
<line x1="560.86" y1="440.40" x2="544.91" y2="450.29" stroke="#D32F2F" stroke-width="8.00" stroke-linecap="round"/>
<line x1="527.00" y1="454.43" x2="545.83" y2="431.51" stroke="#D32F2F" stroke-width="7.43" stroke-linecap="round"/>
<line x1="561.93" y1="424.21" x2="545.83" y2="431.51" stroke="#D32F2F" stroke-width="8.00" stroke-linecap="round"/>
<line x1="527.73" y1="431.82" x2="546.28" y2="409.93" stroke="#D32F2F" stroke-width="8.00" stroke-linecap="round"/>
<line x1="562.53" y1="405.62" x2="546.28" y2="409.93" stroke="#D32F2F" stroke-width="8.00" stroke-linecap="round"/>
<line x1="527.93" y1="405.89" x2="546.27" y2="385.48" stroke="#D32F2F" stroke-width="8.00" stroke-linecap="round"/>
<line x1="562.70" y1="384.50" x2="546.27" y2="385.48" stroke="#D32F2F" stroke-width="8.00" stroke-linecap="round"/>
<line x1="527.61" y1="376.74" x2="545.78" y2="358.28" stroke="#D32F2F" stroke-width="8.00" stroke-linecap="round"/>
<line x1="562.44" y1="360.85" x2="545.78" y2="358.28" stroke="#D32F2F" stroke-width="8.00" stroke-linecap="round"/>
<line x1="526.71" y1="344.75" x2="544.76" y2="328.68" stroke="#D32F2F" stroke-width="8.00" stroke-linecap="round"/>
<line x1="561.71" y1="334.89" x2="544.76" y2="328.68" stroke="#D32F2F" stroke-width="8.00" stroke-linecap="round"/>
<line x1="525.16" y1="310.59" x2="543.14" y2="297.31" stroke="#D32F2F" stroke-width="8.00" stroke-linecap="round"/>
<line x1="560.45" y1="307.09" x2="543.14" y2="297.31" stroke="#D32F2F" stroke-width="8.00" stroke-linecap="round"/>
<line x1="522.91" y1="275.27" x2="540.86" y2="265.12" stroke="#D32F2F" stroke-width="8.00" stroke-linecap="round"/>
<line x1="558.61" y1="278.23" x2="540.86" y2="265.12" stroke="#D32F2F" stroke-width="8.00" stroke-linecap="round"/>
<line x1="519.95" y1="240.02" x2="537.94" y2="233.29" stroke="#D32F2F" stroke-width="8.00" stroke-linecap="round"/>
<line x1="556.18" y1="249.34" x2="537.94" y2="233.29" stroke="#D32F2F" stroke-width="8.00" stroke-linecap="round"/>
<line x1="516.33" y1="206.21" x2="534.45" y2="203.09" stroke="#D32F2F" stroke-width="8.00" stroke-linecap="round"/>
<line x1="553.21" y1="221.60" x2="534.45" y2="203.09" stroke="#D32F2F" stroke-width="8.00" stroke-linecap="round"/>
<line x1="512.20" y1="175.16" x2="530.54" y2="175.72" stroke="#D32F2F" stroke-width="8.00" stroke-linecap="round"/>
<line x1="549.83" y1="196.15" x2="530.54" y2="175.72" stroke="#D32F2F" stroke-width="7.88" stroke-linecap="round"/>
<line x1="507.76" y1="147.92" x2="526.40" y2="152.10" stroke="#D32F2F" stroke-width="8.00" stroke-linecap="round"/>
<line x1="546.20" y1="173.89" x2="526.40" y2="152.10" stroke="#D32F2F" stroke-width="6.98" stroke-linecap="round"/>
<line x1="503.22" y1="125.22" x2="522.24" y2="132.81" stroke="#D32F2F" stroke-width="8.00" stroke-linecap="round"/>
<line x1="542.51" y1="155.41" x2="522.24" y2="132.81" stroke="#D32F2F" stroke-width="5.99" stroke-linecap="round"/>
<line x1="498.79" y1="107.37" x2="518.23" y2="118.04" stroke="#D32F2F" stroke-width="8.00" stroke-linecap="round"/>
<line x1="538.91" y1="140.93" x2="518.23" y2="118.04" stroke="#D32F2F" stroke-width="4.96" stroke-linecap="round"/>
<line x1="494.61" y1="94.36" x2="514.47" y2="107.70" stroke="#D32F2F" stroke-width="8.00" stroke-linecap="round"/>
<line x1="535.52" y1="130.38" x2="514.47" y2="107.70" stroke="#D32F2F" stroke-width="4.18" stroke-linecap="round"/>
<line x1="490.72" y1="85.92" x2="510.98" y2="101.47" stroke="#D32F2F" stroke-width="8.00" stroke-linecap="round"/>
<line x1="532.35" y1="123.50" x2="510.98" y2="101.47" stroke="#D32F2F" stroke-width="4.98" stroke-linecap="round"/>
<line x1="88.35" y1="134.94" x2="107.89" y2="112.22" stroke="#D32F2F" stroke-width="6.17" stroke-linecap="round"/>
<line x1="130.12" y1="91.58" x2="119.00" y2="103.10" stroke="#D32F2F" stroke-width="8.00" stroke-linecap="round"/>
<line x1="98.69" y1="125.25" x2="119.00" y2="103.10" stroke="#D32F2F" stroke-width="6.16" stroke-linecap="round"/>
<line x1="142.09" y1="83.11" x2="131.17" y2="95.69" stroke="#D32F2F" stroke-width="8.00" stroke-linecap="round"/>
<line x1="110.00" y1="117.24" x2="131.17" y2="95.69" stroke="#D32F2F" stroke-width="6.11" stroke-linecap="round"/>
<line x1="155.33" y1="76.40" x2="144.20" y2="90.26" stroke="#D32F2F" stroke-width="8.00" stroke-linecap="round"/>
<line x1="122.06" y1="111.12" x2="144.20" y2="90.26" stroke="#D32F2F" stroke-width="6.01" stroke-linecap="round"/>
<line x1="169.63" y1="71.85" x2="157.88" y2="87.08" stroke="#D32F2F" stroke-width="8.00" stroke-linecap="round"/>
<line x1="134.66" y1="107.11" x2="157.88" y2="87.08" stroke="#D32F2F" stroke-width="5.87" stroke-linecap="round"/>
<line x1="184.77" y1="69.90" x2="172.01" y2="86.51" stroke="#D32F2F" stroke-width="8.00" stroke-linecap="round"/>
<line x1="147.63" y1="105.43" x2="172.01" y2="86.51" stroke="#D32F2F" stroke-width="5.72" stroke-linecap="round"/>
<line x1="200.47" y1="71.05" x2="186.35" y2="88.91" stroke="#D32F2F" stroke-width="8.00" stroke-linecap="round"/>
<line x1="160.76" y1="106.39" x2="186.35" y2="88.91" stroke="#D32F2F" stroke-width="5.57" stroke-linecap="round"/>
<line x1="216.37" y1="75.82" x2="200.63" y2="94.70" stroke="#D32F2F" stroke-width="8.00" stroke-linecap="round"/>
<line x1="173.84" y1="110.31" x2="200.63" y2="94.70" stroke="#D32F2F" stroke-width="5.47" stroke-linecap="round"/>
<line x1="232.06" y1="84.70" x2="214.52" y2="104.26" stroke="#D32F2F" stroke-width="8.00" stroke-linecap="round"/>
<line x1="186.62" y1="117.54" x2="214.52" y2="104.26" stroke="#D32F2F" stroke-width="5.61" stroke-linecap="round"/>
<line x1="247.07" y1="98.11" x2="227.61" y2="117.94" stroke="#D32F2F" stroke-width="8.00" stroke-linecap="round"/>
<line x1="198.79" y1="128.42" x2="227.61" y2="117.94" stroke="#D32F2F" stroke-width="6.43" stroke-linecap="round"/>
<line x1="260.84" y1="116.31" x2="239.46" y2="135.94" stroke="#D32F2F" stroke-width="7.99" stroke-linecap="round"/>
<line x1="209.96" y1="143.18" x2="239.46" y2="135.94" stroke="#D32F2F" stroke-width="7.24" stroke-linecap="round"/>
<line x1="272.81" y1="139.28" x2="249.56" y2="158.22" stroke="#D32F2F" stroke-width="8.00" stroke-linecap="round"/>
<line x1="219.71" y1="161.88" x2="249.56" y2="158.22" stroke="#D32F2F" stroke-width="8.00" stroke-linecap="round"/>
<line x1="282.43" y1="166.71" x2="257.42" y2="184.42" stroke="#D32F2F" stroke-width="8.00" stroke-linecap="round"/>
<line x1="227.57" y1="184.29" x2="257.42" y2="184.42" stroke="#D32F2F" stroke-width="8.00" stroke-linecap="round"/>
<line x1="289.21" y1="197.86" x2="262.62" y2="213.81" stroke="#D32F2F" stroke-width="8.00" stroke-linecap="round"/>
<line x1="233.13" y1="209.83" x2="262.62" y2="213.81" stroke="#D32F2F" stroke-width="8.00" stroke-linecap="round"/>
<line x1="292.83" y1="231.66" x2="264.88" y2="245.32" stroke="#D32F2F" stroke-width="8.00" stroke-linecap="round"/>
<line x1="236.09" y1="237.56" x2="264.88" y2="245.32" stroke="#D32F2F" stroke-width="8.00" stroke-linecap="round"/>
<line x1="293.14" y1="266.81" x2="264.10" y2="277.72" stroke="#D32F2F" stroke-width="8.00" stroke-linecap="round"/>
<line x1="236.35" y1="266.37" x2="264.10" y2="277.72" stroke="#D32F2F" stroke-width="8.00" stroke-linecap="round"/>
<line x1="290.21" y1="301.95" x2="260.41" y2="309.74" stroke="#D32F2F" stroke-width="8.00" stroke-linecap="round"/>
<line x1="233.96" y1="295.08" x2="260.41" y2="309.74" stroke="#D32F2F" stroke-width="8.00" stroke-linecap="round"/>
<line x1="284.32" y1="335.83" x2="254.08" y2="340.28" stroke="#D32F2F" stroke-width="8.00" stroke-linecap="round"/>
<line x1="229.17" y1="322.66" x2="254.08" y2="340.28" stroke="#D32F2F" stroke-width="8.00" stroke-linecap="round"/>
<line x1="275.88" y1="367.48" x2="245.54" y2="368.51" stroke="#D32F2F" stroke-width="8.00" stroke-linecap="round"/>
<line x1="222.32" y1="348.34" x2="245.54" y2="368.51" stroke="#D32F2F" stroke-width="8.00" stroke-linecap="round"/>
<line x1="265.39" y1="396.23" x2="235.23" y2="393.94" stroke="#D32F2F" stroke-width="8.00" stroke-linecap="round"/>
<line x1="213.81" y1="371.66" x2="235.23" y2="393.94" stroke="#D32F2F" stroke-width="8.00" stroke-linecap="round"/>
<line x1="253.38" y1="421.73" x2="223.64" y2="416.35" stroke="#D32F2F" stroke-width="8.00" stroke-linecap="round"/>
<line x1="204.02" y1="392.43" x2="223.64" y2="416.35" stroke="#D32F2F" stroke-width="8.00" stroke-linecap="round"/>
<line x1="240.36" y1="443.88" x2="211.21" y2="435.73" stroke="#D32F2F" stroke-width="8.00" stroke-linecap="round"/>
<line x1="193.31" y1="410.65" x2="211.21" y2="435.73" stroke="#D32F2F" stroke-width="7.87" stroke-linecap="round"/>
<line x1="226.81" y1="462.78" x2="198.34" y2="452.26" stroke="#D32F2F" stroke-width="7.92" stroke-linecap="round"/>
<line x1="181.97" y1="426.46" x2="198.34" y2="452.26" stroke="#D32F2F" stroke-width="7.74" stroke-linecap="round"/>
<line x1="213.16" y1="478.67" x2="185.40" y2="466.16" stroke="#D32F2F" stroke-width="7.47" stroke-linecap="round"/>
<line x1="170.28" y1="440.06" x2="185.40" y2="466.16" stroke="#D32F2F" stroke-width="7.71" stroke-linecap="round"/>
<line x1="199.78" y1="491.85" x2="172.69" y2="477.75" stroke="#D32F2F" stroke-width="7.08" stroke-linecap="round"/>
<line x1="158.49" y1="451.67" x2="172.69" y2="477.75" stroke="#D32F2F" stroke-width="7.77" stroke-linecap="round"/>
<line x1="186.98" y1="502.67" x2="160.52" y2="487.34" stroke="#D32F2F" stroke-width="6.78" stroke-linecap="round"/>
<line x1="146.83" y1="461.53" x2="160.52" y2="487.34" stroke="#D32F2F" stroke-width="7.86" stroke-linecap="round"/>
<line x1="175.04" y1="511.49" x2="149.15" y2="495.22" stroke="#D32F2F" stroke-width="6.58" stroke-linecap="round"/>
<line x1="135.56" y1="469.86" x2="149.15" y2="495.22" stroke="#D32F2F" stroke-width="7.94" stroke-linecap="round"/>
<line x1="164.21" y1="518.66" x2="138.83" y2="501.70" stroke="#D32F2F" stroke-width="6.47" stroke-linecap="round"/>
<line x1="124.93" y1="476.88" x2="138.83" y2="501.70" stroke="#D32F2F" stroke-width="7.97" stroke-linecap="round"/>
<line x1="154.70" y1="524.47" x2="129.83" y2="507.06" stroke="#D32F2F" stroke-width="6.46" stroke-linecap="round"/>
<line x1="115.24" y1="482.80" x2="129.83" y2="507.06" stroke="#D32F2F" stroke-width="7.93" stroke-linecap="round"/>
<line x1="146.75" y1="529.24" x2="122.41" y2="511.54" stroke="#D32F2F" stroke-width="6.56" stroke-linecap="round"/>
<line x1="106.83" y1="487.85" x2="122.41" y2="511.54" stroke="#D32F2F" stroke-width="7.76" stroke-linecap="round"/>
<line x1="140.58" y1="533.21" x2="116.88" y2="515.38" stroke="#D32F2F" stroke-width="6.76" stroke-linecap="round"/>
<line x1="100.06" y1="492.20" x2="116.88" y2="515.38" stroke="#D32F2F" stroke-width="7.46" stroke-linecap="round"/>
<line x1="136.44" y1="536.62" x2="113.55" y2="518.78" stroke="#D32F2F" stroke-width="7.07" stroke-linecap="round"/>
<line x1="95.37" y1="496.07" x2="113.55" y2="518.78" stroke="#D32F2F" stroke-width="7.02" stroke-linecap="round"/>
<line x1="134.60" y1="539.65" x2="112.78" y2="521.92" stroke="#D32F2F" stroke-width="7.48" stroke-linecap="round"/>
<line x1="93.23" y1="499.61" x2="112.78" y2="521.92" stroke="#D32F2F" stroke-width="6.44" stroke-linecap="round"/>
<line x1="507.86" y1="531.30" x2="529.95" y2="509.38" stroke="#D32F2F" stroke-width="4.10" stroke-linecap="round"/>
<line x1="513.39" y1="523.94" x2="534.81" y2="501.37" stroke="#D32F2F" stroke-width="4.24" stroke-linecap="round"/>
<line x1="549.65" y1="485.09" x2="534.81" y2="501.37" stroke="#D32F2F" stroke-width="8.00" stroke-linecap="round"/>
<line x1="517.79" y1="514.84" x2="538.55" y2="491.70" stroke="#D32F2F" stroke-width="4.58" stroke-linecap="round"/>
<line x1="553.81" y1="476.50" x2="538.55" y2="491.70" stroke="#D32F2F" stroke-width="8.00" stroke-linecap="round"/>
<line x1="521.23" y1="503.67" x2="541.38" y2="480.14" stroke="#D32F2F" stroke-width="5.12" stroke-linecap="round"/>
<line x1="556.95" y1="466.33" x2="541.38" y2="480.14" stroke="#D32F2F" stroke-width="8.00" stroke-linecap="round"/>
<line x1="523.83" y1="490.10" x2="543.46" y2="466.42" stroke="#D32F2F" stroke-width="5.81" stroke-linecap="round"/>
<line x1="559.24" y1="454.37" x2="543.46" y2="466.42" stroke="#D32F2F" stroke-width="8.00" stroke-linecap="round"/>
<line x1="525.72" y1="473.78" x2="544.91" y2="450.29" stroke="#D32F2F" stroke-width="6.60" stroke-linecap="round"/>
<line x1="560.86" y1="440.40" x2="544.91" y2="450.29" stroke="#D32F2F" stroke-width="8.00" stroke-linecap="round"/>
<line x1="527.00" y1="454.43" x2="545.83" y2="431.51" stroke="#D32F2F" stroke-width="7.43" stroke-linecap="round"/>
<line x1="561.93" y1="424.21" x2="545.83" y2="431.51" stroke="#D32F2F" stroke-width="8.00" stroke-linecap="round"/>
<line x1="527.73" y1="431.82" x2="546.28" y2="409.93" stroke="#D32F2F" stroke-width="8.00" stroke-linecap="round"/>
<line x1="562.53" y1="405.62" x2="546.28" y2="409.93" stroke="#D32F2F" stroke-width="8.00" stroke-linecap="round"/>
<line x1="527.93" y1="405.89" x2="546.27" y2="385.48" stroke="#D32F2F" stroke-width="8.00" stroke-linecap="round"/>
<line x1="562.70" y1="384.50" x2="546.27" y2="385.48" stroke="#D32F2F" stroke-width="8.00" stroke-linecap="round"/>
<line x1="527.61" y1="376.74" x2="545.78" y2="358.28" stroke="#D32F2F" stroke-width="8.00" stroke-linecap="round"/>
<line x1="562.44" y1="360.85" x2="545.78" y2="358.28" stroke="#D32F2F" stroke-width="8.00" stroke-linecap="round"/>
<line x1="526.71" y1="344.75" x2="544.76" y2="328.68" stroke="#D32F2F" stroke-width="8.00" stroke-linecap="round"/>
<line x1="561.71" y1="334.89" x2="544.76" y2="328.68" stroke="#D32F2F" stroke-width="8.00" stroke-linecap="round"/>
<line x1="525.16" y1="310.59" x2="543.14" y2="297.31" stroke="#D32F2F" stroke-width="8.00" stroke-linecap="round"/>
<line x1="560.45" y1="307.09" x2="543.14" y2="297.31" stroke="#D32F2F" stroke-width="8.00" stroke-linecap="round"/>
<line x1="522.91" y1="275.27" x2="540.86" y2="265.12" stroke="#D32F2F" stroke-width="8.00" stroke-linecap="round"/>
<line x1="558.61" y1="278.23" x2="540.86" y2="265.12" stroke="#D32F2F" stroke-width="8.00" stroke-linecap="round"/>
<line x1="519.95" y1="240.02" x2="537.94" y2="233.29" stroke="#D32F2F" stroke-width="8.00" stroke-linecap="round"/>
<line x1="556.18" y1="249.34" x2="537.94" y2="233.29" stroke="#D32F2F" stroke-width="8.00" stroke-linecap="round"/>
<line x1="516.33" y1="206.21" x2="534.45" y2="203.09" stroke="#D32F2F" stroke-width="8.00" stroke-linecap="round"/>
<line x1="553.21" y1="221.60" x2="534.45" y2="203.09" stroke="#D32F2F" stroke-width="8.00" stroke-linecap="round"/>
<line x1="512.20" y1="175.16" x2="530.54" y2="175.72" stroke="#D32F2F" stroke-width="8.00" stroke-linecap="round"/>
<line x1="549.83" y1="196.15" x2="530.54" y2="175.72" stroke="#D32F2F" stroke-width="7.88" stroke-linecap="round"/>
<line x1="507.76" y1="147.92" x2="526.40" y2="152.10" stroke="#D32F2F" stroke-width="8.00" stroke-linecap="round"/>
<line x1="546.20" y1="173.89" x2="526.40" y2="152.10" stroke="#D32F2F" stroke-width="6.98" stroke-linecap="round"/>
<line x1="503.22" y1="125.22" x2="522.24" y2="132.81" stroke="#D32F2F" stroke-width="8.00" stroke-linecap="round"/>
<line x1="542.51" y1="155.41" x2="522.24" y2="132.81" stroke="#D32F2F" stroke-width="5.99" stroke-linecap="round"/>
<line x1="498.79" y1="107.37" x2="518.23" y2="118.04" stroke="#D32F2F" stroke-width="8.00" stroke-linecap="round"/>
<line x1="538.91" y1="140.93" x2="518.23" y2="118.04" stroke="#D32F2F" stroke-width="4.96" stroke-linecap="round"/>
<line x1="494.61" y1="94.36" x2="514.47" y2="107.70" stroke="#D32F2F" stroke-width="8.00" stroke-linecap="round"/>
<line x1="535.52" y1="130.38" x2="514.47" y2="107.70" stroke="#D32F2F" stroke-width="4.18" stroke-linecap="round"/>
<line x1="490.72" y1="85.92" x2="510.98" y2="101.47" stroke="#D32F2F" stroke-width="8.00" stroke-linecap="round"/>
<line x1="532.35" y1="123.50" x2="510.98" y2="101.47" stroke="#D32F2F" stroke-width="4.98" stroke-linecap="round"/>
<line x1="88.35" y1="134.94" x2="107.89" y2="112.22" stroke="#D32F2F" stroke-width="6.17" stroke-linecap="round"/>
<line x1="130.12" y1="91.58" x2="119.00" y2="103.10" stroke="#D32F2F" stroke-width="8.00" stroke-linecap="round"/>
<line x1="98.69" y1="125.25" x2="119.00" y2="103.10" stroke="#D32F2F" stroke-width="6.16" stroke-linecap="round"/>
<line x1="142.09" y1="83.11" x2="131.17" y2="95.69" stroke="#D32F2F" stroke-width="8.00" stroke-linecap="round"/>
<line x1="110.00" y1="117.24" x2="131.17" y2="95.69" stroke="#D32F2F" stroke-width="6.11" stroke-linecap="round"/>
<line x1="155.33" y1="76.40" x2="144.20" y2="90.26" stroke="#D32F2F" stroke-width="8.00" stroke-linecap="round"/>
<line x1="122.06" y1="111.12" x2="144.20" y2="90.26" stroke="#D32F2F" stroke-width="6.01" stroke-linecap="round"/>
<line x1="169.63" y1="71.85" x2="157.88" y2="87.08" stroke="#D32F2F" stroke-width="8.00" stroke-linecap="round"/>
<line x1="134.66" y1="107.11" x2="157.88" y2="87.08" stroke="#D32F2F" stroke-width="5.87" stroke-linecap="round"/>
<line x1="184.77" y1="69.90" x2="172.01" y2="86.51" stroke="#D32F2F" stroke-width="8.00" stroke-linecap="round"/>
<line x1="147.63" y1="105.43" x2="172.01" y2="86.51" stroke="#D32F2F" stroke-width="5.72" stroke-linecap="round"/>
<line x1="200.47" y1="71.05" x2="186.35" y2="88.91" stroke="#D32F2F" stroke-width="8.00" stroke-linecap="round"/>
<line x1="160.76" y1="106.39" x2="186.35" y2="88.91" stroke="#D32F2F" stroke-width="5.57" stroke-linecap="round"/>
<line x1="216.37" y1="75.82" x2="200.63" y2="94.70" stroke="#D32F2F" stroke-width="8.00" stroke-linecap="round"/>
<line x1="173.84" y1="110.31" x2="200.63" y2="94.70" stroke="#D32F2F" stroke-width="5.47" stroke-linecap="round"/>
<line x1="232.06" y1="84.70" x2="214.52" y2="104.26" stroke="#D32F2F" stroke-width="8.00" stroke-linecap="round"/>
<line x1="186.62" y1="117.54" x2="214.52" y2="104.26" stroke="#D32F2F" stroke-width="5.61" stroke-linecap="round"/>
<line x1="247.07" y1="98.11" x2="227.61" y2="117.94" stroke="#D32F2F" stroke-width="8.00" stroke-linecap="round"/>
<line x1="198.79" y1="128.42" x2="227.61" y2="117.94" stroke="#D32F2F" stroke-width="6.43" stroke-linecap="round"/>
<line x1="260.84" y1="116.31" x2="239.46" y2="135.94" stroke="#D32F2F" stroke-width="7.99" stroke-linecap="round"/>
<line x1="209.96" y1="143.18" x2="239.46" y2="135.94" stroke="#D32F2F" stroke-width="7.24" stroke-linecap="round"/>
<line x1="272.81" y1="139.28" x2="249.56" y2="158.22" stroke="#D32F2F" stroke-width="8.00" stroke-linecap="round"/>
<line x1="219.71" y1="161.88" x2="249.56" y2="158.22" stroke="#D32F2F" stroke-width="8.00" stroke-linecap="round"/>
<line x1="282.43" y1="166.71" x2="257.42" y2="184.42" stroke="#D32F2F" stroke-width="8.00" stroke-linecap="round"/>
<line x1="227.57" y1="184.29" x2="257.42" y2="184.42" stroke="#D32F2F" stroke-width="8.00" stroke-linecap="round"/>
<line x1="289.21" y1="197.86" x2="262.62" y2="213.81" stroke="#D32F2F" stroke-width="8.00" stroke-linecap="round"/>
<line x1="233.13" y1="209.83" x2="262.62" y2="213.81" stroke="#D32F2F" stroke-width="8.00" stroke-linecap="round"/>
<line x1="292.83" y1="231.66" x2="264.88" y2="245.32" stroke="#D32F2F" stroke-width="8.00" stroke-linecap="round"/>
<line x1="236.09" y1="237.56" x2="264.88" y2="245.32" stroke="#D32F2F" stroke-width="8.00" stroke-linecap="round"/>
<line x1="293.14" y1="266.81" x2="264.10" y2="277.72" stroke="#D32F2F" stroke-width="8.00" stroke-linecap="round"/>
<line x1="236.35" y1="266.37" x2="264.10" y2="277.72" stroke="#D32F2F" stroke-width="8.00" stroke-linecap="round"/>
<line x1="290.21" y1="301.95" x2="260.41" y2="309.74" stroke="#D32F2F" stroke-width="8.00" stroke-linecap="round"/>
<line x1="233.96" y1="295.08" x2="260.41" y2="309.74" stroke="#D32F2F" stroke-width="8.00" stroke-linecap="round"/>
<line x1="284.32" y1="335.83" x2="254.08" y2="340.28" stroke="#D32F2F" stroke-width="8.00" stroke-linecap="round"/>
<line x1="229.17" y1="322.66" x2="254.08" y2="340.28" stroke="#D32F2F" stroke-width="8.00" stroke-linecap="round"/>
<line x1="275.88" y1="367.48" x2="245.54" y2="368.51" stroke="#D32F2F" stroke-width="8.00" stroke-linecap="round"/>
<line x1="222.32" y1="348.34" x2="245.54" y2="368.51" stroke="#D32F2F" stroke-width="8.00" stroke-linecap="round"/>
<line x1="265.39" y1="396.23" x2="235.23" y2="393.94" stroke="#D32F2F" stroke-width="8.00" stroke-linecap="round"/>
<line x1="213.81" y1="371.66" x2="235.23" y2="393.94" stroke="#D32F2F" stroke-width="8.00" stroke-linecap="round"/>
<line x1="253.38" y1="421.73" x2="223.64" y2="416.35" stroke="#D32F2F" stroke-width="8.00" stroke-linecap="round"/>
<line x1="204.02" y1="392.43" x2="223.64" y2="416.35" stroke="#D32F2F" stroke-width="8.00" stroke-linecap="round"/>
<line x1="240.36" y1="443.88" x2="211.21" y2="435.73" stroke="#D32F2F" stroke-width="8.00" stroke-linecap="round"/>
<line x1="193.31" y1="410.65" x2="211.21" y2="435.73" stroke="#D32F2F" stroke-width="7.87" stroke-linecap="round"/>
<line x1="226.81" y1="462.78" x2="198.34" y2="452.26" stroke="#D32F2F" stroke-width="7.92" stroke-linecap="round"/>
<line x1="181.97" y1="426.46" x2="198.34" y2="452.26" stroke="#D32F2F" stroke-width="7.74" stroke-linecap="round"/>
<line x1="213.16" y1="478.67" x2="185.40" y2="466.16" stroke="#D32F2F" stroke-width="7.47" stroke-linecap="round"/>
<line x1="170.28" y1="440.06" x2="185.40" y2="466.16" stroke="#D32F2F" stroke-width="7.71" stroke-linecap="round"/>
<line x1="199.78" y1="491.85" x2="172.69" y2="477.75" stroke="#D32F2F" stroke-width="7.08" stroke-linecap="round"/>
<line x1="158.49" y1="451.67" x2="172.69" y2="477.75" stroke="#D32F2F" stroke-width="7.77" stroke-linecap="round"/>
<line x1="186.98" y1="502.67" x2="160.52" y2="487.34" stroke="#D32F2F" stroke-width="6.78" stroke-linecap="round"/>
<line x1="146.83" y1="461.53" x2="160.52" y2="487.34" stroke="#D32F2F" stroke-width="7.86" stroke-linecap="round"/>
<line x1="175.04" y1="511.49" x2="149.15" y2="495.22" stroke="#D32F2F" stroke-width="6.58" stroke-linecap="round"/>
<line x1="135.56" y1="469.86" x2="149.15" y2="495.22" stroke="#D32F2F" stroke-width="7.94" stroke-linecap="round"/>
<line x1="164.21" y1="518.66" x2="138.83" y2="501.70" stroke="#D32F2F" stroke-width="6.47" stroke-linecap="round"/>
<line x1="124.93" y1="476.88" x2="138.83" y2="501.70" stroke="#D32F2F" stroke-width="7.97" stroke-linecap="round"/>
<line x1="154.70" y1="524.47" x2="129.83" y2="507.06" stroke="#D32F2F" stroke-width="6.46" stroke-linecap="round"/>
<line x1="115.24" y1="482.80" x2="129.83" y2="507.06" stroke="#D32F2F" stroke-width="7.93" stroke-linecap="round"/>
<line x1="146.75" y1="529.24" x2="122.41" y2="511.54" stroke="#D32F2F" stroke-width="6.56" stroke-linecap="round"/>
<line x1="106.83" y1="487.85" x2="122.41" y2="511.54" stroke="#D32F2F" stroke-width="7.76" stroke-linecap="round"/>
<line x1="140.58" y1="533.21" x2="116.88" y2="515.38" stroke="#D32F2F" stroke-width="6.76" stroke-linecap="round"/>
<line x1="100.06" y1="492.20" x2="116.88" y2="515.38" stroke="#D32F2F" stroke-width="7.46" stroke-linecap="round"/>
<line x1="136.44" y1="536.62" x2="113.55" y2="518.78" stroke="#D32F2F" stroke-width="7.07" stroke-linecap="round"/>
<line x1="95.37" y1="496.07" x2="113.55" y2="518.78" stroke="#D32F2F" stroke-width="7.02" stroke-linecap="round"/>
<line x1="134.60" y1="539.65" x2="112.78" y2="521.92" stroke="#D32F2F" stroke-width="7.48" stroke-linecap="round"/>
<line x1="93.23" y1="499.61" x2="112.78" y2="521.92" stroke="#D32F2F" stroke-width="6.44" stroke-linecap="round"/>
</svg>