<svg width="630.0" height="630.0" viewBox="0 0 630.0 630.0" xmlns="http://www.w3.org/2000/svg">
<circle cx="315.0" cy="315.0" r="290.0" fill="#FDFDF5" stroke="#ccc" stroke-width="0.5"/>
<line x1="462.41" y1="564.56" x2="488.07" y2="547.65" stroke="#D32F2F" stroke-width="5.27" stroke-linecap="round"/>
<line x1="478.01" y1="551.59" x2="502.41" y2="534.11" stroke="#D32F2F" stroke-width="6.21" stroke-linecap="round"/>
<line x1="515.21" y1="524.75" x2="502.41" y2="534.11" stroke="#D32F2F" stroke-width="8.00" stroke-linecap="round"/>
<line x1="493.75" y1="533.42" x2="516.72" y2="515.95" stroke="#D32F2F" stroke-width="7.14" stroke-linecap="round"/>
<line x1="528.13" y1="509.84" x2="516.72" y2="515.95" stroke="#D32F2F" stroke-width="8.00" stroke-linecap="round"/>
<line x1="509.01" y1="510.74" x2="530.46" y2="493.90" stroke="#D32F2F" stroke-width="8.00" stroke-linecap="round"/>
<line x1="540.63" y1="491.26" x2="530.46" y2="493.90" stroke="#D32F2F" stroke-width="8.00" stroke-linecap="round"/>
<line x1="523.27" y1="484.57" x2="543.15" y2="468.94" stroke="#D32F2F" stroke-width="8.00" stroke-linecap="round"/>
<line x1="552.29" y1="469.87" x2="543.15" y2="468.94" stroke="#D32F2F" stroke-width="8.00" stroke-linecap="round"/>
<line x1="536.13" y1="456.05" x2="554.46" y2="442.16" stroke="#D32F2F" stroke-width="8.00" stroke-linecap="round"/>
<line x1="562.75" y1="446.66" x2="554.46" y2="442.16" stroke="#D32F2F" stroke-width="8.00" stroke-linecap="round"/>
<line x1="547.34" y1="426.32" x2="564.19" y2="414.56" stroke="#D32F2F" stroke-width="8.00" stroke-linecap="round"/>
<line x1="571.85" y1="422.53" x2="564.19" y2="414.56" stroke="#D32F2F" stroke-width="8.00" stroke-linecap="round"/>
<line x1="556.79" y1="396.34" x2="572.27" y2="386.98" stroke="#D32F2F" stroke-width="8.00" stroke-linecap="round"/>
<line x1="579.51" y1="398.22" x2="572.27" y2="386.98" stroke="#D32F2F" stroke-width="8.00" stroke-linecap="round"/>
<line x1="564.43" y1="366.91" x2="578.70" y2="360.02" stroke="#D32F2F" stroke-width="8.00" stroke-linecap="round"/>
<line x1="585.73" y1="374.25" x2="578.70" y2="360.02" stroke="#D32F2F" stroke-width="8.00" stroke-linecap="round"/>
<line x1="570.29" y1="338.55" x2="583.50" y2="334.07" stroke="#D32F2F" stroke-width="8.00" stroke-linecap="round"/>
<line x1="590.56" y1="350.92" x2="583.50" y2="334.07" stroke="#D32F2F" stroke-width="8.00" stroke-linecap="round"/>
<line x1="574.42" y1="311.61" x2="586.70" y2="309.33" stroke="#D32F2F" stroke-width="8.00" stroke-linecap="round"/>
<line x1="594.01" y1="328.38" x2="586.70" y2="309.33" stroke="#D32F2F" stroke-width="8.00" stroke-linecap="round"/>
<line x1="576.87" y1="286.24" x2="588.33" y2="285.86" stroke="#D32F2F" stroke-width="8.00" stroke-linecap="round"/>
<line x1="596.10" y1="306.65" x2="588.33" y2="285.86" stroke="#D32F2F" stroke-width="8.00" stroke-linecap="round"/>
<line x1="577.67" y1="262.45" x2="588.38" y2="263.62" stroke="#D32F2F" stroke-width="8.00" stroke-linecap="round"/>
<line x1="596.81" y1="285.69" x2="588.38" y2="263.62" stroke="#D32F2F" stroke-width="8.00" stroke-linecap="round"/>
<line x1="576.86" y1="240.17" x2="586.84" y2="242.51" stroke="#D32F2F" stroke-width="8.00" stroke-linecap="round"/>
<line x1="596.06" y1="265.40" x2="586.84" y2="242.51" stroke="#D32F2F" stroke-width="8.00" stroke-linecap="round"/>
<line x1="574.42" y1="219.28" x2="583.66" y2="222.40" stroke="#D32F2F" stroke-width="8.00" stroke-linecap="round"/>
<line x1="593.76" y1="245.66" x2="583.66" y2="222.40" stroke="#D32F2F" stroke-width="8.00" stroke-linecap="round"/>
<line x1="570.36" y1="199.60" x2="578.76" y2="203.13" stroke="#D32F2F" stroke-width="8.00" stroke-linecap="round"/>
<line x1="589.76" y1="226.36" x2="578.76" y2="203.13" stroke="#D32F2F" stroke-width="8.00" stroke-linecap="round"/>
<line x1="564.62" y1="180.97" x2="572.05" y2="184.56" stroke="#D32F2F" stroke-width="8.00" stroke-linecap="round"/>
<line x1="583.91" y1="207.37" x2="572.05" y2="184.56" stroke="#D32F2F" stroke-width="8.00" stroke-linecap="round"/>
<line x1="557.15" y1="163.22" x2="563.40" y2="166.55" stroke="#D32F2F" stroke-width="8.00" stroke-linecap="round"/>
<line x1="575.99" y1="188.58" x2="563.40" y2="166.55" stroke="#D32F2F" stroke-width="8.00" stroke-linecap="round"/>
<line x1="547.87" y1="146.21" x2="552.68" y2="148.98" stroke="#D32F2F" stroke-width="8.00" stroke-linecap="round"/>
<line x1="317.83" y1="27.10" x2="292.29" y2="26.39" stroke="#D32F2F" stroke-width="8.00" stroke-linecap="round"/>
<line x1="294.18" y1="30.49" x2="266.88" y2="31.47" stroke="#D32F2F" stroke-width="7.88" stroke-linecap="round"/>
<line x1="257.34" y1="30.90" x2="266.88" y2="31.47" stroke="#D32F2F" stroke-width="8.00" stroke-linecap="round"/>
<line x1="273.57" y1="37.01" x2="245.04" y2="39.94" stroke="#D32F2F" stroke-width="7.17" stroke-linecap="round"/>
<line x1="232.11" y1="38.87" x2="245.04" y2="39.94" stroke="#D32F2F" stroke-width="8.00" stroke-linecap="round"/>
<line x1="256.53" y1="46.16" x2="227.30" y2="51.23" stroke="#D32F2F" stroke-width="6.51" stroke-linecap="round"/>
<line x1="211.19" y1="50.12" x2="227.30" y2="51.23" stroke="#D32F2F" stroke-width="8.00" stroke-linecap="round"/>
<line x1="243.28" y1="57.40" x2="213.85" y2="64.73" stroke="#D32F2F" stroke-width="5.96" stroke-linecap="round"/>
<line x1="194.86" y1="63.96" x2="213.85" y2="64.73" stroke="#D32F2F" stroke-width="8.00" stroke-linecap="round"/>
<line x1="233.76" y1="70.17" x2="204.59" y2="79.81" stroke="#D32F2F" stroke-width="5.54" stroke-linecap="round"/>
<line x1="183.12" y1="79.71" x2="204.59" y2="79.81" stroke="#D32F2F" stroke-width="8.00" stroke-linecap="round"/>
<line x1="227.70" y1="84.04" x2="199.19" y2="95.96" stroke="#D32F2F" stroke-width="5.29" stroke-linecap="round"/>
<line x1="175.68" y1="96.74" x2="199.19" y2="95.96" stroke="#D32F2F" stroke-width="8.00" stroke-linecap="round"/>
<line x1="224.75" y1="98.71" x2="197.21" y2="112.81" stroke="#D32F2F" stroke-width="5.85" stroke-linecap="round"/>
<line x1="172.09" y1="114.57" x2="197.21" y2="112.81" stroke="#D32F2F" stroke-width="8.00" stroke-linecap="round"/>
<line x1="224.53" y1="114.00" x2="198.17" y2="130.12" stroke="#D32F2F" stroke-width="6.52" stroke-linecap="round"/>
<line x1="171.82" y1="132.84" x2="198.17" y2="130.12" stroke="#D32F2F" stroke-width="8.00" stroke-linecap="round"/>
<line x1="226.65" y1="129.83" x2="201.56" y2="147.77" stroke="#D32F2F" stroke-width="7.08" stroke-linecap="round"/>
<line x1="174.30" y1="151.33" x2="201.56" y2="147.77" stroke="#D32F2F" stroke-width="8.00" stroke-linecap="round"/>
<line x1="230.78" y1="146.21" x2="206.92" y2="165.72" stroke="#D32F2F" stroke-width="7.54" stroke-linecap="round"/>
<line x1="178.97" y1="169.91" x2="206.92" y2="165.72" stroke="#D32F2F" stroke-width="8.00" stroke-linecap="round"/>
<line x1="236.59" y1="163.22" x2="213.80" y2="184.01" stroke="#D32F2F" stroke-width="7.93" stroke-linecap="round"/>
<line x1="185.34" y1="188.58" x2="213.80" y2="184.01" stroke="#D32F2F" stroke-width="8.00" stroke-linecap="round"/>
<line x1="243.75" y1="180.97" x2="221.80" y2="202.72" stroke="#D32F2F" stroke-width="8.00" stroke-linecap="round"/>
<line x1="192.92" y1="207.37" x2="221.80" y2="202.72" stroke="#D32F2F" stroke-width="8.00" stroke-linecap="round"/>
<line x1="251.98" y1="199.60" x2="230.54" y2="221.97" stroke="#D32F2F" stroke-width="8.00" stroke-linecap="round"/>
<line x1="201.31" y1="226.36" x2="230.54" y2="221.97" stroke="#D32F2F" stroke-width="8.00" stroke-linecap="round"/>
<line x1="260.97" y1="219.28" x2="239.67" y2="241.89" stroke="#D32F2F" stroke-width="8.00" stroke-linecap="round"/>
<line x1="210.12" y1="245.66" x2="239.67" y2="241.89" stroke="#D32F2F" stroke-width="8.00" stroke-linecap="round"/>
<line x1="270.38" y1="240.17" x2="248.86" y2="262.63" stroke="#D32F2F" stroke-width="8.00" stroke-linecap="round"/>
<line x1="219.01" y1="265.40" x2="248.86" y2="262.63" stroke="#D32F2F" stroke-width="8.00" stroke-linecap="round"/>
<line x1="279.87" y1="262.45" x2="257.76" y2="284.31" stroke="#D32F2F" stroke-width="8.00" stroke-linecap="round"/>
<line x1="227.66" y1="285.69" x2="257.76" y2="284.31" stroke="#D32F2F" stroke-width="8.00" stroke-linecap="round"/>
<line x1="289.05" y1="286.24" x2="266.04" y2="307.05" stroke="#D32F2F" stroke-width="8.00" stroke-linecap="round"/>
<line x1="235.75" y1="306.65" x2="266.04" y2="307.05" stroke="#D32F2F" stroke-width="8.00" stroke-linecap="round"/>
<line x1="297.50" y1="311.61" x2="273.35" y2="330.91" stroke="#D32F2F" stroke-width="8.00" stroke-linecap="round"/>
<line x1="242.99" y1="328.38" x2="273.35" y2="330.91" stroke="#D32F2F" stroke-width="8.00" stroke-linecap="round"/>
<line x1="304.73" y1="338.55" x2="279.30" y2="355.87" stroke="#D32F2F" stroke-width="8.00" stroke-linecap="round"/>
<line x1="249.05" y1="350.92" x2="279.30" y2="355.87" stroke="#D32F2F" stroke-width="8.00" stroke-linecap="round"/>
<line x1="310.26" y1="366.91" x2="283.49" y2="381.82" stroke="#D32F2F" stroke-width="8.00" stroke-linecap="round"/>
<line x1="253.59" y1="374.25" x2="283.49" y2="381.82" stroke="#D32F2F" stroke-width="8.00" stroke-linecap="round"/>
<line x1="313.55" y1="396.34" x2="285.52" y2="408.49" stroke="#D32F2F" stroke-width="8.00" stroke-linecap="round"/>
<line x1="256.28" y1="398.22" x2="285.52" y2="408.49" stroke="#D32F2F" stroke-width="8.00" stroke-linecap="round"/>
<line x1="314.13" y1="426.32" x2="284.99" y2="435.39" stroke="#D32F2F" stroke-width="8.00" stroke-linecap="round"/>
<line x1="256.75" y1="422.53" x2="284.99" y2="435.39" stroke="#D32F2F" stroke-width="8.00" stroke-linecap="round"/>
<line x1="311.57" y1="456.05" x2="281.56" y2="461.86" stroke="#D32F2F" stroke-width="8.00" stroke-linecap="round"/>
<line x1="254.67" y1="446.66" x2="281.56" y2="461.86" stroke="#D32F2F" stroke-width="8.00" stroke-linecap="round"/>
<line x1="305.60" y1="484.57" x2="275.01" y2="486.98" stroke="#D32F2F" stroke-width="8.00" stroke-linecap="round"/>
<line x1="249.81" y1="469.87" x2="275.01" y2="486.98" stroke="#D32F2F" stroke-width="8.00" stroke-linecap="round"/>
<line x1="296.14" y1="510.74" x2="265.31" y2="509.73" stroke="#D32F2F" stroke-width="7.52" stroke-linecap="round"/>
<line x1="242.08" y1="491.26" x2="265.31" y2="509.73" stroke="#D32F2F" stroke-width="8.00" stroke-linecap="round"/>
<line x1="283.34" y1="533.42" x2="252.64" y2="529.06" stroke="#D32F2F" stroke-width="6.61" stroke-linecap="round"/>
<line x1="231.58" y1="509.84" x2="252.64" y2="529.06" stroke="#D32F2F" stroke-width="8.00" stroke-linecap="round"/>
<line x1="267.60" y1="551.59" x2="237.42" y2="544.09" stroke="#D32F2F" stroke-width="5.62" stroke-linecap="round"/>
<line x1="218.67" y1="524.75" x2="237.42" y2="544.09" stroke="#D32F2F" stroke-width="8.00" stroke-linecap="round"/>
<line x1="249.53" y1="564.56" x2="220.24" y2="554.24" stroke="#D32F2F" stroke-width="5.18" stroke-linecap="round"/>
<line x1="203.87" y1="535.38" x2="220.24" y2="554.24" stroke="#D32F2F" stroke-width="8.00" stroke-linecap="round"/>
<line x1="229.88" y1="572.02" x2="201.81" y2="559.30" stroke="#D32F2F" stroke-width="5.52" stroke-linecap="round"/>
<line x1="187.80" y1="541.48" x2="201.81" y2="559.30" stroke="#D32F2F" stroke-width="8.00" stroke-linecap="round"/>
<line x1="209.37" y1="574.06" x2="182.82" y2="559.45" stroke="#D32F2F" stroke-width="6.00" stroke-linecap="round"/>
<line x1="171.11" y1="543.14" x2="182.82" y2="559.45" stroke="#D32F2F" stroke-width="8.00" stroke-linecap="round"/>
<line x1="188.73" y1="571.12" x2="163.88" y2="555.15" stroke="#D32F2F" stroke-width="6.58" stroke-linecap="round"/>
<line x1="154.36" y1="540.75" x2="163.88" y2="555.15" stroke="#D32F2F" stroke-width="8.00" stroke-linecap="round"/>
<line x1="168.52" y1="563.81" x2="145.48" y2="547.01" stroke="#D32F2F" stroke-width="7.18" stroke-linecap="round"/>
<line x1="137.97" y1="534.83" x2="145.48" y2="547.01" stroke="#D32F2F" stroke-width="8.00" stroke-linecap="round"/>
<line x1="149.22" y1="552.86" x2="128.00" y2="535.67" stroke="#D32F2F" stroke-width="7.78" stroke-linecap="round"/>
<line x1="122.25" y1="525.90" x2="128.00" y2="535.67" stroke="#D32F2F" stroke-width="8.00" stroke-linecap="round"/>
<line x1="107.40" y1="514.48" x2="111.69" y2="521.74" stroke="#D32F2F" stroke-width="8.00" stroke-linecap="round"/>
<line x1="462.41" y1="564.56" x2="488.07" y2="547.65" stroke="#D32F2F" stroke-width="5.27" stroke-linecap="round"/>
<line x1="478.01" y1="551.59" x2="502.41" y2="534.11" stroke="#D32F2F" stroke-width="6.21" stroke-linecap="round"/>
<line x1="515.21" y1="524.75" x2="502.41" y2="534.11" stroke="#D32F2F" stroke-width="8.00" stroke-linecap="round"/>
<line x1="493.75" y1="533.42" x2="516.72" y2="515.95" stroke="#D32F2F" stroke-width="7.14" stroke-linecap="round"/>
<line x1="528.13" y1="509.84" x2="516.72" y2="515.95" stroke="#D32F2F" stroke-width="8.00" stroke-linecap="round"/>
<line x1="509.01" y1="510.74" x2="530.46" y2="493.90" stroke="#D32F2F" stroke-width="8.00" stroke-linecap="round"/>
<line x1="540.63" y1="491.26" x2="530.46" y2="493.90" stroke="#D32F2F" stroke-width="8.00" stroke-linecap="round"/>
<line x1="523.27" y1="484.57" x2="543.15" y2="468.94" stroke="#D32F2F" stroke-width="8.00" stroke-linecap="round"/>
<line x1="552.29" y1="469.87" x2="543.15" y2="468.94" stroke="#D32F2F" stroke-width="8.00" stroke-linecap="round"/>
<line x1="536.13" y1="456.05" x2="554.46" y2="442.16" stroke="#D32F2F" stroke-width="8.00" stroke-linecap="round"/>
<line x1="562.75" y1="446.66" x2="554.46" y2="442.16" stroke="#D32F2F" stroke-width="8.00" stroke-linecap="round"/>
<line x1="547.34" y1="426.32" x2="564.19" y2="414.56" stroke="#D32F2F" stroke-width="8.00" stroke-linecap="round"/>
<line x1="571.85" y1="422.53" x2="564.19" y2="414.56" stroke="#D32F2F" stroke-width="8.00" stroke-linecap="round"/>
<line x1="556.79" y1="396.34" x2="572.27" y2="386.98" stroke="#D32F2F" stroke-width="8.00" stroke-linecap="round"/>
<line x1="579.51" y1="398.22" x2="572.27" y2="386.98" stroke="#D32F2F" stroke-width="8.00" stroke-linecap="round"/>
<line x1="564.43" y1="366.91" x2="578.70" y2="360.02" stroke="#D32F2F" stroke-width="8.00" stroke-linecap="round"/>
<line x1="585.73" y1="374.25" x2="578.70" y2="360.02" stroke="#D32F2F" stroke-width="8.00" stroke-linecap="round"/>
<line x1="570.29" y1="338.55" x2="583.50" y2="334.07" stroke="#D32F2F" stroke-width="8.00" stroke-linecap="round"/>
<line x1="590.56" y1="350.92" x2="583.50" y2="334.07" stroke="#D32F2F" stroke-width="8.00" stroke-linecap="round"/>
<line x1="574.42" y1="311.61" x2="586.70" y2="309.33" stroke="#D32F2F" stroke-width="8.00" stroke-linecap="round"/>
<line x1="594.01" y1="328.38" x2="586.70" y2="309.33" stroke="#D32F2F" stroke-width="8.00" stroke-linecap="round"/>
<line x1="576.87" y1="286.24" x2="588.33" y2="285.86" stroke="#D32F2F" stroke-width="8.00" stroke-linecap="round"/>
<line x1="596.10" y1="306.65" x2="588.33" y2="285.86" stroke="#D32F2F" stroke-width="8.00" stroke-linecap="round"/>
<line x1="577.67" y1="262.45" x2="588.38" y2="263.62" stroke="#D32F2F" stroke-width="8.00" stroke-linecap="round"/>
<line x1="596.81" y1="285.69" x2="588.38" y2="263.62" stroke="#D32F2F" stroke-width="8.00" stroke-linecap="round"/>
<line x1="576.86" y1="240.17" x2="586.84" y2="242.51" stroke="#D32F2F" stroke-width="8.00" stroke-linecap="round"/>
<line x1="596.06" y1="265.40" x2="586.84" y2="242.51" stroke="#D32F2F" stroke-width="8.00" stroke-linecap="round"/>
<line x1="574.42" y1="219.28" x2="583.66" y2="222.40" stroke="#D32F2F" stroke-width="8.00" stroke-linecap="round"/>
<line x1="593.76" y1="245.66" x2="583.66" y2="222.40" stroke="#D32F2F" stroke-width="8.00" stroke-linecap="round"/>
<line x1="570.36" y1="199.60" x2="578.76" y2="203.13" stroke="#D32F2F" stroke-width="8.00" stroke-linecap="round"/>
<line x1="589.76" y1="226.36" x2="578.76" y2="203.13" stroke="#D32F2F" stroke-width="8.00" stroke-linecap="round"/>
<line x1="564.62" y1="180.97" x2="572.05" y2="184.56" stroke="#D32F2F" stroke-width="8.00" stroke-linecap="round"/>
<line x1="583.91" y1="207.37" x2="572.05" y2="184.56" stroke="#D32F2F" stroke-width="8.00" stroke-linecap="round"/>
<line x1="557.15" y1="163.22" x2="563.40" y2="166.55" stroke="#D32F2F" stroke-width="8.00" stroke-linecap="round"/>
<line x1="575.99" y1="188.58" x2="563.40" y2="166.55" stroke="#D32F2F" stroke-width="8.00" stroke-linecap="round"/>
<line x1="547.87" y1="146.21" x2="552.68" y2="148.98" stroke="#D32F2F" stroke-width="8.00" stroke-linecap="round"/>
<line x1="317.83" y1="27.10" x2="292.29" y2="26.39" stroke="#D32F2F" stroke-width="8.00" stroke-linecap="round"/>
<line x1="294.18" y1="30.49" x2="266.88" y2="31.47" stroke="#D32F2F" stroke-width="7.88" stroke-linecap="round"/>
<line x1="257.34" y1="30.90" x2="266.88" y2="31.47" stroke="#D32F2F" stroke-width="8.00" stroke-linecap="round"/>
<line x1="273.57" y1="37.01" x2="245.04" y2="39.94" stroke="#D32F2F" stroke-width="7.17" stroke-linecap="round"/>
<line x1="232.11" y1="38.87" x2="245.04" y2="39.94" stroke="#D32F2F" stroke-width="8.00" stroke-linecap="round"/>
<line x1="256.53" y1="46.16" x2="227.30" y2="51.23" stroke="#D32F2F" stroke-width="6.51" stroke-linecap="round"/>
<line x1="211.19" y1="50.12" x2="227.30" y2="51.23" stroke="#D32F2F" stroke-width="8.00" stroke-linecap="round"/>
<line x1="243.28" y1="57.40" x2="213.85" y2="64.73" stroke="#D32F2F" stroke-width="5.96" stroke-linecap="round"/>
<line x1="194.86" y1="63.96" x2="213.85" y2="64.73" stroke="#D32F2F" stroke-width="8.00" stroke-linecap="round"/>
<line x1="233.76" y1="70.17" x2="204.59" y2="79.81" stroke="#D32F2F" stroke-width="5.54" stroke-linecap="round"/>
<line x1="183.12" y1="79.71" x2="204.59" y2="79.81" stroke="#D32F2F" stroke-width="8.00" stroke-linecap="round"/>
<line x1="227.70" y1="84.04" x2="199.19" y2="95.96" stroke="#D32F2F" stroke-width="5.29" stroke-linecap="round"/>
<line x1="175.68" y1="96.74" x2="199.19" y2="95.96" stroke="#D32F2F" stroke-width="8.00" stroke-linecap="round"/>
<line x1="224.75" y1="98.71" x2="197.21" y2="112.81" stroke="#D32F2F" stroke-width="5.85" stroke-linecap="round"/>
<line x1="172.09" y1="114.57" x2="197.21" y2="112.81" stroke="#D32F2F" stroke-width="8.00" stroke-linecap="round"/>
<line x1="224.53" y1="114.00" x2="198.17" y2="130.12" stroke="#D32F2F" stroke-width="6.52" stroke-linecap="round"/>
<line x1="171.82" y1="132.84" x2="198.17" y2="130.12" stroke="#D32F2F" stroke-width="8.00" stroke-linecap="round"/>
<line x1="226.65" y1="129.83" x2="201.56" y2="147.77" stroke="#D32F2F" stroke-width="7.08" stroke-linecap="round"/>
<line x1="174.30" y1="151.33" x2="201.56" y2="147.77" stroke="#D32F2F" stroke-width="8.00" stroke-linecap="round"/>
<line x1="230.78" y1="146.21" x2="206.92" y2="165.72" stroke="#D32F2F" stroke-width="7.54" stroke-linecap="round"/>
<line x1="178.97" y1="169.91" x2="206.92" y2="165.72" stroke="#D32F2F" stroke-width="8.00" stroke-linecap="round"/>
<line x1="236.59" y1="163.22" x2="213.80" y2="184.01" stroke="#D32F2F" stroke-width="7.93" stroke-linecap="round"/>
<line x1="185.34" y1="188.58" x2="213.80" y2="184.01" stroke="#D32F2F" stroke-width="8.00" stroke-linecap="round"/>
<line x1="243.75" y1="180.97" x2="221.80" y2="202.72" stroke="#D32F2F" stroke-width="8.00" stroke-linecap="round"/>
<line x1="192.92" y1="207.37" x2="221.80" y2="202.72" stroke="#D32F2F" stroke-width="8.00" stroke-linecap="round"/>
<line x1="251.98" y1="199.60" x2="230.54" y2="221.97" stroke="#D32F2F" stroke-width="8.00" stroke-linecap="round"/>
<line x1="201.31" y1="226.36" x2="230.54" y2="221.97" stroke="#D32F2F" stroke-width="8.00" stroke-linecap="round"/>
<line x1="260.97" y1="219.28" x2="239.67" y2="241.89" stroke="#D32F2F" stroke-width="8.00" stroke-linecap="round"/>
<line x1="210.12" y1="245.66" x2="239.67" y2="241.89" stroke="#D32F2F" stroke-width="8.00" stroke-linecap="round"/>
<line x1="270.38" y1="240.17" x2="248.86" y2="262.63" stroke="#D32F2F" stroke-width="8.00" stroke-linecap="round"/>
<line x1="219.01" y1="265.40" x2="248.86" y2="262.63" stroke="#D32F2F" stroke-width="8.00" stroke-linecap="round"/>
<line x1="279.87" y1="262.45" x2="257.76" y2="284.31" stroke="#D32F2F" stroke-width="8.00" stroke-linecap="round"/>
<line x1="227.66" y1="285.69" x2="257.76" y2="284.31" stroke="#D32F2F" stroke-width="8.00" stroke-linecap="round"/>
<line x1="289.05" y1="286.24" x2="266.04" y2="307.05" stroke="#D32F2F" stroke-width="8.00" stroke-linecap="round"/>
<line x1="235.75" y1="306.65" x2="266.04" y2="307.05" stroke="#D32F2F" stroke-width="8.00" stroke-linecap="round"/>
<line x1="297.50" y1="311.61" x2="273.35" y2="330.91" stroke="#D32F2F" stroke-width="8.00" stroke-linecap="round"/>
<line x1="242.99" y1="328.38" x2="273.35" y2="330.91" stroke="#D32F2F" stroke-width="8.00" stroke-linecap="round"/>
<line x1="304.73" y1="338.55" x2="279.30" y2="355.87" stroke="#D32F2F" stroke-width="8.00" stroke-linecap="round"/>
<line x1="249.05" y1="350.92" x2="279.30" y2="355.87" stroke="#D32F2F" stroke-width="8.00" stroke-linecap="round"/>
<line x1="310.26" y1="366.91" x2="283.49" y2="381.82" stroke="#D32F2F" stroke-width="8.00" stroke-linecap="round"/>
<line x1="253.59" y1="374.25" x2="283.49" y2="381.82" stroke="#D32F2F" stroke-width="8.00" stroke-linecap="round"/>
<line x1="313.55" y1="396.34" x2="285.52" y2="408.49" stroke="#D32F2F" stroke-width="8.00" stroke-linecap="round"/>
<line x1="256.28" y1="398.22" x2="285.52" y2="408.49" stroke="#D32F2F" stroke-width="8.00" stroke-linecap="round"/>
<line x1="314.13" y1="426.32" x2="284.99" y2="435.39" stroke="#D32F2F" stroke-width="8.00" stroke-linecap="round"/>
<line x1="256.75" y1="422.53" x2="284.99" y2="435.39" stroke="#D32F2F" stroke-width="8.00" stroke-linecap="round"/>
<line x1="311.57" y1="456.05" x2="281.56" y2="461.86" stroke="#D32F2F" stroke-width="8.00" stroke-linecap="round"/>
<line x1="254.67" y1="446.66" x2="281.56" y2="461.86" stroke="#D32F2F" stroke-width="8.00" stroke-linecap="round"/>
<line x1="305.60" y1="484.57" x2="275.01" y2="486.98" stroke="#D32F2F" stroke-width="8.00" stroke-linecap="round"/>
<line x1="249.81" y1="469.87" x2="275.01" y2="486.98" stroke="#D32F2F" stroke-width="8.00" stroke-linecap="round"/>
<line x1="296.14" y1="510.74" x2="265.31" y2="509.73" stroke="#D32F2F" stroke-width="7.52" stroke-linecap="round"/>
<line x1="242.08" y1="491.26" x2="265.31" y2="509.73" stroke="#D32F2F" stroke-width="8.00" stroke-linecap="round"/>
<line x1="283.34" y1="533.42" x2="252.64" y2="529.06" stroke="#D32F2F" stroke-width="6.61" stroke-linecap="round"/>
<line x1="231.58" y1="509.84" x2="252.64" y2="529.06" stroke="#D32F2F" stroke-width="8.00" stroke-linecap="round"/>
<line x1="267.60" y1="551.59" x2="237.42" y2="544.09" stroke="#D32F2F" stroke-width="5.62" stroke-linecap="round"/>
<line x1="218.67" y1="524.75" x2="237.42" y2="544.09" stroke="#D32F2F" stroke-width="8.00" stroke-linecap="round"/>
<line x1="249.53" y1="564.56" x2="220.24" y2="554.24" stroke="#D32F2F" stroke-width="5.18" stroke-linecap="round"/>
<line x1="203.87" y1="535.38" x2="220.24" y2="554.24" stroke="#D32F2F" stroke-width="8.00" stroke-linecap="round"/>
<line x1="229.88" y1="572.02" x2="201.81" y2="559.30" stroke="#D32F2F" stroke-width="5.52" stroke-linecap="round"/>
<line x1="187.80" y1="541.48" x2="201.81" y2="559.30" stroke="#D32F2F" stroke-width="8.00" stroke-linecap="round"/>
<line x1="209.37" y1="574.06" x2="182.82" y2="559.45" stroke="#D32F2F" stroke-width="6.00" stroke-linecap="round"/>
<line x1="171.11" y1="543.14" x2="182.82" y2="559.45" stroke="#D32F2F" stroke-width="8.00" stroke-linecap="round"/>
<line x1="188.73" y1="571.12" x2="163.88" y2="555.15" stroke="#D32F2F" stroke-width="6.58" stroke-linecap="round"/>
<line x1="154.36" y1="540.75" x2="163.88" y2="555.15" stroke="#D32F2F" stroke-width="8.00" stroke-linecap="round"/>
<line x1="168.52" y1="563.81" x2="145.48" y2="547.01" stroke="#D32F2F" stroke-width="7.18" stroke-linecap="round"/>
<line x1="137.97" y1="534.83" x2="145.48" y2="547.01" stroke="#D32F2F" stroke-width="8.00" stroke-linecap="round"/>
<line x1="149.22" y1="552.86" x2="128.00" y2="535.67" stroke="#D32F2F" stroke-width="7.78" stroke-linecap="round"/>
<line x1="122.25" y1="525.90" x2="128.00" y2="535.67" stroke="#D32F2F" stroke-width="8.00" stroke-linecap="round"/>
<line x1="107.40" y1="514.48" x2="111.69" y2="521.74" stroke="#D32F2F" stroke-width="8.00" stroke-linecap="round"/>
</svg>