<svg width="630.0" height="630.0" viewBox="0 0 630.0 630.0" xmlns="http://www.w3.org/2000/svg">
<circle cx="315.0" cy="315.0" r="290.0" fill="#FDFDF5" stroke="#ccc" stroke-width="0.5"/>
<line x1="600.37" y1="359.34" x2="603.92" y2="339.87" stroke="#D32F2F" stroke-width="8.00" stroke-linecap="round"/>
<line x1="602.09" y1="337.88" x2="604.78" y2="317.05" stroke="#D32F2F" stroke-width="8.00" stroke-linecap="round"/>
<line x1="601.82" y1="316.66" x2="603.48" y2="294.30" stroke="#D32F2F" stroke-width="8.00" stroke-linecap="round"/>
<line x1="599.45" y1="295.88" x2="599.83" y2="271.92" stroke="#D32F2F" stroke-width="8.00" stroke-linecap="round"/>
<line x1="601.14" y1="267.89" x2="599.83" y2="271.92" stroke="#D32F2F" stroke-width="8.00" stroke-linecap="round"/>
<line x1="594.81" y1="275.81" x2="593.63" y2="250.29" stroke="#D32F2F" stroke-width="8.00" stroke-linecap="round"/>
<line x1="595.50" y1="243.49" x2="593.63" y2="250.29" stroke="#D32F2F" stroke-width="8.00" stroke-linecap="round"/>
<line x1="587.73" y1="256.79" x2="584.67" y2="229.91" stroke="#D32F2F" stroke-width="8.00" stroke-linecap="round"/>
<line x1="586.81" y1="220.14" x2="584.67" y2="229.91" stroke="#D32F2F" stroke-width="8.00" stroke-linecap="round"/>
<line x1="578.04" y1="239.32" x2="572.76" y2="211.43" stroke="#D32F2F" stroke-width="7.74" stroke-linecap="round"/>
<line x1="574.85" y1="198.61" x2="572.76" y2="211.43" stroke="#D32F2F" stroke-width="8.00" stroke-linecap="round"/>
<line x1="565.59" y1="224.03" x2="557.83" y2="195.60" stroke="#D32F2F" stroke-width="7.23" stroke-linecap="round"/>
<line x1="559.51" y1="179.76" x2="557.83" y2="195.60" stroke="#D32F2F" stroke-width="8.00" stroke-linecap="round"/>
<line x1="550.41" y1="211.64" x2="539.95" y2="183.24" stroke="#D32F2F" stroke-width="6.79" stroke-linecap="round"/>
<line x1="540.87" y1="164.54" x2="539.95" y2="183.24" stroke="#D32F2F" stroke-width="8.00" stroke-linecap="round"/>
<line x1="532.72" y1="202.87" x2="519.43" y2="175.10" stroke="#D32F2F" stroke-width="6.45" stroke-linecap="round"/>
<line x1="519.21" y1="153.80" x2="519.43" y2="175.10" stroke="#D32F2F" stroke-width="8.00" stroke-linecap="round"/>
<line x1="512.97" y1="198.31" x2="496.84" y2="171.78" stroke="#D32F2F" stroke-width="6.28" stroke-linecap="round"/>
<line x1="495.12" y1="148.24" x2="496.84" y2="171.78" stroke="#D32F2F" stroke-width="8.00" stroke-linecap="round"/>
<line x1="491.89" y1="198.31" x2="473.01" y2="173.57" stroke="#D32F2F" stroke-width="6.29" stroke-linecap="round"/>
<line x1="469.42" y1="148.24" x2="473.01" y2="173.57" stroke="#D32F2F" stroke-width="8.00" stroke-linecap="round"/>
<line x1="470.32" y1="202.87" x2="448.89" y2="180.40" stroke="#D32F2F" stroke-width="6.98" stroke-linecap="round"/>
<line x1="443.11" y1="153.80" x2="448.89" y2="180.40" stroke="#D32F2F" stroke-width="8.00" stroke-linecap="round"/>
<line x1="449.15" y1="211.64" x2="425.41" y2="191.83" stroke="#D32F2F" stroke-width="7.86" stroke-linecap="round"/>
<line x1="417.20" y1="164.54" x2="425.41" y2="191.83" stroke="#D32F2F" stroke-width="8.00" stroke-linecap="round"/>
<line x1="429.14" y1="224.03" x2="403.40" y2="207.15" stroke="#D32F2F" stroke-width="8.00" stroke-linecap="round"/>
<line x1="392.62" y1="179.76" x2="403.40" y2="207.15" stroke="#D32F2F" stroke-width="8.00" stroke-linecap="round"/>
<line x1="410.84" y1="239.32" x2="383.42" y2="225.55" stroke="#D32F2F" stroke-width="8.00" stroke-linecap="round"/>
<line x1="370.06" y1="198.61" x2="383.42" y2="225.55" stroke="#D32F2F" stroke-width="8.00" stroke-linecap="round"/>
<line x1="394.54" y1="256.79" x2="365.79" y2="246.20" stroke="#D32F2F" stroke-width="8.00" stroke-linecap="round"/>
<line x1="349.97" y1="220.14" x2="365.79" y2="246.20" stroke="#D32F2F" stroke-width="8.00" stroke-linecap="round"/>
<line x1="380.33" y1="275.81" x2="350.60" y2="268.35" stroke="#D32F2F" stroke-width="8.00" stroke-linecap="round"/>
<line x1="332.52" y1="243.49" x2="350.60" y2="268.35" stroke="#D32F2F" stroke-width="8.00" stroke-linecap="round"/>
<line x1="368.14" y1="295.88" x2="337.75" y2="291.38" stroke="#D32F2F" stroke-width="8.00" stroke-linecap="round"/>
<line x1="317.70" y1="267.89" x2="337.75" y2="291.38" stroke="#D32F2F" stroke-width="8.00" stroke-linecap="round"/>
<line x1="357.77" y1="316.66" x2="326.99" y2="314.81" stroke="#D32F2F" stroke-width="8.00" stroke-linecap="round"/>
<line x1="305.29" y1="292.73" x2="326.99" y2="314.81" stroke="#D32F2F" stroke-width="8.00" stroke-linecap="round"/>
<line x1="348.97" y1="337.88" x2="318.03" y2="338.27" stroke="#D32F2F" stroke-width="8.00" stroke-linecap="round"/>
<line x1="295.02" y1="317.50" x2="318.03" y2="338.27" stroke="#D32F2F" stroke-width="8.00" stroke-linecap="round"/>
<line x1="341.47" y1="359.34" x2="310.52" y2="361.49" stroke="#D32F2F" stroke-width="8.00" stroke-linecap="round"/>
<line x1="286.50" y1="341.85" x2="310.52" y2="361.49" stroke="#D32F2F" stroke-width="8.00" stroke-linecap="round"/>
<line x1="334.96" y1="380.91" x2="304.07" y2="384.27" stroke="#D32F2F" stroke-width="8.00" stroke-linecap="round"/>
<line x1="279.36" y1="365.53" x2="304.07" y2="384.27" stroke="#D32F2F" stroke-width="8.00" stroke-linecap="round"/>
<line x1="329.15" y1="402.46" x2="298.34" y2="406.46" stroke="#D32F2F" stroke-width="8.00" stroke-linecap="round"/>
<line x1="273.21" y1="388.34" x2="298.34" y2="406.46" stroke="#D32F2F" stroke-width="8.00" stroke-linecap="round"/>
<line x1="323.69" y1="423.87" x2="292.94" y2="427.94" stroke="#D32F2F" stroke-width="8.00" stroke-linecap="round"/>
<line x1="267.65" y1="410.17" x2="292.94" y2="427.94" stroke="#D32F2F" stroke-width="8.00" stroke-linecap="round"/>
<line x1="318.27" y1="445.01" x2="287.52" y2="448.58" stroke="#D32F2F" stroke-width="8.00" stroke-linecap="round"/>
<line x1="262.32" y1="430.91" x2="287.52" y2="448.58" stroke="#D32F2F" stroke-width="8.00" stroke-linecap="round"/>
<line x1="312.51" y1="465.72" x2="281.73" y2="468.27" stroke="#D32F2F" stroke-width="8.00" stroke-linecap="round"/>
<line x1="256.88" y1="450.47" x2="281.73" y2="468.27" stroke="#D32F2F" stroke-width="8.00" stroke-linecap="round"/>
<line x1="306.05" y1="485.78" x2="275.24" y2="486.85" stroke="#D32F2F" stroke-width="8.00" stroke-linecap="round"/>
<line x1="251.00" y1="468.76" x2="275.24" y2="486.85" stroke="#D32F2F" stroke-width="8.00" stroke-linecap="round"/>
<line x1="298.52" y1="504.93" x2="267.70" y2="504.12" stroke="#D32F2F" stroke-width="7.78" stroke-linecap="round"/>
<line x1="244.37" y1="485.64" x2="267.70" y2="504.12" stroke="#D32F2F" stroke-width="8.00" stroke-linecap="round"/>
<line x1="289.55" y1="522.82" x2="258.82" y2="519.83" stroke="#D32F2F" stroke-width="7.28" stroke-linecap="round"/>
<line x1="236.69" y1="500.96" x2="258.82" y2="519.83" stroke="#D32F2F" stroke-width="8.00" stroke-linecap="round"/>
<line x1="278.79" y1="538.98" x2="248.31" y2="533.64" stroke="#D32F2F" stroke-width="6.67" stroke-linecap="round"/>
<line x1="227.69" y1="514.48" x2="248.31" y2="533.64" stroke="#D32F2F" stroke-width="8.00" stroke-linecap="round"/>
<line x1="265.96" y1="552.86" x2="235.93" y2="545.09" stroke="#D32F2F" stroke-width="5.93" stroke-linecap="round"/>
<line x1="217.13" y1="525.90" x2="235.93" y2="545.09" stroke="#D32F2F" stroke-width="8.00" stroke-linecap="round"/>
<line x1="250.86" y1="563.81" x2="221.56" y2="553.68" stroke="#D32F2F" stroke-width="5.09" stroke-linecap="round"/>
<line x1="204.84" y1="534.83" x2="221.56" y2="553.68" stroke="#D32F2F" stroke-width="8.00" stroke-linecap="round"/>
<line x1="233.46" y1="571.12" x2="205.17" y2="558.79" stroke="#D32F2F" stroke-width="5.06" stroke-linecap="round"/>
<line x1="190.73" y1="540.75" x2="205.17" y2="558.79" stroke="#D32F2F" stroke-width="8.00" stroke-linecap="round"/>
<line x1="213.92" y1="574.06" x2="186.94" y2="559.81" stroke="#D32F2F" stroke-width="5.54" stroke-linecap="round"/>
<line x1="174.87" y1="543.14" x2="186.94" y2="559.81" stroke="#D32F2F" stroke-width="8.00" stroke-linecap="round"/>
<line x1="192.61" y1="572.02" x2="167.23" y2="556.21" stroke="#D32F2F" stroke-width="6.16" stroke-linecap="round"/>
<line x1="157.52" y1="541.48" x2="167.23" y2="556.21" stroke="#D32F2F" stroke-width="8.00" stroke-linecap="round"/>
<line x1="170.15" y1="564.56" x2="146.64" y2="547.65" stroke="#D32F2F" stroke-width="6.88" stroke-linecap="round"/>
<line x1="139.17" y1="535.38" x2="146.64" y2="547.65" stroke="#D32F2F" stroke-width="8.00" stroke-linecap="round"/>
<line x1="147.35" y1="551.59" x2="125.92" y2="534.11" stroke="#D32F2F" stroke-width="7.65" stroke-linecap="round"/>
<line x1="120.48" y1="524.75" x2="125.92" y2="534.11" stroke="#D32F2F" stroke-width="8.00" stroke-linecap="round"/>
<line x1="30.21" y1="265.40" x2="34.22" y2="242.51" stroke="#D32F2F" stroke-width="8.00" stroke-linecap="round"/>
<line x1="35.43" y1="245.66" x2="40.52" y2="222.40" stroke="#D32F2F" stroke-width="8.00" stroke-linecap="round"/>
<line x1="42.52" y1="226.36" x2="48.60" y2="203.13" stroke="#D32F2F" stroke-width="8.00" stroke-linecap="round"/>
<line x1="57.88" y1="180.97" x2="58.47" y2="184.56" stroke="#D32F2F" stroke-width="8.00" stroke-linecap="round"/>
<line x1="51.56" y1="207.37" x2="58.47" y2="184.56" stroke="#D32F2F" stroke-width="8.00" stroke-linecap="round"/>
<line x1="68.35" y1="163.22" x2="70.16" y2="166.55" stroke="#D32F2F" stroke-width="8.00" stroke-linecap="round"/>
<line x1="62.65" y1="188.58" x2="70.16" y2="166.55" stroke="#D32F2F" stroke-width="8.00" stroke-linecap="round"/>
<line x1="80.44" y1="146.21" x2="83.71" y2="148.98" stroke="#D32F2F" stroke-width="8.00" stroke-linecap="round"/>
<line x1="75.92" y1="169.91" x2="83.71" y2="148.98" stroke="#D32F2F" stroke-width="8.00" stroke-linecap="round"/>
<line x1="94.16" y1="129.83" x2="99.18" y2="131.79" stroke="#D32F2F" stroke-width="8.00" stroke-linecap="round"/>
<line x1="91.50" y1="151.33" x2="99.18" y2="131.79" stroke="#D32F2F" stroke-width="8.00" stroke-linecap="round"/>
<line x1="109.56" y1="114.00" x2="116.64" y2="114.96" stroke="#D32F2F" stroke-width="8.00" stroke-linecap="round"/>
<line x1="109.48" y1="132.84" x2="116.64" y2="114.96" stroke="#D32F2F" stroke-width="8.00" stroke-linecap="round"/>
<line x1="126.65" y1="98.71" x2="136.12" y2="98.57" stroke="#D32F2F" stroke-width="8.00" stroke-linecap="round"/>
<line x1="129.92" y1="114.57" x2="136.12" y2="98.57" stroke="#D32F2F" stroke-width="8.00" stroke-linecap="round"/>
<line x1="145.48" y1="84.04" x2="157.59" y2="82.79" stroke="#D32F2F" stroke-width="8.00" stroke-linecap="round"/>
<line x1="152.80" y1="96.74" x2="157.59" y2="82.79" stroke="#D32F2F" stroke-width="8.00" stroke-linecap="round"/>
<line x1="165.98" y1="70.17" x2="180.94" y2="67.92" stroke="#D32F2F" stroke-width="8.00" stroke-linecap="round"/>
<line x1="177.98" y1="79.71" x2="180.94" y2="67.92" stroke="#D32F2F" stroke-width="8.00" stroke-linecap="round"/>
<line x1="188.03" y1="57.40" x2="205.91" y2="54.38" stroke="#D32F2F" stroke-width="8.00" stroke-linecap="round"/>
<line x1="205.16" y1="63.96" x2="205.91" y2="54.38" stroke="#D32F2F" stroke-width="8.00" stroke-linecap="round"/>
<line x1="211.30" y1="46.16" x2="232.07" y2="42.73" stroke="#D32F2F" stroke-width="8.00" stroke-linecap="round"/>
<line x1="233.84" y1="50.12" x2="232.07" y2="42.73" stroke="#D32F2F" stroke-width="8.00" stroke-linecap="round"/>
<line x1="235.27" y1="37.01" x2="258.74" y2="33.58" stroke="#D32F2F" stroke-width="8.00" stroke-linecap="round"/>
<line x1="263.29" y1="38.87" x2="258.74" y2="33.58" stroke="#D32F2F" stroke-width="8.00" stroke-linecap="round"/>
<line x1="259.21" y1="30.49" x2="285.05" y2="27.52" stroke="#D32F2F" stroke-width="8.00" stroke-linecap="round"/>
<line x1="292.58" y1="30.90" x2="285.05" y2="27.52" stroke="#D32F2F" stroke-width="8.00" stroke-linecap="round"/>
<line x1="320.64" y1="26.75" x2="310.00" y2="25.05" stroke="#D32F2F" stroke-width="8.00" stroke-linecap="round"/>
<line x1="600.37" y1="359.34" x2="603.92" y2="339.87" stroke="#D32F2F" stroke-width="8.00" stroke-linecap="round"/>
<line x1="602.09" y1="337.88" x2="604.78" y2="317.05" stroke="#D32F2F" stroke-width="8.00" stroke-linecap="round"/>
<line x1="601.82" y1="316.66" x2="603.48" y2="294.30" stroke="#D32F2F" stroke-width="8.00" stroke-linecap="round"/>
<line x1="599.45" y1="295.88" x2="599.83" y2="271.92" stroke="#D32F2F" stroke-width="8.00" stroke-linecap="round"/>
<line x1="601.14" y1="267.89" x2="599.83" y2="271.92" stroke="#D32F2F" stroke-width="8.00" stroke-linecap="round"/>
<line x1="594.81" y1="275.81" x2="593.63" y2="250.29" stroke="#D32F2F" stroke-width="8.00" stroke-linecap="round"/>
<line x1="595.50" y1="243.49" x2="593.63" y2="250.29" stroke="#D32F2F" stroke-width="8.00" stroke-linecap="round"/>
<line x1="587.73" y1="256.79" x2="584.67" y2="229.91" stroke="#D32F2F" stroke-width="8.00" stroke-linecap="round"/>
<line x1="586.81" y1="220.14" x2="584.67" y2="229.91" stroke="#D32F2F" stroke-width="8.00" stroke-linecap="round"/>
<line x1="578.04" y1="239.32" x2="572.76" y2="211.43" stroke="#D32F2F" stroke-width="7.74" stroke-linecap="round"/>
<line x1="574.85" y1="198.61" x2="572.76" y2="211.43" stroke="#D32F2F" stroke-width="8.00" stroke-linecap="round"/>
<line x1="565.59" y1="224.03" x2="557.83" y2="195.60" stroke="#D32F2F" stroke-width="7.23" stroke-linecap="round"/>
<line x1="559.51" y1="179.76" x2="557.83" y2="195.60" stroke="#D32F2F" stroke-width="8.00" stroke-linecap="round"/>
<line x1="550.41" y1="211.64" x2="539.95" y2="183.24" stroke="#D32F2F" stroke-width="6.79" stroke-linecap="round"/>
<line x1="540.87" y1="164.54" x2="539.95" y2="183.24" stroke="#D32F2F" stroke-width="8.00" stroke-linecap="round"/>
<line x1="532.72" y1="202.87" x2="519.43" y2="175.10" stroke="#D32F2F" stroke-width="6.45" stroke-linecap="round"/>
<line x1="519.21" y1="153.80" x2="519.43" y2="175.10" stroke="#D32F2F" stroke-width="8.00" stroke-linecap="round"/>
<line x1="512.97" y1="198.31" x2="496.84" y2="171.78" stroke="#D32F2F" stroke-width="6.28" stroke-linecap="round"/>
<line x1="495.12" y1="148.24" x2="496.84" y2="171.78" stroke="#D32F2F" stroke-width="8.00" stroke-linecap="round"/>
<line x1="491.89" y1="198.31" x2="473.01" y2="173.57" stroke="#D32F2F" stroke-width="6.29" stroke-linecap="round"/>
<line x1="469.42" y1="148.24" x2="473.01" y2="173.57" stroke="#D32F2F" stroke-width="8.00" stroke-linecap="round"/>
<line x1="470.32" y1="202.87" x2="448.89" y2="180.40" stroke="#D32F2F" stroke-width="6.98" stroke-linecap="round"/>
<line x1="443.11" y1="153.80" x2="448.89" y2="180.40" stroke="#D32F2F" stroke-width="8.00" stroke-linecap="round"/>
<line x1="449.15" y1="211.64" x2="425.41" y2="191.83" stroke="#D32F2F" stroke-width="7.86" stroke-linecap="round"/>
<line x1="417.20" y1="164.54" x2="425.41" y2="191.83" stroke="#D32F2F" stroke-width="8.00" stroke-linecap="round"/>
<line x1="429.14" y1="224.03" x2="403.40" y2="207.15" stroke="#D32F2F" stroke-width="8.00" stroke-linecap="round"/>
<line x1="392.62" y1="179.76" x2="403.40" y2="207.15" stroke="#D32F2F" stroke-width="8.00" stroke-linecap="round"/>
<line x1="410.84" y1="239.32" x2="383.42" y2="225.55" stroke="#D32F2F" stroke-width="8.00" stroke-linecap="round"/>
<line x1="370.06" y1="198.61" x2="383.42" y2="225.55" stroke="#D32F2F" stroke-width="8.00" stroke-linecap="round"/>
<line x1="394.54" y1="256.79" x2="365.79" y2="246.20" stroke="#D32F2F" stroke-width="8.00" stroke-linecap="round"/>
<line x1="349.97" y1="220.14" x2="365.79" y2="246.20" stroke="#D32F2F" stroke-width="8.00" stroke-linecap="round"/>
<line x1="380.33" y1="275.81" x2="350.60" y2="268.35" stroke="#D32F2F" stroke-width="8.00" stroke-linecap="round"/>
<line x1="332.52" y1="243.49" x2="350.60" y2="268.35" stroke="#D32F2F" stroke-width="8.00" stroke-linecap="round"/>
<line x1="368.14" y1="295.88" x2="337.75" y2="291.38" stroke="#D32F2F" stroke-width="8.00" stroke-linecap="round"/>
<line x1="317.70" y1="267.89" x2="337.75" y2="291.38" stroke="#D32F2F" stroke-width="8.00" stroke-linecap="round"/>
<line x1="357.77" y1="316.66" x2="326.99" y2="314.81" stroke="#D32F2F" stroke-width="8.00" stroke-linecap="round"/>
<line x1="305.29" y1="292.73" x2="326.99" y2="314.81" stroke="#D32F2F" stroke-width="8.00" stroke-linecap="round"/>
<line x1="348.97" y1="337.88" x2="318.03" y2="338.27" stroke="#D32F2F" stroke-width="8.00" stroke-linecap="round"/>
<line x1="295.02" y1="317.50" x2="318.03" y2="338.27" stroke="#D32F2F" stroke-width="8.00" stroke-linecap="round"/>
<line x1="341.47" y1="359.34" x2="310.52" y2="361.49" stroke="#D32F2F" stroke-width="8.00" stroke-linecap="round"/>
<line x1="286.50" y1="341.85" x2="310.52" y2="361.49" stroke="#D32F2F" stroke-width="8.00" stroke-linecap="round"/>
<line x1="334.96" y1="380.91" x2="304.07" y2="384.27" stroke="#D32F2F" stroke-width="8.00" stroke-linecap="round"/>
<line x1="279.36" y1="365.53" x2="304.07" y2="384.27" stroke="#D32F2F" stroke-width="8.00" stroke-linecap="round"/>
<line x1="329.15" y1="402.46" x2="298.34" y2="406.46" stroke="#D32F2F" stroke-width="8.00" stroke-linecap="round"/>
<line x1="273.21" y1="388.34" x2="298.34" y2="406.46" stroke="#D32F2F" stroke-width="8.00" stroke-linecap="round"/>
<line x1="323.69" y1="423.87" x2="292.94" y2="427.94" stroke="#D32F2F" stroke-width="8.00" stroke-linecap="round"/>
<line x1="267.65" y1="410.17" x2="292.94" y2="427.94" stroke="#D32F2F" stroke-width="8.00" stroke-linecap="round"/>
<line x1="318.27" y1="445.01" x2="287.52" y2="448.58" stroke="#D32F2F" stroke-width="8.00" stroke-linecap="round"/>
<line x1="262.32" y1="430.91" x2="287.52" y2="448.58" stroke="#D32F2F" stroke-width="8.00" stroke-linecap="round"/>
<line x1="312.51" y1="465.72" x2="281.73" y2="468.27" stroke="#D32F2F" stroke-width="8.00" stroke-linecap="round"/>
<line x1="256.88" y1="450.47" x2="281.73" y2="468.27" stroke="#D32F2F" stroke-width="8.00" stroke-linecap="round"/>
<line x1="306.05" y1="485.78" x2="275.24" y2="486.85" stroke="#D32F2F" stroke-width="8.00" stroke-linecap="round"/>
<line x1="251.00" y1="468.76" x2="275.24" y2="486.85" stroke="#D32F2F" stroke-width="8.00" stroke-linecap="round"/>
<line x1="298.52" y1="504.93" x2="267.70" y2="504.12" stroke="#D32F2F" stroke-width="7.78" stroke-linecap="round"/>
<line x1="244.37" y1="485.64" x2="267.70" y2="504.12" stroke="#D32F2F" stroke-width="8.00" stroke-linecap="round"/>
<line x1="289.55" y1="522.82" x2="258.82" y2="519.83" stroke="#D32F2F" stroke-width="7.28" stroke-linecap="round"/>
<line x1="236.69" y1="500.96" x2="258.82" y2="519.83" stroke="#D32F2F" stroke-width="8.00" stroke-linecap="round"/>
<line x1="278.79" y1="538.98" x2="248.31" y2="533.64" stroke="#D32F2F" stroke-width="6.67" stroke-linecap="round"/>
<line x1="227.69" y1="514.48" x2="248.31" y2="533.64" stroke="#D32F2F" stroke-width="8.00" stroke-linecap="round"/>
<line x1="265.96" y1="552.86" x2="235.93" y2="545.09" stroke="#D32F2F" stroke-width="5.93" stroke-linecap="round"/>
<line x1="217.13" y1="525.90" x2="235.93" y2="545.09" stroke="#D32F2F" stroke-width="8.00" stroke-linecap="round"/>
<line x1="250.86" y1="563.81" x2="221.56" y2="553.68" stroke="#D32F2F" stroke-width="5.09" stroke-linecap="round"/>
<line x1="204.84" y1="534.83" x2="221.56" y2="553.68" stroke="#D32F2F" stroke-width="8.00" stroke-linecap="round"/>
<line x1="233.46" y1="571.12" x2="205.17" y2="558.79" stroke="#D32F2F" stroke-width="5.06" stroke-linecap="round"/>
<line x1="190.73" y1="540.75" x2="205.17" y2="558.79" stroke="#D32F2F" stroke-width="8.00" stroke-linecap="round"/>
<line x1="213.92" y1="574.06" x2="186.94" y2="559.81" stroke="#D32F2F" stroke-width="5.54" stroke-linecap="round"/>
<line x1="174.87" y1="543.14" x2="186.94" y2="559.81" stroke="#D32F2F" stroke-width="8.00" stroke-linecap="round"/>
<line x1="192.61" y1="572.02" x2="167.23" y2="556.21" stroke="#D32F2F" stroke-width="6.16" stroke-linecap="round"/>
<line x1="157.52" y1="541.48" x2="167.23" y2="556.21" stroke="#D32F2F" stroke-width="8.00" stroke-linecap="round"/>
<line x1="170.15" y1="564.56" x2="146.64" y2="547.65" stroke="#D32F2F" stroke-width="6.88" stroke-linecap="round"/>
<line x1="139.17" y1="535.38" x2="146.64" y2="547.65" stroke="#D32F2F" stroke-width="8.00" stroke-linecap="round"/>
<line x1="147.35" y1="551.59" x2="125.92" y2="534.11" stroke="#D32F2F" stroke-width="7.65" stroke-linecap="round"/>
<line x1="120.48" y1="524.75" x2="125.92" y2="534.11" stroke="#D32F2F" stroke-width="8.00" stroke-linecap="round"/>
<line x1="30.21" y1="265.40" x2="34.22" y2="242.51" stroke="#D32F2F" stroke-width="8.00" stroke-linecap="round"/>
<line x1="35.43" y1="245.66" x2="40.52" y2="222.40" stroke="#D32F2F" stroke-width="8.00" stroke-linecap="round"/>
<line x1="42.52" y1="226.36" x2="48.60" y2="203.13" stroke="#D32F2F" stroke-width="8.00" stroke-linecap="round"/>
<line x1="57.88" y1="180.97" x2="58.47" y2="184.56" stroke="#D32F2F" stroke-width="8.00" stroke-linecap="round"/>
<line x1="51.56" y1="207.37" x2="58.47" y2="184.56" stroke="#D32F2F" stroke-width="8.00" stroke-linecap="round"/>
<line x1="68.35" y1="163.22" x2="70.16" y2="166.55" stroke="#D32F2F" stroke-width="8.00" stroke-linecap="round"/>
<line x1="62.65" y1="188.58" x2="70.16" y2="166.55" stroke="#D32F2F" stroke-width="8.00" stroke-linecap="round"/>
<line x1="80.44" y1="146.21" x2="83.71" y2="148.98" stroke="#D32F2F" stroke-width="8.00" stroke-linecap="round"/>
<line x1="75.92" y1="169.91" x2="83.71" y2="148.98" stroke="#D32F2F" stroke-width="8.00" stroke-linecap="round"/>
<line x1="94.16" y1="129.83" x2="99.18" y2="131.79" stroke="#D32F2F" stroke-width="8.00" stroke-linecap="round"/>
<line x1="91.50" y1="151.33" x2="99.18" y2="131.79" stroke="#D32F2F" stroke-width="8.00" stroke-linecap="round"/>
<line x1="109.56" y1="114.00" x2="116.64" y2="114.96" stroke="#D32F2F" stroke-width="8.00" stroke-linecap="round"/>
<line x1="109.48" y1="132.84" x2="116.64" y2="114.96" stroke="#D32F2F" stroke-width="8.00" stroke-linecap="round"/>
<line x1="126.65" y1="98.71" x2="136.12" y2="98.57" stroke="#D32F2F" stroke-width="8.00" stroke-linecap="round"/>
<line x1="129.92" y1="114.57" x2="136.12" y2="98.57" stroke="#D32F2F" stroke-width="8.00" stroke-linecap="round"/>
<line x1="145.48" y1="84.04" x2="157.59" y2="82.79" stroke="#D32F2F" stroke-width="8.00" stroke-linecap="round"/>
<line x1="152.80" y1="96.74" x2="157.59" y2="82.79" stroke="#D32F2F" stroke-width="8.00" stroke-linecap="round"/>
<line x1="165.98" y1="70.17" x2="180.94" y2="67.92" stroke="#D32F2F" stroke-width="8.00" stroke-linecap="round"/>
<line x1="177.98" y1="79.71" x2="180.94" y2="67.92" stroke="#D32F2F" stroke-width="8.00" stroke-linecap="round"/>
<line x1="188.03" y1="57.40" x2="205.91" y2="54.38" stroke="#D32F2F" stroke-width="8.00" stroke-linecap="round"/>
<line x1="205.16" y1="63.96" x2="205.91" y2="54.38" stroke="#D32F2F" stroke-width="8.00" stroke-linecap="round"/>
<line x1="211.30" y1="46.16" x2="232.07" y2="42.73" stroke="#D32F2F" stroke-width="8.00" stroke-linecap="round"/>
<line x1="233.84" y1="50.12" x2="232.07" y2="42.73" stroke="#D32F2F" stroke-width="8.00" stroke-linecap="round"/>
<line x1="235.27" y1="37.01" x2="258.74" y2="33.58" stroke="#D32F2F" stroke-width="8.00" stroke-linecap="round"/>
<line x1="263.29" y1="38.87" x2="258.74" y2="33.58" stroke="#D32F2F" stroke-width="8.00" stroke-linecap="round"/>
<line x1="259.21" y1="30.49" x2="285.05" y2="27.52" stroke="#D32F2F" stroke-width="8.00" stroke-linecap="round"/>
<line x1="292.58" y1="30.90" x2="285.05" y2="27.52" stroke="#D32F2F" stroke-width="8.00" stroke-linecap="round"/>
<line x1="320.64" y1="26.75" x2="310.00" y2="25.05" stroke="#D32F2F" stroke-width="8.00" stroke-linecap="round"/>
</svg>