<svg width="630.0" height="630.0" viewBox="0 0 630.0 630.0" xmlns="http://www.w3.org/2000/svg">
<circle cx="315.0" cy="315.0" r="290.0" fill="#FDFDF5" stroke="#ccc" stroke-width="0.5"/>
<line x1="604.73" y1="322.18" x2="603.90" y2="291.20" stroke="#D32F2F" stroke-width="4.50" stroke-linecap="round"/>
<line x1="602.18" y1="306.77" x2="600.31" y2="276.17" stroke="#D32F2F" stroke-width="5.46" stroke-linecap="round"/>
<line x1="599.07" y1="257.45" x2="600.31" y2="276.17" stroke="#D32F2F" stroke-width="8.00" stroke-linecap="round"/>
<line x1="595.71" y1="287.97" x2="593.13" y2="258.13" stroke="#D32F2F" stroke-width="6.44" stroke-linecap="round"/>
<line x1="593.80" y1="242.15" x2="593.13" y2="258.13" stroke="#D32F2F" stroke-width="8.00" stroke-linecap="round"/>
<line x1="585.15" y1="266.15" x2="582.23" y2="237.47" stroke="#D32F2F" stroke-width="7.40" stroke-linecap="round"/>
<line x1="585.17" y1="224.31" x2="582.23" y2="237.47" stroke="#D32F2F" stroke-width="8.00" stroke-linecap="round"/>
<line x1="570.59" y1="241.95" x2="567.73" y2="214.82" stroke="#D32F2F" stroke-width="8.00" stroke-linecap="round"/>
<line x1="573.23" y1="204.48" x2="567.73" y2="214.82" stroke="#D32F2F" stroke-width="8.00" stroke-linecap="round"/>
<line x1="552.41" y1="216.25" x2="550.08" y2="191.02" stroke="#D32F2F" stroke-width="8.00" stroke-linecap="round"/>
<line x1="558.32" y1="183.39" x2="550.08" y2="191.02" stroke="#D32F2F" stroke-width="8.00" stroke-linecap="round"/>
<line x1="531.34" y1="190.04" x2="530.00" y2="167.02" stroke="#D32F2F" stroke-width="8.00" stroke-linecap="round"/>
<line x1="541.05" y1="161.92" x2="530.00" y2="167.02" stroke="#D32F2F" stroke-width="8.00" stroke-linecap="round"/>
<line x1="508.27" y1="164.30" x2="508.35" y2="143.70" stroke="#D32F2F" stroke-width="8.00" stroke-linecap="round"/>
<line x1="522.20" y1="140.88" x2="508.35" y2="143.70" stroke="#D32F2F" stroke-width="8.00" stroke-linecap="round"/>
<line x1="484.17" y1="139.88" x2="486.02" y2="121.81" stroke="#D32F2F" stroke-width="8.00" stroke-linecap="round"/>
<line x1="502.58" y1="121.00" x2="486.02" y2="121.81" stroke="#D32F2F" stroke-width="8.00" stroke-linecap="round"/>
<line x1="459.93" y1="117.40" x2="463.81" y2="101.87" stroke="#D32F2F" stroke-width="8.00" stroke-linecap="round"/>
<line x1="482.91" y1="102.76" x2="463.81" y2="101.87" stroke="#D32F2F" stroke-width="8.00" stroke-linecap="round"/>
<line x1="436.27" y1="97.28" x2="442.29" y2="84.18" stroke="#D32F2F" stroke-width="8.00" stroke-linecap="round"/>
<line x1="463.72" y1="86.44" x2="442.29" y2="84.18" stroke="#D32F2F" stroke-width="8.00" stroke-linecap="round"/>
<line x1="413.69" y1="79.75" x2="421.84" y2="68.90" stroke="#D32F2F" stroke-width="8.00" stroke-linecap="round"/>
<line x1="445.34" y1="72.17" x2="421.84" y2="68.90" stroke="#D32F2F" stroke-width="8.00" stroke-linecap="round"/>
<line x1="392.50" y1="64.87" x2="402.64" y2="56.04" stroke="#D32F2F" stroke-width="8.00" stroke-linecap="round"/>
<line x1="427.91" y1="59.92" x2="402.64" y2="56.04" stroke="#D32F2F" stroke-width="8.00" stroke-linecap="round"/>
<line x1="372.80" y1="52.60" x2="384.69" y2="45.53" stroke="#D32F2F" stroke-width="8.00" stroke-linecap="round"/>
<line x1="411.42" y1="49.67" x2="384.69" y2="45.53" stroke="#D32F2F" stroke-width="8.00" stroke-linecap="round"/>
<line x1="354.54" y1="42.86" x2="367.90" y2="37.29" stroke="#D32F2F" stroke-width="8.00" stroke-linecap="round"/>
<line x1="395.79" y1="41.33" x2="367.90" y2="37.29" stroke="#D32F2F" stroke-width="7.48" stroke-linecap="round"/>
<line x1="337.57" y1="35.50" x2="352.07" y2="31.22" stroke="#D32F2F" stroke-width="8.00" stroke-linecap="round"/>
<line x1="380.83" y1="34.85" x2="352.07" y2="31.22" stroke="#D32F2F" stroke-width="6.93" stroke-linecap="round"/>
<line x1="321.68" y1="30.40" x2="336.98" y2="27.23" stroke="#D32F2F" stroke-width="8.00" stroke-linecap="round"/>
<line x1="366.36" y1="30.20" x2="336.98" y2="27.23" stroke="#D32F2F" stroke-width="6.51" stroke-linecap="round"/>
<line x1="306.62" y1="27.41" x2="322.36" y2="25.25" stroke="#D32F2F" stroke-width="8.00" stroke-linecap="round"/>
<line x1="352.13" y1="27.39" x2="322.36" y2="25.25" stroke="#D32F2F" stroke-width="6.25" stroke-linecap="round"/>
<line x1="28.86" y1="269.96" x2="25.60" y2="300.69" stroke="#D32F2F" stroke-width="4.51" stroke-linecap="round"/>
<line x1="29.67" y1="279.64" x2="27.68" y2="310.50" stroke="#D32F2F" stroke-width="4.44" stroke-linecap="round"/>
<line x1="26.27" y1="334.12" x2="27.68" y2="310.50" stroke="#D32F2F" stroke-width="8.00" stroke-linecap="round"/>
<line x1="33.00" y1="286.64" x2="32.51" y2="317.30" stroke="#D32F2F" stroke-width="5.33" stroke-linecap="round"/>
<line x1="30.36" y1="342.72" x2="32.51" y2="317.30" stroke="#D32F2F" stroke-width="8.00" stroke-linecap="round"/>
<line x1="38.53" y1="291.23" x2="39.70" y2="321.43" stroke="#D32F2F" stroke-width="6.14" stroke-linecap="round"/>
<line x1="37.07" y1="348.31" x2="39.70" y2="321.43" stroke="#D32F2F" stroke-width="8.00" stroke-linecap="round"/>
<line x1="46.00" y1="293.73" x2="48.90" y2="323.29" stroke="#D32F2F" stroke-width="6.82" stroke-linecap="round"/>
<line x1="46.00" y1="351.29" x2="48.90" y2="323.29" stroke="#D32F2F" stroke-width="7.80" stroke-linecap="round"/>
<line x1="55.23" y1="294.45" x2="59.86" y2="323.31" stroke="#D32F2F" stroke-width="7.37" stroke-linecap="round"/>
<line x1="56.77" y1="352.14" x2="59.86" y2="323.31" stroke="#D32F2F" stroke-width="7.51" stroke-linecap="round"/>
<line x1="66.10" y1="293.74" x2="72.37" y2="321.92" stroke="#D32F2F" stroke-width="7.77" stroke-linecap="round"/>
<line x1="69.10" y1="351.34" x2="72.37" y2="321.92" stroke="#D32F2F" stroke-width="7.33" stroke-linecap="round"/>
<line x1="78.56" y1="291.94" x2="86.32" y2="319.55" stroke="#D32F2F" stroke-width="8.00" stroke-linecap="round"/>
<line x1="82.77" y1="349.36" x2="86.32" y2="319.55" stroke="#D32F2F" stroke-width="7.27" stroke-linecap="round"/>
<line x1="92.62" y1="289.37" x2="101.62" y2="316.61" stroke="#D32F2F" stroke-width="8.00" stroke-linecap="round"/>
<line x1="97.65" y1="346.65" x2="101.62" y2="316.61" stroke="#D32F2F" stroke-width="7.31" stroke-linecap="round"/>
<line x1="108.29" y1="286.39" x2="118.23" y2="313.49" stroke="#D32F2F" stroke-width="8.00" stroke-linecap="round"/>
<line x1="113.62" y1="343.61" x2="118.23" y2="313.49" stroke="#D32F2F" stroke-width="7.44" stroke-linecap="round"/>
<line x1="125.64" y1="283.35" x2="136.14" y2="310.56" stroke="#D32F2F" stroke-width="8.00" stroke-linecap="round"/>
<line x1="130.64" y1="340.63" x2="136.14" y2="310.56" stroke="#D32F2F" stroke-width="7.67" stroke-linecap="round"/>
<line x1="144.74" y1="280.64" x2="155.37" y2="308.19" stroke="#D32F2F" stroke-width="8.00" stroke-linecap="round"/>
<line x1="148.67" y1="338.06" x2="155.37" y2="308.19" stroke="#D32F2F" stroke-width="7.98" stroke-linecap="round"/>
<line x1="165.63" y1="278.66" x2="175.92" y2="306.76" stroke="#D32F2F" stroke-width="8.00" stroke-linecap="round"/>
<line x1="167.71" y1="336.26" x2="175.92" y2="306.76" stroke="#D32F2F" stroke-width="8.00" stroke-linecap="round"/>
<line x1="188.36" y1="277.86" x2="197.80" y2="306.65" stroke="#D32F2F" stroke-width="8.00" stroke-linecap="round"/>
<line x1="187.74" y1="335.55" x2="197.80" y2="306.65" stroke="#D32F2F" stroke-width="8.00" stroke-linecap="round"/>
<line x1="212.91" y1="278.71" x2="220.98" y2="308.23" stroke="#D32F2F" stroke-width="8.00" stroke-linecap="round"/>
<line x1="208.76" y1="336.27" x2="220.98" y2="308.23" stroke="#D32F2F" stroke-width="8.00" stroke-linecap="round"/>
<line x1="239.18" y1="281.69" x2="245.38" y2="311.88" stroke="#D32F2F" stroke-width="8.00" stroke-linecap="round"/>
<line x1="230.74" y1="338.77" x2="245.38" y2="311.88" stroke="#D32F2F" stroke-width="8.00" stroke-linecap="round"/>
<line x1="266.95" y1="287.28" x2="270.83" y2="317.99" stroke="#D32F2F" stroke-width="8.00" stroke-linecap="round"/>
<line x1="253.58" y1="343.36" x2="270.83" y2="317.99" stroke="#D32F2F" stroke-width="8.00" stroke-linecap="round"/>
<line x1="295.84" y1="295.88" x2="297.01" y2="326.88" stroke="#D32F2F" stroke-width="8.00" stroke-linecap="round"/>
<line x1="277.10" y1="350.36" x2="297.01" y2="326.88" stroke="#D32F2F" stroke-width="8.00" stroke-linecap="round"/>
<line x1="325.28" y1="307.82" x2="323.46" y2="338.80" stroke="#D32F2F" stroke-width="8.00" stroke-linecap="round"/>
<line x1="300.99" y1="360.04" x2="323.46" y2="338.80" stroke="#D32F2F" stroke-width="8.00" stroke-linecap="round"/>
<line x1="354.52" y1="323.23" x2="349.48" y2="353.83" stroke="#D32F2F" stroke-width="8.00" stroke-linecap="round"/>
<line x1="324.71" y1="372.55" x2="349.48" y2="353.83" stroke="#D32F2F" stroke-width="8.00" stroke-linecap="round"/>
<line x1="382.60" y1="342.03" x2="374.24" y2="371.87" stroke="#D32F2F" stroke-width="8.00" stroke-linecap="round"/>
<line x1="347.57" y1="387.85" x2="374.24" y2="371.87" stroke="#D32F2F" stroke-width="8.00" stroke-linecap="round"/>
<line x1="408.44" y1="363.85" x2="396.73" y2="392.53" stroke="#D32F2F" stroke-width="8.00" stroke-linecap="round"/>
<line x1="368.68" y1="405.69" x2="396.73" y2="392.53" stroke="#D32F2F" stroke-width="8.00" stroke-linecap="round"/>
<line x1="430.93" y1="388.05" x2="415.95" y2="415.18" stroke="#D32F2F" stroke-width="8.00" stroke-linecap="round"/>
<line x1="387.11" y1="425.52" x2="415.95" y2="415.18" stroke="#D32F2F" stroke-width="8.00" stroke-linecap="round"/>
<line x1="449.10" y1="413.75" x2="431.04" y2="438.98" stroke="#D32F2F" stroke-width="7.81" stroke-linecap="round"/>
<line x1="402.02" y1="446.61" x2="431.04" y2="438.98" stroke="#D32F2F" stroke-width="8.00" stroke-linecap="round"/>
<line x1="462.25" y1="439.96" x2="441.40" y2="462.98" stroke="#D32F2F" stroke-width="6.90" stroke-linecap="round"/>
<line x1="412.80" y1="468.08" x2="441.40" y2="462.98" stroke="#D32F2F" stroke-width="8.00" stroke-linecap="round"/>
<line x1="470.04" y1="465.70" x2="446.81" y2="486.30" stroke="#D32F2F" stroke-width="6.11" stroke-linecap="round"/>
<line x1="419.17" y1="489.12" x2="446.81" y2="486.30" stroke="#D32F2F" stroke-width="8.00" stroke-linecap="round"/>
<line x1="472.53" y1="490.12" x2="447.40" y2="508.19" stroke="#D32F2F" stroke-width="6.03" stroke-linecap="round"/>
<line x1="421.20" y1="509.00" x2="447.40" y2="508.19" stroke="#D32F2F" stroke-width="8.00" stroke-linecap="round"/>
<line x1="470.08" y1="512.60" x2="443.57" y2="528.13" stroke="#D32F2F" stroke-width="6.12" stroke-linecap="round"/>
<line x1="419.21" y1="527.24" x2="443.57" y2="528.13" stroke="#D32F2F" stroke-width="8.00" stroke-linecap="round"/>
<line x1="463.30" y1="532.72" x2="435.92" y2="545.82" stroke="#D32F2F" stroke-width="6.34" stroke-linecap="round"/>
<line x1="413.71" y1="543.56" x2="435.92" y2="545.82" stroke="#D32F2F" stroke-width="8.00" stroke-linecap="round"/>
<line x1="452.90" y1="550.25" x2="425.10" y2="561.10" stroke="#D32F2F" stroke-width="6.63" stroke-linecap="round"/>
<line x1="405.24" y1="557.83" x2="425.10" y2="561.10" stroke="#D32F2F" stroke-width="8.00" stroke-linecap="round"/>
<line x1="439.61" y1="565.13" x2="411.73" y2="573.96" stroke="#D32F2F" stroke-width="6.96" stroke-linecap="round"/>
<line x1="394.30" y1="570.08" x2="411.73" y2="573.96" stroke="#D32F2F" stroke-width="8.00" stroke-linecap="round"/>
<line x1="424.12" y1="577.40" x2="396.42" y2="584.47" stroke="#D32F2F" stroke-width="7.27" stroke-linecap="round"/>
<line x1="381.34" y1="580.33" x2="396.42" y2="584.47" stroke="#D32F2F" stroke-width="8.00" stroke-linecap="round"/>
<line x1="407.06" y1="587.14" x2="379.65" y2="592.71" stroke="#D32F2F" stroke-width="7.55" stroke-linecap="round"/>
<line x1="366.73" y1="588.67" x2="379.65" y2="592.71" stroke="#D32F2F" stroke-width="8.00" stroke-linecap="round"/>
<line x1="388.97" y1="594.50" x2="361.86" y2="598.78" stroke="#D32F2F" stroke-width="7.78" stroke-linecap="round"/>
<line x1="350.78" y1="595.15" x2="361.86" y2="598.78" stroke="#D32F2F" stroke-width="8.00" stroke-linecap="round"/>
<line x1="370.28" y1="599.60" x2="343.42" y2="602.77" stroke="#D32F2F" stroke-width="7.94" stroke-linecap="round"/>
<line x1="333.75" y1="599.80" x2="343.42" y2="602.77" stroke="#D32F2F" stroke-width="8.00" stroke-linecap="round"/>
<line x1="315.89" y1="602.61" x2="324.64" y2="604.75" stroke="#D32F2F" stroke-width="8.00" stroke-linecap="round"/>
<line x1="604.73" y1="322.18" x2="603.90" y2="291.20" stroke="#D32F2F" stroke-width="4.50" stroke-linecap="round"/>
<line x1="602.18" y1="306.77" x2="600.31" y2="276.17" stroke="#D32F2F" stroke-width="5.46" stroke-linecap="round"/>
<line x1="599.07" y1="257.45" x2="600.31" y2="276.17" stroke="#D32F2F" stroke-width="8.00" stroke-linecap="round"/>
<line x1="595.71" y1="287.97" x2="593.13" y2="258.13" stroke="#D32F2F" stroke-width="6.44" stroke-linecap="round"/>
<line x1="593.80" y1="242.15" x2="593.13" y2="258.13" stroke="#D32F2F" stroke-width="8.00" stroke-linecap="round"/>
<line x1="585.15" y1="266.15" x2="582.23" y2="237.47" stroke="#D32F2F" stroke-width="7.40" stroke-linecap="round"/>
<line x1="585.17" y1="224.31" x2="582.23" y2="237.47" stroke="#D32F2F" stroke-width="8.00" stroke-linecap="round"/>
<line x1="570.59" y1="241.95" x2="567.73" y2="214.82" stroke="#D32F2F" stroke-width="8.00" stroke-linecap="round"/>
<line x1="573.23" y1="204.48" x2="567.73" y2="214.82" stroke="#D32F2F" stroke-width="8.00" stroke-linecap="round"/>
<line x1="552.41" y1="216.25" x2="550.08" y2="191.02" stroke="#D32F2F" stroke-width="8.00" stroke-linecap="round"/>
<line x1="558.32" y1="183.39" x2="550.08" y2="191.02" stroke="#D32F2F" stroke-width="8.00" stroke-linecap="round"/>
<line x1="531.34" y1="190.04" x2="530.00" y2="167.02" stroke="#D32F2F" stroke-width="8.00" stroke-linecap="round"/>
<line x1="541.05" y1="161.92" x2="530.00" y2="167.02" stroke="#D32F2F" stroke-width="8.00" stroke-linecap="round"/>
<line x1="508.27" y1="164.30" x2="508.35" y2="143.70" stroke="#D32F2F" stroke-width="8.00" stroke-linecap="round"/>
<line x1="522.20" y1="140.88" x2="508.35" y2="143.70" stroke="#D32F2F" stroke-width="8.00" stroke-linecap="round"/>
<line x1="484.17" y1="139.88" x2="486.02" y2="121.81" stroke="#D32F2F" stroke-width="8.00" stroke-linecap="round"/>
<line x1="502.58" y1="121.00" x2="486.02" y2="121.81" stroke="#D32F2F" stroke-width="8.00" stroke-linecap="round"/>
<line x1="459.93" y1="117.40" x2="463.81" y2="101.87" stroke="#D32F2F" stroke-width="8.00" stroke-linecap="round"/>
<line x1="482.91" y1="102.76" x2="463.81" y2="101.87" stroke="#D32F2F" stroke-width="8.00" stroke-linecap="round"/>
<line x1="436.27" y1="97.28" x2="442.29" y2="84.18" stroke="#D32F2F" stroke-width="8.00" stroke-linecap="round"/>
<line x1="463.72" y1="86.44" x2="442.29" y2="84.18" stroke="#D32F2F" stroke-width="8.00" stroke-linecap="round"/>
<line x1="413.69" y1="79.75" x2="421.84" y2="68.90" stroke="#D32F2F" stroke-width="8.00" stroke-linecap="round"/>
<line x1="445.34" y1="72.17" x2="421.84" y2="68.90" stroke="#D32F2F" stroke-width="8.00" stroke-linecap="round"/>
<line x1="392.50" y1="64.87" x2="402.64" y2="56.04" stroke="#D32F2F" stroke-width="8.00" stroke-linecap="round"/>
<line x1="427.91" y1="59.92" x2="402.64" y2="56.04" stroke="#D32F2F" stroke-width="8.00" stroke-linecap="round"/>
<line x1="372.80" y1="52.60" x2="384.69" y2="45.53" stroke="#D32F2F" stroke-width="8.00" stroke-linecap="round"/>
<line x1="411.42" y1="49.67" x2="384.69" y2="45.53" stroke="#D32F2F" stroke-width="8.00" stroke-linecap="round"/>
<line x1="354.54" y1="42.86" x2="367.90" y2="37.29" stroke="#D32F2F" stroke-width="8.00" stroke-linecap="round"/>
<line x1="395.79" y1="41.33" x2="367.90" y2="37.29" stroke="#D32F2F" stroke-width="7.48" stroke-linecap="round"/>
<line x1="337.57" y1="35.50" x2="352.07" y2="31.22" stroke="#D32F2F" stroke-width="8.00" stroke-linecap="round"/>
<line x1="380.83" y1="34.85" x2="352.07" y2="31.22" stroke="#D32F2F" stroke-width="6.93" stroke-linecap="round"/>
<line x1="321.68" y1="30.40" x2="336.98" y2="27.23" stroke="#D32F2F" stroke-width="8.00" stroke-linecap="round"/>
<line x1="366.36" y1="30.20" x2="336.98" y2="27.23" stroke="#D32F2F" stroke-width="6.51" stroke-linecap="round"/>
<line x1="306.62" y1="27.41" x2="322.36" y2="25.25" stroke="#D32F2F" stroke-width="8.00" stroke-linecap="round"/>
<line x1="352.13" y1="27.39" x2="322.36" y2="25.25" stroke="#D32F2F" stroke-width="6.25" stroke-linecap="round"/>
<line x1="28.86" y1="269.96" x2="25.60" y2="300.69" stroke="#D32F2F" stroke-width="4.51" stroke-linecap="round"/>
<line x1="29.67" y1="279.64" x2="27.68" y2="310.50" stroke="#D32F2F" stroke-width="4.44" stroke-linecap="round"/>
<line x1="26.27" y1="334.12" x2="27.68" y2="310.50" stroke="#D32F2F" stroke-width="8.00" stroke-linecap="round"/>
<line x1="33.00" y1="286.64" x2="32.51" y2="317.30" stroke="#D32F2F" stroke-width="5.33" stroke-linecap="round"/>
<line x1="30.36" y1="342.72" x2="32.51" y2="317.30" stroke="#D32F2F" stroke-width="8.00" stroke-linecap="round"/>
<line x1="38.53" y1="291.23" x2="39.70" y2="321.43" stroke="#D32F2F" stroke-width="6.14" stroke-linecap="round"/>
<line x1="37.07" y1="348.31" x2="39.70" y2="321.43" stroke="#D32F2F" stroke-width="8.00" stroke-linecap="round"/>
<line x1="46.00" y1="293.73" x2="48.90" y2="323.29" stroke="#D32F2F" stroke-width="6.82" stroke-linecap="round"/>
<line x1="46.00" y1="351.29" x2="48.90" y2="323.29" stroke="#D32F2F" stroke-width="7.80" stroke-linecap="round"/>
<line x1="55.23" y1="294.45" x2="59.86" y2="323.31" stroke="#D32F2F" stroke-width="7.37" stroke-linecap="round"/>
<line x1="56.77" y1="352.14" x2="59.86" y2="323.31" stroke="#D32F2F" stroke-width="7.51" stroke-linecap="round"/>
<line x1="66.10" y1="293.74" x2="72.37" y2="321.92" stroke="#D32F2F" stroke-width="7.77" stroke-linecap="round"/>
<line x1="69.10" y1="351.34" x2="72.37" y2="321.92" stroke="#D32F2F" stroke-width="7.33" stroke-linecap="round"/>
<line x1="78.56" y1="291.94" x2="86.32" y2="319.55" stroke="#D32F2F" stroke-width="8.00" stroke-linecap="round"/>
<line x1="82.77" y1="349.36" x2="86.32" y2="319.55" stroke="#D32F2F" stroke-width="7.27" stroke-linecap="round"/>
<line x1="92.62" y1="289.37" x2="101.62" y2="316.61" stroke="#D32F2F" stroke-width="8.00" stroke-linecap="round"/>
<line x1="97.65" y1="346.65" x2="101.62" y2="316.61" stroke="#D32F2F" stroke-width="7.31" stroke-linecap="round"/>
<line x1="108.29" y1="286.39" x2="118.23" y2="313.49" stroke="#D32F2F" stroke-width="8.00" stroke-linecap="round"/>
<line x1="113.62" y1="343.61" x2="118.23" y2="313.49" stroke="#D32F2F" stroke-width="7.44" stroke-linecap="round"/>
<line x1="125.64" y1="283.35" x2="136.14" y2="310.56" stroke="#D32F2F" stroke-width="8.00" stroke-linecap="round"/>
<line x1="130.64" y1="340.63" x2="136.14" y2="310.56" stroke="#D32F2F" stroke-width="7.67" stroke-linecap="round"/>
<line x1="144.74" y1="280.64" x2="155.37" y2="308.19" stroke="#D32F2F" stroke-width="8.00" stroke-linecap="round"/>
<line x1="148.67" y1="338.06" x2="155.37" y2="308.19" stroke="#D32F2F" stroke-width="7.98" stroke-linecap="round"/>
<line x1="165.63" y1="278.66" x2="175.92" y2="306.76" stroke="#D32F2F" stroke-width="8.00" stroke-linecap="round"/>
<line x1="167.71" y1="336.26" x2="175.92" y2="306.76" stroke="#D32F2F" stroke-width="8.00" stroke-linecap="round"/>
<line x1="188.36" y1="277.86" x2="197.80" y2="306.65" stroke="#D32F2F" stroke-width="8.00" stroke-linecap="round"/>
<line x1="187.74" y1="335.55" x2="197.80" y2="306.65" stroke="#D32F2F" stroke-width="8.00" stroke-linecap="round"/>
<line x1="212.91" y1="278.71" x2="220.98" y2="308.23" stroke="#D32F2F" stroke-width="8.00" stroke-linecap="round"/>
<line x1="208.76" y1="336.27" x2="220.98" y2="308.23" stroke="#D32F2F" stroke-width="8.00" stroke-linecap="round"/>
<line x1="239.18" y1="281.69" x2="245.38" y2="311.88" stroke="#D32F2F" stroke-width="8.00" stroke-linecap="round"/>
<line x1="230.74" y1="338.77" x2="245.38" y2="311.88" stroke="#D32F2F" stroke-width="8.00" stroke-linecap="round"/>
<line x1="266.95" y1="287.28" x2="270.83" y2="317.99" stroke="#D32F2F" stroke-width="8.00" stroke-linecap="round"/>
<line x1="253.58" y1="343.36" x2="270.83" y2="317.99" stroke="#D32F2F" stroke-width="8.00" stroke-linecap="round"/>
<line x1="295.84" y1="295.88" x2="297.01" y2="326.88" stroke="#D32F2F" stroke-width="8.00" stroke-linecap="round"/>
<line x1="277.10" y1="350.36" x2="297.01" y2="326.88" stroke="#D32F2F" stroke-width="8.00" stroke-linecap="round"/>
<line x1="325.28" y1="307.82" x2="323.46" y2="338.80" stroke="#D32F2F" stroke-width="8.00" stroke-linecap="round"/>
<line x1="300.99" y1="360.04" x2="323.46" y2="338.80" stroke="#D32F2F" stroke-width="8.00" stroke-linecap="round"/>
<line x1="354.52" y1="323.23" x2="349.48" y2="353.83" stroke="#D32F2F" stroke-width="8.00" stroke-linecap="round"/>
<line x1="324.71" y1="372.55" x2="349.48" y2="353.83" stroke="#D32F2F" stroke-width="8.00" stroke-linecap="round"/>
<line x1="382.60" y1="342.03" x2="374.24" y2="371.87" stroke="#D32F2F" stroke-width="8.00" stroke-linecap="round"/>
<line x1="347.57" y1="387.85" x2="374.24" y2="371.87" stroke="#D32F2F" stroke-width="8.00" stroke-linecap="round"/>
<line x1="408.44" y1="363.85" x2="396.73" y2="392.53" stroke="#D32F2F" stroke-width="8.00" stroke-linecap="round"/>
<line x1="368.68" y1="405.69" x2="396.73" y2="392.53" stroke="#D32F2F" stroke-width="8.00" stroke-linecap="round"/>
<line x1="430.93" y1="388.05" x2="415.95" y2="415.18" stroke="#D32F2F" stroke-width="8.00" stroke-linecap="round"/>
<line x1="387.11" y1="425.52" x2="415.95" y2="415.18" stroke="#D32F2F" stroke-width="8.00" stroke-linecap="round"/>
<line x1="449.10" y1="413.75" x2="431.04" y2="438.98" stroke="#D32F2F" stroke-width="7.81" stroke-linecap="round"/>
<line x1="402.02" y1="446.61" x2="431.04" y2="438.98" stroke="#D32F2F" stroke-width="8.00" stroke-linecap="round"/>
<line x1="462.25" y1="439.96" x2="441.40" y2="462.98" stroke="#D32F2F" stroke-width="6.90" stroke-linecap="round"/>
<line x1="412.80" y1="468.08" x2="441.40" y2="462.98" stroke="#D32F2F" stroke-width="8.00" stroke-linecap="round"/>
<line x1="470.04" y1="465.70" x2="446.81" y2="486.30" stroke="#D32F2F" stroke-width="6.11" stroke-linecap="round"/>
<line x1="419.17" y1="489.12" x2="446.81" y2="486.30" stroke="#D32F2F" stroke-width="8.00" stroke-linecap="round"/>
<line x1="472.53" y1="490.12" x2="447.40" y2="508.19" stroke="#D32F2F" stroke-width="6.03" stroke-linecap="round"/>
<line x1="421.20" y1="509.00" x2="447.40" y2="508.19" stroke="#D32F2F" stroke-width="8.00" stroke-linecap="round"/>
<line x1="470.08" y1="512.60" x2="443.57" y2="528.13" stroke="#D32F2F" stroke-width="6.12" stroke-linecap="round"/>
<line x1="419.21" y1="527.24" x2="443.57" y2="528.13" stroke="#D32F2F" stroke-width="8.00" stroke-linecap="round"/>
<line x1="463.30" y1="532.72" x2="435.92" y2="545.82" stroke="#D32F2F" stroke-width="6.34" stroke-linecap="round"/>
<line x1="413.71" y1="543.56" x2="435.92" y2="545.82" stroke="#D32F2F" stroke-width="8.00" stroke-linecap="round"/>
<line x1="452.90" y1="550.25" x2="425.10" y2="561.10" stroke="#D32F2F" stroke-width="6.63" stroke-linecap="round"/>
<line x1="405.24" y1="557.83" x2="425.10" y2="561.10" stroke="#D32F2F" stroke-width="8.00" stroke-linecap="round"/>
<line x1="439.61" y1="565.13" x2="411.73" y2="573.96" stroke="#D32F2F" stroke-width="6.96" stroke-linecap="round"/>
<line x1="394.30" y1="570.08" x2="411.73" y2="573.96" stroke="#D32F2F" stroke-width="8.00" stroke-linecap="round"/>
<line x1="424.12" y1="577.40" x2="396.42" y2="584.47" stroke="#D32F2F" stroke-width="7.27" stroke-linecap="round"/>
<line x1="381.34" y1="580.33" x2="396.42" y2="584.47" stroke="#D32F2F" stroke-width="8.00" stroke-linecap="round"/>
<line x1="407.06" y1="587.14" x2="379.65" y2="592.71" stroke="#D32F2F" stroke-width="7.55" stroke-linecap="round"/>
<line x1="366.73" y1="588.67" x2="379.65" y2="592.71" stroke="#D32F2F" stroke-width="8.00" stroke-linecap="round"/>
<line x1="388.97" y1="594.50" x2="361.86" y2="598.78" stroke="#D32F2F" stroke-width="7.78" stroke-linecap="round"/>
<line x1="350.78" y1="595.15" x2="361.86" y2="598.78" stroke="#D32F2F" stroke-width="8.00" stroke-linecap="round"/>
<line x1="370.28" y1="599.60" x2="343.42" y2="602.77" stroke="#D32F2F" stroke-width="7.94" stroke-linecap="round"/>
<line x1="333.75" y1="599.80" x2="343.42" y2="602.77" stroke="#D32F2F" stroke-width="8.00" stroke-linecap="round"/>
<line x1="315.89" y1="602.61" x2="324.64" y2="604.75" stroke="#D32F2F" stroke-width="8.00" stroke-linecap="round"/>
</svg>