<svg width="630.0" height="630.0" viewBox="0 0 630.0 630.0" xmlns="http://www.w3.org/2000/svg">
<circle cx="315.0" cy="315.0" r="290.0" fill="#FDFDF5" stroke="#ccc" stroke-width="0.5"/>
<line x1="470.50" y1="559.76" x2="444.61" y2="574.13" stroke="#D32F2F" stroke-width="6.33" stroke-linecap="round"/>
<line x1="417.75" y1="584.58" x2="443.87" y2="571.71" stroke="#D32F2F" stroke-width="6.79" stroke-linecap="round"/>
<line x1="469.40" y1="558.88" x2="443.87" y2="571.71" stroke="#D32F2F" stroke-width="7.15" stroke-linecap="round"/>
<line x1="417.68" y1="579.90" x2="444.24" y2="566.08" stroke="#D32F2F" stroke-width="6.24" stroke-linecap="round"/>
<line x1="469.34" y1="555.02" x2="444.24" y2="566.08" stroke="#D32F2F" stroke-width="7.87" stroke-linecap="round"/>
<line x1="418.60" y1="572.19" x2="445.44" y2="557.72" stroke="#D32F2F" stroke-width="5.81" stroke-linecap="round"/>
<line x1="470.11" y1="548.56" x2="445.44" y2="557.72" stroke="#D32F2F" stroke-width="8.00" stroke-linecap="round"/>
<line x1="420.18" y1="561.97" x2="447.15" y2="547.06" stroke="#D32F2F" stroke-width="5.51" stroke-linecap="round"/>
<line x1="471.47" y1="539.81" x2="447.15" y2="547.06" stroke="#D32F2F" stroke-width="8.00" stroke-linecap="round"/>
<line x1="422.09" y1="549.72" x2="449.06" y2="534.44" stroke="#D32F2F" stroke-width="5.34" stroke-linecap="round"/>
<line x1="473.15" y1="529.01" x2="449.06" y2="534.44" stroke="#D32F2F" stroke-width="8.00" stroke-linecap="round"/>
<line x1="424.00" y1="535.81" x2="450.84" y2="520.16" stroke="#D32F2F" stroke-width="5.29" stroke-linecap="round"/>
<line x1="474.89" y1="516.33" x2="450.84" y2="520.16" stroke="#D32F2F" stroke-width="8.00" stroke-linecap="round"/>
<line x1="425.58" y1="520.56" x2="452.19" y2="504.46" stroke="#D32F2F" stroke-width="5.76" stroke-linecap="round"/>
<line x1="476.38" y1="501.91" x2="452.19" y2="504.46" stroke="#D32F2F" stroke-width="8.00" stroke-linecap="round"/>
<line x1="426.54" y1="504.22" x2="452.77" y2="487.53" stroke="#D32F2F" stroke-width="6.34" stroke-linecap="round"/>
<line x1="477.32" y1="485.88" x2="452.77" y2="487.53" stroke="#D32F2F" stroke-width="8.00" stroke-linecap="round"/>
<line x1="426.57" y1="487.00" x2="452.27" y2="469.53" stroke="#D32F2F" stroke-width="6.87" stroke-linecap="round"/>
<line x1="477.35" y1="468.33" x2="452.27" y2="469.53" stroke="#D32F2F" stroke-width="8.00" stroke-linecap="round"/>
<line x1="425.40" y1="469.08" x2="450.37" y2="450.62" stroke="#D32F2F" stroke-width="7.37" stroke-linecap="round"/>
<line x1="476.10" y1="449.36" x2="450.37" y2="450.62" stroke="#D32F2F" stroke-width="8.00" stroke-linecap="round"/>
<line x1="422.72" y1="450.61" x2="446.72" y2="430.91" stroke="#D32F2F" stroke-width="7.83" stroke-linecap="round"/>
<line x1="473.17" y1="429.07" x2="446.72" y2="430.91" stroke="#D32F2F" stroke-width="8.00" stroke-linecap="round"/>
<line x1="418.26" y1="431.71" x2="440.98" y2="410.58" stroke="#D32F2F" stroke-width="8.00" stroke-linecap="round"/>
<line x1="468.09" y1="407.64" x2="440.98" y2="410.58" stroke="#D32F2F" stroke-width="8.00" stroke-linecap="round"/>
<line x1="411.70" y1="412.55" x2="432.78" y2="389.80" stroke="#D32F2F" stroke-width="8.00" stroke-linecap="round"/>
<line x1="460.43" y1="385.26" x2="432.78" y2="389.80" stroke="#D32F2F" stroke-width="8.00" stroke-linecap="round"/>
<line x1="402.74" y1="393.30" x2="421.76" y2="368.81" stroke="#D32F2F" stroke-width="8.00" stroke-linecap="round"/>
<line x1="449.71" y1="362.25" x2="421.76" y2="368.81" stroke="#D32F2F" stroke-width="8.00" stroke-linecap="round"/>
<line x1="391.06" y1="374.16" x2="407.60" y2="347.93" stroke="#D32F2F" stroke-width="8.00" stroke-linecap="round"/>
<line x1="435.52" y1="338.99" x2="407.60" y2="347.93" stroke="#D32F2F" stroke-width="8.00" stroke-linecap="round"/>
<line x1="376.41" y1="355.46" x2="390.03" y2="327.59" stroke="#D32F2F" stroke-width="8.00" stroke-linecap="round"/>
<line x1="417.52" y1="316.03" x2="390.03" y2="327.59" stroke="#D32F2F" stroke-width="8.00" stroke-linecap="round"/>
<line x1="358.59" y1="337.60" x2="368.93" y2="308.34" stroke="#D32F2F" stroke-width="8.00" stroke-linecap="round"/>
<line x1="395.55" y1="294.00" x2="368.93" y2="308.34" stroke="#D32F2F" stroke-width="8.00" stroke-linecap="round"/>
<line x1="337.57" y1="321.12" x2="344.37" y2="290.84" stroke="#D32F2F" stroke-width="8.00" stroke-linecap="round"/>
<line x1="369.65" y1="273.69" x2="344.37" y2="290.84" stroke="#D32F2F" stroke-width="8.00" stroke-linecap="round"/>
<line x1="313.60" y1="306.67" x2="316.72" y2="275.83" stroke="#D32F2F" stroke-width="8.00" stroke-linecap="round"/>
<line x1="340.20" y1="255.94" x2="316.72" y2="275.83" stroke="#D32F2F" stroke-width="8.00" stroke-linecap="round"/>
<line x1="287.19" y1="294.94" x2="286.68" y2="264.07" stroke="#D32F2F" stroke-width="8.00" stroke-linecap="round"/>
<line x1="307.89" y1="241.59" x2="286.68" y2="264.07" stroke="#D32F2F" stroke-width="8.00" stroke-linecap="round"/>
<line x1="259.22" y1="286.58" x2="255.23" y2="256.21" stroke="#D32F2F" stroke-width="8.00" stroke-linecap="round"/>
<line x1="273.75" y1="231.39" x2="255.23" y2="256.21" stroke="#D32F2F" stroke-width="8.00" stroke-linecap="round"/>
<line x1="230.75" y1="282.03" x2="223.58" y2="252.69" stroke="#D32F2F" stroke-width="8.00" stroke-linecap="round"/>
<line x1="239.06" y1="225.84" x2="223.58" y2="252.69" stroke="#D32F2F" stroke-width="8.00" stroke-linecap="round"/>
<line x1="202.96" y1="281.48" x2="192.98" y2="253.63" stroke="#D32F2F" stroke-width="8.00" stroke-linecap="round"/>
<line x1="205.15" y1="225.17" x2="192.98" y2="253.63" stroke="#D32F2F" stroke-width="8.00" stroke-linecap="round"/>
<line x1="176.90" y1="284.82" x2="164.55" y2="258.86" stroke="#D32F2F" stroke-width="8.00" stroke-linecap="round"/>
<line x1="173.25" y1="229.26" x2="164.55" y2="258.86" stroke="#D32F2F" stroke-width="8.00" stroke-linecap="round"/>
<line x1="153.37" y1="291.68" x2="139.11" y2="267.94" stroke="#D32F2F" stroke-width="8.00" stroke-linecap="round"/>
<line x1="144.36" y1="237.69" x2="139.11" y2="267.94" stroke="#D32F2F" stroke-width="7.75" stroke-linecap="round"/>
<line x1="132.88" y1="301.52" x2="117.17" y2="280.24" stroke="#D32F2F" stroke-width="8.00" stroke-linecap="round"/>
<line x1="119.10" y1="249.82" x2="117.17" y2="280.24" stroke="#D32F2F" stroke-width="7.56" stroke-linecap="round"/>
<line x1="115.61" y1="313.78" x2="98.93" y2="295.08" stroke="#D32F2F" stroke-width="8.00" stroke-linecap="round"/>
<line x1="97.80" y1="264.93" x2="98.93" y2="295.08" stroke="#D32F2F" stroke-width="7.49" stroke-linecap="round"/>
<line x1="101.53" y1="327.89" x2="84.36" y2="311.81" stroke="#D32F2F" stroke-width="8.00" stroke-linecap="round"/>
<line x1="80.51" y1="282.26" x2="84.36" y2="311.81" stroke="#D32F2F" stroke-width="7.49" stroke-linecap="round"/>
<line x1="90.48" y1="343.39" x2="73.26" y2="329.83" stroke="#D32F2F" stroke-width="8.00" stroke-linecap="round"/>
<line x1="67.08" y1="301.10" x2="73.26" y2="329.83" stroke="#D32F2F" stroke-width="7.54" stroke-linecap="round"/>
<line x1="82.23" y1="359.90" x2="65.34" y2="348.63" stroke="#D32F2F" stroke-width="8.00" stroke-linecap="round"/>
<line x1="57.22" y1="320.82" x2="65.34" y2="348.63" stroke="#D32F2F" stroke-width="7.61" stroke-linecap="round"/>
<line x1="76.55" y1="377.10" x2="60.30" y2="367.80" stroke="#D32F2F" stroke-width="8.00" stroke-linecap="round"/>
<line x1="50.58" y1="340.91" x2="60.30" y2="367.80" stroke="#D32F2F" stroke-width="7.66" stroke-linecap="round"/>
<line x1="73.23" y1="394.75" x2="57.83" y2="386.98" stroke="#D32F2F" stroke-width="8.00" stroke-linecap="round"/>
<line x1="46.80" y1="360.93" x2="57.83" y2="386.98" stroke="#D32F2F" stroke-width="7.68" stroke-linecap="round"/>
<line x1="72.06" y1="412.61" x2="57.64" y2="405.88" stroke="#D32F2F" stroke-width="8.00" stroke-linecap="round"/>
<line x1="45.51" y1="380.54" x2="57.64" y2="405.88" stroke="#D32F2F" stroke-width="7.66" stroke-linecap="round"/>
<line x1="72.90" y1="430.48" x2="59.48" y2="424.26" stroke="#D32F2F" stroke-width="8.00" stroke-linecap="round"/>
<line x1="46.40" y1="399.46" x2="59.48" y2="424.26" stroke="#D32F2F" stroke-width="7.58" stroke-linecap="round"/>
<line x1="75.62" y1="448.14" x2="63.10" y2="441.89" stroke="#D32F2F" stroke-width="8.00" stroke-linecap="round"/>
<line x1="49.16" y1="417.46" x2="63.10" y2="441.89" stroke="#D32F2F" stroke-width="7.45" stroke-linecap="round"/>
<line x1="80.08" y1="465.34" x2="68.32" y2="458.55" stroke="#D32F2F" stroke-width="8.00" stroke-linecap="round"/>
<line x1="53.53" y1="434.33" x2="68.32" y2="458.55" stroke="#D32F2F" stroke-width="7.27" stroke-linecap="round"/>
<line x1="86.19" y1="481.82" x2="74.96" y2="474.00" stroke="#D32F2F" stroke-width="8.00" stroke-linecap="round"/>
<line x1="59.30" y1="449.91" x2="74.96" y2="474.00" stroke="#D32F2F" stroke-width="7.02" stroke-linecap="round"/>
<line x1="93.84" y1="497.26" x2="82.87" y2="488.01" stroke="#D32F2F" stroke-width="8.00" stroke-linecap="round"/>
<line x1="66.27" y1="463.98" x2="82.87" y2="488.01" stroke="#D32F2F" stroke-width="6.70" stroke-linecap="round"/>
<line x1="177.42" y1="59.94" x2="204.69" y2="46.83" stroke="#D32F2F" stroke-width="5.78" stroke-linecap="round"/>
<line x1="195.44" y1="53.28" x2="222.40" y2="41.44" stroke="#D32F2F" stroke-width="6.66" stroke-linecap="round"/>
<line x1="254.22" y1="32.04" x2="244.04" y2="37.80" stroke="#D32F2F" stroke-width="8.00" stroke-linecap="round"/>
<line x1="217.86" y1="48.44" x2="244.04" y2="37.80" stroke="#D32F2F" stroke-width="7.55" stroke-linecap="round"/>
<line x1="275.91" y1="29.90" x2="269.40" y2="36.24" stroke="#D32F2F" stroke-width="8.00" stroke-linecap="round"/>
<line x1="244.50" y1="45.82" x2="269.40" y2="36.24" stroke="#D32F2F" stroke-width="8.00" stroke-linecap="round"/>
<line x1="300.69" y1="29.87" x2="297.94" y2="37.09" stroke="#D32F2F" stroke-width="8.00" stroke-linecap="round"/>
<line x1="274.83" y1="45.77" x2="297.94" y2="37.09" stroke="#D32F2F" stroke-width="8.00" stroke-linecap="round"/>
<line x1="327.82" y1="32.11" x2="328.78" y2="40.49" stroke="#D32F2F" stroke-width="8.00" stroke-linecap="round"/>
<line x1="307.93" y1="48.51" x2="328.78" y2="40.49" stroke="#D32F2F" stroke-width="8.00" stroke-linecap="round"/>
<line x1="356.29" y1="36.66" x2="360.76" y2="46.42" stroke="#D32F2F" stroke-width="8.00" stroke-linecap="round"/>
<line x1="342.63" y1="54.05" x2="360.76" y2="46.42" stroke="#D32F2F" stroke-width="8.00" stroke-linecap="round"/>
<line x1="384.92" y1="43.33" x2="392.62" y2="54.64" stroke="#D32F2F" stroke-width="8.00" stroke-linecap="round"/>
<line x1="377.57" y1="62.19" x2="392.62" y2="54.64" stroke="#D32F2F" stroke-width="8.00" stroke-linecap="round"/>
<line x1="412.61" y1="51.75" x2="423.17" y2="64.71" stroke="#D32F2F" stroke-width="8.00" stroke-linecap="round"/>
<line x1="411.45" y1="72.50" x2="423.17" y2="64.71" stroke="#D32F2F" stroke-width="8.00" stroke-linecap="round"/>
<line x1="438.42" y1="61.47" x2="451.43" y2="76.13" stroke="#D32F2F" stroke-width="8.00" stroke-linecap="round"/>
<line x1="443.16" y1="84.44" x2="451.43" y2="76.13" stroke="#D32F2F" stroke-width="8.00" stroke-linecap="round"/>
<line x1="461.73" y1="72.03" x2="476.76" y2="88.37" stroke="#D32F2F" stroke-width="8.00" stroke-linecap="round"/>
<line x1="471.88" y1="97.46" x2="476.76" y2="88.37" stroke="#D32F2F" stroke-width="8.00" stroke-linecap="round"/>
<line x1="482.21" y1="83.05" x2="498.78" y2="101.02" stroke="#D32F2F" stroke-width="8.00" stroke-linecap="round"/>
<line x1="497.14" y1="111.04" x2="498.78" y2="101.02" stroke="#D32F2F" stroke-width="8.00" stroke-linecap="round"/>
<line x1="499.78" y1="94.24" x2="517.42" y2="113.76" stroke="#D32F2F" stroke-width="8.00" stroke-linecap="round"/>
<line x1="518.72" y1="124.79" x2="517.42" y2="113.76" stroke="#D32F2F" stroke-width="8.00" stroke-linecap="round"/>
<line x1="514.52" y1="105.48" x2="532.77" y2="126.43" stroke="#D32F2F" stroke-width="7.58" stroke-linecap="round"/>
<line x1="536.64" y1="138.44" x2="532.77" y2="126.43" stroke="#D32F2F" stroke-width="8.00" stroke-linecap="round"/>
<line x1="526.60" y1="116.72" x2="545.01" y2="138.97" stroke="#D32F2F" stroke-width="6.90" stroke-linecap="round"/>
<line x1="551.08" y1="151.88" x2="545.01" y2="138.97" stroke="#D32F2F" stroke-width="8.00" stroke-linecap="round"/>
<line x1="470.50" y1="559.76" x2="444.61" y2="574.13" stroke="#D32F2F" stroke-width="6.33" stroke-linecap="round"/>
<line x1="417.75" y1="584.58" x2="443.87" y2="571.71" stroke="#D32F2F" stroke-width="6.79" stroke-linecap="round"/>
<line x1="469.40" y1="558.88" x2="443.87" y2="571.71" stroke="#D32F2F" stroke-width="7.15" stroke-linecap="round"/>
<line x1="417.68" y1="579.90" x2="444.24" y2="566.08" stroke="#D32F2F" stroke-width="6.24" stroke-linecap="round"/>
<line x1="469.34" y1="555.02" x2="444.24" y2="566.08" stroke="#D32F2F" stroke-width="7.87" stroke-linecap="round"/>
<line x1="418.60" y1="572.19" x2="445.44" y2="557.72" stroke="#D32F2F" stroke-width="5.81" stroke-linecap="round"/>
<line x1="470.11" y1="548.56" x2="445.44" y2="557.72" stroke="#D32F2F" stroke-width="8.00" stroke-linecap="round"/>
<line x1="420.18" y1="561.97" x2="447.15" y2="547.06" stroke="#D32F2F" stroke-width="5.51" stroke-linecap="round"/>
<line x1="471.47" y1="539.81" x2="447.15" y2="547.06" stroke="#D32F2F" stroke-width="8.00" stroke-linecap="round"/>
<line x1="422.09" y1="549.72" x2="449.06" y2="534.44" stroke="#D32F2F" stroke-width="5.34" stroke-linecap="round"/>
<line x1="473.15" y1="529.01" x2="449.06" y2="534.44" stroke="#D32F2F" stroke-width="8.00" stroke-linecap="round"/>
<line x1="424.00" y1="535.81" x2="450.84" y2="520.16" stroke="#D32F2F" stroke-width="5.29" stroke-linecap="round"/>
<line x1="474.89" y1="516.33" x2="450.84" y2="520.16" stroke="#D32F2F" stroke-width="8.00" stroke-linecap="round"/>
<line x1="425.58" y1="520.56" x2="452.19" y2="504.46" stroke="#D32F2F" stroke-width="5.76" stroke-linecap="round"/>
<line x1="476.38" y1="501.91" x2="452.19" y2="504.46" stroke="#D32F2F" stroke-width="8.00" stroke-linecap="round"/>
<line x1="426.54" y1="504.22" x2="452.77" y2="487.53" stroke="#D32F2F" stroke-width="6.34" stroke-linecap="round"/>
<line x1="477.32" y1="485.88" x2="452.77" y2="487.53" stroke="#D32F2F" stroke-width="8.00" stroke-linecap="round"/>
<line x1="426.57" y1="487.00" x2="452.27" y2="469.53" stroke="#D32F2F" stroke-width="6.87" stroke-linecap="round"/>
<line x1="477.35" y1="468.33" x2="452.27" y2="469.53" stroke="#D32F2F" stroke-width="8.00" stroke-linecap="round"/>
<line x1="425.40" y1="469.08" x2="450.37" y2="450.62" stroke="#D32F2F" stroke-width="7.37" stroke-linecap="round"/>
<line x1="476.10" y1="449.36" x2="450.37" y2="450.62" stroke="#D32F2F" stroke-width="8.00" stroke-linecap="round"/>
<line x1="422.72" y1="450.61" x2="446.72" y2="430.91" stroke="#D32F2F" stroke-width="7.83" stroke-linecap="round"/>
<line x1="473.17" y1="429.07" x2="446.72" y2="430.91" stroke="#D32F2F" stroke-width="8.00" stroke-linecap="round"/>
<line x1="418.26" y1="431.71" x2="440.98" y2="410.58" stroke="#D32F2F" stroke-width="8.00" stroke-linecap="round"/>
<line x1="468.09" y1="407.64" x2="440.98" y2="410.58" stroke="#D32F2F" stroke-width="8.00" stroke-linecap="round"/>
<line x1="411.70" y1="412.55" x2="432.78" y2="389.80" stroke="#D32F2F" stroke-width="8.00" stroke-linecap="round"/>
<line x1="460.43" y1="385.26" x2="432.78" y2="389.80" stroke="#D32F2F" stroke-width="8.00" stroke-linecap="round"/>
<line x1="402.74" y1="393.30" x2="421.76" y2="368.81" stroke="#D32F2F" stroke-width="8.00" stroke-linecap="round"/>
<line x1="449.71" y1="362.25" x2="421.76" y2="368.81" stroke="#D32F2F" stroke-width="8.00" stroke-linecap="round"/>
<line x1="391.06" y1="374.16" x2="407.60" y2="347.93" stroke="#D32F2F" stroke-width="8.00" stroke-linecap="round"/>
<line x1="435.52" y1="338.99" x2="407.60" y2="347.93" stroke="#D32F2F" stroke-width="8.00" stroke-linecap="round"/>
<line x1="376.41" y1="355.46" x2="390.03" y2="327.59" stroke="#D32F2F" stroke-width="8.00" stroke-linecap="round"/>
<line x1="417.52" y1="316.03" x2="390.03" y2="327.59" stroke="#D32F2F" stroke-width="8.00" stroke-linecap="round"/>
<line x1="358.59" y1="337.60" x2="368.93" y2="308.34" stroke="#D32F2F" stroke-width="8.00" stroke-linecap="round"/>
<line x1="395.55" y1="294.00" x2="368.93" y2="308.34" stroke="#D32F2F" stroke-width="8.00" stroke-linecap="round"/>
<line x1="337.57" y1="321.12" x2="344.37" y2="290.84" stroke="#D32F2F" stroke-width="8.00" stroke-linecap="round"/>
<line x1="369.65" y1="273.69" x2="344.37" y2="290.84" stroke="#D32F2F" stroke-width="8.00" stroke-linecap="round"/>
<line x1="313.60" y1="306.67" x2="316.72" y2="275.83" stroke="#D32F2F" stroke-width="8.00" stroke-linecap="round"/>
<line x1="340.20" y1="255.94" x2="316.72" y2="275.83" stroke="#D32F2F" stroke-width="8.00" stroke-linecap="round"/>
<line x1="287.19" y1="294.94" x2="286.68" y2="264.07" stroke="#D32F2F" stroke-width="8.00" stroke-linecap="round"/>
<line x1="307.89" y1="241.59" x2="286.68" y2="264.07" stroke="#D32F2F" stroke-width="8.00" stroke-linecap="round"/>
<line x1="259.22" y1="286.58" x2="255.23" y2="256.21" stroke="#D32F2F" stroke-width="8.00" stroke-linecap="round"/>
<line x1="273.75" y1="231.39" x2="255.23" y2="256.21" stroke="#D32F2F" stroke-width="8.00" stroke-linecap="round"/>
<line x1="230.75" y1="282.03" x2="223.58" y2="252.69" stroke="#D32F2F" stroke-width="8.00" stroke-linecap="round"/>
<line x1="239.06" y1="225.84" x2="223.58" y2="252.69" stroke="#D32F2F" stroke-width="8.00" stroke-linecap="round"/>
<line x1="202.96" y1="281.48" x2="192.98" y2="253.63" stroke="#D32F2F" stroke-width="8.00" stroke-linecap="round"/>
<line x1="205.15" y1="225.17" x2="192.98" y2="253.63" stroke="#D32F2F" stroke-width="8.00" stroke-linecap="round"/>
<line x1="176.90" y1="284.82" x2="164.55" y2="258.86" stroke="#D32F2F" stroke-width="8.00" stroke-linecap="round"/>
<line x1="173.25" y1="229.26" x2="164.55" y2="258.86" stroke="#D32F2F" stroke-width="8.00" stroke-linecap="round"/>
<line x1="153.37" y1="291.68" x2="139.11" y2="267.94" stroke="#D32F2F" stroke-width="8.00" stroke-linecap="round"/>
<line x1="144.36" y1="237.69" x2="139.11" y2="267.94" stroke="#D32F2F" stroke-width="7.75" stroke-linecap="round"/>
<line x1="132.88" y1="301.52" x2="117.17" y2="280.24" stroke="#D32F2F" stroke-width="8.00" stroke-linecap="round"/>
<line x1="119.10" y1="249.82" x2="117.17" y2="280.24" stroke="#D32F2F" stroke-width="7.56" stroke-linecap="round"/>
<line x1="115.61" y1="313.78" x2="98.93" y2="295.08" stroke="#D32F2F" stroke-width="8.00" stroke-linecap="round"/>
<line x1="97.80" y1="264.93" x2="98.93" y2="295.08" stroke="#D32F2F" stroke-width="7.49" stroke-linecap="round"/>
<line x1="101.53" y1="327.89" x2="84.36" y2="311.81" stroke="#D32F2F" stroke-width="8.00" stroke-linecap="round"/>
<line x1="80.51" y1="282.26" x2="84.36" y2="311.81" stroke="#D32F2F" stroke-width="7.49" stroke-linecap="round"/>
<line x1="90.48" y1="343.39" x2="73.26" y2="329.83" stroke="#D32F2F" stroke-width="8.00" stroke-linecap="round"/>
<line x1="67.08" y1="301.10" x2="73.26" y2="329.83" stroke="#D32F2F" stroke-width="7.54" stroke-linecap="round"/>
<line x1="82.23" y1="359.90" x2="65.34" y2="348.63" stroke="#D32F2F" stroke-width="8.00" stroke-linecap="round"/>
<line x1="57.22" y1="320.82" x2="65.34" y2="348.63" stroke="#D32F2F" stroke-width="7.61" stroke-linecap="round"/>
<line x1="76.55" y1="377.10" x2="60.30" y2="367.80" stroke="#D32F2F" stroke-width="8.00" stroke-linecap="round"/>
<line x1="50.58" y1="340.91" x2="60.30" y2="367.80" stroke="#D32F2F" stroke-width="7.66" stroke-linecap="round"/>
<line x1="73.23" y1="394.75" x2="57.83" y2="386.98" stroke="#D32F2F" stroke-width="8.00" stroke-linecap="round"/>
<line x1="46.80" y1="360.93" x2="57.83" y2="386.98" stroke="#D32F2F" stroke-width="7.68" stroke-linecap="round"/>
<line x1="72.06" y1="412.61" x2="57.64" y2="405.88" stroke="#D32F2F" stroke-width="8.00" stroke-linecap="round"/>
<line x1="45.51" y1="380.54" x2="57.64" y2="405.88" stroke="#D32F2F" stroke-width="7.66" stroke-linecap="round"/>
<line x1="72.90" y1="430.48" x2="59.48" y2="424.26" stroke="#D32F2F" stroke-width="8.00" stroke-linecap="round"/>
<line x1="46.40" y1="399.46" x2="59.48" y2="424.26" stroke="#D32F2F" stroke-width="7.58" stroke-linecap="round"/>
<line x1="75.62" y1="448.14" x2="63.10" y2="441.89" stroke="#D32F2F" stroke-width="8.00" stroke-linecap="round"/>
<line x1="49.16" y1="417.46" x2="63.10" y2="441.89" stroke="#D32F2F" stroke-width="7.45" stroke-linecap="round"/>
<line x1="80.08" y1="465.34" x2="68.32" y2="458.55" stroke="#D32F2F" stroke-width="8.00" stroke-linecap="round"/>
<line x1="53.53" y1="434.33" x2="68.32" y2="458.55" stroke="#D32F2F" stroke-width="7.27" stroke-linecap="round"/>
<line x1="86.19" y1="481.82" x2="74.96" y2="474.00" stroke="#D32F2F" stroke-width="8.00" stroke-linecap="round"/>
<line x1="59.30" y1="449.91" x2="74.96" y2="474.00" stroke="#D32F2F" stroke-width="7.02" stroke-linecap="round"/>
<line x1="93.84" y1="497.26" x2="82.87" y2="488.01" stroke="#D32F2F" stroke-width="8.00" stroke-linecap="round"/>
<line x1="66.27" y1="463.98" x2="82.87" y2="488.01" stroke="#D32F2F" stroke-width="6.70" stroke-linecap="round"/>
<line x1="177.42" y1="59.94" x2="204.69" y2="46.83" stroke="#D32F2F" stroke-width="5.78" stroke-linecap="round"/>
<line x1="195.44" y1="53.28" x2="222.40" y2="41.44" stroke="#D32F2F" stroke-width="6.66" stroke-linecap="round"/>
<line x1="254.22" y1="32.04" x2="244.04" y2="37.80" stroke="#D32F2F" stroke-width="8.00" stroke-linecap="round"/>
<line x1="217.86" y1="48.44" x2="244.04" y2="37.80" stroke="#D32F2F" stroke-width="7.55" stroke-linecap="round"/>
<line x1="275.91" y1="29.90" x2="269.40" y2="36.24" stroke="#D32F2F" stroke-width="8.00" stroke-linecap="round"/>
<line x1="244.50" y1="45.82" x2="269.40" y2="36.24" stroke="#D32F2F" stroke-width="8.00" stroke-linecap="round"/>
<line x1="300.69" y1="29.87" x2="297.94" y2="37.09" stroke="#D32F2F" stroke-width="8.00" stroke-linecap="round"/>
<line x1="274.83" y1="45.77" x2="297.94" y2="37.09" stroke="#D32F2F" stroke-width="8.00" stroke-linecap="round"/>
<line x1="327.82" y1="32.11" x2="328.78" y2="40.49" stroke="#D32F2F" stroke-width="8.00" stroke-linecap="round"/>
<line x1="307.93" y1="48.51" x2="328.78" y2="40.49" stroke="#D32F2F" stroke-width="8.00" stroke-linecap="round"/>
<line x1="356.29" y1="36.66" x2="360.76" y2="46.42" stroke="#D32F2F" stroke-width="8.00" stroke-linecap="round"/>
<line x1="342.63" y1="54.05" x2="360.76" y2="46.42" stroke="#D32F2F" stroke-width="8.00" stroke-linecap="round"/>
<line x1="384.92" y1="43.33" x2="392.62" y2="54.64" stroke="#D32F2F" stroke-width="8.00" stroke-linecap="round"/>
<line x1="377.57" y1="62.19" x2="392.62" y2="54.64" stroke="#D32F2F" stroke-width="8.00" stroke-linecap="round"/>
<line x1="412.61" y1="51.75" x2="423.17" y2="64.71" stroke="#D32F2F" stroke-width="8.00" stroke-linecap="round"/>
<line x1="411.45" y1="72.50" x2="423.17" y2="64.71" stroke="#D32F2F" stroke-width="8.00" stroke-linecap="round"/>
<line x1="438.42" y1="61.47" x2="451.43" y2="76.13" stroke="#D32F2F" stroke-width="8.00" stroke-linecap="round"/>
<line x1="443.16" y1="84.44" x2="451.43" y2="76.13" stroke="#D32F2F" stroke-width="8.00" stroke-linecap="round"/>
<line x1="461.73" y1="72.03" x2="476.76" y2="88.37" stroke="#D32F2F" stroke-width="8.00" stroke-linecap="round"/>
<line x1="471.88" y1="97.46" x2="476.76" y2="88.37" stroke="#D32F2F" stroke-width="8.00" stroke-linecap="round"/>
<line x1="482.21" y1="83.05" x2="498.78" y2="101.02" stroke="#D32F2F" stroke-width="8.00" stroke-linecap="round"/>
<line x1="497.14" y1="111.04" x2="498.78" y2="101.02" stroke="#D32F2F" stroke-width="8.00" stroke-linecap="round"/>
<line x1="499.78" y1="94.24" x2="517.42" y2="113.76" stroke="#D32F2F" stroke-width="8.00" stroke-linecap="round"/>
<line x1="518.72" y1="124.79" x2="517.42" y2="113.76" stroke="#D32F2F" stroke-width="8.00" stroke-linecap="round"/>
<line x1="514.52" y1="105.48" x2="532.77" y2="126.43" stroke="#D32F2F" stroke-width="7.58" stroke-linecap="round"/>
<line x1="536.64" y1="138.44" x2="532.77" y2="126.43" stroke="#D32F2F" stroke-width="8.00" stroke-linecap="round"/>
<line x1="526.60" y1="116.72" x2="545.01" y2="138.97" stroke="#D32F2F" stroke-width="6.90" stroke-linecap="round"/>
<line x1="551.08" y1="151.88" x2="545.01" y2="138.97" stroke="#D32F2F" stroke-width="8.00" stroke-linecap="round"/>
</svg>