<svg width="630.0" height="630.0" viewBox="0 0 630.0 630.0" xmlns="http://www.w3.org/2000/svg">
<circle cx="315.0" cy="315.0" r="290.0" fill="#FDFDF5" stroke="#ccc" stroke-width="0.5"/>
<line x1="498.81" y1="539.27" x2="520.97" y2="518.83" stroke="#D32F2F" stroke-width="5.98" stroke-linecap="round"/>
<line x1="500.25" y1="536.49" x2="521.69" y2="515.40" stroke="#D32F2F" stroke-width="6.04" stroke-linecap="round"/>
<line x1="540.73" y1="495.98" x2="521.69" y2="515.40" stroke="#D32F2F" stroke-width="7.85" stroke-linecap="round"/>
<line x1="500.08" y1="532.69" x2="520.64" y2="511.01" stroke="#D32F2F" stroke-width="6.21" stroke-linecap="round"/>
<line x1="540.54" y1="491.95" x2="520.64" y2="511.01" stroke="#D32F2F" stroke-width="7.65" stroke-linecap="round"/>
<line x1="498.07" y1="528.13" x2="517.54" y2="505.89" stroke="#D32F2F" stroke-width="6.47" stroke-linecap="round"/>
<line x1="538.33" y1="486.94" x2="517.54" y2="505.89" stroke="#D32F2F" stroke-width="7.35" stroke-linecap="round"/>
<line x1="493.99" y1="523.05" x2="512.07" y2="500.26" stroke="#D32F2F" stroke-width="6.81" stroke-linecap="round"/>
<line x1="533.70" y1="481.17" x2="512.07" y2="500.26" stroke="#D32F2F" stroke-width="6.96" stroke-linecap="round"/>
<line x1="487.58" y1="517.66" x2="503.93" y2="494.35" stroke="#D32F2F" stroke-width="7.22" stroke-linecap="round"/>
<line x1="526.20" y1="474.88" x2="503.93" y2="494.35" stroke="#D32F2F" stroke-width="6.55" stroke-linecap="round"/>
<line x1="478.56" y1="512.17" x2="492.76" y2="488.36" stroke="#D32F2F" stroke-width="7.68" stroke-linecap="round"/>
<line x1="515.42" y1="468.32" x2="492.76" y2="488.36" stroke="#D32F2F" stroke-width="6.16" stroke-linecap="round"/>
<line x1="466.66" y1="506.76" x2="478.27" y2="482.50" stroke="#D32F2F" stroke-width="8.00" stroke-linecap="round"/>
<line x1="500.95" y1="461.74" x2="478.27" y2="482.50" stroke="#D32F2F" stroke-width="5.85" stroke-linecap="round"/>
<line x1="451.61" y1="501.62" x2="460.19" y2="476.99" stroke="#D32F2F" stroke-width="8.00" stroke-linecap="round"/>
<line x1="482.47" y1="455.43" x2="460.19" y2="476.99" stroke="#D32F2F" stroke-width="6.28" stroke-linecap="round"/>
<line x1="433.23" y1="496.93" x2="438.39" y2="472.05" stroke="#D32F2F" stroke-width="8.00" stroke-linecap="round"/>
<line x1="459.80" y1="449.64" x2="438.39" y2="472.05" stroke="#D32F2F" stroke-width="7.34" stroke-linecap="round"/>
<line x1="411.48" y1="492.87" x2="412.96" y2="467.87" stroke="#D32F2F" stroke-width="8.00" stroke-linecap="round"/>
<line x1="433.01" y1="444.65" x2="412.96" y2="467.87" stroke="#D32F2F" stroke-width="8.00" stroke-linecap="round"/>
<line x1="386.60" y1="489.63" x2="384.23" y2="464.66" stroke="#D32F2F" stroke-width="8.00" stroke-linecap="round"/>
<line x1="402.45" y1="440.67" x2="384.23" y2="464.66" stroke="#D32F2F" stroke-width="8.00" stroke-linecap="round"/>
<line x1="359.12" y1="487.37" x2="352.92" y2="462.57" stroke="#D32F2F" stroke-width="8.00" stroke-linecap="round"/>
<line x1="368.82" y1="437.90" x2="352.92" y2="462.57" stroke="#D32F2F" stroke-width="8.00" stroke-linecap="round"/>
<line x1="329.91" y1="486.21" x2="320.05" y2="461.73" stroke="#D32F2F" stroke-width="8.00" stroke-linecap="round"/>
<line x1="333.17" y1="436.48" x2="320.05" y2="461.73" stroke="#D32F2F" stroke-width="8.00" stroke-linecap="round"/>
<line x1="300.09" y1="486.21" x2="286.86" y2="462.19" stroke="#D32F2F" stroke-width="8.00" stroke-linecap="round"/>
<line x1="296.83" y1="436.48" x2="286.86" y2="462.19" stroke="#D32F2F" stroke-width="8.00" stroke-linecap="round"/>
<line x1="270.88" y1="487.37" x2="254.66" y2="463.93" stroke="#D32F2F" stroke-width="8.00" stroke-linecap="round"/>
<line x1="261.18" y1="437.90" x2="254.66" y2="463.93" stroke="#D32F2F" stroke-width="8.00" stroke-linecap="round"/>
<line x1="243.40" y1="489.63" x2="224.64" y2="466.89" stroke="#D32F2F" stroke-width="8.00" stroke-linecap="round"/>
<line x1="227.55" y1="440.67" x2="224.64" y2="466.89" stroke="#D32F2F" stroke-width="8.00" stroke-linecap="round"/>
<line x1="218.52" y1="492.87" x2="197.71" y2="470.92" stroke="#D32F2F" stroke-width="7.85" stroke-linecap="round"/>
<line x1="196.99" y1="444.65" x2="197.71" y2="470.92" stroke="#D32F2F" stroke-width="8.00" stroke-linecap="round"/>
<line x1="196.77" y1="496.93" x2="174.41" y2="475.83" stroke="#D32F2F" stroke-width="6.95" stroke-linecap="round"/>
<line x1="170.20" y1="449.64" x2="174.41" y2="475.83" stroke="#D32F2F" stroke-width="8.00" stroke-linecap="round"/>
<line x1="178.39" y1="501.62" x2="154.97" y2="481.40" stroke="#D32F2F" stroke-width="5.94" stroke-linecap="round"/>
<line x1="147.53" y1="455.43" x2="154.97" y2="481.40" stroke="#D32F2F" stroke-width="8.00" stroke-linecap="round"/>
<line x1="163.34" y1="506.76" x2="139.36" y2="487.39" stroke="#D32F2F" stroke-width="5.59" stroke-linecap="round"/>
<line x1="129.05" y1="461.74" x2="139.36" y2="487.39" stroke="#D32F2F" stroke-width="8.00" stroke-linecap="round"/>
<line x1="151.44" y1="512.17" x2="127.34" y2="493.57" stroke="#D32F2F" stroke-width="5.99" stroke-linecap="round"/>
<line x1="114.58" y1="468.32" x2="127.34" y2="493.57" stroke="#D32F2F" stroke-width="7.62" stroke-linecap="round"/>
<line x1="142.42" y1="517.66" x2="118.59" y2="499.68" stroke="#D32F2F" stroke-width="6.44" stroke-linecap="round"/>
<line x1="103.80" y1="474.88" x2="118.59" y2="499.68" stroke="#D32F2F" stroke-width="7.15" stroke-linecap="round"/>
<line x1="136.01" y1="523.05" x2="112.76" y2="505.50" stroke="#D32F2F" stroke-width="6.90" stroke-linecap="round"/>
<line x1="96.30" y1="481.17" x2="112.76" y2="505.50" stroke="#D32F2F" stroke-width="6.74" stroke-linecap="round"/>
<line x1="131.93" y1="528.13" x2="109.44" y2="510.77" stroke="#D32F2F" stroke-width="7.31" stroke-linecap="round"/>
<line x1="91.67" y1="486.94" x2="109.44" y2="510.77" stroke="#D32F2F" stroke-width="6.40" stroke-linecap="round"/>
<line x1="129.92" y1="532.69" x2="108.30" y2="515.26" stroke="#D32F2F" stroke-width="7.63" stroke-linecap="round"/>
<line x1="89.46" y1="491.95" x2="108.30" y2="515.26" stroke="#D32F2F" stroke-width="6.16" stroke-linecap="round"/>
<line x1="129.75" y1="536.49" x2="108.98" y2="518.74" stroke="#D32F2F" stroke-width="7.84" stroke-linecap="round"/>
<line x1="89.27" y1="495.98" x2="108.98" y2="518.74" stroke="#D32F2F" stroke-width="6.02" stroke-linecap="round"/>
<line x1="131.19" y1="90.73" x2="109.03" y2="111.17" stroke="#D32F2F" stroke-width="5.98" stroke-linecap="round"/>
<line x1="129.75" y1="93.51" x2="108.31" y2="114.60" stroke="#D32F2F" stroke-width="6.04" stroke-linecap="round"/>
<line x1="89.27" y1="134.02" x2="108.31" y2="114.60" stroke="#D32F2F" stroke-width="7.85" stroke-linecap="round"/>
<line x1="129.92" y1="97.31" x2="109.36" y2="118.99" stroke="#D32F2F" stroke-width="6.21" stroke-linecap="round"/>
<line x1="89.46" y1="138.05" x2="109.36" y2="118.99" stroke="#D32F2F" stroke-width="7.65" stroke-linecap="round"/>
<line x1="131.93" y1="101.87" x2="112.46" y2="124.11" stroke="#D32F2F" stroke-width="6.47" stroke-linecap="round"/>
<line x1="91.67" y1="143.06" x2="112.46" y2="124.11" stroke="#D32F2F" stroke-width="7.35" stroke-linecap="round"/>
<line x1="136.01" y1="106.95" x2="117.93" y2="129.74" stroke="#D32F2F" stroke-width="6.81" stroke-linecap="round"/>
<line x1="96.30" y1="148.83" x2="117.93" y2="129.74" stroke="#D32F2F" stroke-width="6.96" stroke-linecap="round"/>
<line x1="142.42" y1="112.34" x2="126.07" y2="135.65" stroke="#D32F2F" stroke-width="7.22" stroke-linecap="round"/>
<line x1="103.80" y1="155.12" x2="126.07" y2="135.65" stroke="#D32F2F" stroke-width="6.55" stroke-linecap="round"/>
<line x1="151.44" y1="117.83" x2="137.24" y2="141.64" stroke="#D32F2F" stroke-width="7.68" stroke-linecap="round"/>
<line x1="114.58" y1="161.68" x2="137.24" y2="141.64" stroke="#D32F2F" stroke-width="6.16" stroke-linecap="round"/>
<line x1="163.34" y1="123.24" x2="151.73" y2="147.50" stroke="#D32F2F" stroke-width="8.00" stroke-linecap="round"/>
<line x1="129.05" y1="168.26" x2="151.73" y2="147.50" stroke="#D32F2F" stroke-width="5.85" stroke-linecap="round"/>
<line x1="178.39" y1="128.38" x2="169.81" y2="153.01" stroke="#D32F2F" stroke-width="8.00" stroke-linecap="round"/>
<line x1="147.53" y1="174.57" x2="169.81" y2="153.01" stroke="#D32F2F" stroke-width="6.28" stroke-linecap="round"/>
<line x1="196.77" y1="133.07" x2="191.61" y2="157.95" stroke="#D32F2F" stroke-width="8.00" stroke-linecap="round"/>
<line x1="170.20" y1="180.36" x2="191.61" y2="157.95" stroke="#D32F2F" stroke-width="7.34" stroke-linecap="round"/>
<line x1="218.52" y1="137.13" x2="217.04" y2="162.13" stroke="#D32F2F" stroke-width="8.00" stroke-linecap="round"/>
<line x1="196.99" y1="185.35" x2="217.04" y2="162.13" stroke="#D32F2F" stroke-width="8.00" stroke-linecap="round"/>
<line x1="243.40" y1="140.37" x2="245.77" y2="165.34" stroke="#D32F2F" stroke-width="8.00" stroke-linecap="round"/>
<line x1="227.55" y1="189.33" x2="245.77" y2="165.34" stroke="#D32F2F" stroke-width="8.00" stroke-linecap="round"/>
<line x1="270.88" y1="142.63" x2="277.08" y2="167.43" stroke="#D32F2F" stroke-width="8.00" stroke-linecap="round"/>
<line x1="261.18" y1="192.10" x2="277.08" y2="167.43" stroke="#D32F2F" stroke-width="8.00" stroke-linecap="round"/>
<line x1="300.09" y1="143.79" x2="309.95" y2="168.27" stroke="#D32F2F" stroke-width="8.00" stroke-linecap="round"/>
<line x1="296.83" y1="193.52" x2="309.95" y2="168.27" stroke="#D32F2F" stroke-width="8.00" stroke-linecap="round"/>
<line x1="329.91" y1="143.79" x2="343.14" y2="167.81" stroke="#D32F2F" stroke-width="8.00" stroke-linecap="round"/>
<line x1="333.17" y1="193.52" x2="343.14" y2="167.81" stroke="#D32F2F" stroke-width="8.00" stroke-linecap="round"/>
<line x1="359.12" y1="142.63" x2="375.34" y2="166.07" stroke="#D32F2F" stroke-width="8.00" stroke-linecap="round"/>
<line x1="368.82" y1="192.10" x2="375.34" y2="166.07" stroke="#D32F2F" stroke-width="8.00" stroke-linecap="round"/>
<line x1="386.60" y1="140.37" x2="405.36" y2="163.11" stroke="#D32F2F" stroke-width="8.00" stroke-linecap="round"/>
<line x1="402.45" y1="189.33" x2="405.36" y2="163.11" stroke="#D32F2F" stroke-width="8.00" stroke-linecap="round"/>
<line x1="411.48" y1="137.13" x2="432.29" y2="159.08" stroke="#D32F2F" stroke-width="7.85" stroke-linecap="round"/>
<line x1="433.01" y1="185.35" x2="432.29" y2="159.08" stroke="#D32F2F" stroke-width="8.00" stroke-linecap="round"/>
<line x1="433.23" y1="133.07" x2="455.59" y2="154.17" stroke="#D32F2F" stroke-width="6.95" stroke-linecap="round"/>
<line x1="459.80" y1="180.36" x2="455.59" y2="154.17" stroke="#D32F2F" stroke-width="8.00" stroke-linecap="round"/>
<line x1="451.61" y1="128.38" x2="475.03" y2="148.60" stroke="#D32F2F" stroke-width="5.94" stroke-linecap="round"/>
<line x1="482.47" y1="174.57" x2="475.03" y2="148.60" stroke="#D32F2F" stroke-width="8.00" stroke-linecap="round"/>
<line x1="466.66" y1="123.24" x2="490.64" y2="142.61" stroke="#D32F2F" stroke-width="5.59" stroke-linecap="round"/>
<line x1="500.95" y1="168.26" x2="490.64" y2="142.61" stroke="#D32F2F" stroke-width="8.00" stroke-linecap="round"/>
<line x1="478.56" y1="117.83" x2="502.66" y2="136.43" stroke="#D32F2F" stroke-width="5.99" stroke-linecap="round"/>
<line x1="515.42" y1="161.68" x2="502.66" y2="136.43" stroke="#D32F2F" stroke-width="7.62" stroke-linecap="round"/>
<line x1="487.58" y1="112.34" x2="511.41" y2="130.32" stroke="#D32F2F" stroke-width="6.44" stroke-linecap="round"/>
<line x1="526.20" y1="155.12" x2="511.41" y2="130.32" stroke="#D32F2F" stroke-width="7.15" stroke-linecap="round"/>
<line x1="493.99" y1="106.95" x2="517.24" y2="124.50" stroke="#D32F2F" stroke-width="6.90" stroke-linecap="round"/>
<line x1="533.70" y1="148.83" x2="517.24" y2="124.50" stroke="#D32F2F" stroke-width="6.74" stroke-linecap="round"/>
<line x1="498.07" y1="101.87" x2="520.56" y2="119.23" stroke="#D32F2F" stroke-width="7.31" stroke-linecap="round"/>
<line x1="538.33" y1="143.06" x2="520.56" y2="119.23" stroke="#D32F2F" stroke-width="6.40" stroke-linecap="round"/>
<line x1="500.08" y1="97.31" x2="521.70" y2="114.74" stroke="#D32F2F" stroke-width="7.63" stroke-linecap="round"/>
<line x1="540.54" y1="138.05" x2="521.70" y2="114.74" stroke="#D32F2F" stroke-width="6.16" stroke-linecap="round"/>
<line x1="500.25" y1="93.51" x2="521.02" y2="111.26" stroke="#D32F2F" stroke-width="7.84" stroke-linecap="round"/>
<line x1="540.73" y1="134.02" x2="521.02" y2="111.26" stroke="#D32F2F" stroke-width="6.02" stroke-linecap="round"/>
<line x1="498.81" y1="539.27" x2="520.97" y2="518.83" stroke="#D32F2F" stroke-width="5.98" stroke-linecap="round"/>
<line x1="500.25" y1="536.49" x2="521.69" y2="515.40" stroke="#D32F2F" stroke-width="6.04" stroke-linecap="round"/>
<line x1="540.73" y1="495.98" x2="521.69" y2="515.40" stroke="#D32F2F" stroke-width="7.85" stroke-linecap="round"/>
<line x1="500.08" y1="532.69" x2="520.64" y2="511.01" stroke="#D32F2F" stroke-width="6.21" stroke-linecap="round"/>
<line x1="540.54" y1="491.95" x2="520.64" y2="511.01" stroke="#D32F2F" stroke-width="7.65" stroke-linecap="round"/>
<line x1="498.07" y1="528.13" x2="517.54" y2="505.89" stroke="#D32F2F" stroke-width="6.47" stroke-linecap="round"/>
<line x1="538.33" y1="486.94" x2="517.54" y2="505.89" stroke="#D32F2F" stroke-width="7.35" stroke-linecap="round"/>
<line x1="493.99" y1="523.05" x2="512.07" y2="500.26" stroke="#D32F2F" stroke-width="6.81" stroke-linecap="round"/>
<line x1="533.70" y1="481.17" x2="512.07" y2="500.26" stroke="#D32F2F" stroke-width="6.96" stroke-linecap="round"/>
<line x1="487.58" y1="517.66" x2="503.93" y2="494.35" stroke="#D32F2F" stroke-width="7.22" stroke-linecap="round"/>
<line x1="526.20" y1="474.88" x2="503.93" y2="494.35" stroke="#D32F2F" stroke-width="6.55" stroke-linecap="round"/>
<line x1="478.56" y1="512.17" x2="492.76" y2="488.36" stroke="#D32F2F" stroke-width="7.68" stroke-linecap="round"/>
<line x1="515.42" y1="468.32" x2="492.76" y2="488.36" stroke="#D32F2F" stroke-width="6.16" stroke-linecap="round"/>
<line x1="466.66" y1="506.76" x2="478.27" y2="482.50" stroke="#D32F2F" stroke-width="8.00" stroke-linecap="round"/>
<line x1="500.95" y1="461.74" x2="478.27" y2="482.50" stroke="#D32F2F" stroke-width="5.85" stroke-linecap="round"/>
<line x1="451.61" y1="501.62" x2="460.19" y2="476.99" stroke="#D32F2F" stroke-width="8.00" stroke-linecap="round"/>
<line x1="482.47" y1="455.43" x2="460.19" y2="476.99" stroke="#D32F2F" stroke-width="6.28" stroke-linecap="round"/>
<line x1="433.23" y1="496.93" x2="438.39" y2="472.05" stroke="#D32F2F" stroke-width="8.00" stroke-linecap="round"/>
<line x1="459.80" y1="449.64" x2="438.39" y2="472.05" stroke="#D32F2F" stroke-width="7.34" stroke-linecap="round"/>
<line x1="411.48" y1="492.87" x2="412.96" y2="467.87" stroke="#D32F2F" stroke-width="8.00" stroke-linecap="round"/>
<line x1="433.01" y1="444.65" x2="412.96" y2="467.87" stroke="#D32F2F" stroke-width="8.00" stroke-linecap="round"/>
<line x1="386.60" y1="489.63" x2="384.23" y2="464.66" stroke="#D32F2F" stroke-width="8.00" stroke-linecap="round"/>
<line x1="402.45" y1="440.67" x2="384.23" y2="464.66" stroke="#D32F2F" stroke-width="8.00" stroke-linecap="round"/>
<line x1="359.12" y1="487.37" x2="352.92" y2="462.57" stroke="#D32F2F" stroke-width="8.00" stroke-linecap="round"/>
<line x1="368.82" y1="437.90" x2="352.92" y2="462.57" stroke="#D32F2F" stroke-width="8.00" stroke-linecap="round"/>
<line x1="329.91" y1="486.21" x2="320.05" y2="461.73" stroke="#D32F2F" stroke-width="8.00" stroke-linecap="round"/>
<line x1="333.17" y1="436.48" x2="320.05" y2="461.73" stroke="#D32F2F" stroke-width="8.00" stroke-linecap="round"/>
<line x1="300.09" y1="486.21" x2="286.86" y2="462.19" stroke="#D32F2F" stroke-width="8.00" stroke-linecap="round"/>
<line x1="296.83" y1="436.48" x2="286.86" y2="462.19" stroke="#D32F2F" stroke-width="8.00" stroke-linecap="round"/>
<line x1="270.88" y1="487.37" x2="254.66" y2="463.93" stroke="#D32F2F" stroke-width="8.00" stroke-linecap="round"/>
<line x1="261.18" y1="437.90" x2="254.66" y2="463.93" stroke="#D32F2F" stroke-width="8.00" stroke-linecap="round"/>
<line x1="243.40" y1="489.63" x2="224.64" y2="466.89" stroke="#D32F2F" stroke-width="8.00" stroke-linecap="round"/>
<line x1="227.55" y1="440.67" x2="224.64" y2="466.89" stroke="#D32F2F" stroke-width="8.00" stroke-linecap="round"/>
<line x1="218.52" y1="492.87" x2="197.71" y2="470.92" stroke="#D32F2F" stroke-width="7.85" stroke-linecap="round"/>
<line x1="196.99" y1="444.65" x2="197.71" y2="470.92" stroke="#D32F2F" stroke-width="8.00" stroke-linecap="round"/>
<line x1="196.77" y1="496.93" x2="174.41" y2="475.83" stroke="#D32F2F" stroke-width="6.95" stroke-linecap="round"/>
<line x1="170.20" y1="449.64" x2="174.41" y2="475.83" stroke="#D32F2F" stroke-width="8.00" stroke-linecap="round"/>
<line x1="178.39" y1="501.62" x2="154.97" y2="481.40" stroke="#D32F2F" stroke-width="5.94" stroke-linecap="round"/>
<line x1="147.53" y1="455.43" x2="154.97" y2="481.40" stroke="#D32F2F" stroke-width="8.00" stroke-linecap="round"/>
<line x1="163.34" y1="506.76" x2="139.36" y2="487.39" stroke="#D32F2F" stroke-width="5.59" stroke-linecap="round"/>
<line x1="129.05" y1="461.74" x2="139.36" y2="487.39" stroke="#D32F2F" stroke-width="8.00" stroke-linecap="round"/>
<line x1="151.44" y1="512.17" x2="127.34" y2="493.57" stroke="#D32F2F" stroke-width="5.99" stroke-linecap="round"/>
<line x1="114.58" y1="468.32" x2="127.34" y2="493.57" stroke="#D32F2F" stroke-width="7.62" stroke-linecap="round"/>
<line x1="142.42" y1="517.66" x2="118.59" y2="499.68" stroke="#D32F2F" stroke-width="6.44" stroke-linecap="round"/>
<line x1="103.80" y1="474.88" x2="118.59" y2="499.68" stroke="#D32F2F" stroke-width="7.15" stroke-linecap="round"/>
<line x1="136.01" y1="523.05" x2="112.76" y2="505.50" stroke="#D32F2F" stroke-width="6.90" stroke-linecap="round"/>
<line x1="96.30" y1="481.17" x2="112.76" y2="505.50" stroke="#D32F2F" stroke-width="6.74" stroke-linecap="round"/>
<line x1="131.93" y1="528.13" x2="109.44" y2="510.77" stroke="#D32F2F" stroke-width="7.31" stroke-linecap="round"/>
<line x1="91.67" y1="486.94" x2="109.44" y2="510.77" stroke="#D32F2F" stroke-width="6.40" stroke-linecap="round"/>
<line x1="129.92" y1="532.69" x2="108.30" y2="515.26" stroke="#D32F2F" stroke-width="7.63" stroke-linecap="round"/>
<line x1="89.46" y1="491.95" x2="108.30" y2="515.26" stroke="#D32F2F" stroke-width="6.16" stroke-linecap="round"/>
<line x1="129.75" y1="536.49" x2="108.98" y2="518.74" stroke="#D32F2F" stroke-width="7.84" stroke-linecap="round"/>
<line x1="89.27" y1="495.98" x2="108.98" y2="518.74" stroke="#D32F2F" stroke-width="6.02" stroke-linecap="round"/>
<line x1="131.19" y1="90.73" x2="109.03" y2="111.17" stroke="#D32F2F" stroke-width="5.98" stroke-linecap="round"/>
<line x1="129.75" y1="93.51" x2="108.31" y2="114.60" stroke="#D32F2F" stroke-width="6.04" stroke-linecap="round"/>
<line x1="89.27" y1="134.02" x2="108.31" y2="114.60" stroke="#D32F2F" stroke-width="7.85" stroke-linecap="round"/>
<line x1="129.92" y1="97.31" x2="109.36" y2="118.99" stroke="#D32F2F" stroke-width="6.21" stroke-linecap="round"/>
<line x1="89.46" y1="138.05" x2="109.36" y2="118.99" stroke="#D32F2F" stroke-width="7.65" stroke-linecap="round"/>
<line x1="131.93" y1="101.87" x2="112.46" y2="124.11" stroke="#D32F2F" stroke-width="6.47" stroke-linecap="round"/>
<line x1="91.67" y1="143.06" x2="112.46" y2="124.11" stroke="#D32F2F" stroke-width="7.35" stroke-linecap="round"/>
<line x1="136.01" y1="106.95" x2="117.93" y2="129.74" stroke="#D32F2F" stroke-width="6.81" stroke-linecap="round"/>
<line x1="96.30" y1="148.83" x2="117.93" y2="129.74" stroke="#D32F2F" stroke-width="6.96" stroke-linecap="round"/>
<line x1="142.42" y1="112.34" x2="126.07" y2="135.65" stroke="#D32F2F" stroke-width="7.22" stroke-linecap="round"/>
<line x1="103.80" y1="155.12" x2="126.07" y2="135.65" stroke="#D32F2F" stroke-width="6.55" stroke-linecap="round"/>
<line x1="151.44" y1="117.83" x2="137.24" y2="141.64" stroke="#D32F2F" stroke-width="7.68" stroke-linecap="round"/>
<line x1="114.58" y1="161.68" x2="137.24" y2="141.64" stroke="#D32F2F" stroke-width="6.16" stroke-linecap="round"/>
<line x1="163.34" y1="123.24" x2="151.73" y2="147.50" stroke="#D32F2F" stroke-width="8.00" stroke-linecap="round"/>
<line x1="129.05" y1="168.26" x2="151.73" y2="147.50" stroke="#D32F2F" stroke-width="5.85" stroke-linecap="round"/>
<line x1="178.39" y1="128.38" x2="169.81" y2="153.01" stroke="#D32F2F" stroke-width="8.00" stroke-linecap="round"/>
<line x1="147.53" y1="174.57" x2="169.81" y2="153.01" stroke="#D32F2F" stroke-width="6.28" stroke-linecap="round"/>
<line x1="196.77" y1="133.07" x2="191.61" y2="157.95" stroke="#D32F2F" stroke-width="8.00" stroke-linecap="round"/>
<line x1="170.20" y1="180.36" x2="191.61" y2="157.95" stroke="#D32F2F" stroke-width="7.34" stroke-linecap="round"/>
<line x1="218.52" y1="137.13" x2="217.04" y2="162.13" stroke="#D32F2F" stroke-width="8.00" stroke-linecap="round"/>
<line x1="196.99" y1="185.35" x2="217.04" y2="162.13" stroke="#D32F2F" stroke-width="8.00" stroke-linecap="round"/>
<line x1="243.40" y1="140.37" x2="245.77" y2="165.34" stroke="#D32F2F" stroke-width="8.00" stroke-linecap="round"/>
<line x1="227.55" y1="189.33" x2="245.77" y2="165.34" stroke="#D32F2F" stroke-width="8.00" stroke-linecap="round"/>
<line x1="270.88" y1="142.63" x2="277.08" y2="167.43" stroke="#D32F2F" stroke-width="8.00" stroke-linecap="round"/>
<line x1="261.18" y1="192.10" x2="277.08" y2="167.43" stroke="#D32F2F" stroke-width="8.00" stroke-linecap="round"/>
<line x1="300.09" y1="143.79" x2="309.95" y2="168.27" stroke="#D32F2F" stroke-width="8.00" stroke-linecap="round"/>
<line x1="296.83" y1="193.52" x2="309.95" y2="168.27" stroke="#D32F2F" stroke-width="8.00" stroke-linecap="round"/>
<line x1="329.91" y1="143.79" x2="343.14" y2="167.81" stroke="#D32F2F" stroke-width="8.00" stroke-linecap="round"/>
<line x1="333.17" y1="193.52" x2="343.14" y2="167.81" stroke="#D32F2F" stroke-width="8.00" stroke-linecap="round"/>
<line x1="359.12" y1="142.63" x2="375.34" y2="166.07" stroke="#D32F2F" stroke-width="8.00" stroke-linecap="round"/>
<line x1="368.82" y1="192.10" x2="375.34" y2="166.07" stroke="#D32F2F" stroke-width="8.00" stroke-linecap="round"/>
<line x1="386.60" y1="140.37" x2="405.36" y2="163.11" stroke="#D32F2F" stroke-width="8.00" stroke-linecap="round"/>
<line x1="402.45" y1="189.33" x2="405.36" y2="163.11" stroke="#D32F2F" stroke-width="8.00" stroke-linecap="round"/>
<line x1="411.48" y1="137.13" x2="432.29" y2="159.08" stroke="#D32F2F" stroke-width="7.85" stroke-linecap="round"/>
<line x1="433.01" y1="185.35" x2="432.29" y2="159.08" stroke="#D32F2F" stroke-width="8.00" stroke-linecap="round"/>
<line x1="433.23" y1="133.07" x2="455.59" y2="154.17" stroke="#D32F2F" stroke-width="6.95" stroke-linecap="round"/>
<line x1="459.80" y1="180.36" x2="455.59" y2="154.17" stroke="#D32F2F" stroke-width="8.00" stroke-linecap="round"/>
<line x1="451.61" y1="128.38" x2="475.03" y2="148.60" stroke="#D32F2F" stroke-width="5.94" stroke-linecap="round"/>
<line x1="482.47" y1="174.57" x2="475.03" y2="148.60" stroke="#D32F2F" stroke-width="8.00" stroke-linecap="round"/>
<line x1="466.66" y1="123.24" x2="490.64" y2="142.61" stroke="#D32F2F" stroke-width="5.59" stroke-linecap="round"/>
<line x1="500.95" y1="168.26" x2="490.64" y2="142.61" stroke="#D32F2F" stroke-width="8.00" stroke-linecap="round"/>
<line x1="478.56" y1="117.83" x2="502.66" y2="136.43" stroke="#D32F2F" stroke-width="5.99" stroke-linecap="round"/>
<line x1="515.42" y1="161.68" x2="502.66" y2="136.43" stroke="#D32F2F" stroke-width="7.62" stroke-linecap="round"/>
<line x1="487.58" y1="112.34" x2="511.41" y2="130.32" stroke="#D32F2F" stroke-width="6.44" stroke-linecap="round"/>
<line x1="526.20" y1="155.12" x2="511.41" y2="130.32" stroke="#D32F2F" stroke-width="7.15" stroke-linecap="round"/>
<line x1="493.99" y1="106.95" x2="517.24" y2="124.50" stroke="#D32F2F" stroke-width="6.90" stroke-linecap="round"/>
<line x1="533.70" y1="148.83" x2="517.24" y2="124.50" stroke="#D32F2F" stroke-width="6.74" stroke-linecap="round"/>
<line x1="498.07" y1="101.87" x2="520.56" y2="119.23" stroke="#D32F2F" stroke-width="7.31" stroke-linecap="round"/>
<line x1="538.33" y1="143.06" x2="520.56" y2="119.23" stroke="#D32F2F" stroke-width="6.40" stroke-linecap="round"/>
<line x1="500.08" y1="97.31" x2="521.70" y2="114.74" stroke="#D32F2F" stroke-width="7.63" stroke-linecap="round"/>
<line x1="540.54" y1="138.05" x2="521.70" y2="114.74" stroke="#D32F2F" stroke-width="6.16" stroke-linecap="round"/>
<line x1="500.25" y1="93.51" x2="521.02" y2="111.26" stroke="#D32F2F" stroke-width="7.84" stroke-linecap="round"/>
<line x1="540.73" y1="134.02" x2="521.02" y2="111.26" stroke="#D32F2F" stroke-width="6.02" stroke-linecap="round"/>
</svg>