<svg width="630.0" height="630.0" viewBox="0 0 630.0 630.0" xmlns="http://www.w3.org/2000/svg">
<circle cx="315.0" cy="315.0" r="290.0" fill="#FDFDF5" stroke="#ccc" stroke-width="0.5"/>
<line x1="436.48" y1="577.70" x2="462.19" y2="563.28" stroke="#D32F2F" stroke-width="6.56" stroke-linecap="round"/>
<line x1="486.21" y1="548.59" x2="462.19" y2="563.28" stroke="#D32F2F" stroke-width="7.40" stroke-linecap="round"/>
<line x1="437.90" y1="572.10" x2="463.93" y2="556.41" stroke="#D32F2F" stroke-width="5.80" stroke-linecap="round"/>
<line x1="487.37" y1="544.00" x2="463.93" y2="556.41" stroke="#D32F2F" stroke-width="8.00" stroke-linecap="round"/>
<line x1="440.67" y1="561.29" x2="466.89" y2="544.92" stroke="#D32F2F" stroke-width="5.14" stroke-linecap="round"/>
<line x1="489.63" y1="535.17" x2="466.89" y2="544.92" stroke="#D32F2F" stroke-width="8.00" stroke-linecap="round"/>
<line x1="444.65" y1="546.01" x2="470.92" y2="529.55" stroke="#D32F2F" stroke-width="4.76" stroke-linecap="round"/>
<line x1="492.87" y1="522.73" x2="470.92" y2="529.55" stroke="#D32F2F" stroke-width="8.00" stroke-linecap="round"/>
<line x1="449.64" y1="527.14" x2="475.83" y2="511.14" stroke="#D32F2F" stroke-width="5.83" stroke-linecap="round"/>
<line x1="496.93" y1="507.42" x2="475.83" y2="511.14" stroke="#D32F2F" stroke-width="8.00" stroke-linecap="round"/>
<line x1="455.43" y1="505.61" x2="481.40" y2="490.51" stroke="#D32F2F" stroke-width="6.78" stroke-linecap="round"/>
<line x1="501.62" y1="489.96" x2="481.40" y2="490.51" stroke="#D32F2F" stroke-width="8.00" stroke-linecap="round"/>
<line x1="461.74" y1="482.30" x2="487.39" y2="468.40" stroke="#D32F2F" stroke-width="7.61" stroke-linecap="round"/>
<line x1="506.76" y1="470.97" x2="487.39" y2="468.40" stroke="#D32F2F" stroke-width="8.00" stroke-linecap="round"/>
<line x1="468.32" y1="457.91" x2="493.57" y2="445.37" stroke="#D32F2F" stroke-width="8.00" stroke-linecap="round"/>
<line x1="512.17" y1="450.91" x2="493.57" y2="445.37" stroke="#D32F2F" stroke-width="8.00" stroke-linecap="round"/>
<line x1="474.88" y1="433.03" x2="499.68" y2="421.85" stroke="#D32F2F" stroke-width="8.00" stroke-linecap="round"/>
<line x1="517.66" y1="430.09" x2="499.68" y2="421.85" stroke="#D32F2F" stroke-width="8.00" stroke-linecap="round"/>
<line x1="481.17" y1="408.05" x2="505.50" y2="398.12" stroke="#D32F2F" stroke-width="8.00" stroke-linecap="round"/>
<line x1="523.05" y1="408.70" x2="505.50" y2="398.12" stroke="#D32F2F" stroke-width="8.00" stroke-linecap="round"/>
<line x1="486.94" y1="383.26" x2="510.77" y2="374.35" stroke="#D32F2F" stroke-width="8.00" stroke-linecap="round"/>
<line x1="528.13" y1="386.85" x2="510.77" y2="374.35" stroke="#D32F2F" stroke-width="8.00" stroke-linecap="round"/>
<line x1="491.95" y1="358.82" x2="515.26" y2="350.64" stroke="#D32F2F" stroke-width="8.00" stroke-linecap="round"/>
<line x1="532.69" y1="364.58" x2="515.26" y2="350.64" stroke="#D32F2F" stroke-width="8.00" stroke-linecap="round"/>
<line x1="495.98" y1="334.80" x2="518.74" y2="327.02" stroke="#D32F2F" stroke-width="8.00" stroke-linecap="round"/>
<line x1="536.49" y1="341.89" x2="518.74" y2="327.02" stroke="#D32F2F" stroke-width="8.00" stroke-linecap="round"/>
<line x1="498.81" y1="311.23" x2="520.97" y2="303.51" stroke="#D32F2F" stroke-width="8.00" stroke-linecap="round"/>
<line x1="539.27" y1="318.77" x2="520.97" y2="303.51" stroke="#D32F2F" stroke-width="8.00" stroke-linecap="round"/>
<line x1="500.25" y1="288.11" x2="521.69" y2="280.09" stroke="#D32F2F" stroke-width="8.00" stroke-linecap="round"/>
<line x1="540.73" y1="295.20" x2="521.69" y2="280.09" stroke="#D32F2F" stroke-width="8.00" stroke-linecap="round"/>
<line x1="500.08" y1="265.42" x2="520.64" y2="256.75" stroke="#D32F2F" stroke-width="8.00" stroke-linecap="round"/>
<line x1="540.54" y1="271.18" x2="520.64" y2="256.75" stroke="#D32F2F" stroke-width="8.00" stroke-linecap="round"/>
<line x1="498.07" y1="243.15" x2="517.54" y2="233.50" stroke="#D32F2F" stroke-width="8.00" stroke-linecap="round"/>
<line x1="538.33" y1="246.74" x2="517.54" y2="233.50" stroke="#D32F2F" stroke-width="8.00" stroke-linecap="round"/>
<line x1="493.99" y1="221.30" x2="512.07" y2="210.40" stroke="#D32F2F" stroke-width="8.00" stroke-linecap="round"/>
<line x1="533.70" y1="221.95" x2="512.07" y2="210.40" stroke="#D32F2F" stroke-width="8.00" stroke-linecap="round"/>
<line x1="487.58" y1="199.91" x2="503.93" y2="187.56" stroke="#D32F2F" stroke-width="8.00" stroke-linecap="round"/>
<line x1="526.20" y1="196.97" x2="503.93" y2="187.56" stroke="#D32F2F" stroke-width="8.00" stroke-linecap="round"/>
<line x1="478.56" y1="179.09" x2="492.76" y2="165.17" stroke="#D32F2F" stroke-width="8.00" stroke-linecap="round"/>
<line x1="515.42" y1="172.09" x2="492.76" y2="165.17" stroke="#D32F2F" stroke-width="8.00" stroke-linecap="round"/>
<line x1="466.66" y1="159.03" x2="478.27" y2="143.57" stroke="#D32F2F" stroke-width="8.00" stroke-linecap="round"/>
<line x1="500.95" y1="147.70" x2="478.27" y2="143.57" stroke="#D32F2F" stroke-width="8.00" stroke-linecap="round"/>
<line x1="451.61" y1="140.04" x2="460.19" y2="123.22" stroke="#D32F2F" stroke-width="8.00" stroke-linecap="round"/>
<line x1="482.47" y1="124.39" x2="460.19" y2="123.22" stroke="#D32F2F" stroke-width="8.00" stroke-linecap="round"/>
<line x1="433.23" y1="122.58" x2="438.39" y2="104.74" stroke="#D32F2F" stroke-width="8.00" stroke-linecap="round"/>
<line x1="459.80" y1="102.86" x2="438.39" y2="104.74" stroke="#D32F2F" stroke-width="8.00" stroke-linecap="round"/>
<line x1="411.48" y1="107.27" x2="412.96" y2="88.87" stroke="#D32F2F" stroke-width="8.00" stroke-linecap="round"/>
<line x1="433.01" y1="83.99" x2="412.96" y2="88.87" stroke="#D32F2F" stroke-width="8.00" stroke-linecap="round"/>
<line x1="386.60" y1="94.83" x2="384.23" y2="76.45" stroke="#D32F2F" stroke-width="8.00" stroke-linecap="round"/>
<line x1="402.45" y1="68.71" x2="384.23" y2="76.45" stroke="#D32F2F" stroke-width="8.00" stroke-linecap="round"/>
<line x1="359.12" y1="86.00" x2="352.92" y2="68.25" stroke="#D32F2F" stroke-width="8.00" stroke-linecap="round"/>
<line x1="368.82" y1="57.90" x2="352.92" y2="68.25" stroke="#D32F2F" stroke-width="8.00" stroke-linecap="round"/>
<line x1="329.91" y1="81.41" x2="320.05" y2="64.91" stroke="#D32F2F" stroke-width="8.00" stroke-linecap="round"/>
<line x1="333.17" y1="52.30" x2="320.05" y2="64.91" stroke="#D32F2F" stroke-width="8.00" stroke-linecap="round"/>
<line x1="300.09" y1="81.41" x2="286.86" y2="66.72" stroke="#D32F2F" stroke-width="8.00" stroke-linecap="round"/>
<line x1="296.83" y1="52.30" x2="286.86" y2="66.72" stroke="#D32F2F" stroke-width="8.00" stroke-linecap="round"/>
<line x1="270.88" y1="86.00" x2="254.66" y2="73.59" stroke="#D32F2F" stroke-width="8.00" stroke-linecap="round"/>
<line x1="261.18" y1="57.90" x2="254.66" y2="73.59" stroke="#D32F2F" stroke-width="8.00" stroke-linecap="round"/>
<line x1="243.40" y1="94.83" x2="224.64" y2="85.08" stroke="#D32F2F" stroke-width="8.00" stroke-linecap="round"/>
<line x1="227.55" y1="68.71" x2="224.64" y2="85.08" stroke="#D32F2F" stroke-width="8.00" stroke-linecap="round"/>
<line x1="218.52" y1="107.27" x2="197.71" y2="100.45" stroke="#D32F2F" stroke-width="8.00" stroke-linecap="round"/>
<line x1="196.99" y1="83.99" x2="197.71" y2="100.45" stroke="#D32F2F" stroke-width="8.00" stroke-linecap="round"/>
<line x1="196.77" y1="122.58" x2="174.41" y2="118.86" stroke="#D32F2F" stroke-width="8.00" stroke-linecap="round"/>
<line x1="170.20" y1="102.86" x2="174.41" y2="118.86" stroke="#D32F2F" stroke-width="8.00" stroke-linecap="round"/>
<line x1="178.39" y1="140.04" x2="154.97" y2="139.49" stroke="#D32F2F" stroke-width="8.00" stroke-linecap="round"/>
<line x1="147.53" y1="124.39" x2="154.97" y2="139.49" stroke="#D32F2F" stroke-width="8.00" stroke-linecap="round"/>
<line x1="163.34" y1="159.03" x2="139.36" y2="161.60" stroke="#D32F2F" stroke-width="8.00" stroke-linecap="round"/>
<line x1="129.05" y1="147.70" x2="139.36" y2="161.60" stroke="#D32F2F" stroke-width="8.00" stroke-linecap="round"/>
<line x1="151.44" y1="179.09" x2="127.34" y2="184.63" stroke="#D32F2F" stroke-width="8.00" stroke-linecap="round"/>
<line x1="114.58" y1="172.09" x2="127.34" y2="184.63" stroke="#D32F2F" stroke-width="8.00" stroke-linecap="round"/>
<line x1="142.42" y1="199.91" x2="118.59" y2="208.15" stroke="#D32F2F" stroke-width="8.00" stroke-linecap="round"/>
<line x1="103.80" y1="196.97" x2="118.59" y2="208.15" stroke="#D32F2F" stroke-width="8.00" stroke-linecap="round"/>
<line x1="136.01" y1="221.30" x2="112.76" y2="231.88" stroke="#D32F2F" stroke-width="8.00" stroke-linecap="round"/>
<line x1="96.30" y1="221.95" x2="112.76" y2="231.88" stroke="#D32F2F" stroke-width="8.00" stroke-linecap="round"/>
<line x1="131.93" y1="243.15" x2="109.44" y2="255.65" stroke="#D32F2F" stroke-width="8.00" stroke-linecap="round"/>
<line x1="91.67" y1="246.74" x2="109.44" y2="255.65" stroke="#D32F2F" stroke-width="8.00" stroke-linecap="round"/>
<line x1="129.92" y1="265.42" x2="108.30" y2="279.36" stroke="#D32F2F" stroke-width="8.00" stroke-linecap="round"/>
<line x1="89.46" y1="271.18" x2="108.30" y2="279.36" stroke="#D32F2F" stroke-width="8.00" stroke-linecap="round"/>
<line x1="129.75" y1="288.11" x2="108.98" y2="302.98" stroke="#D32F2F" stroke-width="8.00" stroke-linecap="round"/>
<line x1="89.27" y1="295.20" x2="108.98" y2="302.98" stroke="#D32F2F" stroke-width="8.00" stroke-linecap="round"/>
<line x1="131.19" y1="311.23" x2="111.17" y2="326.49" stroke="#D32F2F" stroke-width="8.00" stroke-linecap="round"/>
<line x1="90.73" y1="318.77" x2="111.17" y2="326.49" stroke="#D32F2F" stroke-width="8.00" stroke-linecap="round"/>
<line x1="134.02" y1="334.80" x2="114.60" y2="349.91" stroke="#D32F2F" stroke-width="8.00" stroke-linecap="round"/>
<line x1="93.51" y1="341.89" x2="114.60" y2="349.91" stroke="#D32F2F" stroke-width="8.00" stroke-linecap="round"/>
<line x1="138.05" y1="358.82" x2="118.99" y2="373.25" stroke="#D32F2F" stroke-width="8.00" stroke-linecap="round"/>
<line x1="97.31" y1="364.58" x2="118.99" y2="373.25" stroke="#D32F2F" stroke-width="8.00" stroke-linecap="round"/>
<line x1="143.06" y1="383.26" x2="124.11" y2="396.50" stroke="#D32F2F" stroke-width="8.00" stroke-linecap="round"/>
<line x1="101.87" y1="386.85" x2="124.11" y2="396.50" stroke="#D32F2F" stroke-width="8.00" stroke-linecap="round"/>
<line x1="148.83" y1="408.05" x2="129.74" y2="419.60" stroke="#D32F2F" stroke-width="8.00" stroke-linecap="round"/>
<line x1="106.95" y1="408.70" x2="129.74" y2="419.60" stroke="#D32F2F" stroke-width="8.00" stroke-linecap="round"/>
<line x1="155.12" y1="433.03" x2="135.65" y2="442.44" stroke="#D32F2F" stroke-width="8.00" stroke-linecap="round"/>
<line x1="112.34" y1="430.09" x2="135.65" y2="442.44" stroke="#D32F2F" stroke-width="8.00" stroke-linecap="round"/>
<line x1="161.68" y1="457.91" x2="141.64" y2="464.83" stroke="#D32F2F" stroke-width="8.00" stroke-linecap="round"/>
<line x1="117.83" y1="450.91" x2="141.64" y2="464.83" stroke="#D32F2F" stroke-width="7.96" stroke-linecap="round"/>
<line x1="168.26" y1="482.30" x2="147.50" y2="486.43" stroke="#D32F2F" stroke-width="8.00" stroke-linecap="round"/>
<line x1="123.24" y1="470.97" x2="147.50" y2="486.43" stroke="#D32F2F" stroke-width="7.28" stroke-linecap="round"/>
<line x1="174.57" y1="505.61" x2="153.01" y2="506.78" stroke="#D32F2F" stroke-width="8.00" stroke-linecap="round"/>
<line x1="128.38" y1="489.96" x2="153.01" y2="506.78" stroke="#D32F2F" stroke-width="6.48" stroke-linecap="round"/>
<line x1="180.36" y1="527.14" x2="157.95" y2="525.26" stroke="#D32F2F" stroke-width="8.00" stroke-linecap="round"/>
<line x1="133.07" y1="507.42" x2="157.95" y2="525.26" stroke="#D32F2F" stroke-width="5.55" stroke-linecap="round"/>
<line x1="185.35" y1="546.01" x2="162.13" y2="541.13" stroke="#D32F2F" stroke-width="8.00" stroke-linecap="round"/>
<line x1="137.13" y1="522.73" x2="162.13" y2="541.13" stroke="#D32F2F" stroke-width="4.54" stroke-linecap="round"/>
<line x1="189.33" y1="561.29" x2="165.34" y2="553.55" stroke="#D32F2F" stroke-width="8.00" stroke-linecap="round"/>
<line x1="140.37" y1="535.17" x2="165.34" y2="553.55" stroke="#D32F2F" stroke-width="5.01" stroke-linecap="round"/>
<line x1="192.10" y1="572.10" x2="167.43" y2="561.75" stroke="#D32F2F" stroke-width="8.00" stroke-linecap="round"/>
<line x1="142.63" y1="544.00" x2="167.43" y2="561.75" stroke="#D32F2F" stroke-width="5.74" stroke-linecap="round"/>
<line x1="193.52" y1="577.70" x2="168.27" y2="565.09" stroke="#D32F2F" stroke-width="7.39" stroke-linecap="round"/>
<line x1="143.79" y1="548.59" x2="168.27" y2="565.09" stroke="#D32F2F" stroke-width="6.55" stroke-linecap="round"/>
<line x1="436.48" y1="577.70" x2="462.19" y2="563.28" stroke="#D32F2F" stroke-width="6.56" stroke-linecap="round"/>
<line x1="486.21" y1="548.59" x2="462.19" y2="563.28" stroke="#D32F2F" stroke-width="7.40" stroke-linecap="round"/>
<line x1="437.90" y1="572.10" x2="463.93" y2="556.41" stroke="#D32F2F" stroke-width="5.80" stroke-linecap="round"/>
<line x1="487.37" y1="544.00" x2="463.93" y2="556.41" stroke="#D32F2F" stroke-width="8.00" stroke-linecap="round"/>
<line x1="440.67" y1="561.29" x2="466.89" y2="544.92" stroke="#D32F2F" stroke-width="5.14" stroke-linecap="round"/>
<line x1="489.63" y1="535.17" x2="466.89" y2="544.92" stroke="#D32F2F" stroke-width="8.00" stroke-linecap="round"/>
<line x1="444.65" y1="546.01" x2="470.92" y2="529.55" stroke="#D32F2F" stroke-width="4.76" stroke-linecap="round"/>
<line x1="492.87" y1="522.73" x2="470.92" y2="529.55" stroke="#D32F2F" stroke-width="8.00" stroke-linecap="round"/>
<line x1="449.64" y1="527.14" x2="475.83" y2="511.14" stroke="#D32F2F" stroke-width="5.83" stroke-linecap="round"/>
<line x1="496.93" y1="507.42" x2="475.83" y2="511.14" stroke="#D32F2F" stroke-width="8.00" stroke-linecap="round"/>
<line x1="455.43" y1="505.61" x2="481.40" y2="490.51" stroke="#D32F2F" stroke-width="6.78" stroke-linecap="round"/>
<line x1="501.62" y1="489.96" x2="481.40" y2="490.51" stroke="#D32F2F" stroke-width="8.00" stroke-linecap="round"/>
<line x1="461.74" y1="482.30" x2="487.39" y2="468.40" stroke="#D32F2F" stroke-width="7.61" stroke-linecap="round"/>
<line x1="506.76" y1="470.97" x2="487.39" y2="468.40" stroke="#D32F2F" stroke-width="8.00" stroke-linecap="round"/>
<line x1="468.32" y1="457.91" x2="493.57" y2="445.37" stroke="#D32F2F" stroke-width="8.00" stroke-linecap="round"/>
<line x1="512.17" y1="450.91" x2="493.57" y2="445.37" stroke="#D32F2F" stroke-width="8.00" stroke-linecap="round"/>
<line x1="474.88" y1="433.03" x2="499.68" y2="421.85" stroke="#D32F2F" stroke-width="8.00" stroke-linecap="round"/>
<line x1="517.66" y1="430.09" x2="499.68" y2="421.85" stroke="#D32F2F" stroke-width="8.00" stroke-linecap="round"/>
<line x1="481.17" y1="408.05" x2="505.50" y2="398.12" stroke="#D32F2F" stroke-width="8.00" stroke-linecap="round"/>
<line x1="523.05" y1="408.70" x2="505.50" y2="398.12" stroke="#D32F2F" stroke-width="8.00" stroke-linecap="round"/>
<line x1="486.94" y1="383.26" x2="510.77" y2="374.35" stroke="#D32F2F" stroke-width="8.00" stroke-linecap="round"/>
<line x1="528.13" y1="386.85" x2="510.77" y2="374.35" stroke="#D32F2F" stroke-width="8.00" stroke-linecap="round"/>
<line x1="491.95" y1="358.82" x2="515.26" y2="350.64" stroke="#D32F2F" stroke-width="8.00" stroke-linecap="round"/>
<line x1="532.69" y1="364.58" x2="515.26" y2="350.64" stroke="#D32F2F" stroke-width="8.00" stroke-linecap="round"/>
<line x1="495.98" y1="334.80" x2="518.74" y2="327.02" stroke="#D32F2F" stroke-width="8.00" stroke-linecap="round"/>
<line x1="536.49" y1="341.89" x2="518.74" y2="327.02" stroke="#D32F2F" stroke-width="8.00" stroke-linecap="round"/>
<line x1="498.81" y1="311.23" x2="520.97" y2="303.51" stroke="#D32F2F" stroke-width="8.00" stroke-linecap="round"/>
<line x1="539.27" y1="318.77" x2="520.97" y2="303.51" stroke="#D32F2F" stroke-width="8.00" stroke-linecap="round"/>
<line x1="500.25" y1="288.11" x2="521.69" y2="280.09" stroke="#D32F2F" stroke-width="8.00" stroke-linecap="round"/>
<line x1="540.73" y1="295.20" x2="521.69" y2="280.09" stroke="#D32F2F" stroke-width="8.00" stroke-linecap="round"/>
<line x1="500.08" y1="265.42" x2="520.64" y2="256.75" stroke="#D32F2F" stroke-width="8.00" stroke-linecap="round"/>
<line x1="540.54" y1="271.18" x2="520.64" y2="256.75" stroke="#D32F2F" stroke-width="8.00" stroke-linecap="round"/>
<line x1="498.07" y1="243.15" x2="517.54" y2="233.50" stroke="#D32F2F" stroke-width="8.00" stroke-linecap="round"/>
<line x1="538.33" y1="246.74" x2="517.54" y2="233.50" stroke="#D32F2F" stroke-width="8.00" stroke-linecap="round"/>
<line x1="493.99" y1="221.30" x2="512.07" y2="210.40" stroke="#D32F2F" stroke-width="8.00" stroke-linecap="round"/>
<line x1="533.70" y1="221.95" x2="512.07" y2="210.40" stroke="#D32F2F" stroke-width="8.00" stroke-linecap="round"/>
<line x1="487.58" y1="199.91" x2="503.93" y2="187.56" stroke="#D32F2F" stroke-width="8.00" stroke-linecap="round"/>
<line x1="526.20" y1="196.97" x2="503.93" y2="187.56" stroke="#D32F2F" stroke-width="8.00" stroke-linecap="round"/>
<line x1="478.56" y1="179.09" x2="492.76" y2="165.17" stroke="#D32F2F" stroke-width="8.00" stroke-linecap="round"/>
<line x1="515.42" y1="172.09" x2="492.76" y2="165.17" stroke="#D32F2F" stroke-width="8.00" stroke-linecap="round"/>
<line x1="466.66" y1="159.03" x2="478.27" y2="143.57" stroke="#D32F2F" stroke-width="8.00" stroke-linecap="round"/>
<line x1="500.95" y1="147.70" x2="478.27" y2="143.57" stroke="#D32F2F" stroke-width="8.00" stroke-linecap="round"/>
<line x1="451.61" y1="140.04" x2="460.19" y2="123.22" stroke="#D32F2F" stroke-width="8.00" stroke-linecap="round"/>
<line x1="482.47" y1="124.39" x2="460.19" y2="123.22" stroke="#D32F2F" stroke-width="8.00" stroke-linecap="round"/>
<line x1="433.23" y1="122.58" x2="438.39" y2="104.74" stroke="#D32F2F" stroke-width="8.00" stroke-linecap="round"/>
<line x1="459.80" y1="102.86" x2="438.39" y2="104.74" stroke="#D32F2F" stroke-width="8.00" stroke-linecap="round"/>
<line x1="411.48" y1="107.27" x2="412.96" y2="88.87" stroke="#D32F2F" stroke-width="8.00" stroke-linecap="round"/>
<line x1="433.01" y1="83.99" x2="412.96" y2="88.87" stroke="#D32F2F" stroke-width="8.00" stroke-linecap="round"/>
<line x1="386.60" y1="94.83" x2="384.23" y2="76.45" stroke="#D32F2F" stroke-width="8.00" stroke-linecap="round"/>
<line x1="402.45" y1="68.71" x2="384.23" y2="76.45" stroke="#D32F2F" stroke-width="8.00" stroke-linecap="round"/>
<line x1="359.12" y1="86.00" x2="352.92" y2="68.25" stroke="#D32F2F" stroke-width="8.00" stroke-linecap="round"/>
<line x1="368.82" y1="57.90" x2="352.92" y2="68.25" stroke="#D32F2F" stroke-width="8.00" stroke-linecap="round"/>
<line x1="329.91" y1="81.41" x2="320.05" y2="64.91" stroke="#D32F2F" stroke-width="8.00" stroke-linecap="round"/>
<line x1="333.17" y1="52.30" x2="320.05" y2="64.91" stroke="#D32F2F" stroke-width="8.00" stroke-linecap="round"/>
<line x1="300.09" y1="81.41" x2="286.86" y2="66.72" stroke="#D32F2F" stroke-width="8.00" stroke-linecap="round"/>
<line x1="296.83" y1="52.30" x2="286.86" y2="66.72" stroke="#D32F2F" stroke-width="8.00" stroke-linecap="round"/>
<line x1="270.88" y1="86.00" x2="254.66" y2="73.59" stroke="#D32F2F" stroke-width="8.00" stroke-linecap="round"/>
<line x1="261.18" y1="57.90" x2="254.66" y2="73.59" stroke="#D32F2F" stroke-width="8.00" stroke-linecap="round"/>
<line x1="243.40" y1="94.83" x2="224.64" y2="85.08" stroke="#D32F2F" stroke-width="8.00" stroke-linecap="round"/>
<line x1="227.55" y1="68.71" x2="224.64" y2="85.08" stroke="#D32F2F" stroke-width="8.00" stroke-linecap="round"/>
<line x1="218.52" y1="107.27" x2="197.71" y2="100.45" stroke="#D32F2F" stroke-width="8.00" stroke-linecap="round"/>
<line x1="196.99" y1="83.99" x2="197.71" y2="100.45" stroke="#D32F2F" stroke-width="8.00" stroke-linecap="round"/>
<line x1="196.77" y1="122.58" x2="174.41" y2="118.86" stroke="#D32F2F" stroke-width="8.00" stroke-linecap="round"/>
<line x1="170.20" y1="102.86" x2="174.41" y2="118.86" stroke="#D32F2F" stroke-width="8.00" stroke-linecap="round"/>
<line x1="178.39" y1="140.04" x2="154.97" y2="139.49" stroke="#D32F2F" stroke-width="8.00" stroke-linecap="round"/>
<line x1="147.53" y1="124.39" x2="154.97" y2="139.49" stroke="#D32F2F" stroke-width="8.00" stroke-linecap="round"/>
<line x1="163.34" y1="159.03" x2="139.36" y2="161.60" stroke="#D32F2F" stroke-width="8.00" stroke-linecap="round"/>
<line x1="129.05" y1="147.70" x2="139.36" y2="161.60" stroke="#D32F2F" stroke-width="8.00" stroke-linecap="round"/>
<line x1="151.44" y1="179.09" x2="127.34" y2="184.63" stroke="#D32F2F" stroke-width="8.00" stroke-linecap="round"/>
<line x1="114.58" y1="172.09" x2="127.34" y2="184.63" stroke="#D32F2F" stroke-width="8.00" stroke-linecap="round"/>
<line x1="142.42" y1="199.91" x2="118.59" y2="208.15" stroke="#D32F2F" stroke-width="8.00" stroke-linecap="round"/>
<line x1="103.80" y1="196.97" x2="118.59" y2="208.15" stroke="#D32F2F" stroke-width="8.00" stroke-linecap="round"/>
<line x1="136.01" y1="221.30" x2="112.76" y2="231.88" stroke="#D32F2F" stroke-width="8.00" stroke-linecap="round"/>
<line x1="96.30" y1="221.95" x2="112.76" y2="231.88" stroke="#D32F2F" stroke-width="8.00" stroke-linecap="round"/>
<line x1="131.93" y1="243.15" x2="109.44" y2="255.65" stroke="#D32F2F" stroke-width="8.00" stroke-linecap="round"/>
<line x1="91.67" y1="246.74" x2="109.44" y2="255.65" stroke="#D32F2F" stroke-width="8.00" stroke-linecap="round"/>
<line x1="129.92" y1="265.42" x2="108.30" y2="279.36" stroke="#D32F2F" stroke-width="8.00" stroke-linecap="round"/>
<line x1="89.46" y1="271.18" x2="108.30" y2="279.36" stroke="#D32F2F" stroke-width="8.00" stroke-linecap="round"/>
<line x1="129.75" y1="288.11" x2="108.98" y2="302.98" stroke="#D32F2F" stroke-width="8.00" stroke-linecap="round"/>
<line x1="89.27" y1="295.20" x2="108.98" y2="302.98" stroke="#D32F2F" stroke-width="8.00" stroke-linecap="round"/>
<line x1="131.19" y1="311.23" x2="111.17" y2="326.49" stroke="#D32F2F" stroke-width="8.00" stroke-linecap="round"/>
<line x1="90.73" y1="318.77" x2="111.17" y2="326.49" stroke="#D32F2F" stroke-width="8.00" stroke-linecap="round"/>
<line x1="134.02" y1="334.80" x2="114.60" y2="349.91" stroke="#D32F2F" stroke-width="8.00" stroke-linecap="round"/>
<line x1="93.51" y1="341.89" x2="114.60" y2="349.91" stroke="#D32F2F" stroke-width="8.00" stroke-linecap="round"/>
<line x1="138.05" y1="358.82" x2="118.99" y2="373.25" stroke="#D32F2F" stroke-width="8.00" stroke-linecap="round"/>
<line x1="97.31" y1="364.58" x2="118.99" y2="373.25" stroke="#D32F2F" stroke-width="8.00" stroke-linecap="round"/>
<line x1="143.06" y1="383.26" x2="124.11" y2="396.50" stroke="#D32F2F" stroke-width="8.00" stroke-linecap="round"/>
<line x1="101.87" y1="386.85" x2="124.11" y2="396.50" stroke="#D32F2F" stroke-width="8.00" stroke-linecap="round"/>
<line x1="148.83" y1="408.05" x2="129.74" y2="419.60" stroke="#D32F2F" stroke-width="8.00" stroke-linecap="round"/>
<line x1="106.95" y1="408.70" x2="129.74" y2="419.60" stroke="#D32F2F" stroke-width="8.00" stroke-linecap="round"/>
<line x1="155.12" y1="433.03" x2="135.65" y2="442.44" stroke="#D32F2F" stroke-width="8.00" stroke-linecap="round"/>
<line x1="112.34" y1="430.09" x2="135.65" y2="442.44" stroke="#D32F2F" stroke-width="8.00" stroke-linecap="round"/>
<line x1="161.68" y1="457.91" x2="141.64" y2="464.83" stroke="#D32F2F" stroke-width="8.00" stroke-linecap="round"/>
<line x1="117.83" y1="450.91" x2="141.64" y2="464.83" stroke="#D32F2F" stroke-width="7.96" stroke-linecap="round"/>
<line x1="168.26" y1="482.30" x2="147.50" y2="486.43" stroke="#D32F2F" stroke-width="8.00" stroke-linecap="round"/>
<line x1="123.24" y1="470.97" x2="147.50" y2="486.43" stroke="#D32F2F" stroke-width="7.28" stroke-linecap="round"/>
<line x1="174.57" y1="505.61" x2="153.01" y2="506.78" stroke="#D32F2F" stroke-width="8.00" stroke-linecap="round"/>
<line x1="128.38" y1="489.96" x2="153.01" y2="506.78" stroke="#D32F2F" stroke-width="6.48" stroke-linecap="round"/>
<line x1="180.36" y1="527.14" x2="157.95" y2="525.26" stroke="#D32F2F" stroke-width="8.00" stroke-linecap="round"/>
<line x1="133.07" y1="507.42" x2="157.95" y2="525.26" stroke="#D32F2F" stroke-width="5.55" stroke-linecap="round"/>
<line x1="185.35" y1="546.01" x2="162.13" y2="541.13" stroke="#D32F2F" stroke-width="8.00" stroke-linecap="round"/>
<line x1="137.13" y1="522.73" x2="162.13" y2="541.13" stroke="#D32F2F" stroke-width="4.54" stroke-linecap="round"/>
<line x1="189.33" y1="561.29" x2="165.34" y2="553.55" stroke="#D32F2F" stroke-width="8.00" stroke-linecap="round"/>
<line x1="140.37" y1="535.17" x2="165.34" y2="553.55" stroke="#D32F2F" stroke-width="5.01" stroke-linecap="round"/>
<line x1="192.10" y1="572.10" x2="167.43" y2="561.75" stroke="#D32F2F" stroke-width="8.00" stroke-linecap="round"/>
<line x1="142.63" y1="544.00" x2="167.43" y2="561.75" stroke="#D32F2F" stroke-width="5.74" stroke-linecap="round"/>
<line x1="193.52" y1="577.70" x2="168.27" y2="565.09" stroke="#D32F2F" stroke-width="7.39" stroke-linecap="round"/>
<line x1="143.79" y1="548.59" x2="168.27" y2="565.09" stroke="#D32F2F" stroke-width="6.55" stroke-linecap="round"/>
</svg>