<svg width="630.0" height="630.0" viewBox="0 0 630.0 630.0" xmlns="http://www.w3.org/2000/svg">
<circle cx="315.0" cy="315.0" r="290.0" fill="#FDFDF5" stroke="#ccc" stroke-width="0.5"/>
<line x1="474.88" y1="556.92" x2="499.68" y2="538.52" stroke="#D32F2F" stroke-width="4.60" stroke-linecap="round"/>
<line x1="481.17" y1="550.92" x2="505.50" y2="531.71" stroke="#D32F2F" stroke-width="4.17" stroke-linecap="round"/>
<line x1="523.05" y1="516.86" x2="505.50" y2="531.71" stroke="#D32F2F" stroke-width="8.00" stroke-linecap="round"/>
<line x1="486.94" y1="542.54" x2="510.77" y2="522.69" stroke="#D32F2F" stroke-width="4.40" stroke-linecap="round"/>
<line x1="528.13" y1="509.47" x2="510.77" y2="522.69" stroke="#D32F2F" stroke-width="8.00" stroke-linecap="round"/>
<line x1="491.95" y1="532.24" x2="515.26" y2="511.83" stroke="#D32F2F" stroke-width="4.84" stroke-linecap="round"/>
<line x1="532.69" y1="500.07" x2="515.26" y2="511.83" stroke="#D32F2F" stroke-width="8.00" stroke-linecap="round"/>
<line x1="495.98" y1="520.39" x2="518.74" y2="499.43" stroke="#D32F2F" stroke-width="5.24" stroke-linecap="round"/>
<line x1="536.49" y1="488.88" x2="518.74" y2="499.43" stroke="#D32F2F" stroke-width="8.00" stroke-linecap="round"/>
<line x1="498.81" y1="507.34" x2="520.97" y2="485.77" stroke="#D32F2F" stroke-width="5.59" stroke-linecap="round"/>
<line x1="539.27" y1="476.07" x2="520.97" y2="485.77" stroke="#D32F2F" stroke-width="8.00" stroke-linecap="round"/>
<line x1="500.25" y1="493.37" x2="521.69" y2="471.10" stroke="#D32F2F" stroke-width="5.90" stroke-linecap="round"/>
<line x1="540.73" y1="461.83" x2="521.69" y2="471.10" stroke="#D32F2F" stroke-width="8.00" stroke-linecap="round"/>
<line x1="500.08" y1="478.74" x2="520.64" y2="455.62" stroke="#D32F2F" stroke-width="6.17" stroke-linecap="round"/>
<line x1="540.54" y1="446.33" x2="520.64" y2="455.62" stroke="#D32F2F" stroke-width="8.00" stroke-linecap="round"/>
<line x1="498.07" y1="463.65" x2="517.54" y2="439.56" stroke="#D32F2F" stroke-width="6.42" stroke-linecap="round"/>
<line x1="538.33" y1="429.77" x2="517.54" y2="439.56" stroke="#D32F2F" stroke-width="8.00" stroke-linecap="round"/>
<line x1="493.99" y1="448.32" x2="512.07" y2="423.14" stroke="#D32F2F" stroke-width="6.66" stroke-linecap="round"/>
<line x1="533.70" y1="412.38" x2="512.07" y2="423.14" stroke="#D32F2F" stroke-width="8.00" stroke-linecap="round"/>
<line x1="487.58" y1="432.97" x2="503.93" y2="406.60" stroke="#D32F2F" stroke-width="6.90" stroke-linecap="round"/>
<line x1="526.20" y1="394.45" x2="503.93" y2="406.60" stroke="#D32F2F" stroke-width="8.00" stroke-linecap="round"/>
<line x1="478.56" y1="417.80" x2="492.76" y2="390.22" stroke="#D32F2F" stroke-width="7.18" stroke-linecap="round"/>
<line x1="515.42" y1="376.32" x2="492.76" y2="390.22" stroke="#D32F2F" stroke-width="8.00" stroke-linecap="round"/>
<line x1="466.66" y1="403.08" x2="478.27" y2="374.35" stroke="#D32F2F" stroke-width="7.51" stroke-linecap="round"/>
<line x1="500.95" y1="358.44" x2="478.27" y2="374.35" stroke="#D32F2F" stroke-width="8.00" stroke-linecap="round"/>
<line x1="451.61" y1="389.13" x2="460.19" y2="359.40" stroke="#D32F2F" stroke-width="7.93" stroke-linecap="round"/>
<line x1="482.47" y1="341.31" x2="460.19" y2="359.40" stroke="#D32F2F" stroke-width="8.00" stroke-linecap="round"/>
<line x1="433.23" y1="376.34" x2="438.39" y2="345.88" stroke="#D32F2F" stroke-width="8.00" stroke-linecap="round"/>
<line x1="459.80" y1="325.54" x2="438.39" y2="345.88" stroke="#D32F2F" stroke-width="8.00" stroke-linecap="round"/>
<line x1="411.48" y1="365.17" x2="412.96" y2="334.33" stroke="#D32F2F" stroke-width="8.00" stroke-linecap="round"/>
<line x1="433.01" y1="311.77" x2="412.96" y2="334.33" stroke="#D32F2F" stroke-width="8.00" stroke-linecap="round"/>
<line x1="386.60" y1="356.15" x2="384.23" y2="325.33" stroke="#D32F2F" stroke-width="8.00" stroke-linecap="round"/>
<line x1="402.45" y1="300.69" x2="384.23" y2="325.33" stroke="#D32F2F" stroke-width="8.00" stroke-linecap="round"/>
<line x1="359.12" y1="349.78" x2="352.92" y2="319.43" stroke="#D32F2F" stroke-width="8.00" stroke-linecap="round"/>
<line x1="368.82" y1="292.89" x2="352.92" y2="319.43" stroke="#D32F2F" stroke-width="8.00" stroke-linecap="round"/>
<line x1="329.91" y1="346.48" x2="320.05" y2="317.03" stroke="#D32F2F" stroke-width="8.00" stroke-linecap="round"/>
<line x1="333.17" y1="288.86" x2="320.05" y2="317.03" stroke="#D32F2F" stroke-width="8.00" stroke-linecap="round"/>
<line x1="300.09" y1="346.48" x2="286.86" y2="318.33" stroke="#D32F2F" stroke-width="8.00" stroke-linecap="round"/>
<line x1="296.83" y1="288.86" x2="286.86" y2="318.33" stroke="#D32F2F" stroke-width="8.00" stroke-linecap="round"/>
<line x1="270.88" y1="349.78" x2="254.66" y2="323.28" stroke="#D32F2F" stroke-width="8.00" stroke-linecap="round"/>
<line x1="261.18" y1="292.89" x2="254.66" y2="323.28" stroke="#D32F2F" stroke-width="8.00" stroke-linecap="round"/>
<line x1="243.40" y1="356.15" x2="224.64" y2="331.58" stroke="#D32F2F" stroke-width="8.00" stroke-linecap="round"/>
<line x1="227.55" y1="300.69" x2="224.64" y2="331.58" stroke="#D32F2F" stroke-width="8.00" stroke-linecap="round"/>
<line x1="218.52" y1="365.17" x2="197.71" y2="342.75" stroke="#D32F2F" stroke-width="8.00" stroke-linecap="round"/>
<line x1="196.99" y1="311.77" x2="197.71" y2="342.75" stroke="#D32F2F" stroke-width="8.00" stroke-linecap="round"/>
<line x1="196.77" y1="376.34" x2="174.41" y2="356.21" stroke="#D32F2F" stroke-width="8.00" stroke-linecap="round"/>
<line x1="170.20" y1="325.54" x2="174.41" y2="356.21" stroke="#D32F2F" stroke-width="8.00" stroke-linecap="round"/>
<line x1="178.39" y1="389.13" x2="154.97" y2="371.35" stroke="#D32F2F" stroke-width="8.00" stroke-linecap="round"/>
<line x1="147.53" y1="341.31" x2="154.97" y2="371.35" stroke="#D32F2F" stroke-width="7.51" stroke-linecap="round"/>
<line x1="163.34" y1="403.08" x2="139.36" y2="387.60" stroke="#D32F2F" stroke-width="8.00" stroke-linecap="round"/>
<line x1="129.05" y1="358.44" x2="139.36" y2="387.60" stroke="#D32F2F" stroke-width="7.10" stroke-linecap="round"/>
<line x1="151.44" y1="417.80" x2="127.34" y2="404.46" stroke="#D32F2F" stroke-width="8.00" stroke-linecap="round"/>
<line x1="114.58" y1="376.32" x2="127.34" y2="404.46" stroke="#D32F2F" stroke-width="6.78" stroke-linecap="round"/>
<line x1="142.42" y1="432.97" x2="118.59" y2="421.52" stroke="#D32F2F" stroke-width="8.00" stroke-linecap="round"/>
<line x1="103.80" y1="394.45" x2="118.59" y2="421.52" stroke="#D32F2F" stroke-width="6.53" stroke-linecap="round"/>
<line x1="136.01" y1="448.32" x2="112.76" y2="438.42" stroke="#D32F2F" stroke-width="8.00" stroke-linecap="round"/>
<line x1="96.30" y1="412.38" x2="112.76" y2="438.42" stroke="#D32F2F" stroke-width="6.32" stroke-linecap="round"/>
<line x1="131.93" y1="463.65" x2="109.44" y2="454.87" stroke="#D32F2F" stroke-width="8.00" stroke-linecap="round"/>
<line x1="91.67" y1="429.77" x2="109.44" y2="454.87" stroke="#D32F2F" stroke-width="6.11" stroke-linecap="round"/>
<line x1="129.92" y1="478.74" x2="108.30" y2="470.61" stroke="#D32F2F" stroke-width="8.00" stroke-linecap="round"/>
<line x1="89.46" y1="446.33" x2="108.30" y2="470.61" stroke="#D32F2F" stroke-width="5.89" stroke-linecap="round"/>
<line x1="129.75" y1="493.37" x2="108.98" y2="485.44" stroke="#D32F2F" stroke-width="8.00" stroke-linecap="round"/>
<line x1="89.27" y1="461.83" x2="108.98" y2="485.44" stroke="#D32F2F" stroke-width="5.65" stroke-linecap="round"/>
<line x1="131.19" y1="507.34" x2="111.17" y2="499.12" stroke="#D32F2F" stroke-width="8.00" stroke-linecap="round"/>
<line x1="90.73" y1="476.07" x2="111.17" y2="499.12" stroke="#D32F2F" stroke-width="5.38" stroke-linecap="round"/>
<line x1="134.02" y1="520.39" x2="114.60" y2="511.45" stroke="#D32F2F" stroke-width="8.00" stroke-linecap="round"/>
<line x1="93.51" y1="488.88" x2="114.60" y2="511.45" stroke="#D32F2F" stroke-width="5.07" stroke-linecap="round"/>
<line x1="138.05" y1="532.24" x2="118.99" y2="522.21" stroke="#D32F2F" stroke-width="8.00" stroke-linecap="round"/>
<line x1="97.31" y1="500.07" x2="118.99" y2="522.21" stroke="#D32F2F" stroke-width="4.71" stroke-linecap="round"/>
<line x1="143.06" y1="542.54" x2="124.11" y2="531.15" stroke="#D32F2F" stroke-width="8.00" stroke-linecap="round"/>
<line x1="101.87" y1="509.47" x2="124.11" y2="531.15" stroke="#D32F2F" stroke-width="4.31" stroke-linecap="round"/>
<line x1="148.83" y1="550.92" x2="129.74" y2="537.97" stroke="#D32F2F" stroke-width="8.00" stroke-linecap="round"/>
<line x1="106.95" y1="516.86" x2="129.74" y2="537.97" stroke="#D32F2F" stroke-width="4.13" stroke-linecap="round"/>
<line x1="103.80" y1="117.52" x2="126.07" y2="95.96" stroke="#D32F2F" stroke-width="4.50" stroke-linecap="round"/>
<line x1="151.44" y1="76.29" x2="137.24" y2="89.96" stroke="#D32F2F" stroke-width="8.00" stroke-linecap="round"/>
<line x1="114.58" y1="110.76" x2="137.24" y2="89.96" stroke="#D32F2F" stroke-width="5.28" stroke-linecap="round"/>
<line x1="163.34" y1="70.94" x2="151.73" y2="84.23" stroke="#D32F2F" stroke-width="8.00" stroke-linecap="round"/>
<line x1="129.05" y1="104.27" x2="151.73" y2="84.23" stroke="#D32F2F" stroke-width="6.16" stroke-linecap="round"/>
<line x1="178.39" y1="65.90" x2="169.81" y2="78.82" stroke="#D32F2F" stroke-width="8.00" stroke-linecap="round"/>
<line x1="147.53" y1="98.08" x2="169.81" y2="78.82" stroke="#D32F2F" stroke-width="7.08" stroke-linecap="round"/>
<line x1="196.77" y1="61.24" x2="191.61" y2="73.86" stroke="#D32F2F" stroke-width="8.00" stroke-linecap="round"/>
<line x1="170.20" y1="92.33" x2="191.61" y2="73.86" stroke="#D32F2F" stroke-width="7.98" stroke-linecap="round"/>
<line x1="218.52" y1="57.09" x2="217.04" y2="69.54" stroke="#D32F2F" stroke-width="8.00" stroke-linecap="round"/>
<line x1="196.99" y1="87.22" x2="217.04" y2="69.54" stroke="#D32F2F" stroke-width="8.00" stroke-linecap="round"/>
<line x1="243.40" y1="53.68" x2="245.77" y2="66.11" stroke="#D32F2F" stroke-width="8.00" stroke-linecap="round"/>
<line x1="227.55" y1="83.02" x2="245.77" y2="66.11" stroke="#D32F2F" stroke-width="8.00" stroke-linecap="round"/>
<line x1="270.88" y1="51.22" x2="277.08" y2="63.82" stroke="#D32F2F" stroke-width="8.00" stroke-linecap="round"/>
<line x1="261.18" y1="80.01" x2="277.08" y2="63.82" stroke="#D32F2F" stroke-width="8.00" stroke-linecap="round"/>
<line x1="300.09" y1="49.93" x2="309.95" y2="62.88" stroke="#D32F2F" stroke-width="8.00" stroke-linecap="round"/>
<line x1="296.83" y1="78.44" x2="309.95" y2="62.88" stroke="#D32F2F" stroke-width="8.00" stroke-linecap="round"/>
<line x1="329.91" y1="49.93" x2="343.14" y2="63.39" stroke="#D32F2F" stroke-width="8.00" stroke-linecap="round"/>
<line x1="333.17" y1="78.44" x2="343.14" y2="63.39" stroke="#D32F2F" stroke-width="8.00" stroke-linecap="round"/>
<line x1="359.12" y1="51.22" x2="375.34" y2="65.32" stroke="#D32F2F" stroke-width="8.00" stroke-linecap="round"/>
<line x1="368.82" y1="80.01" x2="375.34" y2="65.32" stroke="#D32F2F" stroke-width="8.00" stroke-linecap="round"/>
<line x1="386.60" y1="53.68" x2="405.36" y2="68.50" stroke="#D32F2F" stroke-width="8.00" stroke-linecap="round"/>
<line x1="402.45" y1="83.02" x2="405.36" y2="68.50" stroke="#D32F2F" stroke-width="8.00" stroke-linecap="round"/>
<line x1="411.48" y1="57.09" x2="432.29" y2="72.70" stroke="#D32F2F" stroke-width="8.00" stroke-linecap="round"/>
<line x1="433.01" y1="87.22" x2="432.29" y2="72.70" stroke="#D32F2F" stroke-width="8.00" stroke-linecap="round"/>
<line x1="433.23" y1="61.24" x2="455.59" y2="77.65" stroke="#D32F2F" stroke-width="7.84" stroke-linecap="round"/>
<line x1="459.80" y1="92.33" x2="455.59" y2="77.65" stroke="#D32F2F" stroke-width="8.00" stroke-linecap="round"/>
<line x1="451.61" y1="65.90" x2="475.03" y2="83.14" stroke="#D32F2F" stroke-width="6.95" stroke-linecap="round"/>
<line x1="482.47" y1="98.08" x2="475.03" y2="83.14" stroke="#D32F2F" stroke-width="8.00" stroke-linecap="round"/>
<line x1="466.66" y1="70.94" x2="490.64" y2="89.01" stroke="#D32F2F" stroke-width="6.06" stroke-linecap="round"/>
<line x1="500.95" y1="104.27" x2="490.64" y2="89.01" stroke="#D32F2F" stroke-width="8.00" stroke-linecap="round"/>
<line x1="478.56" y1="76.29" x2="502.66" y2="95.17" stroke="#D32F2F" stroke-width="5.21" stroke-linecap="round"/>
<line x1="515.42" y1="110.76" x2="502.66" y2="95.17" stroke="#D32F2F" stroke-width="8.00" stroke-linecap="round"/>
<line x1="526.20" y1="117.52" x2="511.41" y2="101.63" stroke="#D32F2F" stroke-width="8.00" stroke-linecap="round"/>
<line x1="474.88" y1="556.92" x2="499.68" y2="538.52" stroke="#D32F2F" stroke-width="4.60" stroke-linecap="round"/>
<line x1="481.17" y1="550.92" x2="505.50" y2="531.71" stroke="#D32F2F" stroke-width="4.17" stroke-linecap="round"/>
<line x1="523.05" y1="516.86" x2="505.50" y2="531.71" stroke="#D32F2F" stroke-width="8.00" stroke-linecap="round"/>
<line x1="486.94" y1="542.54" x2="510.77" y2="522.69" stroke="#D32F2F" stroke-width="4.40" stroke-linecap="round"/>
<line x1="528.13" y1="509.47" x2="510.77" y2="522.69" stroke="#D32F2F" stroke-width="8.00" stroke-linecap="round"/>
<line x1="491.95" y1="532.24" x2="515.26" y2="511.83" stroke="#D32F2F" stroke-width="4.84" stroke-linecap="round"/>
<line x1="532.69" y1="500.07" x2="515.26" y2="511.83" stroke="#D32F2F" stroke-width="8.00" stroke-linecap="round"/>
<line x1="495.98" y1="520.39" x2="518.74" y2="499.43" stroke="#D32F2F" stroke-width="5.24" stroke-linecap="round"/>
<line x1="536.49" y1="488.88" x2="518.74" y2="499.43" stroke="#D32F2F" stroke-width="8.00" stroke-linecap="round"/>
<line x1="498.81" y1="507.34" x2="520.97" y2="485.77" stroke="#D32F2F" stroke-width="5.59" stroke-linecap="round"/>
<line x1="539.27" y1="476.07" x2="520.97" y2="485.77" stroke="#D32F2F" stroke-width="8.00" stroke-linecap="round"/>
<line x1="500.25" y1="493.37" x2="521.69" y2="471.10" stroke="#D32F2F" stroke-width="5.90" stroke-linecap="round"/>
<line x1="540.73" y1="461.83" x2="521.69" y2="471.10" stroke="#D32F2F" stroke-width="8.00" stroke-linecap="round"/>
<line x1="500.08" y1="478.74" x2="520.64" y2="455.62" stroke="#D32F2F" stroke-width="6.17" stroke-linecap="round"/>
<line x1="540.54" y1="446.33" x2="520.64" y2="455.62" stroke="#D32F2F" stroke-width="8.00" stroke-linecap="round"/>
<line x1="498.07" y1="463.65" x2="517.54" y2="439.56" stroke="#D32F2F" stroke-width="6.42" stroke-linecap="round"/>
<line x1="538.33" y1="429.77" x2="517.54" y2="439.56" stroke="#D32F2F" stroke-width="8.00" stroke-linecap="round"/>
<line x1="493.99" y1="448.32" x2="512.07" y2="423.14" stroke="#D32F2F" stroke-width="6.66" stroke-linecap="round"/>
<line x1="533.70" y1="412.38" x2="512.07" y2="423.14" stroke="#D32F2F" stroke-width="8.00" stroke-linecap="round"/>
<line x1="487.58" y1="432.97" x2="503.93" y2="406.60" stroke="#D32F2F" stroke-width="6.90" stroke-linecap="round"/>
<line x1="526.20" y1="394.45" x2="503.93" y2="406.60" stroke="#D32F2F" stroke-width="8.00" stroke-linecap="round"/>
<line x1="478.56" y1="417.80" x2="492.76" y2="390.22" stroke="#D32F2F" stroke-width="7.18" stroke-linecap="round"/>
<line x1="515.42" y1="376.32" x2="492.76" y2="390.22" stroke="#D32F2F" stroke-width="8.00" stroke-linecap="round"/>
<line x1="466.66" y1="403.08" x2="478.27" y2="374.35" stroke="#D32F2F" stroke-width="7.51" stroke-linecap="round"/>
<line x1="500.95" y1="358.44" x2="478.27" y2="374.35" stroke="#D32F2F" stroke-width="8.00" stroke-linecap="round"/>
<line x1="451.61" y1="389.13" x2="460.19" y2="359.40" stroke="#D32F2F" stroke-width="7.93" stroke-linecap="round"/>
<line x1="482.47" y1="341.31" x2="460.19" y2="359.40" stroke="#D32F2F" stroke-width="8.00" stroke-linecap="round"/>
<line x1="433.23" y1="376.34" x2="438.39" y2="345.88" stroke="#D32F2F" stroke-width="8.00" stroke-linecap="round"/>
<line x1="459.80" y1="325.54" x2="438.39" y2="345.88" stroke="#D32F2F" stroke-width="8.00" stroke-linecap="round"/>
<line x1="411.48" y1="365.17" x2="412.96" y2="334.33" stroke="#D32F2F" stroke-width="8.00" stroke-linecap="round"/>
<line x1="433.01" y1="311.77" x2="412.96" y2="334.33" stroke="#D32F2F" stroke-width="8.00" stroke-linecap="round"/>
<line x1="386.60" y1="356.15" x2="384.23" y2="325.33" stroke="#D32F2F" stroke-width="8.00" stroke-linecap="round"/>
<line x1="402.45" y1="300.69" x2="384.23" y2="325.33" stroke="#D32F2F" stroke-width="8.00" stroke-linecap="round"/>
<line x1="359.12" y1="349.78" x2="352.92" y2="319.43" stroke="#D32F2F" stroke-width="8.00" stroke-linecap="round"/>
<line x1="368.82" y1="292.89" x2="352.92" y2="319.43" stroke="#D32F2F" stroke-width="8.00" stroke-linecap="round"/>
<line x1="329.91" y1="346.48" x2="320.05" y2="317.03" stroke="#D32F2F" stroke-width="8.00" stroke-linecap="round"/>
<line x1="333.17" y1="288.86" x2="320.05" y2="317.03" stroke="#D32F2F" stroke-width="8.00" stroke-linecap="round"/>
<line x1="300.09" y1="346.48" x2="286.86" y2="318.33" stroke="#D32F2F" stroke-width="8.00" stroke-linecap="round"/>
<line x1="296.83" y1="288.86" x2="286.86" y2="318.33" stroke="#D32F2F" stroke-width="8.00" stroke-linecap="round"/>
<line x1="270.88" y1="349.78" x2="254.66" y2="323.28" stroke="#D32F2F" stroke-width="8.00" stroke-linecap="round"/>
<line x1="261.18" y1="292.89" x2="254.66" y2="323.28" stroke="#D32F2F" stroke-width="8.00" stroke-linecap="round"/>
<line x1="243.40" y1="356.15" x2="224.64" y2="331.58" stroke="#D32F2F" stroke-width="8.00" stroke-linecap="round"/>
<line x1="227.55" y1="300.69" x2="224.64" y2="331.58" stroke="#D32F2F" stroke-width="8.00" stroke-linecap="round"/>
<line x1="218.52" y1="365.17" x2="197.71" y2="342.75" stroke="#D32F2F" stroke-width="8.00" stroke-linecap="round"/>
<line x1="196.99" y1="311.77" x2="197.71" y2="342.75" stroke="#D32F2F" stroke-width="8.00" stroke-linecap="round"/>
<line x1="196.77" y1="376.34" x2="174.41" y2="356.21" stroke="#D32F2F" stroke-width="8.00" stroke-linecap="round"/>
<line x1="170.20" y1="325.54" x2="174.41" y2="356.21" stroke="#D32F2F" stroke-width="8.00" stroke-linecap="round"/>
<line x1="178.39" y1="389.13" x2="154.97" y2="371.35" stroke="#D32F2F" stroke-width="8.00" stroke-linecap="round"/>
<line x1="147.53" y1="341.31" x2="154.97" y2="371.35" stroke="#D32F2F" stroke-width="7.51" stroke-linecap="round"/>
<line x1="163.34" y1="403.08" x2="139.36" y2="387.60" stroke="#D32F2F" stroke-width="8.00" stroke-linecap="round"/>
<line x1="129.05" y1="358.44" x2="139.36" y2="387.60" stroke="#D32F2F" stroke-width="7.10" stroke-linecap="round"/>
<line x1="151.44" y1="417.80" x2="127.34" y2="404.46" stroke="#D32F2F" stroke-width="8.00" stroke-linecap="round"/>
<line x1="114.58" y1="376.32" x2="127.34" y2="404.46" stroke="#D32F2F" stroke-width="6.78" stroke-linecap="round"/>
<line x1="142.42" y1="432.97" x2="118.59" y2="421.52" stroke="#D32F2F" stroke-width="8.00" stroke-linecap="round"/>
<line x1="103.80" y1="394.45" x2="118.59" y2="421.52" stroke="#D32F2F" stroke-width="6.53" stroke-linecap="round"/>
<line x1="136.01" y1="448.32" x2="112.76" y2="438.42" stroke="#D32F2F" stroke-width="8.00" stroke-linecap="round"/>
<line x1="96.30" y1="412.38" x2="112.76" y2="438.42" stroke="#D32F2F" stroke-width="6.32" stroke-linecap="round"/>
<line x1="131.93" y1="463.65" x2="109.44" y2="454.87" stroke="#D32F2F" stroke-width="8.00" stroke-linecap="round"/>
<line x1="91.67" y1="429.77" x2="109.44" y2="454.87" stroke="#D32F2F" stroke-width="6.11" stroke-linecap="round"/>
<line x1="129.92" y1="478.74" x2="108.30" y2="470.61" stroke="#D32F2F" stroke-width="8.00" stroke-linecap="round"/>
<line x1="89.46" y1="446.33" x2="108.30" y2="470.61" stroke="#D32F2F" stroke-width="5.89" stroke-linecap="round"/>
<line x1="129.75" y1="493.37" x2="108.98" y2="485.44" stroke="#D32F2F" stroke-width="8.00" stroke-linecap="round"/>
<line x1="89.27" y1="461.83" x2="108.98" y2="485.44" stroke="#D32F2F" stroke-width="5.65" stroke-linecap="round"/>
<line x1="131.19" y1="507.34" x2="111.17" y2="499.12" stroke="#D32F2F" stroke-width="8.00" stroke-linecap="round"/>
<line x1="90.73" y1="476.07" x2="111.17" y2="499.12" stroke="#D32F2F" stroke-width="5.38" stroke-linecap="round"/>
<line x1="134.02" y1="520.39" x2="114.60" y2="511.45" stroke="#D32F2F" stroke-width="8.00" stroke-linecap="round"/>
<line x1="93.51" y1="488.88" x2="114.60" y2="511.45" stroke="#D32F2F" stroke-width="5.07" stroke-linecap="round"/>
<line x1="138.05" y1="532.24" x2="118.99" y2="522.21" stroke="#D32F2F" stroke-width="8.00" stroke-linecap="round"/>
<line x1="97.31" y1="500.07" x2="118.99" y2="522.21" stroke="#D32F2F" stroke-width="4.71" stroke-linecap="round"/>
<line x1="143.06" y1="542.54" x2="124.11" y2="531.15" stroke="#D32F2F" stroke-width="8.00" stroke-linecap="round"/>
<line x1="101.87" y1="509.47" x2="124.11" y2="531.15" stroke="#D32F2F" stroke-width="4.31" stroke-linecap="round"/>
<line x1="148.83" y1="550.92" x2="129.74" y2="537.97" stroke="#D32F2F" stroke-width="8.00" stroke-linecap="round"/>
<line x1="106.95" y1="516.86" x2="129.74" y2="537.97" stroke="#D32F2F" stroke-width="4.13" stroke-linecap="round"/>
<line x1="103.80" y1="117.52" x2="126.07" y2="95.96" stroke="#D32F2F" stroke-width="4.50" stroke-linecap="round"/>
<line x1="151.44" y1="76.29" x2="137.24" y2="89.96" stroke="#D32F2F" stroke-width="8.00" stroke-linecap="round"/>
<line x1="114.58" y1="110.76" x2="137.24" y2="89.96" stroke="#D32F2F" stroke-width="5.28" stroke-linecap="round"/>
<line x1="163.34" y1="70.94" x2="151.73" y2="84.23" stroke="#D32F2F" stroke-width="8.00" stroke-linecap="round"/>
<line x1="129.05" y1="104.27" x2="151.73" y2="84.23" stroke="#D32F2F" stroke-width="6.16" stroke-linecap="round"/>
<line x1="178.39" y1="65.90" x2="169.81" y2="78.82" stroke="#D32F2F" stroke-width="8.00" stroke-linecap="round"/>
<line x1="147.53" y1="98.08" x2="169.81" y2="78.82" stroke="#D32F2F" stroke-width="7.08" stroke-linecap="round"/>
<line x1="196.77" y1="61.24" x2="191.61" y2="73.86" stroke="#D32F2F" stroke-width="8.00" stroke-linecap="round"/>
<line x1="170.20" y1="92.33" x2="191.61" y2="73.86" stroke="#D32F2F" stroke-width="7.98" stroke-linecap="round"/>
<line x1="218.52" y1="57.09" x2="217.04" y2="69.54" stroke="#D32F2F" stroke-width="8.00" stroke-linecap="round"/>
<line x1="196.99" y1="87.22" x2="217.04" y2="69.54" stroke="#D32F2F" stroke-width="8.00" stroke-linecap="round"/>
<line x1="243.40" y1="53.68" x2="245.77" y2="66.11" stroke="#D32F2F" stroke-width="8.00" stroke-linecap="round"/>
<line x1="227.55" y1="83.02" x2="245.77" y2="66.11" stroke="#D32F2F" stroke-width="8.00" stroke-linecap="round"/>
<line x1="270.88" y1="51.22" x2="277.08" y2="63.82" stroke="#D32F2F" stroke-width="8.00" stroke-linecap="round"/>
<line x1="261.18" y1="80.01" x2="277.08" y2="63.82" stroke="#D32F2F" stroke-width="8.00" stroke-linecap="round"/>
<line x1="300.09" y1="49.93" x2="309.95" y2="62.88" stroke="#D32F2F" stroke-width="8.00" stroke-linecap="round"/>
<line x1="296.83" y1="78.44" x2="309.95" y2="62.88" stroke="#D32F2F" stroke-width="8.00" stroke-linecap="round"/>
<line x1="329.91" y1="49.93" x2="343.14" y2="63.39" stroke="#D32F2F" stroke-width="8.00" stroke-linecap="round"/>
<line x1="333.17" y1="78.44" x2="343.14" y2="63.39" stroke="#D32F2F" stroke-width="8.00" stroke-linecap="round"/>
<line x1="359.12" y1="51.22" x2="375.34" y2="65.32" stroke="#D32F2F" stroke-width="8.00" stroke-linecap="round"/>
<line x1="368.82" y1="80.01" x2="375.34" y2="65.32" stroke="#D32F2F" stroke-width="8.00" stroke-linecap="round"/>
<line x1="386.60" y1="53.68" x2="405.36" y2="68.50" stroke="#D32F2F" stroke-width="8.00" stroke-linecap="round"/>
<line x1="402.45" y1="83.02" x2="405.36" y2="68.50" stroke="#D32F2F" stroke-width="8.00" stroke-linecap="round"/>
<line x1="411.48" y1="57.09" x2="432.29" y2="72.70" stroke="#D32F2F" stroke-width="8.00" stroke-linecap="round"/>
<line x1="433.01" y1="87.22" x2="432.29" y2="72.70" stroke="#D32F2F" stroke-width="8.00" stroke-linecap="round"/>
<line x1="433.23" y1="61.24" x2="455.59" y2="77.65" stroke="#D32F2F" stroke-width="7.84" stroke-linecap="round"/>
<line x1="459.80" y1="92.33" x2="455.59" y2="77.65" stroke="#D32F2F" stroke-width="8.00" stroke-linecap="round"/>
<line x1="451.61" y1="65.90" x2="475.03" y2="83.14" stroke="#D32F2F" stroke-width="6.95" stroke-linecap="round"/>
<line x1="482.47" y1="98.08" x2="475.03" y2="83.14" stroke="#D32F2F" stroke-width="8.00" stroke-linecap="round"/>
<line x1="466.66" y1="70.94" x2="490.64" y2="89.01" stroke="#D32F2F" stroke-width="6.06" stroke-linecap="round"/>
<line x1="500.95" y1="104.27" x2="490.64" y2="89.01" stroke="#D32F2F" stroke-width="8.00" stroke-linecap="round"/>
<line x1="478.56" y1="76.29" x2="502.66" y2="95.17" stroke="#D32F2F" stroke-width="5.21" stroke-linecap="round"/>
<line x1="515.42" y1="110.76" x2="502.66" y2="95.17" stroke="#D32F2F" stroke-width="8.00" stroke-linecap="round"/>
<line x1="526.20" y1="117.52" x2="511.41" y2="101.63" stroke="#D32F2F" stroke-width="8.00" stroke-linecap="round"/>
</svg>