<svg width="630.0" height="630.0" viewBox="0 0 630.0 630.0" xmlns="http://www.w3.org/2000/svg">
<circle cx="315.0" cy="315.0" r="290.0" fill="#FDFDF5" stroke="#ccc" stroke-width="0.5"/>
<line x1="447.64" y1="572.10" x2="474.48" y2="556.41" stroke="#D32F2F" stroke-width="4.13" stroke-linecap="round"/>
<line x1="459.02" y1="561.29" x2="485.10" y2="544.92" stroke="#D32F2F" stroke-width="5.11" stroke-linecap="round"/>
<line x1="502.22" y1="535.17" x2="485.10" y2="544.92" stroke="#D32F2F" stroke-width="8.00" stroke-linecap="round"/>
<line x1="470.77" y1="546.01" x2="495.96" y2="529.55" stroke="#D32F2F" stroke-width="6.08" stroke-linecap="round"/>
<line x1="511.78" y1="522.73" x2="495.96" y2="529.55" stroke="#D32F2F" stroke-width="8.00" stroke-linecap="round"/>
<line x1="482.53" y1="527.14" x2="506.73" y2="511.14" stroke="#D32F2F" stroke-width="7.00" stroke-linecap="round"/>
<line x1="521.33" y1="507.42" x2="506.73" y2="511.14" stroke="#D32F2F" stroke-width="8.00" stroke-linecap="round"/>
<line x1="493.99" y1="505.61" x2="517.14" y2="490.51" stroke="#D32F2F" stroke-width="7.82" stroke-linecap="round"/>
<line x1="530.62" y1="489.96" x2="517.14" y2="490.51" stroke="#D32F2F" stroke-width="8.00" stroke-linecap="round"/>
<line x1="504.87" y1="482.30" x2="526.98" y2="468.40" stroke="#D32F2F" stroke-width="8.00" stroke-linecap="round"/>
<line x1="539.48" y1="470.97" x2="526.98" y2="468.40" stroke="#D32F2F" stroke-width="8.00" stroke-linecap="round"/>
<line x1="514.97" y1="457.91" x2="536.05" y2="445.37" stroke="#D32F2F" stroke-width="8.00" stroke-linecap="round"/>
<line x1="547.79" y1="450.91" x2="536.05" y2="445.37" stroke="#D32F2F" stroke-width="8.00" stroke-linecap="round"/>
<line x1="524.10" y1="433.03" x2="544.22" y2="421.85" stroke="#D32F2F" stroke-width="8.00" stroke-linecap="round"/>
<line x1="555.42" y1="430.09" x2="544.22" y2="421.85" stroke="#D32F2F" stroke-width="8.00" stroke-linecap="round"/>
<line x1="532.11" y1="408.05" x2="551.35" y2="398.12" stroke="#D32F2F" stroke-width="8.00" stroke-linecap="round"/>
<line x1="562.28" y1="408.70" x2="551.35" y2="398.12" stroke="#D32F2F" stroke-width="8.00" stroke-linecap="round"/>
<line x1="538.88" y1="383.26" x2="557.30" y2="374.35" stroke="#D32F2F" stroke-width="8.00" stroke-linecap="round"/>
<line x1="568.25" y1="386.85" x2="557.30" y2="374.35" stroke="#D32F2F" stroke-width="8.00" stroke-linecap="round"/>
<line x1="544.29" y1="358.82" x2="561.94" y2="350.64" stroke="#D32F2F" stroke-width="8.00" stroke-linecap="round"/>
<line x1="573.17" y1="364.58" x2="561.94" y2="350.64" stroke="#D32F2F" stroke-width="8.00" stroke-linecap="round"/>
<line x1="548.23" y1="334.80" x2="565.12" y2="327.02" stroke="#D32F2F" stroke-width="8.00" stroke-linecap="round"/>
<line x1="576.89" y1="341.89" x2="565.12" y2="327.02" stroke="#D32F2F" stroke-width="8.00" stroke-linecap="round"/>
<line x1="550.60" y1="311.23" x2="566.70" y2="303.51" stroke="#D32F2F" stroke-width="8.00" stroke-linecap="round"/>
<line x1="579.21" y1="318.77" x2="566.70" y2="303.51" stroke="#D32F2F" stroke-width="8.00" stroke-linecap="round"/>
<line x1="551.27" y1="288.11" x2="566.51" y2="280.09" stroke="#D32F2F" stroke-width="8.00" stroke-linecap="round"/>
<line x1="579.88" y1="295.20" x2="566.51" y2="280.09" stroke="#D32F2F" stroke-width="8.00" stroke-linecap="round"/>
<line x1="550.11" y1="265.42" x2="564.36" y2="256.75" stroke="#D32F2F" stroke-width="8.00" stroke-linecap="round"/>
<line x1="578.66" y1="271.18" x2="564.36" y2="256.75" stroke="#D32F2F" stroke-width="8.00" stroke-linecap="round"/>
<line x1="546.99" y1="243.15" x2="560.04" y2="233.50" stroke="#D32F2F" stroke-width="8.00" stroke-linecap="round"/>
<line x1="575.22" y1="246.74" x2="560.04" y2="233.50" stroke="#D32F2F" stroke-width="8.00" stroke-linecap="round"/>
<line x1="541.73" y1="221.30" x2="553.31" y2="210.40" stroke="#D32F2F" stroke-width="8.00" stroke-linecap="round"/>
<line x1="569.25" y1="221.95" x2="553.31" y2="210.40" stroke="#D32F2F" stroke-width="8.00" stroke-linecap="round"/>
<line x1="534.15" y1="199.91" x2="543.91" y2="187.56" stroke="#D32F2F" stroke-width="8.00" stroke-linecap="round"/>
<line x1="560.39" y1="196.97" x2="543.91" y2="187.56" stroke="#D32F2F" stroke-width="8.00" stroke-linecap="round"/>
<line x1="524.02" y1="179.09" x2="531.57" y2="165.17" stroke="#D32F2F" stroke-width="8.00" stroke-linecap="round"/>
<line x1="548.28" y1="172.09" x2="531.57" y2="165.17" stroke="#D32F2F" stroke-width="8.00" stroke-linecap="round"/>
<line x1="511.12" y1="159.03" x2="516.06" y2="143.57" stroke="#D32F2F" stroke-width="8.00" stroke-linecap="round"/>
<line x1="532.60" y1="147.70" x2="516.06" y2="143.57" stroke="#D32F2F" stroke-width="8.00" stroke-linecap="round"/>
<line x1="495.25" y1="140.04" x2="497.17" y2="123.22" stroke="#D32F2F" stroke-width="8.00" stroke-linecap="round"/>
<line x1="513.11" y1="124.39" x2="497.17" y2="123.22" stroke="#D32F2F" stroke-width="8.00" stroke-linecap="round"/>
<line x1="476.28" y1="122.58" x2="474.84" y2="104.74" stroke="#D32F2F" stroke-width="8.00" stroke-linecap="round"/>
<line x1="489.72" y1="102.86" x2="474.84" y2="104.74" stroke="#D32F2F" stroke-width="8.00" stroke-linecap="round"/>
<line x1="454.23" y1="107.27" x2="449.18" y2="88.87" stroke="#D32F2F" stroke-width="8.00" stroke-linecap="round"/>
<line x1="462.54" y1="83.99" x2="449.18" y2="88.87" stroke="#D32F2F" stroke-width="8.00" stroke-linecap="round"/>
<line x1="429.36" y1="94.83" x2="420.61" y2="76.45" stroke="#D32F2F" stroke-width="8.00" stroke-linecap="round"/>
<line x1="431.99" y1="68.71" x2="420.61" y2="76.45" stroke="#D32F2F" stroke-width="8.00" stroke-linecap="round"/>
<line x1="402.23" y1="86.00" x2="389.83" y2="68.25" stroke="#D32F2F" stroke-width="8.00" stroke-linecap="round"/>
<line x1="398.79" y1="57.90" x2="389.83" y2="68.25" stroke="#D32F2F" stroke-width="8.00" stroke-linecap="round"/>
<line x1="373.71" y1="81.41" x2="357.85" y2="64.91" stroke="#D32F2F" stroke-width="8.00" stroke-linecap="round"/>
<line x1="364.00" y1="52.30" x2="357.85" y2="64.91" stroke="#D32F2F" stroke-width="8.00" stroke-linecap="round"/>
<line x1="344.91" y1="81.41" x2="325.91" y2="66.72" stroke="#D32F2F" stroke-width="8.00" stroke-linecap="round"/>
<line x1="328.89" y1="52.30" x2="325.91" y2="66.72" stroke="#D32F2F" stroke-width="8.00" stroke-linecap="round"/>
<line x1="316.99" y1="86.00" x2="295.26" y2="73.59" stroke="#D32F2F" stroke-width="8.00" stroke-linecap="round"/>
<line x1="294.83" y1="57.90" x2="295.26" y2="73.59" stroke="#D32F2F" stroke-width="8.00" stroke-linecap="round"/>
<line x1="291.04" y1="94.83" x2="267.03" y2="85.08" stroke="#D32F2F" stroke-width="8.00" stroke-linecap="round"/>
<line x1="263.06" y1="68.71" x2="267.03" y2="85.08" stroke="#D32F2F" stroke-width="8.00" stroke-linecap="round"/>
<line x1="267.84" y1="107.27" x2="242.06" y2="100.45" stroke="#D32F2F" stroke-width="8.00" stroke-linecap="round"/>
<line x1="234.57" y1="83.99" x2="242.06" y2="100.45" stroke="#D32F2F" stroke-width="8.00" stroke-linecap="round"/>
<line x1="247.89" y1="122.58" x2="220.82" y2="118.86" stroke="#D32F2F" stroke-width="8.00" stroke-linecap="round"/>
<line x1="209.98" y1="102.86" x2="220.82" y2="118.86" stroke="#D32F2F" stroke-width="8.00" stroke-linecap="round"/>
<line x1="231.35" y1="140.04" x2="203.49" y2="139.49" stroke="#D32F2F" stroke-width="8.00" stroke-linecap="round"/>
<line x1="189.58" y1="124.39" x2="203.49" y2="139.49" stroke="#D32F2F" stroke-width="8.00" stroke-linecap="round"/>
<line x1="218.14" y1="159.03" x2="189.96" y2="161.60" stroke="#D32F2F" stroke-width="8.00" stroke-linecap="round"/>
<line x1="173.37" y1="147.70" x2="189.96" y2="161.60" stroke="#D32F2F" stroke-width="8.00" stroke-linecap="round"/>
<line x1="208.04" y1="179.09" x2="179.95" y2="184.63" stroke="#D32F2F" stroke-width="8.00" stroke-linecap="round"/>
<line x1="161.09" y1="172.09" x2="179.95" y2="184.63" stroke="#D32F2F" stroke-width="8.00" stroke-linecap="round"/>
<line x1="200.76" y1="199.91" x2="173.09" y2="208.15" stroke="#D32F2F" stroke-width="8.00" stroke-linecap="round"/>
<line x1="152.37" y1="196.97" x2="173.09" y2="208.15" stroke="#D32F2F" stroke-width="8.00" stroke-linecap="round"/>
<line x1="195.96" y1="221.30" x2="168.95" y2="231.88" stroke="#D32F2F" stroke-width="8.00" stroke-linecap="round"/>
<line x1="146.77" y1="221.95" x2="168.95" y2="231.88" stroke="#D32F2F" stroke-width="8.00" stroke-linecap="round"/>
<line x1="193.33" y1="243.15" x2="167.12" y2="255.65" stroke="#D32F2F" stroke-width="8.00" stroke-linecap="round"/>
<line x1="143.78" y1="246.74" x2="167.12" y2="255.65" stroke="#D32F2F" stroke-width="8.00" stroke-linecap="round"/>
<line x1="192.57" y1="265.42" x2="167.17" y2="279.36" stroke="#D32F2F" stroke-width="8.00" stroke-linecap="round"/>
<line x1="142.94" y1="271.18" x2="167.17" y2="279.36" stroke="#D32F2F" stroke-width="8.00" stroke-linecap="round"/>
<line x1="193.39" y1="288.11" x2="168.73" y2="302.98" stroke="#D32F2F" stroke-width="8.00" stroke-linecap="round"/>
<line x1="143.80" y1="295.20" x2="168.73" y2="302.98" stroke="#D32F2F" stroke-width="8.00" stroke-linecap="round"/>
<line x1="195.50" y1="311.23" x2="171.43" y2="326.49" stroke="#D32F2F" stroke-width="8.00" stroke-linecap="round"/>
<line x1="145.94" y1="318.77" x2="171.43" y2="326.49" stroke="#D32F2F" stroke-width="8.00" stroke-linecap="round"/>
<line x1="198.62" y1="334.80" x2="174.92" y2="349.91" stroke="#D32F2F" stroke-width="8.00" stroke-linecap="round"/>
<line x1="149.00" y1="341.89" x2="174.92" y2="349.91" stroke="#D32F2F" stroke-width="8.00" stroke-linecap="round"/>
<line x1="202.46" y1="358.82" x2="178.89" y2="373.25" stroke="#D32F2F" stroke-width="8.00" stroke-linecap="round"/>
<line x1="152.63" y1="364.58" x2="178.89" y2="373.25" stroke="#D32F2F" stroke-width="8.00" stroke-linecap="round"/>
<line x1="206.72" y1="383.26" x2="183.04" y2="396.50" stroke="#D32F2F" stroke-width="8.00" stroke-linecap="round"/>
<line x1="156.52" y1="386.85" x2="183.04" y2="396.50" stroke="#D32F2F" stroke-width="8.00" stroke-linecap="round"/>
<line x1="211.09" y1="408.05" x2="187.06" y2="419.60" stroke="#D32F2F" stroke-width="8.00" stroke-linecap="round"/>
<line x1="160.37" y1="408.70" x2="187.06" y2="419.60" stroke="#D32F2F" stroke-width="8.00" stroke-linecap="round"/>
<line x1="215.23" y1="433.03" x2="190.66" y2="442.44" stroke="#D32F2F" stroke-width="8.00" stroke-linecap="round"/>
<line x1="163.91" y1="430.09" x2="190.66" y2="442.44" stroke="#D32F2F" stroke-width="8.00" stroke-linecap="round"/>
<line x1="218.78" y1="457.91" x2="193.56" y2="464.83" stroke="#D32F2F" stroke-width="8.00" stroke-linecap="round"/>
<line x1="166.88" y1="450.91" x2="193.56" y2="464.83" stroke="#D32F2F" stroke-width="7.35" stroke-linecap="round"/>
<line x1="221.38" y1="482.30" x2="195.46" y2="486.43" stroke="#D32F2F" stroke-width="8.00" stroke-linecap="round"/>
<line x1="169.02" y1="470.97" x2="195.46" y2="486.43" stroke="#D32F2F" stroke-width="6.55" stroke-linecap="round"/>
<line x1="222.70" y1="505.61" x2="196.10" y2="506.78" stroke="#D32F2F" stroke-width="8.00" stroke-linecap="round"/>
<line x1="170.10" y1="489.96" x2="196.10" y2="506.78" stroke="#D32F2F" stroke-width="5.89" stroke-linecap="round"/>
<line x1="222.42" y1="527.14" x2="195.24" y2="525.26" stroke="#D32F2F" stroke-width="8.00" stroke-linecap="round"/>
<line x1="169.87" y1="507.42" x2="195.24" y2="525.26" stroke="#D32F2F" stroke-width="6.10" stroke-linecap="round"/>
<line x1="220.31" y1="546.01" x2="192.69" y2="541.13" stroke="#D32F2F" stroke-width="8.00" stroke-linecap="round"/>
<line x1="168.16" y1="522.73" x2="192.69" y2="541.13" stroke="#D32F2F" stroke-width="6.45" stroke-linecap="round"/>
<line x1="216.24" y1="561.29" x2="188.36" y2="553.55" stroke="#D32F2F" stroke-width="7.57" stroke-linecap="round"/>
<line x1="164.85" y1="535.17" x2="188.36" y2="553.55" stroke="#D32F2F" stroke-width="6.94" stroke-linecap="round"/>
<line x1="210.21" y1="572.10" x2="182.27" y2="561.75" stroke="#D32F2F" stroke-width="6.67" stroke-linecap="round"/>
<line x1="159.92" y1="544.00" x2="182.27" y2="561.75" stroke="#D32F2F" stroke-width="7.53" stroke-linecap="round"/>
<line x1="202.36" y1="577.70" x2="174.58" y2="565.09" stroke="#D32F2F" stroke-width="5.72" stroke-linecap="round"/>
<line x1="153.48" y1="548.59" x2="174.58" y2="565.09" stroke="#D32F2F" stroke-width="8.00" stroke-linecap="round"/>
<line x1="192.95" y1="577.70" x2="165.54" y2="563.28" stroke="#D32F2F" stroke-width="4.78" stroke-linecap="round"/>
<line x1="145.77" y1="548.59" x2="165.54" y2="563.28" stroke="#D32F2F" stroke-width="8.00" stroke-linecap="round"/>
<line x1="447.64" y1="572.10" x2="474.48" y2="556.41" stroke="#D32F2F" stroke-width="4.13" stroke-linecap="round"/>
<line x1="459.02" y1="561.29" x2="485.10" y2="544.92" stroke="#D32F2F" stroke-width="5.11" stroke-linecap="round"/>
<line x1="502.22" y1="535.17" x2="485.10" y2="544.92" stroke="#D32F2F" stroke-width="8.00" stroke-linecap="round"/>
<line x1="470.77" y1="546.01" x2="495.96" y2="529.55" stroke="#D32F2F" stroke-width="6.08" stroke-linecap="round"/>
<line x1="511.78" y1="522.73" x2="495.96" y2="529.55" stroke="#D32F2F" stroke-width="8.00" stroke-linecap="round"/>
<line x1="482.53" y1="527.14" x2="506.73" y2="511.14" stroke="#D32F2F" stroke-width="7.00" stroke-linecap="round"/>
<line x1="521.33" y1="507.42" x2="506.73" y2="511.14" stroke="#D32F2F" stroke-width="8.00" stroke-linecap="round"/>
<line x1="493.99" y1="505.61" x2="517.14" y2="490.51" stroke="#D32F2F" stroke-width="7.82" stroke-linecap="round"/>
<line x1="530.62" y1="489.96" x2="517.14" y2="490.51" stroke="#D32F2F" stroke-width="8.00" stroke-linecap="round"/>
<line x1="504.87" y1="482.30" x2="526.98" y2="468.40" stroke="#D32F2F" stroke-width="8.00" stroke-linecap="round"/>
<line x1="539.48" y1="470.97" x2="526.98" y2="468.40" stroke="#D32F2F" stroke-width="8.00" stroke-linecap="round"/>
<line x1="514.97" y1="457.91" x2="536.05" y2="445.37" stroke="#D32F2F" stroke-width="8.00" stroke-linecap="round"/>
<line x1="547.79" y1="450.91" x2="536.05" y2="445.37" stroke="#D32F2F" stroke-width="8.00" stroke-linecap="round"/>
<line x1="524.10" y1="433.03" x2="544.22" y2="421.85" stroke="#D32F2F" stroke-width="8.00" stroke-linecap="round"/>
<line x1="555.42" y1="430.09" x2="544.22" y2="421.85" stroke="#D32F2F" stroke-width="8.00" stroke-linecap="round"/>
<line x1="532.11" y1="408.05" x2="551.35" y2="398.12" stroke="#D32F2F" stroke-width="8.00" stroke-linecap="round"/>
<line x1="562.28" y1="408.70" x2="551.35" y2="398.12" stroke="#D32F2F" stroke-width="8.00" stroke-linecap="round"/>
<line x1="538.88" y1="383.26" x2="557.30" y2="374.35" stroke="#D32F2F" stroke-width="8.00" stroke-linecap="round"/>
<line x1="568.25" y1="386.85" x2="557.30" y2="374.35" stroke="#D32F2F" stroke-width="8.00" stroke-linecap="round"/>
<line x1="544.29" y1="358.82" x2="561.94" y2="350.64" stroke="#D32F2F" stroke-width="8.00" stroke-linecap="round"/>
<line x1="573.17" y1="364.58" x2="561.94" y2="350.64" stroke="#D32F2F" stroke-width="8.00" stroke-linecap="round"/>
<line x1="548.23" y1="334.80" x2="565.12" y2="327.02" stroke="#D32F2F" stroke-width="8.00" stroke-linecap="round"/>
<line x1="576.89" y1="341.89" x2="565.12" y2="327.02" stroke="#D32F2F" stroke-width="8.00" stroke-linecap="round"/>
<line x1="550.60" y1="311.23" x2="566.70" y2="303.51" stroke="#D32F2F" stroke-width="8.00" stroke-linecap="round"/>
<line x1="579.21" y1="318.77" x2="566.70" y2="303.51" stroke="#D32F2F" stroke-width="8.00" stroke-linecap="round"/>
<line x1="551.27" y1="288.11" x2="566.51" y2="280.09" stroke="#D32F2F" stroke-width="8.00" stroke-linecap="round"/>
<line x1="579.88" y1="295.20" x2="566.51" y2="280.09" stroke="#D32F2F" stroke-width="8.00" stroke-linecap="round"/>
<line x1="550.11" y1="265.42" x2="564.36" y2="256.75" stroke="#D32F2F" stroke-width="8.00" stroke-linecap="round"/>
<line x1="578.66" y1="271.18" x2="564.36" y2="256.75" stroke="#D32F2F" stroke-width="8.00" stroke-linecap="round"/>
<line x1="546.99" y1="243.15" x2="560.04" y2="233.50" stroke="#D32F2F" stroke-width="8.00" stroke-linecap="round"/>
<line x1="575.22" y1="246.74" x2="560.04" y2="233.50" stroke="#D32F2F" stroke-width="8.00" stroke-linecap="round"/>
<line x1="541.73" y1="221.30" x2="553.31" y2="210.40" stroke="#D32F2F" stroke-width="8.00" stroke-linecap="round"/>
<line x1="569.25" y1="221.95" x2="553.31" y2="210.40" stroke="#D32F2F" stroke-width="8.00" stroke-linecap="round"/>
<line x1="534.15" y1="199.91" x2="543.91" y2="187.56" stroke="#D32F2F" stroke-width="8.00" stroke-linecap="round"/>
<line x1="560.39" y1="196.97" x2="543.91" y2="187.56" stroke="#D32F2F" stroke-width="8.00" stroke-linecap="round"/>
<line x1="524.02" y1="179.09" x2="531.57" y2="165.17" stroke="#D32F2F" stroke-width="8.00" stroke-linecap="round"/>
<line x1="548.28" y1="172.09" x2="531.57" y2="165.17" stroke="#D32F2F" stroke-width="8.00" stroke-linecap="round"/>
<line x1="511.12" y1="159.03" x2="516.06" y2="143.57" stroke="#D32F2F" stroke-width="8.00" stroke-linecap="round"/>
<line x1="532.60" y1="147.70" x2="516.06" y2="143.57" stroke="#D32F2F" stroke-width="8.00" stroke-linecap="round"/>
<line x1="495.25" y1="140.04" x2="497.17" y2="123.22" stroke="#D32F2F" stroke-width="8.00" stroke-linecap="round"/>
<line x1="513.11" y1="124.39" x2="497.17" y2="123.22" stroke="#D32F2F" stroke-width="8.00" stroke-linecap="round"/>
<line x1="476.28" y1="122.58" x2="474.84" y2="104.74" stroke="#D32F2F" stroke-width="8.00" stroke-linecap="round"/>
<line x1="489.72" y1="102.86" x2="474.84" y2="104.74" stroke="#D32F2F" stroke-width="8.00" stroke-linecap="round"/>
<line x1="454.23" y1="107.27" x2="449.18" y2="88.87" stroke="#D32F2F" stroke-width="8.00" stroke-linecap="round"/>
<line x1="462.54" y1="83.99" x2="449.18" y2="88.87" stroke="#D32F2F" stroke-width="8.00" stroke-linecap="round"/>
<line x1="429.36" y1="94.83" x2="420.61" y2="76.45" stroke="#D32F2F" stroke-width="8.00" stroke-linecap="round"/>
<line x1="431.99" y1="68.71" x2="420.61" y2="76.45" stroke="#D32F2F" stroke-width="8.00" stroke-linecap="round"/>
<line x1="402.23" y1="86.00" x2="389.83" y2="68.25" stroke="#D32F2F" stroke-width="8.00" stroke-linecap="round"/>
<line x1="398.79" y1="57.90" x2="389.83" y2="68.25" stroke="#D32F2F" stroke-width="8.00" stroke-linecap="round"/>
<line x1="373.71" y1="81.41" x2="357.85" y2="64.91" stroke="#D32F2F" stroke-width="8.00" stroke-linecap="round"/>
<line x1="364.00" y1="52.30" x2="357.85" y2="64.91" stroke="#D32F2F" stroke-width="8.00" stroke-linecap="round"/>
<line x1="344.91" y1="81.41" x2="325.91" y2="66.72" stroke="#D32F2F" stroke-width="8.00" stroke-linecap="round"/>
<line x1="328.89" y1="52.30" x2="325.91" y2="66.72" stroke="#D32F2F" stroke-width="8.00" stroke-linecap="round"/>
<line x1="316.99" y1="86.00" x2="295.26" y2="73.59" stroke="#D32F2F" stroke-width="8.00" stroke-linecap="round"/>
<line x1="294.83" y1="57.90" x2="295.26" y2="73.59" stroke="#D32F2F" stroke-width="8.00" stroke-linecap="round"/>
<line x1="291.04" y1="94.83" x2="267.03" y2="85.08" stroke="#D32F2F" stroke-width="8.00" stroke-linecap="round"/>
<line x1="263.06" y1="68.71" x2="267.03" y2="85.08" stroke="#D32F2F" stroke-width="8.00" stroke-linecap="round"/>
<line x1="267.84" y1="107.27" x2="242.06" y2="100.45" stroke="#D32F2F" stroke-width="8.00" stroke-linecap="round"/>
<line x1="234.57" y1="83.99" x2="242.06" y2="100.45" stroke="#D32F2F" stroke-width="8.00" stroke-linecap="round"/>
<line x1="247.89" y1="122.58" x2="220.82" y2="118.86" stroke="#D32F2F" stroke-width="8.00" stroke-linecap="round"/>
<line x1="209.98" y1="102.86" x2="220.82" y2="118.86" stroke="#D32F2F" stroke-width="8.00" stroke-linecap="round"/>
<line x1="231.35" y1="140.04" x2="203.49" y2="139.49" stroke="#D32F2F" stroke-width="8.00" stroke-linecap="round"/>
<line x1="189.58" y1="124.39" x2="203.49" y2="139.49" stroke="#D32F2F" stroke-width="8.00" stroke-linecap="round"/>
<line x1="218.14" y1="159.03" x2="189.96" y2="161.60" stroke="#D32F2F" stroke-width="8.00" stroke-linecap="round"/>
<line x1="173.37" y1="147.70" x2="189.96" y2="161.60" stroke="#D32F2F" stroke-width="8.00" stroke-linecap="round"/>
<line x1="208.04" y1="179.09" x2="179.95" y2="184.63" stroke="#D32F2F" stroke-width="8.00" stroke-linecap="round"/>
<line x1="161.09" y1="172.09" x2="179.95" y2="184.63" stroke="#D32F2F" stroke-width="8.00" stroke-linecap="round"/>
<line x1="200.76" y1="199.91" x2="173.09" y2="208.15" stroke="#D32F2F" stroke-width="8.00" stroke-linecap="round"/>
<line x1="152.37" y1="196.97" x2="173.09" y2="208.15" stroke="#D32F2F" stroke-width="8.00" stroke-linecap="round"/>
<line x1="195.96" y1="221.30" x2="168.95" y2="231.88" stroke="#D32F2F" stroke-width="8.00" stroke-linecap="round"/>
<line x1="146.77" y1="221.95" x2="168.95" y2="231.88" stroke="#D32F2F" stroke-width="8.00" stroke-linecap="round"/>
<line x1="193.33" y1="243.15" x2="167.12" y2="255.65" stroke="#D32F2F" stroke-width="8.00" stroke-linecap="round"/>
<line x1="143.78" y1="246.74" x2="167.12" y2="255.65" stroke="#D32F2F" stroke-width="8.00" stroke-linecap="round"/>
<line x1="192.57" y1="265.42" x2="167.17" y2="279.36" stroke="#D32F2F" stroke-width="8.00" stroke-linecap="round"/>
<line x1="142.94" y1="271.18" x2="167.17" y2="279.36" stroke="#D32F2F" stroke-width="8.00" stroke-linecap="round"/>
<line x1="193.39" y1="288.11" x2="168.73" y2="302.98" stroke="#D32F2F" stroke-width="8.00" stroke-linecap="round"/>
<line x1="143.80" y1="295.20" x2="168.73" y2="302.98" stroke="#D32F2F" stroke-width="8.00" stroke-linecap="round"/>
<line x1="195.50" y1="311.23" x2="171.43" y2="326.49" stroke="#D32F2F" stroke-width="8.00" stroke-linecap="round"/>
<line x1="145.94" y1="318.77" x2="171.43" y2="326.49" stroke="#D32F2F" stroke-width="8.00" stroke-linecap="round"/>
<line x1="198.62" y1="334.80" x2="174.92" y2="349.91" stroke="#D32F2F" stroke-width="8.00" stroke-linecap="round"/>
<line x1="149.00" y1="341.89" x2="174.92" y2="349.91" stroke="#D32F2F" stroke-width="8.00" stroke-linecap="round"/>
<line x1="202.46" y1="358.82" x2="178.89" y2="373.25" stroke="#D32F2F" stroke-width="8.00" stroke-linecap="round"/>
<line x1="152.63" y1="364.58" x2="178.89" y2="373.25" stroke="#D32F2F" stroke-width="8.00" stroke-linecap="round"/>
<line x1="206.72" y1="383.26" x2="183.04" y2="396.50" stroke="#D32F2F" stroke-width="8.00" stroke-linecap="round"/>
<line x1="156.52" y1="386.85" x2="183.04" y2="396.50" stroke="#D32F2F" stroke-width="8.00" stroke-linecap="round"/>
<line x1="211.09" y1="408.05" x2="187.06" y2="419.60" stroke="#D32F2F" stroke-width="8.00" stroke-linecap="round"/>
<line x1="160.37" y1="408.70" x2="187.06" y2="419.60" stroke="#D32F2F" stroke-width="8.00" stroke-linecap="round"/>
<line x1="215.23" y1="433.03" x2="190.66" y2="442.44" stroke="#D32F2F" stroke-width="8.00" stroke-linecap="round"/>
<line x1="163.91" y1="430.09" x2="190.66" y2="442.44" stroke="#D32F2F" stroke-width="8.00" stroke-linecap="round"/>
<line x1="218.78" y1="457.91" x2="193.56" y2="464.83" stroke="#D32F2F" stroke-width="8.00" stroke-linecap="round"/>
<line x1="166.88" y1="450.91" x2="193.56" y2="464.83" stroke="#D32F2F" stroke-width="7.35" stroke-linecap="round"/>
<line x1="221.38" y1="482.30" x2="195.46" y2="486.43" stroke="#D32F2F" stroke-width="8.00" stroke-linecap="round"/>
<line x1="169.02" y1="470.97" x2="195.46" y2="486.43" stroke="#D32F2F" stroke-width="6.55" stroke-linecap="round"/>
<line x1="222.70" y1="505.61" x2="196.10" y2="506.78" stroke="#D32F2F" stroke-width="8.00" stroke-linecap="round"/>
<line x1="170.10" y1="489.96" x2="196.10" y2="506.78" stroke="#D32F2F" stroke-width="5.89" stroke-linecap="round"/>
<line x1="222.42" y1="527.14" x2="195.24" y2="525.26" stroke="#D32F2F" stroke-width="8.00" stroke-linecap="round"/>
<line x1="169.87" y1="507.42" x2="195.24" y2="525.26" stroke="#D32F2F" stroke-width="6.10" stroke-linecap="round"/>
<line x1="220.31" y1="546.01" x2="192.69" y2="541.13" stroke="#D32F2F" stroke-width="8.00" stroke-linecap="round"/>
<line x1="168.16" y1="522.73" x2="192.69" y2="541.13" stroke="#D32F2F" stroke-width="6.45" stroke-linecap="round"/>
<line x1="216.24" y1="561.29" x2="188.36" y2="553.55" stroke="#D32F2F" stroke-width="7.57" stroke-linecap="round"/>
<line x1="164.85" y1="535.17" x2="188.36" y2="553.55" stroke="#D32F2F" stroke-width="6.94" stroke-linecap="round"/>
<line x1="210.21" y1="572.10" x2="182.27" y2="561.75" stroke="#D32F2F" stroke-width="6.67" stroke-linecap="round"/>
<line x1="159.92" y1="544.00" x2="182.27" y2="561.75" stroke="#D32F2F" stroke-width="7.53" stroke-linecap="round"/>
<line x1="202.36" y1="577.70" x2="174.58" y2="565.09" stroke="#D32F2F" stroke-width="5.72" stroke-linecap="round"/>
<line x1="153.48" y1="548.59" x2="174.58" y2="565.09" stroke="#D32F2F" stroke-width="8.00" stroke-linecap="round"/>
<line x1="192.95" y1="577.70" x2="165.54" y2="563.28" stroke="#D32F2F" stroke-width="4.78" stroke-linecap="round"/>
<line x1="145.77" y1="548.59" x2="165.54" y2="563.28" stroke="#D32F2F" stroke-width="8.00" stroke-linecap="round"/>
</svg>