<svg width="630.0" height="630.0" viewBox="0 0 630.0 630.0" xmlns="http://www.w3.org/2000/svg">
<circle cx="315.0" cy="315.0" r="290.0" fill="#FDFDF5" stroke="#ccc" stroke-width="0.5"/>
<line x1="594.70" y1="343.61" x2="591.92" y2="316.51" stroke="#D32F2F" stroke-width="7.94" stroke-linecap="round"/>
<line x1="592.75" y1="286.39" x2="591.92" y2="316.51" stroke="#D32F2F" stroke-width="6.16" stroke-linecap="round"/>
<line x1="587.66" y1="346.65" x2="584.01" y2="319.44" stroke="#D32F2F" stroke-width="7.87" stroke-linecap="round"/>
<line x1="585.85" y1="289.37" x2="584.01" y2="319.44" stroke="#D32F2F" stroke-width="6.24" stroke-linecap="round"/>
<line x1="578.57" y1="349.36" x2="574.25" y2="321.81" stroke="#D32F2F" stroke-width="7.71" stroke-linecap="round"/>
<line x1="577.26" y1="291.94" x2="574.25" y2="321.81" stroke="#D32F2F" stroke-width="6.43" stroke-linecap="round"/>
<line x1="567.31" y1="351.34" x2="562.62" y2="323.24" stroke="#D32F2F" stroke-width="7.48" stroke-linecap="round"/>
<line x1="567.01" y1="293.74" x2="562.62" y2="323.24" stroke="#D32F2F" stroke-width="6.70" stroke-linecap="round"/>
<line x1="553.79" y1="352.14" x2="549.07" y2="323.35" stroke="#D32F2F" stroke-width="7.25" stroke-linecap="round"/>
<line x1="555.10" y1="294.45" x2="549.07" y2="323.35" stroke="#D32F2F" stroke-width="7.04" stroke-linecap="round"/>
<line x1="537.91" y1="351.29" x2="533.55" y2="321.77" stroke="#D32F2F" stroke-width="7.05" stroke-linecap="round"/>
<line x1="541.51" y1="293.73" x2="533.55" y2="321.77" stroke="#D32F2F" stroke-width="7.45" stroke-linecap="round"/>
<line x1="519.62" y1="348.31" x2="516.04" y2="318.12" stroke="#D32F2F" stroke-width="6.95" stroke-linecap="round"/>
<line x1="526.21" y1="291.23" x2="516.04" y2="318.12" stroke="#D32F2F" stroke-width="7.89" stroke-linecap="round"/>
<line x1="498.94" y1="342.72" x2="496.55" y2="312.01" stroke="#D32F2F" stroke-width="6.99" stroke-linecap="round"/>
<line x1="509.19" y1="286.64" x2="496.55" y2="312.01" stroke="#D32F2F" stroke-width="8.00" stroke-linecap="round"/>
<line x1="475.96" y1="334.12" x2="475.17" y2="303.12" stroke="#D32F2F" stroke-width="7.90" stroke-linecap="round"/>
<line x1="490.48" y1="279.64" x2="475.17" y2="303.12" stroke="#D32F2F" stroke-width="8.00" stroke-linecap="round"/>
<line x1="450.96" y1="322.18" x2="452.13" y2="291.20" stroke="#D32F2F" stroke-width="8.00" stroke-linecap="round"/>
<line x1="470.21" y1="269.96" x2="452.13" y2="291.20" stroke="#D32F2F" stroke-width="8.00" stroke-linecap="round"/>
<line x1="424.36" y1="306.77" x2="427.79" y2="276.17" stroke="#D32F2F" stroke-width="8.00" stroke-linecap="round"/>
<line x1="448.62" y1="257.45" x2="427.79" y2="276.17" stroke="#D32F2F" stroke-width="8.00" stroke-linecap="round"/>
<line x1="396.81" y1="287.97" x2="402.77" y2="258.13" stroke="#D32F2F" stroke-width="8.00" stroke-linecap="round"/>
<line x1="426.20" y1="242.15" x2="402.77" y2="258.13" stroke="#D32F2F" stroke-width="8.00" stroke-linecap="round"/>
<line x1="369.16" y1="266.15" x2="377.84" y2="237.47" stroke="#D32F2F" stroke-width="8.00" stroke-linecap="round"/>
<line x1="403.60" y1="224.31" x2="377.84" y2="237.47" stroke="#D32F2F" stroke-width="8.00" stroke-linecap="round"/>
<line x1="342.39" y1="241.95" x2="353.94" y2="214.82" stroke="#D32F2F" stroke-width="8.00" stroke-linecap="round"/>
<line x1="381.66" y1="204.48" x2="353.94" y2="214.82" stroke="#D32F2F" stroke-width="8.00" stroke-linecap="round"/>
<line x1="317.57" y1="216.25" x2="332.05" y2="191.02" stroke="#D32F2F" stroke-width="8.00" stroke-linecap="round"/>
<line x1="361.30" y1="183.39" x2="332.05" y2="191.02" stroke="#D32F2F" stroke-width="8.00" stroke-linecap="round"/>
<line x1="295.65" y1="190.04" x2="313.03" y2="167.02" stroke="#D32F2F" stroke-width="8.00" stroke-linecap="round"/>
<line x1="343.33" y1="161.92" x2="313.03" y2="167.02" stroke="#D32F2F" stroke-width="8.00" stroke-linecap="round"/>
<line x1="277.36" y1="164.30" x2="297.52" y2="143.70" stroke="#D32F2F" stroke-width="8.00" stroke-linecap="round"/>
<line x1="328.39" y1="140.88" x2="297.52" y2="143.70" stroke="#D32F2F" stroke-width="7.56" stroke-linecap="round"/>
<line x1="263.16" y1="139.88" x2="285.85" y2="121.81" stroke="#D32F2F" stroke-width="8.00" stroke-linecap="round"/>
<line x1="316.82" y1="121.00" x2="285.85" y2="121.81" stroke="#D32F2F" stroke-width="6.71" stroke-linecap="round"/>
<line x1="253.16" y1="117.40" x2="278.06" y2="101.87" stroke="#D32F2F" stroke-width="7.84" stroke-linecap="round"/>
<line x1="308.71" y1="102.76" x2="278.06" y2="101.87" stroke="#D32F2F" stroke-width="6.74" stroke-linecap="round"/>
<line x1="247.20" y1="97.28" x2="273.92" y2="84.18" stroke="#D32F2F" stroke-width="7.16" stroke-linecap="round"/>
<line x1="303.87" y1="86.44" x2="273.92" y2="84.18" stroke="#D32F2F" stroke-width="6.94" stroke-linecap="round"/>
<line x1="244.92" y1="79.75" x2="273.08" y2="68.90" stroke="#D32F2F" stroke-width="6.48" stroke-linecap="round"/>
<line x1="302.02" y1="72.17" x2="273.08" y2="68.90" stroke="#D32F2F" stroke-width="7.29" stroke-linecap="round"/>
<line x1="245.84" y1="64.87" x2="275.05" y2="56.04" stroke="#D32F2F" stroke-width="5.83" stroke-linecap="round"/>
<line x1="302.78" y1="59.92" x2="275.05" y2="56.04" stroke="#D32F2F" stroke-width="7.72" stroke-linecap="round"/>
<line x1="249.40" y1="52.60" x2="279.34" y2="45.53" stroke="#D32F2F" stroke-width="5.25" stroke-linecap="round"/>
<line x1="305.76" y1="49.67" x2="279.34" y2="45.53" stroke="#D32F2F" stroke-width="8.00" stroke-linecap="round"/>
<line x1="255.04" y1="42.86" x2="285.46" y2="37.29" stroke="#D32F2F" stroke-width="4.76" stroke-linecap="round"/>
<line x1="310.60" y1="41.33" x2="285.46" y2="37.29" stroke="#D32F2F" stroke-width="8.00" stroke-linecap="round"/>
<line x1="262.23" y1="35.50" x2="292.95" y2="31.22" stroke="#D32F2F" stroke-width="4.37" stroke-linecap="round"/>
<line x1="316.94" y1="34.85" x2="292.95" y2="31.22" stroke="#D32F2F" stroke-width="8.00" stroke-linecap="round"/>
<line x1="270.47" y1="30.40" x2="301.38" y2="27.23" stroke="#D32F2F" stroke-width="4.10" stroke-linecap="round"/>
<line x1="324.44" y1="30.20" x2="301.38" y2="27.23" stroke="#D32F2F" stroke-width="8.00" stroke-linecap="round"/>
<line x1="279.30" y1="27.41" x2="310.33" y2="25.25" stroke="#D32F2F" stroke-width="4.07" stroke-linecap="round"/>
<line x1="332.79" y1="27.39" x2="310.33" y2="25.25" stroke="#D32F2F" stroke-width="8.00" stroke-linecap="round"/>
<line x1="28.05" y1="277.86" x2="26.79" y2="306.65" stroke="#D32F2F" stroke-width="6.91" stroke-linecap="round"/>
<line x1="26.40" y1="335.55" x2="26.79" y2="306.65" stroke="#D32F2F" stroke-width="6.85" stroke-linecap="round"/>
<line x1="31.00" y1="278.71" x2="30.48" y2="308.23" stroke="#D32F2F" stroke-width="6.37" stroke-linecap="round"/>
<line x1="28.92" y1="336.27" x2="30.48" y2="308.23" stroke="#D32F2F" stroke-width="7.28" stroke-linecap="round"/>
<line x1="36.40" y1="281.69" x2="36.40" y2="311.88" stroke="#D32F2F" stroke-width="5.78" stroke-linecap="round"/>
<line x1="33.44" y1="338.77" x2="36.40" y2="311.88" stroke="#D32F2F" stroke-width="7.76" stroke-linecap="round"/>
<line x1="44.46" y1="287.28" x2="44.71" y2="317.99" stroke="#D32F2F" stroke-width="5.20" stroke-linecap="round"/>
<line x1="40.07" y1="343.36" x2="44.71" y2="317.99" stroke="#D32F2F" stroke-width="8.00" stroke-linecap="round"/>
<line x1="55.37" y1="295.88" x2="55.55" y2="326.88" stroke="#D32F2F" stroke-width="4.96" stroke-linecap="round"/>
<line x1="48.95" y1="350.36" x2="55.55" y2="326.88" stroke="#D32F2F" stroke-width="8.00" stroke-linecap="round"/>
<line x1="69.23" y1="307.82" x2="69.03" y2="338.80" stroke="#D32F2F" stroke-width="6.08" stroke-linecap="round"/>
<line x1="60.19" y1="360.04" x2="69.03" y2="338.80" stroke="#D32F2F" stroke-width="8.00" stroke-linecap="round"/>
<line x1="86.06" y1="323.23" x2="85.15" y2="353.83" stroke="#D32F2F" stroke-width="7.13" stroke-linecap="round"/>
<line x1="73.85" y1="372.55" x2="85.15" y2="353.83" stroke="#D32F2F" stroke-width="8.00" stroke-linecap="round"/>
<line x1="105.69" y1="342.03" x2="103.75" y2="371.87" stroke="#D32F2F" stroke-width="8.00" stroke-linecap="round"/>
<line x1="89.83" y1="387.85" x2="103.75" y2="371.87" stroke="#D32F2F" stroke-width="8.00" stroke-linecap="round"/>
<line x1="127.76" y1="363.85" x2="124.44" y2="392.53" stroke="#D32F2F" stroke-width="8.00" stroke-linecap="round"/>
<line x1="107.86" y1="405.69" x2="124.44" y2="392.53" stroke="#D32F2F" stroke-width="8.00" stroke-linecap="round"/>
<line x1="151.62" y1="388.05" x2="146.61" y2="415.18" stroke="#D32F2F" stroke-width="8.00" stroke-linecap="round"/>
<line x1="127.42" y1="425.52" x2="146.61" y2="415.18" stroke="#D32F2F" stroke-width="8.00" stroke-linecap="round"/>
<line x1="176.45" y1="413.75" x2="169.43" y2="438.98" stroke="#D32F2F" stroke-width="8.00" stroke-linecap="round"/>
<line x1="147.79" y1="446.61" x2="169.43" y2="438.98" stroke="#D32F2F" stroke-width="8.00" stroke-linecap="round"/>
<line x1="201.27" y1="439.96" x2="192.01" y2="462.98" stroke="#D32F2F" stroke-width="8.00" stroke-linecap="round"/>
<line x1="168.13" y1="468.08" x2="192.01" y2="462.98" stroke="#D32F2F" stroke-width="8.00" stroke-linecap="round"/>
<line x1="225.15" y1="465.70" x2="213.46" y2="486.30" stroke="#D32F2F" stroke-width="8.00" stroke-linecap="round"/>
<line x1="187.64" y1="489.12" x2="213.46" y2="486.30" stroke="#D32F2F" stroke-width="8.00" stroke-linecap="round"/>
<line x1="247.26" y1="490.12" x2="233.09" y2="508.19" stroke="#D32F2F" stroke-width="8.00" stroke-linecap="round"/>
<line x1="205.65" y1="509.00" x2="233.09" y2="508.19" stroke="#D32F2F" stroke-width="8.00" stroke-linecap="round"/>
<line x1="267.03" y1="512.60" x2="250.42" y2="528.13" stroke="#D32F2F" stroke-width="8.00" stroke-linecap="round"/>
<line x1="221.69" y1="527.24" x2="250.42" y2="528.13" stroke="#D32F2F" stroke-width="8.00" stroke-linecap="round"/>
<line x1="284.13" y1="532.72" x2="265.22" y2="545.82" stroke="#D32F2F" stroke-width="8.00" stroke-linecap="round"/>
<line x1="235.56" y1="543.56" x2="265.22" y2="545.82" stroke="#D32F2F" stroke-width="7.42" stroke-linecap="round"/>
<line x1="298.48" y1="550.25" x2="277.52" y2="561.10" stroke="#D32F2F" stroke-width="8.00" stroke-linecap="round"/>
<line x1="247.24" y1="557.83" x2="277.52" y2="561.10" stroke="#D32F2F" stroke-width="6.50" stroke-linecap="round"/>
<line x1="310.18" y1="565.13" x2="287.47" y2="573.96" stroke="#D32F2F" stroke-width="8.00" stroke-linecap="round"/>
<line x1="256.87" y1="570.08" x2="287.47" y2="573.96" stroke="#D32F2F" stroke-width="5.54" stroke-linecap="round"/>
<line x1="319.50" y1="577.40" x2="295.35" y2="584.47" stroke="#D32F2F" stroke-width="8.00" stroke-linecap="round"/>
<line x1="264.66" y1="580.33" x2="295.35" y2="584.47" stroke="#D32F2F" stroke-width="4.60" stroke-linecap="round"/>
<line x1="326.79" y1="587.14" x2="301.51" y2="592.71" stroke="#D32F2F" stroke-width="8.00" stroke-linecap="round"/>
<line x1="270.90" y1="588.67" x2="301.51" y2="592.71" stroke="#D32F2F" stroke-width="4.94" stroke-linecap="round"/>
<line x1="332.44" y1="594.50" x2="306.33" y2="598.78" stroke="#D32F2F" stroke-width="8.00" stroke-linecap="round"/>
<line x1="275.87" y1="595.15" x2="306.33" y2="598.78" stroke="#D32F2F" stroke-width="5.35" stroke-linecap="round"/>
<line x1="336.85" y1="599.60" x2="310.18" y2="602.77" stroke="#D32F2F" stroke-width="8.00" stroke-linecap="round"/>
<line x1="279.90" y1="599.80" x2="310.18" y2="602.77" stroke="#D32F2F" stroke-width="5.68" stroke-linecap="round"/>
<line x1="340.45" y1="602.59" x2="313.45" y2="604.75" stroke="#D32F2F" stroke-width="7.95" stroke-linecap="round"/>
<line x1="283.29" y1="602.61" x2="313.45" y2="604.75" stroke="#D32F2F" stroke-width="5.90" stroke-linecap="round"/>
<line x1="604.20" y1="336.26" x2="604.47" y2="308.08" stroke="#D32F2F" stroke-width="7.36" stroke-linecap="round"/>
<line x1="602.64" y1="278.66" x2="604.47" y2="308.08" stroke="#D32F2F" stroke-width="6.52" stroke-linecap="round"/>
<line x1="602.93" y1="338.06" x2="602.18" y2="310.45" stroke="#D32F2F" stroke-width="7.69" stroke-linecap="round"/>
<line x1="601.25" y1="280.64" x2="602.18" y2="310.45" stroke="#D32F2F" stroke-width="6.29" stroke-linecap="round"/>
<line x1="599.77" y1="340.63" x2="597.98" y2="313.39" stroke="#D32F2F" stroke-width="7.89" stroke-linecap="round"/>
<line x1="597.91" y1="283.35" x2="597.98" y2="313.39" stroke="#D32F2F" stroke-width="6.17" stroke-linecap="round"/>
<line x1="594.70" y1="343.61" x2="591.92" y2="316.51" stroke="#D32F2F" stroke-width="7.94" stroke-linecap="round"/>
<line x1="592.75" y1="286.39" x2="591.92" y2="316.51" stroke="#D32F2F" stroke-width="6.16" stroke-linecap="round"/>
<line x1="587.66" y1="346.65" x2="584.01" y2="319.44" stroke="#D32F2F" stroke-width="7.87" stroke-linecap="round"/>
<line x1="585.85" y1="289.37" x2="584.01" y2="319.44" stroke="#D32F2F" stroke-width="6.24" stroke-linecap="round"/>
<line x1="578.57" y1="349.36" x2="574.25" y2="321.81" stroke="#D32F2F" stroke-width="7.71" stroke-linecap="round"/>
<line x1="577.26" y1="291.94" x2="574.25" y2="321.81" stroke="#D32F2F" stroke-width="6.43" stroke-linecap="round"/>
<line x1="567.31" y1="351.34" x2="562.62" y2="323.24" stroke="#D32F2F" stroke-width="7.48" stroke-linecap="round"/>
<line x1="567.01" y1="293.74" x2="562.62" y2="323.24" stroke="#D32F2F" stroke-width="6.70" stroke-linecap="round"/>
<line x1="553.79" y1="352.14" x2="549.07" y2="323.35" stroke="#D32F2F" stroke-width="7.25" stroke-linecap="round"/>
<line x1="555.10" y1="294.45" x2="549.07" y2="323.35" stroke="#D32F2F" stroke-width="7.04" stroke-linecap="round"/>
<line x1="537.91" y1="351.29" x2="533.55" y2="321.77" stroke="#D32F2F" stroke-width="7.05" stroke-linecap="round"/>
<line x1="541.51" y1="293.73" x2="533.55" y2="321.77" stroke="#D32F2F" stroke-width="7.45" stroke-linecap="round"/>
<line x1="519.62" y1="348.31" x2="516.04" y2="318.12" stroke="#D32F2F" stroke-width="6.95" stroke-linecap="round"/>
<line x1="526.21" y1="291.23" x2="516.04" y2="318.12" stroke="#D32F2F" stroke-width="7.89" stroke-linecap="round"/>
<line x1="498.94" y1="342.72" x2="496.55" y2="312.01" stroke="#D32F2F" stroke-width="6.99" stroke-linecap="round"/>
<line x1="509.19" y1="286.64" x2="496.55" y2="312.01" stroke="#D32F2F" stroke-width="8.00" stroke-linecap="round"/>
<line x1="475.96" y1="334.12" x2="475.17" y2="303.12" stroke="#D32F2F" stroke-width="7.90" stroke-linecap="round"/>
<line x1="490.48" y1="279.64" x2="475.17" y2="303.12" stroke="#D32F2F" stroke-width="8.00" stroke-linecap="round"/>
<line x1="450.96" y1="322.18" x2="452.13" y2="291.20" stroke="#D32F2F" stroke-width="8.00" stroke-linecap="round"/>
<line x1="470.21" y1="269.96" x2="452.13" y2="291.20" stroke="#D32F2F" stroke-width="8.00" stroke-linecap="round"/>
<line x1="424.36" y1="306.77" x2="427.79" y2="276.17" stroke="#D32F2F" stroke-width="8.00" stroke-linecap="round"/>
<line x1="448.62" y1="257.45" x2="427.79" y2="276.17" stroke="#D32F2F" stroke-width="8.00" stroke-linecap="round"/>
<line x1="396.81" y1="287.97" x2="402.77" y2="258.13" stroke="#D32F2F" stroke-width="8.00" stroke-linecap="round"/>
<line x1="426.20" y1="242.15" x2="402.77" y2="258.13" stroke="#D32F2F" stroke-width="8.00" stroke-linecap="round"/>
<line x1="369.16" y1="266.15" x2="377.84" y2="237.47" stroke="#D32F2F" stroke-width="8.00" stroke-linecap="round"/>
<line x1="403.60" y1="224.31" x2="377.84" y2="237.47" stroke="#D32F2F" stroke-width="8.00" stroke-linecap="round"/>
<line x1="342.39" y1="241.95" x2="353.94" y2="214.82" stroke="#D32F2F" stroke-width="8.00" stroke-linecap="round"/>
<line x1="381.66" y1="204.48" x2="353.94" y2="214.82" stroke="#D32F2F" stroke-width="8.00" stroke-linecap="round"/>
<line x1="317.57" y1="216.25" x2="332.05" y2="191.02" stroke="#D32F2F" stroke-width="8.00" stroke-linecap="round"/>
<line x1="361.30" y1="183.39" x2="332.05" y2="191.02" stroke="#D32F2F" stroke-width="8.00" stroke-linecap="round"/>
<line x1="295.65" y1="190.04" x2="313.03" y2="167.02" stroke="#D32F2F" stroke-width="8.00" stroke-linecap="round"/>
<line x1="343.33" y1="161.92" x2="313.03" y2="167.02" stroke="#D32F2F" stroke-width="8.00" stroke-linecap="round"/>
<line x1="277.36" y1="164.30" x2="297.52" y2="143.70" stroke="#D32F2F" stroke-width="8.00" stroke-linecap="round"/>
<line x1="328.39" y1="140.88" x2="297.52" y2="143.70" stroke="#D32F2F" stroke-width="7.56" stroke-linecap="round"/>
<line x1="263.16" y1="139.88" x2="285.85" y2="121.81" stroke="#D32F2F" stroke-width="8.00" stroke-linecap="round"/>
<line x1="316.82" y1="121.00" x2="285.85" y2="121.81" stroke="#D32F2F" stroke-width="6.71" stroke-linecap="round"/>
<line x1="253.16" y1="117.40" x2="278.06" y2="101.87" stroke="#D32F2F" stroke-width="7.84" stroke-linecap="round"/>
<line x1="308.71" y1="102.76" x2="278.06" y2="101.87" stroke="#D32F2F" stroke-width="6.74" stroke-linecap="round"/>
<line x1="247.20" y1="97.28" x2="273.92" y2="84.18" stroke="#D32F2F" stroke-width="7.16" stroke-linecap="round"/>
<line x1="303.87" y1="86.44" x2="273.92" y2="84.18" stroke="#D32F2F" stroke-width="6.94" stroke-linecap="round"/>
<line x1="244.92" y1="79.75" x2="273.08" y2="68.90" stroke="#D32F2F" stroke-width="6.48" stroke-linecap="round"/>
<line x1="302.02" y1="72.17" x2="273.08" y2="68.90" stroke="#D32F2F" stroke-width="7.29" stroke-linecap="round"/>
<line x1="245.84" y1="64.87" x2="275.05" y2="56.04" stroke="#D32F2F" stroke-width="5.83" stroke-linecap="round"/>
<line x1="302.78" y1="59.92" x2="275.05" y2="56.04" stroke="#D32F2F" stroke-width="7.72" stroke-linecap="round"/>
<line x1="249.40" y1="52.60" x2="279.34" y2="45.53" stroke="#D32F2F" stroke-width="5.25" stroke-linecap="round"/>
<line x1="305.76" y1="49.67" x2="279.34" y2="45.53" stroke="#D32F2F" stroke-width="8.00" stroke-linecap="round"/>
<line x1="255.04" y1="42.86" x2="285.46" y2="37.29" stroke="#D32F2F" stroke-width="4.76" stroke-linecap="round"/>
<line x1="310.60" y1="41.33" x2="285.46" y2="37.29" stroke="#D32F2F" stroke-width="8.00" stroke-linecap="round"/>
<line x1="262.23" y1="35.50" x2="292.95" y2="31.22" stroke="#D32F2F" stroke-width="4.37" stroke-linecap="round"/>
<line x1="316.94" y1="34.85" x2="292.95" y2="31.22" stroke="#D32F2F" stroke-width="8.00" stroke-linecap="round"/>
<line x1="270.47" y1="30.40" x2="301.38" y2="27.23" stroke="#D32F2F" stroke-width="4.10" stroke-linecap="round"/>
<line x1="324.44" y1="30.20" x2="301.38" y2="27.23" stroke="#D32F2F" stroke-width="8.00" stroke-linecap="round"/>
<line x1="279.30" y1="27.41" x2="310.33" y2="25.25" stroke="#D32F2F" stroke-width="4.07" stroke-linecap="round"/>
<line x1="332.79" y1="27.39" x2="310.33" y2="25.25" stroke="#D32F2F" stroke-width="8.00" stroke-linecap="round"/>
<line x1="28.05" y1="277.86" x2="26.79" y2="306.65" stroke="#D32F2F" stroke-width="6.91" stroke-linecap="round"/>
<line x1="26.40" y1="335.55" x2="26.79" y2="306.65" stroke="#D32F2F" stroke-width="6.85" stroke-linecap="round"/>
<line x1="31.00" y1="278.71" x2="30.48" y2="308.23" stroke="#D32F2F" stroke-width="6.37" stroke-linecap="round"/>
<line x1="28.92" y1="336.27" x2="30.48" y2="308.23" stroke="#D32F2F" stroke-width="7.28" stroke-linecap="round"/>
<line x1="36.40" y1="281.69" x2="36.40" y2="311.88" stroke="#D32F2F" stroke-width="5.78" stroke-linecap="round"/>
<line x1="33.44" y1="338.77" x2="36.40" y2="311.88" stroke="#D32F2F" stroke-width="7.76" stroke-linecap="round"/>
<line x1="44.46" y1="287.28" x2="44.71" y2="317.99" stroke="#D32F2F" stroke-width="5.20" stroke-linecap="round"/>
<line x1="40.07" y1="343.36" x2="44.71" y2="317.99" stroke="#D32F2F" stroke-width="8.00" stroke-linecap="round"/>
<line x1="55.37" y1="295.88" x2="55.55" y2="326.88" stroke="#D32F2F" stroke-width="4.96" stroke-linecap="round"/>
<line x1="48.95" y1="350.36" x2="55.55" y2="326.88" stroke="#D32F2F" stroke-width="8.00" stroke-linecap="round"/>
<line x1="69.23" y1="307.82" x2="69.03" y2="338.80" stroke="#D32F2F" stroke-width="6.08" stroke-linecap="round"/>
<line x1="60.19" y1="360.04" x2="69.03" y2="338.80" stroke="#D32F2F" stroke-width="8.00" stroke-linecap="round"/>
<line x1="86.06" y1="323.23" x2="85.15" y2="353.83" stroke="#D32F2F" stroke-width="7.13" stroke-linecap="round"/>
<line x1="73.85" y1="372.55" x2="85.15" y2="353.83" stroke="#D32F2F" stroke-width="8.00" stroke-linecap="round"/>
<line x1="105.69" y1="342.03" x2="103.75" y2="371.87" stroke="#D32F2F" stroke-width="8.00" stroke-linecap="round"/>
<line x1="89.83" y1="387.85" x2="103.75" y2="371.87" stroke="#D32F2F" stroke-width="8.00" stroke-linecap="round"/>
<line x1="127.76" y1="363.85" x2="124.44" y2="392.53" stroke="#D32F2F" stroke-width="8.00" stroke-linecap="round"/>
<line x1="107.86" y1="405.69" x2="124.44" y2="392.53" stroke="#D32F2F" stroke-width="8.00" stroke-linecap="round"/>
<line x1="151.62" y1="388.05" x2="146.61" y2="415.18" stroke="#D32F2F" stroke-width="8.00" stroke-linecap="round"/>
<line x1="127.42" y1="425.52" x2="146.61" y2="415.18" stroke="#D32F2F" stroke-width="8.00" stroke-linecap="round"/>
<line x1="176.45" y1="413.75" x2="169.43" y2="438.98" stroke="#D32F2F" stroke-width="8.00" stroke-linecap="round"/>
<line x1="147.79" y1="446.61" x2="169.43" y2="438.98" stroke="#D32F2F" stroke-width="8.00" stroke-linecap="round"/>
<line x1="201.27" y1="439.96" x2="192.01" y2="462.98" stroke="#D32F2F" stroke-width="8.00" stroke-linecap="round"/>
<line x1="168.13" y1="468.08" x2="192.01" y2="462.98" stroke="#D32F2F" stroke-width="8.00" stroke-linecap="round"/>
<line x1="225.15" y1="465.70" x2="213.46" y2="486.30" stroke="#D32F2F" stroke-width="8.00" stroke-linecap="round"/>
<line x1="187.64" y1="489.12" x2="213.46" y2="486.30" stroke="#D32F2F" stroke-width="8.00" stroke-linecap="round"/>
<line x1="247.26" y1="490.12" x2="233.09" y2="508.19" stroke="#D32F2F" stroke-width="8.00" stroke-linecap="round"/>
<line x1="205.65" y1="509.00" x2="233.09" y2="508.19" stroke="#D32F2F" stroke-width="8.00" stroke-linecap="round"/>
<line x1="267.03" y1="512.60" x2="250.42" y2="528.13" stroke="#D32F2F" stroke-width="8.00" stroke-linecap="round"/>
<line x1="221.69" y1="527.24" x2="250.42" y2="528.13" stroke="#D32F2F" stroke-width="8.00" stroke-linecap="round"/>
<line x1="284.13" y1="532.72" x2="265.22" y2="545.82" stroke="#D32F2F" stroke-width="8.00" stroke-linecap="round"/>
<line x1="235.56" y1="543.56" x2="265.22" y2="545.82" stroke="#D32F2F" stroke-width="7.42" stroke-linecap="round"/>
<line x1="298.48" y1="550.25" x2="277.52" y2="561.10" stroke="#D32F2F" stroke-width="8.00" stroke-linecap="round"/>
<line x1="247.24" y1="557.83" x2="277.52" y2="561.10" stroke="#D32F2F" stroke-width="6.50" stroke-linecap="round"/>
<line x1="310.18" y1="565.13" x2="287.47" y2="573.96" stroke="#D32F2F" stroke-width="8.00" stroke-linecap="round"/>
<line x1="256.87" y1="570.08" x2="287.47" y2="573.96" stroke="#D32F2F" stroke-width="5.54" stroke-linecap="round"/>
<line x1="319.50" y1="577.40" x2="295.35" y2="584.47" stroke="#D32F2F" stroke-width="8.00" stroke-linecap="round"/>
<line x1="264.66" y1="580.33" x2="295.35" y2="584.47" stroke="#D32F2F" stroke-width="4.60" stroke-linecap="round"/>
<line x1="326.79" y1="587.14" x2="301.51" y2="592.71" stroke="#D32F2F" stroke-width="8.00" stroke-linecap="round"/>
<line x1="270.90" y1="588.67" x2="301.51" y2="592.71" stroke="#D32F2F" stroke-width="4.94" stroke-linecap="round"/>
<line x1="332.44" y1="594.50" x2="306.33" y2="598.78" stroke="#D32F2F" stroke-width="8.00" stroke-linecap="round"/>
<line x1="275.87" y1="595.15" x2="306.33" y2="598.78" stroke="#D32F2F" stroke-width="5.35" stroke-linecap="round"/>
<line x1="336.85" y1="599.60" x2="310.18" y2="602.77" stroke="#D32F2F" stroke-width="8.00" stroke-linecap="round"/>
<line x1="279.90" y1="599.80" x2="310.18" y2="602.77" stroke="#D32F2F" stroke-width="5.68" stroke-linecap="round"/>
<line x1="340.45" y1="602.59" x2="313.45" y2="604.75" stroke="#D32F2F" stroke-width="7.95" stroke-linecap="round"/>
<line x1="283.29" y1="602.61" x2="313.45" y2="604.75" stroke="#D32F2F" stroke-width="5.90" stroke-linecap="round"/>
<line x1="604.20" y1="336.26" x2="604.47" y2="308.08" stroke="#D32F2F" stroke-width="7.36" stroke-linecap="round"/>
<line x1="602.64" y1="278.66" x2="604.47" y2="308.08" stroke="#D32F2F" stroke-width="6.52" stroke-linecap="round"/>
<line x1="602.93" y1="338.06" x2="602.18" y2="310.45" stroke="#D32F2F" stroke-width="7.69" stroke-linecap="round"/>
<line x1="601.25" y1="280.64" x2="602.18" y2="310.45" stroke="#D32F2F" stroke-width="6.29" stroke-linecap="round"/>
<line x1="599.77" y1="340.63" x2="597.98" y2="313.39" stroke="#D32F2F" stroke-width="7.89" stroke-linecap="round"/>
<line x1="597.91" y1="283.35" x2="597.98" y2="313.39" stroke="#D32F2F" stroke-width="6.17" stroke-linecap="round"/>
</svg>