<svg width="630.0" height="630.0" viewBox="0 0 630.0 630.0" xmlns="http://www.w3.org/2000/svg">
<circle cx="315.0" cy="315.0" r="290.0" fill="#FDFDF5" stroke="#ccc" stroke-width="0.5"/>
<line x1="545.55" y1="490.87" x2="525.89" y2="513.73" stroke="#D32F2F" stroke-width="5.98" stroke-linecap="round"/>
<line x1="503.74" y1="534.28" x2="522.49" y2="514.57" stroke="#D32F2F" stroke-width="7.85" stroke-linecap="round"/>
<line x1="542.82" y1="492.41" x2="522.49" y2="514.57" stroke="#D32F2F" stroke-width="6.04" stroke-linecap="round"/>
<line x1="499.71" y1="534.23" x2="518.07" y2="513.67" stroke="#D32F2F" stroke-width="7.65" stroke-linecap="round"/>
<line x1="539.02" y1="492.37" x2="518.07" y2="513.67" stroke="#D32F2F" stroke-width="6.21" stroke-linecap="round"/>
<line x1="494.63" y1="532.20" x2="512.84" y2="510.75" stroke="#D32F2F" stroke-width="7.35" stroke-linecap="round"/>
<line x1="534.39" y1="490.52" x2="512.84" y2="510.75" stroke="#D32F2F" stroke-width="6.47" stroke-linecap="round"/>
<line x1="488.70" y1="527.76" x2="507.03" y2="505.49" stroke="#D32F2F" stroke-width="6.96" stroke-linecap="round"/>
<line x1="529.17" y1="486.62" x2="507.03" y2="505.49" stroke="#D32F2F" stroke-width="6.81" stroke-linecap="round"/>
<line x1="482.16" y1="520.49" x2="500.83" y2="497.55" stroke="#D32F2F" stroke-width="6.55" stroke-linecap="round"/>
<line x1="523.56" y1="480.40" x2="500.83" y2="497.55" stroke="#D32F2F" stroke-width="7.22" stroke-linecap="round"/>
<line x1="475.22" y1="509.95" x2="494.45" y2="486.61" stroke="#D32F2F" stroke-width="6.16" stroke-linecap="round"/>
<line x1="517.76" y1="471.58" x2="494.45" y2="486.61" stroke="#D32F2F" stroke-width="7.68" stroke-linecap="round"/>
<line x1="468.15" y1="495.72" x2="488.10" y2="472.32" stroke="#D32F2F" stroke-width="5.85" stroke-linecap="round"/>
<line x1="511.94" y1="459.87" x2="488.10" y2="472.32" stroke="#D32F2F" stroke-width="8.00" stroke-linecap="round"/>
<line x1="461.19" y1="477.47" x2="481.96" y2="454.45" stroke="#D32F2F" stroke-width="6.28" stroke-linecap="round"/>
<line x1="506.27" y1="445.01" x2="481.96" y2="454.45" stroke="#D32F2F" stroke-width="8.00" stroke-linecap="round"/>
<line x1="454.62" y1="455.02" x2="476.26" y2="432.84" stroke="#D32F2F" stroke-width="7.34" stroke-linecap="round"/>
<line x1="500.94" y1="426.80" x2="476.26" y2="432.84" stroke="#D32F2F" stroke-width="8.00" stroke-linecap="round"/>
<line x1="448.69" y1="428.41" x2="471.20" y2="407.56" stroke="#D32F2F" stroke-width="8.00" stroke-linecap="round"/>
<line x1="496.13" y1="405.22" x2="471.20" y2="407.56" stroke="#D32F2F" stroke-width="8.00" stroke-linecap="round"/>
<line x1="443.65" y1="398.01" x2="466.99" y2="378.97" stroke="#D32F2F" stroke-width="8.00" stroke-linecap="round"/>
<line x1="492.03" y1="380.46" x2="466.99" y2="378.97" stroke="#D32F2F" stroke-width="8.00" stroke-linecap="round"/>
<line x1="439.71" y1="364.49" x2="463.81" y2="347.75" stroke="#D32F2F" stroke-width="8.00" stroke-linecap="round"/>
<line x1="488.81" y1="353.08" x2="463.81" y2="347.75" stroke="#D32F2F" stroke-width="8.00" stroke-linecap="round"/>
<line x1="437.04" y1="328.92" x2="461.82" y2="314.92" stroke="#D32F2F" stroke-width="8.00" stroke-linecap="round"/>
<line x1="486.63" y1="323.93" x2="461.82" y2="314.92" stroke="#D32F2F" stroke-width="8.00" stroke-linecap="round"/>
<line x1="435.77" y1="292.60" x2="461.12" y2="281.74" stroke="#D32F2F" stroke-width="8.00" stroke-linecap="round"/>
<line x1="485.58" y1="294.12" x2="461.12" y2="281.74" stroke="#D32F2F" stroke-width="8.00" stroke-linecap="round"/>
<line x1="435.95" y1="256.93" x2="461.74" y2="249.50" stroke="#D32F2F" stroke-width="8.00" stroke-linecap="round"/>
<line x1="485.73" y1="264.89" x2="461.74" y2="249.50" stroke="#D32F2F" stroke-width="8.00" stroke-linecap="round"/>
<line x1="437.54" y1="223.22" x2="463.65" y2="219.40" stroke="#D32F2F" stroke-width="8.00" stroke-linecap="round"/>
<line x1="487.03" y1="237.35" x2="463.65" y2="219.40" stroke="#D32F2F" stroke-width="8.00" stroke-linecap="round"/>
<line x1="440.45" y1="192.54" x2="466.73" y2="192.34" stroke="#D32F2F" stroke-width="8.00" stroke-linecap="round"/>
<line x1="489.40" y1="212.37" x2="466.73" y2="192.34" stroke="#D32F2F" stroke-width="7.85" stroke-linecap="round"/>
<line x1="444.51" y1="165.59" x2="470.82" y2="168.88" stroke="#D32F2F" stroke-width="8.00" stroke-linecap="round"/>
<line x1="492.69" y1="190.50" x2="470.82" y2="168.88" stroke="#D32F2F" stroke-width="6.95" stroke-linecap="round"/>
<line x1="449.50" y1="142.73" x2="475.71" y2="149.26" stroke="#D32F2F" stroke-width="8.00" stroke-linecap="round"/>
<line x1="496.74" y1="171.96" x2="475.71" y2="149.26" stroke="#D32F2F" stroke-width="5.94" stroke-linecap="round"/>
<line x1="455.17" y1="124.04" x2="481.16" y2="133.45" stroke="#D32F2F" stroke-width="8.00" stroke-linecap="round"/>
<line x1="501.35" y1="156.74" x2="481.16" y2="133.45" stroke="#D32F2F" stroke-width="5.59" stroke-linecap="round"/>
<line x1="461.23" y1="109.35" x2="486.91" y2="121.22" stroke="#D32F2F" stroke-width="7.62" stroke-linecap="round"/>
<line x1="506.34" y1="144.66" x2="486.91" y2="121.22" stroke="#D32F2F" stroke-width="5.99" stroke-linecap="round"/>
<line x1="467.42" y1="98.35" x2="492.72" y2="112.27" stroke="#D32F2F" stroke-width="7.15" stroke-linecap="round"/>
<line x1="511.52" y1="135.46" x2="492.72" y2="112.27" stroke="#D32F2F" stroke-width="6.44" stroke-linecap="round"/>
<line x1="473.44" y1="90.64" x2="498.32" y2="106.23" stroke="#D32F2F" stroke-width="6.74" stroke-linecap="round"/>
<line x1="516.67" y1="128.86" x2="498.32" y2="106.23" stroke="#D32F2F" stroke-width="6.90" stroke-linecap="round"/>
<line x1="479.04" y1="85.80" x2="503.47" y2="102.74" stroke="#D32F2F" stroke-width="6.40" stroke-linecap="round"/>
<line x1="521.61" y1="124.60" x2="503.47" y2="102.74" stroke="#D32F2F" stroke-width="7.31" stroke-linecap="round"/>
<line x1="483.97" y1="83.42" x2="507.93" y2="101.44" stroke="#D32F2F" stroke-width="6.16" stroke-linecap="round"/>
<line x1="526.10" y1="122.44" x2="507.93" y2="101.44" stroke="#D32F2F" stroke-width="7.63" stroke-linecap="round"/>
<line x1="487.99" y1="83.09" x2="511.43" y2="101.99" stroke="#D32F2F" stroke-width="6.02" stroke-linecap="round"/>
<line x1="529.89" y1="122.13" x2="511.43" y2="101.99" stroke="#D32F2F" stroke-width="7.84" stroke-linecap="round"/>
<line x1="84.45" y1="139.13" x2="104.11" y2="116.27" stroke="#D32F2F" stroke-width="5.98" stroke-linecap="round"/>
<line x1="126.26" y1="95.72" x2="107.51" y2="115.43" stroke="#D32F2F" stroke-width="7.85" stroke-linecap="round"/>
<line x1="87.18" y1="137.59" x2="107.51" y2="115.43" stroke="#D32F2F" stroke-width="6.04" stroke-linecap="round"/>
<line x1="130.29" y1="95.77" x2="111.93" y2="116.33" stroke="#D32F2F" stroke-width="7.65" stroke-linecap="round"/>
<line x1="90.98" y1="137.63" x2="111.93" y2="116.33" stroke="#D32F2F" stroke-width="6.21" stroke-linecap="round"/>
<line x1="135.37" y1="97.80" x2="117.16" y2="119.25" stroke="#D32F2F" stroke-width="7.35" stroke-linecap="round"/>
<line x1="95.61" y1="139.48" x2="117.16" y2="119.25" stroke="#D32F2F" stroke-width="6.47" stroke-linecap="round"/>
<line x1="141.30" y1="102.24" x2="122.97" y2="124.51" stroke="#D32F2F" stroke-width="6.96" stroke-linecap="round"/>
<line x1="100.83" y1="143.38" x2="122.97" y2="124.51" stroke="#D32F2F" stroke-width="6.81" stroke-linecap="round"/>
<line x1="147.84" y1="109.51" x2="129.17" y2="132.45" stroke="#D32F2F" stroke-width="6.55" stroke-linecap="round"/>
<line x1="106.44" y1="149.60" x2="129.17" y2="132.45" stroke="#D32F2F" stroke-width="7.22" stroke-linecap="round"/>
<line x1="154.78" y1="120.05" x2="135.55" y2="143.39" stroke="#D32F2F" stroke-width="6.16" stroke-linecap="round"/>
<line x1="112.24" y1="158.42" x2="135.55" y2="143.39" stroke="#D32F2F" stroke-width="7.68" stroke-linecap="round"/>
<line x1="161.85" y1="134.28" x2="141.90" y2="157.68" stroke="#D32F2F" stroke-width="5.85" stroke-linecap="round"/>
<line x1="118.06" y1="170.13" x2="141.90" y2="157.68" stroke="#D32F2F" stroke-width="8.00" stroke-linecap="round"/>
<line x1="168.81" y1="152.53" x2="148.04" y2="175.55" stroke="#D32F2F" stroke-width="6.28" stroke-linecap="round"/>
<line x1="123.73" y1="184.99" x2="148.04" y2="175.55" stroke="#D32F2F" stroke-width="8.00" stroke-linecap="round"/>
<line x1="175.38" y1="174.98" x2="153.74" y2="197.16" stroke="#D32F2F" stroke-width="7.34" stroke-linecap="round"/>
<line x1="129.06" y1="203.20" x2="153.74" y2="197.16" stroke="#D32F2F" stroke-width="8.00" stroke-linecap="round"/>
<line x1="181.31" y1="201.59" x2="158.80" y2="222.44" stroke="#D32F2F" stroke-width="8.00" stroke-linecap="round"/>
<line x1="133.87" y1="224.78" x2="158.80" y2="222.44" stroke="#D32F2F" stroke-width="8.00" stroke-linecap="round"/>
<line x1="186.35" y1="231.99" x2="163.01" y2="251.03" stroke="#D32F2F" stroke-width="8.00" stroke-linecap="round"/>
<line x1="137.97" y1="249.54" x2="163.01" y2="251.03" stroke="#D32F2F" stroke-width="8.00" stroke-linecap="round"/>
<line x1="190.29" y1="265.51" x2="166.19" y2="282.25" stroke="#D32F2F" stroke-width="8.00" stroke-linecap="round"/>
<line x1="141.19" y1="276.92" x2="166.19" y2="282.25" stroke="#D32F2F" stroke-width="8.00" stroke-linecap="round"/>
<line x1="192.96" y1="301.08" x2="168.18" y2="315.08" stroke="#D32F2F" stroke-width="8.00" stroke-linecap="round"/>
<line x1="143.37" y1="306.07" x2="168.18" y2="315.08" stroke="#D32F2F" stroke-width="8.00" stroke-linecap="round"/>
<line x1="194.23" y1="337.40" x2="168.88" y2="348.26" stroke="#D32F2F" stroke-width="8.00" stroke-linecap="round"/>
<line x1="144.42" y1="335.88" x2="168.88" y2="348.26" stroke="#D32F2F" stroke-width="8.00" stroke-linecap="round"/>
<line x1="194.05" y1="373.07" x2="168.26" y2="380.50" stroke="#D32F2F" stroke-width="8.00" stroke-linecap="round"/>
<line x1="144.27" y1="365.11" x2="168.26" y2="380.50" stroke="#D32F2F" stroke-width="8.00" stroke-linecap="round"/>
<line x1="192.46" y1="406.78" x2="166.35" y2="410.60" stroke="#D32F2F" stroke-width="8.00" stroke-linecap="round"/>
<line x1="142.97" y1="392.65" x2="166.35" y2="410.60" stroke="#D32F2F" stroke-width="8.00" stroke-linecap="round"/>
<line x1="189.55" y1="437.46" x2="163.27" y2="437.66" stroke="#D32F2F" stroke-width="8.00" stroke-linecap="round"/>
<line x1="140.60" y1="417.63" x2="163.27" y2="437.66" stroke="#D32F2F" stroke-width="7.85" stroke-linecap="round"/>
<line x1="185.49" y1="464.41" x2="159.18" y2="461.12" stroke="#D32F2F" stroke-width="8.00" stroke-linecap="round"/>
<line x1="137.31" y1="439.50" x2="159.18" y2="461.12" stroke="#D32F2F" stroke-width="6.95" stroke-linecap="round"/>
<line x1="180.50" y1="487.27" x2="154.29" y2="480.74" stroke="#D32F2F" stroke-width="8.00" stroke-linecap="round"/>
<line x1="133.26" y1="458.04" x2="154.29" y2="480.74" stroke="#D32F2F" stroke-width="5.94" stroke-linecap="round"/>
<line x1="174.83" y1="505.96" x2="148.84" y2="496.55" stroke="#D32F2F" stroke-width="8.00" stroke-linecap="round"/>
<line x1="128.65" y1="473.26" x2="148.84" y2="496.55" stroke="#D32F2F" stroke-width="5.59" stroke-linecap="round"/>
<line x1="168.77" y1="520.65" x2="143.09" y2="508.78" stroke="#D32F2F" stroke-width="7.62" stroke-linecap="round"/>
<line x1="123.66" y1="485.34" x2="143.09" y2="508.78" stroke="#D32F2F" stroke-width="5.99" stroke-linecap="round"/>
<line x1="162.58" y1="531.65" x2="137.28" y2="517.73" stroke="#D32F2F" stroke-width="7.15" stroke-linecap="round"/>
<line x1="118.48" y1="494.54" x2="137.28" y2="517.73" stroke="#D32F2F" stroke-width="6.44" stroke-linecap="round"/>
<line x1="156.56" y1="539.36" x2="131.68" y2="523.77" stroke="#D32F2F" stroke-width="6.74" stroke-linecap="round"/>
<line x1="113.33" y1="501.14" x2="131.68" y2="523.77" stroke="#D32F2F" stroke-width="6.90" stroke-linecap="round"/>
<line x1="150.96" y1="544.20" x2="126.53" y2="527.26" stroke="#D32F2F" stroke-width="6.40" stroke-linecap="round"/>
<line x1="108.39" y1="505.40" x2="126.53" y2="527.26" stroke="#D32F2F" stroke-width="7.31" stroke-linecap="round"/>
<line x1="146.03" y1="546.58" x2="122.07" y2="528.56" stroke="#D32F2F" stroke-width="6.16" stroke-linecap="round"/>
<line x1="103.90" y1="507.56" x2="122.07" y2="528.56" stroke="#D32F2F" stroke-width="7.63" stroke-linecap="round"/>
<line x1="142.01" y1="546.91" x2="118.57" y2="528.01" stroke="#D32F2F" stroke-width="6.02" stroke-linecap="round"/>
<line x1="100.11" y1="507.87" x2="118.57" y2="528.01" stroke="#D32F2F" stroke-width="7.84" stroke-linecap="round"/>
<line x1="545.55" y1="490.87" x2="525.89" y2="513.73" stroke="#D32F2F" stroke-width="5.98" stroke-linecap="round"/>
<line x1="503.74" y1="534.28" x2="522.49" y2="514.57" stroke="#D32F2F" stroke-width="7.85" stroke-linecap="round"/>
<line x1="542.82" y1="492.41" x2="522.49" y2="514.57" stroke="#D32F2F" stroke-width="6.04" stroke-linecap="round"/>
<line x1="499.71" y1="534.23" x2="518.07" y2="513.67" stroke="#D32F2F" stroke-width="7.65" stroke-linecap="round"/>
<line x1="539.02" y1="492.37" x2="518.07" y2="513.67" stroke="#D32F2F" stroke-width="6.21" stroke-linecap="round"/>
<line x1="494.63" y1="532.20" x2="512.84" y2="510.75" stroke="#D32F2F" stroke-width="7.35" stroke-linecap="round"/>
<line x1="534.39" y1="490.52" x2="512.84" y2="510.75" stroke="#D32F2F" stroke-width="6.47" stroke-linecap="round"/>
<line x1="488.70" y1="527.76" x2="507.03" y2="505.49" stroke="#D32F2F" stroke-width="6.96" stroke-linecap="round"/>
<line x1="529.17" y1="486.62" x2="507.03" y2="505.49" stroke="#D32F2F" stroke-width="6.81" stroke-linecap="round"/>
<line x1="482.16" y1="520.49" x2="500.83" y2="497.55" stroke="#D32F2F" stroke-width="6.55" stroke-linecap="round"/>
<line x1="523.56" y1="480.40" x2="500.83" y2="497.55" stroke="#D32F2F" stroke-width="7.22" stroke-linecap="round"/>
<line x1="475.22" y1="509.95" x2="494.45" y2="486.61" stroke="#D32F2F" stroke-width="6.16" stroke-linecap="round"/>
<line x1="517.76" y1="471.58" x2="494.45" y2="486.61" stroke="#D32F2F" stroke-width="7.68" stroke-linecap="round"/>
<line x1="468.15" y1="495.72" x2="488.10" y2="472.32" stroke="#D32F2F" stroke-width="5.85" stroke-linecap="round"/>
<line x1="511.94" y1="459.87" x2="488.10" y2="472.32" stroke="#D32F2F" stroke-width="8.00" stroke-linecap="round"/>
<line x1="461.19" y1="477.47" x2="481.96" y2="454.45" stroke="#D32F2F" stroke-width="6.28" stroke-linecap="round"/>
<line x1="506.27" y1="445.01" x2="481.96" y2="454.45" stroke="#D32F2F" stroke-width="8.00" stroke-linecap="round"/>
<line x1="454.62" y1="455.02" x2="476.26" y2="432.84" stroke="#D32F2F" stroke-width="7.34" stroke-linecap="round"/>
<line x1="500.94" y1="426.80" x2="476.26" y2="432.84" stroke="#D32F2F" stroke-width="8.00" stroke-linecap="round"/>
<line x1="448.69" y1="428.41" x2="471.20" y2="407.56" stroke="#D32F2F" stroke-width="8.00" stroke-linecap="round"/>
<line x1="496.13" y1="405.22" x2="471.20" y2="407.56" stroke="#D32F2F" stroke-width="8.00" stroke-linecap="round"/>
<line x1="443.65" y1="398.01" x2="466.99" y2="378.97" stroke="#D32F2F" stroke-width="8.00" stroke-linecap="round"/>
<line x1="492.03" y1="380.46" x2="466.99" y2="378.97" stroke="#D32F2F" stroke-width="8.00" stroke-linecap="round"/>
<line x1="439.71" y1="364.49" x2="463.81" y2="347.75" stroke="#D32F2F" stroke-width="8.00" stroke-linecap="round"/>
<line x1="488.81" y1="353.08" x2="463.81" y2="347.75" stroke="#D32F2F" stroke-width="8.00" stroke-linecap="round"/>
<line x1="437.04" y1="328.92" x2="461.82" y2="314.92" stroke="#D32F2F" stroke-width="8.00" stroke-linecap="round"/>
<line x1="486.63" y1="323.93" x2="461.82" y2="314.92" stroke="#D32F2F" stroke-width="8.00" stroke-linecap="round"/>
<line x1="435.77" y1="292.60" x2="461.12" y2="281.74" stroke="#D32F2F" stroke-width="8.00" stroke-linecap="round"/>
<line x1="485.58" y1="294.12" x2="461.12" y2="281.74" stroke="#D32F2F" stroke-width="8.00" stroke-linecap="round"/>
<line x1="435.95" y1="256.93" x2="461.74" y2="249.50" stroke="#D32F2F" stroke-width="8.00" stroke-linecap="round"/>
<line x1="485.73" y1="264.89" x2="461.74" y2="249.50" stroke="#D32F2F" stroke-width="8.00" stroke-linecap="round"/>
<line x1="437.54" y1="223.22" x2="463.65" y2="219.40" stroke="#D32F2F" stroke-width="8.00" stroke-linecap="round"/>
<line x1="487.03" y1="237.35" x2="463.65" y2="219.40" stroke="#D32F2F" stroke-width="8.00" stroke-linecap="round"/>
<line x1="440.45" y1="192.54" x2="466.73" y2="192.34" stroke="#D32F2F" stroke-width="8.00" stroke-linecap="round"/>
<line x1="489.40" y1="212.37" x2="466.73" y2="192.34" stroke="#D32F2F" stroke-width="7.85" stroke-linecap="round"/>
<line x1="444.51" y1="165.59" x2="470.82" y2="168.88" stroke="#D32F2F" stroke-width="8.00" stroke-linecap="round"/>
<line x1="492.69" y1="190.50" x2="470.82" y2="168.88" stroke="#D32F2F" stroke-width="6.95" stroke-linecap="round"/>
<line x1="449.50" y1="142.73" x2="475.71" y2="149.26" stroke="#D32F2F" stroke-width="8.00" stroke-linecap="round"/>
<line x1="496.74" y1="171.96" x2="475.71" y2="149.26" stroke="#D32F2F" stroke-width="5.94" stroke-linecap="round"/>
<line x1="455.17" y1="124.04" x2="481.16" y2="133.45" stroke="#D32F2F" stroke-width="8.00" stroke-linecap="round"/>
<line x1="501.35" y1="156.74" x2="481.16" y2="133.45" stroke="#D32F2F" stroke-width="5.59" stroke-linecap="round"/>
<line x1="461.23" y1="109.35" x2="486.91" y2="121.22" stroke="#D32F2F" stroke-width="7.62" stroke-linecap="round"/>
<line x1="506.34" y1="144.66" x2="486.91" y2="121.22" stroke="#D32F2F" stroke-width="5.99" stroke-linecap="round"/>
<line x1="467.42" y1="98.35" x2="492.72" y2="112.27" stroke="#D32F2F" stroke-width="7.15" stroke-linecap="round"/>
<line x1="511.52" y1="135.46" x2="492.72" y2="112.27" stroke="#D32F2F" stroke-width="6.44" stroke-linecap="round"/>
<line x1="473.44" y1="90.64" x2="498.32" y2="106.23" stroke="#D32F2F" stroke-width="6.74" stroke-linecap="round"/>
<line x1="516.67" y1="128.86" x2="498.32" y2="106.23" stroke="#D32F2F" stroke-width="6.90" stroke-linecap="round"/>
<line x1="479.04" y1="85.80" x2="503.47" y2="102.74" stroke="#D32F2F" stroke-width="6.40" stroke-linecap="round"/>
<line x1="521.61" y1="124.60" x2="503.47" y2="102.74" stroke="#D32F2F" stroke-width="7.31" stroke-linecap="round"/>
<line x1="483.97" y1="83.42" x2="507.93" y2="101.44" stroke="#D32F2F" stroke-width="6.16" stroke-linecap="round"/>
<line x1="526.10" y1="122.44" x2="507.93" y2="101.44" stroke="#D32F2F" stroke-width="7.63" stroke-linecap="round"/>
<line x1="487.99" y1="83.09" x2="511.43" y2="101.99" stroke="#D32F2F" stroke-width="6.02" stroke-linecap="round"/>
<line x1="529.89" y1="122.13" x2="511.43" y2="101.99" stroke="#D32F2F" stroke-width="7.84" stroke-linecap="round"/>
<line x1="84.45" y1="139.13" x2="104.11" y2="116.27" stroke="#D32F2F" stroke-width="5.98" stroke-linecap="round"/>
<line x1="126.26" y1="95.72" x2="107.51" y2="115.43" stroke="#D32F2F" stroke-width="7.85" stroke-linecap="round"/>
<line x1="87.18" y1="137.59" x2="107.51" y2="115.43" stroke="#D32F2F" stroke-width="6.04" stroke-linecap="round"/>
<line x1="130.29" y1="95.77" x2="111.93" y2="116.33" stroke="#D32F2F" stroke-width="7.65" stroke-linecap="round"/>
<line x1="90.98" y1="137.63" x2="111.93" y2="116.33" stroke="#D32F2F" stroke-width="6.21" stroke-linecap="round"/>
<line x1="135.37" y1="97.80" x2="117.16" y2="119.25" stroke="#D32F2F" stroke-width="7.35" stroke-linecap="round"/>
<line x1="95.61" y1="139.48" x2="117.16" y2="119.25" stroke="#D32F2F" stroke-width="6.47" stroke-linecap="round"/>
<line x1="141.30" y1="102.24" x2="122.97" y2="124.51" stroke="#D32F2F" stroke-width="6.96" stroke-linecap="round"/>
<line x1="100.83" y1="143.38" x2="122.97" y2="124.51" stroke="#D32F2F" stroke-width="6.81" stroke-linecap="round"/>
<line x1="147.84" y1="109.51" x2="129.17" y2="132.45" stroke="#D32F2F" stroke-width="6.55" stroke-linecap="round"/>
<line x1="106.44" y1="149.60" x2="129.17" y2="132.45" stroke="#D32F2F" stroke-width="7.22" stroke-linecap="round"/>
<line x1="154.78" y1="120.05" x2="135.55" y2="143.39" stroke="#D32F2F" stroke-width="6.16" stroke-linecap="round"/>
<line x1="112.24" y1="158.42" x2="135.55" y2="143.39" stroke="#D32F2F" stroke-width="7.68" stroke-linecap="round"/>
<line x1="161.85" y1="134.28" x2="141.90" y2="157.68" stroke="#D32F2F" stroke-width="5.85" stroke-linecap="round"/>
<line x1="118.06" y1="170.13" x2="141.90" y2="157.68" stroke="#D32F2F" stroke-width="8.00" stroke-linecap="round"/>
<line x1="168.81" y1="152.53" x2="148.04" y2="175.55" stroke="#D32F2F" stroke-width="6.28" stroke-linecap="round"/>
<line x1="123.73" y1="184.99" x2="148.04" y2="175.55" stroke="#D32F2F" stroke-width="8.00" stroke-linecap="round"/>
<line x1="175.38" y1="174.98" x2="153.74" y2="197.16" stroke="#D32F2F" stroke-width="7.34" stroke-linecap="round"/>
<line x1="129.06" y1="203.20" x2="153.74" y2="197.16" stroke="#D32F2F" stroke-width="8.00" stroke-linecap="round"/>
<line x1="181.31" y1="201.59" x2="158.80" y2="222.44" stroke="#D32F2F" stroke-width="8.00" stroke-linecap="round"/>
<line x1="133.87" y1="224.78" x2="158.80" y2="222.44" stroke="#D32F2F" stroke-width="8.00" stroke-linecap="round"/>
<line x1="186.35" y1="231.99" x2="163.01" y2="251.03" stroke="#D32F2F" stroke-width="8.00" stroke-linecap="round"/>
<line x1="137.97" y1="249.54" x2="163.01" y2="251.03" stroke="#D32F2F" stroke-width="8.00" stroke-linecap="round"/>
<line x1="190.29" y1="265.51" x2="166.19" y2="282.25" stroke="#D32F2F" stroke-width="8.00" stroke-linecap="round"/>
<line x1="141.19" y1="276.92" x2="166.19" y2="282.25" stroke="#D32F2F" stroke-width="8.00" stroke-linecap="round"/>
<line x1="192.96" y1="301.08" x2="168.18" y2="315.08" stroke="#D32F2F" stroke-width="8.00" stroke-linecap="round"/>
<line x1="143.37" y1="306.07" x2="168.18" y2="315.08" stroke="#D32F2F" stroke-width="8.00" stroke-linecap="round"/>
<line x1="194.23" y1="337.40" x2="168.88" y2="348.26" stroke="#D32F2F" stroke-width="8.00" stroke-linecap="round"/>
<line x1="144.42" y1="335.88" x2="168.88" y2="348.26" stroke="#D32F2F" stroke-width="8.00" stroke-linecap="round"/>
<line x1="194.05" y1="373.07" x2="168.26" y2="380.50" stroke="#D32F2F" stroke-width="8.00" stroke-linecap="round"/>
<line x1="144.27" y1="365.11" x2="168.26" y2="380.50" stroke="#D32F2F" stroke-width="8.00" stroke-linecap="round"/>
<line x1="192.46" y1="406.78" x2="166.35" y2="410.60" stroke="#D32F2F" stroke-width="8.00" stroke-linecap="round"/>
<line x1="142.97" y1="392.65" x2="166.35" y2="410.60" stroke="#D32F2F" stroke-width="8.00" stroke-linecap="round"/>
<line x1="189.55" y1="437.46" x2="163.27" y2="437.66" stroke="#D32F2F" stroke-width="8.00" stroke-linecap="round"/>
<line x1="140.60" y1="417.63" x2="163.27" y2="437.66" stroke="#D32F2F" stroke-width="7.85" stroke-linecap="round"/>
<line x1="185.49" y1="464.41" x2="159.18" y2="461.12" stroke="#D32F2F" stroke-width="8.00" stroke-linecap="round"/>
<line x1="137.31" y1="439.50" x2="159.18" y2="461.12" stroke="#D32F2F" stroke-width="6.95" stroke-linecap="round"/>
<line x1="180.50" y1="487.27" x2="154.29" y2="480.74" stroke="#D32F2F" stroke-width="8.00" stroke-linecap="round"/>
<line x1="133.26" y1="458.04" x2="154.29" y2="480.74" stroke="#D32F2F" stroke-width="5.94" stroke-linecap="round"/>
<line x1="174.83" y1="505.96" x2="148.84" y2="496.55" stroke="#D32F2F" stroke-width="8.00" stroke-linecap="round"/>
<line x1="128.65" y1="473.26" x2="148.84" y2="496.55" stroke="#D32F2F" stroke-width="5.59" stroke-linecap="round"/>
<line x1="168.77" y1="520.65" x2="143.09" y2="508.78" stroke="#D32F2F" stroke-width="7.62" stroke-linecap="round"/>
<line x1="123.66" y1="485.34" x2="143.09" y2="508.78" stroke="#D32F2F" stroke-width="5.99" stroke-linecap="round"/>
<line x1="162.58" y1="531.65" x2="137.28" y2="517.73" stroke="#D32F2F" stroke-width="7.15" stroke-linecap="round"/>
<line x1="118.48" y1="494.54" x2="137.28" y2="517.73" stroke="#D32F2F" stroke-width="6.44" stroke-linecap="round"/>
<line x1="156.56" y1="539.36" x2="131.68" y2="523.77" stroke="#D32F2F" stroke-width="6.74" stroke-linecap="round"/>
<line x1="113.33" y1="501.14" x2="131.68" y2="523.77" stroke="#D32F2F" stroke-width="6.90" stroke-linecap="round"/>
<line x1="150.96" y1="544.20" x2="126.53" y2="527.26" stroke="#D32F2F" stroke-width="6.40" stroke-linecap="round"/>
<line x1="108.39" y1="505.40" x2="126.53" y2="527.26" stroke="#D32F2F" stroke-width="7.31" stroke-linecap="round"/>
<line x1="146.03" y1="546.58" x2="122.07" y2="528.56" stroke="#D32F2F" stroke-width="6.16" stroke-linecap="round"/>
<line x1="103.90" y1="507.56" x2="122.07" y2="528.56" stroke="#D32F2F" stroke-width="7.63" stroke-linecap="round"/>
<line x1="142.01" y1="546.91" x2="118.57" y2="528.01" stroke="#D32F2F" stroke-width="6.02" stroke-linecap="round"/>
<line x1="100.11" y1="507.87" x2="118.57" y2="528.01" stroke="#D32F2F" stroke-width="7.84" stroke-linecap="round"/>
</svg>