<svg width="630.0" height="630.0" viewBox="0 0 630.0 630.0" xmlns="http://www.w3.org/2000/svg">
<circle cx="315.0" cy="315.0" r="290.0" fill="#FDFDF5" stroke="#ccc" stroke-width="0.5"/>
<line x1="544.22" y1="492.30" x2="523.90" y2="515.87" stroke="#D32F2F" stroke-width="4.10" stroke-linecap="round"/>
<line x1="500.98" y1="537.24" x2="516.43" y2="521.07" stroke="#D32F2F" stroke-width="8.00" stroke-linecap="round"/>
<line x1="537.48" y1="498.14" x2="516.43" y2="521.07" stroke="#D32F2F" stroke-width="4.11" stroke-linecap="round"/>
<line x1="492.77" y1="541.67" x2="507.94" y2="524.53" stroke="#D32F2F" stroke-width="8.00" stroke-linecap="round"/>
<line x1="529.73" y1="502.33" x2="507.94" y2="524.53" stroke="#D32F2F" stroke-width="4.19" stroke-linecap="round"/>
<line x1="483.42" y1="544.21" x2="498.65" y2="525.97" stroke="#D32F2F" stroke-width="8.00" stroke-linecap="round"/>
<line x1="521.21" y1="504.65" x2="498.65" y2="525.97" stroke="#D32F2F" stroke-width="4.49" stroke-linecap="round"/>
<line x1="473.14" y1="544.45" x2="488.76" y2="525.08" stroke="#D32F2F" stroke-width="8.00" stroke-linecap="round"/>
<line x1="512.15" y1="504.87" x2="488.76" y2="525.08" stroke="#D32F2F" stroke-width="4.91" stroke-linecap="round"/>
<line x1="462.17" y1="541.93" x2="478.49" y2="521.51" stroke="#D32F2F" stroke-width="8.00" stroke-linecap="round"/>
<line x1="502.75" y1="502.71" x2="478.49" y2="521.51" stroke="#D32F2F" stroke-width="5.42" stroke-linecap="round"/>
<line x1="450.77" y1="536.17" x2="468.08" y2="514.89" stroke="#D32F2F" stroke-width="7.77" stroke-linecap="round"/>
<line x1="493.22" y1="497.90" x2="468.08" y2="514.89" stroke="#D32F2F" stroke-width="6.00" stroke-linecap="round"/>
<line x1="439.26" y1="526.69" x2="457.77" y2="504.85" stroke="#D32F2F" stroke-width="7.38" stroke-linecap="round"/>
<line x1="483.75" y1="490.10" x2="457.77" y2="504.85" stroke="#D32F2F" stroke-width="6.64" stroke-linecap="round"/>
<line x1="427.99" y1="513.07" x2="447.83" y2="491.04" stroke="#D32F2F" stroke-width="7.10" stroke-linecap="round"/>
<line x1="474.57" y1="479.01" x2="447.83" y2="491.04" stroke="#D32F2F" stroke-width="7.30" stroke-linecap="round"/>
<line x1="417.34" y1="494.99" x2="438.59" y2="473.23" stroke="#D32F2F" stroke-width="6.99" stroke-linecap="round"/>
<line x1="465.93" y1="464.35" x2="438.59" y2="473.23" stroke="#D32F2F" stroke-width="7.94" stroke-linecap="round"/>
<line x1="407.72" y1="472.35" x2="430.38" y2="451.33" stroke="#D32F2F" stroke-width="7.09" stroke-linecap="round"/>
<line x1="458.12" y1="445.97" x2="430.38" y2="451.33" stroke="#D32F2F" stroke-width="8.00" stroke-linecap="round"/>
<line x1="399.54" y1="445.30" x2="423.56" y2="425.54" stroke="#D32F2F" stroke-width="8.00" stroke-linecap="round"/>
<line x1="451.47" y1="423.96" x2="423.56" y2="425.54" stroke="#D32F2F" stroke-width="8.00" stroke-linecap="round"/>
<line x1="393.19" y1="414.38" x2="418.45" y2="396.39" stroke="#D32F2F" stroke-width="8.00" stroke-linecap="round"/>
<line x1="446.28" y1="398.69" x2="418.45" y2="396.39" stroke="#D32F2F" stroke-width="8.00" stroke-linecap="round"/>
<line x1="388.98" y1="380.47" x2="415.34" y2="364.76" stroke="#D32F2F" stroke-width="8.00" stroke-linecap="round"/>
<line x1="442.82" y1="370.90" x2="415.34" y2="364.76" stroke="#D32F2F" stroke-width="8.00" stroke-linecap="round"/>
<line x1="387.11" y1="344.79" x2="414.41" y2="331.82" stroke="#D32F2F" stroke-width="8.00" stroke-linecap="round"/>
<line x1="441.29" y1="341.62" x2="414.41" y2="331.82" stroke="#D32F2F" stroke-width="8.00" stroke-linecap="round"/>
<line x1="387.66" y1="308.71" x2="415.69" y2="298.88" stroke="#D32F2F" stroke-width="8.00" stroke-linecap="round"/>
<line x1="441.75" y1="312.05" x2="415.69" y2="298.88" stroke="#D32F2F" stroke-width="8.00" stroke-linecap="round"/>
<line x1="390.57" y1="273.60" x2="419.08" y2="267.19" stroke="#D32F2F" stroke-width="8.00" stroke-linecap="round"/>
<line x1="444.12" y1="283.36" x2="419.08" y2="267.19" stroke="#D32F2F" stroke-width="8.00" stroke-linecap="round"/>
<line x1="395.60" y1="240.63" x2="424.37" y2="237.76" stroke="#D32F2F" stroke-width="8.00" stroke-linecap="round"/>
<line x1="448.22" y1="256.52" x2="424.37" y2="237.76" stroke="#D32F2F" stroke-width="8.00" stroke-linecap="round"/>
<line x1="402.47" y1="210.67" x2="431.25" y2="211.32" stroke="#D32F2F" stroke-width="8.00" stroke-linecap="round"/>
<line x1="453.79" y1="232.21" x2="431.25" y2="211.32" stroke="#D32F2F" stroke-width="8.00" stroke-linecap="round"/>
<line x1="410.79" y1="184.24" x2="439.36" y2="188.24" stroke="#D32F2F" stroke-width="8.00" stroke-linecap="round"/>
<line x1="460.54" y1="210.78" x2="439.36" y2="188.24" stroke="#D32F2F" stroke-width="7.46" stroke-linecap="round"/>
<line x1="420.17" y1="161.57" x2="448.36" y2="168.62" stroke="#D32F2F" stroke-width="8.00" stroke-linecap="round"/>
<line x1="468.18" y1="192.32" x2="448.36" y2="168.62" stroke="#D32F2F" stroke-width="6.63" stroke-linecap="round"/>
<line x1="430.19" y1="142.63" x2="457.88" y2="152.35" stroke="#D32F2F" stroke-width="7.79" stroke-linecap="round"/>
<line x1="476.43" y1="176.74" x2="457.88" y2="152.35" stroke="#D32F2F" stroke-width="6.70" stroke-linecap="round"/>
<line x1="440.48" y1="127.23" x2="467.59" y2="139.21" stroke="#D32F2F" stroke-width="7.32" stroke-linecap="round"/>
<line x1="485.04" y1="163.85" x2="467.59" y2="139.21" stroke="#D32F2F" stroke-width="6.88" stroke-linecap="round"/>
<line x1="450.69" y1="115.03" x2="477.20" y2="128.88" stroke="#D32F2F" stroke-width="6.90" stroke-linecap="round"/>
<line x1="493.77" y1="153.42" x2="477.20" y2="128.88" stroke="#D32F2F" stroke-width="7.13" stroke-linecap="round"/>
<line x1="460.49" y1="105.69" x2="486.40" y2="121.04" stroke="#D32F2F" stroke-width="6.56" stroke-linecap="round"/>
<line x1="502.42" y1="145.19" x2="486.40" y2="121.04" stroke="#D32F2F" stroke-width="7.40" stroke-linecap="round"/>
<line x1="469.62" y1="98.80" x2="494.95" y2="115.35" stroke="#D32F2F" stroke-width="6.30" stroke-linecap="round"/>
<line x1="510.73" y1="138.92" x2="494.95" y2="115.35" stroke="#D32F2F" stroke-width="7.65" stroke-linecap="round"/>
<line x1="477.81" y1="94.00" x2="502.57" y2="111.49" stroke="#D32F2F" stroke-width="6.14" stroke-linecap="round"/>
<line x1="518.46" y1="134.39" x2="502.57" y2="111.49" stroke="#D32F2F" stroke-width="7.83" stroke-linecap="round"/>
<line x1="484.83" y1="90.93" x2="509.02" y2="109.15" stroke="#D32F2F" stroke-width="6.08" stroke-linecap="round"/>
<line x1="525.35" y1="131.38" x2="509.02" y2="109.15" stroke="#D32F2F" stroke-width="7.91" stroke-linecap="round"/>
<line x1="490.47" y1="89.26" x2="514.04" y2="108.07" stroke="#D32F2F" stroke-width="6.12" stroke-linecap="round"/>
<line x1="531.09" y1="129.68" x2="514.04" y2="108.07" stroke="#D32F2F" stroke-width="7.87" stroke-linecap="round"/>
<line x1="494.50" y1="88.70" x2="517.35" y2="107.98" stroke="#D32F2F" stroke-width="6.26" stroke-linecap="round"/>
<line x1="535.35" y1="129.09" x2="517.35" y2="107.98" stroke="#D32F2F" stroke-width="7.68" stroke-linecap="round"/>
<line x1="123.47" y1="97.28" x2="102.05" y2="118.48" stroke="#D32F2F" stroke-width="5.98" stroke-linecap="round"/>
<line x1="122.03" y1="100.26" x2="101.24" y2="122.15" stroke="#D32F2F" stroke-width="5.92" stroke-linecap="round"/>
<line x1="83.03" y1="142.04" x2="101.24" y2="122.15" stroke="#D32F2F" stroke-width="7.96" stroke-linecap="round"/>
<line x1="121.76" y1="104.92" x2="101.49" y2="127.52" stroke="#D32F2F" stroke-width="5.74" stroke-linecap="round"/>
<line x1="82.77" y1="146.44" x2="101.49" y2="127.52" stroke="#D32F2F" stroke-width="8.00" stroke-linecap="round"/>
<line x1="122.48" y1="111.63" x2="102.58" y2="134.88" stroke="#D32F2F" stroke-width="5.45" stroke-linecap="round"/>
<line x1="83.42" y1="152.55" x2="102.58" y2="134.88" stroke="#D32F2F" stroke-width="8.00" stroke-linecap="round"/>
<line x1="124.01" y1="120.78" x2="104.32" y2="144.52" stroke="#D32F2F" stroke-width="5.09" stroke-linecap="round"/>
<line x1="84.77" y1="160.61" x2="104.32" y2="144.52" stroke="#D32F2F" stroke-width="8.00" stroke-linecap="round"/>
<line x1="126.17" y1="132.75" x2="106.52" y2="156.74" stroke="#D32F2F" stroke-width="4.82" stroke-linecap="round"/>
<line x1="86.62" y1="170.86" x2="106.52" y2="156.74" stroke="#D32F2F" stroke-width="8.00" stroke-linecap="round"/>
<line x1="128.78" y1="147.93" x2="109.03" y2="171.83" stroke="#D32F2F" stroke-width="5.80" stroke-linecap="round"/>
<line x1="88.80" y1="183.55" x2="109.03" y2="171.83" stroke="#D32F2F" stroke-width="8.00" stroke-linecap="round"/>
<line x1="131.68" y1="166.64" x2="111.71" y2="190.05" stroke="#D32F2F" stroke-width="6.79" stroke-linecap="round"/>
<line x1="91.19" y1="198.94" x2="111.71" y2="190.05" stroke="#D32F2F" stroke-width="8.00" stroke-linecap="round"/>
<line x1="134.72" y1="189.09" x2="114.46" y2="211.56" stroke="#D32F2F" stroke-width="7.73" stroke-linecap="round"/>
<line x1="93.67" y1="217.22" x2="114.46" y2="211.56" stroke="#D32F2F" stroke-width="8.00" stroke-linecap="round"/>
<line x1="137.77" y1="215.32" x2="117.18" y2="236.37" stroke="#D32F2F" stroke-width="8.00" stroke-linecap="round"/>
<line x1="96.14" y1="238.50" x2="117.18" y2="236.37" stroke="#D32F2F" stroke-width="8.00" stroke-linecap="round"/>
<line x1="140.73" y1="245.11" x2="119.79" y2="264.28" stroke="#D32F2F" stroke-width="8.00" stroke-linecap="round"/>
<line x1="98.54" y1="262.67" x2="119.79" y2="264.28" stroke="#D32F2F" stroke-width="8.00" stroke-linecap="round"/>
<line x1="143.51" y1="277.94" x2="122.23" y2="294.77" stroke="#D32F2F" stroke-width="8.00" stroke-linecap="round"/>
<line x1="100.80" y1="289.40" x2="122.23" y2="294.77" stroke="#D32F2F" stroke-width="8.00" stroke-linecap="round"/>
<line x1="146.05" y1="312.95" x2="124.44" y2="327.02" stroke="#D32F2F" stroke-width="8.00" stroke-linecap="round"/>
<line x1="102.88" y1="318.01" x2="124.44" y2="327.02" stroke="#D32F2F" stroke-width="8.00" stroke-linecap="round"/>
<line x1="148.28" y1="348.98" x2="126.37" y2="359.92" stroke="#D32F2F" stroke-width="8.00" stroke-linecap="round"/>
<line x1="104.71" y1="347.54" x2="126.37" y2="359.92" stroke="#D32F2F" stroke-width="8.00" stroke-linecap="round"/>
<line x1="150.15" y1="384.67" x2="127.94" y2="392.17" stroke="#D32F2F" stroke-width="8.00" stroke-linecap="round"/>
<line x1="106.24" y1="376.81" x2="127.94" y2="392.17" stroke="#D32F2F" stroke-width="8.00" stroke-linecap="round"/>
<line x1="151.57" y1="418.62" x2="129.09" y2="422.51" stroke="#D32F2F" stroke-width="8.00" stroke-linecap="round"/>
<line x1="107.41" y1="404.64" x2="129.09" y2="422.51" stroke="#D32F2F" stroke-width="8.00" stroke-linecap="round"/>
<line x1="152.49" y1="449.64" x2="129.75" y2="449.86" stroke="#D32F2F" stroke-width="8.00" stroke-linecap="round"/>
<line x1="108.15" y1="429.99" x2="129.75" y2="449.86" stroke="#D32F2F" stroke-width="7.73" stroke-linecap="round"/>
<line x1="152.84" y1="476.83" x2="129.89" y2="473.46" stroke="#D32F2F" stroke-width="8.00" stroke-linecap="round"/>
<line x1="108.45" y1="452.12" x2="129.89" y2="473.46" stroke="#D32F2F" stroke-width="6.82" stroke-linecap="round"/>
<line x1="152.64" y1="499.65" x2="129.51" y2="492.93" stroke="#D32F2F" stroke-width="8.00" stroke-linecap="round"/>
<line x1="108.28" y1="470.64" x2="129.51" y2="492.93" stroke="#D32F2F" stroke-width="5.80" stroke-linecap="round"/>
<line x1="151.91" y1="517.92" x2="128.67" y2="508.21" stroke="#D32F2F" stroke-width="8.00" stroke-linecap="round"/>
<line x1="107.69" y1="485.46" x2="128.67" y2="508.21" stroke="#D32F2F" stroke-width="4.73" stroke-linecap="round"/>
<line x1="150.77" y1="531.76" x2="127.49" y2="519.46" stroke="#D32F2F" stroke-width="8.00" stroke-linecap="round"/>
<line x1="106.76" y1="496.73" x2="127.49" y2="519.46" stroke="#D32F2F" stroke-width="5.05" stroke-linecap="round"/>
<line x1="149.35" y1="541.47" x2="126.10" y2="527.00" stroke="#D32F2F" stroke-width="7.73" stroke-linecap="round"/>
<line x1="105.59" y1="504.71" x2="126.10" y2="527.00" stroke="#D32F2F" stroke-width="5.70" stroke-linecap="round"/>
<line x1="147.85" y1="547.46" x2="124.68" y2="531.24" stroke="#D32F2F" stroke-width="7.25" stroke-linecap="round"/>
<line x1="104.33" y1="509.72" x2="124.68" y2="531.24" stroke="#D32F2F" stroke-width="6.33" stroke-linecap="round"/>
<line x1="146.46" y1="550.19" x2="123.46" y2="532.58" stroke="#D32F2F" stroke-width="6.84" stroke-linecap="round"/>
<line x1="103.15" y1="512.06" x2="123.46" y2="532.58" stroke="#D32F2F" stroke-width="6.90" stroke-linecap="round"/>
<line x1="544.22" y1="492.30" x2="523.90" y2="515.87" stroke="#D32F2F" stroke-width="4.10" stroke-linecap="round"/>
<line x1="500.98" y1="537.24" x2="516.43" y2="521.07" stroke="#D32F2F" stroke-width="8.00" stroke-linecap="round"/>
<line x1="537.48" y1="498.14" x2="516.43" y2="521.07" stroke="#D32F2F" stroke-width="4.11" stroke-linecap="round"/>
<line x1="492.77" y1="541.67" x2="507.94" y2="524.53" stroke="#D32F2F" stroke-width="8.00" stroke-linecap="round"/>
<line x1="529.73" y1="502.33" x2="507.94" y2="524.53" stroke="#D32F2F" stroke-width="4.19" stroke-linecap="round"/>
<line x1="483.42" y1="544.21" x2="498.65" y2="525.97" stroke="#D32F2F" stroke-width="8.00" stroke-linecap="round"/>
<line x1="521.21" y1="504.65" x2="498.65" y2="525.97" stroke="#D32F2F" stroke-width="4.49" stroke-linecap="round"/>
<line x1="473.14" y1="544.45" x2="488.76" y2="525.08" stroke="#D32F2F" stroke-width="8.00" stroke-linecap="round"/>
<line x1="512.15" y1="504.87" x2="488.76" y2="525.08" stroke="#D32F2F" stroke-width="4.91" stroke-linecap="round"/>
<line x1="462.17" y1="541.93" x2="478.49" y2="521.51" stroke="#D32F2F" stroke-width="8.00" stroke-linecap="round"/>
<line x1="502.75" y1="502.71" x2="478.49" y2="521.51" stroke="#D32F2F" stroke-width="5.42" stroke-linecap="round"/>
<line x1="450.77" y1="536.17" x2="468.08" y2="514.89" stroke="#D32F2F" stroke-width="7.77" stroke-linecap="round"/>
<line x1="493.22" y1="497.90" x2="468.08" y2="514.89" stroke="#D32F2F" stroke-width="6.00" stroke-linecap="round"/>
<line x1="439.26" y1="526.69" x2="457.77" y2="504.85" stroke="#D32F2F" stroke-width="7.38" stroke-linecap="round"/>
<line x1="483.75" y1="490.10" x2="457.77" y2="504.85" stroke="#D32F2F" stroke-width="6.64" stroke-linecap="round"/>
<line x1="427.99" y1="513.07" x2="447.83" y2="491.04" stroke="#D32F2F" stroke-width="7.10" stroke-linecap="round"/>
<line x1="474.57" y1="479.01" x2="447.83" y2="491.04" stroke="#D32F2F" stroke-width="7.30" stroke-linecap="round"/>
<line x1="417.34" y1="494.99" x2="438.59" y2="473.23" stroke="#D32F2F" stroke-width="6.99" stroke-linecap="round"/>
<line x1="465.93" y1="464.35" x2="438.59" y2="473.23" stroke="#D32F2F" stroke-width="7.94" stroke-linecap="round"/>
<line x1="407.72" y1="472.35" x2="430.38" y2="451.33" stroke="#D32F2F" stroke-width="7.09" stroke-linecap="round"/>
<line x1="458.12" y1="445.97" x2="430.38" y2="451.33" stroke="#D32F2F" stroke-width="8.00" stroke-linecap="round"/>
<line x1="399.54" y1="445.30" x2="423.56" y2="425.54" stroke="#D32F2F" stroke-width="8.00" stroke-linecap="round"/>
<line x1="451.47" y1="423.96" x2="423.56" y2="425.54" stroke="#D32F2F" stroke-width="8.00" stroke-linecap="round"/>
<line x1="393.19" y1="414.38" x2="418.45" y2="396.39" stroke="#D32F2F" stroke-width="8.00" stroke-linecap="round"/>
<line x1="446.28" y1="398.69" x2="418.45" y2="396.39" stroke="#D32F2F" stroke-width="8.00" stroke-linecap="round"/>
<line x1="388.98" y1="380.47" x2="415.34" y2="364.76" stroke="#D32F2F" stroke-width="8.00" stroke-linecap="round"/>
<line x1="442.82" y1="370.90" x2="415.34" y2="364.76" stroke="#D32F2F" stroke-width="8.00" stroke-linecap="round"/>
<line x1="387.11" y1="344.79" x2="414.41" y2="331.82" stroke="#D32F2F" stroke-width="8.00" stroke-linecap="round"/>
<line x1="441.29" y1="341.62" x2="414.41" y2="331.82" stroke="#D32F2F" stroke-width="8.00" stroke-linecap="round"/>
<line x1="387.66" y1="308.71" x2="415.69" y2="298.88" stroke="#D32F2F" stroke-width="8.00" stroke-linecap="round"/>
<line x1="441.75" y1="312.05" x2="415.69" y2="298.88" stroke="#D32F2F" stroke-width="8.00" stroke-linecap="round"/>
<line x1="390.57" y1="273.60" x2="419.08" y2="267.19" stroke="#D32F2F" stroke-width="8.00" stroke-linecap="round"/>
<line x1="444.12" y1="283.36" x2="419.08" y2="267.19" stroke="#D32F2F" stroke-width="8.00" stroke-linecap="round"/>
<line x1="395.60" y1="240.63" x2="424.37" y2="237.76" stroke="#D32F2F" stroke-width="8.00" stroke-linecap="round"/>
<line x1="448.22" y1="256.52" x2="424.37" y2="237.76" stroke="#D32F2F" stroke-width="8.00" stroke-linecap="round"/>
<line x1="402.47" y1="210.67" x2="431.25" y2="211.32" stroke="#D32F2F" stroke-width="8.00" stroke-linecap="round"/>
<line x1="453.79" y1="232.21" x2="431.25" y2="211.32" stroke="#D32F2F" stroke-width="8.00" stroke-linecap="round"/>
<line x1="410.79" y1="184.24" x2="439.36" y2="188.24" stroke="#D32F2F" stroke-width="8.00" stroke-linecap="round"/>
<line x1="460.54" y1="210.78" x2="439.36" y2="188.24" stroke="#D32F2F" stroke-width="7.46" stroke-linecap="round"/>
<line x1="420.17" y1="161.57" x2="448.36" y2="168.62" stroke="#D32F2F" stroke-width="8.00" stroke-linecap="round"/>
<line x1="468.18" y1="192.32" x2="448.36" y2="168.62" stroke="#D32F2F" stroke-width="6.63" stroke-linecap="round"/>
<line x1="430.19" y1="142.63" x2="457.88" y2="152.35" stroke="#D32F2F" stroke-width="7.79" stroke-linecap="round"/>
<line x1="476.43" y1="176.74" x2="457.88" y2="152.35" stroke="#D32F2F" stroke-width="6.70" stroke-linecap="round"/>
<line x1="440.48" y1="127.23" x2="467.59" y2="139.21" stroke="#D32F2F" stroke-width="7.32" stroke-linecap="round"/>
<line x1="485.04" y1="163.85" x2="467.59" y2="139.21" stroke="#D32F2F" stroke-width="6.88" stroke-linecap="round"/>
<line x1="450.69" y1="115.03" x2="477.20" y2="128.88" stroke="#D32F2F" stroke-width="6.90" stroke-linecap="round"/>
<line x1="493.77" y1="153.42" x2="477.20" y2="128.88" stroke="#D32F2F" stroke-width="7.13" stroke-linecap="round"/>
<line x1="460.49" y1="105.69" x2="486.40" y2="121.04" stroke="#D32F2F" stroke-width="6.56" stroke-linecap="round"/>
<line x1="502.42" y1="145.19" x2="486.40" y2="121.04" stroke="#D32F2F" stroke-width="7.40" stroke-linecap="round"/>
<line x1="469.62" y1="98.80" x2="494.95" y2="115.35" stroke="#D32F2F" stroke-width="6.30" stroke-linecap="round"/>
<line x1="510.73" y1="138.92" x2="494.95" y2="115.35" stroke="#D32F2F" stroke-width="7.65" stroke-linecap="round"/>
<line x1="477.81" y1="94.00" x2="502.57" y2="111.49" stroke="#D32F2F" stroke-width="6.14" stroke-linecap="round"/>
<line x1="518.46" y1="134.39" x2="502.57" y2="111.49" stroke="#D32F2F" stroke-width="7.83" stroke-linecap="round"/>
<line x1="484.83" y1="90.93" x2="509.02" y2="109.15" stroke="#D32F2F" stroke-width="6.08" stroke-linecap="round"/>
<line x1="525.35" y1="131.38" x2="509.02" y2="109.15" stroke="#D32F2F" stroke-width="7.91" stroke-linecap="round"/>
<line x1="490.47" y1="89.26" x2="514.04" y2="108.07" stroke="#D32F2F" stroke-width="6.12" stroke-linecap="round"/>
<line x1="531.09" y1="129.68" x2="514.04" y2="108.07" stroke="#D32F2F" stroke-width="7.87" stroke-linecap="round"/>
<line x1="494.50" y1="88.70" x2="517.35" y2="107.98" stroke="#D32F2F" stroke-width="6.26" stroke-linecap="round"/>
<line x1="535.35" y1="129.09" x2="517.35" y2="107.98" stroke="#D32F2F" stroke-width="7.68" stroke-linecap="round"/>
<line x1="123.47" y1="97.28" x2="102.05" y2="118.48" stroke="#D32F2F" stroke-width="5.98" stroke-linecap="round"/>
<line x1="122.03" y1="100.26" x2="101.24" y2="122.15" stroke="#D32F2F" stroke-width="5.92" stroke-linecap="round"/>
<line x1="83.03" y1="142.04" x2="101.24" y2="122.15" stroke="#D32F2F" stroke-width="7.96" stroke-linecap="round"/>
<line x1="121.76" y1="104.92" x2="101.49" y2="127.52" stroke="#D32F2F" stroke-width="5.74" stroke-linecap="round"/>
<line x1="82.77" y1="146.44" x2="101.49" y2="127.52" stroke="#D32F2F" stroke-width="8.00" stroke-linecap="round"/>
<line x1="122.48" y1="111.63" x2="102.58" y2="134.88" stroke="#D32F2F" stroke-width="5.45" stroke-linecap="round"/>
<line x1="83.42" y1="152.55" x2="102.58" y2="134.88" stroke="#D32F2F" stroke-width="8.00" stroke-linecap="round"/>
<line x1="124.01" y1="120.78" x2="104.32" y2="144.52" stroke="#D32F2F" stroke-width="5.09" stroke-linecap="round"/>
<line x1="84.77" y1="160.61" x2="104.32" y2="144.52" stroke="#D32F2F" stroke-width="8.00" stroke-linecap="round"/>
<line x1="126.17" y1="132.75" x2="106.52" y2="156.74" stroke="#D32F2F" stroke-width="4.82" stroke-linecap="round"/>
<line x1="86.62" y1="170.86" x2="106.52" y2="156.74" stroke="#D32F2F" stroke-width="8.00" stroke-linecap="round"/>
<line x1="128.78" y1="147.93" x2="109.03" y2="171.83" stroke="#D32F2F" stroke-width="5.80" stroke-linecap="round"/>
<line x1="88.80" y1="183.55" x2="109.03" y2="171.83" stroke="#D32F2F" stroke-width="8.00" stroke-linecap="round"/>
<line x1="131.68" y1="166.64" x2="111.71" y2="190.05" stroke="#D32F2F" stroke-width="6.79" stroke-linecap="round"/>
<line x1="91.19" y1="198.94" x2="111.71" y2="190.05" stroke="#D32F2F" stroke-width="8.00" stroke-linecap="round"/>
<line x1="134.72" y1="189.09" x2="114.46" y2="211.56" stroke="#D32F2F" stroke-width="7.73" stroke-linecap="round"/>
<line x1="93.67" y1="217.22" x2="114.46" y2="211.56" stroke="#D32F2F" stroke-width="8.00" stroke-linecap="round"/>
<line x1="137.77" y1="215.32" x2="117.18" y2="236.37" stroke="#D32F2F" stroke-width="8.00" stroke-linecap="round"/>
<line x1="96.14" y1="238.50" x2="117.18" y2="236.37" stroke="#D32F2F" stroke-width="8.00" stroke-linecap="round"/>
<line x1="140.73" y1="245.11" x2="119.79" y2="264.28" stroke="#D32F2F" stroke-width="8.00" stroke-linecap="round"/>
<line x1="98.54" y1="262.67" x2="119.79" y2="264.28" stroke="#D32F2F" stroke-width="8.00" stroke-linecap="round"/>
<line x1="143.51" y1="277.94" x2="122.23" y2="294.77" stroke="#D32F2F" stroke-width="8.00" stroke-linecap="round"/>
<line x1="100.80" y1="289.40" x2="122.23" y2="294.77" stroke="#D32F2F" stroke-width="8.00" stroke-linecap="round"/>
<line x1="146.05" y1="312.95" x2="124.44" y2="327.02" stroke="#D32F2F" stroke-width="8.00" stroke-linecap="round"/>
<line x1="102.88" y1="318.01" x2="124.44" y2="327.02" stroke="#D32F2F" stroke-width="8.00" stroke-linecap="round"/>
<line x1="148.28" y1="348.98" x2="126.37" y2="359.92" stroke="#D32F2F" stroke-width="8.00" stroke-linecap="round"/>
<line x1="104.71" y1="347.54" x2="126.37" y2="359.92" stroke="#D32F2F" stroke-width="8.00" stroke-linecap="round"/>
<line x1="150.15" y1="384.67" x2="127.94" y2="392.17" stroke="#D32F2F" stroke-width="8.00" stroke-linecap="round"/>
<line x1="106.24" y1="376.81" x2="127.94" y2="392.17" stroke="#D32F2F" stroke-width="8.00" stroke-linecap="round"/>
<line x1="151.57" y1="418.62" x2="129.09" y2="422.51" stroke="#D32F2F" stroke-width="8.00" stroke-linecap="round"/>
<line x1="107.41" y1="404.64" x2="129.09" y2="422.51" stroke="#D32F2F" stroke-width="8.00" stroke-linecap="round"/>
<line x1="152.49" y1="449.64" x2="129.75" y2="449.86" stroke="#D32F2F" stroke-width="8.00" stroke-linecap="round"/>
<line x1="108.15" y1="429.99" x2="129.75" y2="449.86" stroke="#D32F2F" stroke-width="7.73" stroke-linecap="round"/>
<line x1="152.84" y1="476.83" x2="129.89" y2="473.46" stroke="#D32F2F" stroke-width="8.00" stroke-linecap="round"/>
<line x1="108.45" y1="452.12" x2="129.89" y2="473.46" stroke="#D32F2F" stroke-width="6.82" stroke-linecap="round"/>
<line x1="152.64" y1="499.65" x2="129.51" y2="492.93" stroke="#D32F2F" stroke-width="8.00" stroke-linecap="round"/>
<line x1="108.28" y1="470.64" x2="129.51" y2="492.93" stroke="#D32F2F" stroke-width="5.80" stroke-linecap="round"/>
<line x1="151.91" y1="517.92" x2="128.67" y2="508.21" stroke="#D32F2F" stroke-width="8.00" stroke-linecap="round"/>
<line x1="107.69" y1="485.46" x2="128.67" y2="508.21" stroke="#D32F2F" stroke-width="4.73" stroke-linecap="round"/>
<line x1="150.77" y1="531.76" x2="127.49" y2="519.46" stroke="#D32F2F" stroke-width="8.00" stroke-linecap="round"/>
<line x1="106.76" y1="496.73" x2="127.49" y2="519.46" stroke="#D32F2F" stroke-width="5.05" stroke-linecap="round"/>
<line x1="149.35" y1="541.47" x2="126.10" y2="527.00" stroke="#D32F2F" stroke-width="7.73" stroke-linecap="round"/>
<line x1="105.59" y1="504.71" x2="126.10" y2="527.00" stroke="#D32F2F" stroke-width="5.70" stroke-linecap="round"/>
<line x1="147.85" y1="547.46" x2="124.68" y2="531.24" stroke="#D32F2F" stroke-width="7.25" stroke-linecap="round"/>
<line x1="104.33" y1="509.72" x2="124.68" y2="531.24" stroke="#D32F2F" stroke-width="6.33" stroke-linecap="round"/>
<line x1="146.46" y1="550.19" x2="123.46" y2="532.58" stroke="#D32F2F" stroke-width="6.84" stroke-linecap="round"/>
<line x1="103.15" y1="512.06" x2="123.46" y2="532.58" stroke="#D32F2F" stroke-width="6.90" stroke-linecap="round"/>
</svg>