<svg width="630.0" height="630.0" viewBox="0 0 630.0 630.0" xmlns="http://www.w3.org/2000/svg">
<circle cx="315.0" cy="315.0" r="290.0" fill="#FDFDF5" stroke="#ccc" stroke-width="0.5"/>
<line x1="467.56" y1="561.29" x2="491.72" y2="544.92" stroke="#D32F2F" stroke-width="6.73" stroke-linecap="round"/>
<line x1="486.28" y1="546.01" x2="508.68" y2="529.55" stroke="#D32F2F" stroke-width="7.54" stroke-linecap="round"/>
<line x1="504.01" y1="527.14" x2="524.57" y2="511.14" stroke="#D32F2F" stroke-width="8.00" stroke-linecap="round"/>
<line x1="531.67" y1="507.42" x2="524.57" y2="511.14" stroke="#D32F2F" stroke-width="8.00" stroke-linecap="round"/>
<line x1="520.35" y1="505.61" x2="539.12" y2="490.51" stroke="#D32F2F" stroke-width="8.00" stroke-linecap="round"/>
<line x1="544.92" y1="489.96" x2="539.12" y2="490.51" stroke="#D32F2F" stroke-width="8.00" stroke-linecap="round"/>
<line x1="535.06" y1="482.30" x2="552.12" y2="468.40" stroke="#D32F2F" stroke-width="8.00" stroke-linecap="round"/>
<line x1="556.90" y1="470.97" x2="552.12" y2="468.40" stroke="#D32F2F" stroke-width="8.00" stroke-linecap="round"/>
<line x1="547.99" y1="457.91" x2="563.48" y2="445.37" stroke="#D32F2F" stroke-width="8.00" stroke-linecap="round"/>
<line x1="567.54" y1="450.91" x2="563.48" y2="445.37" stroke="#D32F2F" stroke-width="8.00" stroke-linecap="round"/>
<line x1="559.06" y1="433.03" x2="573.14" y2="421.85" stroke="#D32F2F" stroke-width="8.00" stroke-linecap="round"/>
<line x1="576.80" y1="430.09" x2="573.14" y2="421.85" stroke="#D32F2F" stroke-width="8.00" stroke-linecap="round"/>
<line x1="568.26" y1="408.05" x2="581.10" y2="398.12" stroke="#D32F2F" stroke-width="8.00" stroke-linecap="round"/>
<line x1="584.67" y1="408.70" x2="581.10" y2="398.12" stroke="#D32F2F" stroke-width="8.00" stroke-linecap="round"/>
<line x1="575.57" y1="383.26" x2="587.32" y2="374.35" stroke="#D32F2F" stroke-width="8.00" stroke-linecap="round"/>
<line x1="591.11" y1="386.85" x2="587.32" y2="374.35" stroke="#D32F2F" stroke-width="8.00" stroke-linecap="round"/>
<line x1="581.01" y1="358.82" x2="591.78" y2="350.64" stroke="#D32F2F" stroke-width="8.00" stroke-linecap="round"/>
<line x1="596.06" y1="364.58" x2="591.78" y2="350.64" stroke="#D32F2F" stroke-width="8.00" stroke-linecap="round"/>
<line x1="584.60" y1="334.80" x2="594.46" y2="327.02" stroke="#D32F2F" stroke-width="8.00" stroke-linecap="round"/>
<line x1="599.44" y1="341.89" x2="594.46" y2="327.02" stroke="#D32F2F" stroke-width="8.00" stroke-linecap="round"/>
<line x1="586.32" y1="311.23" x2="595.29" y2="303.51" stroke="#D32F2F" stroke-width="8.00" stroke-linecap="round"/>
<line x1="601.13" y1="318.77" x2="595.29" y2="303.51" stroke="#D32F2F" stroke-width="8.00" stroke-linecap="round"/>
<line x1="586.18" y1="288.11" x2="594.20" y2="280.09" stroke="#D32F2F" stroke-width="8.00" stroke-linecap="round"/>
<line x1="600.98" y1="295.20" x2="594.20" y2="280.09" stroke="#D32F2F" stroke-width="8.00" stroke-linecap="round"/>
<line x1="584.13" y1="265.42" x2="591.09" y2="256.75" stroke="#D32F2F" stroke-width="8.00" stroke-linecap="round"/>
<line x1="598.80" y1="271.18" x2="591.09" y2="256.75" stroke="#D32F2F" stroke-width="8.00" stroke-linecap="round"/>
<line x1="580.11" y1="243.15" x2="585.84" y2="233.50" stroke="#D32F2F" stroke-width="8.00" stroke-linecap="round"/>
<line x1="594.38" y1="246.74" x2="585.84" y2="233.50" stroke="#D32F2F" stroke-width="8.00" stroke-linecap="round"/>
<line x1="574.03" y1="221.30" x2="578.30" y2="210.40" stroke="#D32F2F" stroke-width="8.00" stroke-linecap="round"/>
<line x1="587.48" y1="221.95" x2="578.30" y2="210.40" stroke="#D32F2F" stroke-width="8.00" stroke-linecap="round"/>
<line x1="565.79" y1="199.91" x2="568.29" y2="187.56" stroke="#D32F2F" stroke-width="8.00" stroke-linecap="round"/>
<line x1="577.85" y1="196.97" x2="568.29" y2="187.56" stroke="#D32F2F" stroke-width="8.00" stroke-linecap="round"/>
<line x1="555.23" y1="179.09" x2="555.63" y2="165.17" stroke="#D32F2F" stroke-width="8.00" stroke-linecap="round"/>
<line x1="565.23" y1="172.09" x2="555.63" y2="165.17" stroke="#D32F2F" stroke-width="8.00" stroke-linecap="round"/>
<line x1="542.22" y1="159.03" x2="540.15" y2="143.57" stroke="#D32F2F" stroke-width="8.00" stroke-linecap="round"/>
<line x1="549.41" y1="147.70" x2="540.15" y2="143.57" stroke="#D32F2F" stroke-width="8.00" stroke-linecap="round"/>
<line x1="526.62" y1="140.04" x2="521.73" y2="123.22" stroke="#D32F2F" stroke-width="8.00" stroke-linecap="round"/>
<line x1="530.25" y1="124.39" x2="521.73" y2="123.22" stroke="#D32F2F" stroke-width="8.00" stroke-linecap="round"/>
<line x1="508.35" y1="122.58" x2="500.39" y2="104.74" stroke="#D32F2F" stroke-width="8.00" stroke-linecap="round"/>
<line x1="507.73" y1="102.86" x2="500.39" y2="104.74" stroke="#D32F2F" stroke-width="8.00" stroke-linecap="round"/>
<line x1="487.49" y1="107.27" x2="476.27" y2="88.87" stroke="#D32F2F" stroke-width="8.00" stroke-linecap="round"/>
<line x1="482.02" y1="83.99" x2="476.27" y2="88.87" stroke="#D32F2F" stroke-width="8.00" stroke-linecap="round"/>
<line x1="464.33" y1="94.83" x2="449.79" y2="76.45" stroke="#D32F2F" stroke-width="8.00" stroke-linecap="round"/>
<line x1="453.56" y1="68.71" x2="449.79" y2="76.45" stroke="#D32F2F" stroke-width="8.00" stroke-linecap="round"/>
<line x1="439.40" y1="86.00" x2="421.63" y2="68.25" stroke="#D32F2F" stroke-width="8.00" stroke-linecap="round"/>
<line x1="423.06" y1="57.90" x2="421.63" y2="68.25" stroke="#D32F2F" stroke-width="8.00" stroke-linecap="round"/>
<line x1="413.52" y1="81.41" x2="392.74" y2="64.91" stroke="#D32F2F" stroke-width="8.00" stroke-linecap="round"/>
<line x1="391.48" y1="52.30" x2="392.74" y2="64.91" stroke="#D32F2F" stroke-width="8.00" stroke-linecap="round"/>
<line x1="387.69" y1="81.41" x2="364.22" y2="66.72" stroke="#D32F2F" stroke-width="8.00" stroke-linecap="round"/>
<line x1="360.00" y1="52.30" x2="364.22" y2="66.72" stroke="#D32F2F" stroke-width="8.00" stroke-linecap="round"/>
<line x1="362.98" y1="86.00" x2="337.21" y2="73.59" stroke="#D32F2F" stroke-width="8.00" stroke-linecap="round"/>
<line x1="329.85" y1="57.90" x2="337.21" y2="73.59" stroke="#D32F2F" stroke-width="8.00" stroke-linecap="round"/>
<line x1="340.31" y1="94.83" x2="312.69" y2="85.08" stroke="#D32F2F" stroke-width="7.78" stroke-linecap="round"/>
<line x1="302.11" y1="68.71" x2="312.69" y2="85.08" stroke="#D32F2F" stroke-width="8.00" stroke-linecap="round"/>
<line x1="320.38" y1="107.27" x2="291.38" y2="100.45" stroke="#D32F2F" stroke-width="7.65" stroke-linecap="round"/>
<line x1="277.62" y1="83.99" x2="291.38" y2="100.45" stroke="#D32F2F" stroke-width="8.00" stroke-linecap="round"/>
<line x1="303.58" y1="122.58" x2="273.66" y2="118.86" stroke="#D32F2F" stroke-width="7.63" stroke-linecap="round"/>
<line x1="256.92" y1="102.86" x2="273.66" y2="118.86" stroke="#D32F2F" stroke-width="8.00" stroke-linecap="round"/>
<line x1="290.00" y1="140.04" x2="259.61" y2="139.49" stroke="#D32F2F" stroke-width="7.75" stroke-linecap="round"/>
<line x1="240.18" y1="124.39" x2="259.61" y2="139.49" stroke="#D32F2F" stroke-width="8.00" stroke-linecap="round"/>
<line x1="279.54" y1="159.03" x2="249.08" y2="161.60" stroke="#D32F2F" stroke-width="7.98" stroke-linecap="round"/>
<line x1="227.33" y1="147.70" x2="249.08" y2="161.60" stroke="#D32F2F" stroke-width="8.00" stroke-linecap="round"/>
<line x1="271.94" y1="179.09" x2="241.76" y2="184.63" stroke="#D32F2F" stroke-width="8.00" stroke-linecap="round"/>
<line x1="218.09" y1="172.09" x2="241.76" y2="184.63" stroke="#D32F2F" stroke-width="8.00" stroke-linecap="round"/>
<line x1="266.88" y1="199.91" x2="237.25" y2="208.15" stroke="#D32F2F" stroke-width="8.00" stroke-linecap="round"/>
<line x1="212.03" y1="196.97" x2="237.25" y2="208.15" stroke="#D32F2F" stroke-width="8.00" stroke-linecap="round"/>
<line x1="264.02" y1="221.30" x2="235.10" y2="231.88" stroke="#D32F2F" stroke-width="8.00" stroke-linecap="round"/>
<line x1="208.69" y1="221.95" x2="235.10" y2="231.88" stroke="#D32F2F" stroke-width="8.00" stroke-linecap="round"/>
<line x1="263.02" y1="243.15" x2="234.87" y2="255.65" stroke="#D32F2F" stroke-width="8.00" stroke-linecap="round"/>
<line x1="207.56" y1="246.74" x2="234.87" y2="255.65" stroke="#D32F2F" stroke-width="8.00" stroke-linecap="round"/>
<line x1="263.56" y1="265.42" x2="236.12" y2="279.36" stroke="#D32F2F" stroke-width="8.00" stroke-linecap="round"/>
<line x1="208.15" y1="271.18" x2="236.12" y2="279.36" stroke="#D32F2F" stroke-width="8.00" stroke-linecap="round"/>
<line x1="265.31" y1="288.11" x2="238.45" y2="302.98" stroke="#D32F2F" stroke-width="8.00" stroke-linecap="round"/>
<line x1="210.00" y1="295.20" x2="238.45" y2="302.98" stroke="#D32F2F" stroke-width="8.00" stroke-linecap="round"/>
<line x1="267.95" y1="311.23" x2="241.46" y2="326.49" stroke="#D32F2F" stroke-width="8.00" stroke-linecap="round"/>
<line x1="212.68" y1="318.77" x2="241.46" y2="326.49" stroke="#D32F2F" stroke-width="8.00" stroke-linecap="round"/>
<line x1="271.14" y1="334.80" x2="244.79" y2="349.91" stroke="#D32F2F" stroke-width="8.00" stroke-linecap="round"/>
<line x1="215.81" y1="341.89" x2="244.79" y2="349.91" stroke="#D32F2F" stroke-width="8.00" stroke-linecap="round"/>
<line x1="274.53" y1="358.82" x2="248.07" y2="373.25" stroke="#D32F2F" stroke-width="8.00" stroke-linecap="round"/>
<line x1="219.01" y1="364.58" x2="248.07" y2="373.25" stroke="#D32F2F" stroke-width="8.00" stroke-linecap="round"/>
<line x1="277.76" y1="383.26" x2="250.95" y2="396.50" stroke="#D32F2F" stroke-width="8.00" stroke-linecap="round"/>
<line x1="221.96" y1="386.85" x2="250.95" y2="396.50" stroke="#D32F2F" stroke-width="8.00" stroke-linecap="round"/>
<line x1="280.44" y1="408.05" x2="253.10" y2="419.60" stroke="#D32F2F" stroke-width="8.00" stroke-linecap="round"/>
<line x1="224.32" y1="408.70" x2="253.10" y2="419.60" stroke="#D32F2F" stroke-width="8.00" stroke-linecap="round"/>
<line x1="282.14" y1="433.03" x2="254.15" y2="442.44" stroke="#D32F2F" stroke-width="8.00" stroke-linecap="round"/>
<line x1="225.78" y1="430.09" x2="254.15" y2="442.44" stroke="#D32F2F" stroke-width="8.00" stroke-linecap="round"/>
<line x1="282.43" y1="457.91" x2="253.75" y2="464.83" stroke="#D32F2F" stroke-width="8.00" stroke-linecap="round"/>
<line x1="226.03" y1="450.91" x2="253.75" y2="464.83" stroke="#D32F2F" stroke-width="7.96" stroke-linecap="round"/>
<line x1="280.89" y1="482.30" x2="251.58" y2="486.43" stroke="#D32F2F" stroke-width="8.00" stroke-linecap="round"/>
<line x1="224.76" y1="470.97" x2="251.58" y2="486.43" stroke="#D32F2F" stroke-width="7.85" stroke-linecap="round"/>
<line x1="277.12" y1="505.61" x2="247.30" y2="506.78" stroke="#D32F2F" stroke-width="8.00" stroke-linecap="round"/>
<line x1="221.69" y1="489.96" x2="247.30" y2="506.78" stroke="#D32F2F" stroke-width="7.85" stroke-linecap="round"/>
<line x1="270.80" y1="527.14" x2="240.69" y2="525.26" stroke="#D32F2F" stroke-width="7.85" stroke-linecap="round"/>
<line x1="216.56" y1="507.42" x2="240.69" y2="525.26" stroke="#D32F2F" stroke-width="7.97" stroke-linecap="round"/>
<line x1="261.73" y1="546.01" x2="231.59" y2="541.13" stroke="#D32F2F" stroke-width="7.03" stroke-linecap="round"/>
<line x1="209.20" y1="522.73" x2="231.59" y2="541.13" stroke="#D32F2F" stroke-width="8.00" stroke-linecap="round"/>
<line x1="249.89" y1="561.29" x2="220.01" y2="553.55" stroke="#D32F2F" stroke-width="6.11" stroke-linecap="round"/>
<line x1="199.56" y1="535.17" x2="220.01" y2="553.55" stroke="#D32F2F" stroke-width="8.00" stroke-linecap="round"/>
<line x1="235.47" y1="572.10" x2="206.16" y2="561.75" stroke="#D32F2F" stroke-width="5.11" stroke-linecap="round"/>
<line x1="187.78" y1="544.00" x2="206.16" y2="561.75" stroke="#D32F2F" stroke-width="8.00" stroke-linecap="round"/>
<line x1="218.88" y1="577.70" x2="190.45" y2="565.09" stroke="#D32F2F" stroke-width="4.50" stroke-linecap="round"/>
<line x1="174.18" y1="548.59" x2="190.45" y2="565.09" stroke="#D32F2F" stroke-width="8.00" stroke-linecap="round"/>
<line x1="200.71" y1="577.70" x2="173.46" y2="563.28" stroke="#D32F2F" stroke-width="5.14" stroke-linecap="round"/>
<line x1="159.27" y1="548.59" x2="173.46" y2="563.28" stroke="#D32F2F" stroke-width="8.00" stroke-linecap="round"/>
<line x1="181.66" y1="572.10" x2="155.85" y2="556.41" stroke="#D32F2F" stroke-width="5.91" stroke-linecap="round"/>
<line x1="143.66" y1="544.00" x2="155.85" y2="556.41" stroke="#D32F2F" stroke-width="8.00" stroke-linecap="round"/>
<line x1="467.56" y1="561.29" x2="491.72" y2="544.92" stroke="#D32F2F" stroke-width="6.73" stroke-linecap="round"/>
<line x1="486.28" y1="546.01" x2="508.68" y2="529.55" stroke="#D32F2F" stroke-width="7.54" stroke-linecap="round"/>
<line x1="504.01" y1="527.14" x2="524.57" y2="511.14" stroke="#D32F2F" stroke-width="8.00" stroke-linecap="round"/>
<line x1="531.67" y1="507.42" x2="524.57" y2="511.14" stroke="#D32F2F" stroke-width="8.00" stroke-linecap="round"/>
<line x1="520.35" y1="505.61" x2="539.12" y2="490.51" stroke="#D32F2F" stroke-width="8.00" stroke-linecap="round"/>
<line x1="544.92" y1="489.96" x2="539.12" y2="490.51" stroke="#D32F2F" stroke-width="8.00" stroke-linecap="round"/>
<line x1="535.06" y1="482.30" x2="552.12" y2="468.40" stroke="#D32F2F" stroke-width="8.00" stroke-linecap="round"/>
<line x1="556.90" y1="470.97" x2="552.12" y2="468.40" stroke="#D32F2F" stroke-width="8.00" stroke-linecap="round"/>
<line x1="547.99" y1="457.91" x2="563.48" y2="445.37" stroke="#D32F2F" stroke-width="8.00" stroke-linecap="round"/>
<line x1="567.54" y1="450.91" x2="563.48" y2="445.37" stroke="#D32F2F" stroke-width="8.00" stroke-linecap="round"/>
<line x1="559.06" y1="433.03" x2="573.14" y2="421.85" stroke="#D32F2F" stroke-width="8.00" stroke-linecap="round"/>
<line x1="576.80" y1="430.09" x2="573.14" y2="421.85" stroke="#D32F2F" stroke-width="8.00" stroke-linecap="round"/>
<line x1="568.26" y1="408.05" x2="581.10" y2="398.12" stroke="#D32F2F" stroke-width="8.00" stroke-linecap="round"/>
<line x1="584.67" y1="408.70" x2="581.10" y2="398.12" stroke="#D32F2F" stroke-width="8.00" stroke-linecap="round"/>
<line x1="575.57" y1="383.26" x2="587.32" y2="374.35" stroke="#D32F2F" stroke-width="8.00" stroke-linecap="round"/>
<line x1="591.11" y1="386.85" x2="587.32" y2="374.35" stroke="#D32F2F" stroke-width="8.00" stroke-linecap="round"/>
<line x1="581.01" y1="358.82" x2="591.78" y2="350.64" stroke="#D32F2F" stroke-width="8.00" stroke-linecap="round"/>
<line x1="596.06" y1="364.58" x2="591.78" y2="350.64" stroke="#D32F2F" stroke-width="8.00" stroke-linecap="round"/>
<line x1="584.60" y1="334.80" x2="594.46" y2="327.02" stroke="#D32F2F" stroke-width="8.00" stroke-linecap="round"/>
<line x1="599.44" y1="341.89" x2="594.46" y2="327.02" stroke="#D32F2F" stroke-width="8.00" stroke-linecap="round"/>
<line x1="586.32" y1="311.23" x2="595.29" y2="303.51" stroke="#D32F2F" stroke-width="8.00" stroke-linecap="round"/>
<line x1="601.13" y1="318.77" x2="595.29" y2="303.51" stroke="#D32F2F" stroke-width="8.00" stroke-linecap="round"/>
<line x1="586.18" y1="288.11" x2="594.20" y2="280.09" stroke="#D32F2F" stroke-width="8.00" stroke-linecap="round"/>
<line x1="600.98" y1="295.20" x2="594.20" y2="280.09" stroke="#D32F2F" stroke-width="8.00" stroke-linecap="round"/>
<line x1="584.13" y1="265.42" x2="591.09" y2="256.75" stroke="#D32F2F" stroke-width="8.00" stroke-linecap="round"/>
<line x1="598.80" y1="271.18" x2="591.09" y2="256.75" stroke="#D32F2F" stroke-width="8.00" stroke-linecap="round"/>
<line x1="580.11" y1="243.15" x2="585.84" y2="233.50" stroke="#D32F2F" stroke-width="8.00" stroke-linecap="round"/>
<line x1="594.38" y1="246.74" x2="585.84" y2="233.50" stroke="#D32F2F" stroke-width="8.00" stroke-linecap="round"/>
<line x1="574.03" y1="221.30" x2="578.30" y2="210.40" stroke="#D32F2F" stroke-width="8.00" stroke-linecap="round"/>
<line x1="587.48" y1="221.95" x2="578.30" y2="210.40" stroke="#D32F2F" stroke-width="8.00" stroke-linecap="round"/>
<line x1="565.79" y1="199.91" x2="568.29" y2="187.56" stroke="#D32F2F" stroke-width="8.00" stroke-linecap="round"/>
<line x1="577.85" y1="196.97" x2="568.29" y2="187.56" stroke="#D32F2F" stroke-width="8.00" stroke-linecap="round"/>
<line x1="555.23" y1="179.09" x2="555.63" y2="165.17" stroke="#D32F2F" stroke-width="8.00" stroke-linecap="round"/>
<line x1="565.23" y1="172.09" x2="555.63" y2="165.17" stroke="#D32F2F" stroke-width="8.00" stroke-linecap="round"/>
<line x1="542.22" y1="159.03" x2="540.15" y2="143.57" stroke="#D32F2F" stroke-width="8.00" stroke-linecap="round"/>
<line x1="549.41" y1="147.70" x2="540.15" y2="143.57" stroke="#D32F2F" stroke-width="8.00" stroke-linecap="round"/>
<line x1="526.62" y1="140.04" x2="521.73" y2="123.22" stroke="#D32F2F" stroke-width="8.00" stroke-linecap="round"/>
<line x1="530.25" y1="124.39" x2="521.73" y2="123.22" stroke="#D32F2F" stroke-width="8.00" stroke-linecap="round"/>
<line x1="508.35" y1="122.58" x2="500.39" y2="104.74" stroke="#D32F2F" stroke-width="8.00" stroke-linecap="round"/>
<line x1="507.73" y1="102.86" x2="500.39" y2="104.74" stroke="#D32F2F" stroke-width="8.00" stroke-linecap="round"/>
<line x1="487.49" y1="107.27" x2="476.27" y2="88.87" stroke="#D32F2F" stroke-width="8.00" stroke-linecap="round"/>
<line x1="482.02" y1="83.99" x2="476.27" y2="88.87" stroke="#D32F2F" stroke-width="8.00" stroke-linecap="round"/>
<line x1="464.33" y1="94.83" x2="449.79" y2="76.45" stroke="#D32F2F" stroke-width="8.00" stroke-linecap="round"/>
<line x1="453.56" y1="68.71" x2="449.79" y2="76.45" stroke="#D32F2F" stroke-width="8.00" stroke-linecap="round"/>
<line x1="439.40" y1="86.00" x2="421.63" y2="68.25" stroke="#D32F2F" stroke-width="8.00" stroke-linecap="round"/>
<line x1="423.06" y1="57.90" x2="421.63" y2="68.25" stroke="#D32F2F" stroke-width="8.00" stroke-linecap="round"/>
<line x1="413.52" y1="81.41" x2="392.74" y2="64.91" stroke="#D32F2F" stroke-width="8.00" stroke-linecap="round"/>
<line x1="391.48" y1="52.30" x2="392.74" y2="64.91" stroke="#D32F2F" stroke-width="8.00" stroke-linecap="round"/>
<line x1="387.69" y1="81.41" x2="364.22" y2="66.72" stroke="#D32F2F" stroke-width="8.00" stroke-linecap="round"/>
<line x1="360.00" y1="52.30" x2="364.22" y2="66.72" stroke="#D32F2F" stroke-width="8.00" stroke-linecap="round"/>
<line x1="362.98" y1="86.00" x2="337.21" y2="73.59" stroke="#D32F2F" stroke-width="8.00" stroke-linecap="round"/>
<line x1="329.85" y1="57.90" x2="337.21" y2="73.59" stroke="#D32F2F" stroke-width="8.00" stroke-linecap="round"/>
<line x1="340.31" y1="94.83" x2="312.69" y2="85.08" stroke="#D32F2F" stroke-width="7.78" stroke-linecap="round"/>
<line x1="302.11" y1="68.71" x2="312.69" y2="85.08" stroke="#D32F2F" stroke-width="8.00" stroke-linecap="round"/>
<line x1="320.38" y1="107.27" x2="291.38" y2="100.45" stroke="#D32F2F" stroke-width="7.65" stroke-linecap="round"/>
<line x1="277.62" y1="83.99" x2="291.38" y2="100.45" stroke="#D32F2F" stroke-width="8.00" stroke-linecap="round"/>
<line x1="303.58" y1="122.58" x2="273.66" y2="118.86" stroke="#D32F2F" stroke-width="7.63" stroke-linecap="round"/>
<line x1="256.92" y1="102.86" x2="273.66" y2="118.86" stroke="#D32F2F" stroke-width="8.00" stroke-linecap="round"/>
<line x1="290.00" y1="140.04" x2="259.61" y2="139.49" stroke="#D32F2F" stroke-width="7.75" stroke-linecap="round"/>
<line x1="240.18" y1="124.39" x2="259.61" y2="139.49" stroke="#D32F2F" stroke-width="8.00" stroke-linecap="round"/>
<line x1="279.54" y1="159.03" x2="249.08" y2="161.60" stroke="#D32F2F" stroke-width="7.98" stroke-linecap="round"/>
<line x1="227.33" y1="147.70" x2="249.08" y2="161.60" stroke="#D32F2F" stroke-width="8.00" stroke-linecap="round"/>
<line x1="271.94" y1="179.09" x2="241.76" y2="184.63" stroke="#D32F2F" stroke-width="8.00" stroke-linecap="round"/>
<line x1="218.09" y1="172.09" x2="241.76" y2="184.63" stroke="#D32F2F" stroke-width="8.00" stroke-linecap="round"/>
<line x1="266.88" y1="199.91" x2="237.25" y2="208.15" stroke="#D32F2F" stroke-width="8.00" stroke-linecap="round"/>
<line x1="212.03" y1="196.97" x2="237.25" y2="208.15" stroke="#D32F2F" stroke-width="8.00" stroke-linecap="round"/>
<line x1="264.02" y1="221.30" x2="235.10" y2="231.88" stroke="#D32F2F" stroke-width="8.00" stroke-linecap="round"/>
<line x1="208.69" y1="221.95" x2="235.10" y2="231.88" stroke="#D32F2F" stroke-width="8.00" stroke-linecap="round"/>
<line x1="263.02" y1="243.15" x2="234.87" y2="255.65" stroke="#D32F2F" stroke-width="8.00" stroke-linecap="round"/>
<line x1="207.56" y1="246.74" x2="234.87" y2="255.65" stroke="#D32F2F" stroke-width="8.00" stroke-linecap="round"/>
<line x1="263.56" y1="265.42" x2="236.12" y2="279.36" stroke="#D32F2F" stroke-width="8.00" stroke-linecap="round"/>
<line x1="208.15" y1="271.18" x2="236.12" y2="279.36" stroke="#D32F2F" stroke-width="8.00" stroke-linecap="round"/>
<line x1="265.31" y1="288.11" x2="238.45" y2="302.98" stroke="#D32F2F" stroke-width="8.00" stroke-linecap="round"/>
<line x1="210.00" y1="295.20" x2="238.45" y2="302.98" stroke="#D32F2F" stroke-width="8.00" stroke-linecap="round"/>
<line x1="267.95" y1="311.23" x2="241.46" y2="326.49" stroke="#D32F2F" stroke-width="8.00" stroke-linecap="round"/>
<line x1="212.68" y1="318.77" x2="241.46" y2="326.49" stroke="#D32F2F" stroke-width="8.00" stroke-linecap="round"/>
<line x1="271.14" y1="334.80" x2="244.79" y2="349.91" stroke="#D32F2F" stroke-width="8.00" stroke-linecap="round"/>
<line x1="215.81" y1="341.89" x2="244.79" y2="349.91" stroke="#D32F2F" stroke-width="8.00" stroke-linecap="round"/>
<line x1="274.53" y1="358.82" x2="248.07" y2="373.25" stroke="#D32F2F" stroke-width="8.00" stroke-linecap="round"/>
<line x1="219.01" y1="364.58" x2="248.07" y2="373.25" stroke="#D32F2F" stroke-width="8.00" stroke-linecap="round"/>
<line x1="277.76" y1="383.26" x2="250.95" y2="396.50" stroke="#D32F2F" stroke-width="8.00" stroke-linecap="round"/>
<line x1="221.96" y1="386.85" x2="250.95" y2="396.50" stroke="#D32F2F" stroke-width="8.00" stroke-linecap="round"/>
<line x1="280.44" y1="408.05" x2="253.10" y2="419.60" stroke="#D32F2F" stroke-width="8.00" stroke-linecap="round"/>
<line x1="224.32" y1="408.70" x2="253.10" y2="419.60" stroke="#D32F2F" stroke-width="8.00" stroke-linecap="round"/>
<line x1="282.14" y1="433.03" x2="254.15" y2="442.44" stroke="#D32F2F" stroke-width="8.00" stroke-linecap="round"/>
<line x1="225.78" y1="430.09" x2="254.15" y2="442.44" stroke="#D32F2F" stroke-width="8.00" stroke-linecap="round"/>
<line x1="282.43" y1="457.91" x2="253.75" y2="464.83" stroke="#D32F2F" stroke-width="8.00" stroke-linecap="round"/>
<line x1="226.03" y1="450.91" x2="253.75" y2="464.83" stroke="#D32F2F" stroke-width="7.96" stroke-linecap="round"/>
<line x1="280.89" y1="482.30" x2="251.58" y2="486.43" stroke="#D32F2F" stroke-width="8.00" stroke-linecap="round"/>
<line x1="224.76" y1="470.97" x2="251.58" y2="486.43" stroke="#D32F2F" stroke-width="7.85" stroke-linecap="round"/>
<line x1="277.12" y1="505.61" x2="247.30" y2="506.78" stroke="#D32F2F" stroke-width="8.00" stroke-linecap="round"/>
<line x1="221.69" y1="489.96" x2="247.30" y2="506.78" stroke="#D32F2F" stroke-width="7.85" stroke-linecap="round"/>
<line x1="270.80" y1="527.14" x2="240.69" y2="525.26" stroke="#D32F2F" stroke-width="7.85" stroke-linecap="round"/>
<line x1="216.56" y1="507.42" x2="240.69" y2="525.26" stroke="#D32F2F" stroke-width="7.97" stroke-linecap="round"/>
<line x1="261.73" y1="546.01" x2="231.59" y2="541.13" stroke="#D32F2F" stroke-width="7.03" stroke-linecap="round"/>
<line x1="209.20" y1="522.73" x2="231.59" y2="541.13" stroke="#D32F2F" stroke-width="8.00" stroke-linecap="round"/>
<line x1="249.89" y1="561.29" x2="220.01" y2="553.55" stroke="#D32F2F" stroke-width="6.11" stroke-linecap="round"/>
<line x1="199.56" y1="535.17" x2="220.01" y2="553.55" stroke="#D32F2F" stroke-width="8.00" stroke-linecap="round"/>
<line x1="235.47" y1="572.10" x2="206.16" y2="561.75" stroke="#D32F2F" stroke-width="5.11" stroke-linecap="round"/>
<line x1="187.78" y1="544.00" x2="206.16" y2="561.75" stroke="#D32F2F" stroke-width="8.00" stroke-linecap="round"/>
<line x1="218.88" y1="577.70" x2="190.45" y2="565.09" stroke="#D32F2F" stroke-width="4.50" stroke-linecap="round"/>
<line x1="174.18" y1="548.59" x2="190.45" y2="565.09" stroke="#D32F2F" stroke-width="8.00" stroke-linecap="round"/>
<line x1="200.71" y1="577.70" x2="173.46" y2="563.28" stroke="#D32F2F" stroke-width="5.14" stroke-linecap="round"/>
<line x1="159.27" y1="548.59" x2="173.46" y2="563.28" stroke="#D32F2F" stroke-width="8.00" stroke-linecap="round"/>
<line x1="181.66" y1="572.10" x2="155.85" y2="556.41" stroke="#D32F2F" stroke-width="5.91" stroke-linecap="round"/>
<line x1="143.66" y1="544.00" x2="155.85" y2="556.41" stroke="#D32F2F" stroke-width="8.00" stroke-linecap="round"/>
</svg>